  0
SECTION
  2
HEADER
  9
$ACADVER
  1
AC1003
  9
$EXTMIN
 10
0.00503989352787926
 20
18.011620210778
  9
$EXTMAX
 10
17.2550398935278
 20
9.18662021077795
  9
$INSBASE
 10
8.63003989352784
 20
13.599120210778
999
Created with OMAX Layout for Windows. (http://www.omax.com) 9/21/2012
  0
ENDSEC
  0
SECTION
  2
TABLES
  0
TABLE
  2
LAYER
 70
    10
  0
LAYER
  2
0
 70
     0
 62
     7
  6
CONTINUOUS
  0
LAYER
  2
1
 70
     0
 62
     7
  6
CONTINUOUS
  0
LAYER
  2
2
 70
     0
 62
     7
  6
CONTINUOUS
  0
LAYER
  2
3
 70
     0
 62
     7
  6
CONTINUOUS
  0
LAYER
  2
4
 70
     0
 62
     7
  6
CONTINUOUS
  0
LAYER
  2
5
 70
     0
 62
     7
  6
CONTINUOUS
  0
LAYER
  2
6
 70
     0
 62
     7
  6
CONTINUOUS
  0
LAYER
  2
7
 70
     0
 62
     7
  6
CONTINUOUS
  0
LAYER
  2
8
 70
     0
 62
     7
  6
CONTINUOUS
  0
LAYER
  2
9
 70
     0
 62
     7
  6
CONTINUOUS
  0
LAYER
  2
10
 70
     0
 62
     7
  6
CONTINUOUS
  0
LAYER
  2
11
 70
     0
 62
     7
  6
CONTINUOUS
  0
LAYER
  2
12
 70
     0
 62
     7
  6
CONTINUOUS
  0
LAYER
  2
13
 70
     0
 62
     7
  6
CONTINUOUS
  0
LAYER
  2
14
 70
     0
 62
     7
  6
CONTINUOUS
  0
LAYER
  2
15
 70
     0
 62
     7
  6
CONTINUOUS
  0
LAYER
  2
16
 70
     0
 62
     7
  6
CONTINUOUS
  0
LAYER
  2
17
 70
     0
 62
     7
  6
CONTINUOUS
  0
LAYER
  2
18
 70
     0
 62
     7
  6
CONTINUOUS
  0
LAYER
  2
19
 70
     0
 62
     7
  6
CONTINUOUS
  0
LAYER
  2
20
 70
     0
 62
     7
  6
CONTINUOUS
  0
LAYER
  2
21
 70
     0
 62
     7
  6
CONTINUOUS
  0
LAYER
  2
22
 70
     0
 62
     7
  6
CONTINUOUS
  0
LAYER
  2
23
 70
     0
 62
     7
  6
CONTINUOUS
  0
LAYER
  2
24
 70
     0
 62
     7
  6
CONTINUOUS
  0
LAYER
  2
25
 70
     0
 62
     7
  6
CONTINUOUS
  0
LAYER
  2
26
 70
     0
 62
     7
  6
CONTINUOUS
  0
LAYER
  2
27
 70
     0
 62
     7
  6
CONTINUOUS
  0
LAYER
  2
28
 70
     0
 62
     7
  6
CONTINUOUS
  0
LAYER
  2
29
 70
     0
 62
     7
  6
CONTINUOUS
  0
LAYER
  2
30
 70
     0
 62
     7
  6
CONTINUOUS
  0
LAYER
  2
31
 70
     0
 62
     7
  6
CONTINUOUS
  0
ENDTAB
  0
ENDSEC
  0
SECTION
  2
ENTITIES
  0
ARC
  8
1
  6
CONTINUOUS
 62
1
 10
1.43293984580284
 20
14.2887303860337
 30
0.0
 40
0.135
 50
179.999999999999
 51
359.999999999999
  0
ARC
  8
1
  6
CONTINUOUS
 62
1
 10
1.43293984580284
 20
14.2887303860337
 30
0.0
 40
0.135
 50
359.999999999999
 51
89.9999999999994
  0
ARC
  8
1
  6
CONTINUOUS
 62
1
 10
1.43293984580284
 20
14.2887303860337
 30
0.0
 40
0.135
 50
89.999999999999
 51
180
  0
ARC
  8
1
  6
CONTINUOUS
 62
1
 10
1.42666247368094
 20
12.909478095754
 30
0.0
 40
0.135
 50
179.999999999999
 51
359.999999999999
  0
ARC
  8
1
  6
CONTINUOUS
 62
1
 10
1.42666247368094
 20
12.909478095754
 30
0.0
 40
0.135
 50
359.999999999999
 51
89.9999999999994
  0
ARC
  8
1
  6
CONTINUOUS
 62
1
 10
1.42666247368094
 20
12.909478095754
 30
0.0
 40
0.135
 50
89.999999999999
 51
180
  0
LINE
  8
1
  6
CONTINUOUS
 62
1
 10
16.2550398935278
 20
9.18662021077795
 30
0.0
 11
16.2550398935278
 21
18.011620210778
 31
0.0
  0
LINE
  8
1
  6
CONTINUOUS
 62
1
 10
16.2550398935278
 20
18.011620210778
 30
0.0
 11
17.2550398935278
 21
18.011620210778
 31
0.0
  0
LINE
  8
1
  6
CONTINUOUS
 62
1
 10
17.2550398935278
 20
18.011620210778
 30
0.0
 11
17.2550398935278
 21
9.18662021077795
 31
0.0
  0
LINE
  8
6
  6
CONTINUOUS
 62
6
 10
14.2550526174372
 20
16.9466816204714
 30
0.0
 11
16.0050526174373
 21
16.9466816204714
 31
0.0
  0
LINE
  8
6
  6
CONTINUOUS
 62
6
 10
16.0050526174373
 20
16.9466816204714
 30
0.0
 11
16.0050526174373
 21
15.3841816204714
 31
0.0
  0
LINE
  8
6
  6
CONTINUOUS
 62
6
 10
16.0050526174373
 20
15.3841816204714
 30
0.0
 11
14.2550526174372
 21
15.3841816204714
 31
0.0
  0
LINE
  8
6
  6
CONTINUOUS
 62
6
 10
14.2550526174372
 20
15.3841816204714
 30
0.0
 11
14.2550526174372
 21
16.9466816204714
 31
0.0
  0
ARC
  8
1
  6
CONTINUOUS
 62
1
 10
14.5700284153724
 20
16.7117063917944
 30
0.0
 40
0.125
 50
179.999999999998
 51
359.999999999998
  0
ARC
  8
1
  6
CONTINUOUS
 62
1
 10
14.5700284153724
 20
16.7117063917944
 30
0.0
 40
0.125
 50
359.999999999998
 51
89.999999999999
  0
ARC
  8
1
  6
CONTINUOUS
 62
1
 10
14.5700284153724
 20
16.7117063917944
 30
0.0
 40
0.125
 50
89.9999999999989
 51
180
  0
ARC
  8
1
  6
CONTINUOUS
 62
1
 10
15.6900599078146
 20
16.7116563711306
 30
0.0
 40
0.125
 50
179.999999999998
 51
359.999999999998
  0
ARC
  8
1
  6
CONTINUOUS
 62
1
 10
15.6900599078146
 20
16.7116563711306
 30
0.0
 40
0.125
 50
359.999999999998
 51
89.999999999999
  0
ARC
  8
1
  6
CONTINUOUS
 62
1
 10
15.6900599078146
 20
16.7116563711306
 30
0.0
 40
0.125
 50
89.9999999999989
 51
180
  0
ARC
  8
1
  6
CONTINUOUS
 62
1
 10
14.5700528937275
 20
15.6191513577551
 30
0.0
 40
0.125
 50
179.999999999999
 51
359.999999999999
  0
ARC
  8
1
  6
CONTINUOUS
 62
1
 10
14.5700528937275
 20
15.6191513577551
 30
0.0
 40
0.124999999999998
 50
359.999999999998
 51
89.9999999999992
  0
ARC
  8
1
  6
CONTINUOUS
 62
1
 10
14.5700528937275
 20
15.6191513577551
 30
0.0
 40
0.125
 50
89.9999999999989
 51
180
  0
ARC
  8
1
  6
CONTINUOUS
 62
1
 10
15.6900505353884
 20
15.6191513577551
 30
0.0
 40
0.125
 50
179.999999999999
 51
359.999999999999
  0
ARC
  8
1
  6
CONTINUOUS
 62
1
 10
15.6900505353884
 20
15.6191513577551
 30
0.0
 40
0.124999999999998
 50
359.999999999998
 51
89.9999999999992
  0
ARC
  8
1
  6
CONTINUOUS
 62
1
 10
15.6900505353884
 20
15.6191513577551
 30
0.0
 40
0.125
 50
89.9999999999989
 51
180
  0
ARC
  8
1
  6
CONTINUOUS
 62
1
 10
16.7520518070681
 20
16.6578399140315
 30
0.0
 40
0.125
 50
179.999999999998
 51
359.999999999998
  0
ARC
  8
1
  6
CONTINUOUS
 62
1
 10
16.7520518070681
 20
16.6578399140315
 30
0.0
 40
0.125
 50
359.999999999998
 51
89.9999999999996
  0
ARC
  8
1
  6
CONTINUOUS
 62
1
 10
16.7520518070681
 20
16.6578399140315
 30
0.0
 40
0.124999999999999
 50
89.9999999999995
 51
180
  0
ARC
  8
1
  6
CONTINUOUS
 62
1
 10
16.7520465203256
 20
15.6728349005008
 30
0.0
 40
0.125
 50
179.999999999999
 51
359.999999999999
  0
ARC
  8
1
  6
CONTINUOUS
 62
1
 10
16.7520465203256
 20
15.6728349005008
 30
0.0
 40
0.125
 50
359.999999999999
 51
89.9999999999997
  0
ARC
  8
1
  6
CONTINUOUS
 62
1
 10
16.7520465203256
 20
15.6728349005008
 30
0.0
 40
0.124999999999999
 50
89.9999999999991
 51
180
  0
LINE
  8
6
  6
CONTINUOUS
 62
6
 10
16.4720161418808
 20
15.3845386629411
 30
0.0
 11
17.0320161418808
 21
15.3845386629411
 31
0.0
  0
LINE
  8
6
  6
CONTINUOUS
 62
6
 10
17.0320161418808
 20
15.3845386629411
 30
0.0
 11
17.0320161418808
 21
16.9470386629411
 31
0.0
  0
LINE
  8
6
  6
CONTINUOUS
 62
6
 10
17.0320161418808
 20
16.9470386629411
 30
0.0
 11
16.4720161418808
 21
16.9470386629411
 31
0.0
  0
LINE
  8
6
  6
CONTINUOUS
 62
6
 10
16.4720161418808
 20
16.9470386629411
 30
0.0
 11
16.4720161418808
 21
15.3845386629411
 31
0.0
  0
ARC
  8
1
  6
CONTINUOUS
 62
1
 10
15.1300139679768
 20
14.8589257662799
 30
0.0
 40
0.0800000000000001
 50
179.999999999999
 51
359.999999999999
  0
ARC
  8
1
  6
CONTINUOUS
 62
1
 10
15.1300139679768
 20
14.8589257662799
 30
0.0
 40
0.0800000000000007
 50
359.999999999999
 51
89.9999999999994
  0
ARC
  8
1
  6
CONTINUOUS
 62
1
 10
15.1300139679768
 20
14.8589257662799
 30
0.0
 40
0.0799999999999997
 50
89.9999999999995
 51
180
  0
ARC
  8
1
  6
CONTINUOUS
 62
1
 10
15.1300572830183
 20
12.339261234982
 30
0.0
 40
0.0800000000000001
 50
179.999999999999
 51
359.999999999999
  0
ARC
  8
1
  6
CONTINUOUS
 62
1
 10
15.1300572830183
 20
12.339261234982
 30
0.0
 40
0.0800000000000007
 50
359.999999999999
 51
89.9999999999994
  0
ARC
  8
1
  6
CONTINUOUS
 62
1
 10
15.1300572830183
 20
12.339261234982
 30
0.0
 40
0.0799999999999997
 50
89.9999999999995
 51
180
  0
LINE
  8
1
  6
CONTINUOUS
 62
1
 10
0.00503989352787926
 20
9.24912021077795
 30
0.0
 11
17.2550398935278
 21
9.24912021077795
 31
0.0
  0
LINE
  8
1
  6
CONTINUOUS
 62
1
 10
17.2550398935278
 20
9.24912021077795
 30
0.0
 11
17.2550398935278
 21
18.011620210778
 31
0.0
  0
LINE
  8
1
  6
CONTINUOUS
 62
1
 10
17.2550398935278
 20
18.011620210778
 30
0.0
 11
0.00503989352787926
 21
18.011620210778
 31
0.0
  0
LINE
  8
1
  6
CONTINUOUS
 62
1
 10
0.00503989352787926
 20
18.011620210778
 30
0.0
 11
0.00503989352787926
 21
9.24912021077795
 31
0.0
  0
LINE
  8
6
  6
CONTINUOUS
 62
6
 10
1.29276618747123
 20
16.3631926335604
 30
0.0
 11
1.29276618747123
 21
15.9431926335604
 31
0.0
  0
LINE
  8
6
  6
CONTINUOUS
 62
6
 10
1.31526618747123
 20
15.9431926335604
 30
0.0
 11
1.40991606747123
 21
15.9431926335604
 31
0.0
  0
ARC
  8
6
  6
CONTINUOUS
 62
6
 10
1.3954276051135
 20
16.0969662490749
 30
0.0
 40
0.154454654736915
 50
275.382485884765
 51
335.613185884765
  0
ARC
  8
6
  6
CONTINUOUS
 62
6
 10
1.18169684797309
 20
16.1531927925403
 30
0.0
 40
0.374169422895455
 50
341.294099999999
 51
18.7059000000007
  0
ARC
  8
6
  6
CONTINUOUS
 62
6
 10
1.39542785112109
 20
16.2094191585995
 30
0.0
 40
0.154454514312292
 50
24.3869099871625
 51
84.6174899871625
  0
LINE
  8
6
  6
CONTINUOUS
 62
6
 10
1.40991636506263
 20
16.3631926282073
 30
0.0
 11
1.31526618747123
 21
16.3631926335604
 31
0.0
  0
ARC
  8
6
  6
CONTINUOUS
 62
6
 10
1.72575486747123
 20
16.2382888335604
 30
0.0
 40
0.1249038
 50
93.4424652776284
 51
164.098
  0
ARC
  8
6
  6
CONTINUOUS
 62
6
 10
1.9600358163478
 20
16.1525114570115
 30
0.0
 40
0.374169560784253
 50
161.2941
 51
198.7059
  0
ARC
  8
6
  6
CONTINUOUS
 62
6
 10
1.72575473794542
 20
16.0667341477528
 30
0.0
 40
0.124903626714107
 50
195.902054741785
 51
266.557589464157
  0
ARC
  8
6
  6
CONTINUOUS
 62
6
 10
1.72575486747123
 20
16.0667343135604
 30
0.0
 40
0.124903800000002
 50
273.442465277628
 51
344.097999999998
  0
ARC
  8
6
  6
CONTINUOUS
 62
6
 10
1.49147394150923
 20
16.1525116823505
 30
0.0
 40
0.374169536591777
 50
341.294099999999
 51
18.7059000000007
  0
ARC
  8
6
  6
CONTINUOUS
 62
6
 10
1.72575504605018
 20
16.2382889069552
 30
0.0
 40
0.124903716014757
 50
15.9020797482303
 51
86.5576144706034
  0
ARC
  8
6
  6
CONTINUOUS
 62
6
 10
2.03553210747123
 20
16.2382888335604
 30
0.0
 40
0.1249038
 50
93.4424652776283
 51
164.098
  0
ARC
  8
6
  6
CONTINUOUS
 62
6
 10
2.2698130563478
 20
16.1525114570115
 30
0.0
 40
0.374169560784253
 50
161.2941
 51
198.7059
  0
ARC
  8
6
  6
CONTINUOUS
 62
6
 10
2.03553197794542
 20
16.0667341477528
 30
0.0
 40
0.124903626714107
 50
195.902054741785
 51
266.557589464157
  0
ARC
  8
6
  6
CONTINUOUS
 62
6
 10
2.03553210747123
 20
16.0667343135604
 30
0.0
 40
0.124903800000003
 50
273.442465277628
 51
344.097999999998
  0
ARC
  8
6
  6
CONTINUOUS
 62
6
 10
1.80125118150922
 20
16.1525116823505
 30
0.0
 40
0.374169536591777
 50
341.294099999999
 51
18.7059000000007
  0
ARC
  8
6
  6
CONTINUOUS
 62
6
 10
2.03553228605018
 20
16.2382889069552
 30
0.0
 40
0.124903716014757
 50
15.9020797482302
 51
86.5576144706032
  0
LINE
  8
6
  6
CONTINUOUS
 62
6
 10
2.20542078747123
 20
16.3631926335604
 30
0.0
 11
2.20542078747123
 21
15.9431926335604
 31
0.0
  0
LINE
  8
6
  6
CONTINUOUS
 62
6
 10
2.22792078747123
 20
16.3631926335604
 30
0.0
 11
2.35782078747123
 21
16.3631926335604
 31
0.0
  0
ARC
  8
6
  6
CONTINUOUS
 62
6
 10
2.35782078747123
 20
16.2581926335604
 30
0.0
 40
0.105000000000006
 50
359.995600000002
 51
90.000000000004
  0
ARC
  8
6
  6
CONTINUOUS
 62
6
 10
2.35782078747123
 20
16.2581926335604
 30
0.0
 40
0.105000000000012
 50
269.991199999989
 51
359.995599999991
  0
LINE
  8
6
  6
CONTINUOUS
 62
6
 10
2.35780466062899
 20
16.1531926347988
 30
0.0
 11
2.46282078747123
 21
15.9431926335604
 31
0.0
  0
LINE
  8
6
  6
CONTINUOUS
 62
6
 10
2.22792078747123
 20
16.1531926335604
 30
0.0
 11
2.35780458747123
 21
16.1531926335604
 31
0.0
  0
LINE
  8
6
  6
CONTINUOUS
 62
6
 10
2.82282078747123
 20
16.1531926335604
 30
0.0
 11
3.06282081747123
 21
16.1531926335604
 31
0.0
  0
LINE
  8
6
  6
CONTINUOUS
 62
6
 10
3.42282081747123
 20
16.3631926335604
 30
0.0
 11
3.42282081747123
 21
16.1531926335604
 31
0.0
  0
LINE
  8
6
  6
CONTINUOUS
 62
6
 10
3.42282081747123
 20
16.1531926335604
 30
0.0
 11
3.42282081747123
 21
15.9431926335604
 31
0.0
  0
LINE
  8
6
  6
CONTINUOUS
 62
6
 10
3.42282081747123
 20
16.1531926335604
 30
0.0
 11
3.61512081747123
 21
16.1531926335604
 31
0.0
  0
LINE
  8
6
  6
CONTINUOUS
 62
6
 10
3.43032081747123
 20
16.3631926335604
 30
0.0
 11
3.66912081747124
 21
16.3631926335604
 31
0.0
  0
LINE
  8
6
  6
CONTINUOUS
 62
6
 10
3.69912081747124
 20
16.3631926335604
 30
0.0
 11
3.69912081747124
 21
15.9431926335604
 31
0.0
  0
LINE
  8
6
  6
CONTINUOUS
 62
6
 10
3.72162081747124
 20
16.3631926335604
 30
0.0
 11
3.85152081747124
 21
16.3631926335604
 31
0.0
  0
ARC
  8
6
  6
CONTINUOUS
 62
6
 10
3.85152081747125
 20
16.2581926335604
 30
0.0
 40
0.105000000000006
 50
359.995600000002
 51
90.000000000004
  0
ARC
  8
6
  6
CONTINUOUS
 62
6
 10
3.85152081747124
 20
16.2581926335604
 30
0.0
 40
0.105000000000012
 50
269.991199999989
 51
359.995599999991
  0
LINE
  8
6
  6
CONTINUOUS
 62
6
 10
3.851504690629
 20
16.1531926347988
 30
0.0
 11
3.95652081747124
 21
15.9431926335604
 31
0.0
  0
LINE
  8
6
  6
CONTINUOUS
 62
6
 10
3.72162081747124
 20
16.1531926335604
 30
0.0
 11
3.85150461747124
 21
16.1531926335604
 31
0.0
  0
ARC
  8
6
  6
CONTINUOUS
 62
6
 10
4.12640937747124
 20
16.2382888335604
 30
0.0
 40
0.1249038
 50
93.442465277628
 51
164.098
  0
ARC
  8
6
  6
CONTINUOUS
 62
6
 10
4.36069032634781
 20
16.1525114570115
 30
0.0
 40
0.374169560784253
 50
161.2941
 51
198.7059
  0
ARC
  8
6
  6
CONTINUOUS
 62
6
 10
4.12640924794544
 20
16.0667341477528
 30
0.0
 40
0.124903626714107
 50
195.902054741785
 51
266.557589464157
  0
ARC
  8
6
  6
CONTINUOUS
 62
6
 10
4.12640937747125
 20
16.0667343135604
 30
0.0
 40
0.1249038
 50
273.442465277628
 51
344.097999999998
  0
ARC
  8
6
  6
CONTINUOUS
 62
6
 10
3.89212845150924
 20
16.1525116823505
 30
0.0
 40
0.374169536591777
 50
341.294099999999
 51
18.7059000000007
  0
ARC
  8
6
  6
CONTINUOUS
 62
6
 10
4.12640955605019
 20
16.2382889069552
 30
0.0
 40
0.124903716014757
 50
15.9020797482302
 51
86.5576144706032
  0
LINE
  8
6
  6
CONTINUOUS
 62
6
 10
4.29779805747124
 20
15.9431926335604
 30
0.0
 11
4.29779805747124
 21
16.3631926335604
 31
0.0
  0
LINE
  8
6
  6
CONTINUOUS
 62
6
 10
4.29779805747124
 20
16.3631926335604
 30
0.0
 11
4.55519805747124
 21
15.9431926335604
 31
0.0
  0
LINE
  8
6
  6
CONTINUOUS
 62
6
 10
4.55519805747124
 20
15.9431926335604
 30
0.0
 11
4.55519805747124
 21
16.3631926335604
 31
0.0
  0
LINE
  8
6
  6
CONTINUOUS
 62
6
 10
4.58519805747124
 20
16.3631926335604
 30
0.0
 11
4.71944805747124
 21
16.3631926335604
 31
0.0
  0
LINE
  8
6
  6
CONTINUOUS
 62
6
 10
4.71944805747124
 20
16.3631926335604
 30
0.0
 11
4.71944808747124
 21
15.9431926335604
 31
0.0
  0
LINE
  8
6
  6
CONTINUOUS
 62
6
 10
4.71944808747126
 20
16.3631926335604
 30
0.0
 11
4.85369805747124
 21
16.3631926335604
 31
0.0
  0
LINE
  8
6
  6
CONTINUOUS
 62
6
 10
5.21369805747124
 20
16.3631926335604
 30
0.0
 11
5.36669805747124
 21
15.9431926335604
 31
0.0
  0
LINE
  8
6
  6
CONTINUOUS
 62
6
 10
5.36669805747124
 20
15.9431926335604
 30
0.0
 11
5.51969805747124
 21
16.3631926335604
 31
0.0
  0
LINE
  8
6
  6
CONTINUOUS
 62
6
 10
5.54969805747124
 20
16.3631926335604
 30
0.0
 11
5.60969802935674
 21
16.3631926335604
 31
0.0
  0
LINE
  8
6
  6
CONTINUOUS
 62
6
 10
5.60969802935674
 20
16.3631926335604
 30
0.0
 11
5.66969802935674
 21
16.3631926335604
 31
0.0
  0
LINE
  8
6
  6
CONTINUOUS
 62
6
 10
5.60969802935674
 20
16.3631926335604
 30
0.0
 11
5.60969802935674
 21
15.9431926335604
 31
0.0
  0
LINE
  8
6
  6
CONTINUOUS
 62
6
 10
5.54969805747124
 20
15.9431926335604
 30
0.0
 11
5.60969802935674
 21
15.9431926335604
 31
0.0
  0
LINE
  8
6
  6
CONTINUOUS
 62
6
 10
5.60969802935674
 20
15.9431926335604
 30
0.0
 11
5.66969802935674
 21
15.9431926335604
 31
0.0
  0
LINE
  8
6
  6
CONTINUOUS
 62
6
 10
5.69969802935674
 20
16.3631926335604
 30
0.0
 11
5.69999802935674
 21
15.9431926335604
 31
0.0
  0
LINE
  8
6
  6
CONTINUOUS
 62
6
 10
5.69999802935674
 20
15.9431926335604
 30
0.0
 11
5.94629802935674
 21
15.9431926335604
 31
0.0
  0
LINE
  8
6
  6
CONTINUOUS
 62
6
 10
5.69999802935674
 20
16.1531926335604
 30
0.0
 11
5.89229802935674
 21
16.1531926335604
 31
0.0
  0
LINE
  8
6
  6
CONTINUOUS
 62
6
 10
5.70719803127001
 20
16.3631926335604
 30
0.0
 11
5.70719802744348
 21
16.3631979907019
 31
0.0
  0
LINE
  8
6
  6
CONTINUOUS
 62
6
 10
5.70719802744348
 20
16.3631979907019
 30
0.0
 11
5.94629802935674
 21
16.3631926335604
 31
0.0
  0
LINE
  8
6
  6
CONTINUOUS
 62
6
 10
5.97629802935674
 20
16.3631926335604
 30
0.0
 11
6.08504802935674
 21
15.9431926335604
 31
0.0
  0
LINE
  8
6
  6
CONTINUOUS
 62
6
 10
6.08504802935674
 20
15.9431926335604
 30
0.0
 11
6.19379802935674
 21
16.2932926335604
 31
0.0
  0
LINE
  8
6
  6
CONTINUOUS
 62
6
 10
6.19379802935674
 20
16.2932926335604
 30
0.0
 11
6.30254802935674
 21
15.9431926335604
 31
0.0
  0
LINE
  8
6
  6
CONTINUOUS
 62
6
 10
6.30254802935674
 20
15.9431926335604
 30
0.0
 11
6.41129802935674
 21
16.3631926335604
 31
0.0
  0
ENDSEC
  0
EOF
