  0
SECTION
  2
HEADER
  9
$ACADVER
  1
AC1003
  9
$EXTMIN
 10
0.0189529167475442
 20
17.9951841918498
  9
$EXTMAX
 10
18.5197180471023
 20
-0.0069243298413646
  9
$INSBASE
 10
9.2693354819249
 20
8.99412993100421
999
Created with OMAX Layout for Windows. (http://www.omax.com) 3/11/2013
  0
ENDSEC
  0
SECTION
  2
TABLES
  0
TABLE
  2
LAYER
 70
    10
  0
LAYER
  2
0
 70
     0
 62
     7
  6
CONTINUOUS
  0
LAYER
  2
1
 70
     0
 62
     7
  6
CONTINUOUS
  0
LAYER
  2
2
 70
     0
 62
     7
  6
CONTINUOUS
  0
LAYER
  2
3
 70
     0
 62
     7
  6
CONTINUOUS
  0
LAYER
  2
4
 70
     0
 62
     7
  6
CONTINUOUS
  0
LAYER
  2
5
 70
     0
 62
     7
  6
CONTINUOUS
  0
LAYER
  2
6
 70
     0
 62
     7
  6
CONTINUOUS
  0
LAYER
  2
7
 70
     0
 62
     7
  6
CONTINUOUS
  0
LAYER
  2
8
 70
     0
 62
     7
  6
CONTINUOUS
  0
LAYER
  2
9
 70
     0
 62
     7
  6
CONTINUOUS
  0
LAYER
  2
10
 70
     0
 62
     7
  6
CONTINUOUS
  0
LAYER
  2
11
 70
     0
 62
     7
  6
CONTINUOUS
  0
LAYER
  2
12
 70
     0
 62
     7
  6
CONTINUOUS
  0
LAYER
  2
13
 70
     0
 62
     7
  6
CONTINUOUS
  0
LAYER
  2
14
 70
     0
 62
     7
  6
CONTINUOUS
  0
LAYER
  2
15
 70
     0
 62
     7
  6
CONTINUOUS
  0
LAYER
  2
16
 70
     0
 62
     7
  6
CONTINUOUS
  0
LAYER
  2
17
 70
     0
 62
     7
  6
CONTINUOUS
  0
LAYER
  2
18
 70
     0
 62
     7
  6
CONTINUOUS
  0
LAYER
  2
19
 70
     0
 62
     7
  6
CONTINUOUS
  0
LAYER
  2
20
 70
     0
 62
     7
  6
CONTINUOUS
  0
LAYER
  2
21
 70
     0
 62
     7
  6
CONTINUOUS
  0
LAYER
  2
22
 70
     0
 62
     7
  6
CONTINUOUS
  0
LAYER
  2
23
 70
     0
 62
     7
  6
CONTINUOUS
  0
LAYER
  2
24
 70
     0
 62
     7
  6
CONTINUOUS
  0
LAYER
  2
25
 70
     0
 62
     7
  6
CONTINUOUS
  0
LAYER
  2
26
 70
     0
 62
     7
  6
CONTINUOUS
  0
LAYER
  2
27
 70
     0
 62
     7
  6
CONTINUOUS
  0
LAYER
  2
28
 70
     0
 62
     7
  6
CONTINUOUS
  0
LAYER
  2
29
 70
     0
 62
     7
  6
CONTINUOUS
  0
LAYER
  2
30
 70
     0
 62
     7
  6
CONTINUOUS
  0
LAYER
  2
31
 70
     0
 62
     7
  6
CONTINUOUS
  0
ENDTAB
  0
ENDSEC
  0
SECTION
  2
ENTITIES
  0
LINE
  8
1
  6
CONTINUOUS
 62
1
 10
0.0197180400668451
 20
-0.00684777163238692
 30
0.0
 11
0.0197180400668415
 21
17.9931522283676
 31
0.0
  0
LINE
  8
1
  6
CONTINUOUS
 62
1
 10
0.0197180400668415
 20
17.9931522283676
 30
0.0
 11
18.5197180400669
 21
17.9931522283676
 31
0.0
  0
LINE
  8
1
  6
CONTINUOUS
 62
1
 10
18.5197180400669
 20
17.9931522283676
 30
0.0
 11
18.5197180400669
 21
-0.00684777163238337
 31
0.0
  0
LINE
  8
1
  6
CONTINUOUS
 62
1
 10
18.5197180400669
 20
-0.00684777163238337
 30
0.0
 11
0.0197180400668451
 21
-0.00684777163238692
 31
0.0
  0
ARC
  8
1
  6
CONTINUOUS
 62
1
 10
4.01971804006685
 20
1.21418568732268
 30
0.0
 40
0.178000000000001
 50
269.999999999999
 51
89.9999999999998
  0
ARC
  8
1
  6
CONTINUOUS
 62
1
 10
4.01971804006684
 20
1.21418568732268
 30
0.0
 40
0.178000000000001
 50
89.9999999999998
 51
270
  0
ARC
  8
1
  6
CONTINUOUS
 62
1
 10
16.0197180400669
 20
1.21415222836761
 30
0.0
 40
0.177999999999999
 50
269.999999999999
 51
89.9999999999998
  0
ARC
  8
1
  6
CONTINUOUS
 62
1
 10
16.0197180400669
 20
1.21415222836761
 30
0.0
 40
0.177999999999999
 50
89.9999999999998
 51
270
  0
ARC
  8
1
  6
CONTINUOUS
 62
1
 10
4.01971804006684
 20
16.7721856873227
 30
0.0
 40
0.178000000000001
 50
269.999999999999
 51
89.9999999999998
  0
ARC
  8
1
  6
CONTINUOUS
 62
1
 10
4.01971804006684
 20
16.7721856873227
 30
0.0
 40
0.178000000000001
 50
89.9999999999998
 51
270
  0
ARC
  8
1
  6
CONTINUOUS
 62
1
 10
16.0197180400669
 20
16.7721522283675
 30
0.0
 40
0.178000000000051
 50
269.999999999999
 51
89.9999999999998
  0
ARC
  8
1
  6
CONTINUOUS
 62
1
 10
16.0197180400669
 20
16.7721522283675
 30
0.0
 40
0.178000000000051
 50
89.9999999999998
 51
270
  0
ARC
  8
6
  6
CONTINUOUS
 62
6
 10
6.99891804006685
 20
4.97115222836754
 30
0.0
 40
0.31548316101305
 50
269.999999999999
 51
89.9999999999998
  0
ARC
  8
6
  6
CONTINUOUS
 62
6
 10
6.99891804006684
 20
4.97115222836754
 30
0.0
 40
0.31548316101305
 50
89.9999999999998
 51
270
  0
ARC
  8
6
  6
CONTINUOUS
 62
6
 10
15.0554180400669
 20
12.9851522283676
 30
0.0
 40
0.315483161013098
 50
269.999999999999
 51
89.9999999999998
  0
ARC
  8
6
  6
CONTINUOUS
 62
6
 10
15.0554180400669
 20
12.9851522283676
 30
0.0
 40
0.315483161013098
 50
89.9999999999998
 51
270
  0
ARC
  8
1
  6
CONTINUOUS
 62
1
 10
15.8679180400669
 20
14.5601522283676
 30
0.0
 40
0.0999999999999996
 50
269.999999999999
 51
89.9999999999998
  0
ARC
  8
1
  6
CONTINUOUS
 62
1
 10
15.8679180400669
 20
14.5601522283676
 30
0.0
 40
0.0999999999999996
 50
89.9999999999998
 51
270
  0
ARC
  8
1
  6
CONTINUOUS
 62
1
 10
15.8679180400669
 20
11.0352022283676
 30
0.0
 40
0.0999999999999996
 50
269.999999999999
 51
89.9999999999998
  0
ARC
  8
1
  6
CONTINUOUS
 62
1
 10
15.8679180400669
 20
11.0352022283676
 30
0.0
 40
0.0999999999999996
 50
89.9999999999998
 51
270
  0
ARC
  8
1
  6
CONTINUOUS
 62
1
 10
13.2009180400669
 20
14.5601522283676
 30
0.0
 40
0.0999999999999996
 50
269.999999999999
 51
89.9999999999998
  0
ARC
  8
1
  6
CONTINUOUS
 62
1
 10
13.2009180400669
 20
14.5601522283676
 30
0.0
 40
0.0999999999999996
 50
89.9999999999998
 51
270
  0
ARC
  8
1
  6
CONTINUOUS
 62
1
 10
7.49891804006684
 20
3.42615222836761
 30
0.0
 40
0.0999999999999996
 50
269.999999999999
 51
89.9999999999998
  0
ARC
  8
1
  6
CONTINUOUS
 62
1
 10
7.49891804006684
 20
3.42615222836761
 30
0.0
 40
0.0999999999999996
 50
89.9999999999998
 51
270
  0
ARC
  8
1
  6
CONTINUOUS
 62
1
 10
7.49887636912074
 20
6.95116194987649
 30
0.0
 40
0.0999999999999996
 50
269.999999999999
 51
89.9999999999998
  0
ARC
  8
1
  6
CONTINUOUS
 62
1
 10
7.49887636912074
 20
6.95116194987649
 30
0.0
 40
0.0999999999999996
 50
89.9999999999998
 51
270
  0
ARC
  8
1
  6
CONTINUOUS
 62
1
 10
4.83196644744205
 20
3.42612723520727
 30
0.0
 40
0.100000000000001
 50
269.999999999999
 51
89.9999999999998
  0
ARC
  8
1
  6
CONTINUOUS
 62
1
 10
4.83196644744205
 20
3.42612723520727
 30
0.0
 40
0.100000000000001
 50
89.9999999999998
 51
270
  0
LINE
  8
1
  6
CONTINUOUS
 62
1
 10
1.71971804746494
 20
-0.0068477716320281
 30
0.0
 11
1.71895291674754
 21
0.319151666899334
 31
0.0
  0
LINE
  8
1
  6
CONTINUOUS
 62
1
 10
1.71895291674754
 20
0.319151666899334
 30
0.0
 11
0.0189529167475442
 21
0.319151666899334
 31
0.0
  0
LINE
  8
1
  6
CONTINUOUS
 62
1
 10
0.0189529167475442
 20
0.319151666899334
 30
0.0
 11
0.019718047464945
 21
-0.0068477716320281
 31
0.0
  0
LINE
  8
1
  6
CONTINUOUS
 62
1
 10
0.019718047464945
 20
-0.0068477716320281
 30
0.0
 11
1.71971804746494
 21
-0.0068477716320281
 31
0.0
  0
LINE
  8
1
  6
CONTINUOUS
 62
1
 10
0.0197180400668415
 20
17.9931522283676
 30
0.0
 11
0.0197180400668451
 21
8.99315222836759
 31
0.0
  0
LINE
  8
1
  6
CONTINUOUS
 62
1
 10
1.71981363981944
 20
17.6687153087729
 30
0.0
 11
1.71984195582564
 21
17.9947153075431
 31
0.0
  0
LINE
  8
1
  6
CONTINUOUS
 62
1
 10
1.71984195582564
 20
17.9947153075431
 30
0.0
 11
0.0198419965524401
 21
17.9951841918498
 31
0.0
  0
LINE
  8
1
  6
CONTINUOUS
 62
1
 10
0.0198419965524401
 20
17.9951841918498
 30
0.0
 11
0.0203728896645394
 21
17.6691846241315
 31
0.0
  0
LINE
  8
1
  6
CONTINUOUS
 62
1
 10
0.0203728896645394
 20
17.6691846241315
 30
0.0
 11
1.71981363981944
 21
17.6687153087729
 31
0.0
  0
LINE
  8
1
  6
CONTINUOUS
 62
1
 10
18.5197180400669
 20
-0.00684777163238337
 30
0.0
 11
18.5192456809955
 21
0.305650443357393
 31
0.0
  0
LINE
  8
1
  6
CONTINUOUS
 62
1
 10
18.5192456809955
 20
0.305650443357393
 30
0.0
 11
17.9792443167536
 21
0.305573885148405
 31
0.0
  0
LINE
  8
1
  6
CONTINUOUS
 62
1
 10
17.9792443167536
 20
0.305573885148405
 30
0.0
 11
17.979716675825
 21
-0.0069243298413646
 31
0.0
  0
LINE
  8
1
  6
CONTINUOUS
 62
1
 10
17.979716675825
 20
-0.0069243298413646
 30
0.0
 11
18.5197180400669
 21
-0.00684777163238337
 31
0.0
  0
LINE
  8
1
  6
CONTINUOUS
 62
1
 10
18.5196307789849
 20
17.6803559512679
 30
0.0
 11
18.5197180471023
 21
17.9928558903421
 31
0.0
  0
LINE
  8
1
  6
CONTINUOUS
 62
1
 10
18.5197180471023
 20
17.9928558903421
 30
0.0
 11
17.9797219660555
 21
17.991884846886
 31
0.0
  0
LINE
  8
1
  6
CONTINUOUS
 62
1
 10
17.9797219660555
 20
17.991884846886
 30
0.0
 11
17.9796346979382
 21
17.6793849078118
 31
0.0
  0
LINE
  8
1
  6
CONTINUOUS
 62
1
 10
17.9796346979382
 20
17.6793849078118
 30
0.0
 11
18.5196307789849
 21
17.6803559512679
 31
0.0
  0
ARC
  8
1
  6
CONTINUOUS
 62
1
 10
1.92394506024634
 20
2.89084093306799
 30
0.0
 40
0.0599999999999987
 50
269.999999999999
 51
89.9999999999998
  0
ARC
  8
1
  6
CONTINUOUS
 62
1
 10
1.92394506024634
 20
2.89084093306799
 30
0.0
 40
0.0599999999999987
 50
89.9999999999998
 51
270
  0
ARC
  8
1
  6
CONTINUOUS
 62
1
 10
1.92390207273604
 20
15.0955247291993
 30
0.0
 40
0.0600000000000005
 50
269.999999999999
 51
89.9999999999998
  0
ARC
  8
1
  6
CONTINUOUS
 62
1
 10
1.92390207273604
 20
15.0955247291993
 30
0.0
 40
0.0600000000000005
 50
89.9999999999998
 51
270
  0
ARC
  8
1
  6
CONTINUOUS
 62
1
 10
0.758947495697644
 20
2.88834098070544
 30
0.0
 40
0.0600000000000058
 50
269.999999999999
 51
89.9999999999998
  0
ARC
  8
1
  6
CONTINUOUS
 62
1
 10
0.758947495697644
 20
2.88834098070544
 30
0.0
 40
0.0600000000000058
 50
89.9999999999998
 51
270
  0
ARC
  8
1
  6
CONTINUOUS
 62
1
 10
0.758904508187343
 20
15.0930247768368
 30
0.0
 40
0.0600000000000005
 50
269.999999999999
 51
89.9999999999998
  0
ARC
  8
1
  6
CONTINUOUS
 62
1
 10
0.758904508187342
 20
15.0930247768368
 30
0.0
 40
0.0600000000000005
 50
89.9999999999998
 51
270
  0
ARC
  8
1
  6
CONTINUOUS
 62
1
 10
3.71884974555704
 20
15.333890264556
 30
0.0
 40
0.17
 50
269.999999999999
 51
89.9999999999998
  0
ARC
  8
1
  6
CONTINUOUS
 62
1
 10
3.71884974555704
 20
15.333890264556
 30
0.0
 40
0.17
 50
89.9999999999998
 51
270
  0
ARC
  8
1
  6
CONTINUOUS
 62
1
 10
5.77053669505184
 20
15.3338575907108
 30
0.0
 40
0.17000000000005
 50
269.999999999999
 51
89.9999999999998
  0
ARC
  8
1
  6
CONTINUOUS
 62
1
 10
5.77053669505184
 20
15.3338575907108
 30
0.0
 40
0.17000000000005
 50
89.9999999999998
 51
270
  0
LINE
  8
6
  6
CONTINUOUS
 62
6
 10
1.02187850160741
 20
6.9910144258304
 30
0.0
 11
1.02181353257514
 21
7.05101436254108
 31
0.0
  0
LINE
  8
6
  6
CONTINUOUS
 62
6
 10
1.02181353257514
 20
7.05101436254108
 30
0.0
 11
1.02174856351243
 21
7.11101432736624
 31
0.0
  0
LINE
  8
6
  6
CONTINUOUS
 62
6
 10
1.02181353257514
 20
7.05101436254108
 30
0.0
 11
1.44181328635129
 21
7.05146914598005
 31
0.0
  0
LINE
  8
6
  6
CONTINUOUS
 62
6
 10
1.44187825538356
 20
6.99146920926937
 30
0.0
 11
1.44181328635129
 21
7.05146914598005
 31
0.0
  0
LINE
  8
6
  6
CONTINUOUS
 62
6
 10
1.44181328635129
 20
7.05146914598005
 30
0.0
 11
1.44174831728858
 21
7.11146911080521
 31
0.0
  0
LINE
  8
6
  6
CONTINUOUS
 62
6
 10
1.44171420853066
 20
7.14296909233842
 30
0.0
 11
1.02171445475451
 21
7.14251430889945
 31
0.0
  0
LINE
  8
6
  6
CONTINUOUS
 62
6
 10
1.02171445475451
 20
7.14251430889945
 30
0.0
 11
1.44143549125163
 21
7.40036894143838
 31
0.0
  0
LINE
  8
6
  6
CONTINUOUS
 62
6
 10
1.44143549125163
 20
7.40036894143838
 30
0.0
 11
1.02143573747548
 21
7.3999141579994
 31
0.0
  0
ARC
  8
6
  6
CONTINUOUS
 62
6
 10
1.142730557197
 20
7.57880058099767
 30
0.0
 40
0.121071389999994
 50
120.584060896994
 51
179.360520896994
  0
LINE
  8
6
  6
CONTINUOUS
 62
6
 10
1.02166670794582
 20
7.58015183264559
 30
0.0
 11
1.02128580590499
 21
7.5460250692554
 31
0.0
  0
ARC
  8
6
  6
CONTINUOUS
 62
6
 10
1.13180482535338
 20
7.5447915242555
 30
0.0
 40
0.110525903267522
 50
179.360526468542
 51
267.412746468543
  0
ARC
  8
6
  6
CONTINUOUS
 62
6
 10
1.1185645054031
 20
7.52427222395075
 30
0.0
 40
0.0902718146223216
 50
275.244315152103
 51
329.406815152103
  0
LINE
  8
6
  6
CONTINUOUS
 62
6
 10
1.19627071540908
 20
7.47832937421639
 30
0.0
 11
1.26708619109156
 21
7.6437044035303
 31
0.0
  0
ARC
  8
6
  6
CONTINUOUS
 62
6
 10
1.34479241061111
 20
7.59776163626603
 30
0.0
 40
0.090271780839417
 50
95.2442802830918
 51
149.406863283092
  0
ARC
  8
6
  6
CONTINUOUS
 62
6
 10
1.3315520954121
 20
7.5772423428447
 30
0.0
 40
0.11052587019469
 50
359.503118168092
 51
87.4127181680948
  0
LINE
  8
6
  6
CONTINUOUS
 62
6
 10
1.4420738094474
 20
7.5762838497594
 30
0.0
 11
1.44170262281585
 21
7.53348330667853
 31
0.0
  0
ARC
  8
6
  6
CONTINUOUS
 62
6
 10
1.32063582952877
 20
7.5345332289878
 30
0.0
 40
0.121071345799374
 50
300.584028748204
 51
359.503128748204
  0
LINE
  8
6
  6
CONTINUOUS
 62
6
 10
1.02109205111649
 20
7.71731398785578
 30
0.0
 11
1.4410914800473
 21
7.71806877111888
 31
0.0
  0
LINE
  8
6
  6
CONTINUOUS
 62
6
 10
1.4410914800473
 20
7.71806877111888
 30
0.0
 11
1.44082478204487
 21
7.96436862672618
 31
0.0
  0
LINE
  8
6
  6
CONTINUOUS
 62
6
 10
1.23109160315922
 20
7.7178413793994
 30
0.0
 11
1.23088337731324
 21
7.91014126666404
 31
0.0
  0
LINE
  8
6
  6
CONTINUOUS
 62
6
 10
1.02108392998158
 20
7.72481398537219
 30
0.0
 11
1.02107857284738
 21
7.72481397574486
 31
0.0
  0
LINE
  8
6
  6
CONTINUOUS
 62
6
 10
1.02107857284738
 20
7.72481397574486
 30
0.0
 11
1.02082502826875
 21
7.96391384328721
 31
0.0
  0
LINE
  8
6
  6
CONTINUOUS
 62
6
 10
1.0207925437374
 20
7.99391382569979
 30
0.0
 11
1.44079229751355
 21
7.99436860913876
 31
0.0
  0
LINE
  8
6
  6
CONTINUOUS
 62
6
 10
1.02076818033888
 20
8.01641381250922
 30
0.0
 11
1.02062752231811
 21
8.1463137363557
 31
0.0
  0
ARC
  8
6
  6
CONTINUOUS
 62
6
 10
1.12562746076216
 20
8.14642743221545
 30
0.0
 40
0.105000000000005
 50
90.0576408969958
 51
180.062040896998
  0
ARC
  8
6
  6
CONTINUOUS
 62
6
 10
1.12562746076214
 20
8.14642743221545
 30
0.0
 40
0.105000000000012
 50
0.0532408969857155
 51
90.0576408969876
  0
LINE
  8
6
  6
CONTINUOUS
 62
6
 10
1.23062741543017
 20
8.14652500124106
 30
0.0
 11
1.44051358023452
 21
8.25176845823871
 31
0.0
  0
LINE
  8
6
  6
CONTINUOUS
 62
6
 10
1.23076805722696
 20
8.01664120422871
 30
0.0
 11
1.23062741674783
 21
8.14652492808469
 31
0.0
  0
LINE
  8
6
  6
CONTINUOUS
 62
6
 10
1.02048134192702
 20
8.28131365721232
 30
0.0
 11
1.0203359736492
 21
8.41556357850863
 31
0.0
  0
LINE
  8
6
  6
CONTINUOUS
 62
6
 10
1.0203359736492
 20
8.41556357850863
 30
0.0
 11
1.44033572739286
 21
8.41601839194758
 31
0.0
  0
LINE
  8
6
  6
CONTINUOUS
 62
6
 10
1.02033597361671
 20
8.41556360850862
 30
0.0
 11
1.02019060537139
 21
8.54981349980493
 31
0.0
  0
LINE
  8
6
  6
CONTINUOUS
 62
6
 10
1.01980079099512
 20
8.90981328875591
 30
0.0
 11
1.01965542271731
 21
9.04406321005222
 31
0.0
  0
LINE
  8
6
  6
CONTINUOUS
 62
6
 10
1.01965542271731
 20
9.04406321005222
 30
0.0
 11
1.43965517646097
 21
9.04451802349117
 31
0.0
  0
LINE
  8
6
  6
CONTINUOUS
 62
6
 10
1.01965542268482
 20
9.04406324005221
 30
0.0
 11
1.01951005443949
 21
9.17831313134852
 31
0.0
  0
LINE
  8
6
  6
CONTINUOUS
 62
6
 10
1.01947756990814
 20
9.2083131137611
 30
0.0
 11
1.22947744679621
 21
9.20854050548059
 31
0.0
  0
LINE
  8
6
  6
CONTINUOUS
 62
6
 10
1.22947744679621
 20
9.20854050548059
 30
0.0
 11
1.43947732368429
 21
9.20876789720008
 31
0.0
  0
LINE
  8
6
  6
CONTINUOUS
 62
6
 10
1.22947744679621
 20
9.20854050548059
 30
0.0
 11
1.22920132827969
 21
9.46354035598754
 31
0.0
  0
LINE
  8
6
  6
CONTINUOUS
 62
6
 10
1.43920120516777
 20
9.46376774770702
 30
0.0
 11
1.22920132827969
 21
9.46354035598754
 31
0.0
  0
LINE
  8
6
  6
CONTINUOUS
 62
6
 10
1.22920132827969
 20
9.46354035598754
 30
0.0
 11
1.01920145139162
 21
9.46331296426805
 31
0.0
  0
LINE
  8
6
  6
CONTINUOUS
 62
6
 10
1.01916896686026
 20
9.49331294668063
 30
0.0
 11
1.019103997828
 21
9.55331288339131
 31
0.0
  0
LINE
  8
6
  6
CONTINUOUS
 62
6
 10
1.019103997828
 20
9.55331288339131
 30
0.0
 11
1.01903902876529
 21
9.61331284821648
 31
0.0
  0
LINE
  8
6
  6
CONTINUOUS
 62
6
 10
1.019103997828
 20
9.55331288339131
 30
0.0
 11
1.43910375160414
 21
9.55376766683029
 31
0.0
  0
LINE
  8
6
  6
CONTINUOUS
 62
6
 10
1.43916872063641
 20
9.4937677301196
 30
0.0
 11
1.43910375160414
 21
9.55376766683029
 31
0.0
  0
LINE
  8
6
  6
CONTINUOUS
 62
6
 10
1.43910375160414
 20
9.55376766683029
 30
0.0
 11
1.43903878254143
 21
9.61376763165545
 31
0.0
  0
ARC
  8
6
  6
CONTINUOUS
 62
6
 10
1.14033384848681
 20
9.79219927121474
 30
0.0
 40
0.121071389999996
 50
120.584060896995
 51
179.360520896995
  0
LINE
  8
6
  6
CONTINUOUS
 62
6
 10
1.01926999923562
 20
9.79355052286267
 30
0.0
 11
1.01888909719479
 21
9.75942375947247
 31
0.0
  0
ARC
  8
6
  6
CONTINUOUS
 62
6
 10
1.12940811664318
 20
9.75819021447257
 30
0.0
 40
0.110525903267522
 50
179.360526468542
 51
267.412746468543
  0
ARC
  8
6
  6
CONTINUOUS
 62
6
 10
1.1161677966929
 20
9.73767091416782
 30
0.0
 40
0.090271814622321
 50
275.244315152103
 51
329.406815152103
  0
LINE
  8
6
  6
CONTINUOUS
 62
6
 10
1.19387400669888
 20
9.69172806443347
 30
0.0
 11
1.26468948238136
 21
9.85710309374737
 31
0.0
  0
ARC
  8
6
  6
CONTINUOUS
 62
6
 10
1.34239570190091
 20
9.8111603264831
 30
0.0
 40
0.0902717808394167
 50
95.2442802830904
 51
149.40686328309
  0
ARC
  8
6
  6
CONTINUOUS
 62
6
 10
1.32915538670191
 20
9.79064103306178
 30
0.0
 40
0.11052587019469
 50
359.503118168092
 51
87.4127181680946
  0
LINE
  8
6
  6
CONTINUOUS
 62
6
 10
1.4396771007372
 20
9.78968253997647
 30
0.0
 11
1.43930591410566
 21
9.7468819968956
 31
0.0
  0
ARC
  8
6
  6
CONTINUOUS
 62
6
 10
1.31823912081858
 20
9.74793191920488
 30
0.0
 40
0.121071345799373
 50
300.584028748203
 51
359.503128748203
  0
LINE
  8
6
  6
CONTINUOUS
 62
6
 10
1.01833801256139
 20
10.2607124846113
 30
0.0
 11
1.43833744149219
 21
10.2614672678744
 31
0.0
  0
LINE
  8
6
  6
CONTINUOUS
 62
6
 10
1.43833744149219
 20
10.2614672678744
 30
0.0
 11
1.43807074348977
 21
10.5077671234817
 31
0.0
  0
LINE
  8
6
  6
CONTINUOUS
 62
6
 10
1.22833756460412
 20
10.2612398761549
 30
0.0
 11
1.22812933875813
 21
10.4535397634195
 31
0.0
  0
LINE
  8
6
  6
CONTINUOUS
 62
6
 10
1.01832989142648
 20
10.2682124821277
 30
0.0
 11
1.01832453429227
 21
10.2682124725003
 31
0.0
  0
LINE
  8
6
  6
CONTINUOUS
 62
6
 10
1.01832453429227
 20
10.2682124725003
 30
0.0
 11
1.01807098971365
 21
10.5073123400427
 31
0.0
  0
LINE
  8
6
  6
CONTINUOUS
 62
6
 10
1.43803663473187
 20
10.5392671050149
 30
0.0
 11
1.01803688095573
 21
10.5388123215759
 31
0.0
  0
LINE
  8
6
  6
CONTINUOUS
 62
6
 10
1.01803688095573
 20
10.5388123215759
 30
0.0
 11
1.43775791745285
 21
10.7966669541148
 31
0.0
  0
LINE
  8
6
  6
CONTINUOUS
 62
6
 10
1.43775791745285
 20
10.7966669541148
 30
0.0
 11
1.0177581636767
 21
10.7962121706758
 31
0.0
  0
LINE
  8
6
  6
CONTINUOUS
 62
6
 10
1.01772567914534
 20
10.8262121530884
 30
0.0
 11
1.43772543292149
 21
10.8266669365274
 31
0.0
  0
LINE
  8
6
  6
CONTINUOUS
 62
6
 10
1.43770106952297
 20
10.8491669233368
 30
0.0
 11
1.43759858095649
 21
10.9438167478486
 31
0.0
  0
ARC
  8
6
  6
CONTINUOUS
 62
6
 10
1.28384074395499
 20
10.9291617851902
 30
0.0
 40
0.154454654736914
 50
5.44452678176035
 51
65.6752267817604
  0
ARC
  8
6
  6
CONTINUOUS
 62
6
 10
1.22784564806021
 20
10.7153702759339
 30
0.0
 40
0.374169422895455
 50
71.356138175275
 51
108.767938175277
  0
ARC
  8
6
  6
CONTINUOUS
 62
6
 10
1.17138790008925
 20
10.9290402651955
 30
0.0
 40
0.154454514312293
 50
114.448950884157
 51
174.679530884157
  0
LINE
  8
6
  6
CONTINUOUS
 62
6
 10
1.01759883221124
 20
10.9433622620067
 30
0.0
 11
1.01770131574683
 21
10.8487121398979
 31
0.0
  0
LINE
  8
6
  6
CONTINUOUS
 62
6
 10
4.19156202671659
 20
14.8802037850838
 30
0.0
 11
4.19156202671659
 21
14.4602037850838
 31
0.0
  0
LINE
  8
6
  6
CONTINUOUS
 62
6
 10
4.21406202671659
 20
14.8802037850838
 30
0.0
 11
4.34396202671659
 21
14.8802037850838
 31
0.0
  0
ARC
  8
6
  6
CONTINUOUS
 62
6
 10
4.3439620267166
 20
14.7752037850838
 30
0.0
 40
0.105000000000006
 50
359.995600000002
 51
90.0000000000042
  0
ARC
  8
6
  6
CONTINUOUS
 62
6
 10
4.34396202671659
 20
14.7752037850838
 30
0.0
 40
0.105000000000012
 50
269.991199999991
 51
359.995599999993
  0
LINE
  8
6
  6
CONTINUOUS
 62
6
 10
4.34394589987435
 20
14.6702037863222
 30
0.0
 11
4.44896202671659
 21
14.4602037850838
 31
0.0
  0
LINE
  8
6
  6
CONTINUOUS
 62
6
 10
4.21406202671659
 20
14.6702037850838
 30
0.0
 11
4.34394582671659
 21
14.6702037850838
 31
0.0
  0
LINE
  8
6
  6
CONTINUOUS
 62
6
 10
4.47896202671659
 20
14.8802037850838
 30
0.0
 11
4.53896199860209
 21
14.8802037850838
 31
0.0
  0
LINE
  8
6
  6
CONTINUOUS
 62
6
 10
4.53896199860209
 20
14.8802037850838
 30
0.0
 11
4.59896199860209
 21
14.8802037850838
 31
0.0
  0
LINE
  8
6
  6
CONTINUOUS
 62
6
 10
4.53896199860209
 20
14.8802037850838
 30
0.0
 11
4.53896199860209
 21
14.4602037850838
 31
0.0
  0
LINE
  8
6
  6
CONTINUOUS
 62
6
 10
4.47896202671659
 20
14.4602037850838
 30
0.0
 11
4.53896199860209
 21
14.4602037850838
 31
0.0
  0
LINE
  8
6
  6
CONTINUOUS
 62
6
 10
4.53896199860209
 20
14.4602037850838
 30
0.0
 11
4.59896199860209
 21
14.4602037850838
 31
0.0
  0
LINE
  8
6
  6
CONTINUOUS
 62
6
 10
4.63046199860209
 20
14.4602037850838
 30
0.0
 11
4.63046199860209
 21
14.8802037850838
 31
0.0
  0
LINE
  8
6
  6
CONTINUOUS
 62
6
 10
4.63046199860209
 20
14.8802037850838
 30
0.0
 11
4.88786199860209
 21
14.4602037850838
 31
0.0
  0
LINE
  8
6
  6
CONTINUOUS
 62
6
 10
4.88786199860209
 20
14.4602037850838
 30
0.0
 11
4.88786199860209
 21
14.8802037850838
 31
0.0
  0
ARC
  8
6
  6
CONTINUOUS
 62
6
 10
5.06661697654953
 20
14.7587153350838
 30
0.0
 40
0.121071389999995
 50
30.5220200000002
 51
89.2984800000002
  0
LINE
  8
6
  6
CONTINUOUS
 62
6
 10
5.06809931748552
 20
14.8797776502024
 30
0.0
 11
5.03397298654953
 21
14.8801955050838
 31
0.0
  0
ARC
  8
6
  6
CONTINUOUS
 62
6
 10
5.03261977032103
 20
14.7696778861312
 30
0.0
 40
0.110525903267523
 50
89.298485571548
 51
177.350705571549
  0
ARC
  8
6
  6
CONTINUOUS
 62
6
 10
5.01211481889862
 20
14.7829404169812
 30
0.0
 40
0.0902718146223219
 50
185.18227425511
 51
239.34477425511
  0
LINE
  8
6
  6
CONTINUOUS
 62
6
 10
4.96608785443762
 20
14.7052840002617
 30
0.0
 11
5.13138610654953
 21
14.6342894950838
 31
0.0
  0
ARC
  8
6
  6
CONTINUOUS
 62
6
 10
5.08535922454826
 20
14.5566330687614
 30
0.0
 40
0.0902717808394171
 50
5.18223938609767
 51
59.3448223860977
  0
ARC
  8
6
  6
CONTINUOUS
 62
6
 10
5.06485428000413
 20
14.5698955948526
 30
0.0
 40
0.11052587019469
 50
269.441077271098
 51
357.3506772711
  0
LINE
  8
6
  6
CONTINUOUS
 62
6
 10
5.06377611261123
 20
14.4593749834837
 30
0.0
 11
5.02097599654953
 21
14.4597925150838
 31
0.0
  0
ARC
  8
6
  6
CONTINUOUS
 62
6
 10
5.02215701151137
 20
14.5808581005213
 30
0.0
 40
0.121071345799373
 50
210.52198785121
 51
269.44108785121
  0
LINE
  8
6
  6
CONTINUOUS
 62
6
 10
5.20526201453337
 20
14.8802037850838
 30
0.0
 11
5.20556201453337
 21
14.4602037850838
 31
0.0
  0
LINE
  8
6
  6
CONTINUOUS
 62
6
 10
5.20556201453337
 20
14.4602037850838
 30
0.0
 11
5.45186201453337
 21
14.4602037850838
 31
0.0
  0
LINE
  8
6
  6
CONTINUOUS
 62
6
 10
5.20556201453337
 20
14.6702037850838
 30
0.0
 11
5.39786201453337
 21
14.6702037850838
 31
0.0
  0
LINE
  8
6
  6
CONTINUOUS
 62
6
 10
5.21276201644663
 20
14.8802037850838
 30
0.0
 11
5.2127620126201
 21
14.8802091422252
 31
0.0
  0
LINE
  8
6
  6
CONTINUOUS
 62
6
 10
5.2127620126201
 20
14.8802091422252
 30
0.0
 11
5.45186201453337
 21
14.8802037850838
 31
0.0
  0
LINE
  8
6
  6
CONTINUOUS
 62
6
 10
7.01206171833986
 20
17.0347286951202
 30
0.0
 11
7.01206171833986
 21
16.8247286951202
 31
0.0
  0
LINE
  8
6
  6
CONTINUOUS
 62
6
 10
7.01206171833986
 20
16.8247286951202
 30
0.0
 11
7.01206171833986
 21
16.6147286951202
 31
0.0
  0
LINE
  8
6
  6
CONTINUOUS
 62
6
 10
7.01206171833986
 20
16.8247286951202
 30
0.0
 11
7.20436171833986
 21
16.8247286951202
 31
0.0
  0
LINE
  8
6
  6
CONTINUOUS
 62
6
 10
7.01956171833986
 20
17.0347286951202
 30
0.0
 11
7.25836171833987
 21
17.0347286951202
 31
0.0
  0
LINE
  8
6
  6
CONTINUOUS
 62
6
 10
7.28836171833987
 20
17.0347286951202
 30
0.0
 11
7.28836171833987
 21
16.6147286951202
 31
0.0
  0
LINE
  8
6
  6
CONTINUOUS
 62
6
 10
7.28836171833987
 20
16.6147286951202
 30
0.0
 11
7.53466171833987
 21
16.6147286951202
 31
0.0
  0
ARC
  8
6
  6
CONTINUOUS
 62
6
 10
7.70455027833987
 20
16.9098248951202
 30
0.0
 40
0.124903800000001
 50
93.4424652776284
 51
164.097999999999
  0
ARC
  8
6
  6
CONTINUOUS
 62
6
 10
7.93883122721645
 20
16.8240475185713
 30
0.0
 40
0.374169560784254
 50
161.2941
 51
198.7059
  0
ARC
  8
6
  6
CONTINUOUS
 62
6
 10
7.70455014881407
 20
16.7382702093126
 30
0.0
 40
0.124903626714107
 50
195.902054741785
 51
266.557589464157
  0
ARC
  8
6
  6
CONTINUOUS
 62
6
 10
7.70455027833988
 20
16.7382703751202
 30
0.0
 40
0.1249038
 50
273.442465277628
 51
344.097999999998
  0
ARC
  8
6
  6
CONTINUOUS
 62
6
 10
7.47026935237787
 20
16.8240477439102
 30
0.0
 40
0.374169536591774
 50
341.294099999999
 51
18.7059000000007
  0
ARC
  8
6
  6
CONTINUOUS
 62
6
 10
7.70455045691882
 20
16.909824968515
 30
0.0
 40
0.124903716014757
 50
15.9020797482304
 51
86.5576144706034
  0
ARC
  8
6
  6
CONTINUOUS
 62
6
 10
8.01432751833987
 20
16.9098248951202
 30
0.0
 40
0.124903800000001
 50
93.4424652776284
 51
164.097999999999
  0
ARC
  8
6
  6
CONTINUOUS
 62
6
 10
8.24860846721644
 20
16.8240475185713
 30
0.0
 40
0.374169560784254
 50
161.2941
 51
198.7059
  0
ARC
  8
6
  6
CONTINUOUS
 62
6
 10
8.01432738881407
 20
16.7382702093126
 30
0.0
 40
0.124903626714107
 50
195.902054741785
 51
266.557589464157
  0
ARC
  8
6
  6
CONTINUOUS
 62
6
 10
8.01432751833987
 20
16.7382703751202
 30
0.0
 40
0.1249038
 50
273.442465277628
 51
344.097999999998
  0
ARC
  8
6
  6
CONTINUOUS
 62
6
 10
7.78004659237787
 20
16.8240477439102
 30
0.0
 40
0.374169536591774
 50
341.294099999999
 51
18.7059000000007
  0
ARC
  8
6
  6
CONTINUOUS
 62
6
 10
8.01432769691882
 20
16.909824968515
 30
0.0
 40
0.124903716014757
 50
15.9020797482304
 51
86.5576144706034
  0
LINE
  8
6
  6
CONTINUOUS
 62
6
 10
8.18421619833987
 20
17.0347286951202
 30
0.0
 11
8.18421619833987
 21
16.6147286951202
 31
0.0
  0
LINE
  8
6
  6
CONTINUOUS
 62
6
 10
8.20671619833987
 20
17.0347286951202
 30
0.0
 11
8.33661619833987
 21
17.0347286951202
 31
0.0
  0
ARC
  8
6
  6
CONTINUOUS
 62
6
 10
8.33661619833988
 20
16.9297286951202
 30
0.0
 40
0.105000000000006
 50
359.995600000002
 51
90.0000000000044
  0
ARC
  8
6
  6
CONTINUOUS
 62
6
 10
8.33661619833987
 20
16.9297286951202
 30
0.0
 40
0.105000000000013
 50
269.991199999991
 51
359.995599999993
  0
LINE
  8
6
  6
CONTINUOUS
 62
6
 10
8.33660007149763
 20
16.8247286963586
 30
0.0
 11
8.44161619833987
 21
16.6147286951202
 31
0.0
  0
LINE
  8
6
  6
CONTINUOUS
 62
6
 10
8.20671619833987
 20
16.8247286951202
 30
0.0
 11
8.33659999833987
 21
16.8247286951202
 31
0.0
  0
LINE
  8
6
  6
CONTINUOUS
 62
6
 10
8.80161619833987
 20
16.8247286951202
 30
0.0
 11
9.04161622833987
 21
16.8247286951202
 31
0.0
  0
LINE
  8
6
  6
CONTINUOUS
 62
6
 10
9.40161622833987
 20
17.0347286951202
 30
0.0
 11
9.53586622833987
 21
17.0347286951202
 31
0.0
  0
LINE
  8
6
  6
CONTINUOUS
 62
6
 10
9.53586622833987
 20
17.0347286951202
 30
0.0
 11
9.53586625833987
 21
16.6147286951202
 31
0.0
  0
LINE
  8
6
  6
CONTINUOUS
 62
6
 10
9.53586625833989
 20
17.0347286951202
 30
0.0
 11
9.67011622833987
 21
17.0347286951202
 31
0.0
  0
LINE
  8
6
  6
CONTINUOUS
 62
6
 10
9.70011622833987
 20
17.0347286951202
 30
0.0
 11
9.70011622833987
 21
16.8247286951202
 31
0.0
  0
LINE
  8
6
  6
CONTINUOUS
 62
6
 10
9.70011622833987
 20
16.8247286951202
 30
0.0
 11
9.70011622833987
 21
16.6147286951202
 31
0.0
  0
LINE
  8
6
  6
CONTINUOUS
 62
6
 10
9.70011622833987
 20
16.8247286951202
 30
0.0
 11
9.95511622833987
 21
16.8247286951202
 31
0.0
  0
LINE
  8
6
  6
CONTINUOUS
 62
6
 10
9.95511622833987
 20
16.6147286951202
 30
0.0
 11
9.95511622833987
 21
16.8247286951202
 31
0.0
  0
LINE
  8
6
  6
CONTINUOUS
 62
6
 10
9.95511622833987
 20
16.8247286951202
 30
0.0
 11
9.95511622833987
 21
17.0347286951202
 31
0.0
  0
LINE
  8
6
  6
CONTINUOUS
 62
6
 10
9.98511622833987
 20
17.0347286951202
 30
0.0
 11
10.0451162002254
 21
17.0347286951202
 31
0.0
  0
LINE
  8
6
  6
CONTINUOUS
 62
6
 10
10.0451162002254
 20
17.0347286951202
 30
0.0
 11
10.1051162002254
 21
17.0347286951202
 31
0.0
  0
LINE
  8
6
  6
CONTINUOUS
 62
6
 10
10.0451162002254
 20
17.0347286951202
 30
0.0
 11
10.0451162002254
 21
16.6147286951202
 31
0.0
  0
LINE
  8
6
  6
CONTINUOUS
 62
6
 10
9.98511622833987
 20
16.6147286951202
 30
0.0
 11
10.0451162002254
 21
16.6147286951202
 31
0.0
  0
LINE
  8
6
  6
CONTINUOUS
 62
6
 10
10.0451162002254
 20
16.6147286951202
 30
0.0
 11
10.1051162002254
 21
16.6147286951202
 31
0.0
  0
ARC
  8
6
  6
CONTINUOUS
 62
6
 10
10.2838711781728
 20
16.9132402451202
 30
0.0
 40
0.121071389999996
 50
30.5220199999994
 51
89.2984799999995
  0
LINE
  8
6
  6
CONTINUOUS
 62
6
 10
10.2853535191088
 20
17.0343025602388
 30
0.0
 11
10.2512271881728
 21
17.0347204151202
 31
0.0
  0
ARC
  8
6
  6
CONTINUOUS
 62
6
 10
10.2498739719443
 20
16.9242027961676
 30
0.0
 40
0.110525903267522
 50
89.2984855715482
 51
177.350705571549
  0
ARC
  8
6
  6
CONTINUOUS
 62
6
 10
10.2293690205219
 20
16.9374653270176
 30
0.0
 40
0.090271814622323
 50
185.182274255108
 51
239.344774255108
  0
LINE
  8
6
  6
CONTINUOUS
 62
6
 10
10.1833420560609
 20
16.8598089102981
 30
0.0
 11
10.3486403081728
 21
16.7888144051202
 31
0.0
  0
ARC
  8
6
  6
CONTINUOUS
 62
6
 10
10.3026134261715
 20
16.7111579787978
 30
0.0
 40
0.0902717808394171
 50
5.18223938609767
 51
59.3448223860977
  0
ARC
  8
6
  6
CONTINUOUS
 62
6
 10
10.2821084816274
 20
16.7244205048891
 30
0.0
 40
0.11052587019469
 50
269.441077271097
 51
357.350677271099
  0
LINE
  8
6
  6
CONTINUOUS
 62
6
 10
10.2810303142345
 20
16.6138998935201
 30
0.0
 11
10.2382301981728
 21
16.6143174251202
 31
0.0
  0
ARC
  8
6
  6
CONTINUOUS
 62
6
 10
10.2394112131347
 20
16.7353830105577
 30
0.0
 40
0.121071345799372
 50
210.52198785121
 51
269.441087851211
  0
ARC
  8
6
  6
CONTINUOUS
 62
6
 10
10.9012711941041
 20
16.9132402451202
 30
0.0
 40
0.121071389999996
 50
30.5220199999994
 51
89.2984799999995
  0
LINE
  8
6
  6
CONTINUOUS
 62
6
 10
10.9027535350401
 20
17.0343025602388
 30
0.0
 11
10.8686272041041
 21
17.0347204151202
 31
0.0
  0
ARC
  8
6
  6
CONTINUOUS
 62
6
 10
10.8672739878756
 20
16.9242027961676
 30
0.0
 40
0.110525903267522
 50
89.2984855715482
 51
177.350705571549
  0
ARC
  8
6
  6
CONTINUOUS
 62
6
 10
10.8467690364532
 20
16.9374653270176
 30
0.0
 40
0.090271814622323
 50
185.182274255108
 51
239.344774255108
  0
LINE
  8
6
  6
CONTINUOUS
 62
6
 10
10.8007420719922
 20
16.8598089102981
 30
0.0
 11
10.9660403241041
 21
16.7888144051202
 31
0.0
  0
ARC
  8
6
  6
CONTINUOUS
 62
6
 10
10.9200134421028
 20
16.7111579787978
 30
0.0
 40
0.0902717808394171
 50
5.18223938609767
 51
59.3448223860977
  0
ARC
  8
6
  6
CONTINUOUS
 62
6
 10
10.8995084975587
 20
16.7244205048891
 30
0.0
 40
0.11052587019469
 50
269.441077271097
 51
357.350677271099
  0
LINE
  8
6
  6
CONTINUOUS
 62
6
 10
10.8984303301658
 20
16.6138998935201
 30
0.0
 11
10.8556302141041
 21
16.6143174251202
 31
0.0
  0
ARC
  8
6
  6
CONTINUOUS
 62
6
 10
10.8568112290659
 20
16.7353830105577
 30
0.0
 40
0.121071345799372
 50
210.52198785121
 51
269.441087851211
  0
LINE
  8
6
  6
CONTINUOUS
 62
6
 10
11.0399162320879
 20
17.0347286951202
 30
0.0
 11
11.0999162039734
 21
17.0347286951202
 31
0.0
  0
LINE
  8
6
  6
CONTINUOUS
 62
6
 10
11.0999162039734
 20
17.0347286951202
 30
0.0
 11
11.1599162039734
 21
17.0347286951202
 31
0.0
  0
LINE
  8
6
  6
CONTINUOUS
 62
6
 10
11.0999162039734
 20
17.0347286951202
 30
0.0
 11
11.0999162039734
 21
16.6147286951202
 31
0.0
  0
LINE
  8
6
  6
CONTINUOUS
 62
6
 10
11.0399162320879
 20
16.6147286951202
 30
0.0
 11
11.0999162039734
 21
16.6147286951202
 31
0.0
  0
LINE
  8
6
  6
CONTINUOUS
 62
6
 10
11.0999162039734
 20
16.6147286951202
 30
0.0
 11
11.1599162039734
 21
16.6147286951202
 31
0.0
  0
LINE
  8
6
  6
CONTINUOUS
 62
6
 10
11.1899162039734
 20
17.0347286951202
 30
0.0
 11
11.1899162039734
 21
16.6147286951202
 31
0.0
  0
LINE
  8
6
  6
CONTINUOUS
 62
6
 10
11.2124162039734
 20
16.6147286951202
 30
0.0
 11
11.3070660839734
 21
16.6147286951202
 31
0.0
  0
ARC
  8
6
  6
CONTINUOUS
 62
6
 10
11.2925776216157
 20
16.7685023106347
 30
0.0
 40
0.154454654736915
 50
275.382485884767
 51
335.613185884767
  0
ARC
  8
6
  6
CONTINUOUS
 62
6
 10
11.0788468644753
 20
16.8247288541001
 30
0.0
 40
0.374169422895456
 50
341.294099999999
 51
18.7059000000007
  0
ARC
  8
6
  6
CONTINUOUS
 62
6
 10
11.2925778676233
 20
16.8809552201593
 30
0.0
 40
0.154454514312294
 50
24.3869099871631
 51
84.6174899871631
  0
LINE
  8
6
  6
CONTINUOUS
 62
6
 10
11.3070663815648
 20
17.034728689767
 30
0.0
 11
11.2124162039734
 21
17.0347286951202
 31
0.0
  0
LINE
  8
6
  6
CONTINUOUS
 62
6
 10
11.4830163239734
 20
17.0347286951202
 30
0.0
 11
11.4833163239734
 21
16.6147286951202
 31
0.0
  0
LINE
  8
6
  6
CONTINUOUS
 62
6
 10
11.4833163239734
 20
16.6147286951202
 30
0.0
 11
11.7296163239734
 21
16.6147286951202
 31
0.0
  0
LINE
  8
6
  6
CONTINUOUS
 62
6
 10
11.4833163239734
 20
16.8247286951202
 30
0.0
 11
11.6756163239734
 21
16.8247286951202
 31
0.0
  0
LINE
  8
6
  6
CONTINUOUS
 62
6
 10
11.4905163258867
 20
17.0347286951202
 30
0.0
 11
11.4905163220602
 21
17.0347340522617
 31
0.0
  0
LINE
  8
6
  6
CONTINUOUS
 62
6
 10
11.4905163220602
 20
17.0347340522617
 30
0.0
 11
11.7296163239734
 21
17.0347286951202
 31
0.0
  0
LINE
  8
6
  6
CONTINUOUS
 62
6
 10
12.0896163239734
 20
17.0347286951202
 30
0.0
 11
12.0896163239734
 21
16.7347286651202
 31
0.0
  0
ARC
  8
6
  6
CONTINUOUS
 62
6
 10
12.212630930419
 20
16.7350286368953
 30
0.0
 40
0.123014972186392
 50
180.139715787557
 51
270.698715787557
  0
ARC
  8
6
  6
CONTINUOUS
 62
6
 10
12.2126309639734
 20
16.7350286651202
 30
0.0
 40
0.123014999999997
 50
270.698699999994
 51
1.25769999999901
  0
LINE
  8
6
  6
CONTINUOUS
 62
6
 10
12.3356163279797
 20
16.7377287512734
 30
0.0
 11
12.3356163239734
 21
17.0347286951202
 31
0.0
  0
LINE
  8
6
  6
CONTINUOUS
 62
6
 10
12.3656163239734
 20
17.0347286951202
 30
0.0
 11
12.3656163239734
 21
16.6147286951202
 31
0.0
  0
LINE
  8
6
  6
CONTINUOUS
 62
6
 10
12.3881163239734
 20
17.0347286951202
 30
0.0
 11
12.5180163239734
 21
17.0347286951202
 31
0.0
  0
ARC
  8
6
  6
CONTINUOUS
 62
6
 10
12.5180163239734
 20
16.9297286951202
 30
0.0
 40
0.105
 50
359.995599999999
 51
90.000000000001
  0
ARC
  8
6
  6
CONTINUOUS
 62
6
 10
12.5180163239734
 20
16.9297286951202
 30
0.0
 40
0.105000000000005
 50
269.991199999995
 51
359.995599999997
  0
LINE
  8
6
  6
CONTINUOUS
 62
6
 10
12.5180001971312
 20
16.8247286963586
 30
0.0
 11
12.3881163239734
 21
16.8247286951202
 31
0.0
  0
ENDSEC
  0
EOF
