  0
SECTION
  2
HEADER
  9
$ACADVER
  1
AC1003
  9
$EXTMIN
 10
0.00800518539019812
 20
17.99080917957
  9
$EXTMAX
 10
18.5087703157449
 20
-0.0112993421211911
  9
$INSBASE
 10
9.25838775056755
 20
8.98975491872439
999
Created with OMAX Layout for Windows. (http://www.omax.com) 12/21/2012
  0
ENDSEC
  0
SECTION
  2
TABLES
  0
TABLE
  2
LAYER
 70
    10
  0
LAYER
  2
0
 70
     0
 62
     7
  6
CONTINUOUS
  0
LAYER
  2
1
 70
     0
 62
     7
  6
CONTINUOUS
  0
LAYER
  2
2
 70
     0
 62
     7
  6
CONTINUOUS
  0
LAYER
  2
3
 70
     0
 62
     7
  6
CONTINUOUS
  0
LAYER
  2
4
 70
     0
 62
     7
  6
CONTINUOUS
  0
LAYER
  2
5
 70
     0
 62
     7
  6
CONTINUOUS
  0
LAYER
  2
6
 70
     0
 62
     7
  6
CONTINUOUS
  0
LAYER
  2
7
 70
     0
 62
     7
  6
CONTINUOUS
  0
LAYER
  2
8
 70
     0
 62
     7
  6
CONTINUOUS
  0
LAYER
  2
9
 70
     0
 62
     7
  6
CONTINUOUS
  0
LAYER
  2
10
 70
     0
 62
     7
  6
CONTINUOUS
  0
LAYER
  2
11
 70
     0
 62
     7
  6
CONTINUOUS
  0
LAYER
  2
12
 70
     0
 62
     7
  6
CONTINUOUS
  0
LAYER
  2
13
 70
     0
 62
     7
  6
CONTINUOUS
  0
LAYER
  2
14
 70
     0
 62
     7
  6
CONTINUOUS
  0
LAYER
  2
15
 70
     0
 62
     7
  6
CONTINUOUS
  0
LAYER
  2
16
 70
     0
 62
     7
  6
CONTINUOUS
  0
LAYER
  2
17
 70
     0
 62
     7
  6
CONTINUOUS
  0
LAYER
  2
18
 70
     0
 62
     7
  6
CONTINUOUS
  0
LAYER
  2
19
 70
     0
 62
     7
  6
CONTINUOUS
  0
LAYER
  2
20
 70
     0
 62
     7
  6
CONTINUOUS
  0
LAYER
  2
21
 70
     0
 62
     7
  6
CONTINUOUS
  0
LAYER
  2
22
 70
     0
 62
     7
  6
CONTINUOUS
  0
LAYER
  2
23
 70
     0
 62
     7
  6
CONTINUOUS
  0
LAYER
  2
24
 70
     0
 62
     7
  6
CONTINUOUS
  0
LAYER
  2
25
 70
     0
 62
     7
  6
CONTINUOUS
  0
LAYER
  2
26
 70
     0
 62
     7
  6
CONTINUOUS
  0
LAYER
  2
27
 70
     0
 62
     7
  6
CONTINUOUS
  0
LAYER
  2
28
 70
     0
 62
     7
  6
CONTINUOUS
  0
LAYER
  2
29
 70
     0
 62
     7
  6
CONTINUOUS
  0
LAYER
  2
30
 70
     0
 62
     7
  6
CONTINUOUS
  0
LAYER
  2
31
 70
     0
 62
     7
  6
CONTINUOUS
  0
ENDTAB
  0
ENDSEC
  0
SECTION
  2
ENTITIES
  0
LINE
  8
1
  6
CONTINUOUS
 62
1
 10
0.00877030870949902
 20
-0.0112227839122134
 30
0.0
 11
0.00877030870949547
 21
17.9887772160878
 31
0.0
  0
LINE
  8
1
  6
CONTINUOUS
 62
1
 10
0.00877030870949547
 20
17.9887772160878
 30
0.0
 11
18.5087703087095
 21
17.9887772160878
 31
0.0
  0
LINE
  8
1
  6
CONTINUOUS
 62
1
 10
18.5087703087095
 20
17.9887772160878
 30
0.0
 11
18.5087703087095
 21
-0.0112227839122099
 31
0.0
  0
LINE
  8
1
  6
CONTINUOUS
 62
1
 10
18.5087703087095
 20
-0.0112227839122099
 30
0.0
 11
0.00877030870949902
 21
-0.0112227839122134
 31
0.0
  0
ARC
  8
1
  6
CONTINUOUS
 62
1
 10
4.0087703087095
 20
1.20981067504285
 30
0.0
 40
0.177999999999999
 50
269.999999999999
 51
89.9999999999998
  0
ARC
  8
1
  6
CONTINUOUS
 62
1
 10
4.0087703087095
 20
1.20981067504285
 30
0.0
 40
0.177999999999999
 50
89.9999999999998
 51
270
  0
ARC
  8
1
  6
CONTINUOUS
 62
1
 10
16.0087703087095
 20
1.20977721608779
 30
0.0
 40
0.178000000000001
 50
269.999999999999
 51
89.9999999999998
  0
ARC
  8
1
  6
CONTINUOUS
 62
1
 10
16.0087703087095
 20
1.20977721608779
 30
0.0
 40
0.178000000000001
 50
89.9999999999998
 51
270
  0
ARC
  8
1
  6
CONTINUOUS
 62
1
 10
4.0087703087095
 20
16.7678106750429
 30
0.0
 40
0.178000000000001
 50
269.999999999999
 51
89.9999999999998
  0
ARC
  8
1
  6
CONTINUOUS
 62
1
 10
4.00877030870949
 20
16.7678106750429
 30
0.0
 40
0.178000000000001
 50
89.9999999999998
 51
270
  0
ARC
  8
1
  6
CONTINUOUS
 62
1
 10
16.0087703087095
 20
16.7677772160877
 30
0.0
 40
0.178000000000051
 50
269.999999999999
 51
89.9999999999998
  0
ARC
  8
1
  6
CONTINUOUS
 62
1
 10
16.0087703087095
 20
16.7677772160877
 30
0.0
 40
0.178000000000051
 50
89.9999999999998
 51
270
  0
ARC
  8
6
  6
CONTINUOUS
 62
6
 10
6.9879703087095
 20
4.96677721608772
 30
0.0
 40
0.31548316101305
 50
269.999999999999
 51
89.9999999999998
  0
ARC
  8
6
  6
CONTINUOUS
 62
6
 10
6.9879703087095
 20
4.96677721608772
 30
0.0
 40
0.31548316101305
 50
89.9999999999998
 51
270
  0
ARC
  8
6
  6
CONTINUOUS
 62
6
 10
15.0444703087095
 20
12.9807772160878
 30
0.0
 40
0.315483161013098
 50
269.999999999999
 51
89.9999999999998
  0
ARC
  8
6
  6
CONTINUOUS
 62
6
 10
15.0444703087095
 20
12.9807772160878
 30
0.0
 40
0.315483161013098
 50
89.9999999999998
 51
270
  0
ARC
  8
1
  6
CONTINUOUS
 62
1
 10
15.8569703087095
 20
14.5557772160878
 30
0.0
 40
0.0999999999999996
 50
269.999999999999
 51
89.9999999999998
  0
ARC
  8
1
  6
CONTINUOUS
 62
1
 10
15.8569703087095
 20
14.5557772160878
 30
0.0
 40
0.0999999999999996
 50
89.9999999999998
 51
270
  0
ARC
  8
1
  6
CONTINUOUS
 62
1
 10
15.8569703087095
 20
11.0308272160878
 30
0.0
 40
0.0999999999999996
 50
269.999999999999
 51
89.9999999999998
  0
ARC
  8
1
  6
CONTINUOUS
 62
1
 10
15.8569703087095
 20
11.0308272160878
 30
0.0
 40
0.0999999999999996
 50
89.9999999999998
 51
270
  0
ARC
  8
1
  6
CONTINUOUS
 62
1
 10
13.1899703087096
 20
14.5557772160878
 30
0.0
 40
0.0999999999999996
 50
269.999999999999
 51
89.9999999999998
  0
ARC
  8
1
  6
CONTINUOUS
 62
1
 10
13.1899703087096
 20
14.5557772160878
 30
0.0
 40
0.0999999999999996
 50
89.9999999999998
 51
270
  0
ARC
  8
1
  6
CONTINUOUS
 62
1
 10
7.4879703087095
 20
3.42177721608779
 30
0.0
 40
0.0999999999999996
 50
269.999999999999
 51
89.9999999999998
  0
ARC
  8
1
  6
CONTINUOUS
 62
1
 10
7.4879703087095
 20
3.42177721608779
 30
0.0
 40
0.0999999999999996
 50
89.9999999999998
 51
270
  0
ARC
  8
1
  6
CONTINUOUS
 62
1
 10
7.4879286377634
 20
6.94678693759667
 30
0.0
 40
0.0999999999999996
 50
269.999999999999
 51
89.9999999999998
  0
ARC
  8
1
  6
CONTINUOUS
 62
1
 10
7.4879286377634
 20
6.94678693759667
 30
0.0
 40
0.0999999999999996
 50
89.9999999999998
 51
270
  0
ARC
  8
1
  6
CONTINUOUS
 62
1
 10
4.8210187160847
 20
3.42175222292745
 30
0.0
 40
0.100000000000001
 50
269.999999999999
 51
89.9999999999998
  0
ARC
  8
1
  6
CONTINUOUS
 62
1
 10
4.8210187160847
 20
3.42175222292745
 30
0.0
 40
0.100000000000001
 50
89.9999999999998
 51
270
  0
LINE
  8
1
  6
CONTINUOUS
 62
1
 10
0.508770316107599
 20
-0.0112227839118546
 30
0.0
 11
0.508005185390198
 21
0.314776654619504
 31
0.0
  0
LINE
  8
1
  6
CONTINUOUS
 62
1
 10
0.508005185390198
 20
0.314776654619504
 30
0.0
 11
0.00800518539019812
 21
0.314776654619504
 31
0.0
  0
LINE
  8
1
  6
CONTINUOUS
 62
1
 10
0.00800518539019812
 20
0.314776654619504
 30
0.0
 11
0.00877031610759893
 21
-0.0112227839118546
 31
0.0
  0
LINE
  8
1
  6
CONTINUOUS
 62
1
 10
0.00877031610759893
 20
-0.0112227839118546
 30
0.0
 11
0.508770316107599
 21
-0.0112227839118546
 31
0.0
  0
LINE
  8
1
  6
CONTINUOUS
 62
1
 10
0.00877030870949547
 20
17.9887772160878
 30
0.0
 11
0.00877030870949902
 21
8.98877721608776
 31
0.0
  0
LINE
  8
1
  6
CONTINUOUS
 62
1
 10
0.508865908462093
 20
17.6643402964931
 30
0.0
 11
0.508894224468294
 21
17.9903402952633
 31
0.0
  0
LINE
  8
1
  6
CONTINUOUS
 62
1
 10
0.508894224468294
 20
17.9903402952633
 30
0.0
 11
0.00889426519509406
 21
17.99080917957
 31
0.0
  0
LINE
  8
1
  6
CONTINUOUS
 62
1
 10
0.00889426519509406
 20
17.99080917957
 30
0.0
 11
0.00942515830719337
 21
17.6648096118517
 31
0.0
  0
LINE
  8
1
  6
CONTINUOUS
 62
1
 10
0.00942515830719337
 20
17.6648096118517
 30
0.0
 11
0.508865908462093
 21
17.6643402964931
 31
0.0
  0
LINE
  8
1
  6
CONTINUOUS
 62
1
 10
18.5087703087095
 20
-0.0112227839122099
 30
0.0
 11
18.5082979496382
 21
0.30127543107757
 31
0.0
  0
LINE
  8
1
  6
CONTINUOUS
 62
1
 10
18.5082979496382
 20
0.30127543107757
 30
0.0
 11
17.9682965853963
 21
0.301198872868579
 31
0.0
  0
LINE
  8
1
  6
CONTINUOUS
 62
1
 10
17.9682965853963
 20
0.301198872868579
 30
0.0
 11
17.9687689444676
 21
-0.0112993421211911
 31
0.0
  0
LINE
  8
1
  6
CONTINUOUS
 62
1
 10
17.9687689444676
 20
-0.0112993421211911
 30
0.0
 11
18.5087703087095
 21
-0.0112227839122099
 31
0.0
  0
LINE
  8
1
  6
CONTINUOUS
 62
1
 10
18.5086830476276
 20
17.6759809389881
 30
0.0
 11
18.5087703157449
 21
17.9884808780623
 31
0.0
  0
LINE
  8
1
  6
CONTINUOUS
 62
1
 10
18.5087703157449
 20
17.9884808780623
 30
0.0
 11
17.9687742346982
 21
17.9875098346062
 31
0.0
  0
LINE
  8
1
  6
CONTINUOUS
 62
1
 10
17.9687742346982
 20
17.9875098346062
 30
0.0
 11
17.9686869665808
 21
17.675009895532
 31
0.0
  0
LINE
  8
1
  6
CONTINUOUS
 62
1
 10
17.9686869665808
 20
17.675009895532
 30
0.0
 11
18.5086830476276
 21
17.6759809389881
 31
0.0
  0
ARC
  8
1
  6
CONTINUOUS
 62
1
 10
1.912997328889
 20
2.88646592078817
 30
0.0
 40
0.0599999999999987
 50
269.999999999999
 51
89.9999999999998
  0
ARC
  8
1
  6
CONTINUOUS
 62
1
 10
1.912997328889
 20
2.88646592078817
 30
0.0
 40
0.0599999999999987
 50
89.9999999999998
 51
270
  0
ARC
  8
1
  6
CONTINUOUS
 62
1
 10
1.9129543413787
 20
15.0911497169195
 30
0.0
 40
0.0600000000000005
 50
269.999999999999
 51
89.9999999999998
  0
ARC
  8
1
  6
CONTINUOUS
 62
1
 10
1.91295434137869
 20
15.0911497169195
 30
0.0
 40
0.0600000000000005
 50
89.9999999999998
 51
270
  0
ARC
  8
1
  6
CONTINUOUS
 62
1
 10
0.747999764340298
 20
2.88396596842561
 30
0.0
 40
0.0600000000000058
 50
269.999999999999
 51
89.9999999999998
  0
ARC
  8
1
  6
CONTINUOUS
 62
1
 10
0.747999764340298
 20
2.88396596842561
 30
0.0
 40
0.0600000000000058
 50
89.9999999999998
 51
270
  0
ARC
  8
1
  6
CONTINUOUS
 62
1
 10
0.747956776829997
 20
15.088649764557
 30
0.0
 40
0.0600000000000005
 50
269.999999999999
 51
89.9999999999998
  0
ARC
  8
1
  6
CONTINUOUS
 62
1
 10
0.747956776829996
 20
15.088649764557
 30
0.0
 40
0.0600000000000005
 50
89.9999999999998
 51
270
  0
ARC
  8
1
  6
CONTINUOUS
 62
1
 10
3.7079020141997
 20
15.3295152522762
 30
0.0
 40
0.17
 50
269.999999999999
 51
89.9999999999998
  0
ARC
  8
1
  6
CONTINUOUS
 62
1
 10
3.70790201419969
 20
15.3295152522762
 30
0.0
 40
0.17
 50
89.9999999999998
 51
270
  0
ARC
  8
1
  6
CONTINUOUS
 62
1
 10
5.7595889636945
 20
15.329482578431
 30
0.0
 40
0.17000000000005
 50
269.999999999999
 51
89.9999999999998
  0
ARC
  8
1
  6
CONTINUOUS
 62
1
 10
5.75958896369449
 20
15.329482578431
 30
0.0
 40
0.17000000000005
 50
89.9999999999998
 51
270
  0
LINE
  8
6
  6
CONTINUOUS
 62
6
 10
7.3038996776313
 20
16.977324942055
 30
0.0
 11
7.3038996776313
 21
16.7673249420551
 31
0.0
  0
LINE
  8
6
  6
CONTINUOUS
 62
6
 10
7.3038996776313
 20
16.7673249420551
 30
0.0
 11
7.3038996776313
 21
16.557324942055
 31
0.0
  0
LINE
  8
6
  6
CONTINUOUS
 62
6
 10
7.3038996776313
 20
16.7673249420551
 30
0.0
 11
7.4961996776313
 21
16.7673249420551
 31
0.0
  0
LINE
  8
6
  6
CONTINUOUS
 62
6
 10
7.3113996776313
 20
16.977324942055
 30
0.0
 11
7.55019967763132
 21
16.977324942055
 31
0.0
  0
LINE
  8
6
  6
CONTINUOUS
 62
6
 10
7.58019967763132
 20
16.977324942055
 30
0.0
 11
7.58019967763132
 21
16.5573249420551
 31
0.0
  0
LINE
  8
6
  6
CONTINUOUS
 62
6
 10
7.58019967763132
 20
16.5573249420551
 30
0.0
 11
7.82649967763132
 21
16.5573249420551
 31
0.0
  0
ARC
  8
6
  6
CONTINUOUS
 62
6
 10
7.99638823763132
 20
16.8524211420551
 30
0.0
 40
0.1249038
 50
93.4424652776289
 51
164.098
  0
ARC
  8
6
  6
CONTINUOUS
 62
6
 10
8.23066918650789
 20
16.7666437655062
 30
0.0
 40
0.374169560784254
 50
161.2941
 51
198.7059
  0
ARC
  8
6
  6
CONTINUOUS
 62
6
 10
7.99638810810551
 20
16.6808664562475
 30
0.0
 40
0.124903626714107
 50
195.902054741785
 51
266.557589464157
  0
ARC
  8
6
  6
CONTINUOUS
 62
6
 10
7.99638823763132
 20
16.680866622055
 30
0.0
 40
0.1249038
 50
273.442465277628
 51
344.097999999998
  0
ARC
  8
6
  6
CONTINUOUS
 62
6
 10
7.76210731166932
 20
16.7666439908451
 30
0.0
 40
0.374169536591774
 50
341.294099999999
 51
18.7059000000007
  0
ARC
  8
6
  6
CONTINUOUS
 62
6
 10
7.99638841621027
 20
16.8524212154499
 30
0.0
 40
0.124903716014756
 50
15.9020797482299
 51
86.557614470603
  0
ARC
  8
6
  6
CONTINUOUS
 62
6
 10
8.30616547763132
 20
16.8524211420551
 30
0.0
 40
0.1249038
 50
93.4424652776289
 51
164.098
  0
ARC
  8
6
  6
CONTINUOUS
 62
6
 10
8.54044642650789
 20
16.7666437655062
 30
0.0
 40
0.374169560784254
 50
161.2941
 51
198.7059
  0
ARC
  8
6
  6
CONTINUOUS
 62
6
 10
8.30616534810551
 20
16.6808664562475
 30
0.0
 40
0.124903626714107
 50
195.902054741785
 51
266.557589464157
  0
ARC
  8
6
  6
CONTINUOUS
 62
6
 10
8.30616547763132
 20
16.680866622055
 30
0.0
 40
0.1249038
 50
273.442465277628
 51
344.097999999998
  0
ARC
  8
6
  6
CONTINUOUS
 62
6
 10
8.07188455166932
 20
16.7666439908451
 30
0.0
 40
0.374169536591774
 50
341.294099999999
 51
18.7059000000007
  0
ARC
  8
6
  6
CONTINUOUS
 62
6
 10
8.30616565621026
 20
16.8524212154499
 30
0.0
 40
0.124903716014757
 50
15.9020797482304
 51
86.5576144706034
  0
LINE
  8
6
  6
CONTINUOUS
 62
6
 10
8.47605415763132
 20
16.977324942055
 30
0.0
 11
8.47605415763132
 21
16.5573249420551
 31
0.0
  0
LINE
  8
6
  6
CONTINUOUS
 62
6
 10
8.49855415763132
 20
16.977324942055
 30
0.0
 11
8.62845415763132
 21
16.977324942055
 31
0.0
  0
ARC
  8
6
  6
CONTINUOUS
 62
6
 10
8.62845415763132
 20
16.872324942055
 30
0.0
 40
0.105000000000006
 50
359.995600000002
 51
90.0000000000044
  0
ARC
  8
6
  6
CONTINUOUS
 62
6
 10
8.62845415763132
 20
16.8723249420551
 30
0.0
 40
0.105000000000013
 50
269.991199999991
 51
359.995599999993
  0
LINE
  8
6
  6
CONTINUOUS
 62
6
 10
8.62843803078908
 20
16.7673249432935
 30
0.0
 11
8.73345415763132
 21
16.5573249420551
 31
0.0
  0
LINE
  8
6
  6
CONTINUOUS
 62
6
 10
8.49855415763132
 20
16.767324942055
 30
0.0
 11
8.62843795763132
 21
16.767324942055
 31
0.0
  0
LINE
  8
6
  6
CONTINUOUS
 62
6
 10
9.09345415763132
 20
16.767324942055
 30
0.0
 11
9.33345418763132
 21
16.767324942055
 31
0.0
  0
LINE
  8
6
  6
CONTINUOUS
 62
6
 10
9.69345418763132
 20
16.977324942055
 30
0.0
 11
9.82770418763132
 21
16.977324942055
 31
0.0
  0
LINE
  8
6
  6
CONTINUOUS
 62
6
 10
9.82770418763132
 20
16.977324942055
 30
0.0
 11
9.82770421763132
 21
16.557324942055
 31
0.0
  0
LINE
  8
6
  6
CONTINUOUS
 62
6
 10
9.82770421763133
 20
16.9773249420551
 30
0.0
 11
9.96195418763132
 21
16.977324942055
 31
0.0
  0
LINE
  8
6
  6
CONTINUOUS
 62
6
 10
9.99195418763132
 20
16.977324942055
 30
0.0
 11
9.99195418763132
 21
16.767324942055
 31
0.0
  0
LINE
  8
6
  6
CONTINUOUS
 62
6
 10
9.99195418763132
 20
16.767324942055
 30
0.0
 11
9.99195418763132
 21
16.557324942055
 31
0.0
  0
LINE
  8
6
  6
CONTINUOUS
 62
6
 10
9.99195418763132
 20
16.767324942055
 30
0.0
 11
10.2469541876313
 21
16.767324942055
 31
0.0
  0
LINE
  8
6
  6
CONTINUOUS
 62
6
 10
10.2469541876313
 20
16.557324942055
 30
0.0
 11
10.2469541876313
 21
16.767324942055
 31
0.0
  0
LINE
  8
6
  6
CONTINUOUS
 62
6
 10
10.2469541876313
 20
16.767324942055
 30
0.0
 11
10.2469541876313
 21
16.977324942055
 31
0.0
  0
LINE
  8
6
  6
CONTINUOUS
 62
6
 10
10.2769541876313
 20
16.977324942055
 30
0.0
 11
10.3369541595168
 21
16.977324942055
 31
0.0
  0
LINE
  8
6
  6
CONTINUOUS
 62
6
 10
10.3369541595168
 20
16.977324942055
 30
0.0
 11
10.3969541595168
 21
16.977324942055
 31
0.0
  0
LINE
  8
6
  6
CONTINUOUS
 62
6
 10
10.3369541595168
 20
16.977324942055
 30
0.0
 11
10.3369541595168
 21
16.557324942055
 31
0.0
  0
LINE
  8
6
  6
CONTINUOUS
 62
6
 10
10.2769541876313
 20
16.557324942055
 30
0.0
 11
10.3369541595168
 21
16.557324942055
 31
0.0
  0
LINE
  8
6
  6
CONTINUOUS
 62
6
 10
10.3369541595168
 20
16.557324942055
 30
0.0
 11
10.3969541595168
 21
16.557324942055
 31
0.0
  0
ARC
  8
6
  6
CONTINUOUS
 62
6
 10
10.5757091374643
 20
16.8558364920551
 30
0.0
 40
0.121071389999996
 50
30.5220199999994
 51
89.2984799999995
  0
LINE
  8
6
  6
CONTINUOUS
 62
6
 10
10.5771914784003
 20
16.9768988071737
 30
0.0
 11
10.5430651474643
 21
16.977316662055
 31
0.0
  0
ARC
  8
6
  6
CONTINUOUS
 62
6
 10
10.5417119312358
 20
16.8667990431025
 30
0.0
 40
0.110525903267522
 50
89.2984855715482
 51
177.350705571549
  0
ARC
  8
6
  6
CONTINUOUS
 62
6
 10
10.5212069798133
 20
16.8800615739525
 30
0.0
 40
0.090271814622323
 50
185.182274255108
 51
239.344774255108
  0
LINE
  8
6
  6
CONTINUOUS
 62
6
 10
10.4751800153523
 20
16.802405157233
 30
0.0
 11
10.6404782674643
 21
16.731410652055
 31
0.0
  0
ARC
  8
6
  6
CONTINUOUS
 62
6
 10
10.594451385463
 20
16.6537542257327
 30
0.0
 40
0.0902717808394171
 50
5.18223938609767
 51
59.3448223860977
  0
ARC
  8
6
  6
CONTINUOUS
 62
6
 10
10.5739464409189
 20
16.6670167518239
 30
0.0
 40
0.11052587019469
 50
269.441077271097
 51
357.350677271099
  0
LINE
  8
6
  6
CONTINUOUS
 62
6
 10
10.572868273526
 20
16.556496140455
 30
0.0
 11
10.5300681574643
 21
16.556913672055
 31
0.0
  0
ARC
  8
6
  6
CONTINUOUS
 62
6
 10
10.5312491724261
 20
16.6779792574926
 30
0.0
 40
0.121071345799372
 50
210.52198785121
 51
269.441087851211
  0
ARC
  8
6
  6
CONTINUOUS
 62
6
 10
11.1931091533955
 20
16.8558364920551
 30
0.0
 40
0.121071389999996
 50
30.5220199999994
 51
89.2984799999995
  0
LINE
  8
6
  6
CONTINUOUS
 62
6
 10
11.1945914943315
 20
16.9768988071737
 30
0.0
 11
11.1604651633955
 21
16.977316662055
 31
0.0
  0
ARC
  8
6
  6
CONTINUOUS
 62
6
 10
11.159111947167
 20
16.8667990431025
 30
0.0
 40
0.110525903267522
 50
89.2984855715482
 51
177.350705571549
  0
ARC
  8
6
  6
CONTINUOUS
 62
6
 10
11.1386069957446
 20
16.8800615739525
 30
0.0
 40
0.090271814622323
 50
185.182274255108
 51
239.344774255108
  0
LINE
  8
6
  6
CONTINUOUS
 62
6
 10
11.0925800312836
 20
16.802405157233
 30
0.0
 11
11.2578782833955
 21
16.731410652055
 31
0.0
  0
ARC
  8
6
  6
CONTINUOUS
 62
6
 10
11.2118514013943
 20
16.6537542257327
 30
0.0
 40
0.0902717808394171
 50
5.18223938609767
 51
59.3448223860977
  0
ARC
  8
6
  6
CONTINUOUS
 62
6
 10
11.1913464568501
 20
16.6670167518239
 30
0.0
 40
0.11052587019469
 50
269.441077271097
 51
357.350677271099
  0
LINE
  8
6
  6
CONTINUOUS
 62
6
 10
11.1902682894572
 20
16.556496140455
 30
0.0
 11
11.1474681733955
 21
16.556913672055
 31
0.0
  0
ARC
  8
6
  6
CONTINUOUS
 62
6
 10
11.1486491883574
 20
16.6779792574926
 30
0.0
 40
0.121071345799372
 50
210.52198785121
 51
269.441087851211
  0
LINE
  8
6
  6
CONTINUOUS
 62
6
 10
11.3317541913794
 20
16.977324942055
 30
0.0
 11
11.3917541632649
 21
16.977324942055
 31
0.0
  0
LINE
  8
6
  6
CONTINUOUS
 62
6
 10
11.3917541632649
 20
16.977324942055
 30
0.0
 11
11.4517541632649
 21
16.977324942055
 31
0.0
  0
LINE
  8
6
  6
CONTINUOUS
 62
6
 10
11.3917541632649
 20
16.977324942055
 30
0.0
 11
11.3917541632649
 21
16.557324942055
 31
0.0
  0
LINE
  8
6
  6
CONTINUOUS
 62
6
 10
11.3317541913794
 20
16.557324942055
 30
0.0
 11
11.3917541632649
 21
16.557324942055
 31
0.0
  0
LINE
  8
6
  6
CONTINUOUS
 62
6
 10
11.3917541632649
 20
16.557324942055
 30
0.0
 11
11.4517541632649
 21
16.557324942055
 31
0.0
  0
LINE
  8
6
  6
CONTINUOUS
 62
6
 10
11.4817541632649
 20
16.977324942055
 30
0.0
 11
11.4817541632649
 21
16.557324942055
 31
0.0
  0
LINE
  8
6
  6
CONTINUOUS
 62
6
 10
11.5042541632649
 20
16.557324942055
 30
0.0
 11
11.5989040432649
 21
16.557324942055
 31
0.0
  0
ARC
  8
6
  6
CONTINUOUS
 62
6
 10
11.5844155809071
 20
16.7110985575696
 30
0.0
 40
0.154454654736915
 50
275.382485884767
 51
335.613185884767
  0
ARC
  8
6
  6
CONTINUOUS
 62
6
 10
11.3706848237667
 20
16.767325101035
 30
0.0
 40
0.374169422895456
 50
341.294099999999
 51
18.7059000000007
  0
ARC
  8
6
  6
CONTINUOUS
 62
6
 10
11.5844158269147
 20
16.8235514670941
 30
0.0
 40
0.154454514312294
 50
24.3869099871631
 51
84.6174899871631
  0
LINE
  8
6
  6
CONTINUOUS
 62
6
 10
11.5989043408563
 20
16.9773249367019
 30
0.0
 11
11.5042541632649
 21
16.977324942055
 31
0.0
  0
LINE
  8
6
  6
CONTINUOUS
 62
6
 10
11.7748542832649
 20
16.977324942055
 30
0.0
 11
11.7751542832649
 21
16.5573249420551
 31
0.0
  0
LINE
  8
6
  6
CONTINUOUS
 62
6
 10
11.7751542832649
 20
16.5573249420551
 30
0.0
 11
12.0214542832649
 21
16.5573249420551
 31
0.0
  0
LINE
  8
6
  6
CONTINUOUS
 62
6
 10
11.7751542832649
 20
16.7673249420551
 30
0.0
 11
11.9674542832649
 21
16.7673249420551
 31
0.0
  0
LINE
  8
6
  6
CONTINUOUS
 62
6
 10
11.7823542851781
 20
16.977324942055
 30
0.0
 11
11.7823542813516
 21
16.9773302991965
 31
0.0
  0
LINE
  8
6
  6
CONTINUOUS
 62
6
 10
11.7823542813516
 20
16.9773302991965
 30
0.0
 11
12.0214542832649
 21
16.977324942055
 31
0.0
  0
LINE
  8
6
  6
CONTINUOUS
 62
6
 10
12.3814542832649
 20
16.977324942055
 30
0.0
 11
12.3814542832649
 21
16.677324912055
 31
0.0
  0
ARC
  8
6
  6
CONTINUOUS
 62
6
 10
12.5044688897104
 20
16.6776248838302
 30
0.0
 40
0.123014972186392
 50
180.139715787557
 51
270.698715787557
  0
ARC
  8
6
  6
CONTINUOUS
 62
6
 10
12.5044689232649
 20
16.677624912055
 30
0.0
 40
0.123014999999997
 50
270.698699999994
 51
1.25769999999901
  0
LINE
  8
6
  6
CONTINUOUS
 62
6
 10
12.6274542872712
 20
16.6803249982083
 30
0.0
 11
12.6274542832649
 21
16.977324942055
 31
0.0
  0
LINE
  8
6
  6
CONTINUOUS
 62
6
 10
12.6574542832649
 20
16.977324942055
 30
0.0
 11
12.6574542832649
 21
16.5573249420551
 31
0.0
  0
LINE
  8
6
  6
CONTINUOUS
 62
6
 10
12.6799542832649
 20
16.977324942055
 30
0.0
 11
12.8098542832649
 21
16.977324942055
 31
0.0
  0
ARC
  8
6
  6
CONTINUOUS
 62
6
 10
12.8098542832649
 20
16.872324942055
 30
0.0
 40
0.105
 50
359.995599999999
 51
90.000000000001
  0
ARC
  8
6
  6
CONTINUOUS
 62
6
 10
12.8098542832649
 20
16.8723249420551
 30
0.0
 40
0.105000000000005
 50
269.991199999995
 51
359.995599999997
  0
LINE
  8
6
  6
CONTINUOUS
 62
6
 10
12.8098381564226
 20
16.7673249432935
 30
0.0
 11
12.6799542832649
 21
16.767324942055
 31
0.0
  0
LINE
  8
6
  6
CONTINUOUS
 62
6
 10
2.08413203348571
 20
6.09359727524752
 30
0.0
 11
2.08427984894182
 21
6.15359706505425
 31
0.0
  0
LINE
  8
6
  6
CONTINUOUS
 62
6
 10
2.08427984894182
 20
6.15359706505425
 30
0.0
 11
2.0844276644672
 21
6.21359688297539
 31
0.0
  0
LINE
  8
6
  6
CONTINUOUS
 62
6
 10
2.08427984894182
 20
6.15359706505425
 30
0.0
 11
2.50427857438983
 21
6.15256235637659
 31
0.0
  0
LINE
  8
6
  6
CONTINUOUS
 62
6
 10
2.50413075893372
 20
6.09256256656986
 30
0.0
 11
2.50427857438983
 21
6.15256235637659
 31
0.0
  0
LINE
  8
6
  6
CONTINUOUS
 62
6
 10
2.50427857438983
 20
6.15256235637659
 30
0.0
 11
2.50442638991521
 21
6.21256217429774
 31
0.0
  0
LINE
  8
6
  6
CONTINUOUS
 62
6
 10
2.50450399306604
 20
6.24406207870634
 30
0.0
 11
2.08450526761803
 21
6.24509678738399
 31
0.0
  0
LINE
  8
6
  6
CONTINUOUS
 62
6
 10
2.08450526761803
 20
6.24509678738399
 30
0.0
 11
2.50513812166991
 21
6.50146129758805
 31
0.0
  0
LINE
  8
6
  6
CONTINUOUS
 62
6
 10
2.50513812166991
 20
6.50146129758805
 30
0.0
 11
2.0851393962219
 21
6.5024960062657
 31
0.0
  0
ARC
  8
6
  6
CONTINUOUS
 62
6
 10
2.20706785689692
 20
6.68095114377037
 30
0.0
 40
0.121071389999996
 50
120.380866428037
 51
179.157326428037
  0
LINE
  8
6
  6
CONTINUOUS
 62
6
 10
2.08600956104317
 20
6.68273172836986
 30
0.0
 11
2.0855076340709
 21
6.64860653041923
 31
0.0
  0
ARC
  8
6
  6
CONTINUOUS
 62
6
 10
2.19602158386862
 20
6.64698104796545
 30
0.0
 40
0.110525903267522
 50
179.157331999585
 51
267.209551999586
  0
ARC
  8
6
  6
CONTINUOUS
 62
6
 10
2.18270857742962
 20
6.62650883223443
 30
0.0
 40
0.0902718146223221
 50
275.041120683146
 51
329.203620683146
  0
LINE
  8
6
  6
CONTINUOUS
 62
6
 10
2.26025136682371
 20
6.58029069371511
 30
0.0
 11
2.33165288402467
 21
6.74541354270371
 31
0.0
  0
ARC
  8
6
  6
CONTINUOUS
 62
6
 10
2.40919568322475
 20
6.69919548662021
 30
0.0
 40
0.090271780839417
 50
95.0410858141342
 51
149.203668814134
  0
ARC
  8
6
  6
CONTINUOUS
 62
6
 10
2.3958826815614
 20
6.67872327775572
 30
0.0
 40
0.11052587019469
 50
359.299923699135
 51
87.2095236991376
  0
LINE
  8
6
  6
CONTINUOUS
 62
6
 10
2.50640030137458
 20
6.67737283593078
 30
0.0
 11
2.50587732901422
 21
6.63457387837989
 31
0.0
  0
ARC
  8
6
  6
CONTINUOUS
 62
6
 10
2.3848150205072
 20
6.63605314597638
 30
0.0
 40
0.121071345799373
 50
300.380834279246
 51
359.299934279246
  0
LINE
  8
6
  6
CONTINUOUS
 62
6
 10
2.08592134039041
 20
6.81989505899978
 30
0.0
 11
2.50592080491602
 21
6.81916034941173
 31
0.0
  0
LINE
  8
6
  6
CONTINUOUS
 62
6
 10
2.50592080491602
 20
6.81916034941173
 30
0.0
 11
2.5065275876477
 21
7.06545960197803
 31
0.0
  0
LINE
  8
6
  6
CONTINUOUS
 62
6
 10
2.29592144219201
 20
6.81967770375056
 30
0.0
 11
2.29639519095085
 21
7.01197712018782
 31
0.0
  0
LINE
  8
6
  6
CONTINUOUS
 62
6
 10
2.08593981733579
 20
6.82739503815318
 30
0.0
 11
2.08593446020113
 21
6.82739504752448
 31
0.0
  0
LINE
  8
6
  6
CONTINUOUS
 62
6
 10
2.08593446020113
 20
6.82739504752448
 30
0.0
 11
2.08652886219972
 21
7.06649431065568
 31
0.0
  0
LINE
  8
6
  6
CONTINUOUS
 62
6
 10
2.08660276996241
 20
7.09649421961625
 30
0.0
 11
2.50660149541042
 21
7.0954595109386
 31
0.0
  0
LINE
  8
6
  6
CONTINUOUS
 62
6
 10
2.08665820078442
 20
7.11899415133668
 30
0.0
 11
2.08697822139687
 21
7.24889375713596
 31
0.0
  0
ARC
  8
6
  6
CONTINUOUS
 62
6
 10
2.19197790275888
 20
7.24863507996655
 30
0.0
 40
0.105000000000007
 50
89.854446428039
 51
179.858846428041
  0
ARC
  8
6
  6
CONTINUOUS
 62
6
 10
2.19197790275886
 20
7.24863507996655
 30
0.0
 40
0.105000000000012
 50
359.850046428028
 51
89.8544464280303
  0
LINE
  8
6
  6
CONTINUOUS
 62
6
 10
2.29697754315247
 20
7.24836027600688
 30
0.0
 11
2.50723562401429
 21
7.35285872982031
 31
0.0
  0
LINE
  8
6
  6
CONTINUOUS
 62
6
 10
2.29665756350843
 20
7.11847679699785
 30
0.0
 11
2.29697754421068
 21
7.24836020284629
 31
0.0
  0
LINE
  8
6
  6
CONTINUOUS
 62
6
 10
2.08731080632897
 20
7.38389334745854
 30
0.0
 11
2.08764154356701
 21
7.5181429400571
 31
0.0
  0
LINE
  8
6
  6
CONTINUOUS
 62
6
 10
2.08764154356701
 20
7.5181429400571
 30
0.0
 11
2.50764026908893
 21
7.51710826137935
 31
0.0
  0
LINE
  8
6
  6
CONTINUOUS
 62
6
 10
2.08764154364091
 20
7.51814297005702
 30
0.0
 11
2.08797228080505
 21
7.65239253265566
 31
0.0
  0
LINE
  8
6
  6
CONTINUOUS
 62
6
 10
2.08885917395732
 20
8.01239144018252
 30
0.0
 11
2.08918991119536
 21
8.14664103278108
 31
0.0
  0
LINE
  8
6
  6
CONTINUOUS
 62
6
 10
2.08918991119536
 20
8.14664103278108
 30
0.0
 11
2.50918863671728
 21
8.14560635410334
 31
0.0
  0
LINE
  8
6
  6
CONTINUOUS
 62
6
 10
2.08918991126926
 20
8.14664106278101
 30
0.0
 11
2.08952064843339
 21
8.28089062537964
 31
0.0
  0
LINE
  8
6
  6
CONTINUOUS
 62
6
 10
2.08959455619608
 20
8.31089053434021
 30
0.0
 11
2.29959391892009
 21
8.31037318000139
 31
0.0
  0
LINE
  8
6
  6
CONTINUOUS
 62
6
 10
2.29959391892009
 20
8.31037318000139
 30
0.0
 11
2.50959328164409
 21
8.30985582566256
 31
0.0
  0
LINE
  8
6
  6
CONTINUOUS
 62
6
 10
2.29959391892009
 20
8.31037318000139
 30
0.0
 11
2.30022213490295
 21
8.56537240616625
 31
0.0
  0
LINE
  8
6
  6
CONTINUOUS
 62
6
 10
2.51022149762696
 20
8.56485505182742
 30
0.0
 11
2.30022213490295
 21
8.56537240616625
 31
0.0
  0
LINE
  8
6
  6
CONTINUOUS
 62
6
 10
2.30022213490295
 20
8.56537240616625
 30
0.0
 11
2.09022277217895
 21
8.56588976050508
 31
0.0
  0
LINE
  8
6
  6
CONTINUOUS
 62
6
 10
2.09029667994163
 20
8.59588966946565
 30
0.0
 11
2.09044449539775
 21
8.65588945927238
 31
0.0
  0
LINE
  8
6
  6
CONTINUOUS
 62
6
 10
2.09044449539775
 20
8.65588945927238
 30
0.0
 11
2.09059231092313
 21
8.71588927719352
 31
0.0
  0
LINE
  8
6
  6
CONTINUOUS
 62
6
 10
2.09044449539775
 20
8.65588945927238
 30
0.0
 11
2.51044322084576
 21
8.65485475059472
 31
0.0
  0
LINE
  8
6
  6
CONTINUOUS
 62
6
 10
2.51029540538964
 20
8.59485496078799
 30
0.0
 11
2.51044322084576
 21
8.65485475059472
 31
0.0
  0
LINE
  8
6
  6
CONTINUOUS
 62
6
 10
2.51044322084576
 20
8.65485475059472
 30
0.0
 11
2.51059103637114
 21
8.71485456851587
 31
0.0
  0
ARC
  8
6
  6
CONTINUOUS
 62
6
 10
2.21252077159815
 20
8.89434441469819
 30
0.0
 40
0.121071389999996
 50
120.380866428038
 51
179.157326428038
  0
LINE
  8
6
  6
CONTINUOUS
 62
6
 10
2.0914624757444
 20
8.89612499929768
 30
0.0
 11
2.09096054877212
 21
8.86199980134706
 31
0.0
  0
ARC
  8
6
  6
CONTINUOUS
 62
6
 10
2.20147449856985
 20
8.86037431889327
 30
0.0
 40
0.110525903267523
 50
179.157331999585
 51
267.209551999586
  0
ARC
  8
6
  6
CONTINUOUS
 62
6
 10
2.18816149213085
 20
8.83990210316225
 30
0.0
 40
0.0902718146223213
 50
275.041120683146
 51
329.203620683146
  0
LINE
  8
6
  6
CONTINUOUS
 62
6
 10
2.26570428152493
 20
8.79368396464293
 30
0.0
 11
2.3371057987259
 21
8.95880681363153
 31
0.0
  0
ARC
  8
6
  6
CONTINUOUS
 62
6
 10
2.41464859792597
 20
8.91258875754803
 30
0.0
 40
0.0902717808394175
 50
95.0410858141348
 51
149.203668814135
  0
ARC
  8
6
  6
CONTINUOUS
 62
6
 10
2.40133559626263
 20
8.89211654868354
 30
0.0
 40
0.110525870194691
 50
359.299923699135
 51
87.2095236991373
  0
LINE
  8
6
  6
CONTINUOUS
 62
6
 10
2.51185321607581
 20
8.8907661068586
 30
0.0
 11
2.51133024371545
 21
8.84796714930771
 31
0.0
  0
ARC
  8
6
  6
CONTINUOUS
 62
6
 10
2.39026793520843
 20
8.8494464169042
 30
0.0
 40
0.121071345799373
 50
300.380834279246
 51
359.299934279246
  0
LINE
  8
6
  6
CONTINUOUS
 62
6
 10
2.09218724048122
 20
9.36328732849389
 30
0.0
 11
2.51218670500683
 21
9.36255261890584
 31
0.0
  0
LINE
  8
6
  6
CONTINUOUS
 62
6
 10
2.51218670500683
 20
9.36255261890584
 30
0.0
 11
2.51279348773851
 21
9.60885187147214
 31
0.0
  0
LINE
  8
6
  6
CONTINUOUS
 62
6
 10
2.30218734228282
 20
9.36306997324467
 30
0.0
 11
2.30266109104166
 21
9.55536938968194
 31
0.0
  0
LINE
  8
6
  6
CONTINUOUS
 62
6
 10
2.09220571742661
 20
9.3707873076473
 30
0.0
 11
2.09220036029195
 21
9.37078731701859
 31
0.0
  0
LINE
  8
6
  6
CONTINUOUS
 62
6
 10
2.09220036029195
 20
9.37078731701859
 30
0.0
 11
2.09279476229053
 21
9.6098865801498
 31
0.0
  0
LINE
  8
6
  6
CONTINUOUS
 62
6
 10
2.51287109088936
 20
9.64035177588074
 30
0.0
 11
2.09287236544136
 21
9.6413864845584
 31
0.0
  0
LINE
  8
6
  6
CONTINUOUS
 62
6
 10
2.09287236544136
 20
9.6413864845584
 30
0.0
 11
2.51350521949324
 21
9.89775099476245
 31
0.0
  0
LINE
  8
6
  6
CONTINUOUS
 62
6
 10
2.51350521949324
 20
9.89775099476245
 30
0.0
 11
2.09350649404523
 21
9.89878570344011
 31
0.0
  0
LINE
  8
6
  6
CONTINUOUS
 62
6
 10
2.09358040180792
 20
9.92878561240068
 30
0.0
 11
2.51357912725593
 21
9.92775090372302
 31
0.0
  0
LINE
  8
6
  6
CONTINUOUS
 62
6
 10
2.51363455807795
 20
9.95025083544345
 30
0.0
 11
2.5138677367736
 21
10.0449004282144
 31
0.0
  0
ARC
  8
6
  6
CONTINUOUS
 62
6
 10
2.36005889424656
 20
10.0307908452869
 30
0.0
 40
0.154454654736913
 50
5.24133231280355
 51
65.4720323128036
  0
ARC
  8
6
  6
CONTINUOUS
 62
6
 10
2.30330595918513
 20
9.8171992617535
 30
0.0
 40
0.374169422895455
 50
71.1529437063178
 51
108.564743706319
  0
ARC
  8
6
  6
CONTINUOUS
 62
6
 10
2.247606326583
 20
10.0310681293921
 30
0.0
 40
0.154454514312293
 50
114.245756415199
 51
174.476336415199
  0
LINE
  8
6
  6
CONTINUOUS
 62
6
 10
2.09386901741186
 20
10.0459354344694
 30
0.0
 11
2.09363583262994
 21
9.95128554412111
 31
0.0
  0
LINE
  8
6
  6
CONTINUOUS
 62
6
 10
2.09511546633462
 20
10.5518838415114
 30
0.0
 11
2.30511482905859
 21
10.5513664871726
 31
0.0
  0
LINE
  8
6
  6
CONTINUOUS
 62
6
 10
2.30511482905859
 20
10.5513664871726
 30
0.0
 11
2.51511419178263
 21
10.5508491328337
 31
0.0
  0
LINE
  8
6
  6
CONTINUOUS
 62
6
 10
2.30511482905859
 20
10.5513664871726
 30
0.0
 11
2.30558857781743
 21
10.7436659036098
 31
0.0
  0
LINE
  8
6
  6
CONTINUOUS
 62
6
 10
2.09513394327529
 20
10.5593838187515
 30
0.0
 11
2.0957222490663
 21
10.7981830940777
 31
0.0
  0
LINE
  8
6
  6
CONTINUOUS
 62
6
 10
2.09579615682899
 20
10.8281830030383
 30
0.0
 11
2.0959439722851
 21
10.888182792845
 31
0.0
  0
LINE
  8
6
  6
CONTINUOUS
 62
6
 10
2.0959439722851
 20
10.888182792845
 30
0.0
 11
2.09609178781048
 21
10.9481826107662
 31
0.0
  0
LINE
  8
6
  6
CONTINUOUS
 62
6
 10
2.0959439722851
 20
10.888182792845
 30
0.0
 11
2.51594269773311
 21
10.8871480841674
 31
0.0
  0
LINE
  8
6
  6
CONTINUOUS
 62
6
 10
2.515794882277
 20
10.8271482943606
 30
0.0
 11
2.51594269773311
 21
10.8871480841674
 31
0.0
  0
LINE
  8
6
  6
CONTINUOUS
 62
6
 10
2.51594269773311
 20
10.8871480841674
 30
0.0
 11
2.51609051325849
 21
10.9471479020885
 31
0.0
  0
LINE
  8
6
  6
CONTINUOUS
 62
6
 10
2.09616569557317
 20
10.9781825197267
 30
0.0
 11
2.51616442102118
 21
10.9771478110491
 31
0.0
  0
LINE
  8
6
  6
CONTINUOUS
 62
6
 10
2.09622112639519
 20
11.0006824514472
 30
0.0
 11
2.09654114700764
 21
11.1305820572464
 31
0.0
  0
ARC
  8
6
  6
CONTINUOUS
 62
6
 10
2.20154082836965
 20
11.130323380077
 30
0.0
 40
0.105000000000006
 50
89.8544464280393
 51
179.858846428041
  0
ARC
  8
6
  6
CONTINUOUS
 62
6
 10
2.20154082836963
 20
11.130323380077
 30
0.0
 40
0.105000000000012
 50
359.850046428028
 51
89.8544464280303
  0
LINE
  8
6
  6
CONTINUOUS
 62
6
 10
2.30654046876323
 20
11.1300485761174
 30
0.0
 11
2.51679854962506
 21
11.2345470299308
 31
0.0
  0
LINE
  8
6
  6
CONTINUOUS
 62
6
 10
2.3062204891192
 20
11.0001650971083
 30
0.0
 11
2.30654046982145
 21
11.1300485029568
 31
0.0
  0
ARC
  8
6
  6
CONTINUOUS
 62
6
 10
2.21872828485207
 20
11.4140368761131
 30
0.0
 40
0.121071389999995
 50
120.380866428037
 51
179.157326428038
  0
LINE
  8
6
  6
CONTINUOUS
 62
6
 10
2.09766998899832
 20
11.4158174607126
 30
0.0
 11
2.09716806202604
 21
11.381692262762
 31
0.0
  0
ARC
  8
6
  6
CONTINUOUS
 62
6
 10
2.20768201182377
 20
11.3800667803082
 30
0.0
 40
0.110525903267522
 50
179.157331999585
 51
267.209551999585
  0
ARC
  8
6
  6
CONTINUOUS
 62
6
 10
2.19436900538477
 20
11.3595945645772
 30
0.0
 40
0.0902718146223221
 50
275.041120683146
 51
329.203620683146
  0
LINE
  8
6
  6
CONTINUOUS
 62
6
 10
2.27191179477885
 20
11.3133764260579
 30
0.0
 11
2.34331331197982
 21
11.4784992750464
 31
0.0
  0
ARC
  8
6
  6
CONTINUOUS
 62
6
 10
2.42085611117989
 20
11.432281218963
 30
0.0
 40
0.0902717808394175
 50
95.0410858141348
 51
149.203668814135
  0
ARC
  8
6
  6
CONTINUOUS
 62
6
 10
2.40754310951655
 20
11.4118090100985
 30
0.0
 40
0.110525870194691
 50
359.299923699135
 51
87.2095236991373
  0
LINE
  8
6
  6
CONTINUOUS
 62
6
 10
2.51806072932973
 20
11.4104585682735
 30
0.0
 11
2.51753775696937
 21
11.3676596107226
 31
0.0
  0
ARC
  8
6
  6
CONTINUOUS
 62
6
 10
2.39647544846234
 20
11.3691388783191
 30
0.0
 40
0.121071345799374
 50
300.380834279247
 51
359.299934279247
  0
LINE
  8
6
  6
CONTINUOUS
 62
6
 10
2.09758176834556
 20
11.5529807913425
 30
0.0
 11
2.09791250558359
 21
11.6872303839411
 31
0.0
  0
LINE
  8
6
  6
CONTINUOUS
 62
6
 10
2.09791250558359
 20
11.6872303839411
 30
0.0
 11
2.51791123110551
 21
11.6861957052633
 31
0.0
  0
LINE
  8
6
  6
CONTINUOUS
 62
6
 10
2.09791250565749
 20
11.687230413941
 30
0.0
 11
2.09824324282163
 21
11.8214799765396
 31
0.0
  0
LINE
  8
6
  6
CONTINUOUS
 62
6
 10
4.08842161985935
 20
14.6487126136851
 30
0.0
 11
4.08842161985935
 21
14.2287126136851
 31
0.0
  0
LINE
  8
6
  6
CONTINUOUS
 62
6
 10
4.11092161985935
 20
14.6487126136851
 30
0.0
 11
4.24082161985935
 21
14.6487126136851
 31
0.0
  0
ARC
  8
6
  6
CONTINUOUS
 62
6
 10
4.24082161985936
 20
14.5437126136851
 30
0.0
 40
0.105000000000006
 50
359.995600000002
 51
90.0000000000042
  0
ARC
  8
6
  6
CONTINUOUS
 62
6
 10
4.24082161985935
 20
14.5437126136851
 30
0.0
 40
0.105000000000012
 50
269.991199999991
 51
359.995599999993
  0
LINE
  8
6
  6
CONTINUOUS
 62
6
 10
4.24080549301711
 20
14.4387126149236
 30
0.0
 11
4.34582161985935
 21
14.2287126136851
 31
0.0
  0
LINE
  8
6
  6
CONTINUOUS
 62
6
 10
4.11092161985935
 20
14.4387126136851
 30
0.0
 11
4.24080541985935
 21
14.4387126136851
 31
0.0
  0
LINE
  8
6
  6
CONTINUOUS
 62
6
 10
4.37582161985935
 20
14.6487126136851
 30
0.0
 11
4.43582159174485
 21
14.6487126136851
 31
0.0
  0
LINE
  8
6
  6
CONTINUOUS
 62
6
 10
4.43582159174485
 20
14.6487126136851
 30
0.0
 11
4.49582159174485
 21
14.6487126136851
 31
0.0
  0
LINE
  8
6
  6
CONTINUOUS
 62
6
 10
4.43582159174485
 20
14.6487126136851
 30
0.0
 11
4.43582159174485
 21
14.2287126136851
 31
0.0
  0
LINE
  8
6
  6
CONTINUOUS
 62
6
 10
4.37582161985935
 20
14.2287126136851
 30
0.0
 11
4.43582159174485
 21
14.2287126136851
 31
0.0
  0
LINE
  8
6
  6
CONTINUOUS
 62
6
 10
4.43582159174485
 20
14.2287126136851
 30
0.0
 11
4.49582159174485
 21
14.2287126136851
 31
0.0
  0
LINE
  8
6
  6
CONTINUOUS
 62
6
 10
4.52732159174485
 20
14.2287126136851
 30
0.0
 11
4.52732159174485
 21
14.6487126136851
 31
0.0
  0
LINE
  8
6
  6
CONTINUOUS
 62
6
 10
4.52732159174485
 20
14.6487126136851
 30
0.0
 11
4.78472159174485
 21
14.2287126136851
 31
0.0
  0
LINE
  8
6
  6
CONTINUOUS
 62
6
 10
4.78472159174485
 20
14.2287126136851
 30
0.0
 11
4.78472159174485
 21
14.6487126136851
 31
0.0
  0
ARC
  8
6
  6
CONTINUOUS
 62
6
 10
4.96347656969229
 20
14.5272241636851
 30
0.0
 40
0.121071389999995
 50
30.5220200000002
 51
89.2984800000002
  0
LINE
  8
6
  6
CONTINUOUS
 62
6
 10
4.96495891062828
 20
14.6482864788037
 30
0.0
 11
4.93083257969228
 21
14.6487043336851
 31
0.0
  0
ARC
  8
6
  6
CONTINUOUS
 62
6
 10
4.92947936346379
 20
14.5381867147326
 30
0.0
 40
0.110525903267523
 50
89.298485571548
 51
177.350705571549
  0
ARC
  8
6
  6
CONTINUOUS
 62
6
 10
4.90897441204137
 20
14.5514492455825
 30
0.0
 40
0.0902718146223219
 50
185.18227425511
 51
239.34477425511
  0
LINE
  8
6
  6
CONTINUOUS
 62
6
 10
4.86294744758038
 20
14.473792828863
 30
0.0
 11
5.02824569969228
 21
14.4027983236851
 31
0.0
  0
ARC
  8
6
  6
CONTINUOUS
 62
6
 10
4.98221881769102
 20
14.3251418973627
 30
0.0
 40
0.0902717808394171
 50
5.18223938609767
 51
59.3448223860977
  0
ARC
  8
6
  6
CONTINUOUS
 62
6
 10
4.96171387314688
 20
14.338404423454
 30
0.0
 40
0.11052587019469
 50
269.441077271098
 51
357.3506772711
  0
LINE
  8
6
  6
CONTINUOUS
 62
6
 10
4.96063570575399
 20
14.227883812085
 30
0.0
 11
4.91783558969228
 21
14.2283013436851
 31
0.0
  0
ARC
  8
6
  6
CONTINUOUS
 62
6
 10
4.91901660465413
 20
14.3493669291226
 30
0.0
 40
0.121071345799373
 50
210.52198785121
 51
269.44108785121
  0
LINE
  8
6
  6
CONTINUOUS
 62
6
 10
5.10212160767612
 20
14.6487126136851
 30
0.0
 11
5.10242160767612
 21
14.2287126136851
 31
0.0
  0
LINE
  8
6
  6
CONTINUOUS
 62
6
 10
5.10242160767612
 20
14.2287126136851
 30
0.0
 11
5.34872160767612
 21
14.2287126136851
 31
0.0
  0
LINE
  8
6
  6
CONTINUOUS
 62
6
 10
5.10242160767612
 20
14.4387126136851
 30
0.0
 11
5.29472160767612
 21
14.4387126136851
 31
0.0
  0
LINE
  8
6
  6
CONTINUOUS
 62
6
 10
5.10962160958939
 20
14.6487126136851
 30
0.0
 11
5.10962160576286
 21
14.6487179708266
 31
0.0
  0
LINE
  8
6
  6
CONTINUOUS
 62
6
 10
5.10962160576286
 20
14.6487179708266
 30
0.0
 11
5.34872160767612
 21
14.6487126136851
 31
0.0
  0
ENDSEC
  0
EOF
