  0
SECTION
  2
HEADER
  9
$ACADVER
  1
AC1003
  9
$EXTMIN
 10
0.00452100857121929
 20
17.9980917142249
  9
$EXTMAX
 10
15.0055346556484
 20
9.00269680392585
  9
$INSBASE
 10
7.50502783210981
 20
13.5003942590754
999
Created with OMAX Layout for Windows. (http://www.omax.com) 12/30/2012
  0
ENDSEC
  0
SECTION
  2
TABLES
  0
TABLE
  2
LAYER
 70
    10
  0
LAYER
  2
0
 70
     0
 62
     7
  6
CONTINUOUS
  0
LAYER
  2
1
 70
     0
 62
     7
  6
CONTINUOUS
  0
LAYER
  2
2
 70
     0
 62
     7
  6
CONTINUOUS
  0
LAYER
  2
3
 70
     0
 62
     7
  6
CONTINUOUS
  0
LAYER
  2
4
 70
     0
 62
     7
  6
CONTINUOUS
  0
LAYER
  2
5
 70
     0
 62
     7
  6
CONTINUOUS
  0
LAYER
  2
6
 70
     0
 62
     7
  6
CONTINUOUS
  0
LAYER
  2
7
 70
     0
 62
     7
  6
CONTINUOUS
  0
LAYER
  2
8
 70
     0
 62
     7
  6
CONTINUOUS
  0
LAYER
  2
9
 70
     0
 62
     7
  6
CONTINUOUS
  0
LAYER
  2
10
 70
     0
 62
     7
  6
CONTINUOUS
  0
LAYER
  2
11
 70
     0
 62
     7
  6
CONTINUOUS
  0
LAYER
  2
12
 70
     0
 62
     7
  6
CONTINUOUS
  0
LAYER
  2
13
 70
     0
 62
     7
  6
CONTINUOUS
  0
LAYER
  2
14
 70
     0
 62
     7
  6
CONTINUOUS
  0
LAYER
  2
15
 70
     0
 62
     7
  6
CONTINUOUS
  0
LAYER
  2
16
 70
     0
 62
     7
  6
CONTINUOUS
  0
LAYER
  2
17
 70
     0
 62
     7
  6
CONTINUOUS
  0
LAYER
  2
18
 70
     0
 62
     7
  6
CONTINUOUS
  0
LAYER
  2
19
 70
     0
 62
     7
  6
CONTINUOUS
  0
LAYER
  2
20
 70
     0
 62
     7
  6
CONTINUOUS
  0
LAYER
  2
21
 70
     0
 62
     7
  6
CONTINUOUS
  0
LAYER
  2
22
 70
     0
 62
     7
  6
CONTINUOUS
  0
LAYER
  2
23
 70
     0
 62
     7
  6
CONTINUOUS
  0
LAYER
  2
24
 70
     0
 62
     7
  6
CONTINUOUS
  0
LAYER
  2
25
 70
     0
 62
     7
  6
CONTINUOUS
  0
LAYER
  2
26
 70
     0
 62
     7
  6
CONTINUOUS
  0
LAYER
  2
27
 70
     0
 62
     7
  6
CONTINUOUS
  0
LAYER
  2
28
 70
     0
 62
     7
  6
CONTINUOUS
  0
LAYER
  2
29
 70
     0
 62
     7
  6
CONTINUOUS
  0
LAYER
  2
30
 70
     0
 62
     7
  6
CONTINUOUS
  0
LAYER
  2
31
 70
     0
 62
     7
  6
CONTINUOUS
  0
ENDTAB
  0
ENDSEC
  0
SECTION
  2
ENTITIES
  0
ARC
  8
6
  6
CONTINUOUS
 62
6
 10
2.28791726487853
 20
14.9099497732176
 30
0.0
 40
0.31548316101305
 50
179.999999999991
 51
269.999999999991
  0
ARC
  8
6
  6
CONTINUOUS
 62
6
 10
2.28791726487853
 20
14.9099497732176
 30
0.0
 40
0.31548316101305
 50
269.99999999999
 51
359.99999999999
  0
ARC
  8
6
  6
CONTINUOUS
 62
6
 10
2.28791726487851
 20
14.9099497732176
 30
0.0
 40
0.315483161013074
 50
359.999999999994
 51
89.9999999999952
  0
ARC
  8
6
  6
CONTINUOUS
 62
6
 10
2.28791726487851
 20
14.9099497732176
 30
0.0
 40
0.315483161013024
 50
89.9999999999949
 51
179.999999999996
  0
ARC
  8
1
  6
CONTINUOUS
 62
1
 10
0.742917264878605
 20
14.4099497732177
 30
0.0
 40
0.1
 50
179.999999999999
 51
359.999999999999
  0
ARC
  8
1
  6
CONTINUOUS
 62
1
 10
0.742917264878607
 20
14.4099497732177
 30
0.0
 40
0.0999999999999979
 50
359.999999999997
 51
89.9999999999991
  0
ARC
  8
1
  6
CONTINUOUS
 62
1
 10
0.742917264878605
 20
14.4099497732177
 30
0.0
 40
0.100000000000001
 50
89.9999999999984
 51
179.999999999999
  0
ARC
  8
1
  6
CONTINUOUS
 62
1
 10
4.26792698638748
 20
14.4099914441638
 30
0.0
 40
0.100000000000001
 50
179.999999999999
 51
359.999999999999
  0
ARC
  8
1
  6
CONTINUOUS
 62
1
 10
4.26792698638748
 20
14.4099914441638
 30
0.0
 40
0.0999999999999995
 50
359.999999999998
 51
89.9999999999994
  0
ARC
  8
1
  6
CONTINUOUS
 62
1
 10
4.26792698638748
 20
14.4099914441638
 30
0.0
 40
0.100000000000001
 50
89.9999999999993
 51
180
  0
ARC
  8
1
  6
CONTINUOUS
 62
1
 10
0.742892271718265
 20
17.0769013658426
 30
0.0
 40
0.100000000000001
 50
179.999999999999
 51
359.999999999999
  0
ARC
  8
1
  6
CONTINUOUS
 62
1
 10
0.74289227171827
 20
17.0769013658426
 30
0.0
 40
0.0999999999999954
 50
4.64360983493673E-13
 51
90.000000000001
  0
ARC
  8
1
  6
CONTINUOUS
 62
1
 10
0.742892271718262
 20
17.0769013658426
 30
0.0
 40
0.0999999999999992
 50
89.9999999999967
 51
179.999999999997
  0
LINE
  8
1
  6
CONTINUOUS
 62
1
 10
5.00546384216918
 20
13.4934040832629
 30
0.0
 11
0.00546384216927398
 21
13.4934040832629
 31
0.0
  0
LINE
  8
1
  6
CONTINUOUS
 62
1
 10
5.00546384216918
 20
17.9934040832629
 30
0.0
 11
5.00546384216918
 21
13.4934040832629
 31
0.0
  0
LINE
  8
1
  6
CONTINUOUS
 62
1
 10
0.00546384216927376
 20
17.9934040832629
 30
0.0
 11
5.00546384216918
 21
17.9934040832629
 31
0.0
  0
LINE
  8
1
  6
CONTINUOUS
 62
1
 10
0.00546384216927398
 20
13.4934040832629
 30
0.0
 11
0.00546384216927398
 21
17.9934040832629
 31
0.0
  0
LINE
  8
6
  6
CONTINUOUS
 62
6
 10
2.00924493256208
 20
15.9855627340039
 30
0.0
 11
1.85174493256207
 21
15.5655627340039
 31
0.0
  0
LINE
  8
6
  6
CONTINUOUS
 62
6
 10
2.16674493256208
 20
15.5655627340039
 30
0.0
 11
2.00924493256208
 21
15.9855627340039
 31
0.0
  0
LINE
  8
6
  6
CONTINUOUS
 62
6
 10
2.10896492202837
 20
15.6555627340039
 30
0.0
 11
1.90952494309578
 21
15.6555627340039
 31
0.0
  0
LINE
  8
6
  6
CONTINUOUS
 62
6
 10
2.25674490444758
 20
15.9855627340039
 30
0.0
 11
2.19674493256208
 21
15.9855627340039
 31
0.0
  0
LINE
  8
6
  6
CONTINUOUS
 62
6
 10
2.31674490444758
 20
15.9855627340039
 30
0.0
 11
2.25674490444758
 21
15.9855627340039
 31
0.0
  0
LINE
  8
6
  6
CONTINUOUS
 62
6
 10
2.25674490444758
 20
15.5655627340039
 30
0.0
 11
2.25674490444758
 21
15.9855627340039
 31
0.0
  0
LINE
  8
6
  6
CONTINUOUS
 62
6
 10
2.25674490444758
 20
15.5655627340039
 30
0.0
 11
2.19674493256208
 21
15.5655627340039
 31
0.0
  0
LINE
  8
6
  6
CONTINUOUS
 62
6
 10
2.31674490444758
 20
15.5655627340039
 30
0.0
 11
2.25674490444758
 21
15.5655627340039
 31
0.0
  0
LINE
  8
6
  6
CONTINUOUS
 62
6
 10
2.34674490444758
 20
15.5655627340039
 30
0.0
 11
2.34674490444758
 21
15.9855627340039
 31
0.0
  0
LINE
  8
6
  6
CONTINUOUS
 62
6
 10
2.49914490444758
 20
15.9855627340039
 30
0.0
 11
2.36924490444758
 21
15.9855627340039
 31
0.0
  0
ARC
  8
6
  6
CONTINUOUS
 62
6
 10
2.49914490444755
 20
15.8805627340038
 30
0.0
 40
0.105000000000038
 50
359.995599999983
 51
89.9999999999864
  0
ARC
  8
6
  6
CONTINUOUS
 62
6
 10
2.49914490444759
 20
15.8805627340038
 30
0.0
 40
0.105000000000006
 50
269.991199999986
 51
359.995599999988
  0
LINE
  8
6
  6
CONTINUOUS
 62
6
 10
2.60414490444758
 20
15.5655627340039
 30
0.0
 11
2.49912877760534
 21
15.7755627352424
 31
0.0
  0
LINE
  8
6
  6
CONTINUOUS
 62
6
 10
2.49912870444758
 20
15.7755627340039
 30
0.0
 11
2.36924490444758
 21
15.7755627340039
 31
0.0
  0
ARC
  8
6
  6
CONTINUOUS
 62
6
 10
2.69202089065522
 20
10.7316835035459
 30
0.0
 40
0.3154831610131
 50
179.999999999991
 51
359.999999999991
  0
ARC
  8
6
  6
CONTINUOUS
 62
6
 10
2.69202089065517
 20
10.7316835035459
 30
0.0
 40
0.315483161013148
 50
359.99999999999
 51
89.999999999991
  0
ARC
  8
6
  6
CONTINUOUS
 62
6
 10
2.69202089065522
 20
10.731683503546
 30
0.0
 40
0.315483161013099
 50
89.9999999999995
 51
180
  0
ARC
  8
1
  6
CONTINUOUS
 62
1
 10
4.26702089065527
 20
9.91918350354595
 30
0.0
 40
0.100000000000049
 50
179.999999999999
 51
359.999999999999
  0
ARC
  8
1
  6
CONTINUOUS
 62
1
 10
4.26702089065529
 20
9.91918350354593
 30
0.0
 40
0.100000000000024
 50
1.37654406613741E-11
 51
90.0000000000143
  0
ARC
  8
1
  6
CONTINUOUS
 62
1
 10
4.26702089065524
 20
9.91918350354593
 30
0.0
 40
0.100000000000024
 50
89.9999999999853
 51
179.999999999986
  0
ARC
  8
1
  6
CONTINUOUS
 62
1
 10
0.742070890655219
 20
9.91918350354595
 30
0.0
 40
0.1
 50
179.999999999999
 51
359.999999999999
  0
ARC
  8
1
  6
CONTINUOUS
 62
1
 10
0.74207089065522
 20
9.91918350354595
 30
0.0
 40
0.0999999999999993
 50
359.999999999999
 51
90.0000000000002
  0
ARC
  8
1
  6
CONTINUOUS
 62
1
 10
0.742070890655218
 20
9.91918350354595
 30
0.0
 40
0.0999999999999994
 50
89.9999999999994
 51
180
  0
ARC
  8
1
  6
CONTINUOUS
 62
1
 10
4.26702089065521
 20
12.5861835035459
 30
0.0
 40
0.100000000000001
 50
179.999999999999
 51
359.999999999999
  0
ARC
  8
1
  6
CONTINUOUS
 62
1
 10
4.26702089065521
 20
12.586183503546
 30
0.0
 40
0.100000000000001
 50
359.999999999999
 51
90.0000000000001
  0
ARC
  8
1
  6
CONTINUOUS
 62
1
 10
4.26702089065521
 20
12.586183503546
 30
0.0
 40
0.1
 50
90
 51
180.000000000001
  0
LINE
  8
1
  6
CONTINUOUS
 62
1
 10
0.00452100857121929
 20
9.00269680392585
 30
0.0
 11
5.00452100857132
 21
9.00269680392585
 31
0.0
  0
LINE
  8
1
  6
CONTINUOUS
 62
1
 10
5.00452100857132
 20
9.00269680392585
 30
0.0
 11
5.00452100857132
 21
13.5026968039259
 31
0.0
  0
LINE
  8
1
  6
CONTINUOUS
 62
1
 10
5.00452100857132
 20
13.5026968039259
 30
0.0
 11
0.00452100857121929
 21
13.5026968039259
 31
0.0
  0
LINE
  8
1
  6
CONTINUOUS
 62
1
 10
0.00452100857121929
 20
13.5026968039259
 30
0.0
 11
0.00452100857121929
 21
9.00269680392585
 31
0.0
  0
LINE
  8
6
  6
CONTINUOUS
 62
6
 10
2.29621167817586
 20
11.7606694904435
 30
0.0
 11
2.29621167817586
 21
11.5506694904435
 31
0.0
  0
LINE
  8
6
  6
CONTINUOUS
 62
6
 10
2.29621167817586
 20
11.5506694904435
 30
0.0
 11
2.29621167817586
 21
11.3406694904434
 31
0.0
  0
LINE
  8
6
  6
CONTINUOUS
 62
6
 10
2.29621167817586
 20
11.5506694904435
 30
0.0
 11
2.55121167817586
 21
11.5506694904435
 31
0.0
  0
LINE
  8
6
  6
CONTINUOUS
 62
6
 10
2.55121167817586
 20
11.3406694904434
 30
0.0
 11
2.55121167817586
 21
11.5506694904435
 31
0.0
  0
LINE
  8
6
  6
CONTINUOUS
 62
6
 10
2.55121167817586
 20
11.5506694904435
 30
0.0
 11
2.55121167817586
 21
11.7606694904435
 31
0.0
  0
ARC
  8
6
  6
CONTINUOUS
 62
6
 10
2.69413474236211
 20
11.6406694904435
 30
0.0
 40
0.119999999999994
 50
89.9999999999994
 51
150.000000000002
  0
LINE
  8
6
  6
CONTINUOUS
 62
6
 10
2.69413474236211
 20
11.7606694904435
 30
0.0
 11
2.70345220236211
 21
11.7606694904435
 31
0.0
  0
ARC
  8
6
  6
CONTINUOUS
 62
6
 10
2.70345220236212
 20
11.6406694904435
 30
0.0
 40
0.119999999999987
 50
2.57598100000776
 51
90.0000000000078
  0
ARC
  8
6
  6
CONTINUOUS
 62
6
 10
2.70345216313005
 20
11.6514557802875
 30
0.0
 40
0.120000024838889
 50
317.775072177051
 51
357.424172177051
  0
ARC
  8
6
  6
CONTINUOUS
 62
6
 10
2.14363041443084
 20
12.3272502252774
 30
0.0
 40
0.99648924574968
 50
302.868972404098
 51
310.614672404098
  0
ARC
  8
6
  6
CONTINUOUS
 62
6
 10
2.78188926951076
 20
11.3126268283496
 30
0.0
 40
0.202627453864291
 50
118.744515028154
 51
172.045015028154
  0
LINE
  8
6
  6
CONTINUOUS
 62
6
 10
2.58121167817586
 20
11.3406694636671
 30
0.0
 11
2.83231168236211
 21
11.3406694904434
 31
0.0
  0
ARC
  8
6
  6
CONTINUOUS
 62
6
 10
3.0022002423621
 20
11.6357656904434
 30
0.0
 40
0.124903799999987
 50
93.442465277623
 51
164.097999999994
  0
ARC
  8
6
  6
CONTINUOUS
 62
6
 10
3.23648119123873
 20
11.5499883138946
 30
0.0
 40
0.374169560784316
 50
161.2941
 51
198.7059
  0
ARC
  8
6
  6
CONTINUOUS
 62
6
 10
3.00220011283628
 20
11.4642110046358
 30
0.0
 40
0.124903626714095
 50
195.902054741795
 51
266.557589464167
  0
ARC
  8
6
  6
CONTINUOUS
 62
6
 10
3.00220024236212
 20
11.4642111704434
 30
0.0
 40
0.12490379999999
 50
273.442465277623
 51
344.097999999993
  0
ARC
  8
6
  6
CONTINUOUS
 62
6
 10
2.76791931640011
 20
11.5499885392335
 30
0.0
 40
0.374169536591768
 50
341.294099999999
 51
18.7059000000007
  0
ARC
  8
6
  6
CONTINUOUS
 62
6
 10
3.00220042094111
 20
11.6357657638383
 30
0.0
 40
0.124903716014711
 50
15.902079748255
 51
86.557614470628
  0
ARC
  8
6
  6
CONTINUOUS
 62
6
 10
7.28642440126219
 20
14.9146374041796
 30
0.0
 40
0.31548316101305
 50
179.999999999991
 51
269.999999999991
  0
ARC
  8
6
  6
CONTINUOUS
 62
6
 10
7.28642440126219
 20
14.9146374041796
 30
0.0
 40
0.31548316101305
 50
269.99999999999
 51
359.99999999999
  0
ARC
  8
6
  6
CONTINUOUS
 62
6
 10
7.28642440126216
 20
14.9146374041796
 30
0.0
 40
0.315483161013073
 50
359.999999999995
 51
89.9999999999957
  0
ARC
  8
6
  6
CONTINUOUS
 62
6
 10
7.28642440126217
 20
14.9146374041797
 30
0.0
 40
0.315483161013022
 50
89.9999999999947
 51
179.999999999996
  0
ARC
  8
1
  6
CONTINUOUS
 62
1
 10
5.74142440126226
 20
14.4146374041797
 30
0.0
 40
0.1
 50
179.999999999999
 51
359.999999999999
  0
ARC
  8
1
  6
CONTINUOUS
 62
1
 10
5.74142440126226
 20
14.4146374041797
 30
0.0
 40
0.0999999999999971
 50
359.999999999998
 51
89.9999999999997
  0
ARC
  8
1
  6
CONTINUOUS
 62
1
 10
5.74142440126226
 20
14.4146374041797
 30
0.0
 40
0.100000000000001
 50
89.9999999999982
 51
179.999999999999
  0
ARC
  8
1
  6
CONTINUOUS
 62
1
 10
9.26643412277114
 20
14.4146790751258
 30
0.0
 40
0.0999999999999996
 50
179.999999999999
 51
359.999999999999
  0
ARC
  8
1
  6
CONTINUOUS
 62
1
 10
9.26643412277114
 20
14.4146790751258
 30
0.0
 40
0.0999999999999983
 50
359.999999999999
 51
89.9999999999996
  0
ARC
  8
1
  6
CONTINUOUS
 62
1
 10
9.26643412277114
 20
14.4146790751258
 30
0.0
 40
0.1
 50
89.999999999999
 51
180
  0
ARC
  8
1
  6
CONTINUOUS
 62
1
 10
5.74139940810192
 20
17.0815889968046
 30
0.0
 40
0.100000000000001
 50
179.999999999999
 51
359.999999999999
  0
ARC
  8
1
  6
CONTINUOUS
 62
1
 10
5.74139940810192
 20
17.0815889968046
 30
0.0
 40
0.0999999999999996
 50
359.999999999998
 51
89.9999999999993
  0
ARC
  8
1
  6
CONTINUOUS
 62
1
 10
5.74139940810192
 20
17.0815889968046
 30
0.0
 40
0.100000000000003
 50
89.9999999999986
 51
179.999999999999
  0
LINE
  8
1
  6
CONTINUOUS
 62
1
 10
10.0039709785528
 20
13.4980917142249
 30
0.0
 11
5.00397097855293
 21
13.4980917142249
 31
0.0
  0
LINE
  8
1
  6
CONTINUOUS
 62
1
 10
10.0039709785528
 20
17.9980917142249
 30
0.0
 11
10.0039709785528
 21
13.4980917142249
 31
0.0
  0
LINE
  8
1
  6
CONTINUOUS
 62
1
 10
5.00397097855293
 20
17.9980917142249
 30
0.0
 11
10.0039709785528
 21
17.9980917142249
 31
0.0
  0
LINE
  8
1
  6
CONTINUOUS
 62
1
 10
5.00397097855293
 20
13.4980917142249
 30
0.0
 11
5.00397097855293
 21
17.9980917142249
 31
0.0
  0
LINE
  8
6
  6
CONTINUOUS
 62
6
 10
7.00775206894574
 20
15.9902503649659
 30
0.0
 11
6.85025206894573
 21
15.5702503649659
 31
0.0
  0
LINE
  8
6
  6
CONTINUOUS
 62
6
 10
7.16525206894574
 20
15.5702503649659
 30
0.0
 11
7.00775206894574
 21
15.9902503649659
 31
0.0
  0
LINE
  8
6
  6
CONTINUOUS
 62
6
 10
7.10747205841203
 20
15.6602503649659
 30
0.0
 11
6.90803207947944
 21
15.6602503649659
 31
0.0
  0
LINE
  8
6
  6
CONTINUOUS
 62
6
 10
7.25525204083124
 20
15.9902503649659
 30
0.0
 11
7.19525206894574
 21
15.9902503649659
 31
0.0
  0
LINE
  8
6
  6
CONTINUOUS
 62
6
 10
7.31525204083124
 20
15.9902503649659
 30
0.0
 11
7.25525204083124
 21
15.9902503649659
 31
0.0
  0
LINE
  8
6
  6
CONTINUOUS
 62
6
 10
7.25525204083124
 20
15.5702503649659
 30
0.0
 11
7.25525204083124
 21
15.9902503649659
 31
0.0
  0
LINE
  8
6
  6
CONTINUOUS
 62
6
 10
7.25525204083124
 20
15.5702503649659
 30
0.0
 11
7.19525206894574
 21
15.5702503649659
 31
0.0
  0
LINE
  8
6
  6
CONTINUOUS
 62
6
 10
7.31525204083124
 20
15.5702503649659
 30
0.0
 11
7.25525204083124
 21
15.5702503649659
 31
0.0
  0
LINE
  8
6
  6
CONTINUOUS
 62
6
 10
7.34525204083124
 20
15.5702503649659
 30
0.0
 11
7.34525204083124
 21
15.9902503649659
 31
0.0
  0
LINE
  8
6
  6
CONTINUOUS
 62
6
 10
7.49765204083124
 20
15.9902503649659
 30
0.0
 11
7.36775204083124
 21
15.9902503649659
 31
0.0
  0
ARC
  8
6
  6
CONTINUOUS
 62
6
 10
7.4976520408312
 20
15.8852503649659
 30
0.0
 40
0.105000000000036
 50
359.995599999983
 51
89.9999999999866
  0
ARC
  8
6
  6
CONTINUOUS
 62
6
 10
7.49765204083124
 20
15.8852503649659
 30
0.0
 40
0.105000000000007
 50
269.991199999988
 51
359.99559999999
  0
LINE
  8
6
  6
CONTINUOUS
 62
6
 10
7.60265204083124
 20
15.5702503649659
 30
0.0
 11
7.497635913989
 21
15.7802503662044
 31
0.0
  0
LINE
  8
6
  6
CONTINUOUS
 62
6
 10
7.49763584083124
 20
15.7802503649659
 30
0.0
 11
7.36775204083124
 21
15.7802503649659
 31
0.0
  0
ARC
  8
6
  6
CONTINUOUS
 62
6
 10
7.69052802703888
 20
10.7363711345079
 30
0.0
 40
0.3154831610131
 50
179.999999999991
 51
359.999999999991
  0
ARC
  8
6
  6
CONTINUOUS
 62
6
 10
7.69052802703883
 20
10.736371134508
 30
0.0
 40
0.315483161013148
 50
359.99999999999
 51
89.999999999991
  0
ARC
  8
6
  6
CONTINUOUS
 62
6
 10
7.69052802703887
 20
10.736371134508
 30
0.0
 40
0.315483161013099
 50
89.9999999999995
 51
180
  0
ARC
  8
1
  6
CONTINUOUS
 62
1
 10
9.26552802703893
 20
9.92387113450795
 30
0.0
 40
0.10000000000005
 50
179.999999999999
 51
359.999999999999
  0
ARC
  8
1
  6
CONTINUOUS
 62
1
 10
9.26552802703898
 20
9.9238711345079
 30
0.0
 40
0.1
 50
2.85232143833648E-11
 51
90.0000000000291
  0
ARC
  8
1
  6
CONTINUOUS
 62
1
 10
9.26552802703888
 20
9.9238711345079
 30
0.0
 40
0.0999999999999992
 50
89.999999999971
 51
179.999999999972
  0
ARC
  8
1
  6
CONTINUOUS
 62
1
 10
5.74057802703888
 20
9.92387113450795
 30
0.0
 40
0.0999999999999996
 50
179.999999999999
 51
359.999999999999
  0
ARC
  8
1
  6
CONTINUOUS
 62
1
 10
5.7405780270389
 20
9.92387113450792
 30
0.0
 40
0.0999999999999743
 50
1.37654406613741E-11
 51
90.0000000000143
  0
ARC
  8
1
  6
CONTINUOUS
 62
1
 10
5.74057802703885
 20
9.92387113450792
 30
0.0
 40
0.0999999999999743
 50
89.9999999999853
 51
179.999999999986
  0
ARC
  8
1
  6
CONTINUOUS
 62
1
 10
9.26552802703887
 20
12.590871134508
 30
0.0
 40
0.0999999999999996
 50
179.999999999999
 51
359.999999999999
  0
ARC
  8
1
  6
CONTINUOUS
 62
1
 10
9.26552802703887
 20
12.590871134508
 30
0.0
 40
0.1
 50
2.54444374517081E-14
 51
90.0000000000006
  0
ARC
  8
1
  6
CONTINUOUS
 62
1
 10
9.26552802703887
 20
12.590871134508
 30
0.0
 40
0.0999999999999983
 50
90
 51
180.000000000001
  0
LINE
  8
1
  6
CONTINUOUS
 62
1
 10
5.00302814495488
 20
9.00738443488785
 30
0.0
 11
10.003028144955
 21
9.00738443488785
 31
0.0
  0
LINE
  8
1
  6
CONTINUOUS
 62
1
 10
10.003028144955
 20
9.00738443488785
 30
0.0
 11
10.003028144955
 21
13.5073844348879
 31
0.0
  0
LINE
  8
1
  6
CONTINUOUS
 62
1
 10
10.003028144955
 20
13.5073844348879
 30
0.0
 11
5.00302814495488
 21
13.5073844348879
 31
0.0
  0
LINE
  8
1
  6
CONTINUOUS
 62
1
 10
5.00302814495488
 20
13.5073844348879
 30
0.0
 11
5.00302814495488
 21
9.00738443488785
 31
0.0
  0
LINE
  8
6
  6
CONTINUOUS
 62
6
 10
7.29471881455952
 20
11.7653571214055
 30
0.0
 11
7.29471881455952
 21
11.5553571214055
 31
0.0
  0
LINE
  8
6
  6
CONTINUOUS
 62
6
 10
7.29471881455952
 20
11.5553571214055
 30
0.0
 11
7.29471881455952
 21
11.3453571214054
 31
0.0
  0
LINE
  8
6
  6
CONTINUOUS
 62
6
 10
7.29471881455952
 20
11.5553571214055
 30
0.0
 11
7.54971881455952
 21
11.5553571214055
 31
0.0
  0
LINE
  8
6
  6
CONTINUOUS
 62
6
 10
7.54971881455952
 20
11.3453571214054
 30
0.0
 11
7.54971881455952
 21
11.5553571214055
 31
0.0
  0
LINE
  8
6
  6
CONTINUOUS
 62
6
 10
7.54971881455952
 20
11.5553571214055
 30
0.0
 11
7.54971881455952
 21
11.7653571214055
 31
0.0
  0
ARC
  8
6
  6
CONTINUOUS
 62
6
 10
7.69264187874576
 20
11.6453571214055
 30
0.0
 40
0.119999999999992
 50
89.9999999999988
 51
150.000000000001
  0
LINE
  8
6
  6
CONTINUOUS
 62
6
 10
7.69264187874577
 20
11.7653571214055
 30
0.0
 11
7.70195933874577
 21
11.7653571214055
 31
0.0
  0
ARC
  8
6
  6
CONTINUOUS
 62
6
 10
7.70195933874577
 20
11.6453571214055
 30
0.0
 40
0.119999999999986
 50
2.57598100000832
 51
90.0000000000083
  0
ARC
  8
6
  6
CONTINUOUS
 62
6
 10
7.70195929951371
 20
11.6561434112496
 30
0.0
 40
0.120000024838889
 50
317.775072177051
 51
357.424172177051
  0
ARC
  8
6
  6
CONTINUOUS
 62
6
 10
7.14213755081451
 20
12.3319378562395
 30
0.0
 40
0.996489245749675
 50
302.868972404098
 51
310.614672404097
  0
ARC
  8
6
  6
CONTINUOUS
 62
6
 10
7.78039640589442
 20
11.3173144593117
 30
0.0
 40
0.202627453864293
 50
118.744515028155
 51
172.045015028155
  0
LINE
  8
6
  6
CONTINUOUS
 62
6
 10
7.57971881455952
 20
11.3453570946291
 30
0.0
 11
7.83081881874577
 21
11.3453571214054
 31
0.0
  0
ARC
  8
6
  6
CONTINUOUS
 62
6
 10
8.00070737874575
 20
11.6404533214055
 30
0.0
 40
0.124903799999987
 50
93.4424652776225
 51
164.097999999994
  0
ARC
  8
6
  6
CONTINUOUS
 62
6
 10
8.23498832762239
 20
11.5546759448566
 30
0.0
 40
0.374169560784319
 50
161.2941
 51
198.7059
  0
ARC
  8
6
  6
CONTINUOUS
 62
6
 10
8.00070724921993
 20
11.4688986355978
 30
0.0
 40
0.124903626714093
 50
195.902054741795
 51
266.557589464167
  0
ARC
  8
6
  6
CONTINUOUS
 62
6
 10
8.00070737874578
 20
11.4688988014054
 30
0.0
 40
0.12490379999999
 50
273.442465277623
 51
344.097999999993
  0
ARC
  8
6
  6
CONTINUOUS
 62
6
 10
7.76642645278377
 20
11.5546761701955
 30
0.0
 40
0.374169536591768
 50
341.294099999999
 51
18.7059000000007
  0
ARC
  8
6
  6
CONTINUOUS
 62
6
 10
8.00070755732477
 20
11.6404533948003
 30
0.0
 40
0.124903716014711
 50
15.9020797482558
 51
86.5576144706288
  0
ARC
  8
6
  6
CONTINUOUS
 62
6
 10
12.2879880783578
 20
14.9146374041796
 30
0.0
 40
0.31548316101305
 50
179.999999999991
 51
269.999999999991
  0
ARC
  8
6
  6
CONTINUOUS
 62
6
 10
12.2879880783578
 20
14.9146374041796
 30
0.0
 40
0.31548316101305
 50
269.99999999999
 51
359.99999999999
  0
ARC
  8
6
  6
CONTINUOUS
 62
6
 10
12.2879880783577
 20
14.9146374041796
 30
0.0
 40
0.315483161013073
 50
359.999999999995
 51
89.9999999999957
  0
ARC
  8
6
  6
CONTINUOUS
 62
6
 10
12.2879880783577
 20
14.9146374041797
 30
0.0
 40
0.315483161013022
 50
89.9999999999947
 51
179.999999999996
  0
ARC
  8
1
  6
CONTINUOUS
 62
1
 10
10.7429880783578
 20
14.4146374041797
 30
0.0
 40
0.100000000000001
 50
179.999999999999
 51
359.999999999999
  0
ARC
  8
1
  6
CONTINUOUS
 62
1
 10
10.7429880783578
 20
14.4146374041797
 30
0.0
 40
0.0999999999999976
 50
359.999999999998
 51
90
  0
ARC
  8
1
  6
CONTINUOUS
 62
1
 10
10.7429880783578
 20
14.4146374041797
 30
0.0
 40
0.100000000000002
 50
89.999999999998
 51
179.999999999999
  0
ARC
  8
1
  6
CONTINUOUS
 62
1
 10
14.2679977998667
 20
14.4146790751258
 30
0.0
 40
0.0999999999999996
 50
179.999999999999
 51
359.999999999999
  0
ARC
  8
1
  6
CONTINUOUS
 62
1
 10
14.2679977998667
 20
14.4146790751258
 30
0.0
 40
0.0999999999999983
 50
359.999999999999
 51
89.9999999999996
  0
ARC
  8
1
  6
CONTINUOUS
 62
1
 10
14.2679977998667
 20
14.4146790751258
 30
0.0
 40
0.1
 50
89.999999999999
 51
180
  0
ARC
  8
1
  6
CONTINUOUS
 62
1
 10
10.7429630851975
 20
17.0815889968046
 30
0.0
 40
0.100000000000001
 50
179.999999999999
 51
359.999999999999
  0
ARC
  8
1
  6
CONTINUOUS
 62
1
 10
10.7429630851975
 20
17.0815889968046
 30
0.0
 40
0.0999999999999992
 50
359.999999999998
 51
89.9999999999991
  0
ARC
  8
1
  6
CONTINUOUS
 62
1
 10
10.7429630851975
 20
17.0815889968046
 30
0.0
 40
0.100000000000003
 50
89.9999999999986
 51
179.999999999999
  0
LINE
  8
1
  6
CONTINUOUS
 62
1
 10
15.0055346556484
 20
13.4980917142249
 30
0.0
 11
10.0055346556485
 21
13.4980917142249
 31
0.0
  0
LINE
  8
1
  6
CONTINUOUS
 62
1
 10
15.0055346556484
 20
17.9980917142249
 30
0.0
 11
15.0055346556484
 21
13.4980917142249
 31
0.0
  0
LINE
  8
1
  6
CONTINUOUS
 62
1
 10
10.0055346556485
 20
17.9980917142249
 30
0.0
 11
15.0055346556484
 21
17.9980917142249
 31
0.0
  0
LINE
  8
1
  6
CONTINUOUS
 62
1
 10
10.0055346556485
 20
13.4980917142249
 30
0.0
 11
10.0055346556485
 21
17.9980917142249
 31
0.0
  0
LINE
  8
6
  6
CONTINUOUS
 62
6
 10
12.0093157460413
 20
15.9902503649659
 30
0.0
 11
11.8518157460413
 21
15.5702503649659
 31
0.0
  0
LINE
  8
6
  6
CONTINUOUS
 62
6
 10
12.1668157460413
 20
15.5702503649659
 30
0.0
 11
12.0093157460413
 21
15.9902503649659
 31
0.0
  0
LINE
  8
6
  6
CONTINUOUS
 62
6
 10
12.1090357355076
 20
15.6602503649659
 30
0.0
 11
11.909595756575
 21
15.6602503649659
 31
0.0
  0
LINE
  8
6
  6
CONTINUOUS
 62
6
 10
12.2568157179268
 20
15.9902503649659
 30
0.0
 11
12.1968157460413
 21
15.9902503649659
 31
0.0
  0
LINE
  8
6
  6
CONTINUOUS
 62
6
 10
12.3168157179268
 20
15.9902503649659
 30
0.0
 11
12.2568157179268
 21
15.9902503649659
 31
0.0
  0
LINE
  8
6
  6
CONTINUOUS
 62
6
 10
12.2568157179268
 20
15.5702503649659
 30
0.0
 11
12.2568157179268
 21
15.9902503649659
 31
0.0
  0
LINE
  8
6
  6
CONTINUOUS
 62
6
 10
12.2568157179268
 20
15.5702503649659
 30
0.0
 11
12.1968157460413
 21
15.5702503649659
 31
0.0
  0
LINE
  8
6
  6
CONTINUOUS
 62
6
 10
12.3168157179268
 20
15.5702503649659
 30
0.0
 11
12.2568157179268
 21
15.5702503649659
 31
0.0
  0
LINE
  8
6
  6
CONTINUOUS
 62
6
 10
12.3468157179268
 20
15.5702503649659
 30
0.0
 11
12.3468157179268
 21
15.9902503649659
 31
0.0
  0
LINE
  8
6
  6
CONTINUOUS
 62
6
 10
12.4992157179268
 20
15.9902503649659
 30
0.0
 11
12.3693157179268
 21
15.9902503649659
 31
0.0
  0
ARC
  8
6
  6
CONTINUOUS
 62
6
 10
12.4992157179268
 20
15.8852503649659
 30
0.0
 40
0.105000000000036
 50
359.995599999983
 51
89.9999999999866
  0
ARC
  8
6
  6
CONTINUOUS
 62
6
 10
12.4992157179268
 20
15.8852503649659
 30
0.0
 40
0.105000000000007
 50
269.991199999988
 51
359.99559999999
  0
LINE
  8
6
  6
CONTINUOUS
 62
6
 10
12.6042157179268
 20
15.5702503649659
 30
0.0
 11
12.4991995910846
 21
15.7802503662044
 31
0.0
  0
LINE
  8
6
  6
CONTINUOUS
 62
6
 10
12.4991995179268
 20
15.7802503649659
 30
0.0
 11
12.3693157179268
 21
15.7802503649659
 31
0.0
  0
ARC
  8
6
  6
CONTINUOUS
 62
6
 10
12.6920917041344
 20
10.7363711345079
 30
0.0
 40
0.3154831610131
 50
179.999999999991
 51
359.999999999991
  0
ARC
  8
6
  6
CONTINUOUS
 62
6
 10
12.6920917041344
 20
10.736371134508
 30
0.0
 40
0.315483161013148
 50
359.99999999999
 51
89.999999999991
  0
ARC
  8
6
  6
CONTINUOUS
 62
6
 10
12.6920917041344
 20
10.736371134508
 30
0.0
 40
0.315483161013099
 50
89.9999999999995
 51
180
  0
ARC
  8
1
  6
CONTINUOUS
 62
1
 10
14.2670917041345
 20
9.92387113450795
 30
0.0
 40
0.10000000000005
 50
179.999999999999
 51
359.999999999999
  0
ARC
  8
1
  6
CONTINUOUS
 62
1
 10
14.2670917041345
 20
9.9238711345079
 30
0.0
 40
0.1
 50
2.85232143833648E-11
 51
90.0000000000291
  0
ARC
  8
1
  6
CONTINUOUS
 62
1
 10
14.2670917041344
 20
9.9238711345079
 30
0.0
 40
0.0999999999999992
 50
89.999999999971
 51
179.999999999972
  0
ARC
  8
1
  6
CONTINUOUS
 62
1
 10
10.7421417041344
 20
9.92387113450795
 30
0.0
 40
0.0999999999999996
 50
179.999999999999
 51
359.999999999999
  0
ARC
  8
1
  6
CONTINUOUS
 62
1
 10
10.7421417041345
 20
9.92387113450792
 30
0.0
 40
0.0999999999999743
 50
1.37654406613741E-11
 51
90.0000000000143
  0
ARC
  8
1
  6
CONTINUOUS
 62
1
 10
10.7421417041344
 20
9.92387113450792
 30
0.0
 40
0.0999999999999743
 50
89.9999999999853
 51
179.999999999986
  0
ARC
  8
1
  6
CONTINUOUS
 62
1
 10
14.2670917041344
 20
12.590871134508
 30
0.0
 40
0.0999999999999996
 50
179.999999999999
 51
359.999999999999
  0
ARC
  8
1
  6
CONTINUOUS
 62
1
 10
14.2670917041344
 20
12.590871134508
 30
0.0
 40
0.1
 50
2.54444374517081E-14
 51
90.0000000000006
  0
ARC
  8
1
  6
CONTINUOUS
 62
1
 10
14.2670917041344
 20
12.590871134508
 30
0.0
 40
0.0999999999999983
 50
90
 51
180.000000000001
  0
LINE
  8
1
  6
CONTINUOUS
 62
1
 10
10.0045918220504
 20
9.00738443488785
 30
0.0
 11
15.0045918220505
 21
9.00738443488785
 31
0.0
  0
LINE
  8
1
  6
CONTINUOUS
 62
1
 10
15.0045918220505
 20
9.00738443488785
 30
0.0
 11
15.0045918220505
 21
13.5073844348879
 31
0.0
  0
LINE
  8
1
  6
CONTINUOUS
 62
1
 10
15.0045918220505
 20
13.5073844348879
 30
0.0
 11
10.0045918220504
 21
13.5073844348879
 31
0.0
  0
LINE
  8
1
  6
CONTINUOUS
 62
1
 10
10.0045918220504
 20
13.5073844348879
 30
0.0
 11
10.0045918220504
 21
9.00738443488785
 31
0.0
  0
LINE
  8
6
  6
CONTINUOUS
 62
6
 10
12.2962824916551
 20
11.7653571214055
 30
0.0
 11
12.2962824916551
 21
11.5553571214055
 31
0.0
  0
LINE
  8
6
  6
CONTINUOUS
 62
6
 10
12.2962824916551
 20
11.5553571214055
 30
0.0
 11
12.2962824916551
 21
11.3453571214054
 31
0.0
  0
LINE
  8
6
  6
CONTINUOUS
 62
6
 10
12.2962824916551
 20
11.5553571214055
 30
0.0
 11
12.5512824916551
 21
11.5553571214055
 31
0.0
  0
LINE
  8
6
  6
CONTINUOUS
 62
6
 10
12.5512824916551
 20
11.3453571214054
 30
0.0
 11
12.5512824916551
 21
11.5553571214055
 31
0.0
  0
LINE
  8
6
  6
CONTINUOUS
 62
6
 10
12.5512824916551
 20
11.5553571214055
 30
0.0
 11
12.5512824916551
 21
11.7653571214055
 31
0.0
  0
ARC
  8
6
  6
CONTINUOUS
 62
6
 10
12.6942055558413
 20
11.6453571214055
 30
0.0
 40
0.119999999999992
 50
89.9999999999988
 51
150.000000000001
  0
LINE
  8
6
  6
CONTINUOUS
 62
6
 10
12.6942055558413
 20
11.7653571214055
 30
0.0
 11
12.7035230158413
 21
11.7653571214055
 31
0.0
  0
ARC
  8
6
  6
CONTINUOUS
 62
6
 10
12.7035230158413
 20
11.6453571214055
 30
0.0
 40
0.119999999999987
 50
2.57598100000853
 51
90.0000000000085
  0
ARC
  8
6
  6
CONTINUOUS
 62
6
 10
12.7035229766093
 20
11.6561434112496
 30
0.0
 40
0.120000024838889
 50
317.775072177051
 51
357.424172177051
  0
ARC
  8
6
  6
CONTINUOUS
 62
6
 10
12.1437012279101
 20
12.3319378562395
 30
0.0
 40
0.996489245749675
 50
302.868972404098
 51
310.614672404097
  0
ARC
  8
6
  6
CONTINUOUS
 62
6
 10
12.78196008299
 20
11.3173144593117
 30
0.0
 40
0.202627453864293
 50
118.744515028155
 51
172.045015028155
  0
LINE
  8
6
  6
CONTINUOUS
 62
6
 10
12.5812824916551
 20
11.3453570946291
 30
0.0
 11
12.8323824958413
 21
11.3453571214054
 31
0.0
  0
ARC
  8
6
  6
CONTINUOUS
 62
6
 10
13.0022710558413
 20
11.6404533214055
 30
0.0
 40
0.124903799999985
 50
93.4424652776229
 51
164.097999999994
  0
ARC
  8
6
  6
CONTINUOUS
 62
6
 10
13.236552004718
 20
11.5546759448566
 30
0.0
 40
0.374169560784319
 50
161.2941
 51
198.7059
  0
ARC
  8
6
  6
CONTINUOUS
 62
6
 10
13.0022709263155
 20
11.4688986355978
 30
0.0
 40
0.124903626714093
 50
195.902054741795
 51
266.557589464167
  0
ARC
  8
6
  6
CONTINUOUS
 62
6
 10
13.0022710558413
 20
11.4688988014054
 30
0.0
 40
0.12490379999999
 50
273.442465277623
 51
344.097999999993
  0
ARC
  8
6
  6
CONTINUOUS
 62
6
 10
12.7679901298793
 20
11.5546761701955
 30
0.0
 40
0.374169536591768
 50
341.294099999999
 51
18.7059000000007
  0
ARC
  8
6
  6
CONTINUOUS
 62
6
 10
13.0022712344203
 20
11.6404533948003
 30
0.0
 40
0.124903716014711
 50
15.9020797482558
 51
86.5576144706288
  0
ENDSEC
  0
EOF
