<?xml version="1.0" encoding="UTF-8" standalone="no"?>
<!-- Created with Inkscape (http://www.inkscape.org/) -->

<svg
   xmlns:dc="http://purl.org/dc/elements/1.1/"
   xmlns:cc="http://creativecommons.org/ns#"
   xmlns:rdf="http://www.w3.org/1999/02/22-rdf-syntax-ns#"
   xmlns:svg="http://www.w3.org/2000/svg"
   xmlns="http://www.w3.org/2000/svg"
   xmlns:sodipodi="http://sodipodi.sourceforge.net/DTD/sodipodi-0.dtd"
   xmlns:inkscape="http://www.inkscape.org/namespaces/inkscape"
   width="744.09448819"
   height="1052.3622047"
   id="svg2"
   version="1.1"
   inkscape:version="0.48.3.1 r9886"
   sodipodi:docname="drawing.svg">
  <defs
     id="defs4" />
  <sodipodi:namedview
     id="base"
     pagecolor="#ffffff"
     bordercolor="#666666"
     borderopacity="1.0"
     inkscape:pageopacity="0.0"
     inkscape:pageshadow="2"
     inkscape:zoom="1.4"
     inkscape:cx="455.56493"
     inkscape:cy="643.36605"
     inkscape:document-units="px"
     inkscape:current-layer="layer1"
     showgrid="false"
     inkscape:window-width="2495"
     inkscape:window-height="1416"
     inkscape:window-x="65"
     inkscape:window-y="24"
     inkscape:window-maximized="1" />
  <metadata
     id="metadata7">
    <rdf:RDF>
      <cc:Work
         rdf:about="">
        <dc:format>image/svg+xml</dc:format>
        <dc:type
           rdf:resource="http://purl.org/dc/dcmitype/StillImage" />
        <dc:title></dc:title>
      </cc:Work>
    </rdf:RDF>
  </metadata>
  <g
     inkscape:label="Layer 1"
     inkscape:groupmode="layer"
     id="layer1">
    <g
       id="g3787"
       transform="translate(-27.31212,-890.33668)"
       style="stroke-width:0.00708661000000000;stroke-miterlimit:4;stroke-dasharray:none;stroke:#ff0000;stroke-opacity:1">
      <g
         transform="translate(-149.28571,360.7143)"
         id="g3771"
         style="stroke-width:0.00708661000000000;stroke-miterlimit:4;stroke-dasharray:none;stroke:#ff0000;stroke-opacity:1">
        <rect
           style="fill:none;stroke:#ff0000;stroke-width:0.00708661000000000;stroke-miterlimit:4;stroke-opacity:1;stroke-dasharray:none;stroke-dashoffset:0"
           id="rect3755"
           width="107.99835"
           height="107.99944"
           x="195"
           y="583.64844" />
        <g
           id="g3765"
           transform="translate(202.87539,-368.59026)"
           style="stroke-width:0.00708661000000000;stroke-miterlimit:4;stroke-dasharray:none;stroke:#ff0000;stroke-opacity:1">
          <path
             transform="matrix(0.65610786,0,0,0.65610786,-115.75617,1007.6967)"
             d="m 193.57143,59.505039 c 0,4.733869 -3.83756,8.571429 -8.57143,8.571429 -4.73387,0 -8.57143,-3.83756 -8.57143,-8.571429 0,-4.733869 3.83756,-8.571428 8.57143,-8.571428 4.73387,0 8.57143,3.837559 8.57143,8.571428 z"
             sodipodi:ry="8.5714283"
             sodipodi:rx="8.5714283"
             sodipodi:cy="59.505039"
             sodipodi:cx="185"
             id="path3757"
             style="fill:none;stroke:#ff0000;stroke-width:0.01080098000000000;stroke-miterlimit:4;stroke-opacity:1;stroke-dasharray:none;stroke-dashoffset:0"
             sodipodi:type="arc" />
          <path
             sodipodi:type="arc"
             style="fill:none;stroke:#ff0000;stroke-width:0.01080098000000000;stroke-miterlimit:4;stroke-opacity:1;stroke-dasharray:none;stroke-dashoffset:0"
             id="path3759"
             sodipodi:cx="185"
             sodipodi:cy="59.505039"
             sodipodi:rx="8.5714283"
             sodipodi:ry="8.5714283"
             d="m 193.57143,59.505039 c 0,4.733869 -3.83756,8.571429 -8.57143,8.571429 -4.73387,0 -8.57143,-3.83756 -8.57143,-8.571429 0,-4.733869 3.83756,-8.571428 8.57143,-8.571428 4.73387,0 8.57143,3.837559 8.57143,8.571428 z"
             transform="matrix(0.65610786,0,0,0.65610786,-34.756173,1007.6967)" />
          <path
             sodipodi:type="arc"
             style="fill:none;stroke:#ff0000;stroke-width:0.01080098000000000;stroke-miterlimit:4;stroke-opacity:1;stroke-dasharray:none;stroke-dashoffset:0"
             id="path3761"
             sodipodi:cx="185"
             sodipodi:cy="59.505039"
             sodipodi:rx="8.5714283"
             sodipodi:ry="8.5714283"
             d="m 193.57143,59.505039 c 0,4.733869 -3.83756,8.571429 -8.57143,8.571429 -4.73387,0 -8.57143,-3.83756 -8.57143,-8.571429 0,-4.733869 3.83756,-8.571428 8.57143,-8.571428 4.73387,0 8.57143,3.837559 8.57143,8.571428 z"
             transform="matrix(0.65610786,0,0,0.65610786,-115.75617,926.69668)" />
          <path
             transform="matrix(0.65610786,0,0,0.65610786,-34.756173,926.69668)"
             d="m 193.57143,59.505039 c 0,4.733869 -3.83756,8.571429 -8.57143,8.571429 -4.73387,0 -8.57143,-3.83756 -8.57143,-8.571429 0,-4.733869 3.83756,-8.571428 8.57143,-8.571428 4.73387,0 8.57143,3.837559 8.57143,8.571428 z"
             sodipodi:ry="8.5714283"
             sodipodi:rx="8.5714283"
             sodipodi:cy="59.505039"
             sodipodi:cx="185"
             id="path3763"
             style="fill:none;stroke:#ff0000;stroke-width:0.01080098000000000;stroke-miterlimit:4;stroke-opacity:1;stroke-dasharray:none;stroke-dashoffset:0"
             sodipodi:type="arc" />
        </g>
      </g>
      <g
         transform="translate(77.125516,0)"
         id="g3783"
         style="stroke-width:0.00708661000000000;stroke-miterlimit:4;stroke-dasharray:none;stroke:#ff0000;stroke-opacity:1">
        <rect
           style="fill:none;stroke:#ff0000;stroke-width:0.00708661000000000;stroke-miterlimit:4;stroke-opacity:1;stroke-dasharray:none;stroke-dashoffset:0"
           id="rect3779"
           width="45.1759"
           height="10.625344"
           x="0"
           y="1027.5636" />
        <rect
           y="988.5708"
           x="0"
           height="28.358284"
           width="45.1759"
           id="rect3781"
           style="fill:none;stroke:#ff0000;stroke-width:0.00708661000000000;stroke-miterlimit:4;stroke-opacity:1;stroke-dasharray:none;stroke-dashoffset:0" />
      </g>
    </g>
    <g
       id="g3857"
       transform="translate(48.57142,-888.57142)"
       style="stroke-width:0.00708661000000000;stroke-miterlimit:4;stroke-dasharray:none;stroke:#ff0000;stroke-opacity:1">
      <g
         id="g3847"
         style="stroke-width:0.00708661000000000;stroke-miterlimit:4;stroke-dasharray:none;stroke:#ff0000;stroke-opacity:1">
        <rect
           y="942.84753"
           x="117.93531"
           height="107.99944"
           width="107.99835"
           id="rect3803"
           style="fill:none;stroke:#ff0000;stroke-width:0.00708661000000000;stroke-miterlimit:4;stroke-opacity:1;stroke-dasharray:none;stroke-dashoffset:0" />
        <rect
           y="951.84631"
           x="148.90205"
           height="90.001846"
           width="46.064865"
           id="rect3833"
           style="fill:none;stroke:#ff0000;stroke-width:0.00708661000000000;stroke-miterlimit:4;stroke-opacity:1;stroke-dasharray:none;stroke-dashoffset:0" />
      </g>
      <g
         transform="translate(121.69116,-5.2698956)"
         id="g3851"
         style="stroke-width:0.00708661000000000;stroke-miterlimit:4;stroke-dasharray:none;stroke:#ff0000;stroke-opacity:1">
        <path
           sodipodi:type="arc"
           style="fill:none;stroke:#ff0000;stroke-width:0.00712548000000000;stroke-miterlimit:4;stroke-opacity:1;stroke-dasharray:none;stroke-dashoffset:0"
           id="path3821"
           sodipodi:cx="166.25848"
           sodipodi:cy="982.5354"
           sodipodi:rx="12.462767"
           sodipodi:ry="7.7024131"
           d="m 178.72125,982.5354 c 0,4.25393 -5.57977,7.70241 -12.46277,7.70241 -6.88299,0 -12.46276,-3.44848 -12.46276,-7.70241 0,-4.25392 5.57977,-7.70241 12.46276,-7.70241 6.883,0 12.46277,3.44849 12.46277,7.70241 z"
           transform="matrix(0.78179441,0,0,1.2651924,-120.23663,-200.47917)" />
        <path
           transform="matrix(0.78179441,0,0,1.2651924,-39.236632,-200.47917)"
           d="m 178.72125,982.5354 c 0,4.25393 -5.57977,7.70241 -12.46277,7.70241 -6.88299,0 -12.46276,-3.44848 -12.46276,-7.70241 0,-4.25392 5.57977,-7.70241 12.46276,-7.70241 6.883,0 12.46277,3.44849 12.46277,7.70241 z"
           sodipodi:ry="7.7024131"
           sodipodi:rx="12.462767"
           sodipodi:cy="982.5354"
           sodipodi:cx="166.25848"
           id="path3835"
           style="fill:none;stroke:#ff0000;stroke-width:0.00712548000000000;stroke-miterlimit:4;stroke-opacity:1;stroke-dasharray:none;stroke-dashoffset:0"
           sodipodi:type="arc" />
        <path
           transform="matrix(0.78179441,0,0,1.2651924,-120.23663,-281.47917)"
           d="m 178.72125,982.5354 c 0,4.25393 -5.57977,7.70241 -12.46277,7.70241 -6.88299,0 -12.46276,-3.44848 -12.46276,-7.70241 0,-4.25392 5.57977,-7.70241 12.46276,-7.70241 6.883,0 12.46277,3.44849 12.46277,7.70241 z"
           sodipodi:ry="7.7024131"
           sodipodi:rx="12.462767"
           sodipodi:cy="982.5354"
           sodipodi:cx="166.25848"
           id="path3837"
           style="fill:none;stroke:#ff0000;stroke-width:0.00712548000000000;stroke-miterlimit:4;stroke-opacity:1;stroke-dasharray:none;stroke-dashoffset:0"
           sodipodi:type="arc" />
        <path
           sodipodi:type="arc"
           style="fill:none;stroke:#ff0000;stroke-width:0.00712548000000000;stroke-miterlimit:4;stroke-opacity:1;stroke-dasharray:none;stroke-dashoffset:0"
           id="path3839"
           sodipodi:cx="166.25848"
           sodipodi:cy="982.5354"
           sodipodi:rx="12.462767"
           sodipodi:ry="7.7024131"
           d="m 178.72125,982.5354 c 0,4.25393 -5.57977,7.70241 -12.46277,7.70241 -6.88299,0 -12.46276,-3.44848 -12.46276,-7.70241 0,-4.25392 5.57977,-7.70241 12.46276,-7.70241 6.883,0 12.46277,3.44849 12.46277,7.70241 z"
           transform="matrix(0.78179441,0,0,1.2651924,-39.236632,-281.47917)" />
      </g>
    </g>
  </g>
</svg>
