  0
SECTION
  2
HEADER
  9
$ACADVER
  1
AC1003
  9
$EXTMIN
 10
0.0136576853260397
 20
17.9736120519978
  9
$EXTMAX
 10
18.513657685326
 20
5.47361205199784
  9
$INSBASE
 10
9.26365768532604
 20
11.7236120519978
999
Created with OMAX Layout for Windows. (http://www.omax.com) 9/25/2012
  0
ENDSEC
  0
SECTION
  2
TABLES
  0
TABLE
  2
LAYER
 70
    10
  0
LAYER
  2
0
 70
     0
 62
     7
  6
CONTINUOUS
  0
LAYER
  2
1
 70
     0
 62
     7
  6
CONTINUOUS
  0
LAYER
  2
2
 70
     0
 62
     7
  6
CONTINUOUS
  0
LAYER
  2
3
 70
     0
 62
     7
  6
CONTINUOUS
  0
LAYER
  2
4
 70
     0
 62
     7
  6
CONTINUOUS
  0
LAYER
  2
5
 70
     0
 62
     7
  6
CONTINUOUS
  0
LAYER
  2
6
 70
     0
 62
     7
  6
CONTINUOUS
  0
LAYER
  2
7
 70
     0
 62
     7
  6
CONTINUOUS
  0
LAYER
  2
8
 70
     0
 62
     7
  6
CONTINUOUS
  0
LAYER
  2
9
 70
     0
 62
     7
  6
CONTINUOUS
  0
LAYER
  2
10
 70
     0
 62
     7
  6
CONTINUOUS
  0
LAYER
  2
11
 70
     0
 62
     7
  6
CONTINUOUS
  0
LAYER
  2
12
 70
     0
 62
     7
  6
CONTINUOUS
  0
LAYER
  2
13
 70
     0
 62
     7
  6
CONTINUOUS
  0
LAYER
  2
14
 70
     0
 62
     7
  6
CONTINUOUS
  0
LAYER
  2
15
 70
     0
 62
     7
  6
CONTINUOUS
  0
LAYER
  2
16
 70
     0
 62
     7
  6
CONTINUOUS
  0
LAYER
  2
17
 70
     0
 62
     7
  6
CONTINUOUS
  0
LAYER
  2
18
 70
     0
 62
     7
  6
CONTINUOUS
  0
LAYER
  2
19
 70
     0
 62
     7
  6
CONTINUOUS
  0
LAYER
  2
20
 70
     0
 62
     7
  6
CONTINUOUS
  0
LAYER
  2
21
 70
     0
 62
     7
  6
CONTINUOUS
  0
LAYER
  2
22
 70
     0
 62
     7
  6
CONTINUOUS
  0
LAYER
  2
23
 70
     0
 62
     7
  6
CONTINUOUS
  0
LAYER
  2
24
 70
     0
 62
     7
  6
CONTINUOUS
  0
LAYER
  2
25
 70
     0
 62
     7
  6
CONTINUOUS
  0
LAYER
  2
26
 70
     0
 62
     7
  6
CONTINUOUS
  0
LAYER
  2
27
 70
     0
 62
     7
  6
CONTINUOUS
  0
LAYER
  2
28
 70
     0
 62
     7
  6
CONTINUOUS
  0
LAYER
  2
29
 70
     0
 62
     7
  6
CONTINUOUS
  0
LAYER
  2
30
 70
     0
 62
     7
  6
CONTINUOUS
  0
LAYER
  2
31
 70
     0
 62
     7
  6
CONTINUOUS
  0
ENDTAB
  0
ENDSEC
  0
SECTION
  2
ENTITIES
  0
LINE
  8
1
  6
CONTINUOUS
 62
1
 10
0.0136576853260433
 20
5.47361205199784
 30
0.0
 11
0.0136576853260397
 21
17.9736120519978
 31
0.0
  0
LINE
  8
1
  6
CONTINUOUS
 62
1
 10
0.0136576853260397
 20
17.9736120519978
 30
0.0
 11
18.513657685326
 21
17.9736120519978
 31
0.0
  0
LINE
  8
1
  6
CONTINUOUS
 62
1
 10
18.513657685326
 20
17.9736120519978
 30
0.0
 11
18.513657685326
 21
5.47361205199784
 31
0.0
  0
LINE
  8
1
  6
CONTINUOUS
 62
1
 10
18.513657685326
 20
5.47361205199784
 30
0.0
 11
0.0136576853260433
 21
5.47361205199784
 31
0.0
  0
LINE
  8
1
  6
CONTINUOUS
 62
1
 10
0.0136576853260433
 20
5.47361205199784
 30
0.0
 11
0.0136576853260433
 21
5.84861205199784
 31
0.0
  0
LINE
  8
1
  6
CONTINUOUS
 62
1
 10
0.0136576853260433
 20
5.84861205199784
 30
0.0
 11
0.513657685326043
 21
5.84861205199784
 31
0.0
  0
LINE
  8
1
  6
CONTINUOUS
 62
1
 10
0.513657685326043
 20
5.84861205199784
 30
0.0
 11
0.513657685326043
 21
5.47361205199784
 31
0.0
  0
LINE
  8
1
  6
CONTINUOUS
 62
1
 10
0.513657685326043
 20
5.47361205199784
 30
0.0
 11
0.0136576853260433
 21
5.47361205199784
 31
0.0
  0
LINE
  8
1
  6
CONTINUOUS
 62
1
 10
0.0136576853260397
 20
17.9736120519978
 30
0.0
 11
0.0136576853260397
 21
17.5986120519978
 31
0.0
  0
LINE
  8
1
  6
CONTINUOUS
 62
1
 10
0.0136576853260397
 20
17.5986120519978
 30
0.0
 11
0.51365768532604
 21
17.5986120519978
 31
0.0
  0
LINE
  8
1
  6
CONTINUOUS
 62
1
 10
0.51365768532604
 20
17.5986120519978
 30
0.0
 11
0.51365768532604
 21
17.9736120519978
 31
0.0
  0
LINE
  8
1
  6
CONTINUOUS
 62
1
 10
0.51365768532604
 20
17.9736120519978
 30
0.0
 11
0.0136576853260397
 21
17.9736120519978
 31
0.0
  0
LINE
  8
1
  6
CONTINUOUS
 62
1
 10
18.513657685326
 20
5.47361205199784
 30
0.0
 11
18.513657685326
 21
5.84861205199784
 31
0.0
  0
LINE
  8
1
  6
CONTINUOUS
 62
1
 10
18.513657685326
 20
5.84861205199784
 30
0.0
 11
18.013657685326
 21
5.84861205199784
 31
0.0
  0
LINE
  8
1
  6
CONTINUOUS
 62
1
 10
18.013657685326
 20
5.84861205199784
 30
0.0
 11
18.013657685326
 21
5.47361205199784
 31
0.0
  0
LINE
  8
1
  6
CONTINUOUS
 62
1
 10
18.013657685326
 20
5.47361205199784
 30
0.0
 11
18.513657685326
 21
5.47361205199784
 31
0.0
  0
LINE
  8
1
  6
CONTINUOUS
 62
1
 10
18.513657685326
 20
17.9736120519978
 30
0.0
 11
18.513657685326
 21
17.5986120519978
 31
0.0
  0
LINE
  8
1
  6
CONTINUOUS
 62
1
 10
18.513657685326
 20
17.5986120519978
 30
0.0
 11
18.013657685326
 21
17.5986120519978
 31
0.0
  0
LINE
  8
1
  6
CONTINUOUS
 62
1
 10
18.013657685326
 20
17.5986120519978
 30
0.0
 11
18.013657685326
 21
17.9736120519978
 31
0.0
  0
LINE
  8
1
  6
CONTINUOUS
 62
1
 10
18.013657685326
 20
17.9736120519978
 30
0.0
 11
18.513657685326
 21
17.9736120519978
 31
0.0
  0
LINE
  8
1
  6
CONTINUOUS
 62
1
 10
6.73862039253113
 20
17.348640200869
 30
0.0
 11
6.73862039253113
 21
16.848640200869
 31
0.0
  0
LINE
  8
1
  6
CONTINUOUS
 62
1
 10
6.73862039253113
 20
16.848640200869
 30
0.0
 11
6.23862039253123
 21
16.848640200869
 31
0.0
  0
LINE
  8
1
  6
CONTINUOUS
 62
1
 10
6.23862039253123
 20
16.848640200869
 30
0.0
 11
6.23862039253123
 21
17.348640200869
 31
0.0
  0
LINE
  8
1
  6
CONTINUOUS
 62
1
 10
6.23862039253123
 20
17.348640200869
 30
0.0
 11
6.73862039253113
 21
17.348640200869
 31
0.0
  0
LINE
  8
1
  6
CONTINUOUS
 62
1
 10
9.51364052368504
 20
17.3486401868315
 30
0.0
 11
9.51364052368504
 21
16.8486401868315
 31
0.0
  0
LINE
  8
1
  6
CONTINUOUS
 62
1
 10
9.51364052368504
 20
16.8486401868315
 30
0.0
 11
9.01364052368504
 21
16.8486401868315
 31
0.0
  0
LINE
  8
1
  6
CONTINUOUS
 62
1
 10
9.01364052368504
 20
16.8486401868315
 30
0.0
 11
9.01364052368504
 21
17.3486401868315
 31
0.0
  0
LINE
  8
1
  6
CONTINUOUS
 62
1
 10
9.01364052368504
 20
17.3486401868315
 30
0.0
 11
9.51364052368504
 21
17.3486401868315
 31
0.0
  0
LINE
  8
1
  6
CONTINUOUS
 62
1
 10
12.2886927132019
 20
17.3486401109297
 30
0.0
 11
12.2886927132019
 21
16.8486401109297
 31
0.0
  0
LINE
  8
1
  6
CONTINUOUS
 62
1
 10
12.2886927132019
 20
16.8486401109297
 30
0.0
 11
11.7886927132019
 21
16.8486401109297
 31
0.0
  0
LINE
  8
1
  6
CONTINUOUS
 62
1
 10
11.7886927132019
 20
16.8486401109297
 30
0.0
 11
11.7886927132019
 21
17.3486401109297
 31
0.0
  0
LINE
  8
1
  6
CONTINUOUS
 62
1
 10
11.7886927132019
 20
17.3486401109297
 30
0.0
 11
12.2886927132019
 21
17.3486401109297
 31
0.0
  0
ENDSEC
  0
EOF
