  0
SECTION
  2
HEADER
  9
$ACADVER
  1
AC1003
  9
$EXTMIN
 10
-0.0024641600897688
 20
18.0044075396785
  9
$EXTMAX
 10
18.4983009962923
 20
9.15240753967855
  9
$INSBASE
 10
9.24791841810124
 20
13.5784075396785
999
Created with OMAX Layout for Windows. (http://www.omax.com) 9/18/2012
  0
ENDSEC
  0
SECTION
  2
TABLES
  0
TABLE
  2
LAYER
 70
    10
  0
LAYER
  2
0
 70
     0
 62
     7
  6
CONTINUOUS
  0
LAYER
  2
1
 70
     0
 62
     7
  6
CONTINUOUS
  0
LAYER
  2
2
 70
     0
 62
     7
  6
CONTINUOUS
  0
LAYER
  2
3
 70
     0
 62
     7
  6
CONTINUOUS
  0
LAYER
  2
4
 70
     0
 62
     7
  6
CONTINUOUS
  0
LAYER
  2
5
 70
     0
 62
     7
  6
CONTINUOUS
  0
LAYER
  2
6
 70
     0
 62
     7
  6
CONTINUOUS
  0
LAYER
  2
7
 70
     0
 62
     7
  6
CONTINUOUS
  0
LAYER
  2
8
 70
     0
 62
     7
  6
CONTINUOUS
  0
LAYER
  2
9
 70
     0
 62
     7
  6
CONTINUOUS
  0
LAYER
  2
10
 70
     0
 62
     7
  6
CONTINUOUS
  0
LAYER
  2
11
 70
     0
 62
     7
  6
CONTINUOUS
  0
LAYER
  2
12
 70
     0
 62
     7
  6
CONTINUOUS
  0
LAYER
  2
13
 70
     0
 62
     7
  6
CONTINUOUS
  0
LAYER
  2
14
 70
     0
 62
     7
  6
CONTINUOUS
  0
LAYER
  2
15
 70
     0
 62
     7
  6
CONTINUOUS
  0
LAYER
  2
16
 70
     0
 62
     7
  6
CONTINUOUS
  0
LAYER
  2
17
 70
     0
 62
     7
  6
CONTINUOUS
  0
LAYER
  2
18
 70
     0
 62
     7
  6
CONTINUOUS
  0
LAYER
  2
19
 70
     0
 62
     7
  6
CONTINUOUS
  0
LAYER
  2
20
 70
     0
 62
     7
  6
CONTINUOUS
  0
LAYER
  2
21
 70
     0
 62
     7
  6
CONTINUOUS
  0
LAYER
  2
22
 70
     0
 62
     7
  6
CONTINUOUS
  0
LAYER
  2
23
 70
     0
 62
     7
  6
CONTINUOUS
  0
LAYER
  2
24
 70
     0
 62
     7
  6
CONTINUOUS
  0
LAYER
  2
25
 70
     0
 62
     7
  6
CONTINUOUS
  0
LAYER
  2
26
 70
     0
 62
     7
  6
CONTINUOUS
  0
LAYER
  2
27
 70
     0
 62
     7
  6
CONTINUOUS
  0
LAYER
  2
28
 70
     0
 62
     7
  6
CONTINUOUS
  0
LAYER
  2
29
 70
     0
 62
     7
  6
CONTINUOUS
  0
LAYER
  2
30
 70
     0
 62
     7
  6
CONTINUOUS
  0
LAYER
  2
31
 70
     0
 62
     7
  6
CONTINUOUS
  0
ENDTAB
  0
ENDSEC
  0
SECTION
  2
ENTITIES
  0
LINE
  8
1
  6
CONTINUOUS
 62
1
 10
0.498300970627632
 20
9.15240753967855
 30
0.0
 11
0.497535839910231
 21
9.47840697820991
 31
0.0
  0
LINE
  8
1
  6
CONTINUOUS
 62
1
 10
0.497535839910231
 20
9.47840697820991
 30
0.0
 11
-0.0024641600897688
 21
9.47840697820991
 31
0.0
  0
LINE
  8
1
  6
CONTINUOUS
 62
1
 10
-0.0024641600897688
 20
9.47840697820991
 30
0.0
 11
-0.00169902937236799
 21
9.15240753967855
 31
0.0
  0
LINE
  8
1
  6
CONTINUOUS
 62
1
 10
-0.00169902937236799
 20
9.15240753967855
 30
0.0
 11
0.498300970627632
 21
9.15240753967855
 31
0.0
  0
LINE
  8
1
  6
CONTINUOUS
 62
1
 10
0.499413010949826
 20
17.6784081011472
 30
0.0
 11
0.49864788023233
 21
18.0044075396785
 31
0.0
  0
LINE
  8
1
  6
CONTINUOUS
 62
1
 10
0.49864788023233
 20
18.0044075396785
 30
0.0
 11
-0.00135211976767025
 21
18.0044075396785
 31
0.0
  0
LINE
  8
1
  6
CONTINUOUS
 62
1
 10
-0.00135211976767025
 20
18.0044075396785
 30
0.0
 11
-0.000586989050173514
 21
17.6784081011472
 31
0.0
  0
LINE
  8
1
  6
CONTINUOUS
 62
1
 10
-0.000586989050173514
 20
17.6784081011472
 30
0.0
 11
0.499413010949826
 21
17.6784081011472
 31
0.0
  0
LINE
  8
1
  6
CONTINUOUS
 62
1
 10
18.4983009706277
 20
9.15240753967855
 30
0.0
 11
18.4983009706277
 21
18.0044075396785
 31
0.0
  0
LINE
  8
1
  6
CONTINUOUS
 62
1
 10
18.4983009706277
 20
18.0044075396785
 30
0.0
 11
-0.00169902937237154
 21
18.0044075396785
 31
0.0
  0
LINE
  8
1
  6
CONTINUOUS
 62
1
 10
-0.00169902937237154
 20
18.0044075396785
 30
0.0
 11
-0.00169902937236799
 21
9.15240753967855
 31
0.0
  0
LINE
  8
1
  6
CONTINUOUS
 62
1
 10
-0.00169902937236799
 20
9.15240753967855
 30
0.0
 11
18.4983009706277
 21
9.15240753967855
 31
0.0
  0
LINE
  8
1
  6
CONTINUOUS
 62
1
 10
18.4983009706277
 20
9.15240753967855
 30
0.0
 11
18.4983009706277
 21
9.47840753967855
 31
0.0
  0
LINE
  8
1
  6
CONTINUOUS
 62
1
 10
18.4983009706277
 20
9.47840753967855
 30
0.0
 11
18.0833009706277
 21
9.47840753967855
 31
0.0
  0
LINE
  8
1
  6
CONTINUOUS
 62
1
 10
18.0833009706277
 20
9.47840753967855
 30
0.0
 11
18.0833009706277
 21
9.15240753967855
 31
0.0
  0
LINE
  8
1
  6
CONTINUOUS
 62
1
 10
18.0833009706277
 20
9.15240753967855
 30
0.0
 11
18.4983009706277
 21
9.15240753967855
 31
0.0
  0
LINE
  8
1
  6
CONTINUOUS
 62
1
 10
18.4983009962923
 20
17.6784075219848
 30
0.0
 11
18.4983009962923
 21
18.0044075219848
 31
0.0
  0
LINE
  8
1
  6
CONTINUOUS
 62
1
 10
18.4983009962923
 20
18.0044075219848
 30
0.0
 11
18.0833009962923
 21
18.0044075219848
 31
0.0
  0
LINE
  8
1
  6
CONTINUOUS
 62
1
 10
18.0833009962923
 20
18.0044075219848
 30
0.0
 11
18.0833009962923
 21
17.6784075219848
 31
0.0
  0
LINE
  8
1
  6
CONTINUOUS
 62
1
 10
18.0833009962923
 20
17.6784075219848
 30
0.0
 11
18.4983009962923
 21
17.6784075219848
 31
0.0
  0
ARC
  8
7
  6
CONTINUOUS
 62
7
 10
6.53647827266508
 20
17.1831572488157
 30
0.0
 40
0.201785649999993
 50
30.5220200000002
 51
89.2984800000002
  0
LINE
  8
7
  6
CONTINUOUS
 62
7
 10
6.53894884089174
 20
17.3849277740134
 30
0.0
 11
6.48207162266507
 21
17.3856241988157
 31
0.0
  0
ARC
  8
7
  6
CONTINUOUS
 62
7
 10
6.47981626228425
 20
17.2014281672281
 30
0.0
 40
0.184209838779204
 50
89.2984855715479
 51
177.350705571549
  0
ARC
  8
7
  6
CONTINUOUS
 62
7
 10
6.44564134324689
 20
17.2235323853114
 30
0.0
 40
0.150453024370534
 50
185.18227425511
 51
239.34477425511
  0
LINE
  8
7
  6
CONTINUOUS
 62
7
 10
6.3689297358119
 20
17.0941050241122
 30
0.0
 11
6.64442682266507
 21
16.9757808488157
 31
0.0
  0
ARC
  8
7
  6
CONTINUOUS
 62
7
 10
6.56771535266297
 20
16.8463534716117
 30
0.0
 40
0.150452968065694
 50
5.18223938609782
 51
59.3448223860978
  0
ARC
  8
7
  6
CONTINUOUS
 62
7
 10
6.53354044508941
 20
16.8684576817638
 30
0.0
 40
0.184209783657817
 50
269.441077271098
 51
357.3506772711
  0
LINE
  8
7
  6
CONTINUOUS
 62
7
 10
6.53174349943459
 20
16.6842566628156
 30
0.0
 11
6.46040997266508
 21
16.6849525488157
 31
0.0
  0
ARC
  8
7
  6
CONTINUOUS
 62
7
 10
6.46237833093481
 20
16.8867285245449
 30
0.0
 40
0.201785576332288
 50
210.52198785121
 51
269.44108785121
  0
LINE
  8
7
  6
CONTINUOUS
 62
7
 10
6.76755333597148
 20
17.3856379988157
 30
0.0
 11
6.86755328911398
 21
17.3856379988157
 31
0.0
  0
LINE
  8
7
  6
CONTINUOUS
 62
7
 10
6.86755328911398
 20
17.3856379988157
 30
0.0
 11
6.96755328911398
 21
17.3856379988157
 31
0.0
  0
LINE
  8
7
  6
CONTINUOUS
 62
7
 10
6.86755328911398
 20
17.3856379988157
 30
0.0
 11
6.86755328911398
 21
16.6856379988157
 31
0.0
  0
LINE
  8
7
  6
CONTINUOUS
 62
7
 10
6.76755333597148
 20
16.6856379988157
 30
0.0
 11
6.86755328911398
 21
16.6856379988157
 31
0.0
  0
LINE
  8
7
  6
CONTINUOUS
 62
7
 10
6.86755328911398
 20
16.6856379988157
 30
0.0
 11
6.96755328911398
 21
16.6856379988157
 31
0.0
  0
LINE
  8
7
  6
CONTINUOUS
 62
7
 10
7.01755328911397
 20
17.3856379988157
 30
0.0
 11
7.01755328911397
 21
16.6856379988157
 31
0.0
  0
LINE
  8
7
  6
CONTINUOUS
 62
7
 10
7.05505328911397
 20
16.6856379988157
 30
0.0
 11
7.21280308911397
 21
16.6856379988157
 31
0.0
  0
ARC
  8
7
  6
CONTINUOUS
 62
7
 10
7.1886556518511
 20
16.9419273580065
 30
0.0
 40
0.257424424561521
 50
275.382485884766
 51
335.613185884766
  0
ARC
  8
7
  6
CONTINUOUS
 62
7
 10
6.83243772328375
 20
17.0356382637822
 30
0.0
 40
0.623615704825756
 50
341.294099999999
 51
18.7059000000007
  0
ARC
  8
7
  6
CONTINUOUS
 62
7
 10
7.18865606186375
 20
17.1293488738808
 30
0.0
 40
0.25742419052049
 50
24.3869099871621
 51
84.6174899871621
  0
LINE
  8
7
  6
CONTINUOUS
 62
7
 10
7.21280358509965
 20
17.3856379898938
 30
0.0
 11
7.05505328911397
 21
17.3856379988157
 31
0.0
  0
LINE
  8
7
  6
CONTINUOUS
 62
7
 10
7.50605348911398
 20
17.3856379988157
 30
0.0
 11
7.50655348911398
 21
16.6856379988157
 31
0.0
  0
LINE
  8
7
  6
CONTINUOUS
 62
7
 10
7.50655348911398
 20
16.6856379988157
 30
0.0
 11
7.91705348911398
 21
16.6856379988157
 31
0.0
  0
LINE
  8
7
  6
CONTINUOUS
 62
7
 10
7.50655348911398
 20
17.0356379988157
 30
0.0
 11
7.82705348911398
 21
17.0356379988157
 31
0.0
  0
LINE
  8
7
  6
CONTINUOUS
 62
7
 10
7.51855349230275
 20
17.3856379988157
 30
0.0
 11
7.51855348592521
 21
17.3856469273848
 31
0.0
  0
LINE
  8
7
  6
CONTINUOUS
 62
7
 10
7.51855348592521
 20
17.3856469273848
 30
0.0
 11
7.91705348911398
 21
17.3856379988157
 31
0.0
  0
LINE
  8
7
  6
CONTINUOUS
 62
7
 10
8.51705348911398
 20
17.3856379988157
 30
0.0
 11
8.51705348911398
 21
16.6856379988157
 31
0.0
  0
LINE
  8
7
  6
CONTINUOUS
 62
7
 10
8.55455348911398
 20
17.3856379988157
 30
0.0
 11
8.77105348911398
 21
17.3856379988157
 31
0.0
  0
ARC
  8
7
  6
CONTINUOUS
 62
7
 10
8.77105348911398
 20
17.2106379988157
 30
0.0
 40
0.174999999999999
 50
359.995599999999
 51
90.000000000001
  0
ARC
  8
7
  6
CONTINUOUS
 62
7
 10
8.77105348911398
 20
17.2106379988157
 30
0.0
 40
0.175000000000008
 50
269.991199999995
 51
359.995599999997
  0
LINE
  8
7
  6
CONTINUOUS
 62
7
 10
8.77102661104359
 20
17.0356380008797
 30
0.0
 11
8.55455348911398
 21
17.0356379988157
 31
0.0
  0
LINE
  8
7
  6
CONTINUOUS
 62
7
 10
8.99605348911398
 20
16.6856379988157
 30
0.0
 11
9.25855348911398
 21
17.3856379988157
 31
0.0
  0
LINE
  8
7
  6
CONTINUOUS
 62
7
 10
9.25855348911398
 20
17.3856379988157
 30
0.0
 11
9.52105348911399
 21
16.6856379988157
 31
0.0
  0
LINE
  8
7
  6
CONTINUOUS
 62
7
 10
9.09235350667016
 20
16.8356379988157
 30
0.0
 11
9.42475347155781
 21
16.8356379988157
 31
0.0
  0
LINE
  8
7
  6
CONTINUOUS
 62
7
 10
9.57355348911399
 20
16.6856379988157
 30
0.0
 11
9.57355348911399
 21
17.3856379988157
 31
0.0
  0
LINE
  8
7
  6
CONTINUOUS
 62
7
 10
9.57355348911399
 20
17.3856379988157
 30
0.0
 11
10.002553489114
 21
16.6856379988157
 31
0.0
  0
LINE
  8
7
  6
CONTINUOUS
 62
7
 10
10.002553489114
 20
16.6856379988157
 30
0.0
 11
10.002553489114
 21
17.3856379988157
 31
0.0
  0
LINE
  8
7
  6
CONTINUOUS
 62
7
 10
10.052553489114
 20
17.3856379988157
 30
0.0
 11
10.053053489114
 21
16.6856379988157
 31
0.0
  0
LINE
  8
7
  6
CONTINUOUS
 62
7
 10
10.053053489114
 20
16.6856379988157
 30
0.0
 11
10.463553489114
 21
16.6856379988157
 31
0.0
  0
LINE
  8
7
  6
CONTINUOUS
 62
7
 10
10.053053489114
 20
17.0356379988157
 30
0.0
 11
10.373553489114
 21
17.0356379988157
 31
0.0
  0
LINE
  8
7
  6
CONTINUOUS
 62
7
 10
10.0650534923028
 20
17.3856379988157
 30
0.0
 11
10.0650534859252
 21
17.3856469273848
 31
0.0
  0
LINE
  8
7
  6
CONTINUOUS
 62
7
 10
10.0650534859252
 20
17.3856469273848
 30
0.0
 11
10.463553489114
 21
17.3856379988157
 31
0.0
  0
LINE
  8
7
  6
CONTINUOUS
 62
7
 10
10.513553489114
 20
17.3856379988157
 30
0.0
 11
10.513553489114
 21
16.6856379988157
 31
0.0
  0
LINE
  8
7
  6
CONTINUOUS
 62
7
 10
10.513553489114
 20
16.6856379988157
 30
0.0
 11
10.924053489114
 21
16.6856379988157
 31
0.0
  0
ENDSEC
  0
EOF
