  0
SECTION
  2
HEADER
  9
$ACADVER
  1
AC1003
  9
$EXTMIN
 10
0.00698734330871176
 20
17.9689998535955
  9
$EXTMAX
 10
18.7977747575345
 20
0.711706002896079
  9
$INSBASE
 10
9.40238105042163
 20
9.34035292824579
999
Created with OMAX Layout for Windows. (http://www.omax.com) 12/30/2012
  0
ENDSEC
  0
SECTION
  2
TABLES
  0
TABLE
  2
LAYER
 70
    10
  0
LAYER
  2
0
 70
     0
 62
     7
  6
CONTINUOUS
  0
LAYER
  2
1
 70
     0
 62
     7
  6
CONTINUOUS
  0
LAYER
  2
2
 70
     0
 62
     7
  6
CONTINUOUS
  0
LAYER
  2
3
 70
     0
 62
     7
  6
CONTINUOUS
  0
LAYER
  2
4
 70
     0
 62
     7
  6
CONTINUOUS
  0
LAYER
  2
5
 70
     0
 62
     7
  6
CONTINUOUS
  0
LAYER
  2
6
 70
     0
 62
     7
  6
CONTINUOUS
  0
LAYER
  2
7
 70
     0
 62
     7
  6
CONTINUOUS
  0
LAYER
  2
8
 70
     0
 62
     7
  6
CONTINUOUS
  0
LAYER
  2
9
 70
     0
 62
     7
  6
CONTINUOUS
  0
LAYER
  2
10
 70
     0
 62
     7
  6
CONTINUOUS
  0
LAYER
  2
11
 70
     0
 62
     7
  6
CONTINUOUS
  0
LAYER
  2
12
 70
     0
 62
     7
  6
CONTINUOUS
  0
LAYER
  2
13
 70
     0
 62
     7
  6
CONTINUOUS
  0
LAYER
  2
14
 70
     0
 62
     7
  6
CONTINUOUS
  0
LAYER
  2
15
 70
     0
 62
     7
  6
CONTINUOUS
  0
LAYER
  2
16
 70
     0
 62
     7
  6
CONTINUOUS
  0
LAYER
  2
17
 70
     0
 62
     7
  6
CONTINUOUS
  0
LAYER
  2
18
 70
     0
 62
     7
  6
CONTINUOUS
  0
LAYER
  2
19
 70
     0
 62
     7
  6
CONTINUOUS
  0
LAYER
  2
20
 70
     0
 62
     7
  6
CONTINUOUS
  0
LAYER
  2
21
 70
     0
 62
     7
  6
CONTINUOUS
  0
LAYER
  2
22
 70
     0
 62
     7
  6
CONTINUOUS
  0
LAYER
  2
23
 70
     0
 62
     7
  6
CONTINUOUS
  0
LAYER
  2
24
 70
     0
 62
     7
  6
CONTINUOUS
  0
LAYER
  2
25
 70
     0
 62
     7
  6
CONTINUOUS
  0
LAYER
  2
26
 70
     0
 62
     7
  6
CONTINUOUS
  0
LAYER
  2
27
 70
     0
 62
     7
  6
CONTINUOUS
  0
LAYER
  2
28
 70
     0
 62
     7
  6
CONTINUOUS
  0
LAYER
  2
29
 70
     0
 62
     7
  6
CONTINUOUS
  0
LAYER
  2
30
 70
     0
 62
     7
  6
CONTINUOUS
  0
LAYER
  2
31
 70
     0
 62
     7
  6
CONTINUOUS
  0
ENDTAB
  0
ENDSEC
  0
SECTION
  2
ENTITIES
  0
ARC
  8
1
  6
CONTINUOUS
 62
1
 10
3.72987716805304
 20
2.13960595517105
 30
0.0
 40
0.135000000000001
 50
179.999999999999
 51
359.999999999999
  0
ARC
  8
1
  6
CONTINUOUS
 62
1
 10
3.72987716805304
 20
2.13960595517105
 30
0.0
 40
0.135000000000001
 50
359.999999999999
 51
180
  0
ARC
  8
1
  6
CONTINUOUS
 62
1
 10
5.10912945833264
 20
2.13332858304914
 30
0.0
 40
0.135
 50
179.999999999999
 51
359.999999999999
  0
ARC
  8
1
  6
CONTINUOUS
 62
1
 10
5.10912945833264
 20
2.13332858304914
 30
0.0
 40
0.135
 50
359.999999999999
 51
180
  0
LINE
  8
1
  6
CONTINUOUS
 62
1
 10
8.76948734330874
 20
17.9617060028961
 30
0.0
 11
8.76948734330874
 21
16.9617060028961
 31
0.0
  0
LINE
  8
1
  6
CONTINUOUS
 62
1
 10
8.76948734330874
 20
16.9617060028961
 30
0.0
 11
0.00698734330871176
 21
16.9617060028961
 31
0.0
  0
LINE
  8
1
  6
CONTINUOUS
 62
1
 10
0.00698734330871176
 20
16.9617060028961
 30
0.0
 11
0.00698734330871176
 21
17.9617060028961
 31
0.0
  0
LINE
  8
1
  6
CONTINUOUS
 62
1
 10
0.00698734330871176
 20
17.9617060028961
 30
0.0
 11
8.76948734330874
 21
17.9617060028961
 31
0.0
  0
LINE
  8
6
  6
CONTINUOUS
 62
6
 10
1.07192593361534
 20
14.9617187268055
 30
0.0
 11
1.07192593361534
 21
16.7117187268055
 31
0.0
  0
LINE
  8
6
  6
CONTINUOUS
 62
6
 10
1.07192593361534
 20
16.7117187268055
 30
0.0
 11
2.63442593361534
 21
16.7117187268055
 31
0.0
  0
LINE
  8
6
  6
CONTINUOUS
 62
6
 10
2.63442593361534
 20
16.7117187268055
 30
0.0
 11
2.63442593361534
 21
14.9617187268055
 31
0.0
  0
LINE
  8
6
  6
CONTINUOUS
 62
6
 10
2.63442593361534
 20
14.9617187268055
 30
0.0
 11
1.07192593361534
 21
14.9617187268055
 31
0.0
  0
ARC
  8
1
  6
CONTINUOUS
 62
1
 10
1.30690116229234
 20
15.2766945247407
 30
0.0
 40
0.125
 50
179.999999999999
 51
359.999999999999
  0
ARC
  8
1
  6
CONTINUOUS
 62
1
 10
1.30690116229234
 20
15.2766945247407
 30
0.0
 40
0.125
 50
359.999999999999
 51
180
  0
ARC
  8
1
  6
CONTINUOUS
 62
1
 10
1.30695118295614
 20
16.3967260171829
 30
0.0
 40
0.125
 50
179.999999999999
 51
359.999999999999
  0
ARC
  8
1
  6
CONTINUOUS
 62
1
 10
1.30695118295614
 20
16.3967260171829
 30
0.0
 40
0.125
 50
359.999999999999
 51
180
  0
ARC
  8
1
  6
CONTINUOUS
 62
1
 10
2.39945619633154
 20
15.2767190030958
 30
0.0
 40
0.125
 50
179.999999999999
 51
359.999999999999
  0
ARC
  8
1
  6
CONTINUOUS
 62
1
 10
2.39945619633154
 20
15.2767190030958
 30
0.0
 40
0.125
 50
359.999999999999
 51
180
  0
ARC
  8
1
  6
CONTINUOUS
 62
1
 10
2.39945619633154
 20
16.3967166447566
 30
0.0
 40
0.125
 50
179.999999999999
 51
359.999999999999
  0
ARC
  8
1
  6
CONTINUOUS
 62
1
 10
2.39945619633154
 20
16.3967166447566
 30
0.0
 40
0.125
 50
359.999999999999
 51
180
  0
ARC
  8
1
  6
CONTINUOUS
 62
1
 10
1.36076764005514
 20
17.4587179164363
 30
0.0
 40
0.125
 50
179.999999999999
 51
359.999999999999
  0
ARC
  8
1
  6
CONTINUOUS
 62
1
 10
1.36076764005514
 20
17.4587179164363
 30
0.0
 40
0.125
 50
359.999999999999
 51
180
  0
ARC
  8
1
  6
CONTINUOUS
 62
1
 10
2.34577265358594
 20
17.4587126296938
 30
0.0
 40
0.125
 50
179.999999999999
 51
359.999999999999
  0
ARC
  8
1
  6
CONTINUOUS
 62
1
 10
2.34577265358594
 20
17.4587126296938
 30
0.0
 40
0.125
 50
359.999999999999
 51
180
  0
LINE
  8
6
  6
CONTINUOUS
 62
6
 10
2.63406889114564
 20
17.178682251249
 30
0.0
 11
2.63406889114564
 21
17.738682251249
 31
0.0
  0
LINE
  8
6
  6
CONTINUOUS
 62
6
 10
2.63406889114564
 20
17.738682251249
 30
0.0
 11
1.07156889114564
 21
17.738682251249
 31
0.0
  0
LINE
  8
6
  6
CONTINUOUS
 62
6
 10
1.07156889114564
 20
17.738682251249
 30
0.0
 11
1.07156889114564
 21
17.178682251249
 31
0.0
  0
LINE
  8
6
  6
CONTINUOUS
 62
6
 10
1.07156889114564
 20
17.178682251249
 30
0.0
 11
2.63406889114564
 21
17.178682251249
 31
0.0
  0
ARC
  8
1
  6
CONTINUOUS
 62
1
 10
3.15968178780684
 20
15.8366800773451
 30
0.0
 40
0.0800000000000001
 50
179.999999999999
 51
359.999999999999
  0
ARC
  8
1
  6
CONTINUOUS
 62
1
 10
3.15968178780684
 20
15.8366800773451
 30
0.0
 40
0.0800000000000001
 50
359.999999999999
 51
180
  0
ARC
  8
1
  6
CONTINUOUS
 62
1
 10
5.67934631910464
 20
15.8367233923866
 30
0.0
 40
0.0800000000000001
 50
179.999999999999
 51
359.999999999999
  0
ARC
  8
1
  6
CONTINUOUS
 62
1
 10
5.67934631910464
 20
15.8367233923866
 30
0.0
 40
0.0800000000000001
 50
359.999999999999
 51
180
  0
LINE
  8
1
  6
CONTINUOUS
 62
1
 10
8.76948734330874
 20
0.711706002896079
 30
0.0
 11
8.76948734330874
 21
17.9617060028961
 31
0.0
  0
LINE
  8
1
  6
CONTINUOUS
 62
1
 10
8.76948734330874
 20
17.9617060028961
 30
0.0
 11
0.00698734330871176
 21
17.9617060028961
 31
0.0
  0
LINE
  8
1
  6
CONTINUOUS
 62
1
 10
0.00698734330871176
 20
17.9617060028961
 30
0.0
 11
0.00698734330871176
 21
0.711706002896079
 31
0.0
  0
LINE
  8
1
  6
CONTINUOUS
 62
1
 10
0.00698734330871176
 20
0.711706002896079
 30
0.0
 11
8.76948734330874
 21
0.711706002896079
 31
0.0
  0
LINE
  8
1
  6
CONTINUOUS
 62
1
 10
13.7858499680905
 20
9.96899985359549
 30
0.0
 11
13.7858499680905
 21
17.9689998535955
 31
0.0
  0
LINE
  8
1
  6
CONTINUOUS
 62
1
 10
13.7858499680905
 20
17.9689998535955
 30
0.0
 11
8.78584996809054
 21
17.9689998535955
 31
0.0
  0
LINE
  8
1
  6
CONTINUOUS
 62
1
 10
8.78584996809054
 20
17.9689998535955
 30
0.0
 11
8.78584996809054
 21
9.96899985359549
 31
0.0
  0
LINE
  8
1
  6
CONTINUOUS
 62
1
 10
8.78584996809054
 20
9.96899985359549
 30
0.0
 11
13.7858499680905
 21
9.96899985359549
 31
0.0
  0
ARC
  8
1
  6
CONTINUOUS
 62
1
 10
11.2858829981204
 20
13.968994256092
 30
0.0
 40
0.7874
 50
179.999999999999
 51
359.999999999999
  0
ARC
  8
1
  6
CONTINUOUS
 62
1
 10
11.2858829981204
 20
13.968994256092
 30
0.0
 40
0.7874
 50
359.999999999999
 51
180
  0
ARC
  8
1
  6
CONTINUOUS
 62
1
 10
9.18588553108654
 20
10.3690458973031
 30
0.0
 40
0.0492126000000006
 50
179.999999999999
 51
359.999999999999
  0
ARC
  8
1
  6
CONTINUOUS
 62
1
 10
9.18588553108654
 20
10.3690458973031
 30
0.0
 40
0.0492126000000006
 50
359.999999999999
 51
180
  0
ARC
  8
1
  6
CONTINUOUS
 62
1
 10
13.385823641853
 20
10.3690079547509
 30
0.0
 40
0.0492126000000006
 50
179.999999999999
 51
359.999999999999
  0
ARC
  8
1
  6
CONTINUOUS
 62
1
 10
13.385823641853
 20
10.3690079547509
 30
0.0
 40
0.0492126000000006
 50
359.999999999999
 51
180
  0
ARC
  8
1
  6
CONTINUOUS
 62
1
 10
13.3858360330788
 20
17.5690134855428
 30
0.0
 40
0.0492125999999988
 50
179.999999999999
 51
359.999999999999
  0
ARC
  8
1
  6
CONTINUOUS
 62
1
 10
13.3858360330788
 20
17.5690134855428
 30
0.0
 40
0.0492125999999988
 50
359.999999999999
 51
180
  0
ARC
  8
1
  6
CONTINUOUS
 62
1
 10
9.18580389941454
 20
17.5690128684895
 30
0.0
 40
0.0492126000000006
 50
179.999999999999
 51
359.999999999999
  0
ARC
  8
1
  6
CONTINUOUS
 62
1
 10
9.18580389941454
 20
17.5690128684895
 30
0.0
 40
0.0492126000000006
 50
359.999999999999
 51
180
  0
LINE
  8
1
  6
CONTINUOUS
 62
1
 10
13.7977747575345
 20
9.96709709986169
 30
0.0
 11
18.7977747575345
 21
9.96709709986169
 31
0.0
  0
LINE
  8
1
  6
CONTINUOUS
 62
1
 10
18.7977747575345
 20
9.96709709986169
 30
0.0
 11
18.7977747575345
 21
17.9670970998617
 31
0.0
  0
LINE
  8
1
  6
CONTINUOUS
 62
1
 10
18.7977747575345
 20
17.9670970998617
 30
0.0
 11
13.7977747575345
 21
17.9670970998617
 31
0.0
  0
ARC
  8
1
  6
CONTINUOUS
 62
1
 10
16.2978077875644
 20
13.9670915023582
 30
0.0
 40
0.787400000000002
 50
179.999999999999
 51
359.999999999999
  0
ARC
  8
1
  6
CONTINUOUS
 62
1
 10
16.2978077875644
 20
13.9670915023582
 30
0.0
 40
0.787400000000002
 50
359.999999999999
 51
180
  0
ARC
  8
1
  6
CONTINUOUS
 62
1
 10
14.1978103205305
 20
10.3671431435693
 30
0.0
 40
0.0620078499999988
 50
179.999999999999
 51
359.999999999999
  0
ARC
  8
1
  6
CONTINUOUS
 62
1
 10
14.1978103205305
 20
10.3671431435693
 30
0.0
 40
0.0620078499999988
 50
359.999999999999
 51
180
  0
ARC
  8
1
  6
CONTINUOUS
 62
1
 10
18.3977484312969
 20
10.3671052010171
 30
0.0
 40
0.0620078499999988
 50
179.999999999999
 51
359.999999999999
  0
ARC
  8
1
  6
CONTINUOUS
 62
1
 10
18.3977484312969
 20
10.3671052010171
 30
0.0
 40
0.0620078499999988
 50
359.999999999999
 51
180
  0
ARC
  8
1
  6
CONTINUOUS
 62
1
 10
18.3977608225228
 20
17.5671107318089
 30
0.0
 40
0.0620078500000005
 50
179.999999999999
 51
359.999999999999
  0
ARC
  8
1
  6
CONTINUOUS
 62
1
 10
18.3977608225228
 20
17.5671107318089
 30
0.0
 40
0.0620078500000005
 50
359.999999999999
 51
180
  0
ARC
  8
1
  6
CONTINUOUS
 62
1
 10
14.1977286888585
 20
17.5671101147557
 30
0.0
 40
0.0620078499999988
 50
179.999999999999
 51
359.999999999999
  0
ARC
  8
1
  6
CONTINUOUS
 62
1
 10
14.1977286888585
 20
17.5671101147557
 30
0.0
 40
0.0620078499999988
 50
359.999999999999
 51
180
  0
LINE
  8
1
  6
CONTINUOUS
 62
1
 10
15.5407981040309
 20
6.91307714460279
 30
0.0
 11
16.0586981040309
 21
6.91307714460279
 31
0.0
  0
LINE
  8
1
  6
CONTINUOUS
 62
1
 10
16.0586981040309
 20
6.91307714460279
 30
0.0
 11
16.0586981040309
 21
6.94432714460279
 31
0.0
  0
LINE
  8
1
  6
CONTINUOUS
 62
1
 10
16.0586981040309
 20
6.94432714460279
 30
0.0
 11
15.5407981040309
 21
6.94432714460279
 31
0.0
  0
LINE
  8
1
  6
CONTINUOUS
 62
1
 10
15.5407981040309
 20
6.94432714460279
 30
0.0
 11
15.5407981040309
 21
6.91307714460279
 31
0.0
  0
LINE
  8
1
  6
CONTINUOUS
 62
1
 10
15.5407981195944
 20
4.84957330184359
 30
0.0
 11
16.0586981195943
 21
4.84957330184359
 31
0.0
  0
LINE
  8
1
  6
CONTINUOUS
 62
1
 10
16.0586981195943
 20
4.84957330184359
 30
0.0
 11
16.0586981195943
 21
4.88082330184359
 31
0.0
  0
LINE
  8
1
  6
CONTINUOUS
 62
1
 10
16.0586981195943
 20
4.88082330184359
 30
0.0
 11
15.5407981195944
 21
4.88082330184359
 31
0.0
  0
LINE
  8
1
  6
CONTINUOUS
 62
1
 10
15.5407981195944
 20
4.88082330184359
 30
0.0
 11
15.5407981195944
 21
4.84957330184359
 31
0.0
  0
ARC
  8
1
  6
CONTINUOUS
 62
1
 10
15.7997693448767
 20
6.63179629056519
 30
0.0
 40
0.135
 50
179.999999999999
 51
359.999999999999
  0
ARC
  8
1
  6
CONTINUOUS
 62
1
 10
15.7997693448767
 20
6.63179629056519
 30
0.0
 40
0.135
 50
359.999999999999
 51
180
  0
ARC
  8
1
  6
CONTINUOUS
 62
1
 10
15.7997403552617
 20
5.21884403622739
 30
0.0
 40
0.135
 50
179.999999999999
 51
359.999999999999
  0
ARC
  8
1
  6
CONTINUOUS
 62
1
 10
15.7997403552617
 20
5.21884403622739
 30
0.0
 40
0.135
 50
359.999999999999
 51
180
  0
LINE
  8
1
  6
CONTINUOUS
 62
1
 10
14.7901940817626
 20
1.72852425417382
 30
0.0
 11
18.7901940817626
 21
1.72852425417382
 31
0.0
  0
LINE
  8
1
  6
CONTINUOUS
 62
1
 10
18.7901940817626
 20
1.72852425417382
 30
0.0
 11
18.7901940817626
 21
9.96852425417379
 31
0.0
  0
ARC
  8
1
  6
CONTINUOUS
 62
1
 10
17.7868425284922
 20
6.63179629982709
 30
0.0
 40
0.135
 50
179.999999999999
 51
359.999999999999
  0
ARC
  8
1
  6
CONTINUOUS
 62
1
 10
17.7868425284922
 20
6.63179629982709
 30
0.0
 40
0.135
 50
359.999999999999
 51
180
  0
ARC
  8
1
  6
CONTINUOUS
 62
1
 10
17.7805651563703
 20
5.25254400954749
 30
0.0
 40
0.135
 50
179.999999999999
 51
359.999999999999
  0
ARC
  8
1
  6
CONTINUOUS
 62
1
 10
17.7805651563703
 20
5.25254400954749
 30
0.0
 40
0.135
 50
359.999999999999
 51
180
  0
LINE
  8
1
  6
CONTINUOUS
 62
1
 10
15.5407980826853
 20
6.94432710544789
 30
0.0
 11
16.0586980826853
 21
6.94432710544789
 31
0.0
  0
LINE
  8
1
  6
CONTINUOUS
 62
1
 10
16.0586980826853
 20
6.94432710544789
 30
0.0
 11
16.0586980826853
 21
6.97557710544789
 31
0.0
  0
LINE
  8
1
  6
CONTINUOUS
 62
1
 10
16.0586980826853
 20
6.97557710544789
 30
0.0
 11
15.5407980826853
 21
6.97557710544789
 31
0.0
  0
LINE
  8
1
  6
CONTINUOUS
 62
1
 10
15.5407980826853
 20
6.97557710544789
 30
0.0
 11
15.5407980826853
 21
6.94432710544789
 31
0.0
  0
LINE
  8
1
  6
CONTINUOUS
 62
1
 10
15.5407981138121
 20
4.88082334723279
 30
0.0
 11
16.0586981138121
 21
4.88082334723279
 31
0.0
  0
LINE
  8
1
  6
CONTINUOUS
 62
1
 10
16.0586981138121
 20
4.88082334723279
 30
0.0
 11
16.0586981138121
 21
4.91207334723279
 31
0.0
  0
LINE
  8
1
  6
CONTINUOUS
 62
1
 10
16.0586981138121
 20
4.91207334723279
 30
0.0
 11
15.5407981138121
 21
4.91207334723279
 31
0.0
  0
LINE
  8
1
  6
CONTINUOUS
 62
1
 10
15.5407981138121
 20
4.91207334723279
 30
0.0
 11
15.5407981138121
 21
4.88082334723279
 31
0.0
  0
LINE
  8
1
  6
CONTINUOUS
 62
1
 10
14.7773987846215
 20
9.95853530934069
 30
0.0
 11
14.7773987846215
 21
1.45853530934069
 31
0.0
  0
LINE
  8
1
  6
CONTINUOUS
 62
1
 10
14.7773987846215
 20
1.45853530934069
 30
0.0
 11
8.77739878462154
 21
1.45853530934069
 31
0.0
  0
ARC
  8
1
  6
CONTINUOUS
 62
1
 10
11.7774176896827
 20
2.3692830974814
 30
0.0
 40
0.119999999999999
 50
179.999999999999
 51
359.999999999999
  0
ARC
  8
1
  6
CONTINUOUS
 62
1
 10
11.7774176896827
 20
2.3692830974814
 30
0.0
 40
0.119999999999999
 50
359.999999999999
 51
180
  0
ARC
  8
1
  6
CONTINUOUS
 62
1
 10
11.7773496284011
 20
9.04782689672559
 30
0.0
 40
0.119999999999999
 50
179.999999999999
 51
359.999999999999
  0
ARC
  8
1
  6
CONTINUOUS
 62
1
 10
11.7773496284011
 20
9.04782689672559
 30
0.0
 40
0.119999999999999
 50
359.999999999999
 51
180
  0
ARC
  8
1
  6
CONTINUOUS
 62
1
 10
10.3464504670093
 20
4.23348159603899
 30
0.0
 40
0.0999999999999996
 50
179.999999999999
 51
359.999999999999
  0
ARC
  8
1
  6
CONTINUOUS
 62
1
 10
10.3464504670093
 20
4.23348159603899
 30
0.0
 40
0.0999999999999996
 50
359.999999999999
 51
180
  0
ARC
  8
1
  6
CONTINUOUS
 62
1
 10
10.302414351964
 20
7.18343699518679
 30
0.0
 40
0.0999999999999996
 50
179.999999999999
 51
359.999999999999
  0
ARC
  8
1
  6
CONTINUOUS
 62
1
 10
10.302414351964
 20
7.18343699518679
 30
0.0
 40
0.0999999999999996
 50
359.999999999999
 51
180
  0
ARC
  8
1
  6
CONTINUOUS
 62
1
 10
13.2523953919893
 20
7.18352209587289
 30
0.0
 40
0.0999999999999996
 50
179.999999999999
 51
359.999999999999
  0
ARC
  8
1
  6
CONTINUOUS
 62
1
 10
13.2523953919893
 20
7.18352209587289
 30
0.0
 40
0.0999999999999996
 50
359.999999999999
 51
180
  0
ARC
  8
1
  6
CONTINUOUS
 62
1
 10
13.296404222153
 20
4.23351894549049
 30
0.0
 40
0.0999999999999996
 50
179.999999999999
 51
359.999999999999
  0
ARC
  8
1
  6
CONTINUOUS
 62
1
 10
13.296404222153
 20
4.23351894549049
 30
0.0
 40
0.0999999999999996
 50
359.999999999999
 51
180
  0
LINE
  8
6
  6
CONTINUOUS
 62
6
 10
10.4048873244694
 20
16.9707575077406
 30
0.0
 11
10.5391373244694
 21
16.9707575077406
 31
0.0
  0
LINE
  8
6
  6
CONTINUOUS
 62
6
 10
10.5391373244694
 20
16.9707575077406
 30
0.0
 11
10.5391373544694
 21
16.5507575077406
 31
0.0
  0
LINE
  8
6
  6
CONTINUOUS
 62
6
 10
10.5391373544694
 20
16.9707575077406
 30
0.0
 11
10.6733873244694
 21
16.9707575077406
 31
0.0
  0
LINE
  8
6
  6
CONTINUOUS
 62
6
 10
10.7033873244694
 20
16.5507575077406
 30
0.0
 11
10.8608873244694
 21
16.9707575077406
 31
0.0
  0
LINE
  8
6
  6
CONTINUOUS
 62
6
 10
10.8608873244694
 20
16.9707575077406
 30
0.0
 11
11.0183873244694
 21
16.5507575077406
 31
0.0
  0
LINE
  8
6
  6
CONTINUOUS
 62
6
 10
10.7611673350031
 20
16.6407575077406
 30
0.0
 11
10.9606073139357
 21
16.6407575077406
 31
0.0
  0
LINE
  8
6
  6
CONTINUOUS
 62
6
 10
11.0483873244694
 20
16.9707575077406
 30
0.0
 11
11.0483873244694
 21
16.5507575077406
 31
0.0
  0
LINE
  8
6
  6
CONTINUOUS
 62
6
 10
11.0708873244694
 20
16.9707575077406
 30
0.0
 11
11.2007873244694
 21
16.9707575077406
 31
0.0
  0
ARC
  8
6
  6
CONTINUOUS
 62
6
 10
11.2007873244694
 20
16.8657575077406
 30
0.0
 40
0.105
 50
359.995599999999
 51
90.000000000001
  0
ARC
  8
6
  6
CONTINUOUS
 62
6
 10
11.2007873244694
 20
16.8657575077406
 30
0.0
 40
0.105000000000005
 50
269.991199999995
 51
359.995599999997
  0
LINE
  8
6
  6
CONTINUOUS
 62
6
 10
11.2007711976272
 20
16.760757508979
 30
0.0
 11
11.0708873244694
 21
16.7607575077406
 31
0.0
  0
LINE
  8
6
  6
CONTINUOUS
 62
6
 10
11.3357873244694
 20
16.9707575077406
 30
0.0
 11
11.3357873244694
 21
16.5507575077406
 31
0.0
  0
LINE
  8
6
  6
CONTINUOUS
 62
6
 10
11.3582873244694
 20
16.9707575077406
 30
0.0
 11
11.4881873244694
 21
16.9707575077406
 31
0.0
  0
ARC
  8
6
  6
CONTINUOUS
 62
6
 10
11.4881873244694
 20
16.8657575077406
 30
0.0
 40
0.105
 50
359.995599999999
 51
90.000000000001
  0
ARC
  8
6
  6
CONTINUOUS
 62
6
 10
11.4881873244694
 20
16.8657575077406
 30
0.0
 40
0.105000000000005
 50
269.991199999995
 51
359.995599999997
  0
LINE
  8
6
  6
CONTINUOUS
 62
6
 10
11.4881711976272
 20
16.760757508979
 30
0.0
 11
11.3582873244694
 21
16.7607575077406
 31
0.0
  0
LINE
  8
6
  6
CONTINUOUS
 62
6
 10
11.6231873244694
 20
16.9707575077406
 30
0.0
 11
11.6234873244694
 21
16.5507575077406
 31
0.0
  0
LINE
  8
6
  6
CONTINUOUS
 62
6
 10
11.6234873244694
 20
16.5507575077406
 30
0.0
 11
11.8697873244694
 21
16.5507575077406
 31
0.0
  0
LINE
  8
6
  6
CONTINUOUS
 62
6
 10
11.6234873244694
 20
16.7607575077406
 30
0.0
 11
11.8157873244694
 21
16.7607575077406
 31
0.0
  0
LINE
  8
6
  6
CONTINUOUS
 62
6
 10
11.6306873263827
 20
16.9707575077406
 30
0.0
 11
11.6306873225561
 21
16.9707628648821
 31
0.0
  0
LINE
  8
6
  6
CONTINUOUS
 62
6
 10
11.6306873225561
 20
16.9707628648821
 30
0.0
 11
11.8697873244694
 21
16.9707575077406
 31
0.0
  0
LINE
  8
6
  6
CONTINUOUS
 62
6
 10
11.8997873244694
 20
16.9707575077406
 30
0.0
 11
11.8997873244694
 21
16.5507575077406
 31
0.0
  0
LINE
  8
6
  6
CONTINUOUS
 62
6
 10
11.9222873244694
 20
16.5507575077406
 30
0.0
 11
12.0169372044694
 21
16.5507575077406
 31
0.0
  0
ARC
  8
6
  6
CONTINUOUS
 62
6
 10
12.0024487421117
 20
16.7045311232551
 30
0.0
 40
0.154454654736913
 50
275.382485884766
 51
335.613185884766
  0
ARC
  8
6
  6
CONTINUOUS
 62
6
 10
11.7887179849713
 20
16.7607576667205
 30
0.0
 40
0.374169422895456
 50
341.294099999999
 51
18.7059000000007
  0
ARC
  8
6
  6
CONTINUOUS
 62
6
 10
12.0024489881193
 20
16.8169840327797
 30
0.0
 40
0.154454514312294
 50
24.3869099871631
 51
84.6174899871631
  0
LINE
  8
6
  6
CONTINUOUS
 62
6
 10
12.0169375020608
 20
16.9707575023874
 30
0.0
 11
11.9222873244694
 21
16.9707575077406
 31
0.0
  0
ENDSEC
  0
EOF
