  0
SECTION
  2
HEADER
  9
$ACADVER
  1
AC1003
  9
$EXTMIN
 10
0.00693751424596911
 20
17.9996520159478
  9
$EXTMAX
 10
18.5077026446007
 20
-0.00245650574334999
  9
$INSBASE
 10
9.25732007942332
 20
8.99859775510223
999
Created with OMAX Layout for Windows. (http://www.omax.com) 9/18/2012
  0
ENDSEC
  0
SECTION
  2
TABLES
  0
TABLE
  2
LAYER
 70
    10
  0
LAYER
  2
0
 70
     0
 62
     7
  6
CONTINUOUS
  0
LAYER
  2
1
 70
     0
 62
     7
  6
CONTINUOUS
  0
LAYER
  2
2
 70
     0
 62
     7
  6
CONTINUOUS
  0
LAYER
  2
3
 70
     0
 62
     7
  6
CONTINUOUS
  0
LAYER
  2
4
 70
     0
 62
     7
  6
CONTINUOUS
  0
LAYER
  2
5
 70
     0
 62
     7
  6
CONTINUOUS
  0
LAYER
  2
6
 70
     0
 62
     7
  6
CONTINUOUS
  0
LAYER
  2
7
 70
     0
 62
     7
  6
CONTINUOUS
  0
LAYER
  2
8
 70
     0
 62
     7
  6
CONTINUOUS
  0
LAYER
  2
9
 70
     0
 62
     7
  6
CONTINUOUS
  0
LAYER
  2
10
 70
     0
 62
     7
  6
CONTINUOUS
  0
LAYER
  2
11
 70
     0
 62
     7
  6
CONTINUOUS
  0
LAYER
  2
12
 70
     0
 62
     7
  6
CONTINUOUS
  0
LAYER
  2
13
 70
     0
 62
     7
  6
CONTINUOUS
  0
LAYER
  2
14
 70
     0
 62
     7
  6
CONTINUOUS
  0
LAYER
  2
15
 70
     0
 62
     7
  6
CONTINUOUS
  0
LAYER
  2
16
 70
     0
 62
     7
  6
CONTINUOUS
  0
LAYER
  2
17
 70
     0
 62
     7
  6
CONTINUOUS
  0
LAYER
  2
18
 70
     0
 62
     7
  6
CONTINUOUS
  0
LAYER
  2
19
 70
     0
 62
     7
  6
CONTINUOUS
  0
LAYER
  2
20
 70
     0
 62
     7
  6
CONTINUOUS
  0
LAYER
  2
21
 70
     0
 62
     7
  6
CONTINUOUS
  0
LAYER
  2
22
 70
     0
 62
     7
  6
CONTINUOUS
  0
LAYER
  2
23
 70
     0
 62
     7
  6
CONTINUOUS
  0
LAYER
  2
24
 70
     0
 62
     7
  6
CONTINUOUS
  0
LAYER
  2
25
 70
     0
 62
     7
  6
CONTINUOUS
  0
LAYER
  2
26
 70
     0
 62
     7
  6
CONTINUOUS
  0
LAYER
  2
27
 70
     0
 62
     7
  6
CONTINUOUS
  0
LAYER
  2
28
 70
     0
 62
     7
  6
CONTINUOUS
  0
LAYER
  2
29
 70
     0
 62
     7
  6
CONTINUOUS
  0
LAYER
  2
30
 70
     0
 62
     7
  6
CONTINUOUS
  0
LAYER
  2
31
 70
     0
 62
     7
  6
CONTINUOUS
  0
ENDTAB
  0
ENDSEC
  0
SECTION
  2
ENTITIES
  0
LINE
  8
1
  6
CONTINUOUS
 62
1
 10
0.00770263756527001
 20
-0.0023799475343742
 30
0.0
 11
0.00770263756526646
 21
17.9976200524656
 31
0.0
  0
LINE
  8
1
  6
CONTINUOUS
 62
1
 10
0.00770263756526646
 20
17.9976200524656
 30
0.0
 11
18.5077026375653
 21
17.9976200524656
 31
0.0
  0
LINE
  8
1
  6
CONTINUOUS
 62
1
 10
18.5077026375653
 20
17.9976200524656
 30
0.0
 11
18.5077026375653
 21
-0.00237994753436954
 31
0.0
  0
LINE
  8
1
  6
CONTINUOUS
 62
1
 10
18.5077026375653
 20
-0.00237994753436954
 30
0.0
 11
0.00770263756527001
 21
-0.0023799475343742
 31
0.0
  0
ARC
  8
1
  6
CONTINUOUS
 62
1
 10
4.00770263756527
 20
1.2186535114207
 30
0.0
 40
0.178
 50
269.999999999999
 51
89.9999999999998
  0
ARC
  8
1
  6
CONTINUOUS
 62
1
 10
4.00770263756527
 20
1.2186535114207
 30
0.0
 40
0.178
 50
89.9999999999998
 51
270
  0
ARC
  8
1
  6
CONTINUOUS
 62
1
 10
16.0077026375653
 20
1.21862005246563
 30
0.0
 40
0.178
 50
269.999999999999
 51
89.9999999999998
  0
ARC
  8
1
  6
CONTINUOUS
 62
1
 10
16.0077026375653
 20
1.21862005246563
 30
0.0
 40
0.178
 50
89.9999999999998
 51
270
  0
ARC
  8
1
  6
CONTINUOUS
 62
1
 10
4.00770263756527
 20
16.7766535114207
 30
0.0
 40
0.178000000000001
 50
269.999999999999
 51
89.9999999999998
  0
ARC
  8
1
  6
CONTINUOUS
 62
1
 10
4.00770263756527
 20
16.7766535114207
 30
0.0
 40
0.178000000000001
 50
89.9999999999998
 51
270
  0
ARC
  8
1
  6
CONTINUOUS
 62
1
 10
16.0077026375653
 20
16.7766200524656
 30
0.0
 40
0.177999999999999
 50
269.999999999999
 51
89.9999999999998
  0
ARC
  8
1
  6
CONTINUOUS
 62
1
 10
16.0077026375653
 20
16.7766200524656
 30
0.0
 40
0.177999999999999
 50
89.9999999999998
 51
270
  0
ARC
  8
7
  6
CONTINUOUS
 62
7
 10
6.68270263756527
 20
4.99262005246556
 30
0.0
 40
0.31548316101305
 50
269.999999999999
 51
89.9999999999998
  0
ARC
  8
7
  6
CONTINUOUS
 62
7
 10
6.68270263756527
 20
4.99262005246556
 30
0.0
 40
0.31548316101305
 50
89.9999999999998
 51
270
  0
ARC
  8
7
  6
CONTINUOUS
 62
7
 10
14.7392026375653
 20
13.0066200524656
 30
0.0
 40
0.3154831610131
 50
269.999999999999
 51
89.9999999999998
  0
ARC
  8
7
  6
CONTINUOUS
 62
7
 10
14.7392026375653
 20
13.0066200524656
 30
0.0
 40
0.3154831610131
 50
89.9999999999998
 51
270
  0
ARC
  8
1
  6
CONTINUOUS
 62
1
 10
15.5517026375653
 20
14.5816200524656
 30
0.0
 40
0.0999999999999996
 50
269.999999999999
 51
89.9999999999998
  0
ARC
  8
1
  6
CONTINUOUS
 62
1
 10
15.5517026375653
 20
14.5816200524656
 30
0.0
 40
0.0999999999999996
 50
89.9999999999998
 51
270
  0
ARC
  8
1
  6
CONTINUOUS
 62
1
 10
15.5517026375653
 20
11.0566700524656
 30
0.0
 40
0.0999999999999996
 50
269.999999999999
 51
89.9999999999998
  0
ARC
  8
1
  6
CONTINUOUS
 62
1
 10
15.5517026375653
 20
11.0566700524656
 30
0.0
 40
0.0999999999999996
 50
89.9999999999998
 51
270
  0
ARC
  8
1
  6
CONTINUOUS
 62
1
 10
12.8847026375654
 20
14.5816200524656
 30
0.0
 40
0.0999999999999996
 50
269.999999999999
 51
89.9999999999998
  0
ARC
  8
1
  6
CONTINUOUS
 62
1
 10
12.8847026375654
 20
14.5816200524656
 30
0.0
 40
0.0999999999999996
 50
89.9999999999998
 51
270
  0
ARC
  8
1
  6
CONTINUOUS
 62
1
 10
7.18270263756527
 20
3.44862005246563
 30
0.0
 40
0.100000000000001
 50
269.999999999999
 51
89.9999999999998
  0
ARC
  8
1
  6
CONTINUOUS
 62
1
 10
7.18270263756527
 20
3.44862005246563
 30
0.0
 40
0.100000000000001
 50
89.9999999999998
 51
270
  0
ARC
  8
1
  6
CONTINUOUS
 62
1
 10
7.18266096661917
 20
6.94262977397451
 30
0.0
 40
0.0999999999999996
 50
269.999999999999
 51
89.9999999999998
  0
ARC
  8
1
  6
CONTINUOUS
 62
1
 10
7.18266096661917
 20
6.94262977397451
 30
0.0
 40
0.0999999999999996
 50
89.9999999999998
 51
270
  0
ARC
  8
1
  6
CONTINUOUS
 62
1
 10
4.51575104494047
 20
3.44859505930529
 30
0.0
 40
0.0999999999999996
 50
269.999999999999
 51
89.9999999999998
  0
ARC
  8
1
  6
CONTINUOUS
 62
1
 10
4.51575104494047
 20
3.44859505930529
 30
0.0
 40
0.0999999999999996
 50
89.9999999999998
 51
270
  0
LINE
  8
1
  6
CONTINUOUS
 62
1
 10
0.50770264496337
 20
-0.00237994753401427
 30
0.0
 11
0.506937514245969
 21
0.323619490997346
 31
0.0
  0
LINE
  8
1
  6
CONTINUOUS
 62
1
 10
0.506937514245969
 20
0.323619490997346
 30
0.0
 11
0.00693751424596911
 21
0.323619490997346
 31
0.0
  0
LINE
  8
1
  6
CONTINUOUS
 62
1
 10
0.00693751424596911
 20
0.323619490997346
 30
0.0
 11
0.00770264496336992
 21
-0.00237994753401449
 31
0.0
  0
LINE
  8
1
  6
CONTINUOUS
 62
1
 10
0.00770264496336992
 20
-0.00237994753401449
 30
0.0
 11
0.50770264496337
 21
-0.00237994753401427
 31
0.0
  0
LINE
  8
1
  6
CONTINUOUS
 62
1
 10
0.00770263756526646
 20
17.9976200524656
 30
0.0
 11
0.00770263756526646
 21
8.9976200524656
 31
0.0
  0
LINE
  8
1
  6
CONTINUOUS
 62
1
 10
0.507798237317864
 20
17.6731831328709
 30
0.0
 11
0.507826553324065
 21
17.9991831316411
 31
0.0
  0
LINE
  8
1
  6
CONTINUOUS
 62
1
 10
0.507826553324065
 20
17.9991831316411
 30
0.0
 11
0.00782659405086505
 21
17.9996520159478
 31
0.0
  0
LINE
  8
1
  6
CONTINUOUS
 62
1
 10
0.00782659405086505
 20
17.9996520159478
 30
0.0
 11
0.00835748716296436
 21
17.6736524482295
 31
0.0
  0
LINE
  8
1
  6
CONTINUOUS
 62
1
 10
0.00835748716296436
 20
17.6736524482295
 30
0.0
 11
0.507798237317864
 21
17.6731831328709
 31
0.0
  0
LINE
  8
1
  6
CONTINUOUS
 62
1
 10
18.5077026375653
 20
-0.00237994753436954
 30
0.0
 11
18.5072302784939
 21
0.31011826745541
 31
0.0
  0
LINE
  8
1
  6
CONTINUOUS
 62
1
 10
18.5072302784939
 20
0.31011826745541
 30
0.0
 11
17.967228914252
 21
0.31004170924642
 31
0.0
  0
LINE
  8
1
  6
CONTINUOUS
 62
1
 10
17.967228914252
 20
0.31004170924642
 30
0.0
 11
17.9677012733234
 21
-0.00245650574334999
 31
0.0
  0
LINE
  8
1
  6
CONTINUOUS
 62
1
 10
17.9677012733234
 20
-0.00245650574334999
 30
0.0
 11
18.5077026375653
 21
-0.00237994753436954
 31
0.0
  0
LINE
  8
1
  6
CONTINUOUS
 62
1
 10
18.5076153764833
 20
17.6848237753659
 30
0.0
 11
18.5077026446007
 21
17.9973237144401
 31
0.0
  0
LINE
  8
1
  6
CONTINUOUS
 62
1
 10
18.5077026446007
 20
17.9973237144401
 30
0.0
 11
17.967706563554
 21
17.996352670984
 31
0.0
  0
LINE
  8
1
  6
CONTINUOUS
 62
1
 10
17.967706563554
 20
17.996352670984
 30
0.0
 11
17.9676192954366
 21
17.6838527319098
 31
0.0
  0
LINE
  8
1
  6
CONTINUOUS
 62
1
 10
17.9676192954366
 20
17.6838527319098
 30
0.0
 11
18.5076153764833
 21
17.6848237753659
 31
0.0
  0
LINE
  8
6
  6
CONTINUOUS
 62
6
 10
4.94167814258269
 20
16.5499026901662
 30
0.0
 11
4.94167814258269
 21
15.8507733134299
 31
0.0
  0
LINE
  8
6
  6
CONTINUOUS
 62
6
 10
4.97917814258269
 20
15.8507733134299
 30
0.0
 11
5.21542814258269
 21
15.8507733134299
 31
0.0
  0
ARC
  8
6
  6
CONTINUOUS
 62
6
 10
5.21542814257497
 20
16.0257733134299
 30
0.0
 40
0.175000000000001
 50
270.000000002529
 51
89.9818814817933
  0
LINE
  8
6
  6
CONTINUOUS
 62
6
 10
5.21548348243874
 20
16.2007733046799
 30
0.0
 11
5.20161250836255
 21
16.2007733046799
 31
0.0
  0
ARC
  8
6
  6
CONTINUOUS
 62
6
 10
5.18417810240688
 20
16.37490268816
 30
0.0
 40
0.175000002006252
 50
275.717586846254
 51
89.9999868462584
  0
LINE
  8
6
  6
CONTINUOUS
 62
6
 10
5.18417814258269
 20
16.5499026901662
 30
0.0
 11
4.97917814258269
 21
16.5499026901662
 31
0.0
  0
LINE
  8
6
  6
CONTINUOUS
 62
6
 10
4.97917814258269
 20
16.2007733046799
 30
0.0
 11
5.20161250836255
 21
16.2007733046799
 31
0.0
  0
ARC
  8
6
  6
CONTINUOUS
 62
6
 10
5.67357574257496
 20
16.3417296901662
 30
0.0
 40
0.208172999999999
 50
93.4424652776283
 51
164.097999999999
  0
ARC
  8
6
  6
CONTINUOUS
 62
6
 10
6.06404399070258
 20
16.1987673959181
 30
0.0
 40
0.623615934640423
 50
161.2941
 51
198.7059
  0
ARC
  8
6
  6
CONTINUOUS
 62
6
 10
5.67357552669861
 20
16.0558052138202
 30
0.0
 40
0.208172711190178
 50
195.902054741785
 51
266.557589464157
  0
ARC
  8
6
  6
CONTINUOUS
 62
6
 10
5.67357574257497
 20
16.0558054901662
 30
0.0
 40
0.208173
 50
273.442465277628
 51
344.097999999997
  0
ARC
  8
6
  6
CONTINUOUS
 62
6
 10
5.28310753263829
 20
16.198767771483
 30
0.0
 40
0.623615894319626
 50
341.294099999999
 51
18.7059000000007
  0
ARC
  8
6
  6
CONTINUOUS
 62
6
 10
5.67357604020654
 20
16.3417298124909
 30
0.0
 40
0.208172860024592
 50
15.9020797482312
 51
86.5576144706042
  0
LINE
  8
6
  6
CONTINUOUS
 62
6
 10
5.95672354257496
 20
16.5499026901662
 30
0.0
 11
6.18047354257496
 21
16.5499026901662
 31
0.0
  0
LINE
  8
6
  6
CONTINUOUS
 62
6
 10
6.18047354257496
 20
16.5499026901662
 30
0.0
 11
6.18047359257496
 21
15.8499026901662
 31
0.0
  0
LINE
  8
6
  6
CONTINUOUS
 62
6
 10
6.18047359257499
 20
16.5499026901662
 30
0.0
 11
6.40422354257496
 21
16.5499026901662
 31
0.0
  0
LINE
  8
6
  6
CONTINUOUS
 62
6
 10
6.45422354257496
 20
16.5499026901662
 30
0.0
 11
6.67797354257496
 21
16.5499026901662
 31
0.0
  0
LINE
  8
6
  6
CONTINUOUS
 62
6
 10
6.67797354257496
 20
16.5499026901662
 30
0.0
 11
6.67797359257496
 21
15.8499026901662
 31
0.0
  0
LINE
  8
6
  6
CONTINUOUS
 62
6
 10
6.67797359257499
 20
16.5499026901662
 30
0.0
 11
6.90172354257496
 21
16.5499026901662
 31
0.0
  0
ARC
  8
6
  6
CONTINUOUS
 62
6
 10
7.18487114257496
 20
16.3417296901662
 30
0.0
 40
0.208172999999999
 50
93.4424652776284
 51
164.097999999999
  0
ARC
  8
6
  6
CONTINUOUS
 62
6
 10
7.57533939070258
 20
16.1987673959181
 30
0.0
 40
0.623615934640423
 50
161.2941
 51
198.7059
  0
ARC
  8
6
  6
CONTINUOUS
 62
6
 10
7.18487092669861
 20
16.0558052138202
 30
0.0
 40
0.208172711190177
 50
195.902054741785
 51
266.557589464157
  0
ARC
  8
6
  6
CONTINUOUS
 62
6
 10
7.18487114257497
 20
16.0558054901662
 30
0.0
 40
0.208173
 50
273.442465277628
 51
344.097999999997
  0
ARC
  8
6
  6
CONTINUOUS
 62
6
 10
6.79440293263829
 20
16.198767771483
 30
0.0
 40
0.623615894319626
 50
341.294099999999
 51
18.7059000000007
  0
ARC
  8
6
  6
CONTINUOUS
 62
6
 10
7.18487144020654
 20
16.3417298124909
 30
0.0
 40
0.208172860024592
 50
15.9020797482312
 51
86.5576144706042
  0
LINE
  8
6
  6
CONTINUOUS
 62
6
 10
7.47051894257496
 20
15.8499026901662
 30
0.0
 11
7.47051894257496
 21
16.5499026901662
 31
0.0
  0
LINE
  8
6
  6
CONTINUOUS
 62
6
 10
7.47051894257496
 20
16.5499026901662
 30
0.0
 11
7.76551894257494
 21
16.0549026901662
 31
0.0
  0
LINE
  8
6
  6
CONTINUOUS
 62
6
 10
7.76551894257494
 20
16.0549026901662
 30
0.0
 11
8.06051894257494
 21
16.5499026901662
 31
0.0
  0
LINE
  8
6
  6
CONTINUOUS
 62
6
 10
8.06051894257494
 20
16.5499026901662
 30
0.0
 11
8.06051894257494
 21
15.8499026901662
 31
0.0
  0
LINE
  8
6
  6
CONTINUOUS
 62
6
 10
8.66051894257494
 20
16.1999026901662
 30
0.0
 11
9.06051899257494
 21
16.1999026901662
 31
0.0
  0
LINE
  8
6
  6
CONTINUOUS
 62
6
 10
9.66051899257494
 20
16.5499026901662
 30
0.0
 11
9.88426899257494
 21
16.5499026901662
 31
0.0
  0
LINE
  8
6
  6
CONTINUOUS
 62
6
 10
9.88426899257494
 20
16.5499026901662
 30
0.0
 11
9.88426904257494
 21
15.8499026901662
 31
0.0
  0
LINE
  8
6
  6
CONTINUOUS
 62
6
 10
9.88426904257496
 20
16.5499026901662
 30
0.0
 11
10.1080189925749
 21
16.5499026901662
 31
0.0
  0
LINE
  8
6
  6
CONTINUOUS
 62
6
 10
10.1580189925749
 20
16.5499026901662
 30
0.0
 11
10.1580189925749
 21
16.1999026901662
 31
0.0
  0
LINE
  8
6
  6
CONTINUOUS
 62
6
 10
10.1580189925749
 20
16.1999026901662
 30
0.0
 11
10.1580189925749
 21
15.8499026901662
 31
0.0
  0
LINE
  8
6
  6
CONTINUOUS
 62
6
 10
10.1580189925749
 20
16.1999026901662
 30
0.0
 11
10.5830189925749
 21
16.1999026901662
 31
0.0
  0
LINE
  8
6
  6
CONTINUOUS
 62
6
 10
10.5830189925749
 20
15.8499026901662
 30
0.0
 11
10.5830189925749
 21
16.1999026901662
 31
0.0
  0
LINE
  8
6
  6
CONTINUOUS
 62
6
 10
10.5830189925749
 20
16.1999026901662
 30
0.0
 11
10.5830189925749
 21
16.5499026901662
 31
0.0
  0
LINE
  8
6
  6
CONTINUOUS
 62
6
 10
10.6330189925749
 20
16.5499026901662
 30
0.0
 11
10.7330189457174
 21
16.5499026901662
 31
0.0
  0
LINE
  8
6
  6
CONTINUOUS
 62
6
 10
10.7330189457174
 20
16.5499026901662
 30
0.0
 11
10.8330189457174
 21
16.5499026901662
 31
0.0
  0
LINE
  8
6
  6
CONTINUOUS
 62
6
 10
10.7330189457174
 20
16.5499026901662
 30
0.0
 11
10.7330189457174
 21
15.8499026901662
 31
0.0
  0
LINE
  8
6
  6
CONTINUOUS
 62
6
 10
10.6330189925749
 20
15.8499026901662
 30
0.0
 11
10.7330189457174
 21
15.8499026901662
 31
0.0
  0
LINE
  8
6
  6
CONTINUOUS
 62
6
 10
10.7330189457174
 20
15.8499026901662
 30
0.0
 11
10.8330189457174
 21
15.8499026901662
 31
0.0
  0
ARC
  8
6
  6
CONTINUOUS
 62
6
 10
11.1309439089632
 20
16.3474219401662
 30
0.0
 40
0.201785649999994
 50
30.5220200000003
 51
89.2984800000003
  0
LINE
  8
6
  6
CONTINUOUS
 62
6
 10
11.1334144771898
 20
16.5491924653639
 30
0.0
 11
11.0765372589632
 21
16.5498888901662
 31
0.0
  0
ARC
  8
6
  6
CONTINUOUS
 62
6
 10
11.0742818985823
 20
16.3656928585786
 30
0.0
 40
0.184209838779204
 50
89.2984855715477
 51
177.350705571549
  0
ARC
  8
6
  6
CONTINUOUS
 62
6
 10
11.040106979545
 20
16.387797076662
 30
0.0
 40
0.150453024370534
 50
185.18227425511
 51
239.34477425511
  0
LINE
  8
6
  6
CONTINUOUS
 62
6
 10
10.96339537211
 20
16.2583697154628
 30
0.0
 11
11.2388924589632
 21
16.1400455401662
 31
0.0
  0
ARC
  8
6
  6
CONTINUOUS
 62
6
 10
11.1621809889611
 20
16.0106181629623
 30
0.0
 40
0.150452968065694
 50
5.18223938609813
 51
59.3448223860981
  0
ARC
  8
6
  6
CONTINUOUS
 62
6
 10
11.1280060813875
 20
16.0327223731144
 30
0.0
 40
0.184209783657818
 50
269.441077271098
 51
357.3506772711
  0
LINE
  8
6
  6
CONTINUOUS
 62
6
 10
11.1262091357327
 20
15.8485213541661
 30
0.0
 11
11.0548756089632
 21
15.8492172401662
 31
0.0
  0
ARC
  8
6
  6
CONTINUOUS
 62
6
 10
11.0568439672329
 20
16.0509932158954
 30
0.0
 40
0.201785576332289
 50
210.52198785121
 51
269.44108785121
  0
ARC
  8
6
  6
CONTINUOUS
 62
6
 10
12.1599439355153
 20
16.3474219401662
 30
0.0
 40
0.201785649999994
 50
30.5220200000003
 51
89.2984800000003
  0
LINE
  8
6
  6
CONTINUOUS
 62
6
 10
12.1624145037419
 20
16.5491924653639
 30
0.0
 11
12.1055372855153
 21
16.5498888901662
 31
0.0
  0
ARC
  8
6
  6
CONTINUOUS
 62
6
 10
12.1032819251345
 20
16.3656928585786
 30
0.0
 40
0.184209838779204
 50
89.2984855715477
 51
177.350705571549
  0
ARC
  8
6
  6
CONTINUOUS
 62
6
 10
12.0691070060971
 20
16.387797076662
 30
0.0
 40
0.150453024370534
 50
185.18227425511
 51
239.34477425511
  0
LINE
  8
6
  6
CONTINUOUS
 62
6
 10
11.9923953986621
 20
16.2583697154628
 30
0.0
 11
12.2678924855153
 21
16.1400455401662
 31
0.0
  0
ARC
  8
6
  6
CONTINUOUS
 62
6
 10
12.1911810155132
 20
16.0106181629623
 30
0.0
 40
0.150452968065694
 50
5.18223938609813
 51
59.3448223860981
  0
ARC
  8
6
  6
CONTINUOUS
 62
6
 10
12.1570061079396
 20
16.0327223731144
 30
0.0
 40
0.184209783657818
 50
269.441077271098
 51
357.3506772711
  0
LINE
  8
6
  6
CONTINUOUS
 62
6
 10
12.1552091622848
 20
15.8485213541661
 30
0.0
 11
12.0838756355153
 21
15.8492172401662
 31
0.0
  0
ARC
  8
6
  6
CONTINUOUS
 62
6
 10
12.085843993785
 20
16.0509932158954
 30
0.0
 40
0.201785576332289
 50
210.52198785121
 51
269.44108785121
  0
LINE
  8
6
  6
CONTINUOUS
 62
6
 10
12.3910189988217
 20
16.5499026901662
 30
0.0
 11
12.4910189519642
 21
16.5499026901662
 31
0.0
  0
LINE
  8
6
  6
CONTINUOUS
 62
6
 10
12.4910189519642
 20
16.5499026901662
 30
0.0
 11
12.5910189519642
 21
16.5499026901662
 31
0.0
  0
LINE
  8
6
  6
CONTINUOUS
 62
6
 10
12.4910189519642
 20
16.5499026901662
 30
0.0
 11
12.4910189519642
 21
15.8499026901662
 31
0.0
  0
LINE
  8
6
  6
CONTINUOUS
 62
6
 10
12.3910189988217
 20
15.8499026901662
 30
0.0
 11
12.4910189519642
 21
15.8499026901662
 31
0.0
  0
LINE
  8
6
  6
CONTINUOUS
 62
6
 10
12.4910189519642
 20
15.8499026901662
 30
0.0
 11
12.5910189519642
 21
15.8499026901662
 31
0.0
  0
LINE
  8
6
  6
CONTINUOUS
 62
6
 10
12.6410189519642
 20
16.5499026901662
 30
0.0
 11
12.6410189519642
 21
15.8499026901662
 31
0.0
  0
LINE
  8
6
  6
CONTINUOUS
 62
6
 10
12.6785189519642
 20
15.8499026901662
 30
0.0
 11
12.8362687519642
 21
15.8499026901662
 31
0.0
  0
ARC
  8
6
  6
CONTINUOUS
 62
6
 10
12.8121213147013
 20
16.1061920493571
 30
0.0
 40
0.257424424561522
 50
275.382485884765
 51
335.613185884765
  0
ARC
  8
6
  6
CONTINUOUS
 62
6
 10
12.455903386134
 20
16.1999029551328
 30
0.0
 40
0.623615704825761
 50
341.294099999999
 51
18.7059000000007
  0
ARC
  8
6
  6
CONTINUOUS
 62
6
 10
12.812121724714
 20
16.2936135652314
 30
0.0
 40
0.257424190520488
 50
24.3869099871628
 51
84.6174899871628
  0
LINE
  8
6
  6
CONTINUOUS
 62
6
 10
12.8362692479499
 20
16.5499026812443
 30
0.0
 11
12.6785189519642
 21
16.5499026901662
 31
0.0
  0
LINE
  8
6
  6
CONTINUOUS
 62
6
 10
13.1295191519642
 20
16.5499026901662
 30
0.0
 11
13.1300191519642
 21
15.8499026901663
 31
0.0
  0
LINE
  8
6
  6
CONTINUOUS
 62
6
 10
13.1300191519642
 20
15.8499026901663
 30
0.0
 11
13.5405191519642
 21
15.8499026901663
 31
0.0
  0
LINE
  8
6
  6
CONTINUOUS
 62
6
 10
13.1300191519642
 20
16.1999026901663
 30
0.0
 11
13.4505191519642
 21
16.1999026901663
 31
0.0
  0
LINE
  8
6
  6
CONTINUOUS
 62
6
 10
13.142019155153
 20
16.5499026901662
 30
0.0
 11
13.1420191487754
 21
16.5499116187354
 31
0.0
  0
LINE
  8
6
  6
CONTINUOUS
 62
6
 10
13.1420191487754
 20
16.5499116187354
 30
0.0
 11
13.5405191519642
 21
16.5499026901662
 31
0.0
  0
LINE
  8
6
  6
CONTINUOUS
 62
6
 10
14.1405191519642
 20
16.5499026901662
 30
0.0
 11
14.1405191519642
 21
16.0499026401662
 31
0.0
  0
ARC
  8
6
  6
CONTINUOUS
 62
6
 10
14.3455434960401
 20
16.0504025931248
 30
0.0
 40
0.205024953643985
 50
180.139715787557
 51
270.698715787557
  0
ARC
  8
6
  6
CONTINUOUS
 62
6
 10
14.3455435519642
 20
16.0504026401662
 30
0.0
 40
0.205024999999997
 50
270.698699999994
 51
1.25769999999925
  0
LINE
  8
6
  6
CONTINUOUS
 62
6
 10
14.5505191586414
 20
16.054902783755
 30
0.0
 11
14.5505191519642
 21
16.5499026901662
 31
0.0
  0
LINE
  8
6
  6
CONTINUOUS
 62
6
 10
14.6005191519642
 20
16.5499026901662
 30
0.0
 11
14.6005191519642
 21
15.8499026901662
 31
0.0
  0
LINE
  8
6
  6
CONTINUOUS
 62
6
 10
14.6380191519642
 20
16.5499026901662
 30
0.0
 11
14.8545191519642
 21
16.5499026901662
 31
0.0
  0
ARC
  8
6
  6
CONTINUOUS
 62
6
 10
14.8545191519642
 20
16.3749026901662
 30
0.0
 40
0.174999999999999
 50
359.995599999999
 51
90.000000000001
  0
ARC
  8
6
  6
CONTINUOUS
 62
6
 10
14.8545191519642
 20
16.3749026901662
 30
0.0
 40
0.175000000000008
 50
269.991199999995
 51
359.995599999997
  0
LINE
  8
6
  6
CONTINUOUS
 62
6
 10
14.8544922738938
 20
16.1999026922303
 30
0.0
 11
14.6380191519642
 21
16.1999026901662
 31
0.0
  0
LINE
  8
7
  6
CONTINUOUS
 62
7
 10
0.605299622242885
 20
6.10197980440334
 30
0.0
 11
0.605207561076398
 21
6.16197970566161
 31
0.0
  0
LINE
  8
7
  6
CONTINUOUS
 62
7
 10
0.605207561076398
 20
6.16197970566161
 30
0.0
 11
0.605115499866772
 21
6.22197963503435
 31
0.0
  0
LINE
  8
7
  6
CONTINUOUS
 62
7
 10
0.605207561076398
 20
6.16197970566161
 30
0.0
 11
1.02520706668557
 21
6.16262413412898
 31
0.0
  0
LINE
  8
7
  6
CONTINUOUS
 62
7
 10
1.02529912785206
 20
6.10262423287071
 30
0.0
 11
1.02520706668557
 21
6.16262413412898
 31
0.0
  0
LINE
  8
7
  6
CONTINUOUS
 62
7
 10
1.02520706668557
 20
6.16262413412898
 30
0.0
 11
1.02511500547595
 21
6.22262406350172
 31
0.0
  0
LINE
  8
7
  6
CONTINUOUS
 62
7
 10
1.02506667334089
 20
6.25412402642241
 30
0.0
 11
0.605067167731719
 21
6.25347959795503
 31
0.0
  0
LINE
  8
7
  6
CONTINUOUS
 62
7
 10
0.605067167731719
 20
6.25347959795503
 30
0.0
 11
1.0246717307516
 21
6.51152372343146
 31
0.0
  0
LINE
  8
7
  6
CONTINUOUS
 62
7
 10
1.0246717307516
 20
6.51152372343146
 30
0.0
 11
0.604672225142427
 21
6.51087929496409
 31
0.0
  0
ARC
  8
7
  6
CONTINUOUS
 62
7
 10
0.725886258810876
 20
6.68982046872299
 30
0.0
 40
0.121071389999996
 50
120.609932013968
 51
179.386392013968
  0
LINE
  8
7
  6
CONTINUOUS
 62
7
 10
0.604821811762256
 20
6.69111705552792
 30
0.0
 11
0.604456319227848
 21
6.65699012362565
 31
0.0
  0
ARC
  8
7
  6
CONTINUOUS
 62
7
 10
0.714975884399832
 20
6.65580648208482
 30
0.0
 40
0.110525903267523
 50
179.386397585515
 51
267.438617585516
  0
ARC
  8
7
  6
CONTINUOUS
 62
7
 10
0.701744831005304
 20
6.63528120538867
 30
0.0
 40
0.0902718146223222
 50
275.270186269076
 51
329.432686269077
  0
LINE
  8
7
  6
CONTINUOUS
 62
7
 10
0.779471777947534
 20
6.58937344750128
 30
0.0
 11
0.850212573605706
 21
6.7547804357042
 31
0.0
  0
ARC
  8
7
  6
CONTINUOUS
 62
7
 10
0.927939530024269
 20
6.70887276029119
 30
0.0
 40
0.0902717808394174
 50
95.2701514000648
 51
149.432734400065
  0
ARC
  8
7
  6
CONTINUOUS
 62
7
 10
0.914708481377908
 20
6.68834749048061
 30
0.0
 40
0.11052587019469
 50
359.528989285065
 51
87.4385892850676
  0
LINE
  8
7
  6
CONTINUOUS
 62
7
 10
1.02523061694063
 20
6.68743890204303
 30
0.0
 11
1.02487875633967
 21
6.64463819572117
 31
0.0
  0
ARC
  8
7
  6
CONTINUOUS
 62
7
 10
0.903811501316553
 20
6.64563345188883
 30
0.0
 40
0.121071345799374
 50
300.609899865177
 51
359.528999865177
  0
LINE
  8
7
  6
CONTINUOUS
 62
7
 10
0.604185221319065
 20
6.82827893727713
 30
0.0
 11
1.02418426662216
 21
6.82922336539137
 31
0.0
  0
LINE
  8
7
  6
CONTINUOUS
 62
7
 10
1.02418426662216
 20
6.82922336539137
 30
0.0
 11
1.02380635535665
 21
7.07552307546646
 31
0.0
  0
LINE
  8
7
  6
CONTINUOUS
 62
7
 10
0.814184513817574
 20
6.82890115115768
 30
0.0
 11
0.813889457640726
 21
7.02120092479731
 31
0.0
  0
LINE
  8
7
  6
CONTINUOUS
 62
7
 10
0.604173713664927
 20
6.83577893036199
 30
0.0
 11
0.604168356535615
 21
6.83577891831571
 31
0.0
  0
LINE
  8
7
  6
CONTINUOUS
 62
7
 10
0.604168356535615
 20
6.83577891831571
 30
0.0
 11
0.603806849747506
 21
7.07487864699909
 31
0.0
  0
LINE
  8
7
  6
CONTINUOUS
 62
7
 10
0.603760819142694
 20
7.10487861168546
 30
0.0
 11
1.02376032475187
 21
7.10552304015283
 31
0.0
  0
LINE
  8
7
  6
CONTINUOUS
 62
7
 10
0.603726296189084
 20
7.12737858520023
 30
0.0
 11
0.603526983670245
 21
7.25727843229222
 31
0.0
  0
ARC
  8
7
  6
CONTINUOUS
 62
7
 10
0.708526860072544
 20
7.25743953940907
 30
0.0
 40
0.105000000000006
 50
90.0835120139691
 51
180.087912013971
  0
ARC
  8
7
  6
CONTINUOUS
 62
7
 10
0.708526860072528
 20
7.25743953940906
 30
0.0
 40
0.105000000000012
 50
0.0791120139588144
 51
90.0835120139607
  0
LINE
  8
7
  6
CONTINUOUS
 62
7
 10
0.813526759980659
 20
7.25758451970075
 30
0.0
 11
1.02336538216258
 21
7.36292273716188
 31
0.0
  0
LINE
  8
7
  6
CONTINUOUS
 62
7
 10
0.813726048993671
 20
7.12770079943392
 30
0.0
 11
0.813526761331359
 21
7.25758444654497
 31
0.0
  0
LINE
  8
7
  6
CONTINUOUS
 62
7
 10
0.603319845948589
 20
7.39227827338088
 30
0.0
 11
0.603113858992052
 21
7.52652811535238
 31
0.0
  0
LINE
  8
7
  6
CONTINUOUS
 62
7
 10
0.603113858992052
 20
7.52652811535238
 30
0.0
 11
1.0231133645552
 21
7.52717257381972
 31
0.0
  0
LINE
  8
7
  6
CONTINUOUS
 62
7
 10
0.603113858946017
 20
7.52652814535236
 30
0.0
 11
0.602907872035516
 21
7.66077795732389
 31
0.0
  0
LINE
  8
7
  6
CONTINUOUS
 62
7
 10
0.602355504777765
 20
8.02077753356032
 30
0.0
 11
0.602149517821228
 21
8.15502737553183
 31
0.0
  0
LINE
  8
7
  6
CONTINUOUS
 62
7
 10
0.602149517821228
 20
8.15502737553183
 30
0.0
 11
1.02214902338437
 21
8.15567183399916
 31
0.0
  0
LINE
  8
7
  6
CONTINUOUS
 62
7
 10
0.602149517775193
 20
8.1550274055318
 30
0.0
 11
0.601943530864692
 21
8.28927721750333
 31
0.0
  0
LINE
  8
7
  6
CONTINUOUS
 62
7
 10
0.60189750025988
 20
8.3192771821897
 30
0.0
 11
0.811897253064466
 21
8.31959939642338
 31
0.0
  0
LINE
  8
7
  6
CONTINUOUS
 62
7
 10
0.811897253064466
 20
8.31959939642338
 30
0.0
 11
1.02189700586905
 21
8.31992161065708
 31
0.0
  0
LINE
  8
7
  6
CONTINUOUS
 62
7
 10
0.811897253064466
 20
8.31959939642338
 30
0.0
 11
0.81150599292356
 21
8.57459909625753
 31
0.0
  0
LINE
  8
7
  6
CONTINUOUS
 62
7
 10
1.02150574572815
 20
8.57492131049122
 30
0.0
 11
0.81150599292356
 21
8.57459909625753
 31
0.0
  0
LINE
  8
7
  6
CONTINUOUS
 62
7
 10
0.81150599292356
 20
8.57459909625753
 30
0.0
 11
0.601506240118972
 21
8.57427688202384
 31
0.0
  0
LINE
  8
7
  6
CONTINUOUS
 62
7
 10
0.60146020951416
 20
8.60427684671021
 30
0.0
 11
0.601368148347673
 21
8.66427674796848
 31
0.0
  0
LINE
  8
7
  6
CONTINUOUS
 62
7
 10
0.601368148347673
 20
8.66427674796848
 30
0.0
 11
0.601276087138047
 21
8.72427667734122
 31
0.0
  0
LINE
  8
7
  6
CONTINUOUS
 62
7
 10
0.601368148347673
 20
8.66427674796848
 30
0.0
 11
1.02136765395685
 21
8.66492117643586
 31
0.0
  0
LINE
  8
7
  6
CONTINUOUS
 62
7
 10
1.02145971512333
 20
8.60492127517758
 30
0.0
 11
1.02136765395685
 21
8.66492117643586
 31
0.0
  0
LINE
  8
7
  6
CONTINUOUS
 62
7
 10
1.02136765395685
 20
8.66492117643586
 30
0.0
 11
1.02127559274722
 21
8.7249211058086
 31
0.0
  0
ARC
  8
7
  6
CONTINUOUS
 62
7
 10
0.722490120806495
 20
8.90321785110013
 30
0.0
 40
0.121071389999994
 50
120.609932013967
 51
179.386392013967
  0
LINE
  8
7
  6
CONTINUOUS
 62
7
 10
0.601425673757876
 20
8.90451443790506
 30
0.0
 11
0.601060181223469
 21
8.87038750600279
 31
0.0
  0
ARC
  8
7
  6
CONTINUOUS
 62
7
 10
0.711579746395452
 20
8.86920386446195
 30
0.0
 40
0.110525903267522
 50
179.386397585515
 51
267.438617585516
  0
ARC
  8
7
  6
CONTINUOUS
 62
7
 10
0.698348693000924
 20
8.8486785877658
 30
0.0
 40
0.0902718146223222
 50
275.270186269076
 51
329.432686269077
  0
LINE
  8
7
  6
CONTINUOUS
 62
7
 10
0.776075639943154
 20
8.80277082987842
 30
0.0
 11
0.846816435601326
 21
8.96817781808133
 31
0.0
  0
ARC
  8
7
  6
CONTINUOUS
 62
7
 10
0.92454339201989
 20
8.92227014266832
 30
0.0
 40
0.0902717808394179
 50
95.2701514000653
 51
149.432734400065
  0
ARC
  8
7
  6
CONTINUOUS
 62
7
 10
0.911312343373529
 20
8.90174487285774
 30
0.0
 40
0.11052587019469
 50
359.528989285066
 51
87.4385892850681
  0
LINE
  8
7
  6
CONTINUOUS
 62
7
 10
1.02183447893625
 20
8.90083628442017
 30
0.0
 11
1.02148261833529
 21
8.85803557809831
 31
0.0
  0
ARC
  8
7
  6
CONTINUOUS
 62
7
 10
0.900415363312176
 20
8.85903083426597
 30
0.0
 40
0.121071345799371
 50
300.609899865176
 51
359.528999865176
  0
LINE
  8
7
  6
CONTINUOUS
 62
7
 10
0.600282746661748
 20
9.37167593120433
 30
0.0
 11
1.02028179196484
 21
9.37262035931857
 31
0.0
  0
LINE
  8
7
  6
CONTINUOUS
 62
7
 10
1.02028179196484
 20
9.37262035931857
 30
0.0
 11
1.01990388069933
 21
9.61892006939366
 31
0.0
  0
LINE
  8
7
  6
CONTINUOUS
 62
7
 10
0.810282039160256
 20
9.37229814508488
 30
0.0
 11
0.809986982983407
 21
9.56459791872451
 31
0.0
  0
LINE
  8
7
  6
CONTINUOUS
 62
7
 10
0.600271239007609
 20
9.37917592428919
 30
0.0
 11
0.600265881878296
 21
9.37917591224291
 31
0.0
  0
LINE
  8
7
  6
CONTINUOUS
 62
7
 10
0.600265881878296
 20
9.37917591224291
 30
0.0
 11
0.599904375090188
 21
9.61827564092629
 31
0.0
  0
LINE
  8
7
  6
CONTINUOUS
 62
7
 10
1.01985554856431
 20
9.65042003231435
 30
0.0
 11
0.599856042955135
 21
9.64977560384698
 31
0.0
  0
LINE
  8
7
  6
CONTINUOUS
 62
7
 10
0.599856042955135
 20
9.64977560384698
 30
0.0
 11
1.01946060597502
 21
9.9078197293234
 31
0.0
  0
LINE
  8
7
  6
CONTINUOUS
 62
7
 10
1.01946060597502
 20
9.9078197293234
 30
0.0
 11
0.599461100365843
 21
9.90717530085603
 31
0.0
  0
LINE
  8
7
  6
CONTINUOUS
 62
7
 10
0.59941506976103
 20
9.9371752655424
 30
0.0
 11
1.0194145753702
 21
9.93781969400977
 31
0.0
  0
LINE
  8
7
  6
CONTINUOUS
 62
7
 10
1.01938005241659
 20
9.96031966752455
 30
0.0
 11
1.01923482604253
 21
10.0549694361102
 31
0.0
  0
ARC
  8
7
  6
CONTINUOUS
 62
7
 10
0.865483621961003
 20
10.0402450477229
 30
0.0
 40
0.154454654736914
 50
5.47039789873381
 51
65.7010978987338
  0
ARC
  8
7
  6
CONTINUOUS
 62
7
 10
0.809585066370999
 20
9.82642827645059
 30
0.0
 40
0.374169422895454
 50
71.3820092922482
 51
108.79380929225
  0
ARC
  8
7
  6
CONTINUOUS
 62
7
 10
0.753030844429656
 20
10.0400727512156
 30
0.0
 40
0.154454514312294
 50
114.47482200113
 51
174.70540200113
  0
LINE
  8
7
  6
CONTINUOUS
 62
7
 10
0.599235325329882
 20
10.0543253052421
 30
0.0
 11
0.599380546807421
 21
9.95967523905717
 31
0.0
  0
LINE
  8
7
  6
CONTINUOUS
 62
7
 10
0.59845901391495
 20
10.5602746520782
 30
0.0
 11
0.808458766719506
 21
10.5605968663118
 31
0.0
  0
LINE
  8
7
  6
CONTINUOUS
 62
7
 10
0.808458766719506
 20
10.5605968663118
 30
0.0
 11
1.01845851952412
 21
10.5609190805455
 31
0.0
  0
LINE
  8
7
  6
CONTINUOUS
 62
7
 10
0.808458766719506
 20
10.5605968663118
 30
0.0
 11
0.808163710542658
 21
10.7528966399515
 31
0.0
  0
LINE
  8
7
  6
CONTINUOUS
 62
7
 10
0.598447506263747
 20
10.5677746432497
 30
0.0
 11
0.598081102649439
 21
10.8065743621533
 31
0.0
  0
LINE
  8
7
  6
CONTINUOUS
 62
7
 10
0.598035072044626
 20
10.8365743268396
 30
0.0
 11
0.597943010878138
 21
10.8965742280979
 31
0.0
  0
LINE
  8
7
  6
CONTINUOUS
 62
7
 10
0.597943010878138
 20
10.8965742280979
 30
0.0
 11
0.597850949668513
 21
10.9565741574706
 31
0.0
  0
LINE
  8
7
  6
CONTINUOUS
 62
7
 10
0.597943010878138
 20
10.8965742280979
 30
0.0
 11
1.01794251648731
 21
10.8972186565653
 31
0.0
  0
LINE
  8
7
  6
CONTINUOUS
 62
7
 10
1.0180345776538
 20
10.837218755307
 30
0.0
 11
1.01794251648731
 21
10.8972186565653
 31
0.0
  0
LINE
  8
7
  6
CONTINUOUS
 62
7
 10
1.01794251648731
 20
10.8972186565653
 30
0.0
 11
1.01785045527769
 21
10.957218585938
 31
0.0
  0
LINE
  8
7
  6
CONTINUOUS
 62
7
 10
0.597804919063701
 20
10.986574122157
 30
0.0
 11
1.01780442467287
 21
10.9872185506244
 31
0.0
  0
LINE
  8
7
  6
CONTINUOUS
 62
7
 10
0.597770396110091
 20
11.0090740956718
 30
0.0
 11
0.597571083591252
 21
11.1389739427638
 31
0.0
  0
ARC
  8
7
  6
CONTINUOUS
 62
7
 10
0.702570959993551
 20
11.1391350498806
 30
0.0
 40
0.105000000000006
 50
90.0835120139691
 51
180.087912013971
  0
ARC
  8
7
  6
CONTINUOUS
 62
7
 10
0.702570959993534
 20
11.1391350498806
 30
0.0
 40
0.105000000000013
 50
0.0791120139583564
 51
90.0835120139603
  0
LINE
  8
7
  6
CONTINUOUS
 62
7
 10
0.807570859901666
 20
11.1392800301723
 30
0.0
 11
1.01740948208358
 21
11.2446182476334
 31
0.0
  0
LINE
  8
7
  6
CONTINUOUS
 62
7
 10
0.807770148914678
 20
11.0093963099055
 30
0.0
 11
0.807570861252366
 21
11.1392799570165
 31
0.0
  0
ARC
  8
7
  6
CONTINUOUS
 62
7
 10
0.718624010142859
 20
11.422914992925
 30
0.0
 40
0.121071389999997
 50
120.609932013968
 51
179.386392013968
  0
LINE
  8
7
  6
CONTINUOUS
 62
7
 10
0.597559563094237
 20
11.4242115797299
 30
0.0
 11
0.597194070559829
 21
11.3900846478276
 31
0.0
  0
ARC
  8
7
  6
CONTINUOUS
 62
7
 10
0.707713635731814
 20
11.3889010062868
 30
0.0
 40
0.110525903267523
 50
179.386397585515
 51
267.438617585516
  0
ARC
  8
7
  6
CONTINUOUS
 62
7
 10
0.694482582337284
 20
11.3683757295906
 30
0.0
 40
0.0902718146223232
 50
275.270186269077
 51
329.432686269078
  0
LINE
  8
7
  6
CONTINUOUS
 62
7
 10
0.772209529279515
 20
11.3224679717033
 30
0.0
 11
0.842950324937688
 21
11.4878749599062
 31
0.0
  0
ARC
  8
7
  6
CONTINUOUS
 62
7
 10
0.920677281356251
 20
11.4419672844932
 30
0.0
 40
0.0902717808394179
 50
95.2701514000653
 51
149.432734400065
  0
ARC
  8
7
  6
CONTINUOUS
 62
7
 10
0.907446232709889
 20
11.4214420146826
 30
0.0
 40
0.110525870194691
 50
359.528989285065
 51
87.4385892850674
  0
LINE
  8
7
  6
CONTINUOUS
 62
7
 10
1.01796836827261
 20
11.420533426245
 30
0.0
 11
1.01761650767165
 21
11.3777327199232
 31
0.0
  0
ARC
  8
7
  6
CONTINUOUS
 62
7
 10
0.896549252648534
 20
11.3787279760908
 30
0.0
 40
0.121071345799374
 50
300.609899865177
 51
359.528999865177
  0
LINE
  8
7
  6
CONTINUOUS
 62
7
 10
0.596922972651047
 20
11.5613734614791
 30
0.0
 11
0.596716985694511
 21
11.6956233034506
 31
0.0
  0
LINE
  8
7
  6
CONTINUOUS
 62
7
 10
0.596716985694511
 20
11.6956233034506
 30
0.0
 11
1.01671649125765
 21
11.696267761918
 31
0.0
  0
LINE
  8
7
  6
CONTINUOUS
 62
7
 10
0.596716985648475
 20
11.6956233334506
 30
0.0
 11
0.596510998737974
 21
11.8298731454221
 31
0.0
  0
ENDSEC
  0
EOF
