  0
SECTION
  2
HEADER
  9
$ACADVER
  1
AC1003
  9
$EXTMIN
 10
-0.00838682034491001
 20
18.0034304148882
  9
$EXTMAX
 10
18.4923783100098
 20
0.00132189319707254
  9
$INSBASE
 10
9.24199574483244
 20
9.00237615404265
999
Created with OMAX Layout for Windows. (http://www.omax.com) 9/14/2012
  0
ENDSEC
  0
SECTION
  2
TABLES
  0
TABLE
  2
LAYER
 70
    10
  0
LAYER
  2
0
 70
     0
 62
     7
  6
CONTINUOUS
  0
LAYER
  2
1
 70
     0
 62
     7
  6
CONTINUOUS
  0
LAYER
  2
2
 70
     0
 62
     7
  6
CONTINUOUS
  0
LAYER
  2
3
 70
     0
 62
     7
  6
CONTINUOUS
  0
LAYER
  2
4
 70
     0
 62
     7
  6
CONTINUOUS
  0
LAYER
  2
5
 70
     0
 62
     7
  6
CONTINUOUS
  0
LAYER
  2
6
 70
     0
 62
     7
  6
CONTINUOUS
  0
LAYER
  2
7
 70
     0
 62
     7
  6
CONTINUOUS
  0
LAYER
  2
8
 70
     0
 62
     7
  6
CONTINUOUS
  0
LAYER
  2
9
 70
     0
 62
     7
  6
CONTINUOUS
  0
LAYER
  2
10
 70
     0
 62
     7
  6
CONTINUOUS
  0
LAYER
  2
11
 70
     0
 62
     7
  6
CONTINUOUS
  0
LAYER
  2
12
 70
     0
 62
     7
  6
CONTINUOUS
  0
LAYER
  2
13
 70
     0
 62
     7
  6
CONTINUOUS
  0
LAYER
  2
14
 70
     0
 62
     7
  6
CONTINUOUS
  0
LAYER
  2
15
 70
     0
 62
     7
  6
CONTINUOUS
  0
LAYER
  2
16
 70
     0
 62
     7
  6
CONTINUOUS
  0
LAYER
  2
17
 70
     0
 62
     7
  6
CONTINUOUS
  0
LAYER
  2
18
 70
     0
 62
     7
  6
CONTINUOUS
  0
LAYER
  2
19
 70
     0
 62
     7
  6
CONTINUOUS
  0
LAYER
  2
20
 70
     0
 62
     7
  6
CONTINUOUS
  0
LAYER
  2
21
 70
     0
 62
     7
  6
CONTINUOUS
  0
LAYER
  2
22
 70
     0
 62
     7
  6
CONTINUOUS
  0
LAYER
  2
23
 70
     0
 62
     7
  6
CONTINUOUS
  0
LAYER
  2
24
 70
     0
 62
     7
  6
CONTINUOUS
  0
LAYER
  2
25
 70
     0
 62
     7
  6
CONTINUOUS
  0
LAYER
  2
26
 70
     0
 62
     7
  6
CONTINUOUS
  0
LAYER
  2
27
 70
     0
 62
     7
  6
CONTINUOUS
  0
LAYER
  2
28
 70
     0
 62
     7
  6
CONTINUOUS
  0
LAYER
  2
29
 70
     0
 62
     7
  6
CONTINUOUS
  0
LAYER
  2
30
 70
     0
 62
     7
  6
CONTINUOUS
  0
LAYER
  2
31
 70
     0
 62
     7
  6
CONTINUOUS
  0
ENDTAB
  0
ENDSEC
  0
SECTION
  2
ENTITIES
  0
LINE
  8
1
  6
CONTINUOUS
 62
1
 10
-0.00762169702560911
 20
0.00139845140604833
 30
0.0
 11
-0.00762169702561266
 21
18.001398451406
 31
0.0
  0
LINE
  8
1
  6
CONTINUOUS
 62
1
 10
-0.00762169702561266
 20
18.001398451406
 30
0.0
 11
18.4923783029744
 21
18.001398451406
 31
0.0
  0
LINE
  8
1
  6
CONTINUOUS
 62
1
 10
18.4923783029744
 20
18.001398451406
 30
0.0
 11
18.4923783029744
 21
0.00139845140605299
 31
0.0
  0
LINE
  8
1
  6
CONTINUOUS
 62
1
 10
18.4923783029744
 20
0.00139845140605299
 30
0.0
 11
-0.00762169702560911
 21
0.00139845140604833
 31
0.0
  0
ARC
  8
1
  6
CONTINUOUS
 62
1
 10
3.99237830297439
 20
1.22243191036112
 30
0.0
 40
0.178
 50
269.999999999999
 51
89.9999999999998
  0
ARC
  8
1
  6
CONTINUOUS
 62
1
 10
3.99237830297439
 20
1.22243191036112
 30
0.0
 40
0.178
 50
89.9999999999998
 51
270
  0
ARC
  8
1
  6
CONTINUOUS
 62
1
 10
15.9923783029744
 20
1.22239845140605
 30
0.0
 40
0.178
 50
269.999999999999
 51
89.9999999999998
  0
ARC
  8
1
  6
CONTINUOUS
 62
1
 10
15.9923783029744
 20
1.22239845140605
 30
0.0
 40
0.178
 50
89.9999999999998
 51
270
  0
ARC
  8
1
  6
CONTINUOUS
 62
1
 10
3.99237830297439
 20
16.7804319103611
 30
0.0
 40
0.178000000000001
 50
269.999999999999
 51
89.9999999999998
  0
ARC
  8
1
  6
CONTINUOUS
 62
1
 10
3.99237830297439
 20
16.7804319103611
 30
0.0
 40
0.178000000000001
 50
89.9999999999998
 51
270
  0
ARC
  8
1
  6
CONTINUOUS
 62
1
 10
15.9923783029744
 20
16.780398451406
 30
0.0
 40
0.177999999999999
 50
269.999999999999
 51
89.9999999999998
  0
ARC
  8
1
  6
CONTINUOUS
 62
1
 10
15.9923783029744
 20
16.780398451406
 30
0.0
 40
0.177999999999999
 50
89.9999999999998
 51
270
  0
ARC
  8
0
  6
CONTINUOUS
 62
0
 10
5.16737830297439
 20
4.99639845140598
 30
0.0
 40
0.31548316101305
 50
269.999999999999
 51
89.9999999999998
  0
ARC
  8
0
  6
CONTINUOUS
 62
0
 10
5.16737830297439
 20
4.99639845140598
 30
0.0
 40
0.31548316101305
 50
89.9999999999998
 51
270
  0
ARC
  8
0
  6
CONTINUOUS
 62
0
 10
13.2238783029745
 20
13.010398451406
 30
0.0
 40
0.3154831610131
 50
269.999999999999
 51
89.9999999999998
  0
ARC
  8
0
  6
CONTINUOUS
 62
0
 10
13.2238783029745
 20
13.010398451406
 30
0.0
 40
0.3154831610131
 50
89.9999999999998
 51
270
  0
ARC
  8
1
  6
CONTINUOUS
 62
1
 10
14.0363783029745
 20
14.585398451406
 30
0.0
 40
0.0999999999999996
 50
269.999999999999
 51
89.9999999999998
  0
ARC
  8
1
  6
CONTINUOUS
 62
1
 10
14.0363783029745
 20
14.585398451406
 30
0.0
 40
0.0999999999999996
 50
89.9999999999998
 51
270
  0
ARC
  8
1
  6
CONTINUOUS
 62
1
 10
14.0363783029745
 20
11.060448451406
 30
0.0
 40
0.0999999999999996
 50
269.999999999999
 51
89.9999999999998
  0
ARC
  8
1
  6
CONTINUOUS
 62
1
 10
14.0363783029745
 20
11.060448451406
 30
0.0
 40
0.0999999999999996
 50
89.9999999999998
 51
270
  0
ARC
  8
1
  6
CONTINUOUS
 62
1
 10
11.3693783029745
 20
14.585398451406
 30
0.0
 40
0.0999999999999996
 50
269.999999999999
 51
89.9999999999998
  0
ARC
  8
1
  6
CONTINUOUS
 62
1
 10
11.3693783029745
 20
14.585398451406
 30
0.0
 40
0.0999999999999996
 50
89.9999999999998
 51
270
  0
ARC
  8
1
  6
CONTINUOUS
 62
1
 10
5.66737830297439
 20
3.45239845140605
 30
0.0
 40
0.100000000000001
 50
269.999999999999
 51
89.9999999999998
  0
ARC
  8
1
  6
CONTINUOUS
 62
1
 10
5.66737830297439
 20
3.45239845140605
 30
0.0
 40
0.100000000000001
 50
89.9999999999998
 51
270
  0
ARC
  8
1
  6
CONTINUOUS
 62
1
 10
5.66733663202829
 20
6.94640817291493
 30
0.0
 40
0.1
 50
269.999999999999
 51
89.9999999999998
  0
ARC
  8
1
  6
CONTINUOUS
 62
1
 10
5.66733663202829
 20
6.94640817291493
 30
0.0
 40
0.1
 50
89.9999999999998
 51
270
  0
ARC
  8
1
  6
CONTINUOUS
 62
1
 10
3.00042671034959
 20
3.45237345824571
 30
0.0
 40
0.0999999999999996
 50
269.999999999999
 51
89.9999999999998
  0
ARC
  8
1
  6
CONTINUOUS
 62
1
 10
3.00042671034959
 20
3.45237345824571
 30
0.0
 40
0.0999999999999996
 50
89.9999999999998
 51
270
  0
LINE
  8
1
  6
CONTINUOUS
 62
1
 10
0.492378310372491
 20
0.00139845140640826
 30
0.0
 11
0.49161317965509
 21
0.327397889937768
 31
0.0
  0
LINE
  8
1
  6
CONTINUOUS
 62
1
 10
0.49161317965509
 20
0.327397889937768
 30
0.0
 11
-0.00838682034491001
 21
0.327397889937768
 31
0.0
  0
LINE
  8
1
  6
CONTINUOUS
 62
1
 10
-0.00838682034491001
 20
0.327397889937768
 30
0.0
 11
-0.0076216896275092
 21
0.00139845140640804
 31
0.0
  0
LINE
  8
1
  6
CONTINUOUS
 62
1
 10
-0.0076216896275092
 20
0.00139845140640804
 30
0.0
 11
0.492378310372491
 21
0.00139845140640826
 31
0.0
  0
LINE
  8
1
  6
CONTINUOUS
 62
1
 10
-0.00762169702561266
 20
18.001398451406
 30
0.0
 11
-0.00762169702561266
 21
9.00139845140603
 31
0.0
  0
LINE
  8
1
  6
CONTINUOUS
 62
1
 10
0.492473902726985
 20
17.6769615318113
 30
0.0
 11
0.492502218733186
 21
18.0029615305815
 31
0.0
  0
LINE
  8
1
  6
CONTINUOUS
 62
1
 10
0.492502218733186
 20
18.0029615305815
 30
0.0
 11
-0.00749774054001406
 21
18.0034304148882
 31
0.0
  0
LINE
  8
1
  6
CONTINUOUS
 62
1
 10
-0.00749774054001406
 20
18.0034304148882
 30
0.0
 11
-0.00696684742791476
 21
17.6774308471699
 31
0.0
  0
LINE
  8
1
  6
CONTINUOUS
 62
1
 10
-0.00696684742791476
 20
17.6774308471699
 30
0.0
 11
0.492473902726985
 21
17.6769615318113
 31
0.0
  0
LINE
  8
1
  6
CONTINUOUS
 62
1
 10
18.4923783029744
 20
0.00139845140605299
 30
0.0
 11
18.491905943903
 21
0.313896666395832
 31
0.0
  0
LINE
  8
1
  6
CONTINUOUS
 62
1
 10
18.491905943903
 20
0.313896666395832
 30
0.0
 11
17.9519045796612
 21
0.313820108186842
 31
0.0
  0
LINE
  8
1
  6
CONTINUOUS
 62
1
 10
17.9519045796612
 20
0.313820108186842
 30
0.0
 11
17.9523769387325
 21
0.00132189319707254
 31
0.0
  0
LINE
  8
1
  6
CONTINUOUS
 62
1
 10
17.9523769387325
 20
0.00132189319707254
 30
0.0
 11
18.4923783029744
 21
0.00139845140605299
 31
0.0
  0
LINE
  8
1
  6
CONTINUOUS
 62
1
 10
18.4922910418924
 20
17.6886021743063
 30
0.0
 11
18.4923783100098
 21
18.0011021133805
 31
0.0
  0
LINE
  8
1
  6
CONTINUOUS
 62
1
 10
18.4923783100098
 20
18.0011021133805
 30
0.0
 11
17.9523822289631
 21
18.0001310699244
 31
0.0
  0
LINE
  8
1
  6
CONTINUOUS
 62
1
 10
17.9523822289631
 20
18.0001310699244
 30
0.0
 11
17.9522949608457
 21
17.6876311308502
 31
0.0
  0
LINE
  8
1
  6
CONTINUOUS
 62
1
 10
17.9522949608457
 20
17.6876311308502
 30
0.0
 11
18.4922910418924
 21
17.6886021743063
 31
0.0
  0
LINE
  8
7
  6
CONTINUOUS
 62
7
 10
5.35549137004533
 20
16.9370024952199
 30
0.0
 11
5.35549137004533
 21
16.2378731184835
 31
0.0
  0
LINE
  8
7
  6
CONTINUOUS
 62
7
 10
5.39299137004533
 20
16.2378731184835
 30
0.0
 11
5.62924137004534
 21
16.2378731184835
 31
0.0
  0
ARC
  8
7
  6
CONTINUOUS
 62
7
 10
5.62924137003761
 20
16.4128731184835
 30
0.0
 40
0.175
 50
270.00000000253
 51
89.9818814817934
  0
LINE
  8
7
  6
CONTINUOUS
 62
7
 10
5.62929670990139
 20
16.5878731097335
 30
0.0
 11
5.6154257358252
 21
16.5878731097335
 31
0.0
  0
ARC
  8
7
  6
CONTINUOUS
 62
7
 10
5.59799132986952
 20
16.7620024932136
 30
0.0
 40
0.175000002006252
 50
275.717586846254
 51
89.9999868462586
  0
LINE
  8
7
  6
CONTINUOUS
 62
7
 10
5.59799137004534
 20
16.9370024952199
 30
0.0
 11
5.39299137004533
 21
16.9370024952199
 31
0.0
  0
LINE
  8
7
  6
CONTINUOUS
 62
7
 10
5.39299137004533
 20
16.5878731097335
 30
0.0
 11
5.6154257358252
 21
16.5878731097335
 31
0.0
  0
ARC
  8
7
  6
CONTINUOUS
 62
7
 10
6.08738897003761
 20
16.7288294952199
 30
0.0
 40
0.208173
 50
93.4424652776291
 51
164.098
  0
ARC
  8
7
  6
CONTINUOUS
 62
7
 10
6.47785721816523
 20
16.5858672009718
 30
0.0
 40
0.623615934640423
 50
161.2941
 51
198.7059
  0
ARC
  8
7
  6
CONTINUOUS
 62
7
 10
6.08738875416126
 20
16.4429050188739
 30
0.0
 40
0.208172711190177
 50
195.902054741785
 51
266.557589464157
  0
ARC
  8
7
  6
CONTINUOUS
 62
7
 10
6.08738897003761
 20
16.4429052952199
 30
0.0
 40
0.208173000000001
 50
273.442465277628
 51
344.097999999998
  0
ARC
  8
7
  6
CONTINUOUS
 62
7
 10
5.69692076010093
 20
16.5858675765367
 30
0.0
 40
0.623615894319629
 50
341.294099999999
 51
18.7059000000007
  0
ARC
  8
7
  6
CONTINUOUS
 62
7
 10
6.08738926766919
 20
16.7288296175446
 30
0.0
 40
0.208172860024592
 50
15.9020797482312
 51
86.5576144706042
  0
LINE
  8
7
  6
CONTINUOUS
 62
7
 10
6.37053677003761
 20
16.9370024952199
 30
0.0
 11
6.59428677003761
 21
16.9370024952199
 31
0.0
  0
LINE
  8
7
  6
CONTINUOUS
 62
7
 10
6.59428677003761
 20
16.9370024952199
 30
0.0
 11
6.59428682003761
 21
16.2370024952199
 31
0.0
  0
LINE
  8
7
  6
CONTINUOUS
 62
7
 10
6.59428682003763
 20
16.9370024952199
 30
0.0
 11
6.81803677003761
 21
16.9370024952199
 31
0.0
  0
LINE
  8
7
  6
CONTINUOUS
 62
7
 10
6.86803677003761
 20
16.9370024952199
 30
0.0
 11
7.09178677003761
 21
16.9370024952199
 31
0.0
  0
LINE
  8
7
  6
CONTINUOUS
 62
7
 10
7.09178677003761
 20
16.9370024952199
 30
0.0
 11
7.09178682003761
 21
16.2370024952199
 31
0.0
  0
LINE
  8
7
  6
CONTINUOUS
 62
7
 10
7.09178682003763
 20
16.9370024952199
 30
0.0
 11
7.31553677003761
 21
16.9370024952199
 31
0.0
  0
ARC
  8
7
  6
CONTINUOUS
 62
7
 10
7.59868437003761
 20
16.7288294952199
 30
0.0
 40
0.208173
 50
93.4424652776291
 51
164.098
  0
ARC
  8
7
  6
CONTINUOUS
 62
7
 10
7.98915261816523
 20
16.5858672009718
 30
0.0
 40
0.623615934640423
 50
161.2941
 51
198.7059
  0
ARC
  8
7
  6
CONTINUOUS
 62
7
 10
7.59868415416126
 20
16.4429050188739
 30
0.0
 40
0.208172711190177
 50
195.902054741785
 51
266.557589464157
  0
ARC
  8
7
  6
CONTINUOUS
 62
7
 10
7.59868437003761
 20
16.4429052952199
 30
0.0
 40
0.208173000000001
 50
273.442465277628
 51
344.097999999998
  0
ARC
  8
7
  6
CONTINUOUS
 62
7
 10
7.20821616010093
 20
16.5858675765367
 30
0.0
 40
0.623615894319629
 50
341.294099999999
 51
18.7059000000007
  0
ARC
  8
7
  6
CONTINUOUS
 62
7
 10
7.59868466766919
 20
16.7288296175446
 30
0.0
 40
0.208172860024592
 50
15.9020797482312
 51
86.5576144706042
  0
LINE
  8
7
  6
CONTINUOUS
 62
7
 10
7.88433217003761
 20
16.2370024952199
 30
0.0
 11
7.88433217003761
 21
16.9370024952199
 31
0.0
  0
LINE
  8
7
  6
CONTINUOUS
 62
7
 10
7.88433217003761
 20
16.9370024952199
 30
0.0
 11
8.17933217003758
 21
16.4420024952199
 31
0.0
  0
LINE
  8
7
  6
CONTINUOUS
 62
7
 10
8.17933217003758
 20
16.4420024952199
 30
0.0
 11
8.47433217003758
 21
16.9370024952199
 31
0.0
  0
LINE
  8
7
  6
CONTINUOUS
 62
7
 10
8.47433217003758
 20
16.9370024952199
 30
0.0
 11
8.47433217003758
 21
16.2370024952199
 31
0.0
  0
LINE
  8
7
  6
CONTINUOUS
 62
7
 10
9.07433217003758
 20
16.5870024952199
 30
0.0
 11
9.47433222003758
 21
16.5870024952199
 31
0.0
  0
LINE
  8
7
  6
CONTINUOUS
 62
7
 10
10.0743322200376
 20
16.9370024952199
 30
0.0
 11
10.2980822200376
 21
16.9370024952199
 31
0.0
  0
LINE
  8
7
  6
CONTINUOUS
 62
7
 10
10.2980822200376
 20
16.9370024952199
 30
0.0
 11
10.2980822700376
 21
16.2370024952199
 31
0.0
  0
LINE
  8
7
  6
CONTINUOUS
 62
7
 10
10.2980822700376
 20
16.9370024952199
 30
0.0
 11
10.5218322200376
 21
16.9370024952199
 31
0.0
  0
ARC
  8
7
  6
CONTINUOUS
 62
7
 10
10.8049798200376
 20
16.7288294952199
 30
0.0
 40
0.208173
 50
93.4424652776291
 51
164.098
  0
ARC
  8
7
  6
CONTINUOUS
 62
7
 10
11.1954480681652
 20
16.5858672009718
 30
0.0
 40
0.623615934640423
 50
161.2941
 51
198.7059
  0
ARC
  8
7
  6
CONTINUOUS
 62
7
 10
10.8049796041612
 20
16.4429050188739
 30
0.0
 40
0.208172711190177
 50
195.902054741785
 51
266.557589464157
  0
ARC
  8
7
  6
CONTINUOUS
 62
7
 10
10.8049798200376
 20
16.4429052952199
 30
0.0
 40
0.208173
 50
273.442465277628
 51
344.097999999998
  0
ARC
  8
7
  6
CONTINUOUS
 62
7
 10
10.4145116101009
 20
16.5858675765367
 30
0.0
 40
0.623615894319629
 50
341.294099999999
 51
18.7059000000007
  0
ARC
  8
7
  6
CONTINUOUS
 62
7
 10
10.8049801176692
 20
16.7288296175446
 30
0.0
 40
0.208172860024593
 50
15.9020797482314
 51
86.5576144706044
  0
LINE
  8
7
  6
CONTINUOUS
 62
7
 10
11.0881276200376
 20
16.9370024952199
 30
0.0
 11
11.0881276200376
 21
16.2370024952199
 31
0.0
  0
LINE
  8
7
  6
CONTINUOUS
 62
7
 10
11.1256276200376
 20
16.9370024952199
 30
0.0
 11
11.3421276200376
 21
16.9370024952199
 31
0.0
  0
ARC
  8
7
  6
CONTINUOUS
 62
7
 10
11.3421276200376
 20
16.7620024952199
 30
0.0
 40
0.174999999999999
 50
359.995599999999
 51
90.000000000001
  0
ARC
  8
7
  6
CONTINUOUS
 62
7
 10
11.3421276200376
 20
16.7620024952199
 30
0.0
 40
0.175000000000008
 50
269.991199999995
 51
359.995599999997
  0
LINE
  8
7
  6
CONTINUOUS
 62
7
 10
11.3421007419672
 20
16.587002497284
 30
0.0
 11
11.1256276200376
 21
16.5870024952199
 31
0.0
  0
LINE
  8
7
  6
CONTINUOUS
 62
7
 10
12.1171276200376
 20
16.9370024952199
 30
0.0
 11
12.3721276200376
 21
16.2370024952199
 31
0.0
  0
LINE
  8
7
  6
CONTINUOUS
 62
7
 10
12.3721276200376
 20
16.2370024952199
 30
0.0
 11
12.6271276200376
 21
16.9370024952199
 31
0.0
  0
LINE
  8
7
  6
CONTINUOUS
 62
7
 10
12.6771276200376
 20
16.9370024952199
 30
0.0
 11
12.7771275731801
 21
16.9370024952199
 31
0.0
  0
LINE
  8
7
  6
CONTINUOUS
 62
7
 10
12.7771275731801
 20
16.9370024952199
 30
0.0
 11
12.8771275731801
 21
16.9370024952199
 31
0.0
  0
LINE
  8
7
  6
CONTINUOUS
 62
7
 10
12.7771275731801
 20
16.9370024952199
 30
0.0
 11
12.7771275731801
 21
16.2370024952199
 31
0.0
  0
LINE
  8
7
  6
CONTINUOUS
 62
7
 10
12.6771276200376
 20
16.2370024952199
 30
0.0
 11
12.7771275731801
 21
16.2370024952199
 31
0.0
  0
LINE
  8
7
  6
CONTINUOUS
 62
7
 10
12.7771275731801
 20
16.2370024952199
 30
0.0
 11
12.8771275731801
 21
16.2370024952199
 31
0.0
  0
LINE
  8
7
  6
CONTINUOUS
 62
7
 10
12.9271275731801
 20
16.9370024952199
 30
0.0
 11
12.9276275731801
 21
16.2370024952199
 31
0.0
  0
LINE
  8
7
  6
CONTINUOUS
 62
7
 10
12.9276275731801
 20
16.2370024952199
 30
0.0
 11
13.3381275731801
 21
16.2370024952199
 31
0.0
  0
LINE
  8
7
  6
CONTINUOUS
 62
7
 10
12.9276275731801
 20
16.5870024952199
 30
0.0
 11
13.2481275731801
 21
16.5870024952199
 31
0.0
  0
LINE
  8
7
  6
CONTINUOUS
 62
7
 10
12.9396275763689
 20
16.9370024952199
 30
0.0
 11
12.9396275699913
 21
16.937011423789
 31
0.0
  0
LINE
  8
7
  6
CONTINUOUS
 62
7
 10
12.9396275699913
 20
16.937011423789
 30
0.0
 11
13.3381275731801
 21
16.9370024952199
 31
0.0
  0
LINE
  8
7
  6
CONTINUOUS
 62
7
 10
13.3881275731801
 20
16.9370024952199
 30
0.0
 11
13.5693775731801
 21
16.2370024952199
 31
0.0
  0
LINE
  8
7
  6
CONTINUOUS
 62
7
 10
13.5693775731801
 20
16.2370024952199
 30
0.0
 11
13.7506275731801
 21
16.8205024952199
 31
0.0
  0
LINE
  8
7
  6
CONTINUOUS
 62
7
 10
13.7506275731801
 20
16.8205024952199
 30
0.0
 11
13.9318775731801
 21
16.2370024952199
 31
0.0
  0
LINE
  8
7
  6
CONTINUOUS
 62
7
 10
13.9318775731801
 20
16.2370024952199
 30
0.0
 11
14.1131275731801
 21
16.9370024952199
 31
0.0
  0
ARC
  8
7
  6
CONTINUOUS
 62
7
 10
1.17745851469856
 20
7.37497937670025
 30
0.0
 40
0.121071389999996
 50
120.522020000001
 51
179.298480000001
  0
LINE
  8
7
  6
CONTINUOUS
 62
7
 10
1.05639619957994
 20
7.37646171763625
 30
0.0
 11
1.05597834469857
 21
7.34233538670025
 31
0.0
  0
ARC
  8
7
  6
CONTINUOUS
 62
7
 10
1.16649596365112
 20
7.34098217047175
 30
0.0
 40
0.110525903267522
 50
179.298485571548
 51
267.350705571549
  0
ARC
  8
7
  6
CONTINUOUS
 62
7
 10
1.15323343280113
 20
7.32047721904934
 30
0.0
 40
0.0902718146223214
 50
275.182274255109
 51
329.344774255109
  0
LINE
  8
7
  6
CONTINUOUS
 62
7
 10
1.23088984952063
 20
7.27445025458834
 30
0.0
 11
1.30188435469857
 21
7.43974850670025
 31
0.0
  0
ARC
  8
7
  6
CONTINUOUS
 62
7
 10
1.37954078102094
 20
7.39372162469899
 30
0.0
 40
0.0902717808394166
 50
95.1822393860967
 51
149.344822386097
  0
ARC
  8
7
  6
CONTINUOUS
 62
7
 10
1.36627825492968
 20
7.37321668015485
 30
0.0
 40
0.11052587019469
 50
359.441077271098
 51
87.3506772711007
  0
LINE
  8
7
  6
CONTINUOUS
 62
7
 10
1.47679886629863
 20
7.37213851276196
 30
0.0
 11
1.47638133469857
 21
7.32933839670025
 31
0.0
  0
ARC
  8
7
  6
CONTINUOUS
 62
7
 10
1.35531574926104
 20
7.3305194116621
 30
0.0
 40
0.121071345799373
 50
300.521987851209
 51
359.441087851209
  0
ARC
  8
7
  6
CONTINUOUS
 62
7
 10
1.32287760469856
 20
7.6740629446841
 30
0.0
 40
0.154454580000001
 50
294.386799999997
 51
54.3199999999971
  0
ARC
  8
7
  6
CONTINUOUS
 62
7
 10
1.26665114794877
 20
7.88779383251304
 30
0.0
 40
0.374169448266848
 50
251.294074073848
 51
288.705874073848
  0
ARC
  8
7
  6
CONTINUOUS
 62
7
 10
1.21042449815677
 20
7.67406294328301
 30
0.0
 40
0.154454532537328
 50
125.679970009968
 51
245.613140009969
  0
LINE
  8
7
  6
CONTINUOUS
 62
7
 10
1.05597006469857
 20
7.82952442583103
 30
0.0
 11
1.47597006469857
 21
7.82952442583103
 31
0.0
  0
LINE
  8
7
  6
CONTINUOUS
 62
7
 10
1.05597006469857
 20
7.85202442583103
 30
0.0
 11
1.05597006469857
 21
7.98192442583103
 31
0.0
  0
ARC
  8
7
  6
CONTINUOUS
 62
7
 10
1.16097006469857
 20
7.98192442583103
 30
0.0
 40
0.105000000000006
 50
89.9956000000018
 51
180.000000000004
  0
ARC
  8
7
  6
CONTINUOUS
 62
7
 10
1.16097006469856
 20
7.98192442583103
 30
0.0
 40
0.105000000000012
 50
359.991199999991
 51
89.9955999999932
  0
LINE
  8
7
  6
CONTINUOUS
 62
7
 10
1.26597006346012
 20
7.98190829898879
 30
0.0
 11
1.47597006469857
 21
8.08692442583103
 31
0.0
  0
LINE
  8
7
  6
CONTINUOUS
 62
7
 10
1.26597006469857
 20
7.85202442583103
 30
0.0
 11
1.26597006469857
 21
7.98190822583103
 31
0.0
  0
LINE
  8
7
  6
CONTINUOUS
 62
7
 10
1.05597006469857
 20
8.11692442583103
 30
0.0
 11
1.47597006469854
 21
8.11722442583103
 31
0.0
  0
LINE
  8
7
  6
CONTINUOUS
 62
7
 10
1.47597006469854
 20
8.11722442583103
 30
0.0
 11
1.47597006469854
 21
8.36352442583103
 31
0.0
  0
LINE
  8
7
  6
CONTINUOUS
 62
7
 10
1.26597006469854
 20
8.11722442583103
 30
0.0
 11
1.26597006469854
 21
8.30952442583103
 31
0.0
  0
LINE
  8
7
  6
CONTINUOUS
 62
7
 10
1.05597006469857
 20
8.12442442774429
 30
0.0
 11
1.05596470755708
 21
8.12442442391776
 31
0.0
  0
LINE
  8
7
  6
CONTINUOUS
 62
7
 10
1.05596470755708
 20
8.12442442391776
 30
0.0
 11
1.05597006469857
 21
8.36352442583103
 31
0.0
  0
LINE
  8
7
  6
CONTINUOUS
 62
7
 10
1.05597006469857
 20
8.39352442583103
 30
0.0
 11
1.47597006469854
 21
8.39382442583103
 31
0.0
  0
LINE
  8
7
  6
CONTINUOUS
 62
7
 10
1.47597006469854
 20
8.39382442583103
 30
0.0
 11
1.47597006469854
 21
8.64012442583103
 31
0.0
  0
LINE
  8
7
  6
CONTINUOUS
 62
7
 10
1.26597006469854
 20
8.39382442583103
 30
0.0
 11
1.26597006469854
 21
8.58612442583103
 31
0.0
  0
LINE
  8
7
  6
CONTINUOUS
 62
7
 10
1.05597006469857
 20
8.40102442774429
 30
0.0
 11
1.05596470755708
 21
8.40102442391776
 31
0.0
  0
LINE
  8
7
  6
CONTINUOUS
 62
7
 10
1.05596470755708
 20
8.40102442391776
 30
0.0
 11
1.05597006469857
 21
8.64012442583103
 31
0.0
  0
LINE
  8
7
  6
CONTINUOUS
 62
7
 10
1.47597006469857
 20
8.67162442583103
 30
0.0
 11
1.05597006469857
 21
8.67162442583103
 31
0.0
  0
LINE
  8
7
  6
CONTINUOUS
 62
7
 10
1.05597006469857
 20
8.67162442583103
 30
0.0
 11
1.47597006469857
 21
8.92902442583103
 31
0.0
  0
LINE
  8
7
  6
CONTINUOUS
 62
7
 10
1.47597006469857
 20
8.92902442583103
 30
0.0
 11
1.05597006469857
 21
8.92902442583103
 31
0.0
  0
ARC
  8
7
  6
CONTINUOUS
 62
7
 10
1.17745851469856
 20
9.43777940377846
 30
0.0
 40
0.121071389999997
 50
120.522020000001
 51
179.298480000001
  0
LINE
  8
7
  6
CONTINUOUS
 62
7
 10
1.05639619957994
 20
9.43926174471446
 30
0.0
 11
1.05597834469857
 21
9.40513541377846
 31
0.0
  0
ARC
  8
7
  6
CONTINUOUS
 62
7
 10
1.16649596365112
 20
9.40378219754997
 30
0.0
 40
0.110525903267523
 50
179.298485571547
 51
267.350705571548
  0
ARC
  8
7
  6
CONTINUOUS
 62
7
 10
1.15323343280113
 20
9.38327724612755
 30
0.0
 40
0.0902718146223224
 50
275.18227425511
 51
329.34477425511
  0
LINE
  8
7
  6
CONTINUOUS
 62
7
 10
1.23088984952063
 20
9.33725028166656
 30
0.0
 11
1.30188435469857
 21
9.50254853377846
 31
0.0
  0
ARC
  8
7
  6
CONTINUOUS
 62
7
 10
1.37954078102093
 20
9.4565216517772
 30
0.0
 40
0.0902717808394161
 50
95.1822393860962
 51
149.344822386096
  0
ARC
  8
7
  6
CONTINUOUS
 62
7
 10
1.36627825492968
 20
9.43601670723306
 30
0.0
 40
0.110525870194689
 50
359.441077271099
 51
87.350677271101
  0
LINE
  8
7
  6
CONTINUOUS
 62
7
 10
1.47679886629863
 20
9.43493853984017
 30
0.0
 11
1.47638133469857
 21
9.39213842377846
 31
0.0
  0
ARC
  8
7
  6
CONTINUOUS
 62
7
 10
1.35531574926104
 20
9.39331943874031
 30
0.0
 40
0.121071345799375
 50
300.52198785121
 51
359.44108785121
  0
LINE
  8
7
  6
CONTINUOUS
 62
7
 10
1.05597006469857
 20
9.5764244417623
 30
0.0
 11
1.05597006469857
 21
9.6364244136478
 31
0.0
  0
LINE
  8
7
  6
CONTINUOUS
 62
7
 10
1.05597006469857
 20
9.6364244136478
 30
0.0
 11
1.05597006469857
 21
9.6964244136478
 31
0.0
  0
LINE
  8
7
  6
CONTINUOUS
 62
7
 10
1.05597006469857
 20
9.6364244136478
 30
0.0
 11
1.47597006469857
 21
9.6364244136478
 31
0.0
  0
LINE
  8
7
  6
CONTINUOUS
 62
7
 10
1.47597006469857
 20
9.5764244417623
 30
0.0
 11
1.47597006469857
 21
9.6364244136478
 31
0.0
  0
LINE
  8
7
  6
CONTINUOUS
 62
7
 10
1.47597006469857
 20
9.6364244136478
 30
0.0
 11
1.47597006469857
 21
9.6964244136478
 31
0.0
  0
LINE
  8
7
  6
CONTINUOUS
 62
7
 10
1.05597006469857
 20
9.7264244136478
 30
0.0
 11
1.47597006469857
 21
9.7264244136478
 31
0.0
  0
LINE
  8
7
  6
CONTINUOUS
 62
7
 10
1.47597006469857
 20
9.7489244136478
 30
0.0
 11
1.47597006469857
 21
9.8435742936478
 31
0.0
  0
ARC
  8
7
  6
CONTINUOUS
 62
7
 10
1.32219644918404
 20
9.82908583129008
 30
0.0
 40
0.154454654736915
 50
5.38248588476582
 51
65.6131858847659
  0
ARC
  8
7
  6
CONTINUOUS
 62
7
 10
1.26596988888338
 20
9.61535507985003
 30
0.0
 40
0.374169422895454
 50
71.2940972782812
 51
108.705897278283
  0
ARC
  8
7
  6
CONTINUOUS
 62
7
 10
1.20974353965948
 20
9.82908607729767
 30
0.0
 40
0.154454514312292
 50
114.386909987162
 51
174.617489987162
  0
LINE
  8
7
  6
CONTINUOUS
 62
7
 10
1.05597007005171
 20
9.84357459123921
 30
0.0
 11
1.05597006469857
 21
9.7489244136478
 31
0.0
  0
LINE
  8
7
  6
CONTINUOUS
 62
7
 10
1.05597006469857
 20
10.0195245336478
 30
0.0
 11
1.47597006469854
 21
10.0198245336478
 31
0.0
  0
LINE
  8
7
  6
CONTINUOUS
 62
7
 10
1.47597006469854
 20
10.0198245336478
 30
0.0
 11
1.47597006469854
 21
10.2661245336478
 31
0.0
  0
LINE
  8
7
  6
CONTINUOUS
 62
7
 10
1.26597006469854
 20
10.0198245336478
 30
0.0
 11
1.26597006469854
 21
10.2121245336478
 31
0.0
  0
LINE
  8
7
  6
CONTINUOUS
 62
7
 10
1.05597006469857
 20
10.0270245355611
 30
0.0
 11
1.05596470755708
 21
10.0270245317345
 31
0.0
  0
LINE
  8
7
  6
CONTINUOUS
 62
7
 10
1.05596470755708
 20
10.0270245317345
 30
0.0
 11
1.05597006469857
 21
10.2661245336478
 31
0.0
  0
LINE
  8
7
  6
CONTINUOUS
 62
7
 10
17.3774052520895
 20
6.77087443296712
 30
0.0
 11
17.3774052520895
 21
6.83087440485262
 31
0.0
  0
LINE
  8
7
  6
CONTINUOUS
 62
7
 10
17.3774052520895
 20
6.83087440485262
 30
0.0
 11
17.3774052520895
 21
6.89087440485262
 31
0.0
  0
LINE
  8
7
  6
CONTINUOUS
 62
7
 10
17.3774052520895
 20
6.83087440485262
 30
0.0
 11
17.7974052520895
 21
6.83087440485262
 31
0.0
  0
LINE
  8
7
  6
CONTINUOUS
 62
7
 10
17.7974052520895
 20
6.77087443296712
 30
0.0
 11
17.7974052520895
 21
6.83087440485262
 31
0.0
  0
LINE
  8
7
  6
CONTINUOUS
 62
7
 10
17.7974052520895
 20
6.83087440485262
 30
0.0
 11
17.7974052520895
 21
6.89087440485262
 31
0.0
  0
LINE
  8
7
  6
CONTINUOUS
 62
7
 10
17.7974052520895
 20
6.92237440485262
 30
0.0
 11
17.3774052520895
 21
6.92237440485262
 31
0.0
  0
LINE
  8
7
  6
CONTINUOUS
 62
7
 10
17.3774052520895
 20
6.92237440485262
 30
0.0
 11
17.7974052520895
 21
7.17977440485262
 31
0.0
  0
LINE
  8
7
  6
CONTINUOUS
 62
7
 10
17.7974052520895
 20
7.17977440485262
 30
0.0
 11
17.3774052520895
 21
7.17977440485262
 31
0.0
  0
ARC
  8
7
  6
CONTINUOUS
 62
7
 10
17.4988937020895
 20
7.35852938280005
 30
0.0
 40
0.121071389999996
 50
120.522019999999
 51
179.298479999999
  0
LINE
  8
7
  6
CONTINUOUS
 62
7
 10
17.3778313869709
 20
7.36001172373604
 30
0.0
 11
17.3774135320895
 21
7.32588539280005
 31
0.0
  0
ARC
  8
7
  6
CONTINUOUS
 62
7
 10
17.4879311510421
 20
7.32453217657155
 30
0.0
 40
0.110525903267522
 50
179.298485571548
 51
267.350705571549
  0
ARC
  8
7
  6
CONTINUOUS
 62
7
 10
17.4746686201921
 20
7.30402722514914
 30
0.0
 40
0.0902718146223198
 50
275.182274255109
 51
329.344774255109
  0
LINE
  8
7
  6
CONTINUOUS
 62
7
 10
17.5523250369116
 20
7.25800026068814
 30
0.0
 11
17.6233195420895
 21
7.42329851280005
 31
0.0
  0
ARC
  8
7
  6
CONTINUOUS
 62
7
 10
17.7009759684119
 20
7.37727163079878
 30
0.0
 40
0.0902717808394161
 50
95.1822393860962
 51
149.344822386096
  0
ARC
  8
7
  6
CONTINUOUS
 62
7
 10
17.6877134423206
 20
7.35676668625465
 30
0.0
 40
0.110525870194691
 50
359.441077271098
 51
87.3506772711003
  0
LINE
  8
7
  6
CONTINUOUS
 62
7
 10
17.7982340536896
 20
7.35568851886175
 30
0.0
 11
17.7978165220895
 21
7.31288840280005
 31
0.0
  0
ARC
  8
7
  6
CONTINUOUS
 62
7
 10
17.676750936652
 20
7.31406941776189
 30
0.0
 40
0.121071345799374
 50
300.521987851211
 51
359.441087851211
  0
LINE
  8
7
  6
CONTINUOUS
 62
7
 10
17.3774052520895
 20
7.49717442078389
 30
0.0
 11
17.7974052520895
 21
7.49747442078388
 31
0.0
  0
LINE
  8
7
  6
CONTINUOUS
 62
7
 10
17.7974052520895
 20
7.49747442078388
 30
0.0
 11
17.7974052520895
 21
7.74377442078389
 31
0.0
  0
LINE
  8
7
  6
CONTINUOUS
 62
7
 10
17.5874052520895
 20
7.49747442078388
 30
0.0
 11
17.5874052520895
 21
7.68977442078388
 31
0.0
  0
LINE
  8
7
  6
CONTINUOUS
 62
7
 10
17.3774052520895
 20
7.50467442269715
 30
0.0
 11
17.377399894948
 21
7.50467441887062
 31
0.0
  0
LINE
  8
7
  6
CONTINUOUS
 62
7
 10
17.377399894948
 20
7.50467441887062
 30
0.0
 11
17.3774052520895
 21
7.74377442078389
 31
0.0
  0
LINE
  8
7
  6
CONTINUOUS
 62
7
 10
17.3774052520895
 20
7.77377442078388
 30
0.0
 11
17.7974052520895
 21
7.77377442078388
 31
0.0
  0
LINE
  8
7
  6
CONTINUOUS
 62
7
 10
17.3774052520895
 20
7.79627442078388
 30
0.0
 11
17.3774052520895
 21
7.92617442078388
 31
0.0
  0
ARC
  8
7
  6
CONTINUOUS
 62
7
 10
17.4824052520895
 20
7.92617442078389
 30
0.0
 40
0.105000000000005
 50
89.9956000000016
 51
180.000000000004
  0
ARC
  8
7
  6
CONTINUOUS
 62
7
 10
17.4824052520895
 20
7.92617442078388
 30
0.0
 40
0.105000000000012
 50
359.991199999991
 51
89.9955999999937
  0
LINE
  8
7
  6
CONTINUOUS
 62
7
 10
17.5874052508511
 20
7.92615829394164
 30
0.0
 11
17.7974052520895
 21
8.03117442078388
 31
0.0
  0
LINE
  8
7
  6
CONTINUOUS
 62
7
 10
17.5874052520895
 20
7.79627442078388
 30
0.0
 11
17.5874052520895
 21
7.92615822078388
 31
0.0
  0
LINE
  8
7
  6
CONTINUOUS
 62
7
 10
17.3774052520895
 20
8.06117442078389
 30
0.0
 11
17.3774052520895
 21
8.19542442078389
 31
0.0
  0
LINE
  8
7
  6
CONTINUOUS
 62
7
 10
17.3774052520895
 20
8.19542442078389
 30
0.0
 11
17.7974052520895
 21
8.19542445078389
 31
0.0
  0
LINE
  8
7
  6
CONTINUOUS
 62
7
 10
17.3774052520895
 20
8.1954244507839
 30
0.0
 11
17.3774052520895
 21
8.32967442078388
 31
0.0
  0
LINE
  8
7
  6
CONTINUOUS
 62
7
 10
17.3774052520895
 20
8.35967442078389
 30
0.0
 11
17.3774052520895
 21
8.41967439266939
 31
0.0
  0
LINE
  8
7
  6
CONTINUOUS
 62
7
 10
17.3774052520895
 20
8.41967439266939
 30
0.0
 11
17.3774052520895
 21
8.47967439266939
 31
0.0
  0
LINE
  8
7
  6
CONTINUOUS
 62
7
 10
17.3774052520895
 20
8.41967439266939
 30
0.0
 11
17.7974052520895
 21
8.41967439266939
 31
0.0
  0
LINE
  8
7
  6
CONTINUOUS
 62
7
 10
17.7974052520895
 20
8.35967442078389
 30
0.0
 11
17.7974052520895
 21
8.41967439266939
 31
0.0
  0
LINE
  8
7
  6
CONTINUOUS
 62
7
 10
17.7974052520895
 20
8.41967439266939
 30
0.0
 11
17.7974052520895
 21
8.47967439266939
 31
0.0
  0
ARC
  8
7
  6
CONTINUOUS
 62
7
 10
17.5023090520895
 20
8.64956295266938
 30
0.0
 40
0.1249038
 50
183.442465277629
 51
254.098
  0
ARC
  8
7
  6
CONTINUOUS
 62
7
 10
17.5880863255273
 20
8.88384393645893
 30
0.0
 40
0.374169560784254
 50
251.29411666971
 51
288.70591666971
  0
ARC
  8
7
  6
CONTINUOUS
 62
7
 10
17.6738637378971
 20
8.64956282314358
 30
0.0
 40
0.124903626714107
 50
285.902054741785
 51
356.557589464156
  0
ARC
  8
7
  6
CONTINUOUS
 62
7
 10
17.6738635720895
 20
8.64956295266939
 30
0.0
 40
0.1249038
 50
3.44246527762849
 51
74.097999999998
  0
ARC
  8
7
  6
CONTINUOUS
 62
7
 10
17.5880861292082
 20
8.4152820517944
 30
0.0
 40
0.374169536591774
 50
71.2940880218467
 51
108.705888021848
  0
ARC
  8
7
  6
CONTINUOUS
 62
7
 10
17.5023089786947
 20
8.64956313124833
 30
0.0
 40
0.124903716014758
 50
105.902079748231
 51
176.557614470604
  0
LINE
  8
7
  6
CONTINUOUS
 62
7
 10
17.7974052520895
 20
8.82095163266938
 30
0.0
 11
17.3774052520895
 21
8.82095163266938
 31
0.0
  0
LINE
  8
7
  6
CONTINUOUS
 62
7
 10
17.3774052520895
 20
8.82095163266938
 30
0.0
 11
17.7974052520895
 21
9.07835163266938
 31
0.0
  0
LINE
  8
7
  6
CONTINUOUS
 62
7
 10
17.7974052520895
 20
9.07835163266938
 30
0.0
 11
17.3774052520895
 21
9.07835163266938
 31
0.0
  0
ARC
  8
7
  6
CONTINUOUS
 62
7
 10
17.4988937020895
 20
9.58710661061682
 30
0.0
 40
0.121071389999996
 50
120.522019999999
 51
179.298479999999
  0
LINE
  8
7
  6
CONTINUOUS
 62
7
 10
17.3778313869709
 20
9.58858895155281
 30
0.0
 11
17.3774135320895
 21
9.55446262061682
 31
0.0
  0
ARC
  8
7
  6
CONTINUOUS
 62
7
 10
17.4879311510421
 20
9.55310940438832
 30
0.0
 40
0.110525903267522
 50
179.298485571548
 51
267.350705571549
  0
ARC
  8
7
  6
CONTINUOUS
 62
7
 10
17.4746686201921
 20
9.53260445296591
 30
0.0
 40
0.0902718146223198
 50
275.182274255109
 51
329.344774255109
  0
LINE
  8
7
  6
CONTINUOUS
 62
7
 10
17.5523250369116
 20
9.48657748850491
 30
0.0
 11
17.6233195420895
 21
9.65187574061682
 31
0.0
  0
ARC
  8
7
  6
CONTINUOUS
 62
7
 10
17.7009759684119
 20
9.60584885861556
 30
0.0
 40
0.0902717808394161
 50
95.1822393860962
 51
149.344822386096
  0
ARC
  8
7
  6
CONTINUOUS
 62
7
 10
17.6877134423206
 20
9.58534391407142
 30
0.0
 40
0.110525870194691
 50
359.441077271098
 51
87.3506772711003
  0
LINE
  8
7
  6
CONTINUOUS
 62
7
 10
17.7982340536896
 20
9.58426574667853
 30
0.0
 11
17.7978165220895
 21
9.54146563061682
 31
0.0
  0
ARC
  8
7
  6
CONTINUOUS
 62
7
 10
17.676750936652
 20
9.54264664557866
 30
0.0
 40
0.121071345799374
 50
300.521987851211
 51
359.441087851211
  0
LINE
  8
7
  6
CONTINUOUS
 62
7
 10
17.3774052520895
 20
9.72575164860066
 30
0.0
 11
17.3774052520895
 21
9.78575162048616
 31
0.0
  0
LINE
  8
7
  6
CONTINUOUS
 62
7
 10
17.3774052520895
 20
9.78575162048616
 30
0.0
 11
17.3774052520895
 21
9.84575162048616
 31
0.0
  0
LINE
  8
7
  6
CONTINUOUS
 62
7
 10
17.3774052520895
 20
9.78575162048616
 30
0.0
 11
17.7974052520895
 21
9.78575162048616
 31
0.0
  0
LINE
  8
7
  6
CONTINUOUS
 62
7
 10
17.7974052520895
 20
9.72575164860066
 30
0.0
 11
17.7974052520895
 21
9.78575162048616
 31
0.0
  0
LINE
  8
7
  6
CONTINUOUS
 62
7
 10
17.7974052520895
 20
9.78575162048616
 30
0.0
 11
17.7974052520895
 21
9.84575162048616
 31
0.0
  0
LINE
  8
7
  6
CONTINUOUS
 62
7
 10
17.3774052520895
 20
9.87575162048616
 30
0.0
 11
17.7974052520895
 21
9.87575162048616
 31
0.0
  0
LINE
  8
7
  6
CONTINUOUS
 62
7
 10
17.7974052520895
 20
9.89825162048616
 30
0.0
 11
17.7974052520895
 21
9.99290150048616
 31
0.0
  0
ARC
  8
7
  6
CONTINUOUS
 62
7
 10
17.643631636575
 20
9.97841303812843
 30
0.0
 40
0.154454654736914
 50
5.38248588476557
 51
65.6131858847656
  0
ARC
  8
7
  6
CONTINUOUS
 62
7
 10
17.5874050762743
 20
9.76468228668838
 30
0.0
 40
0.374169422895456
 50
71.2940972782812
 51
108.705897278283
  0
ARC
  8
7
  6
CONTINUOUS
 62
7
 10
17.5311787270504
 20
9.97841328413602
 30
0.0
 40
0.154454514312291
 50
114.386909987162
 51
174.617489987162
  0
LINE
  8
7
  6
CONTINUOUS
 62
7
 10
17.3774052574426
 20
9.99290179807756
 30
0.0
 11
17.3774052520895
 21
9.89825162048616
 31
0.0
  0
LINE
  8
7
  6
CONTINUOUS
 62
7
 10
17.3774052520895
 20
10.1688517404862
 30
0.0
 11
17.7974052520895
 21
10.1691517404862
 31
0.0
  0
LINE
  8
7
  6
CONTINUOUS
 62
7
 10
17.7974052520895
 20
10.1691517404862
 30
0.0
 11
17.7974052520895
 21
10.4154517404862
 31
0.0
  0
LINE
  8
7
  6
CONTINUOUS
 62
7
 10
17.5874052520895
 20
10.1691517404862
 30
0.0
 11
17.5874052520895
 21
10.3614517404862
 31
0.0
  0
LINE
  8
7
  6
CONTINUOUS
 62
7
 10
17.3774052520895
 20
10.1763517423994
 30
0.0
 11
17.377399894948
 21
10.1763517385729
 31
0.0
  0
LINE
  8
7
  6
CONTINUOUS
 62
7
 10
17.377399894948
 20
10.1763517385729
 30
0.0
 11
17.3774052520895
 21
10.4154517404862
 31
0.0
  0
ENDSEC
  0
EOF
