  0
SECTION
  2
HEADER
  9
$ACADVER
  1
AC1003
  9
$EXTMIN
 10
0.019159961284835
 20
18.0076612153698
  9
$EXTMAX
 10
18.5199250916395
 20
0.00555269367861644
  9
$INSBASE
 10
9.26954252646219
 20
9.00660695452419
999
Created with OMAX Layout for Windows. (http://www.omax.com) 9/19/2012
  0
ENDSEC
  0
SECTION
  2
TABLES
  0
TABLE
  2
LAYER
 70
    10
  0
LAYER
  2
0
 70
     0
 62
     7
  6
CONTINUOUS
  0
LAYER
  2
1
 70
     0
 62
     7
  6
CONTINUOUS
  0
LAYER
  2
2
 70
     0
 62
     7
  6
CONTINUOUS
  0
LAYER
  2
3
 70
     0
 62
     7
  6
CONTINUOUS
  0
LAYER
  2
4
 70
     0
 62
     7
  6
CONTINUOUS
  0
LAYER
  2
5
 70
     0
 62
     7
  6
CONTINUOUS
  0
LAYER
  2
6
 70
     0
 62
     7
  6
CONTINUOUS
  0
LAYER
  2
7
 70
     0
 62
     7
  6
CONTINUOUS
  0
LAYER
  2
8
 70
     0
 62
     7
  6
CONTINUOUS
  0
LAYER
  2
9
 70
     0
 62
     7
  6
CONTINUOUS
  0
LAYER
  2
10
 70
     0
 62
     7
  6
CONTINUOUS
  0
LAYER
  2
11
 70
     0
 62
     7
  6
CONTINUOUS
  0
LAYER
  2
12
 70
     0
 62
     7
  6
CONTINUOUS
  0
LAYER
  2
13
 70
     0
 62
     7
  6
CONTINUOUS
  0
LAYER
  2
14
 70
     0
 62
     7
  6
CONTINUOUS
  0
LAYER
  2
15
 70
     0
 62
     7
  6
CONTINUOUS
  0
LAYER
  2
16
 70
     0
 62
     7
  6
CONTINUOUS
  0
LAYER
  2
17
 70
     0
 62
     7
  6
CONTINUOUS
  0
LAYER
  2
18
 70
     0
 62
     7
  6
CONTINUOUS
  0
LAYER
  2
19
 70
     0
 62
     7
  6
CONTINUOUS
  0
LAYER
  2
20
 70
     0
 62
     7
  6
CONTINUOUS
  0
LAYER
  2
21
 70
     0
 62
     7
  6
CONTINUOUS
  0
LAYER
  2
22
 70
     0
 62
     7
  6
CONTINUOUS
  0
LAYER
  2
23
 70
     0
 62
     7
  6
CONTINUOUS
  0
LAYER
  2
24
 70
     0
 62
     7
  6
CONTINUOUS
  0
LAYER
  2
25
 70
     0
 62
     7
  6
CONTINUOUS
  0
LAYER
  2
26
 70
     0
 62
     7
  6
CONTINUOUS
  0
LAYER
  2
27
 70
     0
 62
     7
  6
CONTINUOUS
  0
LAYER
  2
28
 70
     0
 62
     7
  6
CONTINUOUS
  0
LAYER
  2
29
 70
     0
 62
     7
  6
CONTINUOUS
  0
LAYER
  2
30
 70
     0
 62
     7
  6
CONTINUOUS
  0
LAYER
  2
31
 70
     0
 62
     7
  6
CONTINUOUS
  0
ENDTAB
  0
ENDSEC
  0
SECTION
  2
ENTITIES
  0
LINE
  8
1
  6
CONTINUOUS
 62
1
 10
0.0199250846041359
 20
0.00562925188759222
 30
0.0
 11
0.0199250846041323
 21
18.0056292518876
 31
0.0
  0
LINE
  8
1
  6
CONTINUOUS
 62
1
 10
0.0199250846041323
 20
18.0056292518876
 30
0.0
 11
18.5199250846042
 21
18.0056292518876
 31
0.0
  0
LINE
  8
1
  6
CONTINUOUS
 62
1
 10
18.5199250846042
 20
18.0056292518876
 30
0.0
 11
18.5199250846042
 21
0.00562925188759689
 31
0.0
  0
LINE
  8
1
  6
CONTINUOUS
 62
1
 10
18.5199250846042
 20
0.00562925188759689
 30
0.0
 11
0.0199250846041359
 21
0.00562925188759222
 31
0.0
  0
ARC
  8
1
  6
CONTINUOUS
 62
1
 10
4.01992508460414
 20
1.22666271084266
 30
0.0
 40
0.178
 50
269.999999999999
 51
89.9999999999998
  0
ARC
  8
1
  6
CONTINUOUS
 62
1
 10
4.01992508460414
 20
1.22666271084266
 30
0.0
 40
0.178
 50
89.9999999999998
 51
270
  0
ARC
  8
1
  6
CONTINUOUS
 62
1
 10
16.0199250846042
 20
1.2266292518876
 30
0.0
 40
0.178
 50
269.999999999999
 51
89.9999999999998
  0
ARC
  8
1
  6
CONTINUOUS
 62
1
 10
16.0199250846042
 20
1.2266292518876
 30
0.0
 40
0.178
 50
89.9999999999998
 51
270
  0
ARC
  8
1
  6
CONTINUOUS
 62
1
 10
4.01992508460413
 20
16.7846627108427
 30
0.0
 40
0.178000000000001
 50
269.999999999999
 51
89.9999999999998
  0
ARC
  8
1
  6
CONTINUOUS
 62
1
 10
4.01992508460413
 20
16.7846627108427
 30
0.0
 40
0.178000000000001
 50
89.9999999999998
 51
270
  0
ARC
  8
1
  6
CONTINUOUS
 62
1
 10
16.0199250846042
 20
16.7846292518876
 30
0.0
 40
0.177999999999999
 50
269.999999999999
 51
89.9999999999998
  0
ARC
  8
1
  6
CONTINUOUS
 62
1
 10
16.0199250846042
 20
16.7846292518876
 30
0.0
 40
0.177999999999999
 50
89.9999999999998
 51
270
  0
ARC
  8
7
  6
CONTINUOUS
 62
7
 10
6.69492508460414
 20
5.00062925188752
 30
0.0
 40
0.31548316101305
 50
269.999999999999
 51
89.9999999999998
  0
ARC
  8
7
  6
CONTINUOUS
 62
7
 10
6.69492508460413
 20
5.00062925188752
 30
0.0
 40
0.31548316101305
 50
89.9999999999998
 51
270
  0
ARC
  8
7
  6
CONTINUOUS
 62
7
 10
14.7514250846042
 20
13.0146292518876
 30
0.0
 40
0.3154831610131
 50
269.999999999999
 51
89.9999999999998
  0
ARC
  8
7
  6
CONTINUOUS
 62
7
 10
14.7514250846042
 20
13.0146292518876
 30
0.0
 40
0.3154831610131
 50
89.9999999999998
 51
270
  0
ARC
  8
1
  6
CONTINUOUS
 62
1
 10
15.5639250846042
 20
14.5896292518876
 30
0.0
 40
0.0999999999999996
 50
269.999999999999
 51
89.9999999999998
  0
ARC
  8
1
  6
CONTINUOUS
 62
1
 10
15.5639250846042
 20
14.5896292518876
 30
0.0
 40
0.0999999999999996
 50
89.9999999999998
 51
270
  0
ARC
  8
1
  6
CONTINUOUS
 62
1
 10
15.5639250846042
 20
11.0646792518876
 30
0.0
 40
0.0999999999999996
 50
269.999999999999
 51
89.9999999999998
  0
ARC
  8
1
  6
CONTINUOUS
 62
1
 10
15.5639250846042
 20
11.0646792518876
 30
0.0
 40
0.0999999999999996
 50
89.9999999999998
 51
270
  0
ARC
  8
1
  6
CONTINUOUS
 62
1
 10
12.8969250846042
 20
14.5896292518876
 30
0.0
 40
0.0999999999999996
 50
269.999999999999
 51
89.9999999999998
  0
ARC
  8
1
  6
CONTINUOUS
 62
1
 10
12.8969250846042
 20
14.5896292518876
 30
0.0
 40
0.0999999999999996
 50
89.9999999999998
 51
270
  0
ARC
  8
1
  6
CONTINUOUS
 62
1
 10
7.19492508460414
 20
3.45662925188759
 30
0.0
 40
0.100000000000001
 50
269.999999999999
 51
89.9999999999998
  0
ARC
  8
1
  6
CONTINUOUS
 62
1
 10
7.19492508460414
 20
3.45662925188759
 30
0.0
 40
0.100000000000001
 50
89.9999999999998
 51
270
  0
ARC
  8
1
  6
CONTINUOUS
 62
1
 10
7.19488341365803
 20
6.98063897339647
 30
0.0
 40
0.0999999999999988
 50
269.999999999999
 51
89.9999999999998
  0
ARC
  8
1
  6
CONTINUOUS
 62
1
 10
7.19488341365803
 20
6.98063897339647
 30
0.0
 40
0.0999999999999988
 50
89.9999999999998
 51
270
  0
ARC
  8
1
  6
CONTINUOUS
 62
1
 10
4.52797349197934
 20
3.45660425872725
 30
0.0
 40
0.0999999999999996
 50
269.999999999999
 51
89.9999999999998
  0
ARC
  8
1
  6
CONTINUOUS
 62
1
 10
4.52797349197933
 20
3.45660425872725
 30
0.0
 40
0.0999999999999996
 50
89.9999999999998
 51
270
  0
LINE
  8
1
  6
CONTINUOUS
 62
1
 10
0.519925092002236
 20
0.00562925188795216
 30
0.0
 11
0.519159961284835
 21
0.331628690419312
 31
0.0
  0
LINE
  8
1
  6
CONTINUOUS
 62
1
 10
0.519159961284835
 20
0.331628690419312
 30
0.0
 11
0.019159961284835
 21
0.331628690419312
 31
0.0
  0
LINE
  8
1
  6
CONTINUOUS
 62
1
 10
0.019159961284835
 20
0.331628690419312
 30
0.0
 11
0.0199250920022358
 21
0.00562925188795194
 31
0.0
  0
LINE
  8
1
  6
CONTINUOUS
 62
1
 10
0.0199250920022358
 20
0.00562925188795194
 30
0.0
 11
0.519925092002236
 21
0.00562925188795216
 31
0.0
  0
LINE
  8
1
  6
CONTINUOUS
 62
1
 10
0.0199250846041323
 20
18.0056292518876
 30
0.0
 11
0.0199250846041323
 21
9.00562925188757
 31
0.0
  0
LINE
  8
1
  6
CONTINUOUS
 62
1
 10
0.52002068435673
 20
17.6811923322929
 30
0.0
 11
0.520049000362931
 21
18.0071923310631
 31
0.0
  0
LINE
  8
1
  6
CONTINUOUS
 62
1
 10
0.520049000362931
 20
18.0071923310631
 30
0.0
 11
0.0200490410897309
 21
18.0076612153698
 31
0.0
  0
LINE
  8
1
  6
CONTINUOUS
 62
1
 10
0.0200490410897309
 20
18.0076612153698
 30
0.0
 11
0.0205799342018302
 21
17.6816616476515
 31
0.0
  0
LINE
  8
1
  6
CONTINUOUS
 62
1
 10
0.0205799342018302
 20
17.6816616476515
 30
0.0
 11
0.52002068435673
 21
17.6811923322929
 31
0.0
  0
LINE
  8
1
  6
CONTINUOUS
 62
1
 10
18.5199250846042
 20
0.00562925188759689
 30
0.0
 11
18.5194527255328
 21
0.318127466877376
 31
0.0
  0
LINE
  8
1
  6
CONTINUOUS
 62
1
 10
18.5194527255328
 20
0.318127466877376
 30
0.0
 11
17.9794513612909
 21
0.318050908668386
 31
0.0
  0
LINE
  8
1
  6
CONTINUOUS
 62
1
 10
17.9794513612909
 20
0.318050908668386
 30
0.0
 11
17.9799237203623
 21
0.00555269367861644
 31
0.0
  0
LINE
  8
1
  6
CONTINUOUS
 62
1
 10
17.9799237203623
 20
0.00555269367861644
 30
0.0
 11
18.5199250846042
 21
0.00562925188759689
 31
0.0
  0
LINE
  8
1
  6
CONTINUOUS
 62
1
 10
18.5198378235222
 20
17.6928329747879
 30
0.0
 11
18.5199250916395
 21
18.0053329138621
 31
0.0
  0
LINE
  8
1
  6
CONTINUOUS
 62
1
 10
18.5199250916395
 20
18.0053329138621
 30
0.0
 11
17.9799290105928
 21
18.004361870406
 31
0.0
  0
LINE
  8
1
  6
CONTINUOUS
 62
1
 10
17.9799290105928
 20
18.004361870406
 30
0.0
 11
17.9798417424755
 21
17.6918619313318
 31
0.0
  0
LINE
  8
1
  6
CONTINUOUS
 62
1
 10
17.9798417424755
 20
17.6918619313318
 30
0.0
 11
18.5198378235222
 21
17.6928329747879
 31
0.0
  0
LINE
  8
7
  6
CONTINUOUS
 62
7
 10
4.99430718527128
 20
16.8115189087647
 30
0.0
 11
4.99430718527128
 21
16.1123895320283
 31
0.0
  0
LINE
  8
7
  6
CONTINUOUS
 62
7
 10
5.03180718527128
 20
16.1123895320283
 30
0.0
 11
5.26805718527128
 21
16.1123895320283
 31
0.0
  0
ARC
  8
7
  6
CONTINUOUS
 62
7
 10
5.26805718526356
 20
16.2873895320283
 30
0.0
 40
0.175
 50
270.00000000253
 51
89.9818814817934
  0
LINE
  8
7
  6
CONTINUOUS
 62
7
 10
5.26811252512733
 20
16.4623895232783
 30
0.0
 11
5.25424155105114
 21
16.4623895232783
 31
0.0
  0
ARC
  8
7
  6
CONTINUOUS
 62
7
 10
5.23680714509547
 20
16.6365189067584
 30
0.0
 40
0.175000002006252
 50
275.717586846254
 51
89.9999868462586
  0
LINE
  8
7
  6
CONTINUOUS
 62
7
 10
5.23680718527128
 20
16.8115189087647
 30
0.0
 11
5.03180718527128
 21
16.8115189087647
 31
0.0
  0
LINE
  8
7
  6
CONTINUOUS
 62
7
 10
5.03180718527128
 20
16.4623895232783
 30
0.0
 11
5.25424155105114
 21
16.4623895232783
 31
0.0
  0
ARC
  8
7
  6
CONTINUOUS
 62
7
 10
5.72620478526355
 20
16.6033459087647
 30
0.0
 40
0.208173
 50
93.4424652776291
 51
164.098
  0
ARC
  8
7
  6
CONTINUOUS
 62
7
 10
6.11667303339117
 20
16.4603836145166
 30
0.0
 40
0.623615934640423
 50
161.2941
 51
198.7059
  0
ARC
  8
7
  6
CONTINUOUS
 62
7
 10
5.72620456938721
 20
16.3174214324187
 30
0.0
 40
0.208172711190177
 50
195.902054741785
 51
266.557589464157
  0
ARC
  8
7
  6
CONTINUOUS
 62
7
 10
5.72620478526356
 20
16.3174217087647
 30
0.0
 40
0.208173000000001
 50
273.442465277628
 51
344.097999999998
  0
ARC
  8
7
  6
CONTINUOUS
 62
7
 10
5.33573657532688
 20
16.4603839900814
 30
0.0
 40
0.623615894319629
 50
341.294099999999
 51
18.7059000000007
  0
ARC
  8
7
  6
CONTINUOUS
 62
7
 10
5.72620508289514
 20
16.6033460310893
 30
0.0
 40
0.208172860024592
 50
15.9020797482312
 51
86.5576144706042
  0
LINE
  8
7
  6
CONTINUOUS
 62
7
 10
6.00935258526355
 20
16.8115189087647
 30
0.0
 11
6.23310258526355
 21
16.8115189087647
 31
0.0
  0
LINE
  8
7
  6
CONTINUOUS
 62
7
 10
6.23310258526355
 20
16.8115189087647
 30
0.0
 11
6.23310263526355
 21
16.1115189087647
 31
0.0
  0
LINE
  8
7
  6
CONTINUOUS
 62
7
 10
6.23310263526358
 20
16.8115189087647
 30
0.0
 11
6.45685258526355
 21
16.8115189087647
 31
0.0
  0
LINE
  8
7
  6
CONTINUOUS
 62
7
 10
6.50685258526355
 20
16.8115189087647
 30
0.0
 11
6.73060258526355
 21
16.8115189087647
 31
0.0
  0
LINE
  8
7
  6
CONTINUOUS
 62
7
 10
6.73060258526355
 20
16.8115189087647
 30
0.0
 11
6.73060263526355
 21
16.1115189087647
 31
0.0
  0
LINE
  8
7
  6
CONTINUOUS
 62
7
 10
6.73060263526358
 20
16.8115189087647
 30
0.0
 11
6.95435258526355
 21
16.8115189087647
 31
0.0
  0
ARC
  8
7
  6
CONTINUOUS
 62
7
 10
7.23750018526355
 20
16.6033459087647
 30
0.0
 40
0.208173
 50
93.4424652776291
 51
164.098
  0
ARC
  8
7
  6
CONTINUOUS
 62
7
 10
7.62796843339117
 20
16.4603836145166
 30
0.0
 40
0.623615934640423
 50
161.2941
 51
198.7059
  0
ARC
  8
7
  6
CONTINUOUS
 62
7
 10
7.23749996938721
 20
16.3174214324187
 30
0.0
 40
0.208172711190177
 50
195.902054741785
 51
266.557589464157
  0
ARC
  8
7
  6
CONTINUOUS
 62
7
 10
7.23750018526356
 20
16.3174217087647
 30
0.0
 40
0.208173000000001
 50
273.442465277628
 51
344.097999999998
  0
ARC
  8
7
  6
CONTINUOUS
 62
7
 10
6.84703197532688
 20
16.4603839900814
 30
0.0
 40
0.623615894319629
 50
341.294099999999
 51
18.7059000000007
  0
ARC
  8
7
  6
CONTINUOUS
 62
7
 10
7.23750048289514
 20
16.6033460310893
 30
0.0
 40
0.208172860024592
 50
15.9020797482312
 51
86.5576144706042
  0
LINE
  8
7
  6
CONTINUOUS
 62
7
 10
7.52314798526355
 20
16.1115189087647
 30
0.0
 11
7.52314798526355
 21
16.8115189087647
 31
0.0
  0
LINE
  8
7
  6
CONTINUOUS
 62
7
 10
7.52314798526355
 20
16.8115189087647
 30
0.0
 11
7.81814798526353
 21
16.3165189087646
 31
0.0
  0
LINE
  8
7
  6
CONTINUOUS
 62
7
 10
7.81814798526353
 20
16.3165189087646
 30
0.0
 11
8.11314798526353
 21
16.8115189087647
 31
0.0
  0
LINE
  8
7
  6
CONTINUOUS
 62
7
 10
8.11314798526353
 20
16.8115189087647
 30
0.0
 11
8.11314798526353
 21
16.1115189087647
 31
0.0
  0
LINE
  8
7
  6
CONTINUOUS
 62
7
 10
8.71314798526353
 20
16.4615189087646
 30
0.0
 11
9.11314803526353
 21
16.4615189087646
 31
0.0
  0
LINE
  8
7
  6
CONTINUOUS
 62
7
 10
9.71314803526353
 20
16.8115189087647
 30
0.0
 11
9.93689803526353
 21
16.8115189087647
 31
0.0
  0
LINE
  8
7
  6
CONTINUOUS
 62
7
 10
9.93689803526353
 20
16.8115189087647
 30
0.0
 11
9.93689808526353
 21
16.1115189087647
 31
0.0
  0
LINE
  8
7
  6
CONTINUOUS
 62
7
 10
9.93689808526355
 20
16.8115189087647
 30
0.0
 11
10.1606480352635
 21
16.8115189087647
 31
0.0
  0
LINE
  8
7
  6
CONTINUOUS
 62
7
 10
10.2106480352635
 20
16.8115189087647
 30
0.0
 11
10.2106480352635
 21
16.4615189087646
 31
0.0
  0
LINE
  8
7
  6
CONTINUOUS
 62
7
 10
10.2106480352635
 20
16.4615189087646
 30
0.0
 11
10.2106480352635
 21
16.1115189087647
 31
0.0
  0
LINE
  8
7
  6
CONTINUOUS
 62
7
 10
10.2106480352635
 20
16.4615189087646
 30
0.0
 11
10.6356480352635
 21
16.4615189087646
 31
0.0
  0
LINE
  8
7
  6
CONTINUOUS
 62
7
 10
10.6356480352635
 20
16.1115189087647
 30
0.0
 11
10.6356480352635
 21
16.4615189087646
 31
0.0
  0
LINE
  8
7
  6
CONTINUOUS
 62
7
 10
10.6356480352635
 20
16.4615189087646
 30
0.0
 11
10.6356480352635
 21
16.8115189087647
 31
0.0
  0
LINE
  8
7
  6
CONTINUOUS
 62
7
 10
10.6856480352635
 20
16.8115189087647
 30
0.0
 11
10.785647988406
 21
16.8115189087647
 31
0.0
  0
LINE
  8
7
  6
CONTINUOUS
 62
7
 10
10.785647988406
 20
16.8115189087647
 30
0.0
 11
10.885647988406
 21
16.8115189087647
 31
0.0
  0
LINE
  8
7
  6
CONTINUOUS
 62
7
 10
10.785647988406
 20
16.8115189087647
 30
0.0
 11
10.785647988406
 21
16.1115189087647
 31
0.0
  0
LINE
  8
7
  6
CONTINUOUS
 62
7
 10
10.6856480352635
 20
16.1115189087647
 30
0.0
 11
10.785647988406
 21
16.1115189087647
 31
0.0
  0
LINE
  8
7
  6
CONTINUOUS
 62
7
 10
10.785647988406
 20
16.1115189087647
 30
0.0
 11
10.885647988406
 21
16.1115189087647
 31
0.0
  0
ARC
  8
7
  6
CONTINUOUS
 62
7
 10
11.1835729516518
 20
16.6090381587647
 30
0.0
 40
0.201785649999994
 50
30.5220200000003
 51
89.2984800000003
  0
LINE
  8
7
  6
CONTINUOUS
 62
7
 10
11.1860435198784
 20
16.8108086839624
 30
0.0
 11
11.1291663016518
 21
16.8115051087646
 31
0.0
  0
ARC
  8
7
  6
CONTINUOUS
 62
7
 10
11.1269109412709
 20
16.6273090771771
 30
0.0
 40
0.184209838779204
 50
89.2984855715477
 51
177.350705571549
  0
ARC
  8
7
  6
CONTINUOUS
 62
7
 10
11.0927360222336
 20
16.6494132952604
 30
0.0
 40
0.150453024370534
 50
185.18227425511
 51
239.34477425511
  0
LINE
  8
7
  6
CONTINUOUS
 62
7
 10
11.0160244147986
 20
16.5199859340612
 30
0.0
 11
11.2915215016518
 21
16.4016617587647
 31
0.0
  0
ARC
  8
7
  6
CONTINUOUS
 62
7
 10
11.2148100316496
 20
16.2722343815607
 30
0.0
 40
0.150452968065694
 50
5.18223938609813
 51
59.3448223860981
  0
ARC
  8
7
  6
CONTINUOUS
 62
7
 10
11.1806351240761
 20
16.2943385917128
 30
0.0
 40
0.184209783657818
 50
269.441077271098
 51
357.3506772711
  0
LINE
  8
7
  6
CONTINUOUS
 62
7
 10
11.1788381784213
 20
16.1101375727646
 30
0.0
 11
11.1075046516518
 21
16.1108334587646
 31
0.0
  0
ARC
  8
7
  6
CONTINUOUS
 62
7
 10
11.1094730099215
 20
16.3126094344939
 30
0.0
 40
0.20178557633229
 50
210.521987851209
 51
269.441087851209
  0
ARC
  8
7
  6
CONTINUOUS
 62
7
 10
12.2125729782039
 20
16.6090381587647
 30
0.0
 40
0.201785649999994
 50
30.5220200000003
 51
89.2984800000003
  0
LINE
  8
7
  6
CONTINUOUS
 62
7
 10
12.2150435464305
 20
16.8108086839624
 30
0.0
 11
12.1581663282039
 21
16.8115051087646
 31
0.0
  0
ARC
  8
7
  6
CONTINUOUS
 62
7
 10
12.1559109678231
 20
16.6273090771771
 30
0.0
 40
0.184209838779204
 50
89.2984855715477
 51
177.350705571549
  0
ARC
  8
7
  6
CONTINUOUS
 62
7
 10
12.1217360487857
 20
16.6494132952604
 30
0.0
 40
0.150453024370534
 50
185.18227425511
 51
239.34477425511
  0
LINE
  8
7
  6
CONTINUOUS
 62
7
 10
12.0450244413507
 20
16.5199859340612
 30
0.0
 11
12.3205215282039
 21
16.4016617587647
 31
0.0
  0
ARC
  8
7
  6
CONTINUOUS
 62
7
 10
12.2438100582018
 20
16.2722343815607
 30
0.0
 40
0.150452968065694
 50
5.18223938609813
 51
59.3448223860981
  0
ARC
  8
7
  6
CONTINUOUS
 62
7
 10
12.2096351506282
 20
16.2943385917128
 30
0.0
 40
0.184209783657818
 50
269.441077271098
 51
357.3506772711
  0
LINE
  8
7
  6
CONTINUOUS
 62
7
 10
12.2078382049734
 20
16.1101375727646
 30
0.0
 11
12.1365046782039
 21
16.1108334587646
 31
0.0
  0
ARC
  8
7
  6
CONTINUOUS
 62
7
 10
12.1384730364736
 20
16.3126094344939
 30
0.0
 40
0.20178557633229
 50
210.521987851209
 51
269.441087851209
  0
LINE
  8
7
  6
CONTINUOUS
 62
7
 10
12.4436480415103
 20
16.8115189087647
 30
0.0
 11
12.5436479946528
 21
16.8115189087647
 31
0.0
  0
LINE
  8
7
  6
CONTINUOUS
 62
7
 10
12.5436479946528
 20
16.8115189087647
 30
0.0
 11
12.6436479946528
 21
16.8115189087647
 31
0.0
  0
LINE
  8
7
  6
CONTINUOUS
 62
7
 10
12.5436479946528
 20
16.8115189087647
 30
0.0
 11
12.5436479946528
 21
16.1115189087647
 31
0.0
  0
LINE
  8
7
  6
CONTINUOUS
 62
7
 10
12.4436480415103
 20
16.1115189087647
 30
0.0
 11
12.5436479946528
 21
16.1115189087647
 31
0.0
  0
LINE
  8
7
  6
CONTINUOUS
 62
7
 10
12.5436479946528
 20
16.1115189087647
 30
0.0
 11
12.6436479946528
 21
16.1115189087647
 31
0.0
  0
LINE
  8
7
  6
CONTINUOUS
 62
7
 10
12.6936479946528
 20
16.8115189087647
 30
0.0
 11
12.6936479946528
 21
16.1115189087647
 31
0.0
  0
LINE
  8
7
  6
CONTINUOUS
 62
7
 10
12.7311479946528
 20
16.1115189087647
 30
0.0
 11
12.8888977946528
 21
16.1115189087647
 31
0.0
  0
ARC
  8
7
  6
CONTINUOUS
 62
7
 10
12.8647503573899
 20
16.3678082679555
 30
0.0
 40
0.257424424561522
 50
275.382485884765
 51
335.613185884765
  0
ARC
  8
7
  6
CONTINUOUS
 62
7
 10
12.5085324288226
 20
16.4615191737312
 30
0.0
 40
0.623615704825756
 50
341.294099999999
 51
18.7059000000007
  0
ARC
  8
7
  6
CONTINUOUS
 62
7
 10
12.8647507674025
 20
16.5552297838298
 30
0.0
 40
0.25742419052049
 50
24.3869099871621
 51
84.6174899871621
  0
LINE
  8
7
  6
CONTINUOUS
 62
7
 10
12.8888982906385
 20
16.8115188998427
 30
0.0
 11
12.7311479946528
 21
16.8115189087647
 31
0.0
  0
LINE
  8
7
  6
CONTINUOUS
 62
7
 10
13.1821481946528
 20
16.8115189087647
 30
0.0
 11
13.1826481946528
 21
16.1115189087647
 31
0.0
  0
LINE
  8
7
  6
CONTINUOUS
 62
7
 10
13.1826481946528
 20
16.1115189087647
 30
0.0
 11
13.5931481946528
 21
16.1115189087647
 31
0.0
  0
LINE
  8
7
  6
CONTINUOUS
 62
7
 10
13.1826481946528
 20
16.4615189087647
 30
0.0
 11
13.5031481946528
 21
16.4615189087647
 31
0.0
  0
LINE
  8
7
  6
CONTINUOUS
 62
7
 10
13.1946481978416
 20
16.8115189087647
 30
0.0
 11
13.194648191464
 21
16.8115278373338
 31
0.0
  0
LINE
  8
7
  6
CONTINUOUS
 62
7
 10
13.194648191464
 20
16.8115278373338
 30
0.0
 11
13.5931481946528
 21
16.8115189087647
 31
0.0
  0
LINE
  8
7
  6
CONTINUOUS
 62
7
 10
14.1931481946528
 20
16.8115189087647
 30
0.0
 11
14.1931481946528
 21
16.3115188587647
 31
0.0
  0
ARC
  8
7
  6
CONTINUOUS
 62
7
 10
14.3981725387287
 20
16.3120188117232
 30
0.0
 40
0.205024953643985
 50
180.139715787557
 51
270.698715787557
  0
ARC
  8
7
  6
CONTINUOUS
 62
7
 10
14.3981725946528
 20
16.3120188587646
 30
0.0
 40
0.205024999999995
 50
270.698699999993
 51
1.25769999999877
  0
LINE
  8
7
  6
CONTINUOUS
 62
7
 10
14.60314820133
 20
16.3165190023534
 30
0.0
 11
14.6031481946528
 21
16.8115189087647
 31
0.0
  0
LINE
  8
7
  6
CONTINUOUS
 62
7
 10
14.6531481946528
 20
16.8115189087647
 30
0.0
 11
14.6531481946528
 21
16.1115189087647
 31
0.0
  0
LINE
  8
7
  6
CONTINUOUS
 62
7
 10
14.6906481946528
 20
16.8115189087647
 30
0.0
 11
14.9071481946528
 21
16.8115189087647
 31
0.0
  0
ARC
  8
7
  6
CONTINUOUS
 62
7
 10
14.9071481946528
 20
16.6365189087646
 30
0.0
 40
0.174999999999999
 50
359.995599999999
 51
90.000000000001
  0
ARC
  8
7
  6
CONTINUOUS
 62
7
 10
14.9071481946528
 20
16.6365189087647
 30
0.0
 40
0.175000000000008
 50
269.991199999995
 51
359.995599999997
  0
LINE
  8
7
  6
CONTINUOUS
 62
7
 10
14.9071213165824
 20
16.4615189108287
 30
0.0
 11
14.6906481946528
 21
16.4615189087646
 31
0.0
  0
ARC
  8
7
  6
CONTINUOUS
 62
7
 10
1.08727411712137
 20
4.30880978879143
 30
0.0
 40
0.121071389999996
 50
120.602012368163
 51
179.378472368163
  0
LINE
  8
7
  6
CONTINUOUS
 62
7
 10
0.96620985044855
 20
4.31012310958333
 30
0.0
 11
0.965839640760199
 21
4.27599622852687
 31
0.0
  0
ARC
  8
7
  6
CONTINUOUS
 62
7
 10
1.07635904126886
 20
4.27479731055263
 30
0.0
 40
0.110525903267522
 50
179.378477939711
 51
267.430697939712
  0
ARC
  8
7
  6
CONTINUOUS
 62
7
 10
1.06312515091705
 20
4.25427386290028
 30
0.0
 40
0.0902718146223203
 50
275.26226662327
 51
329.424766623271
  0
LINE
  8
7
  6
CONTINUOUS
 62
7
 10
1.14084575156767
 20
4.20835536173014
 30
0.0
 11
1.21160940974814
 21
4.37375257028467
 31
0.0
  0
ARC
  8
7
  6
CONTINUOUS
 62
7
 10
1.28933001988651
 20
4.32783415158758
 30
0.0
 40
0.0902717808394164
 50
95.2622317542591
 51
149.424814754259
  0
ARC
  8
7
  6
CONTINUOUS
 62
7
 10
1.27609613428381
 20
4.30731071082015
 30
0.0
 40
0.11052587019469
 50
359.52106963926
 51
87.4306696392623
  0
LINE
  8
7
  6
CONTINUOUS
 62
7
 10
1.38661814320209
 20
4.30638684559126
 30
0.0
 11
1.38626036652418
 21
4.26358618831381
 31
0.0
  0
ARC
  8
7
  6
CONTINUOUS
 62
7
 10
1.26519325022579
 20
4.26459817885944
 30
0.0
 40
0.121071345799374
 50
300.601980219372
 51
359.521080219372
  0
ARC
  8
7
  6
CONTINUOUS
 62
7
 10
1.23227550593123
 20
4.60809608920892
 30
0.0
 40
0.154454580000001
 50
294.466792368159
 51
54.3999923681594
  0
ARC
  8
7
  6
CONTINUOUS
 62
7
 10
1.17575070792873
 20
4.8217482693091
 30
0.0
 40
0.374169448266846
 50
251.374066442011
 51
288.785866442011
  0
ARC
  8
7
  6
CONTINUOUS
 62
7
 10
1.11982250898702
 20
4.6079390886806
 30
0.0
 40
0.154454532537329
 50
125.75996237813
 51
245.693132378131
  0
LINE
  8
7
  6
CONTINUOUS
 62
7
 10
0.965151181658157
 20
4.76318478128831
 30
0.0
 11
1.38515077233052
 21
4.7637711557822
 31
0.0
  0
LINE
  8
7
  6
CONTINUOUS
 62
7
 10
0.965119768738841
 20
4.78568475936005
 30
0.0
 11
0.964938411484662
 21
4.91558463276086
 31
0.0
  0
ARC
  8
7
  6
CONTINUOUS
 62
7
 10
1.06993830915276
 20
4.91573122638434
 30
0.0
 40
0.105000000000006
 50
90.0755923681649
 51
180.079992368167
  0
ARC
  8
7
  6
CONTINUOUS
 62
7
 10
1.06993830915274
 20
4.91573122638433
 30
0.0
 40
0.105000000000013
 50
0.0711923681531507
 51
90.0755923681551
  0
LINE
  8
7
  6
CONTINUOUS
 62
7
 10
1.17493822809756
 20
4.91586169317955
 30
0.0
 11
1.38479140853355
 21
5.02117090492284
 31
0.0
  0
LINE
  8
7
  6
CONTINUOUS
 62
7
 10
1.17511956407502
 20
4.78597794660699
 30
0.0
 11
1.17493822943815
 21
4.91586162002359
 31
0.0
  0
LINE
  8
7
  6
CONTINUOUS
 62
7
 10
0.964749933968768
 20
5.05058450119126
 30
0.0
 11
1.38474910580218
 21
5.05147087539277
 31
0.0
  0
LINE
  8
7
  6
CONTINUOUS
 62
7
 10
1.38474910580218
 20
5.05147087539277
 30
0.0
 11
1.3844052390454
 21
5.29777063535135
 31
0.0
  0
LINE
  8
7
  6
CONTINUOUS
 62
7
 10
1.174749310466
 20
5.05117768814583
 30
0.0
 11
1.17448083471558
 21
5.24347750073225
 31
0.0
  0
LINE
  8
7
  6
CONTINUOUS
 62
7
 10
0.964739462992993
 20
5.0580844957951
 30
0.0
 11
0.964734105862066
 21
5.05808448448931
 31
0.0
  0
LINE
  8
7
  6
CONTINUOUS
 62
7
 10
0.964734105862066
 20
5.05808448448931
 30
0.0
 11
0.964405648373072
 21
5.29718426085746
 31
0.0
  0
LINE
  8
7
  6
CONTINUOUS
 62
7
 10
0.964363764480652
 20
5.32718423161977
 30
0.0
 11
1.38436293631406
 21
5.32807060582128
 31
0.0
  0
LINE
  8
7
  6
CONTINUOUS
 62
7
 10
1.38436293631406
 20
5.32807060582128
 30
0.0
 11
1.38401906955729
 21
5.57437036577986
 31
0.0
  0
LINE
  8
7
  6
CONTINUOUS
 62
7
 10
1.17436314097788
 20
5.32777741857434
 30
0.0
 11
1.17409466522746
 21
5.52007723116076
 31
0.0
  0
LINE
  8
7
  6
CONTINUOUS
 62
7
 10
0.964353293504876
 20
5.33468422622362
 30
0.0
 11
0.964347936373949
 21
5.33468421491782
 31
0.0
  0
LINE
  8
7
  6
CONTINUOUS
 62
7
 10
0.964347936373949
 20
5.33468421491782
 30
0.0
 11
0.964019478884955
 21
5.57378399128598
 31
0.0
  0
LINE
  8
7
  6
CONTINUOUS
 62
7
 10
1.38397509147028
 20
5.60587033508029
 30
0.0
 11
0.963975500797915
 21
5.6052839605864
 31
0.0
  0
LINE
  8
7
  6
CONTINUOUS
 62
7
 10
0.963975500797915
 20
5.6052839605864
 30
0.0
 11
1.38361572767331
 21
5.86327008422092
 31
0.0
  0
LINE
  8
7
  6
CONTINUOUS
 62
7
 10
1.38361572767331
 20
5.86327008422092
 30
0.0
 11
0.963616137000946
 21
5.86268370972704
 31
0.0
  0
ARC
  8
7
  6
CONTINUOUS
 62
7
 10
1.08439418064074
 20
6.37160780548616
 30
0.0
 40
0.121071389999995
 50
120.602012368162
 51
179.378472368162
  0
LINE
  8
7
  6
CONTINUOUS
 62
7
 10
0.963329913967913
 20
6.37292112627806
 30
0.0
 11
0.962959704279562
 21
6.3387942452216
 31
0.0
  0
ARC
  8
7
  6
CONTINUOUS
 62
7
 10
1.07347910478822
 20
6.33759532724736
 30
0.0
 40
0.110525903267523
 50
179.37847793971
 51
267.430697939711
  0
ARC
  8
7
  6
CONTINUOUS
 62
7
 10
1.06024521443641
 20
6.31707187959502
 30
0.0
 40
0.090271814622323
 50
275.262266623271
 51
329.424766623271
  0
LINE
  8
7
  6
CONTINUOUS
 62
7
 10
1.13796581508704
 20
6.27115337842488
 30
0.0
 11
1.20872947326751
 21
6.4365505869794
 31
0.0
  0
ARC
  8
7
  6
CONTINUOUS
 62
7
 10
1.28645008340587
 20
6.39063216828232
 30
0.0
 40
0.0902717808394164
 50
95.2622317542591
 51
149.424814754259
  0
ARC
  8
7
  6
CONTINUOUS
 62
7
 10
1.27321619780318
 20
6.37010872751489
 30
0.0
 40
0.110525870194689
 50
359.52106963926
 51
87.4306696392625
  0
LINE
  8
7
  6
CONTINUOUS
 62
7
 10
1.38373820672146
 20
6.369184862286
 30
0.0
 11
1.38338043004354
 21
6.32638420500855
 31
0.0
  0
ARC
  8
7
  6
CONTINUOUS
 62
7
 10
1.26231331374516
 20
6.32739619555418
 30
0.0
 40
0.121071345799374
 50
300.601980219372
 51
359.521080219372
  0
LINE
  8
7
  6
CONTINUOUS
 62
7
 10
0.96271228258027
 20
6.51008309470898
 30
0.0
 11
0.96262851483468
 21
6.57008300811913
 31
0.0
  0
LINE
  8
7
  6
CONTINUOUS
 62
7
 10
0.96262851483468
 20
6.57008300811913
 30
0.0
 11
0.96254474704984
 21
6.63008294964376
 31
0.0
  0
LINE
  8
7
  6
CONTINUOUS
 62
7
 10
0.96262851483468
 20
6.57008300811913
 30
0.0
 11
1.38262810550704
 21
6.57066938261302
 31
0.0
  0
LINE
  8
7
  6
CONTINUOUS
 62
7
 10
1.38271187325263
 20
6.51066946920287
 30
0.0
 11
1.38262810550704
 21
6.57066938261302
 31
0.0
  0
LINE
  8
7
  6
CONTINUOUS
 62
7
 10
1.38262810550704
 20
6.57066938261302
 30
0.0
 11
1.3825443377222
 21
6.63066932413764
 31
0.0
  0
LINE
  8
7
  6
CONTINUOUS
 62
7
 10
0.96250286315742
 20
6.66008292040607
 30
0.0
 11
1.38250245382978
 21
6.66066929489995
 31
0.0
  0
LINE
  8
7
  6
CONTINUOUS
 62
7
 10
1.38247104091047
 20
6.68316927297169
 30
0.0
 11
1.38233889739742
 21
6.7778190607269
 31
0.0
  0
ARC
  8
7
  6
CONTINUOUS
 62
7
 10
1.22858565952235
 20
6.7631159245705
 30
0.0
 40
0.154454654736913
 50
5.46247825292845
 51
65.6931782529285
  0
ARC
  8
7
  6
CONTINUOUS
 62
7
 10
1.17265754987952
 20
6.54930688185679
 30
0.0
 40
0.374169422895455
 50
71.3740896464429
 51
108.785889646445
  0
ARC
  8
7
  6
CONTINUOUS
 62
7
 10
1.11613285924977
 20
6.76295917172569
 30
0.0
 40
0.154454514312293
 50
114.466902355325
 51
174.697482355325
  0
LINE
  8
7
  6
CONTINUOUS
 62
7
 10
0.962339311662712
 20
6.7772329838316
 30
0.0
 11
0.962471450238104
 21
6.6825828984778
 31
0.0
  0
LINE
  8
7
  6
CONTINUOUS
 62
7
 10
0.962093657360935
 20
6.95318275475374
 30
0.0
 11
1.38209282919435
 21
6.95406912895525
 31
0.0
  0
LINE
  8
7
  6
CONTINUOUS
 62
7
 10
1.38209282919435
 20
6.95406912895525
 30
0.0
 11
1.38174896243757
 21
7.20036888891383
 31
0.0
  0
LINE
  8
7
  6
CONTINUOUS
 62
7
 10
1.17209303385816
 20
6.95377594170831
 30
0.0
 11
1.17182455810775
 21
7.14607575429472
 31
0.0
  0
LINE
  8
7
  6
CONTINUOUS
 62
7
 10
0.96208318638516
 20
6.96068274935758
 30
0.0
 11
0.962077829254232
 21
6.96068273805179
 31
0.0
  0
LINE
  8
7
  6
CONTINUOUS
 62
7
 10
0.962077829254232
 20
6.96068273805179
 30
0.0
 11
0.961749371765238
 21
7.19978251441994
 31
0.0
  0
LINE
  8
7
  6
CONTINUOUS
 62
7
 10
1.38124635572856
 20
7.56036853806157
 30
0.0
 11
0.960911693916829
 21
7.79978192966617
 31
0.0
  0
LINE
  8
7
  6
CONTINUOUS
 62
7
 10
0.960409087207784
 20
8.15978157881391
 30
0.0
 11
0.960325319462195
 21
8.21978149222407
 31
0.0
  0
LINE
  8
7
  6
CONTINUOUS
 62
7
 10
0.960325319462195
 20
8.21978149222407
 30
0.0
 11
0.960241551677353
 21
8.27978143374869
 31
0.0
  0
LINE
  8
7
  6
CONTINUOUS
 62
7
 10
0.960325319462195
 20
8.21978149222407
 30
0.0
 11
1.38032491013456
 21
8.22036786671795
 31
0.0
  0
LINE
  8
7
  6
CONTINUOUS
 62
7
 10
1.38040867788015
 20
8.1603679533078
 30
0.0
 11
1.38032491013456
 21
8.22036786671795
 31
0.0
  0
LINE
  8
7
  6
CONTINUOUS
 62
7
 10
1.38032491013456
 20
8.22036786671795
 30
0.0
 11
1.38024114234972
 21
8.28036780824258
 31
0.0
  0
LINE
  8
7
  6
CONTINUOUS
 62
7
 10
1.38019716426268
 20
8.311867777543
 30
0.0
 11
0.960197573590312
 21
8.31128140304912
 31
0.0
  0
LINE
  8
7
  6
CONTINUOUS
 62
7
 10
0.960197573590312
 20
8.31128140304912
 30
0.0
 11
1.37983780046571
 21
8.56926752668364
 31
0.0
  0
LINE
  8
7
  6
CONTINUOUS
 62
7
 10
1.37983780046571
 20
8.56926752668364
 30
0.0
 11
0.959838209793345
 21
8.56868115218975
 31
0.0
  0
ARC
  8
7
  6
CONTINUOUS
 62
7
 10
1.08107697624976
 20
8.74760556956345
 30
0.0
 40
0.121071389999995
 50
120.602012368162
 51
179.378472368162
  0
LINE
  8
7
  6
CONTINUOUS
 62
7
 10
0.960012709576937
 20
8.74891889035535
 30
0.0
 11
0.959642499888586
 21
8.71479200929889
 31
0.0
  0
ARC
  8
7
  6
CONTINUOUS
 62
7
 10
1.07016190039724
 20
8.71359309132465
 30
0.0
 40
0.110525903267523
 50
179.37847793971
 51
267.430697939711
  0
ARC
  8
7
  6
CONTINUOUS
 62
7
 10
1.05692801004543
 20
8.6930696436723
 30
0.0
 40
0.0902718146223203
 50
275.26226662327
 51
329.424766623271
  0
LINE
  8
7
  6
CONTINUOUS
 62
7
 10
1.13464861069606
 20
8.64715114250216
 30
0.0
 11
1.20541226887653
 21
8.81254835105669
 31
0.0
  0
ARC
  8
7
  6
CONTINUOUS
 62
7
 10
1.28313287901489
 20
8.7666299323596
 30
0.0
 40
0.090271780839418
 50
95.2622317542585
 51
149.424814754258
  0
ARC
  8
7
  6
CONTINUOUS
 62
7
 10
1.2698989934122
 20
8.74610649159217
 30
0.0
 40
0.110525870194689
 50
359.52106963926
 51
87.4306696392625
  0
LINE
  8
7
  6
CONTINUOUS
 62
7
 10
1.38042100233048
 20
8.74518262636328
 30
0.0
 11
1.38006322565257
 21
8.70238196908583
 31
0.0
  0
ARC
  8
7
  6
CONTINUOUS
 62
7
 10
1.25899610935418
 20
8.70339395963146
 30
0.0
 40
0.121071345799373
 50
300.601980219372
 51
359.521080219372
  0
LINE
  8
7
  6
CONTINUOUS
 62
7
 10
0.959395078189294
 20
8.88608085878627
 30
0.0
 11
1.3793942500227
 21
8.88696723298778
 31
0.0
  0
LINE
  8
7
  6
CONTINUOUS
 62
7
 10
1.3793942500227
 20
8.88696723298778
 30
0.0
 11
1.37905038326593
 21
9.13326699294636
 31
0.0
  0
LINE
  8
7
  6
CONTINUOUS
 62
7
 10
1.16939445468652
 20
8.88667404574083
 30
0.0
 11
1.16912597893611
 21
9.07897385832725
 31
0.0
  0
LINE
  8
7
  6
CONTINUOUS
 62
7
 10
0.959384607213517
 20
8.89358085339011
 30
0.0
 11
0.959379250082591
 21
8.89358084208432
 31
0.0
  0
LINE
  8
7
  6
CONTINUOUS
 62
7
 10
0.959379250082591
 20
8.89358084208432
 30
0.0
 11
0.959050792593597
 21
9.13268061845247
 31
0.0
  0
LINE
  8
7
  6
CONTINUOUS
 62
7
 10
0.959008908701177
 20
9.16268058921478
 30
0.0
 11
1.37900849937354
 21
9.16326696370867
 31
0.0
  0
LINE
  8
7
  6
CONTINUOUS
 62
7
 10
0.958977495781861
 20
9.18518056728652
 30
0.0
 11
0.95879613852768
 21
9.31508044068732
 31
0.0
  0
ARC
  8
7
  6
CONTINUOUS
 62
7
 10
1.06379603619578
 20
9.3152270343108
 30
0.0
 40
0.105000000000006
 50
90.0755923681642
 51
180.079992368166
  0
ARC
  8
7
  6
CONTINUOUS
 62
7
 10
1.06379603619576
 20
9.3152270343108
 30
0.0
 40
0.105000000000013
 50
0.0711923681528963
 51
90.0755923681548
  0
LINE
  8
7
  6
CONTINUOUS
 62
7
 10
1.16879595514058
 20
9.31535750110601
 30
0.0
 11
1.37864913557657
 21
9.4206667128493
 31
0.0
  0
LINE
  8
7
  6
CONTINUOUS
 62
7
 10
1.16897729111804
 20
9.18547375453346
 30
0.0
 11
1.16879595648117
 21
9.31535742795005
 31
0.0
  0
LINE
  8
7
  6
CONTINUOUS
 62
7
 10
0.958607661011788
 20
9.45008030911773
 30
0.0
 11
0.958420230593207
 21
9.58433017827907
 31
0.0
  0
LINE
  8
7
  6
CONTINUOUS
 62
7
 10
0.958420230593207
 20
9.58433017827907
 30
0.0
 11
1.37841982122369
 21
9.58491658277293
 31
0.0
  0
LINE
  8
7
  6
CONTINUOUS
 62
7
 10
0.958420230551317
 20
9.58433020827906
 30
0.0
 11
0.958232800174624
 21
9.71858004744042
 31
0.0
  0
LINE
  8
7
  6
CONTINUOUS
 62
7
 10
0.957730193465579
 20
10.0785796965882
 30
0.0
 11
0.957542763046998
 21
10.2128295657495
 31
0.0
  0
LINE
  8
7
  6
CONTINUOUS
 62
7
 10
0.957542763046998
 20
10.2128295657495
 30
0.0
 11
1.37754235367748
 21
10.2134159702434
 31
0.0
  0
LINE
  8
7
  6
CONTINUOUS
 62
7
 10
0.957542763005108
 20
10.2128295957495
 30
0.0
 11
0.957355332628415
 21
10.3470794349108
 31
0.0
  0
LINE
  8
7
  6
CONTINUOUS
 62
7
 10
0.957313448735995
 20
10.3770794056732
 30
0.0
 11
1.16731324407218
 21
10.3773725929201
 31
0.0
  0
LINE
  8
7
  6
CONTINUOUS
 62
7
 10
1.16731324407218
 20
10.3773725929201
 30
0.0
 11
1.37731303940836
 21
10.377665780167
 31
0.0
  0
LINE
  8
7
  6
CONTINUOUS
 62
7
 10
1.16731324407218
 20
10.3773725929201
 30
0.0
 11
1.1669572309866
 21
10.6323723443997
 31
0.0
  0
LINE
  8
7
  6
CONTINUOUS
 62
7
 10
1.37695702632278
 20
10.6326655316467
 30
0.0
 11
1.1669572309866
 21
10.6323723443997
 31
0.0
  0
LINE
  8
7
  6
CONTINUOUS
 62
7
 10
1.1669572309866
 20
10.6323723443997
 30
0.0
 11
0.956957435650422
 21
10.6320791571528
 31
0.0
  0
LINE
  8
7
  6
CONTINUOUS
 62
7
 10
0.956915551758001
 20
10.6620791279151
 30
0.0
 11
0.956831784012412
 21
10.7220790413253
 31
0.0
  0
LINE
  8
7
  6
CONTINUOUS
 62
7
 10
0.956831784012412
 20
10.7220790413253
 30
0.0
 11
0.95674801622757
 21
10.7820789828499
 31
0.0
  0
LINE
  8
7
  6
CONTINUOUS
 62
7
 10
0.956831784012412
 20
10.7220790413253
 30
0.0
 11
1.37683137468477
 21
10.7226654158192
 31
0.0
  0
LINE
  8
7
  6
CONTINUOUS
 62
7
 10
1.37691514243036
 20
10.662665502409
 30
0.0
 11
1.37683137468477
 21
10.7226654158192
 31
0.0
  0
LINE
  8
7
  6
CONTINUOUS
 62
7
 10
1.37683137468477
 20
10.7226654158192
 30
0.0
 11
1.37674760689993
 21
10.7826653573438
 31
0.0
  0
ARC
  8
7
  6
CONTINUOUS
 62
7
 10
1.07798678268399
 20
10.9610034002236
 30
0.0
 40
0.121071389999994
 50
120.602012368163
 51
179.378472368163
  0
LINE
  8
7
  6
CONTINUOUS
 62
7
 10
0.956922516011163
 20
10.9623167210155
 30
0.0
 11
0.956552306322813
 21
10.928189839959
 31
0.0
  0
ARC
  8
7
  6
CONTINUOUS
 62
7
 10
1.06707170683147
 20
10.9269909219848
 30
0.0
 40
0.110525903267523
 50
179.37847793971
 51
267.430697939711
  0
ARC
  8
7
  6
CONTINUOUS
 62
7
 10
1.05383781647966
 20
10.9064674743324
 30
0.0
 40
0.0902718146223213
 50
275.262266623272
 51
329.424766623272
  0
LINE
  8
7
  6
CONTINUOUS
 62
7
 10
1.13155841713029
 20
10.8605489731623
 30
0.0
 11
1.20232207531076
 21
11.0259461817168
 31
0.0
  0
ARC
  8
7
  6
CONTINUOUS
 62
7
 10
1.28004268544912
 20
10.9800277630197
 30
0.0
 40
0.0902717808394164
 50
95.2622317542591
 51
149.424814754259
  0
ARC
  8
7
  6
CONTINUOUS
 62
7
 10
1.26680879984643
 20
10.9595043222523
 30
0.0
 40
0.11052587019469
 50
359.521069639261
 51
87.430669639263
  0
LINE
  8
7
  6
CONTINUOUS
 62
7
 10
1.37733080876471
 20
10.9585804570234
 30
0.0
 11
1.37697303208679
 21
10.915779799746
 31
0.0
  0
ARC
  8
7
  6
CONTINUOUS
 62
7
 10
1.25590591578841
 20
10.9167917902916
 30
0.0
 40
0.121071345799372
 50
300.601980219373
 51
359.521080219373
  0
LINE
  8
7
  6
CONTINUOUS
 62
7
 10
0.955844161806894
 20
11.4294783678318
 30
0.0
 11
1.3758433336403
 21
11.4303647420333
 31
0.0
  0
LINE
  8
7
  6
CONTINUOUS
 62
7
 10
1.3758433336403
 20
11.4303647420333
 30
0.0
 11
1.37549946688353
 21
11.6766645019919
 31
0.0
  0
LINE
  8
7
  6
CONTINUOUS
 62
7
 10
1.16584353830412
 20
11.4300715547864
 30
0.0
 11
1.16557506255371
 21
11.6223713673728
 31
0.0
  0
LINE
  8
7
  6
CONTINUOUS
 62
7
 10
0.955833690831119
 20
11.4369783624357
 30
0.0
 11
0.955828333700191
 21
11.4369783511299
 31
0.0
  0
LINE
  8
7
  6
CONTINUOUS
 62
7
 10
0.955828333700191
 20
11.4369783511299
 30
0.0
 11
0.955499876211197
 21
11.676078127498
 31
0.0
  0
LINE
  8
7
  6
CONTINUOUS
 62
7
 10
1.37545548879652
 20
11.7081644712924
 30
0.0
 11
0.955455898124157
 21
11.7075780967985
 31
0.0
  0
LINE
  8
7
  6
CONTINUOUS
 62
7
 10
0.955455898124157
 20
11.7075780967985
 30
0.0
 11
1.37509612499955
 21
11.965564220433
 31
0.0
  0
LINE
  8
7
  6
CONTINUOUS
 62
7
 10
1.37509612499955
 20
11.965564220433
 30
0.0
 11
0.955096534327188
 21
11.9649778459391
 31
0.0
  0
LINE
  8
7
  6
CONTINUOUS
 62
7
 10
0.955054650434768
 20
11.9949778167014
 30
0.0
 11
1.37505424110713
 21
11.9955641911953
 31
0.0
  0
LINE
  8
7
  6
CONTINUOUS
 62
7
 10
1.37502282818782
 20
12.018064169267
 30
0.0
 11
1.37489068467477
 21
12.1127139570222
 31
0.0
  0
ARC
  8
7
  6
CONTINUOUS
 62
7
 10
1.2211374467997
 20
12.0980108208658
 30
0.0
 40
0.154454654736913
 50
5.46247825292937
 51
65.6931782529294
  0
ARC
  8
7
  6
CONTINUOUS
 62
7
 10
1.16520933715686
 20
11.8842017781521
 30
0.0
 40
0.374169422895452
 50
71.3740896464422
 51
108.785889646444
  0
ARC
  8
7
  6
CONTINUOUS
 62
7
 10
1.10868464652712
 20
12.097854068021
 30
0.0
 40
0.154454514312296
 50
114.466902355325
 51
174.697482355325
  0
LINE
  8
7
  6
CONTINUOUS
 62
7
 10
0.95489109894006
 20
12.1121278801269
 30
0.0
 11
0.955023237515453
 21
12.0174777947731
 31
0.0
  0
LINE
  8
7
  6
CONTINUOUS
 62
7
 10
0.95418472182166
 20
12.6180773294345
 30
0.0
 11
1.16418451715781
 21
12.6183705166815
 31
0.0
  0
LINE
  8
7
  6
CONTINUOUS
 62
7
 10
1.16418451715781
 20
12.6183705166815
 30
0.0
 11
1.37418431249402
 21
12.6186637039284
 31
0.0
  0
LINE
  8
7
  6
CONTINUOUS
 62
7
 10
1.16418451715781
 20
12.6183705166815
 30
0.0
 11
1.1639160414074
 21
12.8106703292679
 31
0.0
  0
LINE
  8
7
  6
CONTINUOUS
 62
7
 10
0.954174250848554
 20
12.6255773221251
 30
0.0
 11
0.953840855064888
 21
12.8643770893931
 31
0.0
  0
LINE
  8
7
  6
CONTINUOUS
 62
7
 10
0.953798971172466
 20
12.8943770601554
 30
0.0
 11
0.953715203426876
 21
12.9543769735656
 31
0.0
  0
LINE
  8
7
  6
CONTINUOUS
 62
7
 10
0.953715203426876
 20
12.9543769735656
 30
0.0
 11
0.953631435642036
 21
13.0143769150902
 31
0.0
  0
LINE
  8
7
  6
CONTINUOUS
 62
7
 10
0.953715203426876
 20
12.9543769735656
 30
0.0
 11
1.37371479409924
 21
12.9549633480595
 31
0.0
  0
LINE
  8
7
  6
CONTINUOUS
 62
7
 10
1.37379856184483
 20
12.8949634346493
 30
0.0
 11
1.37371479409924
 21
12.9549633480595
 31
0.0
  0
LINE
  8
7
  6
CONTINUOUS
 62
7
 10
1.37371479409924
 20
12.9549633480595
 30
0.0
 11
1.3736310263144
 21
13.0149632895841
 31
0.0
  0
LINE
  8
7
  6
CONTINUOUS
 62
7
 10
0.953589551749616
 20
13.0443768858525
 30
0.0
 11
1.37358914242198
 21
13.0449632603464
 31
0.0
  0
LINE
  8
7
  6
CONTINUOUS
 62
7
 10
0.953558138830299
 20
13.0668768639242
 30
0.0
 11
0.95337678157612
 21
13.196776737325
 31
0.0
  0
ARC
  8
7
  6
CONTINUOUS
 62
7
 10
1.05837667924422
 20
13.1969233309485
 30
0.0
 40
0.105000000000005
 50
90.0755923681646
 51
180.079992368167
  0
ARC
  8
7
  6
CONTINUOUS
 62
7
 10
1.0583766792442
 20
13.1969233309485
 30
0.0
 40
0.105000000000013
 50
0.0711923681528963
 51
90.0755923681548
  0
LINE
  8
7
  6
CONTINUOUS
 62
7
 10
1.16337659818901
 20
13.1970537977437
 30
0.0
 11
1.37322977862501
 21
13.302363009487
 31
0.0
  0
LINE
  8
7
  6
CONTINUOUS
 62
7
 10
1.16355793416648
 20
13.0671700511712
 30
0.0
 11
1.1633765995296
 21
13.1970537245878
 31
0.0
  0
ARC
  8
7
  6
CONTINUOUS
 62
7
 10
1.07446895440906
 20
13.4807010523668
 30
0.0
 40
0.121071389999995
 50
120.602012368162
 51
179.378472368162
  0
LINE
  8
7
  6
CONTINUOUS
 62
7
 10
0.95340468773624
 20
13.4820143731587
 30
0.0
 11
0.95303447804789
 21
13.4478874921023
 31
0.0
  0
ARC
  8
7
  6
CONTINUOUS
 62
7
 10
1.06355387855655
 20
13.446688574128
 30
0.0
 40
0.110525903267523
 50
179.37847793971
 51
267.430697939711
  0
ARC
  8
7
  6
CONTINUOUS
 62
7
 10
1.05031998820474
 20
13.4261651264757
 30
0.0
 40
0.0902718146223203
 50
275.26226662327
 51
329.424766623271
  0
LINE
  8
7
  6
CONTINUOUS
 62
7
 10
1.12804058885536
 20
13.3802466253055
 30
0.0
 11
1.19880424703583
 21
13.5456438338601
 31
0.0
  0
ARC
  8
7
  6
CONTINUOUS
 62
7
 10
1.2765248571742
 20
13.499725415163
 30
0.0
 40
0.0902717808394191
 50
95.2622317542595
 51
149.42481475426
  0
ARC
  8
7
  6
CONTINUOUS
 62
7
 10
1.2632909715715
 20
13.4792019743956
 30
0.0
 40
0.11052587019469
 50
359.52106963926
 51
87.430669639262
  0
LINE
  8
7
  6
CONTINUOUS
 62
7
 10
1.37381298048978
 20
13.4782781091667
 30
0.0
 11
1.37345520381187
 21
13.4354774518892
 31
0.0
  0
ARC
  8
7
  6
CONTINUOUS
 62
7
 10
1.25238808751348
 20
13.4364894424349
 30
0.0
 40
0.121071345799373
 50
300.601980219372
 51
359.521080219372
  0
LINE
  8
7
  6
CONTINUOUS
 62
7
 10
0.952787056348598
 20
13.6191763415897
 30
0.0
 11
0.952599625930015
 21
13.753426210751
 31
0.0
  0
LINE
  8
7
  6
CONTINUOUS
 62
7
 10
0.952599625930015
 20
13.753426210751
 30
0.0
 11
1.37259921656049
 21
13.7540126152449
 31
0.0
  0
LINE
  8
7
  6
CONTINUOUS
 62
7
 10
0.952599625888126
 20
13.753426240751
 30
0.0
 11
0.952412195511434
 21
13.8876760799123
 31
0.0
  0
ENDSEC
  0
EOF
