  0
SECTION
  2
HEADER
  9
$ACADVER
  1
AC1003
  9
$EXTMIN
 10
-0.00517245631163199
 20
18.0046527741307
  9
$EXTMAX
 10
18.4955926740431
 20
0.00254425243949896
  9
$INSBASE
 10
9.24521010886572
 20
9.00359851328508
999
Created with OMAX Layout for Windows. (http://www.omax.com) 12/15/2012
  0
ENDSEC
  0
SECTION
  2
TABLES
  0
TABLE
  2
LAYER
 70
    10
  0
LAYER
  2
0
 70
     0
 62
     7
  6
CONTINUOUS
  0
LAYER
  2
1
 70
     0
 62
     7
  6
CONTINUOUS
  0
LAYER
  2
2
 70
     0
 62
     7
  6
CONTINUOUS
  0
LAYER
  2
3
 70
     0
 62
     7
  6
CONTINUOUS
  0
LAYER
  2
4
 70
     0
 62
     7
  6
CONTINUOUS
  0
LAYER
  2
5
 70
     0
 62
     7
  6
CONTINUOUS
  0
LAYER
  2
6
 70
     0
 62
     7
  6
CONTINUOUS
  0
LAYER
  2
7
 70
     0
 62
     7
  6
CONTINUOUS
  0
LAYER
  2
8
 70
     0
 62
     7
  6
CONTINUOUS
  0
LAYER
  2
9
 70
     0
 62
     7
  6
CONTINUOUS
  0
LAYER
  2
10
 70
     0
 62
     7
  6
CONTINUOUS
  0
LAYER
  2
11
 70
     0
 62
     7
  6
CONTINUOUS
  0
LAYER
  2
12
 70
     0
 62
     7
  6
CONTINUOUS
  0
LAYER
  2
13
 70
     0
 62
     7
  6
CONTINUOUS
  0
LAYER
  2
14
 70
     0
 62
     7
  6
CONTINUOUS
  0
LAYER
  2
15
 70
     0
 62
     7
  6
CONTINUOUS
  0
LAYER
  2
16
 70
     0
 62
     7
  6
CONTINUOUS
  0
LAYER
  2
17
 70
     0
 62
     7
  6
CONTINUOUS
  0
LAYER
  2
18
 70
     0
 62
     7
  6
CONTINUOUS
  0
LAYER
  2
19
 70
     0
 62
     7
  6
CONTINUOUS
  0
LAYER
  2
20
 70
     0
 62
     7
  6
CONTINUOUS
  0
LAYER
  2
21
 70
     0
 62
     7
  6
CONTINUOUS
  0
LAYER
  2
22
 70
     0
 62
     7
  6
CONTINUOUS
  0
LAYER
  2
23
 70
     0
 62
     7
  6
CONTINUOUS
  0
LAYER
  2
24
 70
     0
 62
     7
  6
CONTINUOUS
  0
LAYER
  2
25
 70
     0
 62
     7
  6
CONTINUOUS
  0
LAYER
  2
26
 70
     0
 62
     7
  6
CONTINUOUS
  0
LAYER
  2
27
 70
     0
 62
     7
  6
CONTINUOUS
  0
LAYER
  2
28
 70
     0
 62
     7
  6
CONTINUOUS
  0
LAYER
  2
29
 70
     0
 62
     7
  6
CONTINUOUS
  0
LAYER
  2
30
 70
     0
 62
     7
  6
CONTINUOUS
  0
LAYER
  2
31
 70
     0
 62
     7
  6
CONTINUOUS
  0
ENDTAB
  0
ENDSEC
  0
SECTION
  2
ENTITIES
  0
LINE
  8
1
  6
CONTINUOUS
 62
1
 10
-0.00440733299233109
 20
0.00262081064847663
 30
0.0
 11
-0.00440733299233464
 21
18.0026208106485
 31
0.0
  0
LINE
  8
1
  6
CONTINUOUS
 62
1
 10
-0.00440733299233464
 20
18.0026208106485
 30
0.0
 11
18.4955926670077
 21
18.0026208106485
 31
0.0
  0
LINE
  8
1
  6
CONTINUOUS
 62
1
 10
18.4955926670077
 20
18.0026208106485
 30
0.0
 11
18.4955926670077
 21
0.00262081064848019
 31
0.0
  0
LINE
  8
1
  6
CONTINUOUS
 62
1
 10
18.4955926670077
 20
0.00262081064848019
 30
0.0
 11
-0.00440733299233109
 21
0.00262081064847663
 31
0.0
  0
ARC
  8
1
  6
CONTINUOUS
 62
1
 10
3.99559266700767
 20
1.22365426960354
 30
0.0
 40
0.177999999999999
 50
269.999999999999
 51
89.9999999999998
  0
ARC
  8
1
  6
CONTINUOUS
 62
1
 10
3.99559266700767
 20
1.22365426960354
 30
0.0
 40
0.177999999999999
 50
89.9999999999998
 51
270
  0
ARC
  8
1
  6
CONTINUOUS
 62
1
 10
15.9955926670077
 20
1.22362081064848
 30
0.0
 40
0.178000000000001
 50
269.999999999999
 51
89.9999999999998
  0
ARC
  8
1
  6
CONTINUOUS
 62
1
 10
15.9955926670077
 20
1.22362081064848
 30
0.0
 40
0.178000000000001
 50
89.9999999999998
 51
270
  0
ARC
  8
1
  6
CONTINUOUS
 62
1
 10
3.99559266700767
 20
16.7816542696036
 30
0.0
 40
0.178000000000001
 50
269.999999999999
 51
89.9999999999998
  0
ARC
  8
1
  6
CONTINUOUS
 62
1
 10
3.99559266700766
 20
16.7816542696036
 30
0.0
 40
0.178000000000001
 50
89.9999999999998
 51
270
  0
ARC
  8
1
  6
CONTINUOUS
 62
1
 10
15.9955926670077
 20
16.7816208106484
 30
0.0
 40
0.178000000000051
 50
269.999999999999
 51
89.9999999999998
  0
ARC
  8
1
  6
CONTINUOUS
 62
1
 10
15.9955926670077
 20
16.7816208106484
 30
0.0
 40
0.178000000000051
 50
89.9999999999998
 51
270
  0
ARC
  8
0
  6
CONTINUOUS
 62
0
 10
6.97479266700767
 20
4.98062081064841
 30
0.0
 40
0.31548316101305
 50
269.999999999999
 51
89.9999999999998
  0
ARC
  8
0
  6
CONTINUOUS
 62
0
 10
6.97479266700767
 20
4.98062081064841
 30
0.0
 40
0.31548316101305
 50
89.9999999999998
 51
270
  0
ARC
  8
0
  6
CONTINUOUS
 62
0
 10
15.0312926670077
 20
12.9946208106485
 30
0.0
 40
0.315483161013098
 50
269.999999999999
 51
89.9999999999998
  0
ARC
  8
0
  6
CONTINUOUS
 62
0
 10
15.0312926670077
 20
12.9946208106485
 30
0.0
 40
0.315483161013098
 50
89.9999999999998
 51
270
  0
ARC
  8
1
  6
CONTINUOUS
 62
1
 10
15.8437926670077
 20
14.5696208106485
 30
0.0
 40
0.0999999999999996
 50
269.999999999999
 51
89.9999999999998
  0
ARC
  8
1
  6
CONTINUOUS
 62
1
 10
15.8437926670077
 20
14.5696208106485
 30
0.0
 40
0.0999999999999996
 50
89.9999999999998
 51
270
  0
ARC
  8
1
  6
CONTINUOUS
 62
1
 10
15.8437926670077
 20
11.0446708106485
 30
0.0
 40
0.0999999999999996
 50
269.999999999999
 51
89.9999999999998
  0
ARC
  8
1
  6
CONTINUOUS
 62
1
 10
15.8437926670077
 20
11.0446708106485
 30
0.0
 40
0.0999999999999996
 50
89.9999999999998
 51
270
  0
ARC
  8
1
  6
CONTINUOUS
 62
1
 10
13.1767926670078
 20
14.5696208106485
 30
0.0
 40
0.0999999999999996
 50
269.999999999999
 51
89.9999999999998
  0
ARC
  8
1
  6
CONTINUOUS
 62
1
 10
13.1767926670078
 20
14.5696208106485
 30
0.0
 40
0.0999999999999996
 50
89.9999999999998
 51
270
  0
ARC
  8
1
  6
CONTINUOUS
 62
1
 10
7.47479266700767
 20
3.43562081064847
 30
0.0
 40
0.0999999999999996
 50
269.999999999999
 51
89.9999999999998
  0
ARC
  8
1
  6
CONTINUOUS
 62
1
 10
7.47479266700767
 20
3.43562081064847
 30
0.0
 40
0.0999999999999996
 50
89.9999999999998
 51
270
  0
ARC
  8
1
  6
CONTINUOUS
 62
1
 10
7.47475099606157
 20
6.96063053215735
 30
0.0
 40
0.0999999999999996
 50
269.999999999999
 51
89.9999999999998
  0
ARC
  8
1
  6
CONTINUOUS
 62
1
 10
7.47475099606157
 20
6.96063053215735
 30
0.0
 40
0.0999999999999996
 50
89.9999999999998
 51
270
  0
ARC
  8
1
  6
CONTINUOUS
 62
1
 10
4.80784107438287
 20
3.43559581748814
 30
0.0
 40
0.100000000000001
 50
269.999999999999
 51
89.9999999999998
  0
ARC
  8
1
  6
CONTINUOUS
 62
1
 10
4.80784107438287
 20
3.43559581748814
 30
0.0
 40
0.100000000000001
 50
89.9999999999998
 51
270
  0
LINE
  8
1
  6
CONTINUOUS
 62
1
 10
0.495592674405769
 20
0.00262081064883546
 30
0.0
 11
0.494827543688368
 21
0.328620249180194
 31
0.0
  0
LINE
  8
1
  6
CONTINUOUS
 62
1
 10
0.494827543688368
 20
0.328620249180194
 30
0.0
 11
-0.00517245631163199
 21
0.328620249180194
 31
0.0
  0
LINE
  8
1
  6
CONTINUOUS
 62
1
 10
-0.00517245631163199
 20
0.328620249180194
 30
0.0
 11
-0.00440732559423118
 21
0.00262081064883546
 31
0.0
  0
LINE
  8
1
  6
CONTINUOUS
 62
1
 10
-0.00440732559423118
 20
0.00262081064883546
 30
0.0
 11
0.495592674405769
 21
0.00262081064883546
 31
0.0
  0
LINE
  8
1
  6
CONTINUOUS
 62
1
 10
-0.00440733299233464
 20
18.0026208106485
 30
0.0
 11
-0.00440733299233109
 21
9.00262081064845
 31
0.0
  0
LINE
  8
1
  6
CONTINUOUS
 62
1
 10
0.495688266760263
 20
17.6781838910538
 30
0.0
 11
0.495716582766464
 21
18.004183889824
 31
0.0
  0
LINE
  8
1
  6
CONTINUOUS
 62
1
 10
0.495716582766464
 20
18.004183889824
 30
0.0
 11
-0.00428337650673605
 21
18.0046527741307
 31
0.0
  0
LINE
  8
1
  6
CONTINUOUS
 62
1
 10
-0.00428337650673605
 20
18.0046527741307
 30
0.0
 11
-0.00375248339463674
 21
17.6786532064124
 31
0.0
  0
LINE
  8
1
  6
CONTINUOUS
 62
1
 10
-0.00375248339463674
 20
17.6786532064124
 30
0.0
 11
0.495688266760263
 21
17.6781838910538
 31
0.0
  0
LINE
  8
1
  6
CONTINUOUS
 62
1
 10
18.4955926670077
 20
0.00262081064848019
 30
0.0
 11
18.4951203079363
 21
0.315119025638261
 31
0.0
  0
LINE
  8
1
  6
CONTINUOUS
 62
1
 10
18.4951203079363
 20
0.315119025638261
 30
0.0
 11
17.9551189436945
 21
0.315042467429269
 31
0.0
  0
LINE
  8
1
  6
CONTINUOUS
 62
1
 10
17.9551189436945
 20
0.315042467429269
 30
0.0
 11
17.9555913027658
 21
0.00254425243949896
 31
0.0
  0
LINE
  8
1
  6
CONTINUOUS
 62
1
 10
17.9555913027658
 20
0.00254425243949896
 30
0.0
 11
18.4955926670077
 21
0.00262081064848019
 31
0.0
  0
LINE
  8
1
  6
CONTINUOUS
 62
1
 10
18.4955054059257
 20
17.6898245335488
 30
0.0
 11
18.4955926740431
 21
18.002324472623
 31
0.0
  0
LINE
  8
1
  6
CONTINUOUS
 62
1
 10
18.4955926740431
 20
18.002324472623
 30
0.0
 11
17.9555965929964
 21
18.0013534291669
 31
0.0
  0
LINE
  8
1
  6
CONTINUOUS
 62
1
 10
17.9555965929964
 20
18.0013534291669
 30
0.0
 11
17.955509324879
 21
17.6888534900927
 31
0.0
  0
LINE
  8
1
  6
CONTINUOUS
 62
1
 10
17.955509324879
 20
17.6888534900927
 30
0.0
 11
18.4955054059257
 21
17.6898245335488
 31
0.0
  0
ARC
  8
1
  6
CONTINUOUS
 62
1
 10
1.89981968718717
 20
2.90030951534886
 30
0.0
 40
0.0599999999999987
 50
269.999999999999
 51
89.9999999999998
  0
ARC
  8
1
  6
CONTINUOUS
 62
1
 10
1.89981968718717
 20
2.90030951534886
 30
0.0
 40
0.0599999999999987
 50
89.9999999999998
 51
270
  0
ARC
  8
1
  6
CONTINUOUS
 62
1
 10
1.89977669967687
 20
15.1049933114802
 30
0.0
 40
0.0600000000000005
 50
269.999999999999
 51
89.9999999999998
  0
ARC
  8
1
  6
CONTINUOUS
 62
1
 10
1.89977669967686
 20
15.1049933114802
 30
0.0
 40
0.0600000000000005
 50
89.9999999999998
 51
270
  0
ARC
  8
1
  6
CONTINUOUS
 62
1
 10
0.734822122638468
 20
2.8978095629863
 30
0.0
 40
0.0600000000000058
 50
269.999999999999
 51
89.9999999999998
  0
ARC
  8
1
  6
CONTINUOUS
 62
1
 10
0.734822122638467
 20
2.8978095629863
 30
0.0
 40
0.0600000000000058
 50
89.9999999999998
 51
270
  0
ARC
  8
1
  6
CONTINUOUS
 62
1
 10
0.734779135128167
 20
15.1024933591177
 30
0.0
 40
0.0600000000000005
 50
269.999999999999
 51
89.9999999999998
  0
ARC
  8
1
  6
CONTINUOUS
 62
1
 10
0.734779135128166
 20
15.1024933591177
 30
0.0
 40
0.0600000000000005
 50
89.9999999999998
 51
270
  0
LINE
  8
6
  6
CONTINUOUS
 62
6
 10
1.51368945866385
 20
6.22613712429304
 30
0.0
 11
1.51360363370879
 21
6.28613703479579
 31
0.0
  0
LINE
  8
6
  6
CONTINUOUS
 62
6
 10
1.51360363370879
 20
6.28613703479579
 30
0.0
 11
1.51351780871352
 21
6.34613697341301
 31
0.0
  0
LINE
  8
6
  6
CONTINUOUS
 62
6
 10
1.51360363370879
 20
6.28613703479579
 30
0.0
 11
1.93360320402934
 21
6.2867378097627
 31
0.0
  0
LINE
  8
6
  6
CONTINUOUS
 62
6
 10
1.93368902898439
 20
6.22673789925995
 30
0.0
 11
1.93360320402934
 21
6.2867378097627
 31
0.0
  0
LINE
  8
6
  6
CONTINUOUS
 62
6
 10
1.93360320402934
 20
6.2867378097627
 30
0.0
 11
1.93351737903406
 21
6.34673774837992
 31
0.0
  0
LINE
  8
6
  6
CONTINUOUS
 62
6
 10
1.93347232091154
 20
6.37823771615396
 30
0.0
 11
1.513472750591
 21
6.37763694118705
 31
0.0
  0
LINE
  8
6
  6
CONTINUOUS
 62
6
 10
1.513472750591
 20
6.37763694118705
 30
0.0
 11
1.93310413168182
 21
6.63563745282184
 31
0.0
  0
LINE
  8
6
  6
CONTINUOUS
 62
6
 10
1.93310413168182
 20
6.63563745282184
 30
0.0
 11
1.51310456136128
 21
6.63503667785493
 31
0.0
  0
ARC
  8
6
  6
CONTINUOUS
 62
6
 10
1.63433719298734
 20
6.81396525202186
 30
0.0
 40
0.121071389999995
 50
120.60397686138
 51
179.38043686138
  0
LINE
  8
6
  6
CONTINUOUS
 62
6
 10
1.51327288135602
 20
6.81527442189763
 30
0.0
 11
1.51290384177198
 21
6.7811475281679
 31
0.0
  0
ARC
  8
6
  6
CONTINUOUS
 62
6
 10
1.62342328332282
 20
6.77995239955921
 30
0.0
 40
0.110525903267522
 50
179.380442432927
 51
267.432662432928
  0
ARC
  8
6
  6
CONTINUOUS
 62
6
 10
1.61019009666367
 20
6.75942849817019
 30
0.0
 40
0.0902718146223223
 50
275.264231116489
 51
329.426731116489
  0
LINE
  8
6
  6
CONTINUOUS
 62
6
 10
1.68791227167052
 20
6.71351266182354
 30
0.0
 11
1.75867025885601
 21
6.87891229654553
 31
0.0
  0
ARC
  8
6
  6
CONTINUOUS
 62
6
 10
1.83639244334776
 20
6.83299654267226
 30
0.0
 40
0.0902717808394177
 50
95.2641962474771
 51
149.426779247477
  0
ARC
  8
6
  6
CONTINUOUS
 62
6
 10
1.82315926143749
 20
6.81247264816832
 30
0.0
 40
0.11052587019469
 50
359.523034132477
 51
87.4326341324796
  0
LINE
  8
6
  6
CONTINUOUS
 62
6
 10
1.93368130196726
 20
6.81155257239425
 30
0.0
 11
1.93332499279033
 21
6.76875190287491
 31
0.0
  0
ARC
  8
6
  6
CONTINUOUS
 62
6
 10
1.81225784186512
 20
6.7697597424069
 30
0.0
 40
0.121071345799374
 50
300.603944712589
 51
359.523044712589
  0
LINE
  8
6
  6
CONTINUOUS
 62
6
 10
1.5126505471135
 20
6.95243636907128
 30
0.0
 11
1.93264968830904
 21
6.95333714373128
 31
0.0
  0
LINE
  8
6
  6
CONTINUOUS
 62
6
 10
1.93264968830904
 20
6.95333714373128
 30
0.0
 11
1.93229737670344
 21
7.19963689175496
 31
0.0
  0
LINE
  8
6
  6
CONTINUOUS
 62
6
 10
1.72264990314877
 20
6.95303675624782
 30
0.0
 11
1.72237483403892
 21
7.14533655951601
 31
0.0
  0
LINE
  8
6
  6
CONTINUOUS
 62
6
 10
1.51263981898636
 20
6.9599363633117
 30
0.0
 11
1.51263446185582
 21
6.95993635182223
 31
0.0
  0
LINE
  8
6
  6
CONTINUOUS
 62
6
 10
1.51263446185582
 20
6.95993635182223
 30
0.0
 11
1.51229780638293
 21
7.19903611678806
 31
0.0
  0
LINE
  8
6
  6
CONTINUOUS
 62
6
 10
1.51225489388529
 20
7.22903608609666
 30
0.0
 11
1.93225446420584
 21
7.22963686106357
 31
0.0
  0
LINE
  8
6
  6
CONTINUOUS
 62
6
 10
1.51222270951207
 20
7.25153606307812
 30
0.0
 11
1.5120368983973
 21
7.3814359301844
 31
0.0
  0
ARC
  8
6
  6
CONTINUOUS
 62
6
 10
1.61703679097744
 20
7.38158612392614
 30
0.0
 40
0.105000000000005
 50
90.0775568613811
 51
180.081956861383
  0
ARC
  8
6
  6
CONTINUOUS
 62
6
 10
1.61703679097743
 20
7.38158612392613
 30
0.0
 40
0.105000000000012
 50
0.0731568613710575
 51
90.077556861373
  0
LINE
  8
6
  6
CONTINUOUS
 62
6
 10
1.72203670538723
 20
7.38172019084035
 30
0.0
 11
1.93188627497612
 21
7.48703659773145
 31
0.0
  0
LINE
  8
6
  6
CONTINUOUS
 62
6
 10
1.72222249467234
 20
7.25183645056158
 30
0.0
 11
1.72203670673032
 21
7.38172011768443
 31
0.0
  0
LINE
  8
6
  6
CONTINUOUS
 62
6
 10
1.51184379215794
 20
7.51643579207315
 30
0.0
 11
1.51165175873102
 21
7.65068565472918
 31
0.0
  0
LINE
  8
6
  6
CONTINUOUS
 62
6
 10
1.51165175873102
 20
7.65068565472918
 30
0.0
 11
1.93165132900864
 21
7.65128645969606
 31
0.0
  0
LINE
  8
6
  6
CONTINUOUS
 62
6
 10
1.5116517586881
 20
7.65068568472916
 30
0.0
 11
1.51145972530409
 21
7.78493551738521
 31
0.0
  0
LINE
  8
6
  6
CONTINUOUS
 62
6
 10
1.51094477533246
 20
8.14493514908853
 30
0.0
 11
1.51075274190553
 21
8.27918501174456
 31
0.0
  0
LINE
  8
6
  6
CONTINUOUS
 62
6
 10
1.51075274190553
 20
8.27918501174456
 30
0.0
 11
1.93075231218316
 21
8.27978581671144
 31
0.0
  0
LINE
  8
6
  6
CONTINUOUS
 62
6
 10
1.51075274186261
 20
8.27918504174455
 30
0.0
 11
1.51056070847861
 21
8.41343487440059
 31
0.0
  0
LINE
  8
6
  6
CONTINUOUS
 62
6
 10
1.51051779598097
 20
8.4434348437092
 30
0.0
 11
1.72051758114124
 21
8.44373523119266
 31
0.0
  0
LINE
  8
6
  6
CONTINUOUS
 62
6
 10
1.72051758114124
 20
8.44373523119266
 30
0.0
 11
1.93051736630151
 21
8.44403561867611
 31
0.0
  0
LINE
  8
6
  6
CONTINUOUS
 62
6
 10
1.72051758114124
 20
8.44373523119266
 30
0.0
 11
1.72015282491133
 21
8.69873497031584
 31
0.0
  0
LINE
  8
6
  6
CONTINUOUS
 62
6
 10
1.93015261007161
 20
8.6990353577993
 30
0.0
 11
1.72015282491133
 21
8.69873497031584
 31
0.0
  0
LINE
  8
6
  6
CONTINUOUS
 62
6
 10
1.72015282491133
 20
8.69873497031584
 30
0.0
 11
1.51015303975106
 21
8.69843458283239
 31
0.0
  0
LINE
  8
6
  6
CONTINUOUS
 62
6
 10
1.51011012725343
 20
8.728434552141
 30
0.0
 11
1.51002430229837
 21
8.78843446264375
 31
0.0
  0
LINE
  8
6
  6
CONTINUOUS
 62
6
 10
1.51002430229837
 20
8.78843446264375
 30
0.0
 11
1.5099384773031
 21
8.84843440126097
 31
0.0
  0
LINE
  8
6
  6
CONTINUOUS
 62
6
 10
1.51002430229837
 20
8.78843446264375
 30
0.0
 11
1.93002387261891
 21
8.78903523761066
 31
0.0
  0
LINE
  8
6
  6
CONTINUOUS
 62
6
 10
1.93010969757397
 20
8.72903532710791
 30
0.0
 11
1.93002387261891
 21
8.78903523761066
 31
0.0
  0
LINE
  8
6
  6
CONTINUOUS
 62
6
 10
1.93002387261891
 20
8.78903523761066
 30
0.0
 11
1.92993804762364
 21
8.84903517622788
 31
0.0
  0
ARC
  8
6
  6
CONTINUOUS
 62
6
 10
1.63117110892916
 20
9.0273629754279
 30
0.0
 40
0.121071389999995
 50
120.60397686138
 51
179.38043686138
  0
LINE
  8
6
  6
CONTINUOUS
 62
6
 10
1.51010679729783
 20
9.02867214530367
 30
0.0
 11
1.5097377577138
 21
8.99454525157394
 31
0.0
  0
ARC
  8
6
  6
CONTINUOUS
 62
6
 10
1.62025719926464
 20
8.99335012296525
 30
0.0
 40
0.110525903267522
 50
179.380442432927
 51
267.432662432928
  0
ARC
  8
6
  6
CONTINUOUS
 62
6
 10
1.60702401260548
 20
8.97282622157623
 30
0.0
 40
0.0902718146223223
 50
275.264231116489
 51
329.426731116489
  0
LINE
  8
6
  6
CONTINUOUS
 62
6
 10
1.68474618761233
 20
8.92691038522958
 30
0.0
 11
1.75550417479783
 21
9.09231001995157
 31
0.0
  0
ARC
  8
6
  6
CONTINUOUS
 62
6
 10
1.83322635928958
 20
9.0463942660783
 30
0.0
 40
0.0902717808394172
 50
95.2641962474765
 51
149.426779247477
  0
ARC
  8
6
  6
CONTINUOUS
 62
6
 10
1.81999317737931
 20
9.02587037157436
 30
0.0
 40
0.110525870194691
 50
359.523034132477
 51
87.4326341324799
  0
LINE
  8
6
  6
CONTINUOUS
 62
6
 10
1.93051521790908
 20
9.02495029580029
 30
0.0
 11
1.93015890873215
 21
8.98214962628095
 31
0.0
  0
ARC
  8
6
  6
CONTINUOUS
 62
6
 10
1.80909175780693
 20
8.98315746581294
 30
0.0
 40
0.121071345799375
 50
300.603944712589
 51
359.523044712589
  0
LINE
  8
6
  6
CONTINUOUS
 62
6
 10
1.50901242558132
 20
9.49583375487203
 30
0.0
 11
1.92901156677685
 21
9.49673452953203
 31
0.0
  0
LINE
  8
6
  6
CONTINUOUS
 62
6
 10
1.92901156677685
 20
9.49673452953203
 30
0.0
 11
1.92865925517126
 21
9.74303427755572
 31
0.0
  0
LINE
  8
6
  6
CONTINUOUS
 62
6
 10
1.71901178161658
 20
9.49643414204857
 30
0.0
 11
1.71873671250673
 21
9.68873394531676
 31
0.0
  0
LINE
  8
6
  6
CONTINUOUS
 62
6
 10
1.50900169745417
 20
9.50333374911245
 30
0.0
 11
1.50899634032363
 21
9.50333373762298
 31
0.0
  0
LINE
  8
6
  6
CONTINUOUS
 62
6
 10
1.50899634032363
 20
9.50333373762298
 30
0.0
 11
1.50865968485075
 21
9.7424335025888
 31
0.0
  0
LINE
  8
6
  6
CONTINUOUS
 62
6
 10
1.92861419704877
 20
9.77453424532976
 30
0.0
 11
1.50861462672823
 21
9.77393347036285
 31
0.0
  0
LINE
  8
6
  6
CONTINUOUS
 62
6
 10
1.50861462672823
 20
9.77393347036285
 30
0.0
 11
1.92824600781905
 21
10.0319339819976
 31
0.0
  0
LINE
  8
6
  6
CONTINUOUS
 62
6
 10
1.92824600781905
 20
10.0319339819976
 30
0.0
 11
1.50824643749851
 21
10.0313332070307
 31
0.0
  0
LINE
  8
6
  6
CONTINUOUS
 62
6
 10
1.50820352500087
 20
10.0613331763393
 30
0.0
 11
1.92820309532141
 21
10.0619339513062
 31
0.0
  0
LINE
  8
6
  6
CONTINUOUS
 62
6
 10
1.92817091094818
 20
10.0844339282877
 30
0.0
 11
1.92803552218979
 21
10.1790837114565
 31
0.0
  0
ARC
  8
6
  6
CONTINUOUS
 62
6
 10
1.77428278852969
 20
10.1643753035907
 30
0.0
 40
0.154454654736913
 50
5.46444274614585
 51
65.6951427461459
  0
ARC
  8
6
  6
CONTINUOUS
 62
6
 10
1.7183620097636
 20
9.9505643434026
 30
0.0
 40
0.374169422895454
 50
71.3760541396601
 51
108.787854139662
  0
ARC
  8
6
  6
CONTINUOUS
 62
6
 10
1.66182999369777
 20
10.1642146950909
 30
0.0
 40
0.154454514312294
 50
114.468866848542
 51
174.699446848542
  0
LINE
  8
6
  6
CONTINUOUS
 62
6
 10
1.50803595679671
 20
10.1784832340883
 30
0.0
 11
1.50817134062764
 21
10.0838331533208
 31
0.0
  0
LINE
  8
6
  6
CONTINUOUS
 62
6
 10
1.50731223225331
 20
10.684432658879
 30
0.0
 11
1.71731201741355
 21
10.6847330463625
 31
0.0
  0
LINE
  8
6
  6
CONTINUOUS
 62
6
 10
1.71731201741355
 20
10.6847330463625
 30
0.0
 11
1.92731180257385
 21
10.685033433846
 31
0.0
  0
LINE
  8
6
  6
CONTINUOUS
 62
6
 10
1.71731201741355
 20
10.6847330463625
 30
0.0
 11
1.7170369483037
 21
10.8770328496307
 31
0.0
  0
LINE
  8
6
  6
CONTINUOUS
 62
6
 10
1.5073015041289
 20
10.6919326512062
 30
0.0
 11
1.50695992064772
 21
10.9307324069027
 31
0.0
  0
LINE
  8
6
  6
CONTINUOUS
 62
6
 10
1.50691700815008
 20
10.9607323762114
 30
0.0
 11
1.50683118319502
 21
11.0207322867141
 31
0.0
  0
LINE
  8
6
  6
CONTINUOUS
 62
6
 10
1.50683118319502
 20
11.0207322867141
 30
0.0
 11
1.50674535819975
 21
11.0807322253313
 31
0.0
  0
LINE
  8
6
  6
CONTINUOUS
 62
6
 10
1.50683118319502
 20
11.0207322867141
 30
0.0
 11
1.92683075351557
 21
11.021333061681
 31
0.0
  0
LINE
  8
6
  6
CONTINUOUS
 62
6
 10
1.92691657847062
 20
10.9613331511783
 30
0.0
 11
1.92683075351557
 21
11.021333061681
 31
0.0
  0
LINE
  8
6
  6
CONTINUOUS
 62
6
 10
1.92683075351557
 20
11.021333061681
 30
0.0
 11
1.92674492852029
 21
11.0813330002982
 31
0.0
  0
LINE
  8
6
  6
CONTINUOUS
 62
6
 10
1.50670244570211
 20
11.1107321946399
 30
0.0
 11
1.92670201602266
 21
11.1113329696068
 31
0.0
  0
LINE
  8
6
  6
CONTINUOUS
 62
6
 10
1.50667026132889
 20
11.1332321716214
 30
0.0
 11
1.50648445021412
 21
11.2631320387277
 31
0.0
  0
ARC
  8
6
  6
CONTINUOUS
 62
6
 10
1.61148434279426
 20
11.2632822324694
 30
0.0
 40
0.105000000000006
 50
90.0775568613814
 51
180.081956861383
  0
ARC
  8
6
  6
CONTINUOUS
 62
6
 10
1.61148434279425
 20
11.2632822324694
 30
0.0
 40
0.105000000000012
 50
0.0731568613710575
 51
90.077556861373
  0
LINE
  8
6
  6
CONTINUOUS
 62
6
 10
1.71648425720405
 20
11.2634162993836
 30
0.0
 11
1.92633382679294
 21
11.3687327062747
 31
0.0
  0
LINE
  8
6
  6
CONTINUOUS
 62
6
 10
1.71667004648916
 20
11.1335325591048
 30
0.0
 11
1.71648425854714
 21
11.2634162262277
 31
0.0
  0
ARC
  8
6
  6
CONTINUOUS
 62
6
 10
1.62756688809846
 20
11.5470605054747
 30
0.0
 40
0.121071389999995
 50
120.60397686138
 51
179.38043686138
  0
LINE
  8
6
  6
CONTINUOUS
 62
6
 10
1.50650257646713
 20
11.5483696753505
 30
0.0
 11
1.50613353688309
 21
11.5142427816208
 31
0.0
  0
ARC
  8
6
  6
CONTINUOUS
 62
6
 10
1.61665297843394
 20
11.5130476530121
 30
0.0
 40
0.110525903267523
 50
179.380442432927
 51
267.432662432928
  0
ARC
  8
6
  6
CONTINUOUS
 62
6
 10
1.60341979177478
 20
11.4925237516231
 30
0.0
 40
0.0902718146223223
 50
275.264231116489
 51
329.426731116489
  0
LINE
  8
6
  6
CONTINUOUS
 62
6
 10
1.68114196678163
 20
11.4466079152764
 30
0.0
 11
1.75189995396713
 21
11.6120075499984
 31
0.0
  0
ARC
  8
6
  6
CONTINUOUS
 62
6
 10
1.82962213845888
 20
11.5660917961251
 30
0.0
 40
0.0902717808394183
 50
95.2641962474776
 51
149.426779247478
  0
ARC
  8
6
  6
CONTINUOUS
 62
6
 10
1.81638895654861
 20
11.5455679016212
 30
0.0
 40
0.11052587019469
 50
359.523034132477
 51
87.4326341324796
  0
LINE
  8
6
  6
CONTINUOUS
 62
6
 10
1.92691099707837
 20
11.5446478258471
 30
0.0
 11
1.92655468790145
 21
11.5018471563278
 31
0.0
  0
ARC
  8
6
  6
CONTINUOUS
 62
6
 10
1.80548753697623
 20
11.5028549958598
 30
0.0
 40
0.121071345799373
 50
300.603944712589
 51
359.523044712589
  0
LINE
  8
6
  6
CONTINUOUS
 62
6
 10
1.50588024222461
 20
11.6855316225242
 30
0.0
 11
1.50568820879769
 21
11.8197814851802
 31
0.0
  0
LINE
  8
6
  6
CONTINUOUS
 62
6
 10
1.50568820879769
 20
11.8197814851802
 30
0.0
 11
1.92568777907532
 21
11.8203822901471
 31
0.0
  0
LINE
  8
6
  6
CONTINUOUS
 62
6
 10
1.50568820875477
 20
11.8197815151802
 30
0.0
 11
1.50549617537077
 21
11.9540313478362
 31
0.0
  0
LINE
  8
6
  6
CONTINUOUS
 62
6
 10
6.43575252737546
 20
16.9995426497415
 30
0.0
 11
6.43575252737546
 21
16.7895426497416
 31
0.0
  0
LINE
  8
6
  6
CONTINUOUS
 62
6
 10
6.43575252737546
 20
16.7895426497416
 30
0.0
 11
6.43575252737546
 21
16.5795426497415
 31
0.0
  0
LINE
  8
6
  6
CONTINUOUS
 62
6
 10
6.43575252737546
 20
16.7895426497416
 30
0.0
 11
6.62805252737546
 21
16.7895426497416
 31
0.0
  0
LINE
  8
6
  6
CONTINUOUS
 62
6
 10
6.44325252737546
 20
16.9995426497415
 30
0.0
 11
6.68205252737547
 21
16.9995426497415
 31
0.0
  0
LINE
  8
6
  6
CONTINUOUS
 62
6
 10
6.71205252737547
 20
16.9995426497415
 30
0.0
 11
6.71205252737547
 21
16.5795426497415
 31
0.0
  0
LINE
  8
6
  6
CONTINUOUS
 62
6
 10
6.71205252737547
 20
16.5795426497415
 30
0.0
 11
6.95835252737547
 21
16.5795426497415
 31
0.0
  0
ARC
  8
6
  6
CONTINUOUS
 62
6
 10
7.12824108737547
 20
16.8746388497415
 30
0.0
 40
0.1249038
 50
93.4424652776289
 51
164.098
  0
ARC
  8
6
  6
CONTINUOUS
 62
6
 10
7.36252203625204
 20
16.7888614731927
 30
0.0
 40
0.374169560784254
 50
161.2941
 51
198.7059
  0
ARC
  8
6
  6
CONTINUOUS
 62
6
 10
7.12824095784966
 20
16.7030841639339
 30
0.0
 40
0.124903626714107
 50
195.902054741785
 51
266.557589464157
  0
ARC
  8
6
  6
CONTINUOUS
 62
6
 10
7.12824108737547
 20
16.7030843297415
 30
0.0
 40
0.124903800000001
 50
273.442465277628
 51
344.097999999997
  0
ARC
  8
6
  6
CONTINUOUS
 62
6
 10
6.89396016141347
 20
16.7888616985316
 30
0.0
 40
0.374169536591774
 50
341.294099999999
 51
18.7059000000007
  0
ARC
  8
6
  6
CONTINUOUS
 62
6
 10
7.12824126595442
 20
16.8746389231363
 30
0.0
 40
0.124903716014757
 50
15.9020797482304
 51
86.5576144706034
  0
ARC
  8
6
  6
CONTINUOUS
 62
6
 10
7.43801832737547
 20
16.8746388497415
 30
0.0
 40
0.124903800000001
 50
93.4424652776286
 51
164.098
  0
ARC
  8
6
  6
CONTINUOUS
 62
6
 10
7.67229927625204
 20
16.7888614731927
 30
0.0
 40
0.374169560784254
 50
161.2941
 51
198.7059
  0
ARC
  8
6
  6
CONTINUOUS
 62
6
 10
7.43801819784966
 20
16.7030841639339
 30
0.0
 40
0.124903626714108
 50
195.902054741785
 51
266.557589464157
  0
ARC
  8
6
  6
CONTINUOUS
 62
6
 10
7.43801832737547
 20
16.7030843297415
 30
0.0
 40
0.1249038
 50
273.442465277628
 51
344.097999999998
  0
ARC
  8
6
  6
CONTINUOUS
 62
6
 10
7.20373740141347
 20
16.7888616985316
 30
0.0
 40
0.374169536591774
 50
341.294099999999
 51
18.7059000000007
  0
ARC
  8
6
  6
CONTINUOUS
 62
6
 10
7.43801850595442
 20
16.8746389231363
 30
0.0
 40
0.124903716014757
 50
15.9020797482304
 51
86.5576144706034
  0
LINE
  8
6
  6
CONTINUOUS
 62
6
 10
7.60790700737547
 20
16.9995426497415
 30
0.0
 11
7.60790700737547
 21
16.5795426497415
 31
0.0
  0
LINE
  8
6
  6
CONTINUOUS
 62
6
 10
7.63040700737547
 20
16.9995426497415
 30
0.0
 11
7.76030700737547
 21
16.9995426497415
 31
0.0
  0
ARC
  8
6
  6
CONTINUOUS
 62
6
 10
7.76030700737548
 20
16.8945426497415
 30
0.0
 40
0.105000000000006
 50
359.995600000002
 51
90.0000000000044
  0
ARC
  8
6
  6
CONTINUOUS
 62
6
 10
7.76030700737547
 20
16.8945426497415
 30
0.0
 40
0.105000000000013
 50
269.991199999991
 51
359.995599999993
  0
LINE
  8
6
  6
CONTINUOUS
 62
6
 10
7.76029088053323
 20
16.78954265098
 30
0.0
 11
7.86530700737547
 21
16.5795426497415
 31
0.0
  0
LINE
  8
6
  6
CONTINUOUS
 62
6
 10
7.63040700737547
 20
16.7895426497415
 30
0.0
 11
7.76029080737547
 21
16.7895426497415
 31
0.0
  0
LINE
  8
6
  6
CONTINUOUS
 62
6
 10
8.22530700737547
 20
16.7895426497415
 30
0.0
 11
8.46530703737547
 21
16.7895426497415
 31
0.0
  0
LINE
  8
6
  6
CONTINUOUS
 62
6
 10
8.82530703737547
 20
16.9995426497415
 30
0.0
 11
8.95955703737547
 21
16.9995426497415
 31
0.0
  0
LINE
  8
6
  6
CONTINUOUS
 62
6
 10
8.95955703737547
 20
16.9995426497415
 30
0.0
 11
8.95955706737547
 21
16.5795426497415
 31
0.0
  0
LINE
  8
6
  6
CONTINUOUS
 62
6
 10
8.95955706737548
 20
16.9995426497415
 30
0.0
 11
9.09380703737547
 21
16.9995426497415
 31
0.0
  0
LINE
  8
6
  6
CONTINUOUS
 62
6
 10
9.12380703737547
 20
16.9995426497415
 30
0.0
 11
9.12380703737547
 21
16.7895426497415
 31
0.0
  0
LINE
  8
6
  6
CONTINUOUS
 62
6
 10
9.12380703737547
 20
16.7895426497415
 30
0.0
 11
9.12380703737547
 21
16.5795426497415
 31
0.0
  0
LINE
  8
6
  6
CONTINUOUS
 62
6
 10
9.12380703737547
 20
16.7895426497415
 30
0.0
 11
9.37880703737547
 21
16.7895426497415
 31
0.0
  0
LINE
  8
6
  6
CONTINUOUS
 62
6
 10
9.37880703737547
 20
16.5795426497415
 30
0.0
 11
9.37880703737547
 21
16.7895426497415
 31
0.0
  0
LINE
  8
6
  6
CONTINUOUS
 62
6
 10
9.37880703737547
 20
16.7895426497415
 30
0.0
 11
9.37880703737547
 21
16.9995426497415
 31
0.0
  0
LINE
  8
6
  6
CONTINUOUS
 62
6
 10
9.40880703737547
 20
16.9995426497415
 30
0.0
 11
9.46880700926097
 21
16.9995426497415
 31
0.0
  0
LINE
  8
6
  6
CONTINUOUS
 62
6
 10
9.46880700926097
 20
16.9995426497415
 30
0.0
 11
9.52880700926097
 21
16.9995426497415
 31
0.0
  0
LINE
  8
6
  6
CONTINUOUS
 62
6
 10
9.46880700926097
 20
16.9995426497415
 30
0.0
 11
9.46880700926097
 21
16.5795426497415
 31
0.0
  0
LINE
  8
6
  6
CONTINUOUS
 62
6
 10
9.40880703737547
 20
16.5795426497415
 30
0.0
 11
9.46880700926097
 21
16.5795426497415
 31
0.0
  0
LINE
  8
6
  6
CONTINUOUS
 62
6
 10
9.46880700926097
 20
16.5795426497415
 30
0.0
 11
9.52880700926097
 21
16.5795426497415
 31
0.0
  0
ARC
  8
6
  6
CONTINUOUS
 62
6
 10
9.70756198720841
 20
16.8780541997415
 30
0.0
 40
0.121071389999996
 50
30.5220199999994
 51
89.2984799999995
  0
LINE
  8
6
  6
CONTINUOUS
 62
6
 10
9.7090443281444
 20
16.9991165148602
 30
0.0
 11
9.6749179972084
 21
16.9995343697415
 31
0.0
  0
ARC
  8
6
  6
CONTINUOUS
 62
6
 10
9.67356478097991
 20
16.889016750789
 30
0.0
 40
0.110525903267522
 50
89.2984855715482
 51
177.350705571549
  0
ARC
  8
6
  6
CONTINUOUS
 62
6
 10
9.6530598295575
 20
16.902279281639
 30
0.0
 40
0.090271814622323
 50
185.182274255108
 51
239.344774255108
  0
LINE
  8
6
  6
CONTINUOUS
 62
6
 10
9.6070328650965
 20
16.8246228649195
 30
0.0
 11
9.7723311172084
 21
16.7536283597415
 31
0.0
  0
ARC
  8
6
  6
CONTINUOUS
 62
6
 10
9.72630423520714
 20
16.6759719334192
 30
0.0
 40
0.0902717808394171
 50
5.18223938609767
 51
59.3448223860977
  0
ARC
  8
6
  6
CONTINUOUS
 62
6
 10
9.70579929066301
 20
16.6892344595104
 30
0.0
 40
0.11052587019469
 50
269.441077271097
 51
357.350677271099
  0
LINE
  8
6
  6
CONTINUOUS
 62
6
 10
9.70472112327011
 20
16.5787138481415
 30
0.0
 11
9.6619210072084
 21
16.5791313797415
 31
0.0
  0
ARC
  8
6
  6
CONTINUOUS
 62
6
 10
9.66310202217025
 20
16.7001969651791
 30
0.0
 40
0.121071345799372
 50
210.52198785121
 51
269.441087851211
  0
ARC
  8
6
  6
CONTINUOUS
 62
6
 10
10.3249620031397
 20
16.8780541997415
 30
0.0
 40
0.121071389999996
 50
30.5220199999994
 51
89.2984799999995
  0
LINE
  8
6
  6
CONTINUOUS
 62
6
 10
10.3264443440757
 20
16.9991165148602
 30
0.0
 11
10.2923180131397
 21
16.9995343697415
 31
0.0
  0
ARC
  8
6
  6
CONTINUOUS
 62
6
 10
10.2909647969112
 20
16.889016750789
 30
0.0
 40
0.110525903267522
 50
89.2984855715482
 51
177.350705571549
  0
ARC
  8
6
  6
CONTINUOUS
 62
6
 10
10.2704598454888
 20
16.902279281639
 30
0.0
 40
0.090271814622323
 50
185.182274255108
 51
239.344774255108
  0
LINE
  8
6
  6
CONTINUOUS
 62
6
 10
10.2244328810278
 20
16.8246228649195
 30
0.0
 11
10.3897311331397
 21
16.7536283597415
 31
0.0
  0
ARC
  8
6
  6
CONTINUOUS
 62
6
 10
10.3437042511384
 20
16.6759719334192
 30
0.0
 40
0.0902717808394171
 50
5.18223938609767
 51
59.3448223860977
  0
ARC
  8
6
  6
CONTINUOUS
 62
6
 10
10.3231993065943
 20
16.6892344595104
 30
0.0
 40
0.11052587019469
 50
269.441077271097
 51
357.350677271099
  0
LINE
  8
6
  6
CONTINUOUS
 62
6
 10
10.3221211392014
 20
16.5787138481415
 30
0.0
 11
10.2793210231397
 21
16.5791313797415
 31
0.0
  0
ARC
  8
6
  6
CONTINUOUS
 62
6
 10
10.2805020381015
 20
16.7001969651791
 30
0.0
 40
0.121071345799372
 50
210.52198785121
 51
269.441087851211
  0
LINE
  8
6
  6
CONTINUOUS
 62
6
 10
10.4636070411235
 20
16.9995426497415
 30
0.0
 11
10.523607013009
 21
16.9995426497415
 31
0.0
  0
LINE
  8
6
  6
CONTINUOUS
 62
6
 10
10.523607013009
 20
16.9995426497415
 30
0.0
 11
10.583607013009
 21
16.9995426497415
 31
0.0
  0
LINE
  8
6
  6
CONTINUOUS
 62
6
 10
10.523607013009
 20
16.9995426497415
 30
0.0
 11
10.523607013009
 21
16.5795426497415
 31
0.0
  0
LINE
  8
6
  6
CONTINUOUS
 62
6
 10
10.4636070411235
 20
16.5795426497415
 30
0.0
 11
10.523607013009
 21
16.5795426497415
 31
0.0
  0
LINE
  8
6
  6
CONTINUOUS
 62
6
 10
10.523607013009
 20
16.5795426497415
 30
0.0
 11
10.583607013009
 21
16.5795426497415
 31
0.0
  0
LINE
  8
6
  6
CONTINUOUS
 62
6
 10
10.613607013009
 20
16.9995426497415
 30
0.0
 11
10.613607013009
 21
16.5795426497415
 31
0.0
  0
LINE
  8
6
  6
CONTINUOUS
 62
6
 10
10.636107013009
 20
16.5795426497415
 30
0.0
 11
10.730756893009
 21
16.5795426497415
 31
0.0
  0
ARC
  8
6
  6
CONTINUOUS
 62
6
 10
10.7162684306513
 20
16.733316265256
 30
0.0
 40
0.154454654736913
 50
275.382485884766
 51
335.613185884766
  0
ARC
  8
6
  6
CONTINUOUS
 62
6
 10
10.5025376735109
 20
16.7895428087214
 30
0.0
 40
0.374169422895456
 50
341.294099999999
 51
18.7059000000007
  0
ARC
  8
6
  6
CONTINUOUS
 62
6
 10
10.7162686766589
 20
16.8457691747806
 30
0.0
 40
0.154454514312294
 50
24.3869099871631
 51
84.6174899871631
  0
LINE
  8
6
  6
CONTINUOUS
 62
6
 10
10.7307571906004
 20
16.9995426443884
 30
0.0
 11
10.636107013009
 21
16.9995426497415
 31
0.0
  0
LINE
  8
6
  6
CONTINUOUS
 62
6
 10
10.906707133009
 20
16.9995426497415
 30
0.0
 11
10.907007133009
 21
16.5795426497416
 31
0.0
  0
LINE
  8
6
  6
CONTINUOUS
 62
6
 10
10.907007133009
 20
16.5795426497416
 30
0.0
 11
11.153307133009
 21
16.5795426497416
 31
0.0
  0
LINE
  8
6
  6
CONTINUOUS
 62
6
 10
10.907007133009
 20
16.7895426497416
 30
0.0
 11
11.099307133009
 21
16.7895426497416
 31
0.0
  0
LINE
  8
6
  6
CONTINUOUS
 62
6
 10
10.9142071349223
 20
16.9995426497415
 30
0.0
 11
10.9142071310958
 21
16.999548006883
 31
0.0
  0
LINE
  8
6
  6
CONTINUOUS
 62
6
 10
10.9142071310958
 20
16.999548006883
 30
0.0
 11
11.153307133009
 21
16.9995426497415
 31
0.0
  0
LINE
  8
6
  6
CONTINUOUS
 62
6
 10
11.513307133009
 20
16.9995426497415
 30
0.0
 11
11.513307133009
 21
16.6995426197415
 31
0.0
  0
ARC
  8
6
  6
CONTINUOUS
 62
6
 10
11.6363217394546
 20
16.6998425915166
 30
0.0
 40
0.123014972186392
 50
180.139715787557
 51
270.698715787557
  0
ARC
  8
6
  6
CONTINUOUS
 62
6
 10
11.636321773009
 20
16.6998426197415
 30
0.0
 40
0.123014999999997
 50
270.698699999994
 51
1.25769999999901
  0
LINE
  8
6
  6
CONTINUOUS
 62
6
 10
11.7593071370153
 20
16.7025427058948
 30
0.0
 11
11.759307133009
 21
16.9995426497415
 31
0.0
  0
LINE
  8
6
  6
CONTINUOUS
 62
6
 10
11.789307133009
 20
16.9995426497415
 30
0.0
 11
11.789307133009
 21
16.5795426497415
 31
0.0
  0
LINE
  8
6
  6
CONTINUOUS
 62
6
 10
11.811807133009
 20
16.9995426497415
 30
0.0
 11
11.941707133009
 21
16.9995426497415
 31
0.0
  0
ARC
  8
6
  6
CONTINUOUS
 62
6
 10
11.941707133009
 20
16.8945426497415
 30
0.0
 40
0.105
 50
359.995599999999
 51
90.000000000001
  0
ARC
  8
6
  6
CONTINUOUS
 62
6
 10
11.941707133009
 20
16.8945426497415
 30
0.0
 40
0.105000000000005
 50
269.991199999995
 51
359.995599999997
  0
LINE
  8
6
  6
CONTINUOUS
 62
6
 10
11.9416910061668
 20
16.78954265098
 30
0.0
 11
11.811807133009
 21
16.7895426497415
 31
0.0
  0
ENDSEC
  0
EOF
