  0
SECTION
  2
HEADER
  9
$ACADVER
  1
AC1003
  9
$EXTMIN
 10
-0.00475477877431962
 20
18.0010011444603
  9
$EXTMAX
 10
16.4952452212256
 20
7.00100114446032
  9
$INSBASE
 10
8.24524522122566
 20
12.5010011444603
999
Created with OMAX Layout for Windows. (http://www.omax.com) 9/18/2012
  0
ENDSEC
  0
SECTION
  2
TABLES
  0
TABLE
  2
LAYER
 70
    10
  0
LAYER
  2
0
 70
     0
 62
     7
  6
CONTINUOUS
  0
LAYER
  2
1
 70
     0
 62
     7
  6
CONTINUOUS
  0
LAYER
  2
2
 70
     0
 62
     7
  6
CONTINUOUS
  0
LAYER
  2
3
 70
     0
 62
     7
  6
CONTINUOUS
  0
LAYER
  2
4
 70
     0
 62
     7
  6
CONTINUOUS
  0
LAYER
  2
5
 70
     0
 62
     7
  6
CONTINUOUS
  0
LAYER
  2
6
 70
     0
 62
     7
  6
CONTINUOUS
  0
LAYER
  2
7
 70
     0
 62
     7
  6
CONTINUOUS
  0
LAYER
  2
8
 70
     0
 62
     7
  6
CONTINUOUS
  0
LAYER
  2
9
 70
     0
 62
     7
  6
CONTINUOUS
  0
LAYER
  2
10
 70
     0
 62
     7
  6
CONTINUOUS
  0
LAYER
  2
11
 70
     0
 62
     7
  6
CONTINUOUS
  0
LAYER
  2
12
 70
     0
 62
     7
  6
CONTINUOUS
  0
LAYER
  2
13
 70
     0
 62
     7
  6
CONTINUOUS
  0
LAYER
  2
14
 70
     0
 62
     7
  6
CONTINUOUS
  0
LAYER
  2
15
 70
     0
 62
     7
  6
CONTINUOUS
  0
LAYER
  2
16
 70
     0
 62
     7
  6
CONTINUOUS
  0
LAYER
  2
17
 70
     0
 62
     7
  6
CONTINUOUS
  0
LAYER
  2
18
 70
     0
 62
     7
  6
CONTINUOUS
  0
LAYER
  2
19
 70
     0
 62
     7
  6
CONTINUOUS
  0
LAYER
  2
20
 70
     0
 62
     7
  6
CONTINUOUS
  0
LAYER
  2
21
 70
     0
 62
     7
  6
CONTINUOUS
  0
LAYER
  2
22
 70
     0
 62
     7
  6
CONTINUOUS
  0
LAYER
  2
23
 70
     0
 62
     7
  6
CONTINUOUS
  0
LAYER
  2
24
 70
     0
 62
     7
  6
CONTINUOUS
  0
LAYER
  2
25
 70
     0
 62
     7
  6
CONTINUOUS
  0
LAYER
  2
26
 70
     0
 62
     7
  6
CONTINUOUS
  0
LAYER
  2
27
 70
     0
 62
     7
  6
CONTINUOUS
  0
LAYER
  2
28
 70
     0
 62
     7
  6
CONTINUOUS
  0
LAYER
  2
29
 70
     0
 62
     7
  6
CONTINUOUS
  0
LAYER
  2
30
 70
     0
 62
     7
  6
CONTINUOUS
  0
LAYER
  2
31
 70
     0
 62
     7
  6
CONTINUOUS
  0
ENDTAB
  0
ENDSEC
  0
SECTION
  2
ENTITIES
  0
LINE
  8
1
  6
CONTINUOUS
 62
1
 10
-0.00475477877431962
 20
7.00100114446032
 30
0.0
 11
16.4952452212256
 21
7.00100114446032
 31
0.0
  0
LINE
  8
1
  6
CONTINUOUS
 62
1
 10
16.4952452212256
 20
7.00100114446032
 30
0.0
 11
16.4952452212256
 21
18.0010011444603
 31
0.0
  0
LINE
  8
1
  6
CONTINUOUS
 62
1
 10
16.4952452212256
 20
18.0010011444603
 30
0.0
 11
-0.00475477877431962
 21
18.0010011444603
 31
0.0
  0
LINE
  8
1
  6
CONTINUOUS
 62
1
 10
-0.00475477877431962
 20
18.0010011444603
 30
0.0
 11
-0.00475477877431962
 21
7.00100114446032
 31
0.0
  0
ARC
  8
1
  6
CONTINUOUS
 62
1
 10
1.42314517350064
 20
13.190611319716
 30
0.0
 40
0.135
 50
179.999999999999
 51
359.999999999999
  0
ARC
  8
1
  6
CONTINUOUS
 62
1
 10
1.42314517350064
 20
13.190611319716
 30
0.0
 40
0.135
 50
359.999999999999
 51
180
  0
ARC
  8
1
  6
CONTINUOUS
 62
1
 10
1.41686780137874
 20
11.8113590294363
 30
0.0
 40
0.135
 50
179.999999999999
 51
359.999999999999
  0
ARC
  8
1
  6
CONTINUOUS
 62
1
 10
1.41686780137874
 20
11.8113590294363
 30
0.0
 40
0.135
 50
359.999999999999
 51
180
  0
LINE
  8
7
  6
CONTINUOUS
 62
7
 10
0.93668662548613
 20
17.0155158389571
 30
0.0
 11
0.93668662548613
 21
16.5955158389571
 31
0.0
  0
LINE
  8
7
  6
CONTINUOUS
 62
7
 10
0.95918662548613
 20
16.5955158389571
 30
0.0
 11
1.05383650548613
 21
16.5955158389571
 31
0.0
  0
ARC
  8
7
  6
CONTINUOUS
 62
7
 10
1.0393480431284
 20
16.7492894544716
 30
0.0
 40
0.154454654736915
 50
275.382485884767
 51
335.613185884767
  0
ARC
  8
7
  6
CONTINUOUS
 62
7
 10
0.825617285987996
 20
16.805515997937
 30
0.0
 40
0.374169422895456
 50
341.294099999999
 51
18.7059000000007
  0
ARC
  8
7
  6
CONTINUOUS
 62
7
 10
1.039348289136
 20
16.8617423639961
 30
0.0
 40
0.154454514312292
 50
24.3869099871627
 51
84.6174899871627
  0
LINE
  8
7
  6
CONTINUOUS
 62
7
 10
1.05383680307754
 20
17.0155158336039
 30
0.0
 11
0.95918662548613
 21
17.0155158389571
 31
0.0
  0
ARC
  8
7
  6
CONTINUOUS
 62
7
 10
1.36967530548613
 20
16.8906120389571
 30
0.0
 40
0.1249038
 50
93.4424652776288
 51
164.098
  0
ARC
  8
7
  6
CONTINUOUS
 62
7
 10
1.60395625436271
 20
16.8048346624082
 30
0.0
 40
0.374169560784254
 50
161.2941
 51
198.7059
  0
ARC
  8
7
  6
CONTINUOUS
 62
7
 10
1.36967517596033
 20
16.7190573531495
 30
0.0
 40
0.124903626714107
 50
195.902054741785
 51
266.557589464157
  0
ARC
  8
7
  6
CONTINUOUS
 62
7
 10
1.36967530548614
 20
16.7190575189571
 30
0.0
 40
0.124903800000001
 50
273.442465277628
 51
344.097999999998
  0
ARC
  8
7
  6
CONTINUOUS
 62
7
 10
1.13539437952413
 20
16.8048348877471
 30
0.0
 40
0.374169536591774
 50
341.294099999999
 51
18.7059000000007
  0
ARC
  8
7
  6
CONTINUOUS
 62
7
 10
1.36967548406508
 20
16.8906121123519
 30
0.0
 40
0.124903716014757
 50
15.9020797482303
 51
86.5576144706034
  0
ARC
  8
7
  6
CONTINUOUS
 62
7
 10
1.67945254548613
 20
16.8906120389571
 30
0.0
 40
0.1249038
 50
93.4424652776288
 51
164.098
  0
ARC
  8
7
  6
CONTINUOUS
 62
7
 10
1.91373349436271
 20
16.8048346624082
 30
0.0
 40
0.374169560784254
 50
161.2941
 51
198.7059
  0
ARC
  8
7
  6
CONTINUOUS
 62
7
 10
1.67945241596033
 20
16.7190573531495
 30
0.0
 40
0.124903626714107
 50
195.902054741785
 51
266.557589464157
  0
ARC
  8
7
  6
CONTINUOUS
 62
7
 10
1.67945254548614
 20
16.7190575189571
 30
0.0
 40
0.124903800000001
 50
273.442465277628
 51
344.097999999998
  0
ARC
  8
7
  6
CONTINUOUS
 62
7
 10
1.44517161952413
 20
16.8048348877471
 30
0.0
 40
0.374169536591774
 50
341.294099999999
 51
18.7059000000007
  0
ARC
  8
7
  6
CONTINUOUS
 62
7
 10
1.67945272406508
 20
16.8906121123519
 30
0.0
 40
0.124903716014757
 50
15.9020797482303
 51
86.5576144706034
  0
LINE
  8
7
  6
CONTINUOUS
 62
7
 10
1.84934122548613
 20
17.0155158389571
 30
0.0
 11
1.84934122548613
 21
16.5955158389571
 31
0.0
  0
LINE
  8
7
  6
CONTINUOUS
 62
7
 10
1.87184122548613
 20
17.0155158389571
 30
0.0
 11
2.00174122548613
 21
17.0155158389571
 31
0.0
  0
ARC
  8
7
  6
CONTINUOUS
 62
7
 10
2.00174122548614
 20
16.910515838957
 30
0.0
 40
0.105000000000006
 50
359.995600000002
 51
90.0000000000042
  0
ARC
  8
7
  6
CONTINUOUS
 62
7
 10
2.00174122548613
 20
16.9105158389571
 30
0.0
 40
0.105000000000013
 50
269.991199999991
 51
359.995599999993
  0
LINE
  8
7
  6
CONTINUOUS
 62
7
 10
2.00172509864389
 20
16.8055158401955
 30
0.0
 11
2.10674122548613
 21
16.5955158389571
 31
0.0
  0
LINE
  8
7
  6
CONTINUOUS
 62
7
 10
1.87184122548613
 20
16.8055158389571
 30
0.0
 11
2.00172502548613
 21
16.8055158389571
 31
0.0
  0
LINE
  8
7
  6
CONTINUOUS
 62
7
 10
2.46674122548613
 20
16.8055158389571
 30
0.0
 11
2.70674125548613
 21
16.8055158389571
 31
0.0
  0
LINE
  8
7
  6
CONTINUOUS
 62
7
 10
3.06674125548613
 20
17.0155158389571
 30
0.0
 11
3.06674125548613
 21
16.8055158389571
 31
0.0
  0
LINE
  8
7
  6
CONTINUOUS
 62
7
 10
3.06674125548613
 20
16.8055158389571
 30
0.0
 11
3.06674125548613
 21
16.5955158389571
 31
0.0
  0
LINE
  8
7
  6
CONTINUOUS
 62
7
 10
3.06674125548613
 20
16.8055158389571
 30
0.0
 11
3.32174125548613
 21
16.8055158389571
 31
0.0
  0
LINE
  8
7
  6
CONTINUOUS
 62
7
 10
3.32174125548613
 20
16.5955158389571
 30
0.0
 11
3.32174125548613
 21
16.8055158389571
 31
0.0
  0
LINE
  8
7
  6
CONTINUOUS
 62
7
 10
3.32174125548613
 20
16.8055158389571
 30
0.0
 11
3.32174125548613
 21
17.0155158389571
 31
0.0
  0
LINE
  8
7
  6
CONTINUOUS
 62
7
 10
3.35174125548613
 20
17.0155158389571
 30
0.0
 11
3.41174122737163
 21
17.0155158389571
 31
0.0
  0
LINE
  8
7
  6
CONTINUOUS
 62
7
 10
3.41174122737163
 20
17.0155158389571
 30
0.0
 11
3.47174122737163
 21
17.0155158389571
 31
0.0
  0
LINE
  8
7
  6
CONTINUOUS
 62
7
 10
3.41174122737163
 20
17.0155158389571
 30
0.0
 11
3.41174122737163
 21
16.5955158389571
 31
0.0
  0
LINE
  8
7
  6
CONTINUOUS
 62
7
 10
3.35174125548613
 20
16.5955158389571
 30
0.0
 11
3.41174122737163
 21
16.5955158389571
 31
0.0
  0
LINE
  8
7
  6
CONTINUOUS
 62
7
 10
3.41174122737163
 20
16.5955158389571
 30
0.0
 11
3.47174122737163
 21
16.5955158389571
 31
0.0
  0
LINE
  8
7
  6
CONTINUOUS
 62
7
 10
3.50324122737163
 20
16.5955158389571
 30
0.0
 11
3.50324122737163
 21
17.0155158389571
 31
0.0
  0
LINE
  8
7
  6
CONTINUOUS
 62
7
 10
3.50324122737163
 20
17.0155158389571
 30
0.0
 11
3.76064122737163
 21
16.5955158389571
 31
0.0
  0
LINE
  8
7
  6
CONTINUOUS
 62
7
 10
3.76064122737163
 20
16.5955158389571
 30
0.0
 11
3.76064122737163
 21
17.0155158389571
 31
0.0
  0
ARC
  8
7
  6
CONTINUOUS
 62
7
 10
3.95107978737162
 20
16.8610612289571
 30
0.0
 40
0.154454609999992
 50
35.6800299999964
 51
155.613199999997
  0
ARC
  8
7
  6
CONTINUOUS
 62
7
 10
4.16481059048312
 20
16.8048346252749
 30
0.0
 40
0.374169444999785
 50
161.2941
 51
198.7059
  0
ARC
  8
7
  6
CONTINUOUS
 62
7
 10
3.94674453760148
 20
16.7387170275816
 30
0.0
 40
0.146599945248765
 50
201.564460912602
 51
268.774460912602
  0
ARC
  8
7
  6
CONTINUOUS
 62
7
 10
3.94047350900165
 20
16.7387173210836
 30
0.0
 40
0.146600239783021
 50
271.225556718117
 51
359.273456718118
  0
LINE
  8
7
  6
CONTINUOUS
 62
7
 10
4.0870619625093
 20
16.7368583959444
 30
0.0
 11
4.08706198737163
 21
16.7811749429571
 31
0.0
  0
LINE
  8
7
  6
CONTINUOUS
 62
7
 10
4.08706198737163
 20
16.7811749429571
 30
0.0
 11
3.89722393737163
 21
16.7811749429571
 31
0.0
  0
LINE
  8
7
  6
CONTINUOUS
 62
7
 10
4.11706198737163
 20
17.0155158389571
 30
0.0
 11
4.11736198737163
 21
16.5955158389571
 31
0.0
  0
LINE
  8
7
  6
CONTINUOUS
 62
7
 10
4.11736198737163
 20
16.5955158389571
 30
0.0
 11
4.36366198737163
 21
16.5955158389571
 31
0.0
  0
LINE
  8
7
  6
CONTINUOUS
 62
7
 10
4.11736198737163
 20
16.8055158389571
 30
0.0
 11
4.30966198737163
 21
16.8055158389571
 31
0.0
  0
LINE
  8
7
  6
CONTINUOUS
 62
7
 10
4.1245619892849
 20
17.0155158389571
 30
0.0
 11
4.12456198545837
 21
17.0155211960985
 31
0.0
  0
LINE
  8
7
  6
CONTINUOUS
 62
7
 10
4.12456198545837
 20
17.0155211960985
 30
0.0
 11
4.36366198737163
 21
17.0155158389571
 31
0.0
  0
ARC
  8
7
  6
CONTINUOUS
 62
7
 10
4.87241696531907
 20
16.8940273889571
 30
0.0
 40
0.121071389999996
 50
30.5220199999994
 51
89.2984799999995
  0
LINE
  8
7
  6
CONTINUOUS
 62
7
 10
4.87389930625506
 20
17.0150897040757
 30
0.0
 11
4.83977297531907
 21
17.0155075589571
 31
0.0
  0
ARC
  8
7
  6
CONTINUOUS
 62
7
 10
4.83841975909057
 20
16.9049899400045
 30
0.0
 40
0.110525903267523
 50
89.298485571548
 51
177.350705571549
  0
ARC
  8
7
  6
CONTINUOUS
 62
7
 10
4.81791480766816
 20
16.9182524708545
 30
0.0
 40
0.0902718146223236
 50
185.182274255109
 51
239.344774255109
  0
LINE
  8
7
  6
CONTINUOUS
 62
7
 10
4.77188784320716
 20
16.840596054135
 30
0.0
 11
4.93718609531907
 21
16.7696015489571
 31
0.0
  0
ARC
  8
7
  6
CONTINUOUS
 62
7
 10
4.8911592133178
 20
16.6919451226347
 30
0.0
 40
0.0902717808394171
 50
5.18223938609767
 51
59.3448223860977
  0
ARC
  8
7
  6
CONTINUOUS
 62
7
 10
4.87065426877367
 20
16.7052076487259
 30
0.0
 40
0.110525870194689
 50
269.441077271097
 51
357.350677271099
  0
LINE
  8
7
  6
CONTINUOUS
 62
7
 10
4.86957610138078
 20
16.594687037357
 30
0.0
 11
4.82677598531907
 21
16.5951045689571
 31
0.0
  0
ARC
  8
7
  6
CONTINUOUS
 62
7
 10
4.82795700028091
 20
16.7161701543946
 30
0.0
 40
0.121071345799372
 50
210.52198785121
 51
269.441087851211
  0
LINE
  8
7
  6
CONTINUOUS
 62
7
 10
5.01106200330291
 20
17.0155158389571
 30
0.0
 11
5.07106197518841
 21
17.0155158389571
 31
0.0
  0
LINE
  8
7
  6
CONTINUOUS
 62
7
 10
5.07106197518841
 20
17.0155158389571
 30
0.0
 11
5.13106197518841
 21
17.0155158389571
 31
0.0
  0
LINE
  8
7
  6
CONTINUOUS
 62
7
 10
5.07106197518841
 20
17.0155158389571
 30
0.0
 11
5.07106197518841
 21
16.5955158389571
 31
0.0
  0
LINE
  8
7
  6
CONTINUOUS
 62
7
 10
5.01106200330291
 20
16.5955158389571
 30
0.0
 11
5.07106197518841
 21
16.5955158389571
 31
0.0
  0
LINE
  8
7
  6
CONTINUOUS
 62
7
 10
5.07106197518841
 20
16.5955158389571
 30
0.0
 11
5.13106197518841
 21
16.5955158389571
 31
0.0
  0
LINE
  8
7
  6
CONTINUOUS
 62
7
 10
5.16106197518841
 20
17.0155158389571
 30
0.0
 11
5.16106197518841
 21
16.5955158389571
 31
0.0
  0
LINE
  8
7
  6
CONTINUOUS
 62
7
 10
5.18356197518841
 20
16.5955158389571
 30
0.0
 11
5.27821185518841
 21
16.5955158389571
 31
0.0
  0
ARC
  8
7
  6
CONTINUOUS
 62
7
 10
5.26372339283068
 20
16.7492894544716
 30
0.0
 40
0.154454654736914
 50
275.382485884767
 51
335.613185884767
  0
ARC
  8
7
  6
CONTINUOUS
 62
7
 10
5.04999263569027
 20
16.805515997937
 30
0.0
 40
0.374169422895456
 50
341.294099999999
 51
18.7059000000007
  0
ARC
  8
7
  6
CONTINUOUS
 62
7
 10
5.26372363883827
 20
16.8617423639961
 30
0.0
 40
0.154454514312292
 50
24.3869099871627
 51
84.6174899871627
  0
LINE
  8
7
  6
CONTINUOUS
 62
7
 10
5.27821215277982
 20
17.0155158336039
 30
0.0
 11
5.18356197518841
 21
17.0155158389571
 31
0.0
  0
LINE
  8
7
  6
CONTINUOUS
 62
7
 10
5.45416209518841
 20
17.0155158389571
 30
0.0
 11
5.45446209518841
 21
16.5955158389571
 31
0.0
  0
LINE
  8
7
  6
CONTINUOUS
 62
7
 10
5.45446209518841
 20
16.5955158389571
 30
0.0
 11
5.70076209518841
 21
16.5955158389571
 31
0.0
  0
LINE
  8
7
  6
CONTINUOUS
 62
7
 10
5.45446209518841
 20
16.8055158389571
 30
0.0
 11
5.64676209518841
 21
16.8055158389571
 31
0.0
  0
LINE
  8
7
  6
CONTINUOUS
 62
7
 10
5.46166209710168
 20
17.0155158389571
 30
0.0
 11
5.46166209327515
 21
17.0155211960985
 31
0.0
  0
LINE
  8
7
  6
CONTINUOUS
 62
7
 10
5.46166209327515
 20
17.0155211960985
 30
0.0
 11
5.70076209518841
 21
17.0155158389571
 31
0.0
  0
LINE
  8
7
  6
CONTINUOUS
 62
7
 10
6.06076209518841
 20
16.5955158389571
 30
0.0
 11
6.30076209518841
 21
17.0155158389571
 31
0.0
  0
LINE
  8
7
  6
CONTINUOUS
 62
7
 10
6.66076209518841
 20
17.0155158389571
 30
0.0
 11
6.66076209518841
 21
16.8055158389571
 31
0.0
  0
LINE
  8
7
  6
CONTINUOUS
 62
7
 10
6.66076209518841
 20
16.8055158389571
 30
0.0
 11
6.66076209518841
 21
16.5955158389571
 31
0.0
  0
LINE
  8
7
  6
CONTINUOUS
 62
7
 10
6.66076209518841
 20
16.8055158389571
 30
0.0
 11
6.85306209518841
 21
16.8055158389571
 31
0.0
  0
LINE
  8
7
  6
CONTINUOUS
 62
7
 10
6.66826209518841
 20
17.0155158389571
 30
0.0
 11
6.90706209518843
 21
17.0155158389571
 31
0.0
  0
LINE
  8
7
  6
CONTINUOUS
 62
7
 10
6.93706209518843
 20
17.0155158389571
 30
0.0
 11
6.93706209518843
 21
16.5955158389571
 31
0.0
  0
LINE
  8
7
  6
CONTINUOUS
 62
7
 10
6.95956209518843
 20
17.0155158389571
 30
0.0
 11
7.08946209518843
 21
17.0155158389571
 31
0.0
  0
ARC
  8
7
  6
CONTINUOUS
 62
7
 10
7.08946209518843
 20
16.910515838957
 30
0.0
 40
0.105000000000006
 50
359.995600000002
 51
90.0000000000042
  0
ARC
  8
7
  6
CONTINUOUS
 62
7
 10
7.08946209518843
 20
16.9105158389571
 30
0.0
 40
0.105000000000013
 50
269.991199999991
 51
359.995599999993
  0
LINE
  8
7
  6
CONTINUOUS
 62
7
 10
7.08944596834619
 20
16.8055158401955
 30
0.0
 11
7.19446209518843
 21
16.5955158389571
 31
0.0
  0
LINE
  8
7
  6
CONTINUOUS
 62
7
 10
6.95956209518843
 20
16.8055158389571
 30
0.0
 11
7.08944589518843
 21
16.8055158389571
 31
0.0
  0
ARC
  8
7
  6
CONTINUOUS
 62
7
 10
7.36435065518843
 20
16.8906120389571
 30
0.0
 40
0.1249038
 50
93.4424652776289
 51
164.098
  0
ARC
  8
7
  6
CONTINUOUS
 62
7
 10
7.598631604065
 20
16.8048346624082
 30
0.0
 40
0.374169560784254
 50
161.2941
 51
198.7059
  0
ARC
  8
7
  6
CONTINUOUS
 62
7
 10
7.36435052566262
 20
16.7190573531495
 30
0.0
 40
0.124903626714107
 50
195.902054741785
 51
266.557589464157
  0
ARC
  8
7
  6
CONTINUOUS
 62
7
 10
7.36435065518843
 20
16.7190575189571
 30
0.0
 40
0.124903800000001
 50
273.442465277628
 51
344.097999999997
  0
ARC
  8
7
  6
CONTINUOUS
 62
7
 10
7.13006972922642
 20
16.8048348877471
 30
0.0
 40
0.374169536591774
 50
341.294099999999
 51
18.7059000000007
  0
ARC
  8
7
  6
CONTINUOUS
 62
7
 10
7.36435083376737
 20
16.8906121123519
 30
0.0
 40
0.124903716014757
 50
15.9020797482304
 51
86.5576144706034
  0
LINE
  8
7
  6
CONTINUOUS
 62
7
 10
7.53573933518843
 20
16.5955158389571
 30
0.0
 11
7.53573933518843
 21
17.0155158389571
 31
0.0
  0
LINE
  8
7
  6
CONTINUOUS
 62
7
 10
7.53573933518843
 20
17.0155158389571
 30
0.0
 11
7.79313933518843
 21
16.5955158389571
 31
0.0
  0
LINE
  8
7
  6
CONTINUOUS
 62
7
 10
7.79313933518843
 20
16.5955158389571
 30
0.0
 11
7.79313933518843
 21
17.0155158389571
 31
0.0
  0
LINE
  8
7
  6
CONTINUOUS
 62
7
 10
7.82313933518843
 20
17.0155158389571
 30
0.0
 11
7.95738933518843
 21
17.0155158389571
 31
0.0
  0
LINE
  8
7
  6
CONTINUOUS
 62
7
 10
7.95738933518843
 20
17.0155158389571
 30
0.0
 11
7.95738936518843
 21
16.5955158389571
 31
0.0
  0
LINE
  8
7
  6
CONTINUOUS
 62
7
 10
7.95738936518844
 20
17.0155158389571
 30
0.0
 11
8.09163933518843
 21
17.0155158389571
 31
0.0
  0
LINE
  8
7
  6
CONTINUOUS
 62
7
 10
8.45163933518843
 20
17.0155158389571
 30
0.0
 11
8.60463933518843
 21
16.5955158389571
 31
0.0
  0
LINE
  8
7
  6
CONTINUOUS
 62
7
 10
8.60463933518843
 20
16.5955158389571
 30
0.0
 11
8.75763933518843
 21
17.0155158389571
 31
0.0
  0
LINE
  8
7
  6
CONTINUOUS
 62
7
 10
8.78763933518843
 20
17.0155158389571
 30
0.0
 11
8.84763930707393
 21
17.0155158389571
 31
0.0
  0
LINE
  8
7
  6
CONTINUOUS
 62
7
 10
8.84763930707393
 20
17.0155158389571
 30
0.0
 11
8.90763930707393
 21
17.0155158389571
 31
0.0
  0
LINE
  8
7
  6
CONTINUOUS
 62
7
 10
8.84763930707393
 20
17.0155158389571
 30
0.0
 11
8.84763930707393
 21
16.5955158389571
 31
0.0
  0
LINE
  8
7
  6
CONTINUOUS
 62
7
 10
8.78763933518843
 20
16.5955158389571
 30
0.0
 11
8.84763930707393
 21
16.5955158389571
 31
0.0
  0
LINE
  8
7
  6
CONTINUOUS
 62
7
 10
8.84763930707393
 20
16.5955158389571
 30
0.0
 11
8.90763930707393
 21
16.5955158389571
 31
0.0
  0
LINE
  8
7
  6
CONTINUOUS
 62
7
 10
8.93763930707393
 20
17.0155158389571
 30
0.0
 11
8.93793930707393
 21
16.5955158389571
 31
0.0
  0
LINE
  8
7
  6
CONTINUOUS
 62
7
 10
8.93793930707393
 20
16.5955158389571
 30
0.0
 11
9.18423930707393
 21
16.5955158389571
 31
0.0
  0
LINE
  8
7
  6
CONTINUOUS
 62
7
 10
8.93793930707393
 20
16.8055158389571
 30
0.0
 11
9.13023930707393
 21
16.8055158389571
 31
0.0
  0
LINE
  8
7
  6
CONTINUOUS
 62
7
 10
8.94513930898719
 20
17.0155158389571
 30
0.0
 11
8.94513930516066
 21
17.0155211960985
 31
0.0
  0
LINE
  8
7
  6
CONTINUOUS
 62
7
 10
8.94513930516066
 20
17.0155211960985
 30
0.0
 11
9.18423930707393
 21
17.0155158389571
 31
0.0
  0
LINE
  8
7
  6
CONTINUOUS
 62
7
 10
9.21423930707393
 20
17.0155158389571
 30
0.0
 11
9.32298930707393
 21
16.5955158389571
 31
0.0
  0
LINE
  8
7
  6
CONTINUOUS
 62
7
 10
9.32298930707393
 20
16.5955158389571
 30
0.0
 11
9.43173930707392
 21
16.9456158389571
 31
0.0
  0
LINE
  8
7
  6
CONTINUOUS
 62
7
 10
9.43173930707392
 20
16.9456158389571
 30
0.0
 11
9.54048930707393
 21
16.5955158389571
 31
0.0
  0
LINE
  8
7
  6
CONTINUOUS
 62
7
 10
9.54048930707393
 20
16.5955158389571
 30
0.0
 11
9.64923930707392
 21
17.0155158389571
 31
0.0
  0
ENDSEC
  0
EOF
