  0
SECTION
  2
HEADER
  9
$ACADVER
  1
AC1003
  9
$EXTMIN
 10
0.0131206199009837
 20
17.9725158517772
  9
$EXTMAX
 10
18.413120619901
 20
9.12051527102268
  9
$INSBASE
 10
9.213120619901
 20
13.5465155614
999
Created with OMAX Layout for Windows. (http://www.omax.com) 9/24/2012
  0
ENDSEC
  0
SECTION
  2
TABLES
  0
TABLE
  2
LAYER
 70
    10
  0
LAYER
  2
0
 70
     0
 62
     7
  6
CONTINUOUS
  0
LAYER
  2
1
 70
     0
 62
     7
  6
CONTINUOUS
  0
LAYER
  2
2
 70
     0
 62
     7
  6
CONTINUOUS
  0
LAYER
  2
3
 70
     0
 62
     7
  6
CONTINUOUS
  0
LAYER
  2
4
 70
     0
 62
     7
  6
CONTINUOUS
  0
LAYER
  2
5
 70
     0
 62
     7
  6
CONTINUOUS
  0
LAYER
  2
6
 70
     0
 62
     7
  6
CONTINUOUS
  0
LAYER
  2
7
 70
     0
 62
     7
  6
CONTINUOUS
  0
LAYER
  2
8
 70
     0
 62
     7
  6
CONTINUOUS
  0
LAYER
  2
9
 70
     0
 62
     7
  6
CONTINUOUS
  0
LAYER
  2
10
 70
     0
 62
     7
  6
CONTINUOUS
  0
LAYER
  2
11
 70
     0
 62
     7
  6
CONTINUOUS
  0
LAYER
  2
12
 70
     0
 62
     7
  6
CONTINUOUS
  0
LAYER
  2
13
 70
     0
 62
     7
  6
CONTINUOUS
  0
LAYER
  2
14
 70
     0
 62
     7
  6
CONTINUOUS
  0
LAYER
  2
15
 70
     0
 62
     7
  6
CONTINUOUS
  0
LAYER
  2
16
 70
     0
 62
     7
  6
CONTINUOUS
  0
LAYER
  2
17
 70
     0
 62
     7
  6
CONTINUOUS
  0
LAYER
  2
18
 70
     0
 62
     7
  6
CONTINUOUS
  0
LAYER
  2
19
 70
     0
 62
     7
  6
CONTINUOUS
  0
LAYER
  2
20
 70
     0
 62
     7
  6
CONTINUOUS
  0
LAYER
  2
21
 70
     0
 62
     7
  6
CONTINUOUS
  0
LAYER
  2
22
 70
     0
 62
     7
  6
CONTINUOUS
  0
LAYER
  2
23
 70
     0
 62
     7
  6
CONTINUOUS
  0
LAYER
  2
24
 70
     0
 62
     7
  6
CONTINUOUS
  0
LAYER
  2
25
 70
     0
 62
     7
  6
CONTINUOUS
  0
LAYER
  2
26
 70
     0
 62
     7
  6
CONTINUOUS
  0
LAYER
  2
27
 70
     0
 62
     7
  6
CONTINUOUS
  0
LAYER
  2
28
 70
     0
 62
     7
  6
CONTINUOUS
  0
LAYER
  2
29
 70
     0
 62
     7
  6
CONTINUOUS
  0
LAYER
  2
30
 70
     0
 62
     7
  6
CONTINUOUS
  0
LAYER
  2
31
 70
     0
 62
     7
  6
CONTINUOUS
  0
ENDTAB
  0
ENDSEC
  0
SECTION
  2
ENTITIES
  0
LINE
  8
1
  6
CONTINUOUS
 62
1
 10
17.4631519725777
 20
10.1205608196444
 30
0.0
 11
17.4631519725777
 21
16.9705608196444
 31
0.0
  0
LINE
  8
1
  6
CONTINUOUS
 62
1
 10
17.4631519725777
 20
16.9705608196444
 30
0.0
 11
0.963151972577783
 21
16.9705608196444
 31
0.0
  0
LINE
  8
1
  6
CONTINUOUS
 62
1
 10
0.963151972577783
 20
16.9705608196444
 30
0.0
 11
0.963151972577786
 21
10.1205608196444
 31
0.0
  0
LINE
  8
1
  6
CONTINUOUS
 62
1
 10
0.963151972577786
 20
10.1205608196444
 30
0.0
 11
17.4631519725777
 21
10.1205608196444
 31
0.0
  0
ARC
  8
1
  6
CONTINUOUS
 62
1
 10
0.745695325436386
 20
9.83303583298553
 30
0.0
 40
0.0491999999999999
 50
269.999999999999
 51
89.9999999999998
  0
ARC
  8
1
  6
CONTINUOUS
 62
1
 10
0.745695325436386
 20
9.83303583298553
 30
0.0
 40
0.0491999999999999
 50
89.9999999999998
 51
270
  0
ARC
  8
1
  6
CONTINUOUS
 62
1
 10
0.745659692810583
 20
17.2580521643912
 30
0.0
 40
0.049199999999999
 50
269.999999999999
 51
89.9999999999998
  0
ARC
  8
1
  6
CONTINUOUS
 62
1
 10
0.745659692810583
 20
17.2580521643912
 30
0.0
 40
0.049199999999999
 50
89.9999999999998
 51
270
  0
ARC
  8
1
  6
CONTINUOUS
 62
1
 10
17.6806756988805
 20
9.83307925794536
 30
0.0
 40
0.0492000000000008
 50
269.999999999999
 51
89.9999999999998
  0
ARC
  8
1
  6
CONTINUOUS
 62
1
 10
17.6806756988805
 20
9.83307925794536
 30
0.0
 40
0.0492000000000008
 50
89.9999999999998
 51
270
  0
ARC
  8
1
  6
CONTINUOUS
 62
1
 10
17.680675714583
 20
17.2581009616099
 30
0.0
 40
0.049199999999999
 50
269.999999999999
 51
89.9999999999998
  0
ARC
  8
1
  6
CONTINUOUS
 62
1
 10
17.680675714583
 20
17.2581009616099
 30
0.0
 40
0.049199999999999
 50
89.9999999999998
 51
270
  0
LINE
  8
1
  6
CONTINUOUS
 62
1
 10
0.420620619900986
 20
9.12051585177724
 30
0.0
 11
0.420620619900986
 21
9.44651585177724
 31
0.0
  0
LINE
  8
1
  6
CONTINUOUS
 62
1
 10
0.420620619900986
 20
9.44651585177724
 30
0.0
 11
0.0131206199009872
 21
9.44651585177724
 31
0.0
  0
LINE
  8
1
  6
CONTINUOUS
 62
1
 10
0.0131206199009872
 20
9.44651585177724
 30
0.0
 11
0.0131206199009872
 21
9.12051585177724
 31
0.0
  0
LINE
  8
1
  6
CONTINUOUS
 62
1
 10
0.0131206199009872
 20
9.12051585177724
 30
0.0
 11
0.420620619900986
 21
9.12051585177724
 31
0.0
  0
LINE
  8
1
  6
CONTINUOUS
 62
1
 10
18.4131205924369
 20
9.12051527102268
 30
0.0
 11
18.4131205924369
 21
9.44651527102268
 31
0.0
  0
LINE
  8
1
  6
CONTINUOUS
 62
1
 10
18.4131205924369
 20
9.44651527102268
 30
0.0
 11
18.0056205924369
 21
9.44651527102268
 31
0.0
  0
LINE
  8
1
  6
CONTINUOUS
 62
1
 10
18.0056205924369
 20
9.44651527102268
 30
0.0
 11
18.0056205924369
 21
9.12051527102268
 31
0.0
  0
LINE
  8
1
  6
CONTINUOUS
 62
1
 10
18.0056205924369
 20
9.12051527102268
 30
0.0
 11
18.4131205924369
 21
9.12051527102268
 31
0.0
  0
LINE
  8
1
  6
CONTINUOUS
 62
1
 10
1.71346752950568
 20
17.6465158517772
 30
0.0
 11
1.71346752950568
 21
17.9725158517772
 31
0.0
  0
LINE
  8
1
  6
CONTINUOUS
 62
1
 10
1.71346752950568
 20
17.9725158517772
 30
0.0
 11
0.0134675295056814
 21
17.9725158517772
 31
0.0
  0
LINE
  8
1
  6
CONTINUOUS
 62
1
 10
0.0134675295056814
 20
17.9725158517772
 30
0.0
 11
0.0134675295056814
 21
17.6465158517772
 31
0.0
  0
LINE
  8
1
  6
CONTINUOUS
 62
1
 10
0.0134675295056814
 20
17.6465158517772
 30
0.0
 11
1.71346752950568
 21
17.6465158517772
 31
0.0
  0
LINE
  8
1
  6
CONTINUOUS
 62
1
 10
18.4125689407055
 20
17.6465153772124
 30
0.0
 11
18.4125689407055
 21
17.9725153772124
 31
0.0
  0
LINE
  8
1
  6
CONTINUOUS
 62
1
 10
18.4125689407055
 20
17.9725153772124
 30
0.0
 11
16.7125689407055
 21
17.9725153772124
 31
0.0
  0
LINE
  8
1
  6
CONTINUOUS
 62
1
 10
16.7125689407055
 20
17.9725153772124
 30
0.0
 11
16.7125689407055
 21
17.6465153772124
 31
0.0
  0
LINE
  8
1
  6
CONTINUOUS
 62
1
 10
16.7125689407055
 20
17.6465153772124
 30
0.0
 11
18.4125689407055
 21
17.6465153772124
 31
0.0
  0
LINE
  8
1
  6
CONTINUOUS
 62
1
 10
0.0131206199009872
 20
9.12051585177724
 30
0.0
 11
0.0131206199009837
 21
17.9725158517772
 31
0.0
  0
LINE
  8
1
  6
CONTINUOUS
 62
1
 10
0.0131206199009837
 20
17.9725158517772
 30
0.0
 11
18.413120619901
 21
17.9725158517772
 31
0.0
  0
LINE
  8
1
  6
CONTINUOUS
 62
1
 10
18.413120619901
 20
17.9725158517772
 30
0.0
 11
18.413120619901
 21
9.12051585177724
 31
0.0
  0
LINE
  8
1
  6
CONTINUOUS
 62
1
 10
18.413120619901
 20
9.12051585177724
 30
0.0
 11
0.0131206199009872
 21
9.12051585177724
 31
0.0
  0
ENDSEC
  0
EOF
