  0
SECTION
  2
HEADER
  9
$ACADVER
  1
AC1003
  9
$EXTMIN
 10
0.00833281931365307
 20
17.9957527057638
  9
$EXTMAX
 10
18.5083328193137
 20
-0.00424729423621706
  9
$INSBASE
 10
9.25833281931368
 20
8.99575270576377
999
Created with OMAX Layout for Windows. (http://www.omax.com) 8/18/2012
  0
ENDSEC
  0
SECTION
  2
TABLES
  0
TABLE
  2
LAYER
 70
    10
  0
LAYER
  2
0
 70
     0
 62
     7
  6
CONTINUOUS
  0
LAYER
  2
1
 70
     0
 62
     7
  6
CONTINUOUS
  0
LAYER
  2
2
 70
     0
 62
     7
  6
CONTINUOUS
  0
LAYER
  2
3
 70
     0
 62
     7
  6
CONTINUOUS
  0
LAYER
  2
4
 70
     0
 62
     7
  6
CONTINUOUS
  0
LAYER
  2
5
 70
     0
 62
     7
  6
CONTINUOUS
  0
LAYER
  2
6
 70
     0
 62
     7
  6
CONTINUOUS
  0
LAYER
  2
7
 70
     0
 62
     7
  6
CONTINUOUS
  0
LAYER
  2
8
 70
     0
 62
     7
  6
CONTINUOUS
  0
LAYER
  2
9
 70
     0
 62
     7
  6
CONTINUOUS
  0
LAYER
  2
10
 70
     0
 62
     7
  6
CONTINUOUS
  0
LAYER
  2
11
 70
     0
 62
     7
  6
CONTINUOUS
  0
LAYER
  2
12
 70
     0
 62
     7
  6
CONTINUOUS
  0
LAYER
  2
13
 70
     0
 62
     7
  6
CONTINUOUS
  0
LAYER
  2
14
 70
     0
 62
     7
  6
CONTINUOUS
  0
LAYER
  2
15
 70
     0
 62
     7
  6
CONTINUOUS
  0
LAYER
  2
16
 70
     0
 62
     7
  6
CONTINUOUS
  0
LAYER
  2
17
 70
     0
 62
     7
  6
CONTINUOUS
  0
LAYER
  2
18
 70
     0
 62
     7
  6
CONTINUOUS
  0
LAYER
  2
19
 70
     0
 62
     7
  6
CONTINUOUS
  0
LAYER
  2
20
 70
     0
 62
     7
  6
CONTINUOUS
  0
LAYER
  2
21
 70
     0
 62
     7
  6
CONTINUOUS
  0
LAYER
  2
22
 70
     0
 62
     7
  6
CONTINUOUS
  0
LAYER
  2
23
 70
     0
 62
     7
  6
CONTINUOUS
  0
LAYER
  2
24
 70
     0
 62
     7
  6
CONTINUOUS
  0
LAYER
  2
25
 70
     0
 62
     7
  6
CONTINUOUS
  0
LAYER
  2
26
 70
     0
 62
     7
  6
CONTINUOUS
  0
LAYER
  2
27
 70
     0
 62
     7
  6
CONTINUOUS
  0
LAYER
  2
28
 70
     0
 62
     7
  6
CONTINUOUS
  0
LAYER
  2
29
 70
     0
 62
     7
  6
CONTINUOUS
  0
LAYER
  2
30
 70
     0
 62
     7
  6
CONTINUOUS
  0
LAYER
  2
31
 70
     0
 62
     7
  6
CONTINUOUS
  0
ENDTAB
  0
ENDSEC
  0
SECTION
  2
ENTITIES
  0
LINE
  8
1
  6
CONTINUOUS
 62
1
 10
0.00833281931365751
 20
-0.00424729423621706
 30
0.0
 11
0.00833281931365307
 21
17.9957527057638
 31
0.0
  0
LINE
  8
1
  6
CONTINUOUS
 62
1
 10
18.5083328193137
 20
17.9957527057638
 30
0.0
 11
18.5083328193137
 21
-0.00424729423621262
 31
0.0
  0
LINE
  8
1
  6
CONTINUOUS
 62
1
 10
18.5083328193137
 20
-0.00424729423621262
 30
0.0
 11
0.00833281931365751
 21
-0.00424729423621706
 31
0.0
  0
ARC
  8
1
  6
CONTINUOUS
 62
1
 10
4.00833281931366
 20
0.969486164718854
 30
0.0
 40
0.178
 50
269.999999999999
 51
89.9999999999998
  0
ARC
  8
1
  6
CONTINUOUS
 62
1
 10
4.00833281931366
 20
0.969486164718854
 30
0.0
 40
0.178
 50
89.9999999999998
 51
270
  0
ARC
  8
1
  6
CONTINUOUS
 62
1
 10
16.0083328193137
 20
0.940752705763776
 30
0.0
 40
0.178
 50
269.999999999999
 51
89.9999999999998
  0
ARC
  8
1
  6
CONTINUOUS
 62
1
 10
16.0083328193137
 20
0.940752705763776
 30
0.0
 40
0.178
 50
89.9999999999998
 51
270
  0
ARC
  8
1
  6
CONTINUOUS
 62
1
 10
4.00833281931366
 20
17.0794861647189
 30
0.0
 40
0.177999999999999
 50
269.999999999999
 51
89.9999999999998
  0
ARC
  8
1
  6
CONTINUOUS
 62
1
 10
4.00833281931365
 20
17.0794861647189
 30
0.0
 40
0.177999999999999
 50
89.9999999999998
 51
270
  0
ARC
  8
1
  6
CONTINUOUS
 62
1
 10
16.0083328193137
 20
17.0507527057638
 30
0.0
 40
0.178000000000001
 50
269.999999999999
 51
89.9999999999998
  0
ARC
  8
1
  6
CONTINUOUS
 62
1
 10
16.0083328193137
 20
17.0507527057638
 30
0.0
 40
0.178000000000001
 50
89.9999999999998
 51
270
  0
ARC
  8
1
  6
CONTINUOUS
 62
1
 10
13.5083328193138
 20
14.7457527057638
 30
0.0
 40
0.0999999999999979
 50
269.999999999999
 51
89.9999999999998
  0
ARC
  8
1
  6
CONTINUOUS
 62
1
 10
13.5083328193138
 20
14.7457527057638
 30
0.0
 40
0.0999999999999979
 50
89.9999999999998
 51
270
  0
ARC
  8
1
  6
CONTINUOUS
 62
1
 10
13.5083328193138
 20
11.4457527057638
 30
0.0
 40
0.100000000000001
 50
269.999999999999
 51
89.9999999999998
  0
ARC
  8
1
  6
CONTINUOUS
 62
1
 10
13.5083328193138
 20
11.4457527057638
 30
0.0
 40
0.100000000000001
 50
89.9999999999998
 51
270
  0
ARC
  8
1
  6
CONTINUOUS
 62
1
 10
11.0083328193138
 20
14.7457527057638
 30
0.0
 40
0.0999999999999996
 50
269.999999999999
 51
89.9999999999998
  0
ARC
  8
1
  6
CONTINUOUS
 62
1
 10
11.0083328193138
 20
14.7457527057638
 30
0.0
 40
0.0999999999999996
 50
89.9999999999998
 51
270
  0
ARC
  8
1
  6
CONTINUOUS
 62
1
 10
5.00833281931376
 20
3.24575270576378
 30
0.0
 40
0.0999999999999996
 50
269.999999999999
 51
89.9999999999998
  0
ARC
  8
1
  6
CONTINUOUS
 62
1
 10
5.00833281931376
 20
3.24575270576378
 30
0.0
 40
0.0999999999999996
 50
89.9999999999998
 51
270
  0
ARC
  8
1
  6
CONTINUOUS
 62
1
 10
5.00833281931376
 20
6.54575270576376
 30
0.0
 40
0.0999999999999996
 50
269.999999999999
 51
89.9999999999998
  0
ARC
  8
1
  6
CONTINUOUS
 62
1
 10
5.00833281931376
 20
6.54575270576376
 30
0.0
 40
0.0999999999999996
 50
89.9999999999998
 51
270
  0
ARC
  8
1
  6
CONTINUOUS
 62
1
 10
2.50833281931376
 20
3.24575270576378
 30
0.0
 40
0.0999999999999996
 50
269.999999999999
 51
89.9999999999998
  0
ARC
  8
1
  6
CONTINUOUS
 62
1
 10
2.50833281931376
 20
3.24575270576378
 30
0.0
 40
0.0999999999999996
 50
89.9999999999998
 51
270
  0
LINE
  8
1
  6
CONTINUOUS
 62
1
 10
0.00833281931365751
 20
-0.00424729423621706
 30
0.0
 11
0.00833281931365751
 21
0.495752705763783
 31
0.0
  0
LINE
  8
1
  6
CONTINUOUS
 62
1
 10
0.00833281931365751
 20
0.495752705763783
 30
0.0
 11
0.508332819313657
 21
0.495752705763783
 31
0.0
  0
LINE
  8
1
  6
CONTINUOUS
 62
1
 10
0.508332819313657
 20
0.495752705763783
 30
0.0
 11
0.508332819313657
 21
-0.00424729423621706
 31
0.0
  0
LINE
  8
1
  6
CONTINUOUS
 62
1
 10
0.508332819313657
 20
-0.00424729423621706
 30
0.0
 11
0.00833281931365751
 21
-0.00424729423621706
 31
0.0
  0
LINE
  8
1
  6
CONTINUOUS
 62
1
 10
0.00833281931365307
 20
17.9957527057638
 30
0.0
 11
0.00833281931365307
 21
17.4957527057638
 31
0.0
  0
LINE
  8
1
  6
CONTINUOUS
 62
1
 10
0.00833281931365307
 20
17.4957527057638
 30
0.0
 11
0.508332819313653
 21
17.4957527057638
 31
0.0
  0
LINE
  8
1
  6
CONTINUOUS
 62
1
 10
0.508332819313653
 20
17.4957527057638
 30
0.0
 11
0.508332819313653
 21
17.9957527057638
 31
0.0
  0
LINE
  8
1
  6
CONTINUOUS
 62
1
 10
0.508332819313653
 20
17.9957527057638
 30
0.0
 11
0.00833281931365307
 21
17.9957527057638
 31
0.0
  0
ENDSEC
  0
EOF
