  0
SECTION
  2
HEADER
  9
$ACADVER
  1
AC1003
  9
$EXTMIN
 10
0.0128838739410551
 20
17.9937717520587
  9
$EXTMAX
 10
18.5136490042958
 20
-0.00833676963246255
  9
$INSBASE
 10
9.26326643911841
 20
8.99271749121311
999
Created with OMAX Layout for Windows. (http://www.omax.com) 12/16/2012
  0
ENDSEC
  0
SECTION
  2
TABLES
  0
TABLE
  2
LAYER
 70
    10
  0
LAYER
  2
0
 70
     0
 62
     7
  6
CONTINUOUS
  0
LAYER
  2
1
 70
     0
 62
     7
  6
CONTINUOUS
  0
LAYER
  2
2
 70
     0
 62
     7
  6
CONTINUOUS
  0
LAYER
  2
3
 70
     0
 62
     7
  6
CONTINUOUS
  0
LAYER
  2
4
 70
     0
 62
     7
  6
CONTINUOUS
  0
LAYER
  2
5
 70
     0
 62
     7
  6
CONTINUOUS
  0
LAYER
  2
6
 70
     0
 62
     7
  6
CONTINUOUS
  0
LAYER
  2
7
 70
     0
 62
     7
  6
CONTINUOUS
  0
LAYER
  2
8
 70
     0
 62
     7
  6
CONTINUOUS
  0
LAYER
  2
9
 70
     0
 62
     7
  6
CONTINUOUS
  0
LAYER
  2
10
 70
     0
 62
     7
  6
CONTINUOUS
  0
LAYER
  2
11
 70
     0
 62
     7
  6
CONTINUOUS
  0
LAYER
  2
12
 70
     0
 62
     7
  6
CONTINUOUS
  0
LAYER
  2
13
 70
     0
 62
     7
  6
CONTINUOUS
  0
LAYER
  2
14
 70
     0
 62
     7
  6
CONTINUOUS
  0
LAYER
  2
15
 70
     0
 62
     7
  6
CONTINUOUS
  0
LAYER
  2
16
 70
     0
 62
     7
  6
CONTINUOUS
  0
LAYER
  2
17
 70
     0
 62
     7
  6
CONTINUOUS
  0
LAYER
  2
18
 70
     0
 62
     7
  6
CONTINUOUS
  0
LAYER
  2
19
 70
     0
 62
     7
  6
CONTINUOUS
  0
LAYER
  2
20
 70
     0
 62
     7
  6
CONTINUOUS
  0
LAYER
  2
21
 70
     0
 62
     7
  6
CONTINUOUS
  0
LAYER
  2
22
 70
     0
 62
     7
  6
CONTINUOUS
  0
LAYER
  2
23
 70
     0
 62
     7
  6
CONTINUOUS
  0
LAYER
  2
24
 70
     0
 62
     7
  6
CONTINUOUS
  0
LAYER
  2
25
 70
     0
 62
     7
  6
CONTINUOUS
  0
LAYER
  2
26
 70
     0
 62
     7
  6
CONTINUOUS
  0
LAYER
  2
27
 70
     0
 62
     7
  6
CONTINUOUS
  0
LAYER
  2
28
 70
     0
 62
     7
  6
CONTINUOUS
  0
LAYER
  2
29
 70
     0
 62
     7
  6
CONTINUOUS
  0
LAYER
  2
30
 70
     0
 62
     7
  6
CONTINUOUS
  0
LAYER
  2
31
 70
     0
 62
     7
  6
CONTINUOUS
  0
ENDTAB
  0
ENDSEC
  0
SECTION
  2
ENTITIES
  0
LINE
  8
1
  6
CONTINUOUS
 62
1
 10
0.013648997260356
 20
-0.00826021142348488
 30
0.0
 11
0.0136489972603524
 21
17.9917397885765
 31
0.0
  0
LINE
  8
1
  6
CONTINUOUS
 62
1
 10
0.0136489972603524
 20
17.9917397885765
 30
0.0
 11
18.5136489972604
 21
17.9917397885765
 31
0.0
  0
LINE
  8
1
  6
CONTINUOUS
 62
1
 10
18.5136489972604
 20
17.9917397885765
 30
0.0
 11
18.5136489972604
 21
-0.00826021142348132
 31
0.0
  0
LINE
  8
1
  6
CONTINUOUS
 62
1
 10
18.5136489972604
 20
-0.00826021142348132
 30
0.0
 11
0.013648997260356
 21
-0.00826021142348488
 31
0.0
  0
ARC
  8
1
  6
CONTINUOUS
 62
1
 10
4.01364899726036
 20
1.21277324753158
 30
0.0
 40
0.177999999999999
 50
269.999999999999
 51
89.9999999999998
  0
ARC
  8
1
  6
CONTINUOUS
 62
1
 10
4.01364899726036
 20
1.21277324753158
 30
0.0
 40
0.177999999999999
 50
89.9999999999998
 51
270
  0
ARC
  8
1
  6
CONTINUOUS
 62
1
 10
16.0136489972604
 20
1.21273978857652
 30
0.0
 40
0.178000000000001
 50
269.999999999999
 51
89.9999999999998
  0
ARC
  8
1
  6
CONTINUOUS
 62
1
 10
16.0136489972604
 20
1.21273978857652
 30
0.0
 40
0.178000000000001
 50
89.9999999999998
 51
270
  0
ARC
  8
1
  6
CONTINUOUS
 62
1
 10
4.01364899726035
 20
16.7707732475316
 30
0.0
 40
0.178000000000001
 50
269.999999999999
 51
89.9999999999998
  0
ARC
  8
1
  6
CONTINUOUS
 62
1
 10
4.01364899726035
 20
16.7707732475316
 30
0.0
 40
0.178000000000001
 50
89.9999999999998
 51
270
  0
ARC
  8
1
  6
CONTINUOUS
 62
1
 10
16.0136489972604
 20
16.7707397885764
 30
0.0
 40
0.178000000000051
 50
269.999999999999
 51
89.9999999999998
  0
ARC
  8
1
  6
CONTINUOUS
 62
1
 10
16.0136489972604
 20
16.7707397885764
 30
0.0
 40
0.178000000000051
 50
89.9999999999998
 51
270
  0
ARC
  8
6
  6
CONTINUOUS
 62
6
 10
5.49284899726036
 20
4.96973978857644
 30
0.0
 40
0.31548316101305
 50
269.999999999999
 51
89.9999999999998
  0
ARC
  8
6
  6
CONTINUOUS
 62
6
 10
5.49284899726035
 20
4.96973978857644
 30
0.0
 40
0.31548316101305
 50
89.9999999999998
 51
270
  0
ARC
  8
6
  6
CONTINUOUS
 62
6
 10
13.5493489972605
 20
12.9837397885765
 30
0.0
 40
0.315483161013098
 50
269.999999999999
 51
89.9999999999998
  0
ARC
  8
6
  6
CONTINUOUS
 62
6
 10
13.5493489972605
 20
12.9837397885765
 30
0.0
 40
0.315483161013098
 50
89.9999999999998
 51
270
  0
ARC
  8
1
  6
CONTINUOUS
 62
1
 10
14.3618489972605
 20
14.5587397885765
 30
0.0
 40
0.0999999999999996
 50
269.999999999999
 51
89.9999999999998
  0
ARC
  8
1
  6
CONTINUOUS
 62
1
 10
14.3618489972605
 20
14.5587397885765
 30
0.0
 40
0.0999999999999996
 50
89.9999999999998
 51
270
  0
ARC
  8
1
  6
CONTINUOUS
 62
1
 10
14.3618489972605
 20
11.0337897885765
 30
0.0
 40
0.0999999999999996
 50
269.999999999999
 51
89.9999999999998
  0
ARC
  8
1
  6
CONTINUOUS
 62
1
 10
14.3618489972605
 20
11.0337897885765
 30
0.0
 40
0.0999999999999996
 50
89.9999999999998
 51
270
  0
ARC
  8
1
  6
CONTINUOUS
 62
1
 10
11.6948489972605
 20
14.5587397885765
 30
0.0
 40
0.0999999999999996
 50
269.999999999999
 51
89.9999999999998
  0
ARC
  8
1
  6
CONTINUOUS
 62
1
 10
11.6948489972605
 20
14.5587397885765
 30
0.0
 40
0.0999999999999996
 50
89.9999999999998
 51
270
  0
ARC
  8
1
  6
CONTINUOUS
 62
1
 10
5.99284899726036
 20
3.42473978857651
 30
0.0
 40
0.0999999999999996
 50
269.999999999999
 51
89.9999999999998
  0
ARC
  8
1
  6
CONTINUOUS
 62
1
 10
5.99284899726035
 20
3.42473978857651
 30
0.0
 40
0.0999999999999996
 50
89.9999999999998
 51
270
  0
ARC
  8
1
  6
CONTINUOUS
 62
1
 10
5.99280732631426
 20
6.94974951008539
 30
0.0
 40
0.0999999999999996
 50
269.999999999999
 51
89.9999999999998
  0
ARC
  8
1
  6
CONTINUOUS
 62
1
 10
5.99280732631425
 20
6.94974951008539
 30
0.0
 40
0.0999999999999996
 50
89.9999999999998
 51
270
  0
ARC
  8
1
  6
CONTINUOUS
 62
1
 10
3.32589740463556
 20
3.42471479541617
 30
0.0
 40
0.100000000000001
 50
269.999999999999
 51
89.9999999999998
  0
ARC
  8
1
  6
CONTINUOUS
 62
1
 10
3.32589740463556
 20
3.42471479541617
 30
0.0
 40
0.100000000000001
 50
89.9999999999998
 51
270
  0
LINE
  8
1
  6
CONTINUOUS
 62
1
 10
0.513649004658456
 20
-0.00826021142312605
 30
0.0
 11
0.512883873941055
 21
0.317739227108232
 31
0.0
  0
LINE
  8
1
  6
CONTINUOUS
 62
1
 10
0.512883873941055
 20
0.317739227108232
 30
0.0
 11
0.0128838739410551
 21
0.317739227108232
 31
0.0
  0
LINE
  8
1
  6
CONTINUOUS
 62
1
 10
0.0128838739410551
 20
0.317739227108232
 30
0.0
 11
0.0136490046584559
 21
-0.00826021142312605
 31
0.0
  0
LINE
  8
1
  6
CONTINUOUS
 62
1
 10
0.0136490046584559
 20
-0.00826021142312605
 30
0.0
 11
0.513649004658456
 21
-0.00826021142312605
 31
0.0
  0
LINE
  8
1
  6
CONTINUOUS
 62
1
 10
0.0136489972603524
 20
17.9917397885765
 30
0.0
 11
0.013648997260356
 21
8.99173978857649
 31
0.0
  0
LINE
  8
1
  6
CONTINUOUS
 62
1
 10
0.51374459701295
 20
17.6673028689818
 30
0.0
 11
0.513772913019151
 21
17.993302867752
 31
0.0
  0
LINE
  8
1
  6
CONTINUOUS
 62
1
 10
0.513772913019151
 20
17.993302867752
 30
0.0
 11
0.013772953745951
 21
17.9937717520587
 31
0.0
  0
LINE
  8
1
  6
CONTINUOUS
 62
1
 10
0.013772953745951
 20
17.9937717520587
 30
0.0
 11
0.0143038468580503
 21
17.6677721843404
 31
0.0
  0
LINE
  8
1
  6
CONTINUOUS
 62
1
 10
0.0143038468580503
 20
17.6677721843404
 30
0.0
 11
0.51374459701295
 21
17.6673028689818
 31
0.0
  0
LINE
  8
1
  6
CONTINUOUS
 62
1
 10
18.5136489972604
 20
-0.00826021142348132
 30
0.0
 11
18.513176638189
 21
0.304238003566299
 31
0.0
  0
LINE
  8
1
  6
CONTINUOUS
 62
1
 10
18.513176638189
 20
0.304238003566299
 30
0.0
 11
17.9731752739471
 21
0.304161445357307
 31
0.0
  0
LINE
  8
1
  6
CONTINUOUS
 62
1
 10
17.9731752739471
 20
0.304161445357307
 30
0.0
 11
17.9736476330185
 21
-0.00833676963246255
 31
0.0
  0
LINE
  8
1
  6
CONTINUOUS
 62
1
 10
17.9736476330185
 20
-0.00833676963246255
 30
0.0
 11
18.5136489972604
 21
-0.00826021142348132
 31
0.0
  0
LINE
  8
1
  6
CONTINUOUS
 62
1
 10
18.5135617361784
 20
17.6789435114768
 30
0.0
 11
18.5136490042958
 21
17.991443450551
 31
0.0
  0
LINE
  8
1
  6
CONTINUOUS
 62
1
 10
18.5136490042958
 20
17.991443450551
 30
0.0
 11
17.9736529232491
 21
17.9904724070949
 31
0.0
  0
LINE
  8
1
  6
CONTINUOUS
 62
1
 10
17.9736529232491
 20
17.9904724070949
 30
0.0
 11
17.9735656551317
 21
17.6779724680207
 31
0.0
  0
LINE
  8
1
  6
CONTINUOUS
 62
1
 10
17.9735656551317
 20
17.6779724680207
 30
0.0
 11
18.5135617361784
 21
17.6789435114768
 31
0.0
  0
ARC
  8
1
  6
CONTINUOUS
 62
1
 10
16.0936748985413
 20
3.80430287454343
 30
0.0
 40
0.127000000000001
 50
269.999999999999
 51
89.9999999999998
  0
ARC
  8
1
  6
CONTINUOUS
 62
1
 10
16.0936748985413
 20
3.80430287454343
 30
0.0
 40
0.127000000000001
 50
89.9999999999998
 51
270
  0
ARC
  8
1
  6
CONTINUOUS
 62
1
 10
16.0936838957698
 20
7.7683002942043
 30
0.0
 40
0.127000000000001
 50
269.999999999999
 51
89.9999999999998
  0
ARC
  8
1
  6
CONTINUOUS
 62
1
 10
16.0936838957698
 20
7.7683002942043
 30
0.0
 40
0.127000000000001
 50
89.9999999999998
 51
270
  0
ARC
  8
1
  6
CONTINUOUS
 62
1
 10
12.1296527202868
 20
3.79173706599204
 30
0.0
 40
0.127000000000004
 50
269.999999999999
 51
89.9999999999998
  0
ARC
  8
1
  6
CONTINUOUS
 62
1
 10
12.1296527202868
 20
3.79173706599204
 30
0.0
 40
0.127000000000004
 50
89.9999999999998
 51
270
  0
ARC
  8
1
  6
CONTINUOUS
 62
1
 10
12.1296617175153
 20
7.7557344856529
 30
0.0
 40
0.127000000000001
 50
269.999999999999
 51
89.9999999999998
  0
ARC
  8
1
  6
CONTINUOUS
 62
1
 10
12.1296617175153
 20
7.7557344856529
 30
0.0
 40
0.127000000000001
 50
89.9999999999998
 51
270
  0
LINE
  8
6
  6
CONTINUOUS
 62
6
 10
7.94425950584931
 20
17.0099213765682
 30
0.0
 11
7.94425950584931
 21
16.5899213765682
 31
0.0
  0
LINE
  8
6
  6
CONTINUOUS
 62
6
 10
7.94425950584931
 20
16.5899213765682
 30
0.0
 11
8.1905595058493
 21
16.5899213765682
 31
0.0
  0
LINE
  8
6
  6
CONTINUOUS
 62
6
 10
8.22055950584931
 20
17.0099213765682
 30
0.0
 11
8.2805594777348
 21
17.0099213765682
 31
0.0
  0
LINE
  8
6
  6
CONTINUOUS
 62
6
 10
8.2805594777348
 20
17.0099213765682
 30
0.0
 11
8.34055947773481
 21
17.0099213765682
 31
0.0
  0
LINE
  8
6
  6
CONTINUOUS
 62
6
 10
8.2805594777348
 20
17.0099213765682
 30
0.0
 11
8.2805594777348
 21
16.5899213765682
 31
0.0
  0
LINE
  8
6
  6
CONTINUOUS
 62
6
 10
8.22055950584931
 20
16.5899213765682
 30
0.0
 11
8.2805594777348
 21
16.5899213765682
 31
0.0
  0
LINE
  8
6
  6
CONTINUOUS
 62
6
 10
8.2805594777348
 20
16.5899213765682
 30
0.0
 11
8.34055947773481
 21
16.5899213765682
 31
0.0
  0
LINE
  8
6
  6
CONTINUOUS
 62
6
 10
8.3705594777348
 20
17.0099213765682
 30
0.0
 11
8.3705594777348
 21
16.5899213765682
 31
0.0
  0
LINE
  8
6
  6
CONTINUOUS
 62
6
 10
8.39305947773481
 20
16.5899213765682
 30
0.0
 11
8.48770935773481
 21
16.5899213765682
 31
0.0
  0
ARC
  8
6
  6
CONTINUOUS
 62
6
 10
8.47322089537708
 20
16.7436949920827
 30
0.0
 40
0.154454654736915
 50
275.382485884767
 51
335.613185884767
  0
ARC
  8
6
  6
CONTINUOUS
 62
6
 10
8.25949013823667
 20
16.7999215355481
 30
0.0
 40
0.374169422895456
 50
341.294099999999
 51
18.7059000000007
  0
ARC
  8
6
  6
CONTINUOUS
 62
6
 10
8.47322114138467
 20
16.8561479016073
 30
0.0
 40
0.154454514312292
 50
24.3869099871627
 51
84.6174899871627
  0
LINE
  8
6
  6
CONTINUOUS
 62
6
 10
8.48770965532621
 20
17.0099213712151
 30
0.0
 11
8.39305947773481
 21
17.0099213765682
 31
0.0
  0
LINE
  8
6
  6
CONTINUOUS
 62
6
 10
8.99365959773481
 20
16.7999213765682
 30
0.0
 11
9.23365962773481
 21
16.7999213765682
 31
0.0
  0
LINE
  8
6
  6
CONTINUOUS
 62
6
 10
9.59365962773481
 20
17.0099213765682
 30
0.0
 11
9.72790962773481
 21
17.0099213765682
 31
0.0
  0
LINE
  8
6
  6
CONTINUOUS
 62
6
 10
9.72790962773481
 20
17.0099213765682
 30
0.0
 11
9.72790965773481
 21
16.5899213765682
 31
0.0
  0
LINE
  8
6
  6
CONTINUOUS
 62
6
 10
9.72790965773482
 20
17.0099213765682
 30
0.0
 11
9.86215962773481
 21
17.0099213765682
 31
0.0
  0
ARC
  8
6
  6
CONTINUOUS
 62
6
 10
10.0320481877348
 20
16.8850175765682
 30
0.0
 40
0.124903800000001
 50
93.4424652776284
 51
164.097999999999
  0
ARC
  8
6
  6
CONTINUOUS
 62
6
 10
10.2663291366114
 20
16.7992402000194
 30
0.0
 40
0.374169560784254
 50
161.2941
 51
198.7059
  0
ARC
  8
6
  6
CONTINUOUS
 62
6
 10
10.032048058209
 20
16.7134628907606
 30
0.0
 40
0.124903626714107
 50
195.902054741785
 51
266.557589464157
  0
ARC
  8
6
  6
CONTINUOUS
 62
6
 10
10.0320481877348
 20
16.7134630565682
 30
0.0
 40
0.1249038
 50
273.442465277628
 51
344.097999999998
  0
ARC
  8
6
  6
CONTINUOUS
 62
6
 10
9.79776726177281
 20
16.7992404253583
 30
0.0
 40
0.374169536591774
 50
341.294099999999
 51
18.7059000000007
  0
ARC
  8
6
  6
CONTINUOUS
 62
6
 10
10.0320483663138
 20
16.885017649963
 30
0.0
 40
0.124903716014757
 50
15.9020797482304
 51
86.5576144706034
  0
LINE
  8
6
  6
CONTINUOUS
 62
6
 10
10.2019368677348
 20
17.0099213765682
 30
0.0
 11
10.2019368677348
 21
16.5899213765682
 31
0.0
  0
LINE
  8
6
  6
CONTINUOUS
 62
6
 10
10.2244368677348
 20
17.0099213765682
 30
0.0
 11
10.3543368677348
 21
17.0099213765682
 31
0.0
  0
ARC
  8
6
  6
CONTINUOUS
 62
6
 10
10.3543368677348
 20
16.9049213765682
 30
0.0
 40
0.105
 50
359.995599999999
 51
90.000000000001
  0
ARC
  8
6
  6
CONTINUOUS
 62
6
 10
10.3543368677348
 20
16.9049213765682
 30
0.0
 40
0.105000000000005
 50
269.991199999995
 51
359.995599999997
  0
LINE
  8
6
  6
CONTINUOUS
 62
6
 10
10.3543207408926
 20
16.7999213778067
 30
0.0
 11
10.2244368677348
 21
16.7999213765682
 31
0.0
  0
LINE
  8
6
  6
CONTINUOUS
 62
6
 10
10.8193368677348
 20
17.0099213765682
 30
0.0
 11
10.9723368677348
 21
16.5899213765682
 31
0.0
  0
LINE
  8
6
  6
CONTINUOUS
 62
6
 10
10.9723368677348
 20
16.5899213765682
 30
0.0
 11
11.1253368677348
 21
17.0099213765682
 31
0.0
  0
LINE
  8
6
  6
CONTINUOUS
 62
6
 10
11.1553368677348
 20
17.0099213765682
 30
0.0
 11
11.2153368396203
 21
17.0099213765682
 31
0.0
  0
LINE
  8
6
  6
CONTINUOUS
 62
6
 10
11.2153368396203
 20
17.0099213765682
 30
0.0
 11
11.2753368396203
 21
17.0099213765682
 31
0.0
  0
LINE
  8
6
  6
CONTINUOUS
 62
6
 10
11.2153368396203
 20
17.0099213765682
 30
0.0
 11
11.2153368396203
 21
16.5899213765682
 31
0.0
  0
LINE
  8
6
  6
CONTINUOUS
 62
6
 10
11.1553368677348
 20
16.5899213765682
 30
0.0
 11
11.2153368396203
 21
16.5899213765682
 31
0.0
  0
LINE
  8
6
  6
CONTINUOUS
 62
6
 10
11.2153368396203
 20
16.5899213765682
 30
0.0
 11
11.2753368396203
 21
16.5899213765682
 31
0.0
  0
LINE
  8
6
  6
CONTINUOUS
 62
6
 10
11.3053368396203
 20
17.0099213765682
 30
0.0
 11
11.3056368396203
 21
16.5899213765682
 31
0.0
  0
LINE
  8
6
  6
CONTINUOUS
 62
6
 10
11.3056368396203
 20
16.5899213765682
 30
0.0
 11
11.5519368396203
 21
16.5899213765682
 31
0.0
  0
LINE
  8
6
  6
CONTINUOUS
 62
6
 10
11.3056368396203
 20
16.7999213765682
 30
0.0
 11
11.4979368396203
 21
16.7999213765682
 31
0.0
  0
LINE
  8
6
  6
CONTINUOUS
 62
6
 10
11.3128368415336
 20
17.0099213765682
 30
0.0
 11
11.312836837707
 21
17.0099267337097
 31
0.0
  0
LINE
  8
6
  6
CONTINUOUS
 62
6
 10
11.312836837707
 20
17.0099267337097
 30
0.0
 11
11.5519368396203
 21
17.0099213765682
 31
0.0
  0
LINE
  8
6
  6
CONTINUOUS
 62
6
 10
11.5819368396203
 20
17.0099213765682
 30
0.0
 11
11.6906868396203
 21
16.5899213765682
 31
0.0
  0
LINE
  8
6
  6
CONTINUOUS
 62
6
 10
11.6906868396203
 20
16.5899213765682
 30
0.0
 11
11.7994368396203
 21
16.9400213765682
 31
0.0
  0
LINE
  8
6
  6
CONTINUOUS
 62
6
 10
11.7994368396203
 20
16.9400213765682
 30
0.0
 11
11.9081868396203
 21
16.5899213765682
 31
0.0
  0
LINE
  8
6
  6
CONTINUOUS
 62
6
 10
11.9081868396203
 20
16.5899213765682
 30
0.0
 11
12.0169368396203
 21
17.0099213765682
 31
0.0
  0
ARC
  8
6
  6
CONTINUOUS
 62
6
 10
14.1146517448035
 20
4.27600435018101
 30
0.0
 40
0.154454580000002
 50
294.386799999996
 51
54.3199999999968
  0
ARC
  8
6
  6
CONTINUOUS
 62
6
 10
14.0584252880537
 20
4.48973523800996
 30
0.0
 40
0.374169448266847
 50
251.294074073848
 51
288.705874073848
  0
ARC
  8
6
  6
CONTINUOUS
 62
6
 10
14.0021986382617
 20
4.27600434877992
 30
0.0
 40
0.154454532537327
 50
125.679970009968
 51
245.613140009968
  0
ARC
  8
6
  6
CONTINUOUS
 62
6
 10
13.9726480048035
 20
4.57135439132794
 30
0.0
 40
0.124903800000001
 50
183.442465277628
 51
254.097999999999
  0
ARC
  8
6
  6
CONTINUOUS
 62
6
 10
14.0584252782413
 20
4.80563537511749
 30
0.0
 40
0.374169560784254
 50
251.29411666971
 51
288.70591666971
  0
ARC
  8
6
  6
CONTINUOUS
 62
6
 10
14.1442026906111
 20
4.57135426180213
 30
0.0
 40
0.124903626714105
 50
285.902054741786
 51
356.557589464158
  0
ARC
  8
6
  6
CONTINUOUS
 62
6
 10
14.1442025248035
 20
4.57135439132794
 30
0.0
 40
0.124903799999998
 50
3.4424652776274
 51
74.0979999999969
  0
ARC
  8
6
  6
CONTINUOUS
 62
6
 10
14.0584250819222
 20
4.33707349045294
 30
0.0
 40
0.374169536591779
 50
71.2940880218471
 51
108.705888021849
  0
ARC
  8
6
  6
CONTINUOUS
 62
6
 10
13.9726479314087
 20
4.57135456990689
 30
0.0
 40
0.124903716014755
 50
105.902079748231
 51
176.557614470605
  0
LINE
  8
6
  6
CONTINUOUS
 62
6
 10
14.2677442048035
 20
4.74274307132794
 30
0.0
 11
13.8477442048035
 21
4.74274307132794
 31
0.0
  0
LINE
  8
6
  6
CONTINUOUS
 62
6
 10
13.8477442048035
 20
4.74274307132794
 30
0.0
 11
14.1447442048035
 21
4.91974307132793
 31
0.0
  0
LINE
  8
6
  6
CONTINUOUS
 62
6
 10
14.1447442048035
 20
4.91974307132793
 30
0.0
 11
13.8477442048035
 21
5.09674307132792
 31
0.0
  0
LINE
  8
6
  6
CONTINUOUS
 62
6
 10
13.8477442048035
 20
5.09674307132792
 30
0.0
 11
14.2677442048035
 21
5.09674307132792
 31
0.0
  0
LINE
  8
6
  6
CONTINUOUS
 62
6
 10
13.8477442048035
 20
5.12674307132792
 30
0.0
 11
14.2677442048035
 21
5.12674307132792
 31
0.0
  0
LINE
  8
6
  6
CONTINUOUS
 62
6
 10
13.8477442048035
 20
5.14924307132793
 30
0.0
 11
13.8477442048035
 21
5.27914307132792
 31
0.0
  0
ARC
  8
6
  6
CONTINUOUS
 62
6
 10
13.9527442048035
 20
5.27914307132793
 30
0.0
 40
0.105
 50
89.9955999999987
 51
180.000000000001
  0
ARC
  8
6
  6
CONTINUOUS
 62
6
 10
13.9527442048035
 20
5.27914307132792
 30
0.0
 40
0.105000000000005
 50
359.991199999995
 51
89.9955999999976
  0
LINE
  8
6
  6
CONTINUOUS
 62
6
 10
14.0577442035651
 20
5.27912694448569
 30
0.0
 11
14.0577442048035
 21
5.14924307132793
 31
0.0
  0
LINE
  8
6
  6
CONTINUOUS
 62
6
 10
14.2677442048035
 20
5.74564307132792
 30
0.0
 11
13.8477442048035
 21
5.74564307132792
 31
0.0
  0
LINE
  8
6
  6
CONTINUOUS
 62
6
 10
13.8477442048035
 20
5.74564307132792
 30
0.0
 11
14.1447442048035
 21
5.92264307132791
 31
0.0
  0
LINE
  8
6
  6
CONTINUOUS
 62
6
 10
14.1447442048035
 20
5.92264307132791
 30
0.0
 11
13.8477442048035
 21
6.09964307132791
 31
0.0
  0
LINE
  8
6
  6
CONTINUOUS
 62
6
 10
13.8477442048035
 20
6.09964307132791
 30
0.0
 11
14.2677442048035
 21
6.09964307132791
 31
0.0
  0
ARC
  8
6
  6
CONTINUOUS
 62
6
 10
13.9726480048035
 20
6.26953163132791
 30
0.0
 40
0.124903800000001
 50
183.442465277628
 51
254.097999999999
  0
ARC
  8
6
  6
CONTINUOUS
 62
6
 10
14.0584252782413
 20
6.50381261511746
 30
0.0
 40
0.374169560784254
 50
251.29411666971
 51
288.70591666971
  0
ARC
  8
6
  6
CONTINUOUS
 62
6
 10
14.1442026906111
 20
6.2695315018021
 30
0.0
 40
0.124903626714105
 50
285.902054741786
 51
356.557589464158
  0
ARC
  8
6
  6
CONTINUOUS
 62
6
 10
14.1442025248035
 20
6.26953163132791
 30
0.0
 40
0.124903799999998
 50
3.4424652776274
 51
74.0979999999969
  0
ARC
  8
6
  6
CONTINUOUS
 62
6
 10
14.0584250819222
 20
6.03525073045291
 30
0.0
 40
0.374169536591779
 50
71.2940880218467
 51
108.705888021848
  0
ARC
  8
6
  6
CONTINUOUS
 62
6
 10
13.9726479314087
 20
6.26953180990686
 30
0.0
 40
0.124903716014756
 50
105.902079748232
 51
176.557614470605
  0
LINE
  8
6
  6
CONTINUOUS
 62
6
 10
13.8477442048035
 20
6.43942031132791
 30
0.0
 11
14.1477442348035
 21
6.43942031132791
 31
0.0
  0
ARC
  8
6
  6
CONTINUOUS
 62
6
 10
14.1474442630284
 20
6.56243491777345
 30
0.0
 40
0.12301497218639
 50
270.139715787558
 51
0.69871578755784
  0
ARC
  8
6
  6
CONTINUOUS
 62
6
 10
14.1474442348035
 20
6.56243495132792
 30
0.0
 40
0.123014999999997
 50
0.698699999993977
 51
91.257699999999
  0
LINE
  8
6
  6
CONTINUOUS
 62
6
 10
14.1447441486503
 20
6.68542031533423
 30
0.0
 11
13.8477442048035
 21
6.68542031132791
 31
0.0
  0
LINE
  8
6
  6
CONTINUOUS
 62
6
 10
14.2677442048035
 20
6.71692031132791
 30
0.0
 11
13.8477442048035
 21
6.71692031132791
 31
0.0
  0
LINE
  8
6
  6
CONTINUOUS
 62
6
 10
13.8477442048035
 20
6.71692031132791
 30
0.0
 11
14.2677442048035
 21
6.97432031132791
 31
0.0
  0
LINE
  8
6
  6
CONTINUOUS
 62
6
 10
14.2677442048035
 20
6.97432031132791
 30
0.0
 11
13.8477442048035
 21
6.97432031132791
 31
0.0
  0
LINE
  8
6
  6
CONTINUOUS
 62
6
 10
13.8477442048035
 20
7.00432031132791
 30
0.0
 11
13.8477442048035
 21
7.13857031132791
 31
0.0
  0
LINE
  8
6
  6
CONTINUOUS
 62
6
 10
13.8477442048035
 20
7.13857031132791
 30
0.0
 11
14.2677442048035
 21
7.13857034132791
 31
0.0
  0
LINE
  8
6
  6
CONTINUOUS
 62
6
 10
13.8477442048035
 20
7.13857034132792
 30
0.0
 11
13.8477442048035
 21
7.27282031132791
 31
0.0
  0
LINE
  8
6
  6
CONTINUOUS
 62
6
 10
1.05267883029131
 20
6.85296122725551
 30
0.0
 11
1.05267883029131
 21
6.91296119914101
 31
0.0
  0
LINE
  8
6
  6
CONTINUOUS
 62
6
 10
1.05267883029131
 20
6.91296119914101
 30
0.0
 11
1.05267883029131
 21
6.97296119914101
 31
0.0
  0
LINE
  8
6
  6
CONTINUOUS
 62
6
 10
1.05267883029131
 20
6.91296119914101
 30
0.0
 11
1.47267883029131
 21
6.91296119914101
 31
0.0
  0
LINE
  8
6
  6
CONTINUOUS
 62
6
 10
1.47267883029131
 20
6.85296122725551
 30
0.0
 11
1.47267883029131
 21
6.91296119914101
 31
0.0
  0
LINE
  8
6
  6
CONTINUOUS
 62
6
 10
1.47267883029131
 20
6.91296119914101
 30
0.0
 11
1.47267883029131
 21
6.97296119914101
 31
0.0
  0
LINE
  8
6
  6
CONTINUOUS
 62
6
 10
1.47267883029131
 20
7.00446119914101
 30
0.0
 11
1.05267883029131
 21
7.00446119914101
 31
0.0
  0
LINE
  8
6
  6
CONTINUOUS
 62
6
 10
1.05267883029131
 20
7.00446119914101
 30
0.0
 11
1.47267883029131
 21
7.26186119914101
 31
0.0
  0
LINE
  8
6
  6
CONTINUOUS
 62
6
 10
1.47267883029131
 20
7.26186119914101
 30
0.0
 11
1.05267883029131
 21
7.26186119914101
 31
0.0
  0
ARC
  8
6
  6
CONTINUOUS
 62
6
 10
1.17416728029131
 20
7.44061617708845
 30
0.0
 40
0.121071389999996
 50
120.52202
 51
179.29848
  0
LINE
  8
6
  6
CONTINUOUS
 62
6
 10
1.05310496517268
 20
7.44209851802444
 30
0.0
 11
1.05268711029131
 21
7.40797218708844
 31
0.0
  0
ARC
  8
6
  6
CONTINUOUS
 62
6
 10
1.16320472924386
 20
7.40661897085995
 30
0.0
 40
0.110525903267523
 50
179.298485571548
 51
267.350705571549
  0
ARC
  8
6
  6
CONTINUOUS
 62
6
 10
1.14994219839387
 20
7.38611401943753
 30
0.0
 40
0.0902718146223219
 50
275.182274255109
 51
329.344774255109
  0
LINE
  8
6
  6
CONTINUOUS
 62
6
 10
1.22759861511337
 20
7.34008705497654
 30
0.0
 11
1.29859312029131
 21
7.50538530708844
 31
0.0
  0
ARC
  8
6
  6
CONTINUOUS
 62
6
 10
1.37624954661368
 20
7.45935842508718
 30
0.0
 40
0.0902717808394166
 50
95.1822393860967
 51
149.344822386097
  0
ARC
  8
6
  6
CONTINUOUS
 62
6
 10
1.36298702052242
 20
7.43885348054304
 30
0.0
 40
0.11052587019469
 50
359.441077271098
 51
87.3506772711003
  0
LINE
  8
6
  6
CONTINUOUS
 62
6
 10
1.47350763189137
 20
7.43777531315015
 30
0.0
 11
1.47309010029131
 21
7.39497519708844
 31
0.0
  0
ARC
  8
6
  6
CONTINUOUS
 62
6
 10
1.35202451485378
 20
7.39615621205029
 30
0.0
 40
0.121071345799373
 50
300.521987851209
 51
359.441087851209
  0
LINE
  8
6
  6
CONTINUOUS
 62
6
 10
1.05267883029131
 20
7.57926121507228
 30
0.0
 11
1.47267883029128
 21
7.57956121507228
 31
0.0
  0
LINE
  8
6
  6
CONTINUOUS
 62
6
 10
1.47267883029128
 20
7.57956121507228
 30
0.0
 11
1.47267883029128
 21
7.82586121507228
 31
0.0
  0
LINE
  8
6
  6
CONTINUOUS
 62
6
 10
1.26267883029128
 20
7.57956121507228
 30
0.0
 11
1.26267883029128
 21
7.77186121507228
 31
0.0
  0
LINE
  8
6
  6
CONTINUOUS
 62
6
 10
1.05267883029131
 20
7.58676121698555
 30
0.0
 11
1.05267347314982
 21
7.58676121315902
 31
0.0
  0
LINE
  8
6
  6
CONTINUOUS
 62
6
 10
1.05267347314982
 20
7.58676121315902
 30
0.0
 11
1.05267883029131
 21
7.82586121507228
 31
0.0
  0
LINE
  8
6
  6
CONTINUOUS
 62
6
 10
1.05267883029131
 20
7.85586121507228
 30
0.0
 11
1.47267883029131
 21
7.85586121507228
 31
0.0
  0
LINE
  8
6
  6
CONTINUOUS
 62
6
 10
1.05267883029131
 20
7.87836121507228
 30
0.0
 11
1.05267883029131
 21
8.00826121507228
 31
0.0
  0
ARC
  8
6
  6
CONTINUOUS
 62
6
 10
1.15767883029131
 20
8.00826121507229
 30
0.0
 40
0.105000000000005
 50
89.9956000000016
 51
180.000000000004
  0
ARC
  8
6
  6
CONTINUOUS
 62
6
 10
1.1576788302913
 20
8.00826121507228
 30
0.0
 40
0.105000000000012
 50
359.991199999991
 51
89.9955999999934
  0
LINE
  8
6
  6
CONTINUOUS
 62
6
 10
1.26267882905286
 20
8.00824508823004
 30
0.0
 11
1.47267883029131
 21
8.11326121507228
 31
0.0
  0
LINE
  8
6
  6
CONTINUOUS
 62
6
 10
1.26267883029131
 20
7.87836121507228
 30
0.0
 11
1.26267883029131
 21
8.00824501507228
 31
0.0
  0
LINE
  8
6
  6
CONTINUOUS
 62
6
 10
1.05267883029131
 20
8.14326121507228
 30
0.0
 11
1.05267883029131
 21
8.27751121507228
 31
0.0
  0
LINE
  8
6
  6
CONTINUOUS
 62
6
 10
1.05267883029131
 20
8.27751121507228
 30
0.0
 11
1.47267883029131
 21
8.27751124507228
 31
0.0
  0
LINE
  8
6
  6
CONTINUOUS
 62
6
 10
1.0526788302913
 20
8.2775112450723
 30
0.0
 11
1.05267883029131
 21
8.41176121507228
 31
0.0
  0
LINE
  8
6
  6
CONTINUOUS
 62
6
 10
1.05267883029131
 20
8.77176121507229
 30
0.0
 11
1.05267883029131
 21
8.90601121507228
 31
0.0
  0
LINE
  8
6
  6
CONTINUOUS
 62
6
 10
1.05267883029131
 20
8.90601121507228
 30
0.0
 11
1.47267883029131
 21
8.90601124507228
 31
0.0
  0
LINE
  8
6
  6
CONTINUOUS
 62
6
 10
1.0526788302913
 20
8.9060112450723
 30
0.0
 11
1.05267883029131
 21
9.04026121507228
 31
0.0
  0
LINE
  8
6
  6
CONTINUOUS
 62
6
 10
1.05267883029131
 20
9.07026121507228
 30
0.0
 11
1.26267883029131
 21
9.07026121507228
 31
0.0
  0
LINE
  8
6
  6
CONTINUOUS
 62
6
 10
1.26267883029131
 20
9.07026121507228
 30
0.0
 11
1.47267883029131
 21
9.07026121507228
 31
0.0
  0
LINE
  8
6
  6
CONTINUOUS
 62
6
 10
1.26267883029131
 20
9.07026121507228
 30
0.0
 11
1.26267883029131
 21
9.32526121507228
 31
0.0
  0
LINE
  8
6
  6
CONTINUOUS
 62
6
 10
1.47267883029131
 20
9.32526121507228
 30
0.0
 11
1.26267883029131
 21
9.32526121507228
 31
0.0
  0
LINE
  8
6
  6
CONTINUOUS
 62
6
 10
1.26267883029131
 20
9.32526121507228
 30
0.0
 11
1.05267883029131
 21
9.32526121507228
 31
0.0
  0
LINE
  8
6
  6
CONTINUOUS
 62
6
 10
1.05267883029131
 20
9.35526121507228
 30
0.0
 11
1.05267883029131
 21
9.41526118695779
 31
0.0
  0
LINE
  8
6
  6
CONTINUOUS
 62
6
 10
1.05267883029131
 20
9.41526118695779
 30
0.0
 11
1.05267883029131
 21
9.47526118695778
 31
0.0
  0
LINE
  8
6
  6
CONTINUOUS
 62
6
 10
1.05267883029131
 20
9.41526118695779
 30
0.0
 11
1.47267883029131
 21
9.41526118695779
 31
0.0
  0
LINE
  8
6
  6
CONTINUOUS
 62
6
 10
1.47267883029131
 20
9.35526121507228
 30
0.0
 11
1.47267883029131
 21
9.41526118695779
 31
0.0
  0
LINE
  8
6
  6
CONTINUOUS
 62
6
 10
1.47267883029131
 20
9.41526118695779
 30
0.0
 11
1.47267883029131
 21
9.47526118695778
 31
0.0
  0
ARC
  8
6
  6
CONTINUOUS
 62
6
 10
1.1741672802913
 20
9.65401616490522
 30
0.0
 40
0.121071389999995
 50
120.52202
 51
179.29848
  0
LINE
  8
6
  6
CONTINUOUS
 62
6
 10
1.05310496517268
 20
9.65549850584122
 30
0.0
 11
1.05268711029131
 21
9.62137217490522
 31
0.0
  0
ARC
  8
6
  6
CONTINUOUS
 62
6
 10
1.16320472924386
 20
9.62001895867672
 30
0.0
 40
0.110525903267523
 50
179.298485571548
 51
267.350705571549
  0
ARC
  8
6
  6
CONTINUOUS
 62
6
 10
1.14994219839387
 20
9.59951400725431
 30
0.0
 40
0.0902718146223224
 50
275.18227425511
 51
329.34477425511
  0
LINE
  8
6
  6
CONTINUOUS
 62
6
 10
1.22759861511337
 20
9.55348704279331
 30
0.0
 11
1.29859312029131
 21
9.71878529490522
 31
0.0
  0
ARC
  8
6
  6
CONTINUOUS
 62
6
 10
1.37624954661368
 20
9.67275841290395
 30
0.0
 40
0.0902717808394171
 50
95.1822393860973
 51
149.344822386097
  0
ARC
  8
6
  6
CONTINUOUS
 62
6
 10
1.36298702052242
 20
9.65225346835982
 30
0.0
 40
0.11052587019469
 50
359.441077271098
 51
87.3506772711005
  0
LINE
  8
6
  6
CONTINUOUS
 62
6
 10
1.47350763189137
 20
9.65117530096693
 30
0.0
 11
1.47309010029131
 21
9.60837518490522
 31
0.0
  0
ARC
  8
6
  6
CONTINUOUS
 62
6
 10
1.35202451485378
 20
9.60955619986706
 30
0.0
 40
0.121071345799372
 50
300.521987851209
 51
359.441087851209
  0
LINE
  8
6
  6
CONTINUOUS
 62
6
 10
1.05267883029131
 20
10.1226612028891
 30
0.0
 11
1.47267883029128
 21
10.1229612028891
 31
0.0
  0
LINE
  8
6
  6
CONTINUOUS
 62
6
 10
1.47267883029128
 20
10.1229612028891
 30
0.0
 11
1.47267883029128
 21
10.3692612028891
 31
0.0
  0
LINE
  8
6
  6
CONTINUOUS
 62
6
 10
1.26267883029128
 20
10.1229612028891
 30
0.0
 11
1.26267883029128
 21
10.3152612028891
 31
0.0
  0
LINE
  8
6
  6
CONTINUOUS
 62
6
 10
1.05267883029131
 20
10.1301612048023
 30
0.0
 11
1.05267347314982
 21
10.1301612009758
 31
0.0
  0
LINE
  8
6
  6
CONTINUOUS
 62
6
 10
1.05267347314982
 20
10.1301612009758
 30
0.0
 11
1.05267883029131
 21
10.3692612028891
 31
0.0
  0
LINE
  8
6
  6
CONTINUOUS
 62
6
 10
1.47267883029131
 20
10.4007612028891
 30
0.0
 11
1.05267883029131
 21
10.4007612028891
 31
0.0
  0
LINE
  8
6
  6
CONTINUOUS
 62
6
 10
1.05267883029131
 20
10.4007612028891
 30
0.0
 11
1.47267883029131
 21
10.6581612028891
 31
0.0
  0
LINE
  8
6
  6
CONTINUOUS
 62
6
 10
1.47267883029131
 20
10.6581612028891
 30
0.0
 11
1.05267883029131
 21
10.6581612028891
 31
0.0
  0
LINE
  8
6
  6
CONTINUOUS
 62
6
 10
1.05267883029131
 20
10.6881612028891
 30
0.0
 11
1.47267883029131
 21
10.6881612028891
 31
0.0
  0
LINE
  8
6
  6
CONTINUOUS
 62
6
 10
1.47267883029131
 20
10.7106612028891
 30
0.0
 11
1.47267883029131
 21
10.8053110828891
 31
0.0
  0
ARC
  8
6
  6
CONTINUOUS
 62
6
 10
1.31890521477679
 20
10.7908226205313
 30
0.0
 40
0.154454654736913
 50
5.38248588476621
 51
65.6131858847662
  0
ARC
  8
6
  6
CONTINUOUS
 62
6
 10
1.26267865447612
 20
10.5770918690913
 30
0.0
 40
0.374169422895454
 50
71.2940972782808
 51
108.705897278283
  0
ARC
  8
6
  6
CONTINUOUS
 62
6
 10
1.20645230525222
 20
10.7908228665389
 30
0.0
 40
0.154454514312293
 50
114.386909987162
 51
174.617489987162
  0
LINE
  8
6
  6
CONTINUOUS
 62
6
 10
1.05267883564445
 20
10.8053113804805
 30
0.0
 11
1.05267883029131
 21
10.7106612028891
 31
0.0
  0
ENDSEC
  0
EOF
