  0
SECTION
  2
HEADER
  9
$ACADVER
  1
AC1003
  9
$EXTMIN
 10
-0.0078648919131048
 20
18.0007629608709
  9
$EXTMAX
 10
18.4924608097853
 20
-0.0016451057924104
  9
$INSBASE
 10
9.2422979589361
 20
8.99955892753923
999
Created with OMAX Layout for Windows. (http://www.omax.com) 9/14/2012
  0
ENDSEC
  0
SECTION
  2
TABLES
  0
TABLE
  2
LAYER
 70
    10
  0
LAYER
  2
0
 70
     0
 62
     7
  6
CONTINUOUS
  0
LAYER
  2
1
 70
     0
 62
     7
  6
CONTINUOUS
  0
LAYER
  2
2
 70
     0
 62
     7
  6
CONTINUOUS
  0
LAYER
  2
3
 70
     0
 62
     7
  6
CONTINUOUS
  0
LAYER
  2
4
 70
     0
 62
     7
  6
CONTINUOUS
  0
LAYER
  2
5
 70
     0
 62
     7
  6
CONTINUOUS
  0
LAYER
  2
6
 70
     0
 62
     7
  6
CONTINUOUS
  0
LAYER
  2
7
 70
     0
 62
     7
  6
CONTINUOUS
  0
LAYER
  2
8
 70
     0
 62
     7
  6
CONTINUOUS
  0
LAYER
  2
9
 70
     0
 62
     7
  6
CONTINUOUS
  0
LAYER
  2
10
 70
     0
 62
     7
  6
CONTINUOUS
  0
LAYER
  2
11
 70
     0
 62
     7
  6
CONTINUOUS
  0
LAYER
  2
12
 70
     0
 62
     7
  6
CONTINUOUS
  0
LAYER
  2
13
 70
     0
 62
     7
  6
CONTINUOUS
  0
LAYER
  2
14
 70
     0
 62
     7
  6
CONTINUOUS
  0
LAYER
  2
15
 70
     0
 62
     7
  6
CONTINUOUS
  0
LAYER
  2
16
 70
     0
 62
     7
  6
CONTINUOUS
  0
LAYER
  2
17
 70
     0
 62
     7
  6
CONTINUOUS
  0
LAYER
  2
18
 70
     0
 62
     7
  6
CONTINUOUS
  0
LAYER
  2
19
 70
     0
 62
     7
  6
CONTINUOUS
  0
LAYER
  2
20
 70
     0
 62
     7
  6
CONTINUOUS
  0
LAYER
  2
21
 70
     0
 62
     7
  6
CONTINUOUS
  0
LAYER
  2
22
 70
     0
 62
     7
  6
CONTINUOUS
  0
LAYER
  2
23
 70
     0
 62
     7
  6
CONTINUOUS
  0
LAYER
  2
24
 70
     0
 62
     7
  6
CONTINUOUS
  0
LAYER
  2
25
 70
     0
 62
     7
  6
CONTINUOUS
  0
LAYER
  2
26
 70
     0
 62
     7
  6
CONTINUOUS
  0
LAYER
  2
27
 70
     0
 62
     7
  6
CONTINUOUS
  0
LAYER
  2
28
 70
     0
 62
     7
  6
CONTINUOUS
  0
LAYER
  2
29
 70
     0
 62
     7
  6
CONTINUOUS
  0
LAYER
  2
30
 70
     0
 62
     7
  6
CONTINUOUS
  0
LAYER
  2
31
 70
     0
 62
     7
  6
CONTINUOUS
  0
ENDTAB
  0
ENDSEC
  0
SECTION
  2
ENTITIES
  0
LINE
  8
1
  6
CONTINUOUS
 62
1
 10
-0.00753919725010377
 20
-0.00126900261131468
 30
0.0
 11
-0.00753919725010732
 21
17.9987309973887
 31
0.0
  0
LINE
  8
1
  6
CONTINUOUS
 62
1
 10
-0.00753919725010732
 20
17.9987309973887
 30
0.0
 11
18.4924608027499
 21
17.9987309973887
 31
0.0
  0
LINE
  8
1
  6
CONTINUOUS
 62
1
 10
18.4924608027499
 20
17.9987309973887
 30
0.0
 11
18.4924608027499
 21
-0.00126900261131002
 31
0.0
  0
LINE
  8
1
  6
CONTINUOUS
 62
1
 10
18.4924608027499
 20
-0.00126900261131002
 30
0.0
 11
-0.00753919725010377
 21
-0.00126900261131468
 31
0.0
  0
ARC
  8
1
  6
CONTINUOUS
 62
1
 10
3.9924608027499
 20
1.21976445634376
 30
0.0
 40
0.178
 50
269.999999999999
 51
89.9999999999998
  0
ARC
  8
1
  6
CONTINUOUS
 62
1
 10
3.9924608027499
 20
1.21976445634376
 30
0.0
 40
0.178
 50
89.9999999999998
 51
270
  0
ARC
  8
1
  6
CONTINUOUS
 62
1
 10
15.9924608027499
 20
1.21973099738869
 30
0.0
 40
0.178
 50
269.999999999999
 51
89.9999999999998
  0
ARC
  8
1
  6
CONTINUOUS
 62
1
 10
15.9924608027499
 20
1.21973099738869
 30
0.0
 40
0.178
 50
89.9999999999998
 51
270
  0
ARC
  8
1
  6
CONTINUOUS
 62
1
 10
3.99246080274989
 20
16.7777644563438
 30
0.0
 40
0.178000000000001
 50
269.999999999999
 51
89.9999999999998
  0
ARC
  8
1
  6
CONTINUOUS
 62
1
 10
3.99246080274989
 20
16.7777644563438
 30
0.0
 40
0.178000000000001
 50
89.9999999999998
 51
270
  0
ARC
  8
1
  6
CONTINUOUS
 62
1
 10
15.9924608027499
 20
16.7777309973887
 30
0.0
 40
0.177999999999999
 50
269.999999999999
 51
89.9999999999998
  0
ARC
  8
1
  6
CONTINUOUS
 62
1
 10
15.9924608027499
 20
16.7777309973887
 30
0.0
 40
0.177999999999999
 50
89.9999999999998
 51
270
  0
ARC
  8
6
  6
CONTINUOUS
 62
6
 10
5.1674608027499
 20
4.99373099738862
 30
0.0
 40
0.31548316101305
 50
269.999999999999
 51
89.9999999999998
  0
ARC
  8
6
  6
CONTINUOUS
 62
6
 10
5.16746080274989
 20
4.99373099738862
 30
0.0
 40
0.31548316101305
 50
89.9999999999998
 51
270
  0
ARC
  8
6
  6
CONTINUOUS
 62
6
 10
13.22396080275
 20
13.0077309973887
 30
0.0
 40
0.3154831610131
 50
269.999999999999
 51
89.9999999999998
  0
ARC
  8
6
  6
CONTINUOUS
 62
6
 10
13.22396080275
 20
13.0077309973887
 30
0.0
 40
0.3154831610131
 50
89.9999999999998
 51
270
  0
ARC
  8
1
  6
CONTINUOUS
 62
1
 10
14.03646080275
 20
14.5827309973887
 30
0.0
 40
0.0999999999999996
 50
269.999999999999
 51
89.9999999999998
  0
ARC
  8
1
  6
CONTINUOUS
 62
1
 10
14.03646080275
 20
14.5827309973887
 30
0.0
 40
0.0999999999999996
 50
89.9999999999998
 51
270
  0
ARC
  8
1
  6
CONTINUOUS
 62
1
 10
14.03646080275
 20
11.0577809973887
 30
0.0
 40
0.0999999999999996
 50
269.999999999999
 51
89.9999999999998
  0
ARC
  8
1
  6
CONTINUOUS
 62
1
 10
14.03646080275
 20
11.0577809973887
 30
0.0
 40
0.0999999999999996
 50
89.9999999999998
 51
270
  0
ARC
  8
1
  6
CONTINUOUS
 62
1
 10
11.36946080275
 20
14.5827309973887
 30
0.0
 40
0.0999999999999996
 50
269.999999999999
 51
89.9999999999998
  0
ARC
  8
1
  6
CONTINUOUS
 62
1
 10
11.36946080275
 20
14.5827309973887
 30
0.0
 40
0.0999999999999996
 50
89.9999999999998
 51
270
  0
ARC
  8
1
  6
CONTINUOUS
 62
1
 10
5.6674608027499
 20
3.44973099738869
 30
0.0
 40
0.100000000000001
 50
269.999999999999
 51
89.9999999999998
  0
ARC
  8
1
  6
CONTINUOUS
 62
1
 10
5.6674608027499
 20
3.44973099738869
 30
0.0
 40
0.100000000000001
 50
89.9999999999998
 51
270
  0
ARC
  8
1
  6
CONTINUOUS
 62
1
 10
5.6674191318038
 20
6.94374071889757
 30
0.0
 40
0.1
 50
269.999999999999
 51
89.9999999999998
  0
ARC
  8
1
  6
CONTINUOUS
 62
1
 10
5.6674191318038
 20
6.94374071889757
 30
0.0
 40
0.1
 50
89.9999999999998
 51
270
  0
ARC
  8
1
  6
CONTINUOUS
 62
1
 10
3.0005092101251
 20
3.44970600422834
 30
0.0
 40
0.0999999999999996
 50
269.999999999999
 51
89.9999999999998
  0
ARC
  8
1
  6
CONTINUOUS
 62
1
 10
3.00050921012509
 20
3.44970600422834
 30
0.0
 40
0.0999999999999996
 50
89.9999999999998
 51
270
  0
LINE
  8
1
  6
CONTINUOUS
 62
1
 10
0.492460810147996
 20
-0.00126900261095475
 30
0.0
 11
0.492135108086895
 21
0.198731202182825
 31
0.0
  0
LINE
  8
1
  6
CONTINUOUS
 62
1
 10
0.492135108086895
 20
0.198731202182825
 30
0.0
 11
-0.0078648919131048
 21
0.198731202182824
 31
0.0
  0
LINE
  8
1
  6
CONTINUOUS
 62
1
 10
-0.0078648919131048
 20
0.198731202182824
 30
0.0
 11
-0.00753918985200386
 21
-0.00126900261095497
 31
0.0
  0
LINE
  8
1
  6
CONTINUOUS
 62
1
 10
-0.00753918985200386
 20
-0.00126900261095497
 30
0.0
 11
0.492460810147996
 21
-0.00126900261095475
 31
0.0
  0
LINE
  8
1
  6
CONTINUOUS
 62
1
 10
-0.00753919725010732
 20
17.9987309973887
 30
0.0
 11
-0.00753919725010732
 21
8.99873099738867
 31
0.0
  0
LINE
  8
1
  6
CONTINUOUS
 62
1
 10
0.492910461296592
 20
17.8007627560771
 30
0.0
 11
0.492584759235491
 21
18.0007629608709
 31
0.0
  0
LINE
  8
1
  6
CONTINUOUS
 62
1
 10
0.492584759235491
 20
18.0007629608709
 30
0.0
 11
-0.00741524076450872
 21
18.0007629608709
 31
0.0
  0
LINE
  8
1
  6
CONTINUOUS
 62
1
 10
-0.00741524076450872
 20
18.0007629608709
 30
0.0
 11
-0.00708953870330831
 21
17.8007627560771
 31
0.0
  0
LINE
  8
1
  6
CONTINUOUS
 62
1
 10
-0.00708953870330831
 20
17.8007627560771
 30
0.0
 11
0.492910461296592
 21
17.8007627560771
 31
0.0
  0
LINE
  8
1
  6
CONTINUOUS
 62
1
 10
18.4924608027499
 20
-0.00126900261131002
 30
0.0
 11
18.4919884436786
 21
0.311229212378469
 31
0.0
  0
LINE
  8
1
  6
CONTINUOUS
 62
1
 10
18.4919884436786
 20
0.311229212378469
 30
0.0
 11
18.0919866754694
 21
0.310853109197369
 31
0.0
  0
LINE
  8
1
  6
CONTINUOUS
 62
1
 10
18.0919866754694
 20
0.310853109197369
 30
0.0
 11
18.0924590345408
 21
-0.0016451057924104
 31
0.0
  0
LINE
  8
1
  6
CONTINUOUS
 62
1
 10
18.0924590345408
 20
-0.0016451057924104
 30
0.0
 11
18.4924608027499
 21
-0.00126900261131002
 31
0.0
  0
LINE
  8
1
  6
CONTINUOUS
 62
1
 10
18.492373541668
 20
17.685934720289
 30
0.0
 11
18.4924608097853
 21
17.9984346593632
 31
0.0
  0
LINE
  8
1
  6
CONTINUOUS
 62
1
 10
18.4924608097853
 20
17.9984346593632
 30
0.0
 11
18.092460708795
 21
17.9985245438295
 31
0.0
  0
LINE
  8
1
  6
CONTINUOUS
 62
1
 10
18.092460708795
 20
17.9985245438295
 30
0.0
 11
18.0923734406776
 21
17.6860246047553
 31
0.0
  0
LINE
  8
1
  6
CONTINUOUS
 62
1
 10
18.0923734406776
 20
17.6860246047553
 30
0.0
 11
18.492373541668
 21
17.685934720289
 31
0.0
  0
LINE
  8
6
  6
CONTINUOUS
 62
6
 10
5.7360926071474
 20
16.721894110581
 30
0.0
 11
5.7360926071474
 21
16.021894110581
 31
0.0
  0
LINE
  8
6
  6
CONTINUOUS
 62
6
 10
5.7360926071474
 20
16.021894110581
 30
0.0
 11
6.1465926071474
 21
16.021894110581
 31
0.0
  0
LINE
  8
6
  6
CONTINUOUS
 62
6
 10
6.1965926071474
 20
16.721894110581
 30
0.0
 11
6.2965925602899
 21
16.721894110581
 31
0.0
  0
LINE
  8
6
  6
CONTINUOUS
 62
6
 10
6.2965925602899
 20
16.721894110581
 30
0.0
 11
6.3965925602899
 21
16.721894110581
 31
0.0
  0
LINE
  8
6
  6
CONTINUOUS
 62
6
 10
6.2965925602899
 20
16.721894110581
 30
0.0
 11
6.2965925602899
 21
16.021894110581
 31
0.0
  0
LINE
  8
6
  6
CONTINUOUS
 62
6
 10
6.1965926071474
 20
16.021894110581
 30
0.0
 11
6.2965925602899
 21
16.021894110581
 31
0.0
  0
LINE
  8
6
  6
CONTINUOUS
 62
6
 10
6.2965925602899
 20
16.021894110581
 30
0.0
 11
6.3965925602899
 21
16.021894110581
 31
0.0
  0
LINE
  8
6
  6
CONTINUOUS
 62
6
 10
6.4465925602899
 20
16.721894110581
 30
0.0
 11
6.4465925602899
 21
16.021894110581
 31
0.0
  0
LINE
  8
6
  6
CONTINUOUS
 62
6
 10
6.4840925602899
 20
16.021894110581
 30
0.0
 11
6.6418423602899
 21
16.021894110581
 31
0.0
  0
ARC
  8
6
  6
CONTINUOUS
 62
6
 10
6.61769492302703
 20
16.2781834697719
 30
0.0
 40
0.257424424561522
 50
275.382485884766
 51
335.613185884766
  0
ARC
  8
6
  6
CONTINUOUS
 62
6
 10
6.26147699445968
 20
16.3718943755475
 30
0.0
 40
0.623615704825756
 50
341.294099999999
 51
18.7059000000007
  0
ARC
  8
6
  6
CONTINUOUS
 62
6
 10
6.61769533303967
 20
16.4656049856462
 30
0.0
 40
0.25742419052049
 50
24.3869099871621
 51
84.6174899871621
  0
LINE
  8
6
  6
CONTINUOUS
 62
6
 10
6.64184285627558
 20
16.7218941016591
 30
0.0
 11
6.4840925602899
 21
16.721894110581
 31
0.0
  0
LINE
  8
6
  6
CONTINUOUS
 62
6
 10
7.48509276028991
 20
16.371894110581
 30
0.0
 11
7.88509281028991
 21
16.371894110581
 31
0.0
  0
LINE
  8
6
  6
CONTINUOUS
 62
6
 10
8.48509281028991
 20
16.721894110581
 30
0.0
 11
8.70884281028991
 21
16.721894110581
 31
0.0
  0
LINE
  8
6
  6
CONTINUOUS
 62
6
 10
8.70884281028991
 20
16.721894110581
 30
0.0
 11
8.70884286028991
 21
16.021894110581
 31
0.0
  0
LINE
  8
6
  6
CONTINUOUS
 62
6
 10
8.70884286028993
 20
16.721894110581
 30
0.0
 11
8.93259281028991
 21
16.721894110581
 31
0.0
  0
ARC
  8
6
  6
CONTINUOUS
 62
6
 10
9.21574041028991
 20
16.513721110581
 30
0.0
 40
0.208173
 50
93.4424652776291
 51
164.098
  0
ARC
  8
6
  6
CONTINUOUS
 62
6
 10
9.60620865841753
 20
16.3707588163329
 30
0.0
 40
0.623615934640423
 50
161.2941
 51
198.7059
  0
ARC
  8
6
  6
CONTINUOUS
 62
6
 10
9.21574019441356
 20
16.227796634235
 30
0.0
 40
0.208172711190177
 50
195.902054741785
 51
266.557589464157
  0
ARC
  8
6
  6
CONTINUOUS
 62
6
 10
9.21574041028991
 20
16.227796910581
 30
0.0
 40
0.208173
 50
273.442465277628
 51
344.097999999998
  0
ARC
  8
6
  6
CONTINUOUS
 62
6
 10
8.82527220035323
 20
16.3707591918978
 30
0.0
 40
0.623615894319629
 50
341.294099999999
 51
18.7059000000007
  0
ARC
  8
6
  6
CONTINUOUS
 62
6
 10
9.21574070792149
 20
16.5137212329057
 30
0.0
 40
0.208172860024593
 50
15.9020797482314
 51
86.5576144706044
  0
LINE
  8
6
  6
CONTINUOUS
 62
6
 10
9.49888821028991
 20
16.721894110581
 30
0.0
 11
9.49888821028991
 21
16.021894110581
 31
0.0
  0
LINE
  8
6
  6
CONTINUOUS
 62
6
 10
9.53638821028991
 20
16.721894110581
 30
0.0
 11
9.75288821028991
 21
16.721894110581
 31
0.0
  0
ARC
  8
6
  6
CONTINUOUS
 62
6
 10
9.75288821028991
 20
16.546894110581
 30
0.0
 40
0.174999999999999
 50
359.995599999999
 51
90.000000000001
  0
ARC
  8
6
  6
CONTINUOUS
 62
6
 10
9.7528882102899
 20
16.546894110581
 30
0.0
 40
0.175000000000008
 50
269.991199999995
 51
359.995599999997
  0
LINE
  8
6
  6
CONTINUOUS
 62
6
 10
9.75286133221951
 20
16.3718941126451
 30
0.0
 11
9.53638821028991
 21
16.371894110581
 31
0.0
  0
LINE
  8
6
  6
CONTINUOUS
 62
6
 10
10.5278882102899
 20
16.721894110581
 30
0.0
 11
10.7828882102899
 21
16.021894110581
 31
0.0
  0
LINE
  8
6
  6
CONTINUOUS
 62
6
 10
10.7828882102899
 20
16.021894110581
 30
0.0
 11
11.0378882102899
 21
16.721894110581
 31
0.0
  0
LINE
  8
6
  6
CONTINUOUS
 62
6
 10
11.0878882102899
 20
16.721894110581
 30
0.0
 11
11.1878881634324
 21
16.721894110581
 31
0.0
  0
LINE
  8
6
  6
CONTINUOUS
 62
6
 10
11.1878881634324
 20
16.721894110581
 30
0.0
 11
11.2878881634324
 21
16.721894110581
 31
0.0
  0
LINE
  8
6
  6
CONTINUOUS
 62
6
 10
11.1878881634324
 20
16.721894110581
 30
0.0
 11
11.1878881634324
 21
16.021894110581
 31
0.0
  0
LINE
  8
6
  6
CONTINUOUS
 62
6
 10
11.0878882102899
 20
16.021894110581
 30
0.0
 11
11.1878881634324
 21
16.021894110581
 31
0.0
  0
LINE
  8
6
  6
CONTINUOUS
 62
6
 10
11.1878881634324
 20
16.021894110581
 30
0.0
 11
11.2878881634324
 21
16.021894110581
 31
0.0
  0
LINE
  8
6
  6
CONTINUOUS
 62
6
 10
11.3378881634324
 20
16.721894110581
 30
0.0
 11
11.3383881634324
 21
16.0218941105811
 31
0.0
  0
LINE
  8
6
  6
CONTINUOUS
 62
6
 10
11.3383881634324
 20
16.0218941105811
 30
0.0
 11
11.7488881634324
 21
16.0218941105811
 31
0.0
  0
LINE
  8
6
  6
CONTINUOUS
 62
6
 10
11.3383881634324
 20
16.3718941105811
 30
0.0
 11
11.6588881634324
 21
16.3718941105811
 31
0.0
  0
LINE
  8
6
  6
CONTINUOUS
 62
6
 10
11.3503881666212
 20
16.721894110581
 30
0.0
 11
11.3503881602436
 21
16.7219030391502
 31
0.0
  0
LINE
  8
6
  6
CONTINUOUS
 62
6
 10
11.3503881602436
 20
16.7219030391502
 30
0.0
 11
11.7488881634324
 21
16.721894110581
 31
0.0
  0
LINE
  8
6
  6
CONTINUOUS
 62
6
 10
11.7988881634324
 20
16.721894110581
 30
0.0
 11
11.9801381634324
 21
16.021894110581
 31
0.0
  0
LINE
  8
6
  6
CONTINUOUS
 62
6
 10
11.9801381634324
 20
16.021894110581
 30
0.0
 11
12.1613881634324
 21
16.605394110581
 31
0.0
  0
LINE
  8
6
  6
CONTINUOUS
 62
6
 10
12.1613881634324
 20
16.605394110581
 30
0.0
 11
12.3426381634324
 21
16.021894110581
 31
0.0
  0
LINE
  8
6
  6
CONTINUOUS
 62
6
 10
12.3426381634324
 20
16.021894110581
 30
0.0
 11
12.5238881634324
 21
16.721894110581
 31
0.0
  0
ENDSEC
  0
EOF
