  0
SECTION
  2
HEADER
  9
$ACADVER
  1
AC1003
  9
$EXTMIN
 10
-0.0442723274048902
 20
17.9981353987378
  9
$EXTMAX
 10
18.4557276725952
 20
-0.00186460126213916
  9
$INSBASE
 10
9.20572767259513
 20
8.99813539873785
999
Created with OMAX Layout for Windows. (http://www.omax.com) 9/12/2012
  0
ENDSEC
  0
SECTION
  2
TABLES
  0
TABLE
  2
LAYER
 70
    10
  0
LAYER
  2
0
 70
     0
 62
     7
  6
CONTINUOUS
  0
LAYER
  2
1
 70
     0
 62
     7
  6
CONTINUOUS
  0
LAYER
  2
2
 70
     0
 62
     7
  6
CONTINUOUS
  0
LAYER
  2
3
 70
     0
 62
     7
  6
CONTINUOUS
  0
LAYER
  2
4
 70
     0
 62
     7
  6
CONTINUOUS
  0
LAYER
  2
5
 70
     0
 62
     7
  6
CONTINUOUS
  0
LAYER
  2
6
 70
     0
 62
     7
  6
CONTINUOUS
  0
LAYER
  2
7
 70
     0
 62
     7
  6
CONTINUOUS
  0
LAYER
  2
8
 70
     0
 62
     7
  6
CONTINUOUS
  0
LAYER
  2
9
 70
     0
 62
     7
  6
CONTINUOUS
  0
LAYER
  2
10
 70
     0
 62
     7
  6
CONTINUOUS
  0
LAYER
  2
11
 70
     0
 62
     7
  6
CONTINUOUS
  0
LAYER
  2
12
 70
     0
 62
     7
  6
CONTINUOUS
  0
LAYER
  2
13
 70
     0
 62
     7
  6
CONTINUOUS
  0
LAYER
  2
14
 70
     0
 62
     7
  6
CONTINUOUS
  0
LAYER
  2
15
 70
     0
 62
     7
  6
CONTINUOUS
  0
LAYER
  2
16
 70
     0
 62
     7
  6
CONTINUOUS
  0
LAYER
  2
17
 70
     0
 62
     7
  6
CONTINUOUS
  0
LAYER
  2
18
 70
     0
 62
     7
  6
CONTINUOUS
  0
LAYER
  2
19
 70
     0
 62
     7
  6
CONTINUOUS
  0
LAYER
  2
20
 70
     0
 62
     7
  6
CONTINUOUS
  0
LAYER
  2
21
 70
     0
 62
     7
  6
CONTINUOUS
  0
LAYER
  2
22
 70
     0
 62
     7
  6
CONTINUOUS
  0
LAYER
  2
23
 70
     0
 62
     7
  6
CONTINUOUS
  0
LAYER
  2
24
 70
     0
 62
     7
  6
CONTINUOUS
  0
LAYER
  2
25
 70
     0
 62
     7
  6
CONTINUOUS
  0
LAYER
  2
26
 70
     0
 62
     7
  6
CONTINUOUS
  0
LAYER
  2
27
 70
     0
 62
     7
  6
CONTINUOUS
  0
LAYER
  2
28
 70
     0
 62
     7
  6
CONTINUOUS
  0
LAYER
  2
29
 70
     0
 62
     7
  6
CONTINUOUS
  0
LAYER
  2
30
 70
     0
 62
     7
  6
CONTINUOUS
  0
LAYER
  2
31
 70
     0
 62
     7
  6
CONTINUOUS
  0
ENDTAB
  0
ENDSEC
  0
SECTION
  2
ENTITIES
  0
LINE
  8
1
  6
CONTINUOUS
 62
1
 10
-0.0442723274048866
 20
-0.00186460126213916
 30
0.0
 11
-0.0442723274048902
 21
17.9981353987378
 31
0.0
  0
LINE
  8
1
  6
CONTINUOUS
 62
1
 10
-0.0442723274048902
 20
17.9981353987378
 30
0.0
 11
18.4557276725951
 21
17.9981353987378
 31
0.0
  0
LINE
  8
1
  6
CONTINUOUS
 62
1
 10
18.4557276725951
 20
17.9981353987378
 30
0.0
 11
18.4557276725952
 21
-0.00186460126213461
 31
0.0
  0
LINE
  8
1
  6
CONTINUOUS
 62
1
 10
18.4557276725952
 20
-0.00186460126213461
 30
0.0
 11
-0.0442723274048866
 21
-0.00186460126213916
 31
0.0
  0
ARC
  8
1
  6
CONTINUOUS
 62
1
 10
3.95572767259512
 20
1.21916885769293
 30
0.0
 40
0.178
 50
269.999999999999
 51
89.9999999999998
  0
ARC
  8
1
  6
CONTINUOUS
 62
1
 10
3.95572767259511
 20
1.21916885769293
 30
0.0
 40
0.178
 50
89.9999999999998
 51
270
  0
ARC
  8
1
  6
CONTINUOUS
 62
1
 10
15.9557276725952
 20
1.21913539873786
 30
0.0
 40
0.178
 50
269.999999999999
 51
89.9999999999998
  0
ARC
  8
1
  6
CONTINUOUS
 62
1
 10
15.9557276725952
 20
1.21913539873786
 30
0.0
 40
0.178
 50
89.9999999999998
 51
270
  0
ARC
  8
1
  6
CONTINUOUS
 62
1
 10
3.95572767259511
 20
16.7771688576929
 30
0.0
 40
0.178000000000001
 50
269.999999999999
 51
89.9999999999998
  0
ARC
  8
1
  6
CONTINUOUS
 62
1
 10
3.95572767259511
 20
16.7771688576929
 30
0.0
 40
0.178000000000001
 50
89.9999999999998
 51
270
  0
ARC
  8
1
  6
CONTINUOUS
 62
1
 10
15.9557276725952
 20
16.7771353987378
 30
0.0
 40
0.177999999999999
 50
269.999999999999
 51
89.9999999999998
  0
ARC
  8
1
  6
CONTINUOUS
 62
1
 10
15.9557276725951
 20
16.7771353987378
 30
0.0
 40
0.177999999999999
 50
89.9999999999998
 51
270
  0
ARC
  8
1
  6
CONTINUOUS
 62
1
 10
5.13072767259512
 20
4.99313539873779
 30
0.0
 40
0.31548316101305
 50
269.999999999999
 51
89.9999999999998
  0
ARC
  8
1
  6
CONTINUOUS
 62
1
 10
5.13072767259511
 20
4.99313539873779
 30
0.0
 40
0.31548316101305
 50
89.9999999999998
 51
270
  0
ARC
  8
1
  6
CONTINUOUS
 62
1
 10
13.1872276725952
 20
13.0071353987378
 30
0.0
 40
0.3154831610131
 50
269.999999999999
 51
89.9999999999998
  0
ARC
  8
1
  6
CONTINUOUS
 62
1
 10
13.1872276725952
 20
13.0071353987378
 30
0.0
 40
0.3154831610131
 50
89.9999999999998
 51
270
  0
ARC
  8
1
  6
CONTINUOUS
 62
1
 10
13.9997276725952
 20
14.5821353987378
 30
0.0
 40
0.0999999999999996
 50
269.999999999999
 51
89.9999999999998
  0
ARC
  8
1
  6
CONTINUOUS
 62
1
 10
13.9997276725952
 20
14.5821353987378
 30
0.0
 40
0.0999999999999996
 50
89.9999999999998
 51
270
  0
ARC
  8
1
  6
CONTINUOUS
 62
1
 10
13.9997276725952
 20
11.0571853987378
 30
0.0
 40
0.0999999999999996
 50
269.999999999999
 51
89.9999999999998
  0
ARC
  8
1
  6
CONTINUOUS
 62
1
 10
13.9997276725952
 20
11.0571853987378
 30
0.0
 40
0.0999999999999996
 50
89.9999999999998
 51
270
  0
ARC
  8
1
  6
CONTINUOUS
 62
1
 10
11.3327276725952
 20
14.5821353987378
 30
0.0
 40
0.0999999999999996
 50
269.999999999999
 51
89.9999999999998
  0
ARC
  8
1
  6
CONTINUOUS
 62
1
 10
11.3327276725952
 20
14.5821353987378
 30
0.0
 40
0.0999999999999996
 50
89.9999999999998
 51
270
  0
ARC
  8
1
  6
CONTINUOUS
 62
1
 10
5.63072767259511
 20
3.44913539873786
 30
0.0
 40
0.100000000000001
 50
269.999999999999
 51
89.9999999999998
  0
ARC
  8
1
  6
CONTINUOUS
 62
1
 10
5.63072767259511
 20
3.44913539873786
 30
0.0
 40
0.100000000000001
 50
89.9999999999998
 51
270
  0
ARC
  8
1
  6
CONTINUOUS
 62
1
 10
5.63068600164901
 20
6.94314512024674
 30
0.0
 40
0.0999999999999996
 50
269.999999999999
 51
89.9999999999998
  0
ARC
  8
1
  6
CONTINUOUS
 62
1
 10
5.63068600164901
 20
6.94314512024674
 30
0.0
 40
0.0999999999999996
 50
89.9999999999998
 51
270
  0
ARC
  8
1
  6
CONTINUOUS
 62
1
 10
2.96377607997031
 20
3.44911040557752
 30
0.0
 40
0.0999999999999996
 50
269.999999999999
 51
89.9999999999998
  0
ARC
  8
1
  6
CONTINUOUS
 62
1
 10
2.96377607997031
 20
3.44911040557752
 30
0.0
 40
0.0999999999999996
 50
89.9999999999998
 51
270
  0
LINE
  8
1
  6
CONTINUOUS
 62
1
 10
0.455727679993213
 20
-0.00186460126177934
 30
0.0
 11
0.455727679993213
 21
0.498135398738221
 31
0.0
  0
LINE
  8
1
  6
CONTINUOUS
 62
1
 10
0.455727679993213
 20
0.498135398738221
 30
0.0
 11
-0.0442723200067867
 21
0.498135398738221
 31
0.0
  0
LINE
  8
1
  6
CONTINUOUS
 62
1
 10
-0.0442723200067867
 20
0.498135398738221
 30
0.0
 11
-0.0442723200067867
 21
-0.00186460126177956
 31
0.0
  0
LINE
  8
1
  6
CONTINUOUS
 62
1
 10
-0.0442723200067867
 20
-0.00186460126177956
 30
0.0
 11
0.455727679993213
 21
-0.00186460126177934
 31
0.0
  0
LINE
  8
1
  6
CONTINUOUS
 62
1
 10
0.455727687391409
 20
17.4981353987378
 30
0.0
 11
0.455727687391409
 21
17.9981353987378
 31
0.0
  0
LINE
  8
1
  6
CONTINUOUS
 62
1
 10
0.455727687391409
 20
17.9981353987378
 30
0.0
 11
-0.0442723126085909
 21
17.9981353987378
 31
0.0
  0
LINE
  8
1
  6
CONTINUOUS
 62
1
 10
-0.0442723126085909
 20
17.9981353987378
 30
0.0
 11
-0.0442723126085909
 21
17.4981353987378
 31
0.0
  0
LINE
  8
1
  6
CONTINUOUS
 62
1
 10
-0.0442723126085909
 20
17.4981353987378
 30
0.0
 11
0.455727687391409
 21
17.4981353987378
 31
0.0
  0
ENDSEC
  0
EOF
