  0
SECTION
  2
HEADER
  9
$ACADVER
  1
AC1003
  9
$EXTMIN
 10
0.0264868999808421
 20
17.9981353987378
  9
$EXTMAX
 10
18.5264868999809
 20
-0.00186460126213916
  9
$INSBASE
 10
9.27648689998086
 20
8.99813539873785
999
Created with OMAX Layout for Windows. (http://www.omax.com) 9/11/2012
  0
ENDSEC
  0
SECTION
  2
TABLES
  0
TABLE
  2
LAYER
 70
    10
  0
LAYER
  2
0
 70
     0
 62
     7
  6
CONTINUOUS
  0
LAYER
  2
1
 70
     0
 62
     7
  6
CONTINUOUS
  0
LAYER
  2
2
 70
     0
 62
     7
  6
CONTINUOUS
  0
LAYER
  2
3
 70
     0
 62
     7
  6
CONTINUOUS
  0
LAYER
  2
4
 70
     0
 62
     7
  6
CONTINUOUS
  0
LAYER
  2
5
 70
     0
 62
     7
  6
CONTINUOUS
  0
LAYER
  2
6
 70
     0
 62
     7
  6
CONTINUOUS
  0
LAYER
  2
7
 70
     0
 62
     7
  6
CONTINUOUS
  0
LAYER
  2
8
 70
     0
 62
     7
  6
CONTINUOUS
  0
LAYER
  2
9
 70
     0
 62
     7
  6
CONTINUOUS
  0
LAYER
  2
10
 70
     0
 62
     7
  6
CONTINUOUS
  0
LAYER
  2
11
 70
     0
 62
     7
  6
CONTINUOUS
  0
LAYER
  2
12
 70
     0
 62
     7
  6
CONTINUOUS
  0
LAYER
  2
13
 70
     0
 62
     7
  6
CONTINUOUS
  0
LAYER
  2
14
 70
     0
 62
     7
  6
CONTINUOUS
  0
LAYER
  2
15
 70
     0
 62
     7
  6
CONTINUOUS
  0
LAYER
  2
16
 70
     0
 62
     7
  6
CONTINUOUS
  0
LAYER
  2
17
 70
     0
 62
     7
  6
CONTINUOUS
  0
LAYER
  2
18
 70
     0
 62
     7
  6
CONTINUOUS
  0
LAYER
  2
19
 70
     0
 62
     7
  6
CONTINUOUS
  0
LAYER
  2
20
 70
     0
 62
     7
  6
CONTINUOUS
  0
LAYER
  2
21
 70
     0
 62
     7
  6
CONTINUOUS
  0
LAYER
  2
22
 70
     0
 62
     7
  6
CONTINUOUS
  0
LAYER
  2
23
 70
     0
 62
     7
  6
CONTINUOUS
  0
LAYER
  2
24
 70
     0
 62
     7
  6
CONTINUOUS
  0
LAYER
  2
25
 70
     0
 62
     7
  6
CONTINUOUS
  0
LAYER
  2
26
 70
     0
 62
     7
  6
CONTINUOUS
  0
LAYER
  2
27
 70
     0
 62
     7
  6
CONTINUOUS
  0
LAYER
  2
28
 70
     0
 62
     7
  6
CONTINUOUS
  0
LAYER
  2
29
 70
     0
 62
     7
  6
CONTINUOUS
  0
LAYER
  2
30
 70
     0
 62
     7
  6
CONTINUOUS
  0
LAYER
  2
31
 70
     0
 62
     7
  6
CONTINUOUS
  0
ENDTAB
  0
ENDSEC
  0
SECTION
  2
ENTITIES
  0
LINE
  8
1
  6
CONTINUOUS
 62
1
 10
0.0264868999808456
 20
-0.00186460126213916
 30
0.0
 11
0.0264868999808421
 21
17.9981353987378
 31
0.0
  0
LINE
  8
1
  6
CONTINUOUS
 62
1
 10
0.0264868999808421
 20
17.9981353987378
 30
0.0
 11
18.5264868999809
 21
17.9981353987378
 31
0.0
  0
LINE
  8
1
  6
CONTINUOUS
 62
1
 10
18.5264868999809
 20
17.9981353987378
 30
0.0
 11
18.5264868999809
 21
-0.00186460126213461
 31
0.0
  0
LINE
  8
1
  6
CONTINUOUS
 62
1
 10
18.5264868999809
 20
-0.00186460126213461
 30
0.0
 11
0.0264868999808456
 21
-0.00186460126213916
 31
0.0
  0
ARC
  8
1
  6
CONTINUOUS
 62
1
 10
4.02648689998085
 20
0.903168857692932
 30
0.0
 40
0.178
 50
269.999999999999
 51
89.9999999999998
  0
ARC
  8
1
  6
CONTINUOUS
 62
1
 10
4.02648689998084
 20
0.903168857692932
 30
0.0
 40
0.178
 50
89.9999999999998
 51
270
  0
ARC
  8
1
  6
CONTINUOUS
 62
1
 10
16.0264868999809
 20
0.903135398737864
 30
0.0
 40
0.178
 50
269.999999999999
 51
89.9999999999998
  0
ARC
  8
1
  6
CONTINUOUS
 62
1
 10
16.0264868999809
 20
0.903135398737864
 30
0.0
 40
0.178
 50
89.9999999999998
 51
270
  0
ARC
  8
1
  6
CONTINUOUS
 62
1
 10
4.02648689998084
 20
17.0931688576929
 30
0.0
 40
0.178000000000001
 50
269.999999999999
 51
89.9999999999998
  0
ARC
  8
1
  6
CONTINUOUS
 62
1
 10
4.02648689998084
 20
17.0931688576929
 30
0.0
 40
0.178000000000001
 50
89.9999999999998
 51
270
  0
ARC
  8
1
  6
CONTINUOUS
 62
1
 10
16.0264868999809
 20
17.0931353987378
 30
0.0
 40
0.177999999999999
 50
269.999999999999
 51
89.9999999999998
  0
ARC
  8
1
  6
CONTINUOUS
 62
1
 10
16.0264868999809
 20
17.0931353987378
 30
0.0
 40
0.177999999999999
 50
89.9999999999998
 51
270
  0
ARC
  8
0
  6
CONTINUOUS
 62
0
 10
4.80148689998085
 20
4.87313539873779
 30
0.0
 40
0.31548316101305
 50
269.999999999999
 51
89.9999999999998
  0
ARC
  8
0
  6
CONTINUOUS
 62
0
 10
4.80148689998084
 20
4.87313539873779
 30
0.0
 40
0.31548316101305
 50
89.9999999999998
 51
270
  0
ARC
  8
0
  6
CONTINUOUS
 62
0
 10
13.2579868999809
 20
13.0071353987378
 30
0.0
 40
0.3154831610131
 50
269.999999999999
 51
89.9999999999998
  0
ARC
  8
0
  6
CONTINUOUS
 62
0
 10
13.2579868999809
 20
13.0071353987378
 30
0.0
 40
0.3154831610131
 50
89.9999999999998
 51
270
  0
ARC
  8
1
  6
CONTINUOUS
 62
1
 10
13.7579868999809
 20
14.7071353987378
 30
0.0
 40
0.0999999999999996
 50
269.999999999999
 51
89.9999999999998
  0
ARC
  8
1
  6
CONTINUOUS
 62
1
 10
13.7579868999809
 20
14.7071353987378
 30
0.0
 40
0.0999999999999996
 50
89.9999999999998
 51
270
  0
ARC
  8
1
  6
CONTINUOUS
 62
1
 10
13.7579868999809
 20
11.3071353987378
 30
0.0
 40
0.100000000000001
 50
269.999999999999
 51
89.9999999999998
  0
ARC
  8
1
  6
CONTINUOUS
 62
1
 10
13.7579868999809
 20
11.3071353987378
 30
0.0
 40
0.100000000000001
 50
89.9999999999998
 51
270
  0
ARC
  8
1
  6
CONTINUOUS
 62
1
 10
11.0909868999809
 20
14.7071353987378
 30
0.0
 40
0.0999999999999996
 50
269.999999999999
 51
89.9999999999998
  0
ARC
  8
1
  6
CONTINUOUS
 62
1
 10
11.0909868999809
 20
14.7071353987378
 30
0.0
 40
0.0999999999999996
 50
89.9999999999998
 51
270
  0
ARC
  8
1
  6
CONTINUOUS
 62
1
 10
5.30148689998085
 20
3.17313539873786
 30
0.0
 40
0.100000000000001
 50
269.999999999999
 51
89.9999999999998
  0
ARC
  8
1
  6
CONTINUOUS
 62
1
 10
5.30148689998084
 20
3.17313539873786
 30
0.0
 40
0.100000000000001
 50
89.9999999999998
 51
270
  0
ARC
  8
1
  6
CONTINUOUS
 62
1
 10
5.30144522903474
 20
6.57314512024674
 30
0.0
 40
0.100000000000001
 50
269.999999999999
 51
89.9999999999998
  0
ARC
  8
1
  6
CONTINUOUS
 62
1
 10
5.30144522903474
 20
6.57314512024674
 30
0.0
 40
0.100000000000001
 50
89.9999999999998
 51
270
  0
ARC
  8
1
  6
CONTINUOUS
 62
1
 10
2.63453530735605
 20
3.17311040557752
 30
0.0
 40
0.0999999999999996
 50
269.999999999999
 51
89.9999999999998
  0
ARC
  8
1
  6
CONTINUOUS
 62
1
 10
2.63453530735605
 20
3.17311040557752
 30
0.0
 40
0.0999999999999996
 50
89.9999999999998
 51
270
  0
LINE
  8
1
  6
CONTINUOUS
 62
1
 10
0.526486907378946
 20
-0.00186460126177934
 30
0.0
 11
0.526486907378946
 21
0.498135398738221
 31
0.0
  0
LINE
  8
1
  6
CONTINUOUS
 62
1
 10
0.526486907378946
 20
0.498135398738221
 30
0.0
 11
0.0264869073789455
 21
0.498135398738221
 31
0.0
  0
LINE
  8
1
  6
CONTINUOUS
 62
1
 10
0.0264869073789455
 20
0.498135398738221
 30
0.0
 11
0.0264869073789455
 21
-0.00186460126177956
 31
0.0
  0
LINE
  8
1
  6
CONTINUOUS
 62
1
 10
0.0264869073789455
 20
-0.00186460126177956
 30
0.0
 11
0.526486907378946
 21
-0.00186460126177934
 31
0.0
  0
LINE
  8
1
  6
CONTINUOUS
 62
1
 10
0.526486914777141
 20
17.4981353987378
 30
0.0
 11
0.526486914777141
 21
17.9981353987378
 31
0.0
  0
LINE
  8
1
  6
CONTINUOUS
 62
1
 10
0.526486914777141
 20
17.9981353987378
 30
0.0
 11
0.0264869147771414
 21
17.9981353987378
 31
0.0
  0
LINE
  8
1
  6
CONTINUOUS
 62
1
 10
0.0264869147771414
 20
17.9981353987378
 30
0.0
 11
0.0264869147771414
 21
17.4981353987378
 31
0.0
  0
LINE
  8
1
  6
CONTINUOUS
 62
1
 10
0.0264869147771414
 20
17.4981353987378
 30
0.0
 11
0.526486914777141
 21
17.4981353987378
 31
0.0
  0
ENDSEC
  0
EOF
