  0
SECTION
  2
HEADER
  9
$ACADVER
  1
AC1003
  9
$EXTMIN
 10
-0.00889271371202227
 20
18.0335150124307
  9
$EXTMAX
 10
18.491107286288
 20
0.0335150124307287
  9
$INSBASE
 10
9.241107286288
 20
9.03351501243072
999
Created with OMAX Layout for Windows. (http://www.omax.com) 9/12/2012
  0
ENDSEC
  0
SECTION
  2
TABLES
  0
TABLE
  2
LAYER
 70
    10
  0
LAYER
  2
0
 70
     0
 62
     7
  6
CONTINUOUS
  0
LAYER
  2
1
 70
     0
 62
     7
  6
CONTINUOUS
  0
LAYER
  2
2
 70
     0
 62
     7
  6
CONTINUOUS
  0
LAYER
  2
3
 70
     0
 62
     7
  6
CONTINUOUS
  0
LAYER
  2
4
 70
     0
 62
     7
  6
CONTINUOUS
  0
LAYER
  2
5
 70
     0
 62
     7
  6
CONTINUOUS
  0
LAYER
  2
6
 70
     0
 62
     7
  6
CONTINUOUS
  0
LAYER
  2
7
 70
     0
 62
     7
  6
CONTINUOUS
  0
LAYER
  2
8
 70
     0
 62
     7
  6
CONTINUOUS
  0
LAYER
  2
9
 70
     0
 62
     7
  6
CONTINUOUS
  0
LAYER
  2
10
 70
     0
 62
     7
  6
CONTINUOUS
  0
LAYER
  2
11
 70
     0
 62
     7
  6
CONTINUOUS
  0
LAYER
  2
12
 70
     0
 62
     7
  6
CONTINUOUS
  0
LAYER
  2
13
 70
     0
 62
     7
  6
CONTINUOUS
  0
LAYER
  2
14
 70
     0
 62
     7
  6
CONTINUOUS
  0
LAYER
  2
15
 70
     0
 62
     7
  6
CONTINUOUS
  0
LAYER
  2
16
 70
     0
 62
     7
  6
CONTINUOUS
  0
LAYER
  2
17
 70
     0
 62
     7
  6
CONTINUOUS
  0
LAYER
  2
18
 70
     0
 62
     7
  6
CONTINUOUS
  0
LAYER
  2
19
 70
     0
 62
     7
  6
CONTINUOUS
  0
LAYER
  2
20
 70
     0
 62
     7
  6
CONTINUOUS
  0
LAYER
  2
21
 70
     0
 62
     7
  6
CONTINUOUS
  0
LAYER
  2
22
 70
     0
 62
     7
  6
CONTINUOUS
  0
LAYER
  2
23
 70
     0
 62
     7
  6
CONTINUOUS
  0
LAYER
  2
24
 70
     0
 62
     7
  6
CONTINUOUS
  0
LAYER
  2
25
 70
     0
 62
     7
  6
CONTINUOUS
  0
LAYER
  2
26
 70
     0
 62
     7
  6
CONTINUOUS
  0
LAYER
  2
27
 70
     0
 62
     7
  6
CONTINUOUS
  0
LAYER
  2
28
 70
     0
 62
     7
  6
CONTINUOUS
  0
LAYER
  2
29
 70
     0
 62
     7
  6
CONTINUOUS
  0
LAYER
  2
30
 70
     0
 62
     7
  6
CONTINUOUS
  0
LAYER
  2
31
 70
     0
 62
     7
  6
CONTINUOUS
  0
ENDTAB
  0
ENDSEC
  0
SECTION
  2
ENTITIES
  0
LINE
  8
1
  6
CONTINUOUS
 62
1
 10
-0.00889271371201872
 20
0.0335150124307287
 30
0.0
 11
-0.00889271371202227
 21
18.0335150124307
 31
0.0
  0
LINE
  8
1
  6
CONTINUOUS
 62
1
 10
-0.00889271371202227
 20
18.0335150124307
 30
0.0
 11
18.491107286288
 21
18.0335150124307
 31
0.0
  0
LINE
  8
1
  6
CONTINUOUS
 62
1
 10
18.491107286288
 20
18.0335150124307
 30
0.0
 11
18.491107286288
 21
0.0335150124307333
 31
0.0
  0
LINE
  8
1
  6
CONTINUOUS
 62
1
 10
18.491107286288
 20
0.0335150124307333
 30
0.0
 11
-0.00889271371201872
 21
0.0335150124307287
 31
0.0
  0
ARC
  8
1
  6
CONTINUOUS
 62
1
 10
3.99110728628798
 20
1.2545484713858
 30
0.0
 40
0.178
 50
269.999999999999
 51
89.9999999999998
  0
ARC
  8
1
  6
CONTINUOUS
 62
1
 10
3.99110728628798
 20
1.2545484713858
 30
0.0
 40
0.178
 50
89.9999999999998
 51
270
  0
ARC
  8
1
  6
CONTINUOUS
 62
1
 10
15.991107286288
 20
1.25451501243073
 30
0.0
 40
0.178
 50
269.999999999999
 51
89.9999999999998
  0
ARC
  8
1
  6
CONTINUOUS
 62
1
 10
15.991107286288
 20
1.25451501243073
 30
0.0
 40
0.178
 50
89.9999999999998
 51
270
  0
ARC
  8
1
  6
CONTINUOUS
 62
1
 10
3.99110728628798
 20
16.8125484713858
 30
0.0
 40
0.178000000000001
 50
269.999999999999
 51
89.9999999999998
  0
ARC
  8
1
  6
CONTINUOUS
 62
1
 10
3.99110728628798
 20
16.8125484713858
 30
0.0
 40
0.178000000000001
 50
89.9999999999998
 51
270
  0
ARC
  8
1
  6
CONTINUOUS
 62
1
 10
15.991107286288
 20
16.8125150124307
 30
0.0
 40
0.177999999999999
 50
269.999999999999
 51
89.9999999999998
  0
ARC
  8
1
  6
CONTINUOUS
 62
1
 10
15.991107286288
 20
16.8125150124307
 30
0.0
 40
0.177999999999999
 50
89.9999999999998
 51
270
  0
ARC
  8
1
  6
CONTINUOUS
 62
1
 10
5.16610728628798
 20
5.02851501243066
 30
0.0
 40
0.31548316101305
 50
269.999999999999
 51
89.9999999999998
  0
ARC
  8
1
  6
CONTINUOUS
 62
1
 10
5.16610728628798
 20
5.02851501243066
 30
0.0
 40
0.31548316101305
 50
89.9999999999998
 51
270
  0
ARC
  8
1
  6
CONTINUOUS
 62
1
 10
13.2226072862881
 20
13.0425150124307
 30
0.0
 40
0.3154831610131
 50
269.999999999999
 51
89.9999999999998
  0
ARC
  8
1
  6
CONTINUOUS
 62
1
 10
13.2226072862881
 20
13.0425150124307
 30
0.0
 40
0.3154831610131
 50
89.9999999999998
 51
270
  0
ARC
  8
1
  6
CONTINUOUS
 62
1
 10
13.7226072862881
 20
14.7425150124307
 30
0.0
 40
0.0999999999999996
 50
269.999999999999
 51
89.9999999999998
  0
ARC
  8
1
  6
CONTINUOUS
 62
1
 10
13.7226072862881
 20
14.7425150124307
 30
0.0
 40
0.0999999999999996
 50
89.9999999999998
 51
270
  0
ARC
  8
1
  6
CONTINUOUS
 62
1
 10
13.7226072862881
 20
11.3425150124307
 30
0.0
 40
0.100000000000001
 50
269.999999999999
 51
89.9999999999998
  0
ARC
  8
1
  6
CONTINUOUS
 62
1
 10
13.7226072862881
 20
11.3425150124307
 30
0.0
 40
0.100000000000001
 50
89.9999999999998
 51
270
  0
ARC
  8
1
  6
CONTINUOUS
 62
1
 10
11.0556072862881
 20
14.7425150124307
 30
0.0
 40
0.0999999999999996
 50
269.999999999999
 51
89.9999999999998
  0
ARC
  8
1
  6
CONTINUOUS
 62
1
 10
11.0556072862881
 20
14.7425150124307
 30
0.0
 40
0.0999999999999996
 50
89.9999999999998
 51
270
  0
ARC
  8
1
  6
CONTINUOUS
 62
1
 10
5.66610728628798
 20
3.32851501243073
 30
0.0
 40
0.0999999999999996
 50
269.999999999999
 51
89.9999999999998
  0
ARC
  8
1
  6
CONTINUOUS
 62
1
 10
5.66610728628798
 20
3.32851501243073
 30
0.0
 40
0.0999999999999996
 50
89.9999999999998
 51
270
  0
ARC
  8
1
  6
CONTINUOUS
 62
1
 10
5.66606561534188
 20
6.72852473393961
 30
0.0
 40
0.0999999999999996
 50
269.999999999999
 51
89.9999999999998
  0
ARC
  8
1
  6
CONTINUOUS
 62
1
 10
5.66606561534188
 20
6.72852473393961
 30
0.0
 40
0.0999999999999996
 50
89.9999999999998
 51
270
  0
ARC
  8
1
  6
CONTINUOUS
 62
1
 10
2.99915569366308
 20
3.32849001927039
 30
0.0
 40
0.100000000000001
 50
269.999999999999
 51
89.9999999999998
  0
ARC
  8
1
  6
CONTINUOUS
 62
1
 10
2.99915569366308
 20
3.32849001927039
 30
0.0
 40
0.100000000000001
 50
89.9999999999998
 51
270
  0
LINE
  8
1
  6
CONTINUOUS
 62
1
 10
0.491107293686081
 20
0.0335150124310886
 30
0.0
 11
0.491107293686081
 21
0.533515012431089
 31
0.0
  0
LINE
  8
1
  6
CONTINUOUS
 62
1
 10
0.491107293686081
 20
0.533515012431089
 30
0.0
 11
-0.00889270631391881
 21
0.533515012431089
 31
0.0
  0
LINE
  8
1
  6
CONTINUOUS
 62
1
 10
-0.00889270631391881
 20
0.533515012431089
 30
0.0
 11
-0.00889270631391881
 21
0.0335150124310883
 31
0.0
  0
LINE
  8
1
  6
CONTINUOUS
 62
1
 10
-0.00889270631391881
 20
0.0335150124310883
 30
0.0
 11
0.491107293686081
 21
0.0335150124310886
 31
0.0
  0
LINE
  8
1
  6
CONTINUOUS
 62
1
 10
0.491107301084277
 20
17.5335150124307
 30
0.0
 11
0.491107301084277
 21
18.0335150124307
 31
0.0
  0
LINE
  8
1
  6
CONTINUOUS
 62
1
 10
0.491107301084277
 20
18.0335150124307
 30
0.0
 11
-0.00889269891572297
 21
18.0335150124307
 31
0.0
  0
LINE
  8
1
  6
CONTINUOUS
 62
1
 10
-0.00889269891572297
 20
18.0335150124307
 30
0.0
 11
-0.00889269891572297
 21
17.5335150124307
 31
0.0
  0
LINE
  8
1
  6
CONTINUOUS
 62
1
 10
-0.00889269891572297
 20
17.5335150124307
 30
0.0
 11
0.491107301084277
 21
17.5335150124307
 31
0.0
  0
ENDSEC
  0
EOF
