  0
SECTION
  2
HEADER
  9
$ACADVER
  1
AC1003
  9
$EXTMIN
 10
-0.00996888651653727
 20
18.016624526587
  9
$EXTMAX
 10
18.4907962438382
 20
0.0145160048958708
  9
$INSBASE
 10
9.24041367866082
 20
9.01557026574145
999
Created with OMAX Layout for Windows. (http://www.omax.com) 12/15/2012
  0
ENDSEC
  0
SECTION
  2
TABLES
  0
TABLE
  2
LAYER
 70
    10
  0
LAYER
  2
0
 70
     0
 62
     7
  6
CONTINUOUS
  0
LAYER
  2
1
 70
     0
 62
     7
  6
CONTINUOUS
  0
LAYER
  2
2
 70
     0
 62
     7
  6
CONTINUOUS
  0
LAYER
  2
3
 70
     0
 62
     7
  6
CONTINUOUS
  0
LAYER
  2
4
 70
     0
 62
     7
  6
CONTINUOUS
  0
LAYER
  2
5
 70
     0
 62
     7
  6
CONTINUOUS
  0
LAYER
  2
6
 70
     0
 62
     7
  6
CONTINUOUS
  0
LAYER
  2
7
 70
     0
 62
     7
  6
CONTINUOUS
  0
LAYER
  2
8
 70
     0
 62
     7
  6
CONTINUOUS
  0
LAYER
  2
9
 70
     0
 62
     7
  6
CONTINUOUS
  0
LAYER
  2
10
 70
     0
 62
     7
  6
CONTINUOUS
  0
LAYER
  2
11
 70
     0
 62
     7
  6
CONTINUOUS
  0
LAYER
  2
12
 70
     0
 62
     7
  6
CONTINUOUS
  0
LAYER
  2
13
 70
     0
 62
     7
  6
CONTINUOUS
  0
LAYER
  2
14
 70
     0
 62
     7
  6
CONTINUOUS
  0
LAYER
  2
15
 70
     0
 62
     7
  6
CONTINUOUS
  0
LAYER
  2
16
 70
     0
 62
     7
  6
CONTINUOUS
  0
LAYER
  2
17
 70
     0
 62
     7
  6
CONTINUOUS
  0
LAYER
  2
18
 70
     0
 62
     7
  6
CONTINUOUS
  0
LAYER
  2
19
 70
     0
 62
     7
  6
CONTINUOUS
  0
LAYER
  2
20
 70
     0
 62
     7
  6
CONTINUOUS
  0
LAYER
  2
21
 70
     0
 62
     7
  6
CONTINUOUS
  0
LAYER
  2
22
 70
     0
 62
     7
  6
CONTINUOUS
  0
LAYER
  2
23
 70
     0
 62
     7
  6
CONTINUOUS
  0
LAYER
  2
24
 70
     0
 62
     7
  6
CONTINUOUS
  0
LAYER
  2
25
 70
     0
 62
     7
  6
CONTINUOUS
  0
LAYER
  2
26
 70
     0
 62
     7
  6
CONTINUOUS
  0
LAYER
  2
27
 70
     0
 62
     7
  6
CONTINUOUS
  0
LAYER
  2
28
 70
     0
 62
     7
  6
CONTINUOUS
  0
LAYER
  2
29
 70
     0
 62
     7
  6
CONTINUOUS
  0
LAYER
  2
30
 70
     0
 62
     7
  6
CONTINUOUS
  0
LAYER
  2
31
 70
     0
 62
     7
  6
CONTINUOUS
  0
ENDTAB
  0
ENDSEC
  0
SECTION
  2
ENTITIES
  0
LINE
  8
1
  6
CONTINUOUS
 62
1
 10
-0.00920376319723637
 20
0.0145925631048485
 30
0.0
 11
-0.00920376319723992
 21
18.0145925631048
 31
0.0
  0
LINE
  8
1
  6
CONTINUOUS
 62
1
 10
-0.00920376319723992
 20
18.0145925631048
 30
0.0
 11
18.4907962368028
 21
18.0145925631048
 31
0.0
  0
LINE
  8
1
  6
CONTINUOUS
 62
1
 10
18.4907962368028
 20
18.0145925631048
 30
0.0
 11
18.4907962368028
 21
0.014592563104852
 31
0.0
  0
LINE
  8
1
  6
CONTINUOUS
 62
1
 10
18.4907962368028
 20
0.014592563104852
 30
0.0
 11
-0.00920376319723637
 21
0.0145925631048485
 31
0.0
  0
ARC
  8
1
  6
CONTINUOUS
 62
1
 10
3.99079623680277
 20
1.23562602205992
 30
0.0
 40
0.177999999999999
 50
269.999999999999
 51
89.9999999999998
  0
ARC
  8
1
  6
CONTINUOUS
 62
1
 10
3.99079623680276
 20
1.23562602205992
 30
0.0
 40
0.177999999999999
 50
89.9999999999998
 51
270
  0
ARC
  8
1
  6
CONTINUOUS
 62
1
 10
15.9907962368028
 20
1.23559256310485
 30
0.0
 40
0.178000000000001
 50
269.999999999999
 51
89.9999999999998
  0
ARC
  8
1
  6
CONTINUOUS
 62
1
 10
15.9907962368028
 20
1.23559256310485
 30
0.0
 40
0.178000000000001
 50
89.9999999999998
 51
270
  0
ARC
  8
1
  6
CONTINUOUS
 62
1
 10
3.99079623680276
 20
16.7936260220599
 30
0.0
 40
0.178000000000001
 50
269.999999999999
 51
89.9999999999998
  0
ARC
  8
1
  6
CONTINUOUS
 62
1
 10
3.99079623680276
 20
16.7936260220599
 30
0.0
 40
0.178000000000001
 50
89.9999999999998
 51
270
  0
ARC
  8
1
  6
CONTINUOUS
 62
1
 10
15.9907962368028
 20
16.7935925631048
 30
0.0
 40
0.178000000000051
 50
269.999999999999
 51
89.9999999999998
  0
ARC
  8
1
  6
CONTINUOUS
 62
1
 10
15.9907962368028
 20
16.7935925631048
 30
0.0
 40
0.178000000000051
 50
89.9999999999998
 51
270
  0
ARC
  8
6
  6
CONTINUOUS
 62
6
 10
6.96999623680277
 20
4.99259256310478
 30
0.0
 40
0.31548316101305
 50
269.999999999999
 51
89.9999999999998
  0
ARC
  8
6
  6
CONTINUOUS
 62
6
 10
6.96999623680276
 20
4.99259256310478
 30
0.0
 40
0.31548316101305
 50
89.9999999999998
 51
270
  0
ARC
  8
6
  6
CONTINUOUS
 62
6
 10
15.0264962368028
 20
13.0065925631048
 30
0.0
 40
0.315483161013098
 50
269.999999999999
 51
89.9999999999998
  0
ARC
  8
6
  6
CONTINUOUS
 62
6
 10
15.0264962368028
 20
13.0065925631048
 30
0.0
 40
0.315483161013098
 50
89.9999999999998
 51
270
  0
ARC
  8
1
  6
CONTINUOUS
 62
1
 10
15.8389962368028
 20
14.5815925631048
 30
0.0
 40
0.0999999999999996
 50
269.999999999999
 51
89.9999999999998
  0
ARC
  8
1
  6
CONTINUOUS
 62
1
 10
15.8389962368028
 20
14.5815925631048
 30
0.0
 40
0.0999999999999996
 50
89.9999999999998
 51
270
  0
ARC
  8
1
  6
CONTINUOUS
 62
1
 10
15.8389962368028
 20
11.0566425631048
 30
0.0
 40
0.0999999999999996
 50
269.999999999999
 51
89.9999999999998
  0
ARC
  8
1
  6
CONTINUOUS
 62
1
 10
15.8389962368028
 20
11.0566425631048
 30
0.0
 40
0.0999999999999996
 50
89.9999999999998
 51
270
  0
ARC
  8
1
  6
CONTINUOUS
 62
1
 10
13.1719962368029
 20
14.5815925631048
 30
0.0
 40
0.0999999999999996
 50
269.999999999999
 51
89.9999999999998
  0
ARC
  8
1
  6
CONTINUOUS
 62
1
 10
13.1719962368029
 20
14.5815925631048
 30
0.0
 40
0.0999999999999996
 50
89.9999999999998
 51
270
  0
ARC
  8
1
  6
CONTINUOUS
 62
1
 10
7.46999623680276
 20
3.44759256310485
 30
0.0
 40
0.0999999999999996
 50
269.999999999999
 51
89.9999999999998
  0
ARC
  8
1
  6
CONTINUOUS
 62
1
 10
7.46999623680276
 20
3.44759256310485
 30
0.0
 40
0.0999999999999996
 50
89.9999999999998
 51
270
  0
ARC
  8
1
  6
CONTINUOUS
 62
1
 10
7.46995456585666
 20
6.97260228461373
 30
0.0
 40
0.0999999999999996
 50
269.999999999999
 51
89.9999999999998
  0
ARC
  8
1
  6
CONTINUOUS
 62
1
 10
7.46995456585666
 20
6.97260228461373
 30
0.0
 40
0.0999999999999996
 50
89.9999999999998
 51
270
  0
ARC
  8
1
  6
CONTINUOUS
 62
1
 10
4.80304464417797
 20
3.44756756994451
 30
0.0
 40
0.100000000000001
 50
269.999999999999
 51
89.9999999999998
  0
ARC
  8
1
  6
CONTINUOUS
 62
1
 10
4.80304464417796
 20
3.44756756994451
 30
0.0
 40
0.100000000000001
 50
89.9999999999998
 51
270
  0
LINE
  8
1
  6
CONTINUOUS
 62
1
 10
0.490796244200864
 20
0.0145925631052073
 30
0.0
 11
0.490031113483463
 21
0.340592001636566
 31
0.0
  0
LINE
  8
1
  6
CONTINUOUS
 62
1
 10
0.490031113483463
 20
0.340592001636566
 30
0.0
 11
-0.00996888651653727
 21
0.340592001636566
 31
0.0
  0
LINE
  8
1
  6
CONTINUOUS
 62
1
 10
-0.00996888651653727
 20
0.340592001636566
 30
0.0
 11
-0.00920375579913646
 21
0.0145925631052073
 31
0.0
  0
LINE
  8
1
  6
CONTINUOUS
 62
1
 10
-0.00920375579913646
 20
0.0145925631052073
 30
0.0
 11
0.490796244200864
 21
0.0145925631052073
 31
0.0
  0
LINE
  8
1
  6
CONTINUOUS
 62
1
 10
-0.00920376319723992
 20
18.0145925631048
 30
0.0
 11
-0.00920376319723637
 21
9.01459256310482
 31
0.0
  0
LINE
  8
1
  6
CONTINUOUS
 62
1
 10
0.490891836555358
 20
17.6901556435101
 30
0.0
 11
0.490920152561559
 21
18.0161556422803
 31
0.0
  0
LINE
  8
1
  6
CONTINUOUS
 62
1
 10
0.490920152561559
 20
18.0161556422803
 30
0.0
 11
-0.00907980671164133
 21
18.016624526587
 31
0.0
  0
LINE
  8
1
  6
CONTINUOUS
 62
1
 10
-0.00907980671164133
 20
18.016624526587
 30
0.0
 11
-0.00854891359954202
 21
17.6906249588687
 31
0.0
  0
LINE
  8
1
  6
CONTINUOUS
 62
1
 10
-0.00854891359954202
 20
17.6906249588687
 30
0.0
 11
0.490891836555358
 21
17.6901556435101
 31
0.0
  0
LINE
  8
1
  6
CONTINUOUS
 62
1
 10
18.4907962368028
 20
0.014592563104852
 30
0.0
 11
18.4903238777314
 21
0.327090778094632
 31
0.0
  0
LINE
  8
1
  6
CONTINUOUS
 62
1
 10
18.4903238777314
 20
0.327090778094632
 30
0.0
 11
17.9503225134895
 21
0.327014219885641
 31
0.0
  0
LINE
  8
1
  6
CONTINUOUS
 62
1
 10
17.9503225134895
 20
0.327014219885641
 30
0.0
 11
17.9507948725609
 21
0.0145160048958708
 31
0.0
  0
LINE
  8
1
  6
CONTINUOUS
 62
1
 10
17.9507948725609
 20
0.0145160048958708
 30
0.0
 11
18.4907962368028
 21
0.014592563104852
 31
0.0
  0
LINE
  8
1
  6
CONTINUOUS
 62
1
 10
18.4907089757208
 20
17.7017962860051
 30
0.0
 11
18.4907962438382
 21
18.0142962250793
 31
0.0
  0
LINE
  8
1
  6
CONTINUOUS
 62
1
 10
18.4907962438382
 20
18.0142962250793
 30
0.0
 11
17.9508001627915
 21
18.0133251816232
 31
0.0
  0
LINE
  8
1
  6
CONTINUOUS
 62
1
 10
17.9508001627915
 20
18.0133251816232
 30
0.0
 11
17.9507128946741
 21
17.700825242549
 31
0.0
  0
LINE
  8
1
  6
CONTINUOUS
 62
1
 10
17.9507128946741
 20
17.700825242549
 30
0.0
 11
18.4907089757208
 21
17.7017962860051
 31
0.0
  0
ARC
  8
1
  6
CONTINUOUS
 62
1
 10
16.0708221380838
 20
3.82715564907176
 30
0.0
 40
0.127000000000001
 50
269.999999999999
 51
89.9999999999998
  0
ARC
  8
1
  6
CONTINUOUS
 62
1
 10
16.0708221380838
 20
3.82715564907176
 30
0.0
 40
0.127000000000001
 50
89.9999999999998
 51
270
  0
ARC
  8
1
  6
CONTINUOUS
 62
1
 10
16.0708311353122
 20
7.79115306873263
 30
0.0
 40
0.127000000000001
 50
269.999999999999
 51
89.9999999999998
  0
ARC
  8
1
  6
CONTINUOUS
 62
1
 10
16.0708311353122
 20
7.79115306873263
 30
0.0
 40
0.127000000000001
 50
89.9999999999998
 51
270
  0
ARC
  8
1
  6
CONTINUOUS
 62
1
 10
12.1067999598292
 20
3.81458984052037
 30
0.0
 40
0.127000000000004
 50
269.999999999999
 51
89.9999999999998
  0
ARC
  8
1
  6
CONTINUOUS
 62
1
 10
12.1067999598292
 20
3.81458984052037
 30
0.0
 40
0.127000000000004
 50
89.9999999999998
 51
270
  0
ARC
  8
1
  6
CONTINUOUS
 62
1
 10
12.1068089570577
 20
7.77858726018123
 30
0.0
 40
0.127000000000001
 50
269.999999999999
 51
89.9999999999998
  0
ARC
  8
1
  6
CONTINUOUS
 62
1
 10
12.1068089570577
 20
7.77858726018123
 30
0.0
 40
0.127000000000001
 50
89.9999999999998
 51
270
  0
LINE
  8
6
  6
CONTINUOUS
 62
6
 10
7.40497918444314
 20
16.9652812158651
 30
0.0
 11
7.40497918444314
 21
16.5452812158651
 31
0.0
  0
LINE
  8
6
  6
CONTINUOUS
 62
6
 10
7.40497918444314
 20
16.5452812158651
 30
0.0
 11
7.65127918444314
 21
16.5452812158651
 31
0.0
  0
LINE
  8
6
  6
CONTINUOUS
 62
6
 10
7.68127918444314
 20
16.9652812158651
 30
0.0
 11
7.74127915632864
 21
16.9652812158651
 31
0.0
  0
LINE
  8
6
  6
CONTINUOUS
 62
6
 10
7.74127915632864
 20
16.9652812158651
 30
0.0
 11
7.80127915632864
 21
16.9652812158651
 31
0.0
  0
LINE
  8
6
  6
CONTINUOUS
 62
6
 10
7.74127915632864
 20
16.9652812158651
 30
0.0
 11
7.74127915632864
 21
16.5452812158651
 31
0.0
  0
LINE
  8
6
  6
CONTINUOUS
 62
6
 10
7.68127918444314
 20
16.5452812158651
 30
0.0
 11
7.74127915632864
 21
16.5452812158651
 31
0.0
  0
LINE
  8
6
  6
CONTINUOUS
 62
6
 10
7.74127915632864
 20
16.5452812158651
 30
0.0
 11
7.80127915632864
 21
16.5452812158651
 31
0.0
  0
LINE
  8
6
  6
CONTINUOUS
 62
6
 10
7.83127915632864
 20
16.9652812158651
 30
0.0
 11
7.83127915632864
 21
16.5452812158651
 31
0.0
  0
LINE
  8
6
  6
CONTINUOUS
 62
6
 10
7.85377915632864
 20
16.5452812158651
 30
0.0
 11
7.94842903632864
 21
16.5452812158651
 31
0.0
  0
ARC
  8
6
  6
CONTINUOUS
 62
6
 10
7.93394057397091
 20
16.6990548313797
 30
0.0
 40
0.154454654736915
 50
275.382485884767
 51
335.613185884767
  0
ARC
  8
6
  6
CONTINUOUS
 62
6
 10
7.72020981683051
 20
16.7552813748451
 30
0.0
 40
0.374169422895456
 50
341.294099999999
 51
18.7059000000007
  0
ARC
  8
6
  6
CONTINUOUS
 62
6
 10
7.93394081997851
 20
16.8115077409042
 30
0.0
 40
0.154454514312294
 50
24.3869099871631
 51
84.6174899871631
  0
LINE
  8
6
  6
CONTINUOUS
 62
6
 10
7.94842933392005
 20
16.965281210512
 30
0.0
 11
7.85377915632864
 21
16.9652812158651
 31
0.0
  0
LINE
  8
6
  6
CONTINUOUS
 62
6
 10
8.45437927632865
 20
16.7552812158651
 30
0.0
 11
8.69437930632865
 21
16.7552812158651
 31
0.0
  0
LINE
  8
6
  6
CONTINUOUS
 62
6
 10
9.05437930632865
 20
16.9652812158651
 30
0.0
 11
9.18862930632865
 21
16.9652812158651
 31
0.0
  0
LINE
  8
6
  6
CONTINUOUS
 62
6
 10
9.18862930632865
 20
16.9652812158651
 30
0.0
 11
9.18862933632865
 21
16.5452812158651
 31
0.0
  0
LINE
  8
6
  6
CONTINUOUS
 62
6
 10
9.18862933632866
 20
16.9652812158651
 30
0.0
 11
9.32287930632865
 21
16.9652812158651
 31
0.0
  0
LINE
  8
6
  6
CONTINUOUS
 62
6
 10
9.35287930632865
 20
16.9652812158651
 30
0.0
 11
9.35287930632865
 21
16.7552812158651
 31
0.0
  0
LINE
  8
6
  6
CONTINUOUS
 62
6
 10
9.35287930632865
 20
16.7552812158651
 30
0.0
 11
9.35287930632865
 21
16.5452812158651
 31
0.0
  0
LINE
  8
6
  6
CONTINUOUS
 62
6
 10
9.35287930632865
 20
16.7552812158651
 30
0.0
 11
9.60787930632865
 21
16.7552812158651
 31
0.0
  0
LINE
  8
6
  6
CONTINUOUS
 62
6
 10
9.60787930632865
 20
16.5452812158651
 30
0.0
 11
9.60787930632865
 21
16.7552812158651
 31
0.0
  0
LINE
  8
6
  6
CONTINUOUS
 62
6
 10
9.60787930632865
 20
16.7552812158651
 30
0.0
 11
9.60787930632865
 21
16.9652812158651
 31
0.0
  0
LINE
  8
6
  6
CONTINUOUS
 62
6
 10
9.63787930632865
 20
16.9652812158651
 30
0.0
 11
9.69787927821415
 21
16.9652812158651
 31
0.0
  0
LINE
  8
6
  6
CONTINUOUS
 62
6
 10
9.69787927821415
 20
16.9652812158651
 30
0.0
 11
9.75787927821415
 21
16.9652812158651
 31
0.0
  0
LINE
  8
6
  6
CONTINUOUS
 62
6
 10
9.69787927821415
 20
16.9652812158651
 30
0.0
 11
9.69787927821415
 21
16.5452812158651
 31
0.0
  0
LINE
  8
6
  6
CONTINUOUS
 62
6
 10
9.63787930632865
 20
16.5452812158651
 30
0.0
 11
9.69787927821415
 21
16.5452812158651
 31
0.0
  0
LINE
  8
6
  6
CONTINUOUS
 62
6
 10
9.69787927821415
 20
16.5452812158651
 30
0.0
 11
9.75787927821415
 21
16.5452812158651
 31
0.0
  0
ARC
  8
6
  6
CONTINUOUS
 62
6
 10
9.93663425616158
 20
16.8437927658651
 30
0.0
 40
0.121071389999996
 50
30.5220199999994
 51
89.2984799999995
  0
LINE
  8
6
  6
CONTINUOUS
 62
6
 10
9.93811659709758
 20
16.9648550809838
 30
0.0
 11
9.90399026616158
 21
16.9652729358651
 31
0.0
  0
ARC
  8
6
  6
CONTINUOUS
 62
6
 10
9.90263704993309
 20
16.8547553169126
 30
0.0
 40
0.110525903267522
 50
89.2984855715482
 51
177.350705571549
  0
ARC
  8
6
  6
CONTINUOUS
 62
6
 10
9.88213209851067
 20
16.8680178477626
 30
0.0
 40
0.090271814622323
 50
185.182274255108
 51
239.344774255108
  0
LINE
  8
6
  6
CONTINUOUS
 62
6
 10
9.83610513404968
 20
16.7903614310431
 30
0.0
 11
10.0014033861616
 21
16.7193669258651
 31
0.0
  0
ARC
  8
6
  6
CONTINUOUS
 62
6
 10
9.95537650416032
 20
16.6417104995428
 30
0.0
 40
0.0902717808394171
 50
5.18223938609767
 51
59.3448223860977
  0
ARC
  8
6
  6
CONTINUOUS
 62
6
 10
9.93487155961618
 20
16.654973025634
 30
0.0
 40
0.11052587019469
 50
269.441077271097
 51
357.350677271099
  0
LINE
  8
6
  6
CONTINUOUS
 62
6
 10
9.93379339222329
 20
16.5444524142651
 30
0.0
 11
9.89099327616158
 21
16.5448699458651
 31
0.0
  0
ARC
  8
6
  6
CONTINUOUS
 62
6
 10
9.89217429112342
 20
16.6659355313027
 30
0.0
 40
0.121071345799372
 50
210.52198785121
 51
269.441087851211
  0
ARC
  8
6
  6
CONTINUOUS
 62
6
 10
10.5540342720929
 20
16.8437927658651
 30
0.0
 40
0.121071389999996
 50
30.5220199999994
 51
89.2984799999995
  0
LINE
  8
6
  6
CONTINUOUS
 62
6
 10
10.5555166130289
 20
16.9648550809838
 30
0.0
 11
10.5213902820929
 21
16.9652729358651
 31
0.0
  0
ARC
  8
6
  6
CONTINUOUS
 62
6
 10
10.5200370658644
 20
16.8547553169126
 30
0.0
 40
0.110525903267522
 50
89.2984855715482
 51
177.350705571549
  0
ARC
  8
6
  6
CONTINUOUS
 62
6
 10
10.4995321144419
 20
16.8680178477626
 30
0.0
 40
0.090271814622323
 50
185.182274255108
 51
239.344774255108
  0
LINE
  8
6
  6
CONTINUOUS
 62
6
 10
10.453505149981
 20
16.7903614310431
 30
0.0
 11
10.6188034020929
 21
16.7193669258651
 31
0.0
  0
ARC
  8
6
  6
CONTINUOUS
 62
6
 10
10.5727765200916
 20
16.6417104995428
 30
0.0
 40
0.0902717808394171
 50
5.18223938609767
 51
59.3448223860977
  0
ARC
  8
6
  6
CONTINUOUS
 62
6
 10
10.5522715755475
 20
16.654973025634
 30
0.0
 40
0.11052587019469
 50
269.441077271097
 51
357.350677271099
  0
LINE
  8
6
  6
CONTINUOUS
 62
6
 10
10.5511934081546
 20
16.5444524142651
 30
0.0
 11
10.5083932920929
 21
16.5448699458651
 31
0.0
  0
ARC
  8
6
  6
CONTINUOUS
 62
6
 10
10.5095743070547
 20
16.6659355313027
 30
0.0
 40
0.121071345799372
 50
210.52198785121
 51
269.441087851211
  0
LINE
  8
6
  6
CONTINUOUS
 62
6
 10
10.6926793100767
 20
16.9652812158651
 30
0.0
 11
10.7526792819622
 21
16.9652812158651
 31
0.0
  0
LINE
  8
6
  6
CONTINUOUS
 62
6
 10
10.7526792819622
 20
16.9652812158651
 30
0.0
 11
10.8126792819622
 21
16.9652812158651
 31
0.0
  0
LINE
  8
6
  6
CONTINUOUS
 62
6
 10
10.7526792819622
 20
16.9652812158651
 30
0.0
 11
10.7526792819622
 21
16.5452812158651
 31
0.0
  0
LINE
  8
6
  6
CONTINUOUS
 62
6
 10
10.6926793100767
 20
16.5452812158651
 30
0.0
 11
10.7526792819622
 21
16.5452812158651
 31
0.0
  0
LINE
  8
6
  6
CONTINUOUS
 62
6
 10
10.7526792819622
 20
16.5452812158651
 30
0.0
 11
10.8126792819622
 21
16.5452812158651
 31
0.0
  0
LINE
  8
6
  6
CONTINUOUS
 62
6
 10
10.8426792819622
 20
16.9652812158651
 30
0.0
 11
10.8426792819622
 21
16.5452812158651
 31
0.0
  0
LINE
  8
6
  6
CONTINUOUS
 62
6
 10
10.8651792819622
 20
16.5452812158651
 30
0.0
 11
10.9598291619622
 21
16.5452812158651
 31
0.0
  0
ARC
  8
6
  6
CONTINUOUS
 62
6
 10
10.9453406996045
 20
16.6990548313797
 30
0.0
 40
0.154454654736915
 50
275.382485884767
 51
335.613185884767
  0
ARC
  8
6
  6
CONTINUOUS
 62
6
 10
10.7316099424641
 20
16.7552813748451
 30
0.0
 40
0.374169422895456
 50
341.294099999999
 51
18.7059000000007
  0
ARC
  8
6
  6
CONTINUOUS
 62
6
 10
10.9453409456121
 20
16.8115077409042
 30
0.0
 40
0.154454514312294
 50
24.3869099871631
 51
84.6174899871631
  0
LINE
  8
6
  6
CONTINUOUS
 62
6
 10
10.9598294595536
 20
16.965281210512
 30
0.0
 11
10.8651792819622
 21
16.9652812158651
 31
0.0
  0
LINE
  8
6
  6
CONTINUOUS
 62
6
 10
11.1357794019622
 20
16.9652812158651
 30
0.0
 11
11.1360794019622
 21
16.5452812158652
 31
0.0
  0
LINE
  8
6
  6
CONTINUOUS
 62
6
 10
11.1360794019622
 20
16.5452812158652
 30
0.0
 11
11.3823794019622
 21
16.5452812158652
 31
0.0
  0
LINE
  8
6
  6
CONTINUOUS
 62
6
 10
11.1360794019622
 20
16.7552812158652
 30
0.0
 11
11.3283794019622
 21
16.7552812158652
 31
0.0
  0
LINE
  8
6
  6
CONTINUOUS
 62
6
 10
11.1432794038755
 20
16.9652812158651
 30
0.0
 11
11.1432794000489
 21
16.9652865730066
 31
0.0
  0
LINE
  8
6
  6
CONTINUOUS
 62
6
 10
11.1432794000489
 20
16.9652865730066
 30
0.0
 11
11.3823794019622
 21
16.9652812158651
 31
0.0
  0
LINE
  8
6
  6
CONTINUOUS
 62
6
 10
11.7423794019622
 20
16.9652812158651
 30
0.0
 11
11.7423794019622
 21
16.6652811858651
 31
0.0
  0
ARC
  8
6
  6
CONTINUOUS
 62
6
 10
11.8653940084077
 20
16.6655811576403
 30
0.0
 40
0.123014972186392
 50
180.139715787557
 51
270.698715787557
  0
ARC
  8
6
  6
CONTINUOUS
 62
6
 10
11.8653940419622
 20
16.6655811858651
 30
0.0
 40
0.123014999999997
 50
270.698699999994
 51
1.25769999999901
  0
LINE
  8
6
  6
CONTINUOUS
 62
6
 10
11.9883794059685
 20
16.6682812720184
 30
0.0
 11
11.9883794019622
 21
16.9652812158651
 31
0.0
  0
LINE
  8
6
  6
CONTINUOUS
 62
6
 10
12.0183794019622
 20
16.9652812158651
 30
0.0
 11
12.0183794019622
 21
16.5452812158651
 31
0.0
  0
LINE
  8
6
  6
CONTINUOUS
 62
6
 10
12.0408794019622
 20
16.9652812158651
 30
0.0
 11
12.1707794019622
 21
16.9652812158651
 31
0.0
  0
ARC
  8
6
  6
CONTINUOUS
 62
6
 10
12.1707794019622
 20
16.8602812158651
 30
0.0
 40
0.105
 50
359.995599999999
 51
90.000000000001
  0
ARC
  8
6
  6
CONTINUOUS
 62
6
 10
12.1707794019622
 20
16.8602812158651
 30
0.0
 40
0.105000000000005
 50
269.991199999995
 51
359.995599999997
  0
LINE
  8
6
  6
CONTINUOUS
 62
6
 10
12.17076327512
 20
16.7552812171036
 30
0.0
 11
12.0408794019622
 21
16.7552812158651
 31
0.0
  0
LINE
  8
6
  6
CONTINUOUS
 62
6
 10
1.05570472078292
 20
6.15726250780907
 30
0.0
 11
1.05560782505041
 21
6.21726240145463
 31
0.0
  0
LINE
  8
6
  6
CONTINUOUS
 62
6
 10
1.05560782505041
 20
6.21726240145463
 30
0.0
 11
1.05551092927249
 21
6.27726232321465
 31
0.0
  0
LINE
  8
6
  6
CONTINUOUS
 62
6
 10
1.05560782505041
 20
6.21726240145463
 30
0.0
 11
1.47560727737053
 21
6.21794067190005
 31
0.0
  0
LINE
  8
6
  6
CONTINUOUS
 62
6
 10
1.47570417310305
 20
6.1579407782545
 30
0.0
 11
1.47560727737053
 21
6.21794067190005
 31
0.0
  0
LINE
  8
6
  6
CONTINUOUS
 62
6
 10
1.47560727737053
 20
6.21794067190005
 30
0.0
 11
1.47551038159261
 21
6.27794059366007
 31
0.0
  0
LINE
  8
6
  6
CONTINUOUS
 62
6
 10
1.47545951130921
 20
6.30944055258408
 30
0.0
 11
1.05546005898909
 21
6.30876228213865
 31
0.0
  0
LINE
  8
6
  6
CONTINUOUS
 62
6
 10
1.05546005898909
 20
6.30876228213865
 30
0.0
 11
1.47504382842194
 21
6.56684021693455
 31
0.0
  0
LINE
  8
6
  6
CONTINUOUS
 62
6
 10
1.47504382842194
 20
6.56684021693455
 30
0.0
 11
1.05504437610182
 21
6.56616194648913
 31
0.0
  0
ARC
  8
6
  6
CONTINUOUS
 62
6
 10
1.17624399097016
 20
6.74511288663797
 30
0.0
 40
0.121071389999995
 50
120.614548692341
 51
179.391008692341
  0
LINE
  8
6
  6
CONTINUOUS
 62
6
 10
1.05517943984046
 20
6.746399718521
 30
0.0
 11
1.05481669712703
 21
6.7122727572795
 31
0.0
  0
ARC
  8
6
  6
CONTINUOUS
 62
6
 10
1.16533635731362
 20
6.71109802099329
 30
0.0
 40
0.110525903267523
 50
179.391014263889
 51
267.44323426389
  0
ARC
  8
6
  6
CONTINUOUS
 62
6
 10
1.15210695781162
 20
6.69057167825527
 30
0.0
 40
0.090271814622322
 50
275.27480294745
 51
329.43730294745
  0
LINE
  8
6
  6
CONTINUOUS
 62
6
 10
1.22983760357596
 20
6.64467018346189
 30
0.0
 11
1.30056507113163
 21
6.81008287115504
 31
0.0
  0
ARC
  8
6
  6
CONTINUOUS
 62
6
 10
1.37829572636566
 20
6.7641814588368
 30
0.0
 40
0.090271780839417
 50
95.2747680784381
 51
149.437351078438
  0
ARC
  8
6
  6
CONTINUOUS
 62
6
 10
1.36506633161127
 20
6.74365512298473
 30
0.0
 40
0.11052587019469
 50
359.533605963439
 51
87.443205963441
  0
LINE
  8
6
  6
CONTINUOUS
 62
6
 10
1.47558854002585
 20
6.742755440008
 30
0.0
 11
1.47524012814593
 21
6.69995470547348
 31
0.0
  0
ARC
  8
6
  6
CONTINUOUS
 62
6
 10
1.35417279332183
 20
6.70094020649395
 30
0.0
 40
0.121071345799373
 50
300.614516543551
 51
359.533616543551
  0
LINE
  8
6
  6
CONTINUOUS
 62
6
 10
1.05453179741091
 20
6.88356154853088
 30
0.0
 11
1.47453076525211
 21
6.8845398185851
 31
0.0
  0
LINE
  8
6
  6
CONTINUOUS
 62
6
 10
1.47453076525211
 20
6.8845398185851
 30
0.0
 11
1.47413300808376
 21
7.13083949740997
 31
0.0
  0
LINE
  8
6
  6
CONTINUOUS
 62
6
 10
1.26453103909205
 20
6.88420068336239
 30
0.0
 11
1.26422048812382
 21
7.07650043260324
 31
0.0
  0
LINE
  8
6
  6
CONTINUOUS
 62
6
 10
1.05451968543558
 20
6.89106154066414
 30
0.0
 11
1.05451432830725
 21
6.89106152818621
 31
0.0
  0
LINE
  8
6
  6
CONTINUOUS
 62
6
 10
1.05451432830725
 20
6.89106152818621
 30
0.0
 11
1.05413355576366
 21
7.13016122696455
 31
0.0
  0
LINE
  8
6
  6
CONTINUOUS
 62
6
 10
1.0540851078747
 20
7.16016118784456
 30
0.0
 11
1.47408456019483
 21
7.16083945828998
 31
0.0
  0
LINE
  8
6
  6
CONTINUOUS
 62
6
 10
1.05404877195799
 20
7.18266115850456
 30
0.0
 11
1.05383899259879
 21
7.312560989115
 31
0.0
  0
ARC
  8
6
  6
CONTINUOUS
 62
6
 10
1.15883885567883
 20
7.31273055672636
 30
0.0
 40
0.105000000000006
 50
90.0881286923429
 51
180.092528692345
  0
ARC
  8
6
  6
CONTINUOUS
 62
6
 10
1.15883885567881
 20
7.31273055672636
 30
0.0
 40
0.105000000000012
 50
0.083728692332435
 51
90.0881286923344
  0
LINE
  8
6
  6
CONTINUOUS
 62
6
 10
1.26383874356412
 20
7.3128839975145
 30
0.0
 11
1.47366887730756
 21
7.41823912264045
 31
0.0
  0
LINE
  8
6
  6
CONTINUOUS
 62
6
 10
1.26404849811805
 20
7.18300029372727
 30
0.0
 11
1.26383874492072
 21
7.31288392435884
 31
0.0
  0
LINE
  8
6
  6
CONTINUOUS
 62
6
 10
1.05362097709848
 20
7.44756081307504
 30
0.0
 11
1.05340417279539
 21
7.58181063801308
 31
0.0
  0
LINE
  8
6
  6
CONTINUOUS
 62
6
 10
1.05340417279539
 20
7.58181063801308
 30
0.0
 11
1.47340362506706
 21
7.58248893845846
 31
0.0
  0
LINE
  8
6
  6
CONTINUOUS
 62
6
 10
1.05340417274693
 20
7.58181066801305
 30
0.0
 11
1.0531873684923
 21
7.71606046295112
 31
0.0
  0
LINE
  8
6
  6
CONTINUOUS
 62
6
 10
1.05260599382479
 20
8.07605999351122
 30
0.0
 11
1.0523891895217
 21
8.21030981844926
 31
0.0
  0
LINE
  8
6
  6
CONTINUOUS
 62
6
 10
1.0523891895217
 20
8.21030981844926
 30
0.0
 11
1.47238864179337
 21
8.21098811889465
 31
0.0
  0
LINE
  8
6
  6
CONTINUOUS
 62
6
 10
1.05238918947325
 20
8.21030984844924
 30
0.0
 11
1.05217238521861
 21
8.3445596433873
 31
0.0
  0
LINE
  8
6
  6
CONTINUOUS
 62
6
 10
1.05212393732965
 20
8.37455960426731
 30
0.0
 11
1.26212366348971
 21
8.37489873949002
 31
0.0
  0
LINE
  8
6
  6
CONTINUOUS
 62
6
 10
1.26212366348971
 20
8.37489873949002
 30
0.0
 11
1.47212338964977
 21
8.37523787471273
 31
0.0
  0
LINE
  8
6
  6
CONTINUOUS
 62
6
 10
1.26212366348971
 20
8.37489873949002
 30
0.0
 11
1.26171185643356
 21
8.6298984069701
 31
0.0
  0
LINE
  8
6
  6
CONTINUOUS
 62
6
 10
1.47171158259362
 20
8.63023754219281
 30
0.0
 11
1.26171185643356
 21
8.6298984069701
 31
0.0
  0
LINE
  8
6
  6
CONTINUOUS
 62
6
 10
1.26171185643356
 20
8.6298984069701
 30
0.0
 11
1.0517121302735
 21
8.62955927174739
 31
0.0
  0
LINE
  8
6
  6
CONTINUOUS
 62
6
 10
1.05166368238454
 20
8.65955923262739
 30
0.0
 11
1.05156678665203
 21
8.71955912627295
 31
0.0
  0
LINE
  8
6
  6
CONTINUOUS
 62
6
 10
1.05156678665203
 20
8.71955912627295
 30
0.0
 11
1.05146989087411
 21
8.77955904803297
 31
0.0
  0
LINE
  8
6
  6
CONTINUOUS
 62
6
 10
1.05156678665203
 20
8.71955912627295
 30
0.0
 11
1.47156623897215
 21
8.72023739671837
 31
0.0
  0
LINE
  8
6
  6
CONTINUOUS
 62
6
 10
1.47166313470466
 20
8.66023750307282
 30
0.0
 11
1.47156623897215
 21
8.72023739671837
 31
0.0
  0
LINE
  8
6
  6
CONTINUOUS
 62
6
 10
1.47156623897215
 20
8.72023739671837
 30
0.0
 11
1.47146934319423
 21
8.78023731847839
 31
0.0
  0
ARC
  8
6
  6
CONTINUOUS
 62
6
 10
1.17266950574245
 20
8.95850998818181
 30
0.0
 40
0.121071389999997
 50
120.614548692342
 51
179.391008692342
  0
LINE
  8
6
  6
CONTINUOUS
 62
6
 10
1.05160495461275
 20
8.95979682006483
 30
0.0
 11
1.05124221189932
 21
8.92566985882333
 31
0.0
  0
ARC
  8
6
  6
CONTINUOUS
 62
6
 10
1.16176187208591
 20
8.92449512253713
 30
0.0
 40
0.110525903267523
 50
179.391014263889
 51
267.44323426389
  0
ARC
  8
6
  6
CONTINUOUS
 62
6
 10
1.14853247258391
 20
8.9039687797991
 30
0.0
 40
0.0902718146223225
 50
275.274802947451
 51
329.437302947451
  0
LINE
  8
6
  6
CONTINUOUS
 62
6
 10
1.22626311834825
 20
8.85806728500573
 30
0.0
 11
1.29699058590392
 21
9.02347997269888
 31
0.0
  0
ARC
  8
6
  6
CONTINUOUS
 62
6
 10
1.37472124113794
 20
8.97757856038063
 30
0.0
 40
0.0902717808394165
 50
95.2747680784376
 51
149.437351078438
  0
ARC
  8
6
  6
CONTINUOUS
 62
6
 10
1.36149184638356
 20
8.95705222452856
 30
0.0
 40
0.11052587019469
 50
359.533605963439
 51
87.4432059634414
  0
LINE
  8
6
  6
CONTINUOUS
 62
6
 10
1.47201405479814
 20
8.95615254155184
 30
0.0
 11
1.47166564291822
 21
8.91335180701732
 31
0.0
  0
ARC
  8
6
  6
CONTINUOUS
 62
6
 10
1.35059830809412
 20
8.91433730803779
 30
0.0
 40
0.121071345799374
 50
300.614516543551
 51
359.533616543551
  0
LINE
  8
6
  6
CONTINUOUS
 62
6
 10
1.05042438540465
 20
9.42695821975481
 30
0.0
 11
1.47042335324585
 21
9.42793648980903
 31
0.0
  0
LINE
  8
6
  6
CONTINUOUS
 62
6
 10
1.47042335324585
 20
9.42793648980903
 30
0.0
 11
1.4700255960775
 21
9.6742361686339
 31
0.0
  0
LINE
  8
6
  6
CONTINUOUS
 62
6
 10
1.26042362708579
 20
9.42759735458632
 30
0.0
 11
1.26011307611756
 21
9.61989710382718
 31
0.0
  0
LINE
  8
6
  6
CONTINUOUS
 62
6
 10
1.05041227342932
 20
9.43445821188807
 30
0.0
 11
1.05040691630099
 21
9.43445819941014
 31
0.0
  0
LINE
  8
6
  6
CONTINUOUS
 62
6
 10
1.05040691630099
 20
9.43445819941014
 30
0.0
 11
1.05002614375741
 21
9.67355789818848
 31
0.0
  0
LINE
  8
6
  6
CONTINUOUS
 62
6
 10
1.46997472579412
 20
9.70573612755791
 30
0.0
 11
1.049975273474
 21
9.70505785711249
 31
0.0
  0
LINE
  8
6
  6
CONTINUOUS
 62
6
 10
1.049975273474
 20
9.70505785711249
 30
0.0
 11
1.46955904290685
 21
9.96313579190839
 31
0.0
  0
LINE
  8
6
  6
CONTINUOUS
 62
6
 10
1.46955904290685
 20
9.96313579190839
 30
0.0
 11
1.04955959058673
 21
9.96245752146296
 31
0.0
  0
LINE
  8
6
  6
CONTINUOUS
 62
6
 10
1.04951114269777
 20
9.99245748234297
 30
0.0
 11
1.4695105950179
 21
9.9931357527884
 31
0.0
  0
LINE
  8
6
  6
CONTINUOUS
 62
6
 10
1.46947425910118
 20
10.0156357234484
 30
0.0
 11
1.4693214062053
 21
10.110285480025
 31
0.0
  0
ARC
  8
6
  6
CONTINUOUS
 62
6
 10
1.31557138905871
 20
10.0955487029919
 30
0.0
 40
0.154454654736914
 50
5.47501457710766
 51
65.7057145771077
  0
ARC
  8
6
  6
CONTINUOUS
 62
6
 10
1.25969006220123
 20
9.88172742831836
 30
0.0
 40
0.374169422895453
 50
71.3866259706223
 51
108.798425970624
  0
ARC
  8
6
  6
CONTINUOUS
 62
6
 10
1.20311862577542
 20
10.0953673454634
 30
0.0
 40
0.154454514312293
 50
114.479438679503
 51
174.710018679503
  0
LINE
  8
6
  6
CONTINUOUS
 62
6
 10
1.04932195875772
 20
10.1096075071792
 30
0.0
 11
1.04947480678105
 21
10.014957453003
 31
0.0
  0
ARC
  8
6
  6
CONTINUOUS
 62
6
 10
14.1371727966857
 20
4.19181095721761
 30
0.0
 40
0.154454580000001
 50
294.49493416274
 51
54.4281341627399
  0
ARC
  8
6
  6
CONTINUOUS
 62
6
 10
14.080543066611
 20
4.40543534843372
 30
0.0
 40
0.374169448266844
 50
251.402208236591
 51
288.814008236591
  0
ARC
  8
6
  6
CONTINUOUS
 62
6
 10
14.0247198904193
 20
4.19159872351235
 30
0.0
 40
0.154454532537328
 50
125.788104172712
 51
245.721274172712
  0
ARC
  8
6
  6
CONTINUOUS
 62
6
 10
13.9946118966195
 20
4.48689246926436
 30
0.0
 40
0.1249038
 50
183.550599440371
 51
254.206134162742
  0
ARC
  8
6
  6
CONTINUOUS
 62
6
 10
14.0799468597166
 20
4.72133492292204
 30
0.0
 40
0.374169560784258
 50
251.402250832453
 51
288.814050832453
  0
ARC
  8
6
  6
CONTINUOUS
 62
6
 10
14.1661662771421
 20
4.48721611422024
 30
0.0
 40
0.124903626714106
 50
286.010188904528
 51
356.6657236269
  0
ARC
  8
6
  6
CONTINUOUS
 62
6
 10
14.1661661110904
 20
4.48721624343289
 30
0.0
 40
0.1249038
 50
3.55059944037215
 51
74.2061341627417
  0
ARC
  8
6
  6
CONTINUOUS
 62
6
 10
14.0808309783935
 20
4.25277387236983
 30
0.0
 40
0.374169536591778
 50
71.4022221845902
 51
108.814022184592
  0
ARC
  8
6
  6
CONTINUOUS
 62
6
 10
13.9946118228878
 20
4.48689264770447
 30
0.0
 40
0.124903716014754
 50
106.010213910975
 51
176.665748633348
  0
LINE
  8
6
  6
CONTINUOUS
 62
6
 10
14.2893841098901
 20
4.65883777792421
 30
0.0
 11
13.8693848578869
 21
4.65804511358179
 31
0.0
  0
LINE
  8
6
  6
CONTINUOUS
 62
6
 10
13.8693848578869
 20
4.65804511358179
 30
0.0
 11
14.1660502775449
 21
4.8356053252824
 31
0.0
  0
LINE
  8
6
  6
CONTINUOUS
 62
6
 10
14.1660502775449
 20
4.8356053252824
 30
0.0
 11
13.868716755084
 21
5.01204448312732
 31
0.0
  0
LINE
  8
6
  6
CONTINUOUS
 62
6
 10
13.868716755084
 20
5.01204448312732
 30
0.0
 11
14.2887160070872
 21
5.01283714746974
 31
0.0
  0
LINE
  8
6
  6
CONTINUOUS
 62
6
 10
13.8686601362024
 20
5.04204442969898
 30
0.0
 11
14.2886593882056
 21
5.04283709404139
 31
0.0
  0
LINE
  8
6
  6
CONTINUOUS
 62
6
 10
13.8686176720412
 20
5.06454438962772
 30
0.0
 11
13.8683725122839
 21
5.19444415828299
 31
0.0
  0
ARC
  8
6
  6
CONTINUOUS
 62
6
 10
13.9733723252847
 20
5.1946423243686
 30
0.0
 40
0.105
 50
90.1037341627421
 51
180.108134162744
  0
ARC
  8
6
  6
CONTINUOUS
 62
6
 10
13.9733723252847
 20
5.1946423243686
 30
0.0
 40
0.105000000000005
 50
0.0993341627388636
 51
90.1037341627408
  0
LINE
  8
6
  6
CONTINUOUS
 62
6
 10
14.0783721674832
 20
5.19482436363835
 30
0.0
 11
14.0786172980428
 21
5.06494072179893
 31
0.0
  0
LINE
  8
6
  6
CONTINUOUS
 62
6
 10
13.8674949196191
 20
5.65944333014367
 30
0.0
 11
14.0774945456207
 21
5.65983966231488
 31
0.0
  0
LINE
  8
6
  6
CONTINUOUS
 62
6
 10
14.0774945456207
 20
5.65983966231488
 30
0.0
 11
14.2874941716223
 21
5.66023599448608
 31
0.0
  0
LINE
  8
6
  6
CONTINUOUS
 62
6
 10
14.0774945456207
 20
5.65983966231488
 30
0.0
 11
14.0770132851271
 21
5.91483920817396
 31
0.0
  0
LINE
  8
6
  6
CONTINUOUS
 62
6
 10
14.2870129111286
 20
5.91523554034516
 30
0.0
 11
14.0770132851271
 21
5.91483920817396
 31
0.0
  0
LINE
  8
6
  6
CONTINUOUS
 62
6
 10
14.0770132851271
 20
5.91483920817396
 30
0.0
 11
13.8670136591255
 21
5.91444287600275
 31
0.0
  0
ARC
  8
6
  6
CONTINUOUS
 62
6
 10
13.9915966066699
 20
6.08456686388939
 30
0.0
 40
0.1249038
 50
183.550599440371
 51
254.206134162742
  0
ARC
  8
6
  6
CONTINUOUS
 62
6
 10
14.076931569767
 20
6.31900931754708
 30
0.0
 40
0.374169560784258
 50
251.402250832453
 51
288.814050832453
  0
ARC
  8
6
  6
CONTINUOUS
 62
6
 10
14.1631509871925
 20
6.08489050884528
 30
0.0
 40
0.124903626714106
 50
286.010188904528
 51
356.6657236269
  0
ARC
  8
6
  6
CONTINUOUS
 62
6
 10
14.1631508211408
 20
6.08489063805793
 30
0.0
 40
0.124903800000001
 50
3.55059944037192
 51
74.2061341627414
  0
ARC
  8
6
  6
CONTINUOUS
 62
6
 10
14.0778156884439
 20
5.85044826699487
 30
0.0
 40
0.374169536591778
 50
71.4022221845904
 51
108.814022184592
  0
ARC
  8
6
  6
CONTINUOUS
 62
6
 10
13.9915965329382
 20
6.08456704232951
 30
0.0
 40
0.124903716014754
 50
106.010213910975
 51
176.665748633348
  0
LINE
  8
6
  6
CONTINUOUS
 62
6
 10
13.8663723988814
 20
6.25421951087825
 30
0.0
 11
14.2863716508846
 21
6.25501217522066
 31
0.0
  0
LINE
  8
6
  6
CONTINUOUS
 62
6
 10
14.2863716508846
 20
6.25501217522066
 30
0.0
 11
14.2859068098666
 21
6.50131173657396
 31
0.0
  0
LINE
  8
6
  6
CONTINUOUS
 62
6
 10
13.8658509389818
 20
6.53051901880321
 30
0.0
 11
14.285850190985
 21
6.53131168314562
 31
0.0
  0
LINE
  8
6
  6
CONTINUOUS
 62
6
 10
14.2858077268238
 20
6.55381164307436
 30
0.0
 11
14.2856290944788
 21
6.64846135450815
 31
0.0
  0
ARC
  8
6
  6
CONTINUOUS
 62
6
 10
14.1318830968445
 20
6.63368270161591
 30
0.0
 40
0.154454654736911
 50
5.49062004750943
 51
65.7213200475095
  0
ARC
  8
6
  6
CONTINUOUS
 62
6
 10
14.0760600098839
 20
6.41984621465317
 30
0.0
 40
0.374169422895454
 50
71.4022314410237
 51
108.814031441025
  0
ARC
  8
6
  6
CONTINUOUS
 62
6
 10
14.019430387128
 20
6.63347071569072
 30
0.0
 40
0.154454514312295
 50
114.495044149905
 51
174.725624149905
  0
LINE
  8
6
  6
CONTINUOUS
 62
6
 10
13.8656298472671
 20
6.64766898776672
 30
0.0
 11
13.8658084748206
 21
6.55301897873195
 31
0.0
  0
LINE
  8
6
  6
CONTINUOUS
 62
6
 10
13.8652977722821
 20
6.82361861680808
 30
0.0
 11
14.2852964580965
 21
6.82471128061621
 31
0.0
  0
LINE
  8
6
  6
CONTINUOUS
 62
6
 10
14.2852964580965
 20
6.82471128061621
 30
0.0
 11
14.2848316170785
 21
7.07101084196951
 31
0.0
  0
LINE
  8
6
  6
CONTINUOUS
 62
6
 10
14.0752968320949
 20
6.824314948445
 30
0.0
 11
14.0749339050638
 21
7.01661460596932
 31
0.0
  0
LINE
  8
6
  6
CONTINUOUS
 62
6
 10
13.8652836175581
 20
6.83111860536425
 30
0.0
 11
13.8652782604334
 21
6.83111859142722
 31
0.0
  0
LINE
  8
6
  6
CONTINUOUS
 62
6
 10
13.8652782604334
 20
6.83111859142722
 30
0.0
 11
13.8648323650754
 21
7.0702181776271
 31
0.0
  0
LINE
  8
6
  6
CONTINUOUS
 62
6
 10
13.8647757461938
 20
7.10021812419875
 30
0.0
 11
14.2847749981969
 21
7.10101078854116
 31
0.0
  0
LINE
  8
6
  6
CONTINUOUS
 62
6
 10
13.8647332820326
 20
7.12271808412749
 30
0.0
 11
13.8644881222752
 21
7.25261785278277
 31
0.0
  0
ARC
  8
6
  6
CONTINUOUS
 62
6
 10
13.969487935276
 20
7.25281601886838
 30
0.0
 40
0.105000000000005
 50
90.103734162745
 51
180.108134162747
  0
ARC
  8
6
  6
CONTINUOUS
 62
6
 10
13.969487935276
 20
7.25281601886837
 30
0.0
 40
0.105000000000012
 50
0.0993341627349961
 51
90.1037341627369
  0
LINE
  8
6
  6
CONTINUOUS
 62
6
 10
14.0744877774745
 20
7.25299805813812
 30
0.0
 11
14.2842892081928
 21
7.35841033012598
 31
0.0
  0
LINE
  8
6
  6
CONTINUOUS
 62
6
 10
14.0747329080342
 20
7.1231144162987
 30
0.0
 11
14.074487778851
 21
7.25299798498282
 31
0.0
  0
ENDSEC
  0
EOF
