  0
SECTION
  2
HEADER
  9
$ACADVER
  1
AC1003
  9
$EXTMIN
 10
-0.00360173277703169
 20
18.0072573060969
  9
$EXTMAX
 10
18.4967239689214
 20
0.00484923943357429
  9
$INSBASE
 10
9.24656111807217
 20
9.00605327276521
999
Created with OMAX Layout for Windows. (http://www.omax.com) 9/14/2012
  0
ENDSEC
  0
SECTION
  2
TABLES
  0
TABLE
  2
LAYER
 70
    10
  0
LAYER
  2
0
 70
     0
 62
     7
  6
CONTINUOUS
  0
LAYER
  2
1
 70
     0
 62
     7
  6
CONTINUOUS
  0
LAYER
  2
2
 70
     0
 62
     7
  6
CONTINUOUS
  0
LAYER
  2
3
 70
     0
 62
     7
  6
CONTINUOUS
  0
LAYER
  2
4
 70
     0
 62
     7
  6
CONTINUOUS
  0
LAYER
  2
5
 70
     0
 62
     7
  6
CONTINUOUS
  0
LAYER
  2
6
 70
     0
 62
     7
  6
CONTINUOUS
  0
LAYER
  2
7
 70
     0
 62
     7
  6
CONTINUOUS
  0
LAYER
  2
8
 70
     0
 62
     7
  6
CONTINUOUS
  0
LAYER
  2
9
 70
     0
 62
     7
  6
CONTINUOUS
  0
LAYER
  2
10
 70
     0
 62
     7
  6
CONTINUOUS
  0
LAYER
  2
11
 70
     0
 62
     7
  6
CONTINUOUS
  0
LAYER
  2
12
 70
     0
 62
     7
  6
CONTINUOUS
  0
LAYER
  2
13
 70
     0
 62
     7
  6
CONTINUOUS
  0
LAYER
  2
14
 70
     0
 62
     7
  6
CONTINUOUS
  0
LAYER
  2
15
 70
     0
 62
     7
  6
CONTINUOUS
  0
LAYER
  2
16
 70
     0
 62
     7
  6
CONTINUOUS
  0
LAYER
  2
17
 70
     0
 62
     7
  6
CONTINUOUS
  0
LAYER
  2
18
 70
     0
 62
     7
  6
CONTINUOUS
  0
LAYER
  2
19
 70
     0
 62
     7
  6
CONTINUOUS
  0
LAYER
  2
20
 70
     0
 62
     7
  6
CONTINUOUS
  0
LAYER
  2
21
 70
     0
 62
     7
  6
CONTINUOUS
  0
LAYER
  2
22
 70
     0
 62
     7
  6
CONTINUOUS
  0
LAYER
  2
23
 70
     0
 62
     7
  6
CONTINUOUS
  0
LAYER
  2
24
 70
     0
 62
     7
  6
CONTINUOUS
  0
LAYER
  2
25
 70
     0
 62
     7
  6
CONTINUOUS
  0
LAYER
  2
26
 70
     0
 62
     7
  6
CONTINUOUS
  0
LAYER
  2
27
 70
     0
 62
     7
  6
CONTINUOUS
  0
LAYER
  2
28
 70
     0
 62
     7
  6
CONTINUOUS
  0
LAYER
  2
29
 70
     0
 62
     7
  6
CONTINUOUS
  0
LAYER
  2
30
 70
     0
 62
     7
  6
CONTINUOUS
  0
LAYER
  2
31
 70
     0
 62
     7
  6
CONTINUOUS
  0
ENDTAB
  0
ENDSEC
  0
SECTION
  2
ENTITIES
  0
LINE
  8
1
  6
CONTINUOUS
 62
1
 10
-0.00327603811403065
 20
0.00522534261467
 30
0.0
 11
-0.00327603811403421
 21
18.0052253426147
 31
0.0
  0
LINE
  8
1
  6
CONTINUOUS
 62
1
 10
-0.00327603811403421
 20
18.0052253426147
 30
0.0
 11
18.496723961886
 21
18.0052253426147
 31
0.0
  0
LINE
  8
1
  6
CONTINUOUS
 62
1
 10
18.496723961886
 20
18.0052253426147
 30
0.0
 11
18.496723961886
 21
0.00522534261467467
 31
0.0
  0
LINE
  8
1
  6
CONTINUOUS
 62
1
 10
18.496723961886
 20
0.00522534261467467
 30
0.0
 11
-0.00327603811403065
 21
0.00522534261467
 31
0.0
  0
ARC
  8
1
  6
CONTINUOUS
 62
1
 10
3.99672396188597
 20
1.22625880156974
 30
0.0
 40
0.178
 50
269.999999999999
 51
89.9999999999998
  0
ARC
  8
1
  6
CONTINUOUS
 62
1
 10
3.99672396188597
 20
1.22625880156974
 30
0.0
 40
0.178
 50
89.9999999999998
 51
270
  0
ARC
  8
1
  6
CONTINUOUS
 62
1
 10
15.996723961886
 20
1.22622534261467
 30
0.0
 40
0.178
 50
269.999999999999
 51
89.9999999999998
  0
ARC
  8
1
  6
CONTINUOUS
 62
1
 10
15.996723961886
 20
1.22622534261467
 30
0.0
 40
0.178
 50
89.9999999999998
 51
270
  0
ARC
  8
1
  6
CONTINUOUS
 62
1
 10
3.99672396188597
 20
16.7842588015698
 30
0.0
 40
0.178000000000001
 50
269.999999999999
 51
89.9999999999998
  0
ARC
  8
1
  6
CONTINUOUS
 62
1
 10
3.99672396188597
 20
16.7842588015698
 30
0.0
 40
0.178000000000001
 50
89.9999999999998
 51
270
  0
ARC
  8
1
  6
CONTINUOUS
 62
1
 10
15.996723961886
 20
16.7842253426147
 30
0.0
 40
0.177999999999999
 50
269.999999999999
 51
89.9999999999998
  0
ARC
  8
1
  6
CONTINUOUS
 62
1
 10
15.996723961886
 20
16.7842253426147
 30
0.0
 40
0.177999999999999
 50
89.9999999999998
 51
270
  0
ARC
  8
7
  6
CONTINUOUS
 62
7
 10
5.17172396188597
 20
5.0002253426146
 30
0.0
 40
0.31548316101305
 50
269.999999999999
 51
89.9999999999998
  0
ARC
  8
7
  6
CONTINUOUS
 62
7
 10
5.17172396188597
 20
5.0002253426146
 30
0.0
 40
0.31548316101305
 50
89.9999999999998
 51
270
  0
ARC
  8
7
  6
CONTINUOUS
 62
7
 10
13.2282239618861
 20
13.0142253426147
 30
0.0
 40
0.3154831610131
 50
269.999999999999
 51
89.9999999999998
  0
ARC
  8
7
  6
CONTINUOUS
 62
7
 10
13.2282239618861
 20
13.0142253426147
 30
0.0
 40
0.3154831610131
 50
89.9999999999998
 51
270
  0
ARC
  8
1
  6
CONTINUOUS
 62
1
 10
14.0407239618861
 20
14.5892253426147
 30
0.0
 40
0.0999999999999996
 50
269.999999999999
 51
89.9999999999998
  0
ARC
  8
1
  6
CONTINUOUS
 62
1
 10
14.0407239618861
 20
14.5892253426147
 30
0.0
 40
0.0999999999999996
 50
89.9999999999998
 51
270
  0
ARC
  8
1
  6
CONTINUOUS
 62
1
 10
14.0407239618861
 20
11.0642753426147
 30
0.0
 40
0.0999999999999996
 50
269.999999999999
 51
89.9999999999998
  0
ARC
  8
1
  6
CONTINUOUS
 62
1
 10
14.0407239618861
 20
11.0642753426147
 30
0.0
 40
0.0999999999999996
 50
89.9999999999998
 51
270
  0
ARC
  8
1
  6
CONTINUOUS
 62
1
 10
11.3737239618861
 20
14.5892253426147
 30
0.0
 40
0.0999999999999996
 50
269.999999999999
 51
89.9999999999998
  0
ARC
  8
1
  6
CONTINUOUS
 62
1
 10
11.3737239618861
 20
14.5892253426147
 30
0.0
 40
0.0999999999999996
 50
89.9999999999998
 51
270
  0
ARC
  8
1
  6
CONTINUOUS
 62
1
 10
5.67172396188597
 20
3.45622534261467
 30
0.0
 40
0.100000000000001
 50
269.999999999999
 51
89.9999999999998
  0
ARC
  8
1
  6
CONTINUOUS
 62
1
 10
5.67172396188597
 20
3.45622534261467
 30
0.0
 40
0.100000000000001
 50
89.9999999999998
 51
270
  0
ARC
  8
1
  6
CONTINUOUS
 62
1
 10
5.67168229093987
 20
6.95023506412355
 30
0.0
 40
0.1
 50
269.999999999999
 51
89.9999999999998
  0
ARC
  8
1
  6
CONTINUOUS
 62
1
 10
5.67168229093987
 20
6.95023506412355
 30
0.0
 40
0.1
 50
89.9999999999998
 51
270
  0
ARC
  8
1
  6
CONTINUOUS
 62
1
 10
3.00477236926117
 20
3.45620034945433
 30
0.0
 40
0.0999999999999996
 50
269.999999999999
 51
89.9999999999998
  0
ARC
  8
1
  6
CONTINUOUS
 62
1
 10
3.00477236926117
 20
3.45620034945433
 30
0.0
 40
0.0999999999999996
 50
89.9999999999998
 51
270
  0
LINE
  8
1
  6
CONTINUOUS
 62
1
 10
0.496723969284069
 20
0.00522534261502994
 30
0.0
 11
0.496398267222968
 21
0.205225547408809
 31
0.0
  0
LINE
  8
1
  6
CONTINUOUS
 62
1
 10
0.496398267222968
 20
0.205225547408809
 30
0.0
 11
-0.00360173277703169
 21
0.205225547408809
 31
0.0
  0
LINE
  8
1
  6
CONTINUOUS
 62
1
 10
-0.00360173277703169
 20
0.205225547408809
 30
0.0
 11
-0.00327603071593074
 21
0.00522534261502972
 31
0.0
  0
LINE
  8
1
  6
CONTINUOUS
 62
1
 10
-0.00327603071593074
 20
0.00522534261502972
 30
0.0
 11
0.496723969284069
 21
0.00522534261502994
 31
0.0
  0
LINE
  8
1
  6
CONTINUOUS
 62
1
 10
-0.00327603811403421
 20
18.0052253426147
 30
0.0
 11
-0.00327603811403421
 21
9.00522534261465
 31
0.0
  0
LINE
  8
1
  6
CONTINUOUS
 62
1
 10
0.497173620432665
 20
17.8072571013031
 30
0.0
 11
0.496847918371564
 21
18.0072573060969
 31
0.0
  0
LINE
  8
1
  6
CONTINUOUS
 62
1
 10
0.496847918371564
 20
18.0072573060969
 30
0.0
 11
-0.00315208162843561
 21
18.0072573060969
 31
0.0
  0
LINE
  8
1
  6
CONTINUOUS
 62
1
 10
-0.00315208162843561
 20
18.0072573060969
 30
0.0
 11
-0.00282637956723519
 21
17.8072571013031
 31
0.0
  0
LINE
  8
1
  6
CONTINUOUS
 62
1
 10
-0.00282637956723519
 20
17.8072571013031
 30
0.0
 11
0.497173620432665
 21
17.8072571013031
 31
0.0
  0
LINE
  8
1
  6
CONTINUOUS
 62
1
 10
18.496723961886
 20
0.00522534261467467
 30
0.0
 11
18.4962516028146
 21
0.317723557604454
 31
0.0
  0
LINE
  8
1
  6
CONTINUOUS
 62
1
 10
18.4962516028146
 20
0.317723557604454
 30
0.0
 11
18.0962498346055
 21
0.317347454423354
 31
0.0
  0
LINE
  8
1
  6
CONTINUOUS
 62
1
 10
18.0962498346055
 20
0.317347454423354
 30
0.0
 11
18.0967221936769
 21
0.00484923943357429
 31
0.0
  0
LINE
  8
1
  6
CONTINUOUS
 62
1
 10
18.0967221936769
 20
0.00484923943357429
 30
0.0
 11
18.496723961886
 21
0.00522534261467467
 31
0.0
  0
LINE
  8
1
  6
CONTINUOUS
 62
1
 10
18.496636700804
 20
17.692429065515
 30
0.0
 11
18.4967239689214
 21
18.0049290045892
 31
0.0
  0
LINE
  8
1
  6
CONTINUOUS
 62
1
 10
18.4967239689214
 20
18.0049290045892
 30
0.0
 11
18.096723867931
 21
18.0050188890555
 31
0.0
  0
LINE
  8
1
  6
CONTINUOUS
 62
1
 10
18.096723867931
 20
18.0050188890555
 30
0.0
 11
18.0966365998137
 21
17.6925189499813
 31
0.0
  0
LINE
  8
1
  6
CONTINUOUS
 62
1
 10
18.0966365998137
 20
17.6925189499813
 30
0.0
 11
18.496636700804
 21
17.692429065515
 31
0.0
  0
LINE
  8
7
  6
CONTINUOUS
 62
7
 10
6.32058367273014
 20
16.9172432255228
 30
0.0
 11
6.32058367273014
 21
16.2172432255228
 31
0.0
  0
LINE
  8
7
  6
CONTINUOUS
 62
7
 10
6.32058367273014
 20
16.2172432255228
 30
0.0
 11
6.73108367273014
 21
16.2172432255228
 31
0.0
  0
LINE
  8
7
  6
CONTINUOUS
 62
7
 10
6.78108367273014
 20
16.9172432255228
 30
0.0
 11
6.88108362587264
 21
16.9172432255228
 31
0.0
  0
LINE
  8
7
  6
CONTINUOUS
 62
7
 10
6.88108362587264
 20
16.9172432255228
 30
0.0
 11
6.98108362587264
 21
16.9172432255228
 31
0.0
  0
LINE
  8
7
  6
CONTINUOUS
 62
7
 10
6.88108362587264
 20
16.9172432255228
 30
0.0
 11
6.88108362587264
 21
16.2172432255228
 31
0.0
  0
LINE
  8
7
  6
CONTINUOUS
 62
7
 10
6.78108367273014
 20
16.2172432255228
 30
0.0
 11
6.88108362587264
 21
16.2172432255228
 31
0.0
  0
LINE
  8
7
  6
CONTINUOUS
 62
7
 10
6.88108362587264
 20
16.2172432255228
 30
0.0
 11
6.98108362587264
 21
16.2172432255228
 31
0.0
  0
LINE
  8
7
  6
CONTINUOUS
 62
7
 10
7.03108362587264
 20
16.9172432255228
 30
0.0
 11
7.03108362587264
 21
16.2172432255228
 31
0.0
  0
LINE
  8
7
  6
CONTINUOUS
 62
7
 10
7.06858362587264
 20
16.2172432255228
 30
0.0
 11
7.22633342587264
 21
16.2172432255228
 31
0.0
  0
ARC
  8
7
  6
CONTINUOUS
 62
7
 10
7.20218598860977
 20
16.4735325847137
 30
0.0
 40
0.257424424561522
 50
275.382485884766
 51
335.613185884766
  0
ARC
  8
7
  6
CONTINUOUS
 62
7
 10
6.84596806004242
 20
16.5672434904893
 30
0.0
 40
0.623615704825761
 50
341.294099999999
 51
18.7059000000007
  0
ARC
  8
7
  6
CONTINUOUS
 62
7
 10
7.20218639862242
 20
16.6609541005879
 30
0.0
 40
0.257424190520488
 50
24.3869099871628
 51
84.6174899871628
  0
LINE
  8
7
  6
CONTINUOUS
 62
7
 10
7.22633392185832
 20
16.9172432166009
 30
0.0
 11
7.06858362587264
 21
16.9172432255228
 31
0.0
  0
LINE
  8
7
  6
CONTINUOUS
 62
7
 10
8.06958382587265
 20
16.5672432255228
 30
0.0
 11
8.46958387587265
 21
16.5672432255228
 31
0.0
  0
LINE
  8
7
  6
CONTINUOUS
 62
7
 10
9.06958387587265
 20
16.9172432255228
 30
0.0
 11
9.29333387587265
 21
16.9172432255228
 31
0.0
  0
LINE
  8
7
  6
CONTINUOUS
 62
7
 10
9.29333387587265
 20
16.9172432255228
 30
0.0
 11
9.29333392587265
 21
16.2172432255228
 31
0.0
  0
LINE
  8
7
  6
CONTINUOUS
 62
7
 10
9.29333392587267
 20
16.9172432255228
 30
0.0
 11
9.51708387587265
 21
16.9172432255228
 31
0.0
  0
ARC
  8
7
  6
CONTINUOUS
 62
7
 10
9.80023147587264
 20
16.7090702255228
 30
0.0
 40
0.208172999999999
 50
93.4424652776284
 51
164.097999999999
  0
ARC
  8
7
  6
CONTINUOUS
 62
7
 10
10.1906997240003
 20
16.5661079312747
 30
0.0
 40
0.623615934640423
 50
161.2941
 51
198.7059
  0
ARC
  8
7
  6
CONTINUOUS
 62
7
 10
9.8002312599963
 20
16.4231457491768
 30
0.0
 40
0.208172711190177
 50
195.902054741785
 51
266.557589464157
  0
ARC
  8
7
  6
CONTINUOUS
 62
7
 10
9.80023147587265
 20
16.4231460255228
 30
0.0
 40
0.208173
 50
273.442465277627
 51
344.097999999997
  0
ARC
  8
7
  6
CONTINUOUS
 62
7
 10
9.40976326593597
 20
16.5661083068396
 30
0.0
 40
0.623615894319629
 50
341.294099999999
 51
18.7059000000007
  0
ARC
  8
7
  6
CONTINUOUS
 62
7
 10
9.80023177350423
 20
16.7090703478475
 30
0.0
 40
0.208172860024592
 50
15.9020797482311
 51
86.5576144706041
  0
LINE
  8
7
  6
CONTINUOUS
 62
7
 10
10.0833792758726
 20
16.9172432255228
 30
0.0
 11
10.0833792758726
 21
16.2172432255228
 31
0.0
  0
LINE
  8
7
  6
CONTINUOUS
 62
7
 10
10.1208792758726
 20
16.9172432255228
 30
0.0
 11
10.3373792758726
 21
16.9172432255228
 31
0.0
  0
ARC
  8
7
  6
CONTINUOUS
 62
7
 10
10.3373792758727
 20
16.7422432255228
 30
0.0
 40
0.174999999999999
 50
359.995599999999
 51
90.000000000001
  0
ARC
  8
7
  6
CONTINUOUS
 62
7
 10
10.3373792758726
 20
16.7422432255228
 30
0.0
 40
0.175000000000008
 50
269.991199999995
 51
359.995599999997
  0
LINE
  8
7
  6
CONTINUOUS
 62
7
 10
10.3373523978023
 20
16.5672432275869
 30
0.0
 11
10.1208792758726
 21
16.5672432255228
 31
0.0
  0
LINE
  8
7
  6
CONTINUOUS
 62
7
 10
11.1123792758726
 20
16.9172432255228
 30
0.0
 11
11.3673792758726
 21
16.2172432255228
 31
0.0
  0
LINE
  8
7
  6
CONTINUOUS
 62
7
 10
11.3673792758726
 20
16.2172432255228
 30
0.0
 11
11.6223792758726
 21
16.9172432255228
 31
0.0
  0
LINE
  8
7
  6
CONTINUOUS
 62
7
 10
11.6723792758726
 20
16.9172432255228
 30
0.0
 11
11.7723792290151
 21
16.9172432255228
 31
0.0
  0
LINE
  8
7
  6
CONTINUOUS
 62
7
 10
11.7723792290151
 20
16.9172432255228
 30
0.0
 11
11.8723792290151
 21
16.9172432255228
 31
0.0
  0
LINE
  8
7
  6
CONTINUOUS
 62
7
 10
11.7723792290151
 20
16.9172432255228
 30
0.0
 11
11.7723792290151
 21
16.2172432255228
 31
0.0
  0
LINE
  8
7
  6
CONTINUOUS
 62
7
 10
11.6723792758726
 20
16.2172432255228
 30
0.0
 11
11.7723792290151
 21
16.2172432255228
 31
0.0
  0
LINE
  8
7
  6
CONTINUOUS
 62
7
 10
11.7723792290151
 20
16.2172432255228
 30
0.0
 11
11.8723792290151
 21
16.2172432255228
 31
0.0
  0
LINE
  8
7
  6
CONTINUOUS
 62
7
 10
11.9223792290151
 20
16.9172432255228
 30
0.0
 11
11.9228792290152
 21
16.2172432255228
 31
0.0
  0
LINE
  8
7
  6
CONTINUOUS
 62
7
 10
11.9228792290152
 20
16.2172432255228
 30
0.0
 11
12.3333792290151
 21
16.2172432255228
 31
0.0
  0
LINE
  8
7
  6
CONTINUOUS
 62
7
 10
11.9228792290152
 20
16.5672432255228
 30
0.0
 11
12.2433792290151
 21
16.5672432255228
 31
0.0
  0
LINE
  8
7
  6
CONTINUOUS
 62
7
 10
11.9348792322039
 20
16.9172432255228
 30
0.0
 11
11.9348792258264
 21
16.9172521540919
 31
0.0
  0
LINE
  8
7
  6
CONTINUOUS
 62
7
 10
11.9348792258264
 20
16.9172521540919
 30
0.0
 11
12.3333792290151
 21
16.9172432255228
 31
0.0
  0
LINE
  8
7
  6
CONTINUOUS
 62
7
 10
12.3833792290151
 20
16.9172432255228
 30
0.0
 11
12.5646292290152
 21
16.2172432255228
 31
0.0
  0
LINE
  8
7
  6
CONTINUOUS
 62
7
 10
12.5646292290152
 20
16.2172432255228
 30
0.0
 11
12.7458792290151
 21
16.8007432255228
 31
0.0
  0
LINE
  8
7
  6
CONTINUOUS
 62
7
 10
12.7458792290151
 20
16.8007432255228
 30
0.0
 11
12.9271292290152
 21
16.2172432255228
 31
0.0
  0
LINE
  8
7
  6
CONTINUOUS
 62
7
 10
12.9271292290152
 20
16.2172432255228
 30
0.0
 11
13.1083792290151
 21
16.9172432255228
 31
0.0
  0
ENDSEC
  0
EOF
