  0
SECTION
  2
HEADER
  9
$ACADVER
  1
AC1003
  9
$EXTMIN
 10
0.020416935310553
 20
18.042821835375
  9
$EXTMAX
 10
18.0204169353106
 20
-0.457178164624974
  9
$INSBASE
 10
9.02041693531055
 20
8.79282183537503
999
Created with OMAX Layout for Windows. (http://www.omax.com) 9/11/2012
  0
ENDSEC
  0
SECTION
  2
TABLES
  0
TABLE
  2
LAYER
 70
    10
  0
LAYER
  2
0
 70
     0
 62
     7
  6
CONTINUOUS
  0
LAYER
  2
1
 70
     0
 62
     7
  6
CONTINUOUS
  0
LAYER
  2
2
 70
     0
 62
     7
  6
CONTINUOUS
  0
LAYER
  2
3
 70
     0
 62
     7
  6
CONTINUOUS
  0
LAYER
  2
4
 70
     0
 62
     7
  6
CONTINUOUS
  0
LAYER
  2
5
 70
     0
 62
     7
  6
CONTINUOUS
  0
LAYER
  2
6
 70
     0
 62
     7
  6
CONTINUOUS
  0
LAYER
  2
7
 70
     0
 62
     7
  6
CONTINUOUS
  0
LAYER
  2
8
 70
     0
 62
     7
  6
CONTINUOUS
  0
LAYER
  2
9
 70
     0
 62
     7
  6
CONTINUOUS
  0
LAYER
  2
10
 70
     0
 62
     7
  6
CONTINUOUS
  0
LAYER
  2
11
 70
     0
 62
     7
  6
CONTINUOUS
  0
LAYER
  2
12
 70
     0
 62
     7
  6
CONTINUOUS
  0
LAYER
  2
13
 70
     0
 62
     7
  6
CONTINUOUS
  0
LAYER
  2
14
 70
     0
 62
     7
  6
CONTINUOUS
  0
LAYER
  2
15
 70
     0
 62
     7
  6
CONTINUOUS
  0
LAYER
  2
16
 70
     0
 62
     7
  6
CONTINUOUS
  0
LAYER
  2
17
 70
     0
 62
     7
  6
CONTINUOUS
  0
LAYER
  2
18
 70
     0
 62
     7
  6
CONTINUOUS
  0
LAYER
  2
19
 70
     0
 62
     7
  6
CONTINUOUS
  0
LAYER
  2
20
 70
     0
 62
     7
  6
CONTINUOUS
  0
LAYER
  2
21
 70
     0
 62
     7
  6
CONTINUOUS
  0
LAYER
  2
22
 70
     0
 62
     7
  6
CONTINUOUS
  0
LAYER
  2
23
 70
     0
 62
     7
  6
CONTINUOUS
  0
LAYER
  2
24
 70
     0
 62
     7
  6
CONTINUOUS
  0
LAYER
  2
25
 70
     0
 62
     7
  6
CONTINUOUS
  0
LAYER
  2
26
 70
     0
 62
     7
  6
CONTINUOUS
  0
LAYER
  2
27
 70
     0
 62
     7
  6
CONTINUOUS
  0
LAYER
  2
28
 70
     0
 62
     7
  6
CONTINUOUS
  0
LAYER
  2
29
 70
     0
 62
     7
  6
CONTINUOUS
  0
LAYER
  2
30
 70
     0
 62
     7
  6
CONTINUOUS
  0
LAYER
  2
31
 70
     0
 62
     7
  6
CONTINUOUS
  0
ENDTAB
  0
ENDSEC
  0
SECTION
  2
ENTITIES
  0
LINE
  8
1
  6
CONTINUOUS
 62
1
 10
18.0204169353106
 20
18.042821835375
 30
0.0
 11
0.020416935310553
 21
18.042821835375
 31
0.0
  0
LINE
  8
1
  6
CONTINUOUS
 62
1
 10
18.0204169353106
 20
-0.457178164624974
 30
0.0
 11
18.0204169353106
 21
18.042821835375
 31
0.0
  0
LINE
  8
1
  6
CONTINUOUS
 62
1
 10
0.020416935310553
 20
-0.457178164624974
 30
0.0
 11
18.0204169353106
 21
-0.457178164624974
 31
0.0
  0
LINE
  8
1
  6
CONTINUOUS
 62
1
 10
0.020416935310553
 20
18.042821835375
 30
0.0
 11
0.020416935310553
 21
-0.457178164624974
 31
0.0
  0
ARC
  8
1
  6
CONTINUOUS
 62
1
 10
0.925450394265623
 20
14.042821835375
 30
0.0
 40
0.178
 50
179.999999999999
 51
359.999999999999
  0
ARC
  8
1
  6
CONTINUOUS
 62
1
 10
0.925450394265622
 20
14.042821835375
 30
0.0
 40
0.178000000000001
 50
359.999999999998
 51
89.9999999999991
  0
ARC
  8
1
  6
CONTINUOUS
 62
1
 10
0.925450394265623
 20
14.042821835375
 30
0.0
 40
0.178
 50
89.9999999999994
 51
180
  0
ARC
  8
1
  6
CONTINUOUS
 62
1
 10
0.925416935310553
 20
2.04282183537503
 30
0.0
 40
0.178
 50
179.999999999999
 51
359.999999999999
  0
ARC
  8
1
  6
CONTINUOUS
 62
1
 10
0.925416935310553
 20
2.04282183537503
 30
0.0
 40
0.178
 50
359.999999999998
 51
89.9999999999993
  0
ARC
  8
1
  6
CONTINUOUS
 62
1
 10
0.925416935310552
 20
2.04282183537503
 30
0.0
 40
0.178
 50
89.9999999999993
 51
180
  0
ARC
  8
1
  6
CONTINUOUS
 62
1
 10
17.1154503942657
 20
14.042821835375
 30
0.0
 40
0.178000000000001
 50
179.999999999999
 51
359.999999999999
  0
ARC
  8
1
  6
CONTINUOUS
 62
1
 10
17.1154503942657
 20
14.042821835375
 30
0.0
 40
0.178000000000002
 50
359.999999999999
 51
89.9999999999995
  0
ARC
  8
1
  6
CONTINUOUS
 62
1
 10
17.1154503942657
 20
14.042821835375
 30
0.0
 40
0.178
 50
89.9999999999995
 51
180
  0
ARC
  8
1
  6
CONTINUOUS
 62
1
 10
17.1154169353106
 20
2.04282183537503
 30
0.0
 40
0.177999999999997
 50
179.999999999999
 51
359.999999999999
  0
ARC
  8
1
  6
CONTINUOUS
 62
1
 10
17.1154169353106
 20
2.04282183537503
 30
0.0
 40
0.177999999999999
 50
359.999999999998
 51
89.9999999999993
  0
ARC
  8
1
  6
CONTINUOUS
 62
1
 10
17.1154169353106
 20
2.04282183537503
 30
0.0
 40
0.177999999999997
 50
89.9999999999998
 51
180
  0
ARC
  8
0
  6
CONTINUOUS
 62
0
 10
4.89541693531048
 20
13.267821835375
 30
0.0
 40
0.31548316101305
 50
179.999999999999
 51
359.999999999999
  0
ARC
  8
0
  6
CONTINUOUS
 62
0
 10
4.89541693531048
 20
13.267821835375
 30
0.0
 40
0.31548316101305
 50
359.999999999998
 51
89.9999999999993
  0
ARC
  8
0
  6
CONTINUOUS
 62
0
 10
4.89541693531048
 20
13.267821835375
 30
0.0
 40
0.315483161013051
 50
89.9999999999992
 51
180
  0
ARC
  8
0
  6
CONTINUOUS
 62
0
 10
13.0294169353106
 20
4.81132183537497
 30
0.0
 40
0.3154831610131
 50
179.999999999999
 51
359.999999999999
  0
ARC
  8
0
  6
CONTINUOUS
 62
0
 10
13.0294169353106
 20
4.81132183537497
 30
0.0
 40
0.3154831610131
 50
359.999999999998
 51
89.9999999999993
  0
ARC
  8
0
  6
CONTINUOUS
 62
0
 10
13.0294169353106
 20
4.81132183537497
 30
0.0
 40
0.315483161013101
 50
89.9999999999992
 51
180
  0
ARC
  8
1
  6
CONTINUOUS
 62
1
 10
14.7294169353106
 20
4.31132183537497
 30
0.0
 40
0.0999999999999996
 50
179.999999999999
 51
359.999999999999
  0
ARC
  8
1
  6
CONTINUOUS
 62
1
 10
14.7294169353106
 20
4.31132183537497
 30
0.0
 40
0.0999999999999992
 50
359.999999999998
 51
89.999999999999
  0
ARC
  8
1
  6
CONTINUOUS
 62
1
 10
14.7294169353106
 20
4.31132183537497
 30
0.0
 40
0.1
 50
89.999999999999
 51
180
  0
ARC
  8
1
  6
CONTINUOUS
 62
1
 10
11.3294169353106
 20
4.31132183537497
 30
0.0
 40
0.100000000000001
 50
179.999999999999
 51
359.999999999999
  0
ARC
  8
1
  6
CONTINUOUS
 62
1
 10
11.3294169353106
 20
4.31132183537497
 30
0.0
 40
0.100000000000001
 50
359.999999999998
 51
89.999999999999
  0
ARC
  8
1
  6
CONTINUOUS
 62
1
 10
11.3294169353106
 20
4.31132183537497
 30
0.0
 40
0.100000000000002
 50
89.999999999999
 51
180
  0
ARC
  8
1
  6
CONTINUOUS
 62
1
 10
14.7294169353106
 20
6.97832183537497
 30
0.0
 40
0.0999999999999996
 50
179.999999999999
 51
359.999999999999
  0
ARC
  8
1
  6
CONTINUOUS
 62
1
 10
14.7294169353106
 20
6.97832183537497
 30
0.0
 40
0.0999999999999992
 50
359.999999999998
 51
89.999999999999
  0
ARC
  8
1
  6
CONTINUOUS
 62
1
 10
14.7294169353106
 20
6.97832183537497
 30
0.0
 40
0.1
 50
89.999999999999
 51
180
  0
ARC
  8
1
  6
CONTINUOUS
 62
1
 10
3.19541693531055
 20
12.767821835375
 30
0.0
 40
0.100000000000001
 50
179.999999999999
 51
359.999999999999
  0
ARC
  8
1
  6
CONTINUOUS
 62
1
 10
3.19541693531055
 20
12.767821835375
 30
0.0
 40
0.100000000000001
 50
359.999999999998
 51
89.9999999999993
  0
ARC
  8
1
  6
CONTINUOUS
 62
1
 10
3.19541693531055
 20
12.767821835375
 30
0.0
 40
0.100000000000001
 50
89.9999999999993
 51
180
  0
ARC
  8
1
  6
CONTINUOUS
 62
1
 10
6.59542665681943
 20
12.7678635063211
 30
0.0
 40
0.100000000000001
 50
179.999999999999
 51
359.999999999999
  0
ARC
  8
1
  6
CONTINUOUS
 62
1
 10
6.59542665681943
 20
12.7678635063211
 30
0.0
 40
0.100000000000001
 50
359.999999999998
 51
89.999999999999
  0
ARC
  8
1
  6
CONTINUOUS
 62
1
 10
6.59542665681943
 20
12.7678635063211
 30
0.0
 40
0.100000000000002
 50
89.999999999999
 51
180
  0
ARC
  8
1
  6
CONTINUOUS
 62
1
 10
3.19539194215021
 20
15.4347734279998
 30
0.0
 40
0.0999999999999996
 50
179.999999999999
 51
359.999999999999
  0
ARC
  8
1
  6
CONTINUOUS
 62
1
 10
3.19539194215021
 20
15.4347734279998
 30
0.0
 40
0.0999999999999996
 50
359.999999999998
 51
89.9999999999993
  0
ARC
  8
1
  6
CONTINUOUS
 62
1
 10
3.19539194215021
 20
15.4347734279998
 30
0.0
 40
0.0999999999999987
 50
89.9999999999988
 51
179.999999999999
  0
ENDSEC
  0
EOF
