  0
SECTION
  2
HEADER
  9
$ACADVER
  1
AC1003
  9
$EXTMIN
 10
0.00215340499886452
 20
17.9915213955203
  9
$EXTMAX
 10
18.5021534049988
 20
-0.00847860447970672
  9
$INSBASE
 10
9.25215340499885
 20
8.99152139552032
999
Created with OMAX Layout for Windows. (http://www.omax.com) 9/11/2012
  0
ENDSEC
  0
SECTION
  2
TABLES
  0
TABLE
  2
LAYER
 70
    10
  0
LAYER
  2
0
 70
     0
 62
     7
  6
CONTINUOUS
  0
LAYER
  2
1
 70
     0
 62
     7
  6
CONTINUOUS
  0
LAYER
  2
2
 70
     0
 62
     7
  6
CONTINUOUS
  0
LAYER
  2
3
 70
     0
 62
     7
  6
CONTINUOUS
  0
LAYER
  2
4
 70
     0
 62
     7
  6
CONTINUOUS
  0
LAYER
  2
5
 70
     0
 62
     7
  6
CONTINUOUS
  0
LAYER
  2
6
 70
     0
 62
     7
  6
CONTINUOUS
  0
LAYER
  2
7
 70
     0
 62
     7
  6
CONTINUOUS
  0
LAYER
  2
8
 70
     0
 62
     7
  6
CONTINUOUS
  0
LAYER
  2
9
 70
     0
 62
     7
  6
CONTINUOUS
  0
LAYER
  2
10
 70
     0
 62
     7
  6
CONTINUOUS
  0
LAYER
  2
11
 70
     0
 62
     7
  6
CONTINUOUS
  0
LAYER
  2
12
 70
     0
 62
     7
  6
CONTINUOUS
  0
LAYER
  2
13
 70
     0
 62
     7
  6
CONTINUOUS
  0
LAYER
  2
14
 70
     0
 62
     7
  6
CONTINUOUS
  0
LAYER
  2
15
 70
     0
 62
     7
  6
CONTINUOUS
  0
LAYER
  2
16
 70
     0
 62
     7
  6
CONTINUOUS
  0
LAYER
  2
17
 70
     0
 62
     7
  6
CONTINUOUS
  0
LAYER
  2
18
 70
     0
 62
     7
  6
CONTINUOUS
  0
LAYER
  2
19
 70
     0
 62
     7
  6
CONTINUOUS
  0
LAYER
  2
20
 70
     0
 62
     7
  6
CONTINUOUS
  0
LAYER
  2
21
 70
     0
 62
     7
  6
CONTINUOUS
  0
LAYER
  2
22
 70
     0
 62
     7
  6
CONTINUOUS
  0
LAYER
  2
23
 70
     0
 62
     7
  6
CONTINUOUS
  0
LAYER
  2
24
 70
     0
 62
     7
  6
CONTINUOUS
  0
LAYER
  2
25
 70
     0
 62
     7
  6
CONTINUOUS
  0
LAYER
  2
26
 70
     0
 62
     7
  6
CONTINUOUS
  0
LAYER
  2
27
 70
     0
 62
     7
  6
CONTINUOUS
  0
LAYER
  2
28
 70
     0
 62
     7
  6
CONTINUOUS
  0
LAYER
  2
29
 70
     0
 62
     7
  6
CONTINUOUS
  0
LAYER
  2
30
 70
     0
 62
     7
  6
CONTINUOUS
  0
LAYER
  2
31
 70
     0
 62
     7
  6
CONTINUOUS
  0
ENDTAB
  0
ENDSEC
  0
SECTION
  2
ENTITIES
  0
LINE
  8
1
  6
CONTINUOUS
 62
1
 10
0.00215340499886807
 20
-0.00847860447970672
 30
0.0
 11
0.00215340499886452
 21
17.9915213955203
 31
0.0
  0
LINE
  8
1
  6
CONTINUOUS
 62
1
 10
0.00215340499886452
 20
17.9915213955203
 30
0.0
 11
18.5021534049988
 21
17.9915213955203
 31
0.0
  0
LINE
  8
1
  6
CONTINUOUS
 62
1
 10
18.5021534049988
 20
17.9915213955203
 30
0.0
 11
18.5021534049988
 21
-0.00847860447970211
 31
0.0
  0
LINE
  8
1
  6
CONTINUOUS
 62
1
 10
18.5021534049988
 20
-0.00847860447970211
 30
0.0
 11
0.00215340499886807
 21
-0.00847860447970672
 31
0.0
  0
ARC
  8
1
  6
CONTINUOUS
 62
1
 10
4.00215340499887
 20
0.896554854475364
 30
0.0
 40
0.178
 50
269.999999999999
 51
89.9999999999998
  0
ARC
  8
1
  6
CONTINUOUS
 62
1
 10
4.00215340499887
 20
0.896554854475364
 30
0.0
 40
0.178000000000001
 50
89.999999999998
 51
179.999999999999
  0
ARC
  8
1
  6
CONTINUOUS
 62
1
 10
4.00215340499887
 20
0.896554854475364
 30
0.0
 40
0.178
 50
179.999999999999
 51
270
  0
ARC
  8
1
  6
CONTINUOUS
 62
1
 10
16.0021534049988
 20
0.896521395520297
 30
0.0
 40
0.178
 50
269.999999999999
 51
89.9999999999998
  0
ARC
  8
1
  6
CONTINUOUS
 62
1
 10
16.0021534049988
 20
0.896521395520298
 30
0.0
 40
0.177999999999999
 50
89.9999999999981
 51
179.999999999999
  0
ARC
  8
1
  6
CONTINUOUS
 62
1
 10
16.0021534049988
 20
0.896521395520296
 30
0.0
 40
0.178
 50
179.999999999999
 51
270
  0
ARC
  8
1
  6
CONTINUOUS
 62
1
 10
4.00215340499886
 20
17.0865548544754
 30
0.0
 40
0.178000000000001
 50
269.999999999999
 51
89.9999999999998
  0
ARC
  8
1
  6
CONTINUOUS
 62
1
 10
4.00215340499887
 20
17.0865548544754
 30
0.0
 40
0.178000000000003
 50
89.9999999999987
 51
179.999999999999
  0
ARC
  8
1
  6
CONTINUOUS
 62
1
 10
4.00215340499887
 20
17.0865548544754
 30
0.0
 40
0.178
 50
180
 51
270
  0
ARC
  8
1
  6
CONTINUOUS
 62
1
 10
16.0021534049988
 20
17.0865213955203
 30
0.0
 40
0.177999999999997
 50
269.999999999999
 51
89.9999999999998
  0
ARC
  8
1
  6
CONTINUOUS
 62
1
 10
16.0021534049988
 20
17.0865213955203
 30
0.0
 40
0.177999999999997
 50
89.9999999999974
 51
179.999999999999
  0
ARC
  8
1
  6
CONTINUOUS
 62
1
 10
16.0021534049988
 20
17.0865213955203
 30
0.0
 40
0.177999999999998
 50
180
 51
270
  0
ARC
  8
0
  6
CONTINUOUS
 62
0
 10
4.77715340499886
 20
4.86652139552022
 30
0.0
 40
0.31548316101305
 50
269.999999999999
 51
89.9999999999998
  0
ARC
  8
0
  6
CONTINUOUS
 62
0
 10
4.77715340499887
 20
4.86652139552022
 30
0.0
 40
0.31548316101305
 50
89.9999999999979
 51
179.999999999999
  0
ARC
  8
0
  6
CONTINUOUS
 62
0
 10
4.77715340499887
 20
4.86652139552022
 30
0.0
 40
0.315483161013051
 50
179.999999999999
 51
270
  0
ARC
  8
0
  6
CONTINUOUS
 62
0
 10
13.2336534049989
 20
13.0005213955203
 30
0.0
 40
0.3154831610131
 50
269.999999999999
 51
89.9999999999998
  0
ARC
  8
0
  6
CONTINUOUS
 62
0
 10
13.2336534049989
 20
13.0005213955203
 30
0.0
 40
0.315483161013101
 50
89.9999999999977
 51
179.999999999999
  0
ARC
  8
0
  6
CONTINUOUS
 62
0
 10
13.2336534049989
 20
13.0005213955203
 30
0.0
 40
0.315483161013101
 50
179.999999999999
 51
270
  0
ARC
  8
1
  6
CONTINUOUS
 62
1
 10
13.7336534049989
 20
14.7005213955203
 30
0.0
 40
0.0999999999999996
 50
269.999999999999
 51
89.9999999999998
  0
ARC
  8
1
  6
CONTINUOUS
 62
1
 10
13.7336534049989
 20
14.7005213955203
 30
0.0
 40
0.0999999999999997
 50
89.9999999999978
 51
179.999999999999
  0
ARC
  8
1
  6
CONTINUOUS
 62
1
 10
13.7336534049989
 20
14.7005213955203
 30
0.0
 40
0.100000000000001
 50
179.999999999999
 51
270
  0
ARC
  8
1
  6
CONTINUOUS
 62
1
 10
13.7336534049989
 20
11.3005213955203
 30
0.0
 40
0.100000000000001
 50
269.999999999999
 51
89.9999999999998
  0
ARC
  8
1
  6
CONTINUOUS
 62
1
 10
13.7336534049989
 20
11.3005213955203
 30
0.0
 40
0.100000000000001
 50
89.9999999999978
 51
179.999999999999
  0
ARC
  8
1
  6
CONTINUOUS
 62
1
 10
13.7336534049989
 20
11.3005213955203
 30
0.0
 40
0.100000000000001
 50
179.999999999999
 51
270
  0
ARC
  8
1
  6
CONTINUOUS
 62
1
 10
11.0666534049989
 20
14.7005213955203
 30
0.0
 40
0.0999999999999996
 50
269.999999999999
 51
89.9999999999998
  0
ARC
  8
1
  6
CONTINUOUS
 62
1
 10
11.0666534049989
 20
14.7005213955203
 30
0.0
 40
0.0999999999999997
 50
89.9999999999978
 51
179.999999999999
  0
ARC
  8
1
  6
CONTINUOUS
 62
1
 10
11.0666534049989
 20
14.7005213955203
 30
0.0
 40
0.0999999999999997
 50
179.999999999999
 51
270
  0
ARC
  8
1
  6
CONTINUOUS
 62
1
 10
5.27715340499887
 20
3.16652139552029
 30
0.0
 40
0.100000000000001
 50
269.999999999999
 51
89.9999999999998
  0
ARC
  8
1
  6
CONTINUOUS
 62
1
 10
5.27715340499887
 20
3.16652139552029
 30
0.0
 40
0.100000000000001
 50
89.9999999999976
 51
179.999999999999
  0
ARC
  8
1
  6
CONTINUOUS
 62
1
 10
5.27715340499887
 20
3.16652139552029
 30
0.0
 40
0.100000000000001
 50
179.999999999999
 51
270
  0
ARC
  8
1
  6
CONTINUOUS
 62
1
 10
5.27711173405277
 20
6.56653111702917
 30
0.0
 40
0.100000000000001
 50
269.999999999999
 51
89.9999999999998
  0
ARC
  8
1
  6
CONTINUOUS
 62
1
 10
5.27711173405277
 20
6.56653111702917
 30
0.0
 40
0.100000000000001
 50
89.9999999999978
 51
179.999999999999
  0
ARC
  8
1
  6
CONTINUOUS
 62
1
 10
5.27711173405277
 20
6.56653111702917
 30
0.0
 40
0.100000000000002
 50
179.999999999999
 51
270
  0
ARC
  8
1
  6
CONTINUOUS
 62
1
 10
2.61020181237407
 20
3.16649640235995
 30
0.0
 40
0.0999999999999996
 50
269.999999999999
 51
89.9999999999998
  0
ARC
  8
1
  6
CONTINUOUS
 62
1
 10
2.61020181237407
 20
3.16649640235995
 30
0.0
 40
0.0999999999999996
 50
89.9999999999977
 51
179.999999999999
  0
ARC
  8
1
  6
CONTINUOUS
 62
1
 10
2.61020181237407
 20
3.16649640235995
 30
0.0
 40
0.0999999999999984
 50
179.999999999998
 51
269.999999999999
  0
ENDSEC
  0
EOF
