  0
SECTION
  2
HEADER
  9
$ACADVER
  1
AC1003
  9
$EXTMIN
 10
-0.0537851221641006
 20
18.0435563082927
  9
$EXTMAX
 10
18.4632476592657
 20
8.91501007457327
  9
$INSBASE
 10
9.20473126855081
 20
13.479283191433
999
Created with OMAX Layout for Windows. (http://www.omax.com) 9/17/2012
  0
ENDSEC
  0
SECTION
  2
TABLES
  0
TABLE
  2
LAYER
 70
    10
  0
LAYER
  2
0
 70
     0
 62
     7
  6
CONTINUOUS
  0
LAYER
  2
1
 70
     0
 62
     7
  6
CONTINUOUS
  0
LAYER
  2
2
 70
     0
 62
     7
  6
CONTINUOUS
  0
LAYER
  2
3
 70
     0
 62
     7
  6
CONTINUOUS
  0
LAYER
  2
4
 70
     0
 62
     7
  6
CONTINUOUS
  0
LAYER
  2
5
 70
     0
 62
     7
  6
CONTINUOUS
  0
LAYER
  2
6
 70
     0
 62
     7
  6
CONTINUOUS
  0
LAYER
  2
7
 70
     0
 62
     7
  6
CONTINUOUS
  0
LAYER
  2
8
 70
     0
 62
     7
  6
CONTINUOUS
  0
LAYER
  2
9
 70
     0
 62
     7
  6
CONTINUOUS
  0
LAYER
  2
10
 70
     0
 62
     7
  6
CONTINUOUS
  0
LAYER
  2
11
 70
     0
 62
     7
  6
CONTINUOUS
  0
LAYER
  2
12
 70
     0
 62
     7
  6
CONTINUOUS
  0
LAYER
  2
13
 70
     0
 62
     7
  6
CONTINUOUS
  0
LAYER
  2
14
 70
     0
 62
     7
  6
CONTINUOUS
  0
LAYER
  2
15
 70
     0
 62
     7
  6
CONTINUOUS
  0
LAYER
  2
16
 70
     0
 62
     7
  6
CONTINUOUS
  0
LAYER
  2
17
 70
     0
 62
     7
  6
CONTINUOUS
  0
LAYER
  2
18
 70
     0
 62
     7
  6
CONTINUOUS
  0
LAYER
  2
19
 70
     0
 62
     7
  6
CONTINUOUS
  0
LAYER
  2
20
 70
     0
 62
     7
  6
CONTINUOUS
  0
LAYER
  2
21
 70
     0
 62
     7
  6
CONTINUOUS
  0
LAYER
  2
22
 70
     0
 62
     7
  6
CONTINUOUS
  0
LAYER
  2
23
 70
     0
 62
     7
  6
CONTINUOUS
  0
LAYER
  2
24
 70
     0
 62
     7
  6
CONTINUOUS
  0
LAYER
  2
25
 70
     0
 62
     7
  6
CONTINUOUS
  0
LAYER
  2
26
 70
     0
 62
     7
  6
CONTINUOUS
  0
LAYER
  2
27
 70
     0
 62
     7
  6
CONTINUOUS
  0
LAYER
  2
28
 70
     0
 62
     7
  6
CONTINUOUS
  0
LAYER
  2
29
 70
     0
 62
     7
  6
CONTINUOUS
  0
LAYER
  2
30
 70
     0
 62
     7
  6
CONTINUOUS
  0
LAYER
  2
31
 70
     0
 62
     7
  6
CONTINUOUS
  0
ENDTAB
  0
ENDSEC
  0
SECTION
  2
ENTITIES
  0
LINE
  8
1
  6
CONTINUOUS
 62
1
 10
0.4469800085533
 20
8.91531630741062
 30
0.0
 11
0.446214877835899
 21
9.24131574594198
 31
0.0
  0
LINE
  8
1
  6
CONTINUOUS
 62
1
 10
0.446214877835899
 20
9.24131574594198
 30
0.0
 11
-0.0537851221641006
 21
9.24131574594198
 31
0.0
  0
LINE
  8
1
  6
CONTINUOUS
 62
1
 10
-0.0537851221641006
 20
9.24131574594198
 30
0.0
 11
-0.0530199914466998
 21
8.91531630741062
 31
0.0
  0
LINE
  8
1
  6
CONTINUOUS
 62
1
 10
-0.0530199914466998
 20
8.91531630741062
 30
0.0
 11
0.4469800085533
 21
8.91531630741062
 31
0.0
  0
LINE
  8
1
  6
CONTINUOUS
 62
1
 10
18.4629296965663
 20
8.91508663278225
 30
0.0
 11
18.4624573374949
 21
9.22758484777202
 31
0.0
  0
LINE
  8
1
  6
CONTINUOUS
 62
1
 10
18.4624573374949
 20
9.22758484777202
 30
0.0
 11
17.922455973253
 21
9.22750828956304
 31
0.0
  0
LINE
  8
1
  6
CONTINUOUS
 62
1
 10
17.922455973253
 20
9.22750828956304
 30
0.0
 11
17.9229283323244
 21
8.91501007457327
 31
0.0
  0
LINE
  8
1
  6
CONTINUOUS
 62
1
 10
17.9229283323244
 20
8.91501007457327
 30
0.0
 11
18.4629296965663
 21
8.91508663278225
 31
0.0
  0
LINE
  8
1
  6
CONTINUOUS
 62
1
 10
18.4631603911484
 20
17.7273960906726
 30
0.0
 11
18.4632476592657
 21
18.0398960297467
 31
0.0
  0
LINE
  8
1
  6
CONTINUOUS
 62
1
 10
18.4632476592657
 20
18.0398960297467
 30
0.0
 11
17.923251578219
 21
18.0389249862907
 31
0.0
  0
LINE
  8
1
  6
CONTINUOUS
 62
1
 10
17.923251578219
 20
18.0389249862907
 30
0.0
 11
17.9231643101016
 21
17.7264250472165
 31
0.0
  0
LINE
  8
1
  6
CONTINUOUS
 62
1
 10
17.9231643101016
 20
17.7264250472165
 30
0.0
 11
18.4631603911484
 21
17.7273960906726
 31
0.0
  0
LINE
  8
1
  6
CONTINUOUS
 62
1
 10
4.8220138653001
 20
8.9153163074117
 30
0.0
 11
4.8220138653001
 21
9.9153163074117
 31
0.0
  0
LINE
  8
1
  6
CONTINUOUS
 62
1
 10
4.8220138653001
 20
9.9153163074117
 30
0.0
 11
3.1970138653001
 21
9.9153163074117
 31
0.0
  0
LINE
  8
1
  6
CONTINUOUS
 62
1
 10
3.1970138653001
 20
9.9153163074117
 30
0.0
 11
3.1970138653001
 21
8.9153163074117
 31
0.0
  0
LINE
  8
1
  6
CONTINUOUS
 62
1
 10
3.1970138653001
 20
8.9153163074117
 30
0.0
 11
4.8220138653001
 21
8.9153163074117
 31
0.0
  0
LINE
  8
1
  6
CONTINUOUS
 62
1
 10
4.8217198911295
 20
17.0401923677723
 30
0.0
 11
4.8217198911295
 21
18.0401923677723
 31
0.0
  0
LINE
  8
1
  6
CONTINUOUS
 62
1
 10
4.8217198911295
 20
18.0401923677723
 30
0.0
 11
3.1967198911295
 21
18.0401923677723
 31
0.0
  0
LINE
  8
1
  6
CONTINUOUS
 62
1
 10
3.1967198911295
 20
18.0401923677723
 30
0.0
 11
3.1967198911295
 21
17.0401923677723
 31
0.0
  0
LINE
  8
1
  6
CONTINUOUS
 62
1
 10
3.1967198911295
 20
17.0401923677723
 30
0.0
 11
4.8217198911295
 21
17.0401923677723
 31
0.0
  0
LINE
  8
1
  6
CONTINUOUS
 62
1
 10
16.672446739712
 20
8.91531630741027
 30
0.0
 11
16.672446739712
 21
9.91531630741027
 31
0.0
  0
LINE
  8
1
  6
CONTINUOUS
 62
1
 10
16.672446739712
 20
9.91531630741027
 30
0.0
 11
15.047446739712
 21
9.91531630741027
 31
0.0
  0
LINE
  8
1
  6
CONTINUOUS
 62
1
 10
15.047446739712
 20
9.91531630741027
 30
0.0
 11
15.047446739712
 21
8.91531630741027
 31
0.0
  0
LINE
  8
1
  6
CONTINUOUS
 62
1
 10
15.047446739712
 20
8.91531630741027
 30
0.0
 11
16.672446739712
 21
8.91531630741027
 31
0.0
  0
LINE
  8
1
  6
CONTINUOUS
 62
1
 10
16.6731998976273
 20
17.0435563082927
 30
0.0
 11
16.6731998976273
 21
18.0435563082927
 31
0.0
  0
LINE
  8
1
  6
CONTINUOUS
 62
1
 10
16.6731998976273
 20
18.0435563082927
 30
0.0
 11
15.0481998976273
 21
18.0435563082927
 31
0.0
  0
LINE
  8
1
  6
CONTINUOUS
 62
1
 10
15.0481998976273
 20
18.0435563082927
 30
0.0
 11
15.0481998976273
 21
17.0435563082927
 31
0.0
  0
LINE
  8
1
  6
CONTINUOUS
 62
1
 10
15.0481998976273
 20
17.0435563082927
 30
0.0
 11
16.6731998976273
 21
17.0435563082927
 31
0.0
  0
LINE
  8
1
  6
CONTINUOUS
 62
1
 10
-0.0530199914466998
 20
8.91531630741062
 30
0.0
 11
-0.0530199914467033
 21
18.0398958728176
 31
0.0
  0
LINE
  8
1
  6
CONTINUOUS
 62
1
 10
-0.0530199914467033
 20
18.0398958728176
 30
0.0
 11
18.4631603911484
 21
18.0398958728176
 31
0.0
  0
LINE
  8
1
  6
CONTINUOUS
 62
1
 10
18.4631603911484
 20
18.0398958728176
 30
0.0
 11
18.4631603911484
 21
8.91531630741063
 31
0.0
  0
LINE
  8
1
  6
CONTINUOUS
 62
1
 10
18.4631603911484
 20
8.91531630741063
 30
0.0
 11
-0.0530199914466998
 21
8.91531630741062
 31
0.0
  0
LINE
  8
1
  6
CONTINUOUS
 62
1
 10
0.447451922680997
 20
17.714055598645
 30
0.0
 11
0.446686791963597
 21
18.0400550371764
 31
0.0
  0
LINE
  8
1
  6
CONTINUOUS
 62
1
 10
0.446686791963597
 20
18.0400550371764
 30
0.0
 11
-0.0533132080364034
 21
18.0400550371764
 31
0.0
  0
LINE
  8
1
  6
CONTINUOUS
 62
1
 10
-0.0533132080364034
 20
18.0400550371764
 30
0.0
 11
-0.0525480773190026
 21
17.714055598645
 31
0.0
  0
LINE
  8
1
  6
CONTINUOUS
 62
1
 10
-0.0525480773190026
 20
17.714055598645
 30
0.0
 11
0.447451922680997
 21
17.714055598645
 31
0.0
  0
ENDSEC
  0
EOF
