  0
SECTION
  2
HEADER
  9
$ACADVER
  1
AC1003
  9
$EXTMIN
 10
-0.00178745101167443
 20
17.9910372798018
  9
$EXTMAX
 10
4.99821254898843
 20
13.4910372798018
  9
$INSBASE
 10
2.49821254898838
 20
15.7410372798018
999
Created with OMAX Layout for Windows. (http://www.omax.com) 12/15/2012
  0
ENDSEC
  0
SECTION
  2
TABLES
  0
TABLE
  2
LAYER
 70
    10
  0
LAYER
  2
0
 70
     0
 62
     7
  6
CONTINUOUS
  0
LAYER
  2
1
 70
     0
 62
     7
  6
CONTINUOUS
  0
LAYER
  2
2
 70
     0
 62
     7
  6
CONTINUOUS
  0
LAYER
  2
3
 70
     0
 62
     7
  6
CONTINUOUS
  0
LAYER
  2
4
 70
     0
 62
     7
  6
CONTINUOUS
  0
LAYER
  2
5
 70
     0
 62
     7
  6
CONTINUOUS
  0
LAYER
  2
6
 70
     0
 62
     7
  6
CONTINUOUS
  0
LAYER
  2
7
 70
     0
 62
     7
  6
CONTINUOUS
  0
LAYER
  2
8
 70
     0
 62
     7
  6
CONTINUOUS
  0
LAYER
  2
9
 70
     0
 62
     7
  6
CONTINUOUS
  0
LAYER
  2
10
 70
     0
 62
     7
  6
CONTINUOUS
  0
LAYER
  2
11
 70
     0
 62
     7
  6
CONTINUOUS
  0
LAYER
  2
12
 70
     0
 62
     7
  6
CONTINUOUS
  0
LAYER
  2
13
 70
     0
 62
     7
  6
CONTINUOUS
  0
LAYER
  2
14
 70
     0
 62
     7
  6
CONTINUOUS
  0
LAYER
  2
15
 70
     0
 62
     7
  6
CONTINUOUS
  0
LAYER
  2
16
 70
     0
 62
     7
  6
CONTINUOUS
  0
LAYER
  2
17
 70
     0
 62
     7
  6
CONTINUOUS
  0
LAYER
  2
18
 70
     0
 62
     7
  6
CONTINUOUS
  0
LAYER
  2
19
 70
     0
 62
     7
  6
CONTINUOUS
  0
LAYER
  2
20
 70
     0
 62
     7
  6
CONTINUOUS
  0
LAYER
  2
21
 70
     0
 62
     7
  6
CONTINUOUS
  0
LAYER
  2
22
 70
     0
 62
     7
  6
CONTINUOUS
  0
LAYER
  2
23
 70
     0
 62
     7
  6
CONTINUOUS
  0
LAYER
  2
24
 70
     0
 62
     7
  6
CONTINUOUS
  0
LAYER
  2
25
 70
     0
 62
     7
  6
CONTINUOUS
  0
LAYER
  2
26
 70
     0
 62
     7
  6
CONTINUOUS
  0
LAYER
  2
27
 70
     0
 62
     7
  6
CONTINUOUS
  0
LAYER
  2
28
 70
     0
 62
     7
  6
CONTINUOUS
  0
LAYER
  2
29
 70
     0
 62
     7
  6
CONTINUOUS
  0
LAYER
  2
30
 70
     0
 62
     7
  6
CONTINUOUS
  0
LAYER
  2
31
 70
     0
 62
     7
  6
CONTINUOUS
  0
ENDTAB
  0
ENDSEC
  0
SECTION
  2
ENTITIES
  0
ARC
  8
6
  6
CONTINUOUS
 62
6
 10
2.68571243107233
 20
15.2200239794219
 30
0.0
 40
0.3154831610131
 50
179.999999999999
 51
359.999999999999
  0
ARC
  8
6
  6
CONTINUOUS
 62
6
 10
2.68571243107233
 20
15.2200239794219
 30
0.0
 40
0.3154831610131
 50
359.999999999999
 51
180
  0
ARC
  8
1
  6
CONTINUOUS
 62
1
 10
4.26071243107238
 20
14.4075239794219
 30
0.0
 40
0.100000000000051
 50
179.999999999999
 51
359.999999999999
  0
ARC
  8
1
  6
CONTINUOUS
 62
1
 10
4.26071243107238
 20
14.4075239794219
 30
0.0
 40
0.100000000000051
 50
359.999999999999
 51
180
  0
ARC
  8
1
  6
CONTINUOUS
 62
1
 10
0.735762431072326
 20
14.4075239794219
 30
0.0
 40
0.0999999999999996
 50
179.999999999999
 51
359.999999999999
  0
ARC
  8
1
  6
CONTINUOUS
 62
1
 10
0.735762431072326
 20
14.4075239794219
 30
0.0
 40
0.0999999999999996
 50
359.999999999999
 51
180
  0
ARC
  8
1
  6
CONTINUOUS
 62
1
 10
4.26071243107232
 20
17.0745239794219
 30
0.0
 40
0.0999999999999996
 50
179.999999999999
 51
359.999999999999
  0
ARC
  8
1
  6
CONTINUOUS
 62
1
 10
4.26071243107232
 20
17.0745239794219
 30
0.0
 40
0.0999999999999996
 50
359.999999999999
 51
180
  0
LINE
  8
1
  6
CONTINUOUS
 62
1
 10
-0.00178745101167443
 20
13.4910372798018
 30
0.0
 11
4.99821254898843
 21
13.4910372798018
 31
0.0
  0
LINE
  8
1
  6
CONTINUOUS
 62
1
 10
4.99821254898843
 20
13.4910372798018
 30
0.0
 11
4.99821254898843
 21
17.9910372798018
 31
0.0
  0
LINE
  8
1
  6
CONTINUOUS
 62
1
 10
4.99821254898843
 20
17.9910372798018
 30
0.0
 11
-0.00178745101167443
 21
17.9910372798018
 31
0.0
  0
LINE
  8
1
  6
CONTINUOUS
 62
1
 10
-0.00178745101167443
 20
17.9910372798018
 30
0.0
 11
-0.00178745101167443
 21
13.4910372798018
 31
0.0
  0
LINE
  8
6
  6
CONTINUOUS
 62
6
 10
2.28990321859297
 20
16.2490099663194
 30
0.0
 11
2.28990321859297
 21
16.0390099663194
 31
0.0
  0
LINE
  8
6
  6
CONTINUOUS
 62
6
 10
2.28990321859297
 20
16.0390099663194
 30
0.0
 11
2.28990321859297
 21
15.8290099663194
 31
0.0
  0
LINE
  8
6
  6
CONTINUOUS
 62
6
 10
2.28990321859297
 20
16.0390099663194
 30
0.0
 11
2.54490321859297
 21
16.0390099663194
 31
0.0
  0
LINE
  8
6
  6
CONTINUOUS
 62
6
 10
2.54490321859297
 20
15.8290099663194
 30
0.0
 11
2.54490321859297
 21
16.0390099663194
 31
0.0
  0
LINE
  8
6
  6
CONTINUOUS
 62
6
 10
2.54490321859297
 20
16.0390099663194
 30
0.0
 11
2.54490321859297
 21
16.2490099663194
 31
0.0
  0
ARC
  8
6
  6
CONTINUOUS
 62
6
 10
2.68782628277922
 20
16.1290099663194
 30
0.0
 40
0.120000000000001
 50
89.9999999999986
 51
150.000000000001
  0
LINE
  8
6
  6
CONTINUOUS
 62
6
 10
2.68782628277922
 20
16.2490099663194
 30
0.0
 11
2.69714374277922
 21
16.2490099663194
 31
0.0
  0
ARC
  8
6
  6
CONTINUOUS
 62
6
 10
2.69714374277921
 20
16.1290099663194
 30
0.0
 40
0.120000000000003
 50
2.57598099999843
 51
89.9999999999984
  0
ARC
  8
6
  6
CONTINUOUS
 62
6
 10
2.69714370354718
 20
16.1397962561635
 30
0.0
 40
0.12000002483887
 50
317.775072177047
 51
357.424172177047
  0
ARC
  8
6
  6
CONTINUOUS
 62
6
 10
2.13732195484855
 20
16.8155907011534
 30
0.0
 40
0.996489245749329
 50
302.86897240407
 51
310.61467240407
  0
ARC
  8
6
  6
CONTINUOUS
 62
6
 10
2.77558080992793
 20
15.8009673042256
 30
0.0
 40
0.202627453864345
 50
118.744515028163
 51
172.045015028163
  0
LINE
  8
6
  6
CONTINUOUS
 62
6
 10
2.57490321859297
 20
15.829009939543
 30
0.0
 11
2.82600322277922
 21
15.8290099663194
 31
0.0
  0
ARC
  8
6
  6
CONTINUOUS
 62
6
 10
2.99589178277922
 20
16.1241061663194
 30
0.0
 40
0.1249038
 50
93.4424652776287
 51
164.098
  0
ARC
  8
6
  6
CONTINUOUS
 62
6
 10
3.23017273165579
 20
16.0383287897705
 30
0.0
 40
0.374169560784256
 50
161.2941
 51
198.7059
  0
ARC
  8
6
  6
CONTINUOUS
 62
6
 10
2.99589165325341
 20
15.9525514805118
 30
0.0
 40
0.124903626714107
 50
195.902054741785
 51
266.557589464157
  0
ARC
  8
6
  6
CONTINUOUS
 62
6
 10
2.99589178277922
 20
15.9525516463194
 30
0.0
 40
0.1249038
 50
273.442465277627
 51
344.097999999997
  0
ARC
  8
6
  6
CONTINUOUS
 62
6
 10
2.76161085681721
 20
16.0383290151094
 30
0.0
 40
0.374169536591779
 50
341.294099999999
 51
18.7059000000007
  0
ARC
  8
6
  6
CONTINUOUS
 62
6
 10
2.99589196135817
 20
16.1241062397142
 30
0.0
 40
0.124903716014757
 50
15.9020797482303
 51
86.5576144706033
  0
ENDSEC
  0
EOF
