  0
SECTION
  2
HEADER
  9
$ACADVER
  1
AC1003
  9
$EXTMIN
 10
0.0044958275478022
 20
17.991971712384
  9
$EXTMAX
 10
5.00449582754771
 20
13.491971712384
  9
$INSBASE
 10
2.50449582754776
 20
15.741971712384
999
Created with OMAX Layout for Windows. (http://www.omax.com) 9/19/2012
  0
ENDSEC
  0
SECTION
  2
TABLES
  0
TABLE
  2
LAYER
 70
    10
  0
LAYER
  2
0
 70
     0
 62
     7
  6
CONTINUOUS
  0
LAYER
  2
1
 70
     0
 62
     7
  6
CONTINUOUS
  0
LAYER
  2
2
 70
     0
 62
     7
  6
CONTINUOUS
  0
LAYER
  2
3
 70
     0
 62
     7
  6
CONTINUOUS
  0
LAYER
  2
4
 70
     0
 62
     7
  6
CONTINUOUS
  0
LAYER
  2
5
 70
     0
 62
     7
  6
CONTINUOUS
  0
LAYER
  2
6
 70
     0
 62
     7
  6
CONTINUOUS
  0
LAYER
  2
7
 70
     0
 62
     7
  6
CONTINUOUS
  0
LAYER
  2
8
 70
     0
 62
     7
  6
CONTINUOUS
  0
LAYER
  2
9
 70
     0
 62
     7
  6
CONTINUOUS
  0
LAYER
  2
10
 70
     0
 62
     7
  6
CONTINUOUS
  0
LAYER
  2
11
 70
     0
 62
     7
  6
CONTINUOUS
  0
LAYER
  2
12
 70
     0
 62
     7
  6
CONTINUOUS
  0
LAYER
  2
13
 70
     0
 62
     7
  6
CONTINUOUS
  0
LAYER
  2
14
 70
     0
 62
     7
  6
CONTINUOUS
  0
LAYER
  2
15
 70
     0
 62
     7
  6
CONTINUOUS
  0
LAYER
  2
16
 70
     0
 62
     7
  6
CONTINUOUS
  0
LAYER
  2
17
 70
     0
 62
     7
  6
CONTINUOUS
  0
LAYER
  2
18
 70
     0
 62
     7
  6
CONTINUOUS
  0
LAYER
  2
19
 70
     0
 62
     7
  6
CONTINUOUS
  0
LAYER
  2
20
 70
     0
 62
     7
  6
CONTINUOUS
  0
LAYER
  2
21
 70
     0
 62
     7
  6
CONTINUOUS
  0
LAYER
  2
22
 70
     0
 62
     7
  6
CONTINUOUS
  0
LAYER
  2
23
 70
     0
 62
     7
  6
CONTINUOUS
  0
LAYER
  2
24
 70
     0
 62
     7
  6
CONTINUOUS
  0
LAYER
  2
25
 70
     0
 62
     7
  6
CONTINUOUS
  0
LAYER
  2
26
 70
     0
 62
     7
  6
CONTINUOUS
  0
LAYER
  2
27
 70
     0
 62
     7
  6
CONTINUOUS
  0
LAYER
  2
28
 70
     0
 62
     7
  6
CONTINUOUS
  0
LAYER
  2
29
 70
     0
 62
     7
  6
CONTINUOUS
  0
LAYER
  2
30
 70
     0
 62
     7
  6
CONTINUOUS
  0
LAYER
  2
31
 70
     0
 62
     7
  6
CONTINUOUS
  0
ENDTAB
  0
ENDSEC
  0
SECTION
  2
ENTITIES
  0
ARC
  8
7
  6
CONTINUOUS
 62
7
 10
2.28644925025706
 20
14.9085174023388
 30
0.0
 40
0.31548316101305
 50
179.999999999999
 51
359.999999999999
  0
ARC
  8
7
  6
CONTINUOUS
 62
7
 10
2.28644925025706
 20
14.9085174023388
 30
0.0
 40
0.31548316101305
 50
359.999999999999
 51
180
  0
ARC
  8
1
  6
CONTINUOUS
 62
1
 10
0.742449250257133
 20
14.4085174023388
 30
0.0
 40
0.100000000000001
 50
179.999999999999
 51
359.999999999999
  0
ARC
  8
1
  6
CONTINUOUS
 62
1
 10
0.742449250257133
 20
14.4085174023388
 30
0.0
 40
0.100000000000001
 50
359.999999999999
 51
180
  0
ARC
  8
1
  6
CONTINUOUS
 62
1
 10
4.26645897176601
 20
14.4085590732849
 30
0.0
 40
0.0999999999999996
 50
179.999999999999
 51
359.999999999999
  0
ARC
  8
1
  6
CONTINUOUS
 62
1
 10
4.26645897176601
 20
14.4085590732849
 30
0.0
 40
0.0999999999999996
 50
359.999999999999
 51
180
  0
ARC
  8
1
  6
CONTINUOUS
 62
1
 10
0.742424257096792
 20
17.0754689949637
 30
0.0
 40
0.0999999999999996
 50
179.999999999999
 51
359.999999999999
  0
ARC
  8
1
  6
CONTINUOUS
 62
1
 10
0.742424257096792
 20
17.0754689949637
 30
0.0
 40
0.0999999999999996
 50
359.999999999999
 51
180
  0
LINE
  8
1
  6
CONTINUOUS
 62
1
 10
0.0044958275478022
 20
13.491971712384
 30
0.0
 11
5.00449582754771
 21
13.491971712384
 31
0.0
  0
LINE
  8
1
  6
CONTINUOUS
 62
1
 10
5.00449582754771
 20
13.491971712384
 30
0.0
 11
5.00449582754771
 21
17.991971712384
 31
0.0
  0
LINE
  8
1
  6
CONTINUOUS
 62
1
 10
5.00449582754771
 20
17.991971712384
 30
0.0
 11
0.0044958275478022
 21
17.991971712384
 31
0.0
  0
LINE
  8
1
  6
CONTINUOUS
 62
1
 10
0.0044958275478022
 20
17.991971712384
 30
0.0
 11
0.0044958275478022
 21
13.491971712384
 31
0.0
  0
LINE
  8
7
  6
CONTINUOUS
 62
7
 10
2.65568441031931
 20
16.7263325604732
 30
0.0
 11
2.81318441031932
 21
17.1463325604732
 31
0.0
  0
LINE
  8
7
  6
CONTINUOUS
 62
7
 10
2.81318441031932
 20
17.1463325604732
 30
0.0
 11
2.97068441031932
 21
16.7263325604732
 31
0.0
  0
LINE
  8
7
  6
CONTINUOUS
 62
7
 10
2.71346442085302
 20
16.8163325604732
 30
0.0
 11
2.91290439978561
 21
16.8163325604732
 31
0.0
  0
LINE
  8
7
  6
CONTINUOUS
 62
7
 10
3.00068441031932
 20
17.1463325604732
 30
0.0
 11
3.06068438220482
 21
17.1463325604732
 31
0.0
  0
LINE
  8
7
  6
CONTINUOUS
 62
7
 10
3.06068438220482
 20
17.1463325604732
 30
0.0
 11
3.12068438220482
 21
17.1463325604732
 31
0.0
  0
LINE
  8
7
  6
CONTINUOUS
 62
7
 10
3.06068438220482
 20
17.1463325604732
 30
0.0
 11
3.06068438220482
 21
16.7263325604732
 31
0.0
  0
LINE
  8
7
  6
CONTINUOUS
 62
7
 10
3.00068441031932
 20
16.7263325604732
 30
0.0
 11
3.06068438220482
 21
16.7263325604732
 31
0.0
  0
LINE
  8
7
  6
CONTINUOUS
 62
7
 10
3.06068438220482
 20
16.7263325604732
 30
0.0
 11
3.12068438220482
 21
16.7263325604732
 31
0.0
  0
LINE
  8
7
  6
CONTINUOUS
 62
7
 10
3.15068438220482
 20
17.1463325604732
 30
0.0
 11
3.15068438220482
 21
16.7263325604732
 31
0.0
  0
LINE
  8
7
  6
CONTINUOUS
 62
7
 10
3.17318438220482
 20
17.1463325604732
 30
0.0
 11
3.30308438220482
 21
17.1463325604732
 31
0.0
  0
ARC
  8
7
  6
CONTINUOUS
 62
7
 10
3.30308438220483
 20
17.0413325604732
 30
0.0
 40
0.105000000000006
 50
359.995600000002
 51
90.0000000000042
  0
ARC
  8
7
  6
CONTINUOUS
 62
7
 10
3.30308438220482
 20
17.0413325604732
 30
0.0
 40
0.105000000000013
 50
269.991199999991
 51
359.995599999993
  0
LINE
  8
7
  6
CONTINUOUS
 62
7
 10
3.30306825536258
 20
16.9363325617117
 30
0.0
 11
3.40808438220482
 21
16.7263325604732
 31
0.0
  0
LINE
  8
7
  6
CONTINUOUS
 62
7
 10
3.17318438220482
 20
16.9363325604732
 30
0.0
 11
3.30306818220482
 21
16.9363325604732
 31
0.0
  0
ARC
  8
7
  6
CONTINUOUS
 62
7
 10
3.88100744639107
 20
17.0263325604732
 30
0.0
 40
0.119999999999999
 50
89.9999999999971
 51
149.999999999999
  0
LINE
  8
7
  6
CONTINUOUS
 62
7
 10
3.88100744639108
 20
17.1463325604732
 30
0.0
 11
3.89032490639107
 21
17.1463325604732
 31
0.0
  0
ARC
  8
7
  6
CONTINUOUS
 62
7
 10
3.89032490639107
 20
17.0263325604732
 30
0.0
 40
0.120000000000001
 50
2.57598099999919
 51
89.9999999999992
  0
ARC
  8
7
  6
CONTINUOUS
 62
7
 10
3.89032486715903
 20
17.0371188503174
 30
0.0
 40
0.12000002483887
 50
317.775072177047
 51
357.424172177047
  0
ARC
  8
7
  6
CONTINUOUS
 62
7
 10
3.33050311846039
 20
17.7129132953072
 30
0.0
 40
0.996489245749336
 50
302.868972404071
 51
310.614672404071
  0
ARC
  8
7
  6
CONTINUOUS
 62
7
 10
3.96876197353978
 20
16.6982898983794
 30
0.0
 40
0.202627453864347
 50
118.744515028163
 51
172.045015028163
  0
LINE
  8
7
  6
CONTINUOUS
 62
7
 10
3.76808438220482
 20
16.7263325336968
 30
0.0
 11
4.01918438639107
 21
16.7263325604732
 31
0.0
  0
ENDSEC
  0
EOF
