  0
SECTION
  2
HEADER
  9
$ACADVER
  1
AC1003
  9
$EXTMIN
 10
-0.0113223586776325
 20
17.9838968529546
  9
$EXTMAX
 10
9.98867764132238
 20
13.4838968529546
  9
$INSBASE
 10
4.98867764132237
 20
15.7338968529546
999
Created with OMAX Layout for Windows. (http://www.omax.com) 9/14/2012
  0
ENDSEC
  0
SECTION
  2
TABLES
  0
TABLE
  2
LAYER
 70
    10
  0
LAYER
  2
0
 70
     0
 62
     7
  6
CONTINUOUS
  0
LAYER
  2
1
 70
     0
 62
     7
  6
CONTINUOUS
  0
LAYER
  2
2
 70
     0
 62
     7
  6
CONTINUOUS
  0
LAYER
  2
3
 70
     0
 62
     7
  6
CONTINUOUS
  0
LAYER
  2
4
 70
     0
 62
     7
  6
CONTINUOUS
  0
LAYER
  2
5
 70
     0
 62
     7
  6
CONTINUOUS
  0
LAYER
  2
6
 70
     0
 62
     7
  6
CONTINUOUS
  0
LAYER
  2
7
 70
     0
 62
     7
  6
CONTINUOUS
  0
LAYER
  2
8
 70
     0
 62
     7
  6
CONTINUOUS
  0
LAYER
  2
9
 70
     0
 62
     7
  6
CONTINUOUS
  0
LAYER
  2
10
 70
     0
 62
     7
  6
CONTINUOUS
  0
LAYER
  2
11
 70
     0
 62
     7
  6
CONTINUOUS
  0
LAYER
  2
12
 70
     0
 62
     7
  6
CONTINUOUS
  0
LAYER
  2
13
 70
     0
 62
     7
  6
CONTINUOUS
  0
LAYER
  2
14
 70
     0
 62
     7
  6
CONTINUOUS
  0
LAYER
  2
15
 70
     0
 62
     7
  6
CONTINUOUS
  0
LAYER
  2
16
 70
     0
 62
     7
  6
CONTINUOUS
  0
LAYER
  2
17
 70
     0
 62
     7
  6
CONTINUOUS
  0
LAYER
  2
18
 70
     0
 62
     7
  6
CONTINUOUS
  0
LAYER
  2
19
 70
     0
 62
     7
  6
CONTINUOUS
  0
LAYER
  2
20
 70
     0
 62
     7
  6
CONTINUOUS
  0
LAYER
  2
21
 70
     0
 62
     7
  6
CONTINUOUS
  0
LAYER
  2
22
 70
     0
 62
     7
  6
CONTINUOUS
  0
LAYER
  2
23
 70
     0
 62
     7
  6
CONTINUOUS
  0
LAYER
  2
24
 70
     0
 62
     7
  6
CONTINUOUS
  0
LAYER
  2
25
 70
     0
 62
     7
  6
CONTINUOUS
  0
LAYER
  2
26
 70
     0
 62
     7
  6
CONTINUOUS
  0
LAYER
  2
27
 70
     0
 62
     7
  6
CONTINUOUS
  0
LAYER
  2
28
 70
     0
 62
     7
  6
CONTINUOUS
  0
LAYER
  2
29
 70
     0
 62
     7
  6
CONTINUOUS
  0
LAYER
  2
30
 70
     0
 62
     7
  6
CONTINUOUS
  0
LAYER
  2
31
 70
     0
 62
     7
  6
CONTINUOUS
  0
ENDTAB
  0
ENDSEC
  0
SECTION
  2
ENTITIES
  0
ARC
  8
1
  6
CONTINUOUS
 62
1
 10
9.25117752340633
 20
14.3903835525747
 30
0.0
 40
0.100000000000051
 50
179.999999999999
 51
359.999999999999
  0
ARC
  8
1
  6
CONTINUOUS
 62
1
 10
9.25117752340633
 20
14.3903835525747
 30
0.0
 40
0.100000000000051
 50
359.999999999999
 51
180
  0
ARC
  8
1
  6
CONTINUOUS
 62
1
 10
5.72622752340628
 20
14.3903835525747
 30
0.0
 40
0.0999999999999996
 50
179.999999999999
 51
359.999999999999
  0
ARC
  8
1
  6
CONTINUOUS
 62
1
 10
5.72622752340628
 20
14.3903835525747
 30
0.0
 40
0.0999999999999996
 50
359.999999999999
 51
180
  0
ARC
  8
1
  6
CONTINUOUS
 62
1
 10
9.25117752340627
 20
17.0573835525747
 30
0.0
 40
0.0999999999999996
 50
179.999999999999
 51
359.999999999999
  0
ARC
  8
1
  6
CONTINUOUS
 62
1
 10
9.25117752340627
 20
17.0573835525747
 30
0.0
 40
0.0999999999999996
 50
359.999999999999
 51
180
  0
ARC
  8
1
  6
CONTINUOUS
 62
1
 10
0.741631064031697
 20
14.4004425429094
 30
0.0
 40
0.100000000000001
 50
179.999999999999
 51
359.999999999999
  0
ARC
  8
1
  6
CONTINUOUS
 62
1
 10
0.741631064031697
 20
14.4004425429094
 30
0.0
 40
0.100000000000001
 50
359.999999999999
 51
180
  0
ARC
  8
1
  6
CONTINUOUS
 62
1
 10
4.23564078554058
 20
14.4004842138555
 30
0.0
 40
0.0999999999999996
 50
179.999999999999
 51
359.999999999999
  0
ARC
  8
1
  6
CONTINUOUS
 62
1
 10
4.23564078554058
 20
14.4004842138555
 30
0.0
 40
0.0999999999999996
 50
359.999999999999
 51
180
  0
ARC
  8
1
  6
CONTINUOUS
 62
1
 10
0.741606070871357
 20
17.0673941355342
 30
0.0
 40
0.0999999999999996
 50
179.999999999999
 51
359.999999999999
  0
ARC
  8
1
  6
CONTINUOUS
 62
1
 10
0.741606070871357
 20
17.0673941355342
 30
0.0
 40
0.0999999999999996
 50
359.999999999999
 51
180
  0
LINE
  8
1
  6
CONTINUOUS
 62
1
 10
-0.0113223586776325
 20
13.4838968529546
 30
0.0
 11
4.98867764132228
 21
13.4838968529546
 31
0.0
  0
LINE
  8
1
  6
CONTINUOUS
 62
1
 10
4.98867764132228
 20
13.4838968529546
 30
0.0
 11
4.98867764132228
 21
17.9838968529546
 31
0.0
  0
LINE
  8
1
  6
CONTINUOUS
 62
1
 10
4.98867764132228
 20
17.9838968529546
 30
0.0
 11
-0.0113223586776325
 21
17.9838968529546
 31
0.0
  0
LINE
  8
1
  6
CONTINUOUS
 62
1
 10
-0.0113223586776325
 20
17.9838968529546
 30
0.0
 11
-0.0113223586776325
 21
13.4838968529546
 31
0.0
  0
LINE
  8
1
  6
CONTINUOUS
 62
1
 10
4.98867764132228
 20
13.4838968529546
 30
0.0
 11
9.98867764132238
 21
13.4838968529546
 31
0.0
  0
LINE
  8
1
  6
CONTINUOUS
 62
1
 10
9.98867764132238
 20
13.4838968529546
 30
0.0
 11
9.98867764132238
 21
17.9838968529546
 31
0.0
  0
LINE
  8
1
  6
CONTINUOUS
 62
1
 10
9.98867764132238
 20
17.9838968529546
 30
0.0
 11
4.98867764132228
 21
17.9838968529546
 31
0.0
  0
LINE
  8
1
  6
CONTINUOUS
 62
1
 10
4.98867764132228
 20
17.9838968529546
 30
0.0
 11
4.98867764132228
 21
13.4838968529546
 31
0.0
  0
LINE
  8
7
  6
CONTINUOUS
 62
7
 10
3.76594774088214
 20
17.0649889682682
 30
0.0
 11
3.92344774088214
 21
17.4849889682682
 31
0.0
  0
LINE
  8
7
  6
CONTINUOUS
 62
7
 10
3.92344774088214
 20
17.4849889682682
 30
0.0
 11
4.08094774088214
 21
17.0649889682682
 31
0.0
  0
LINE
  8
7
  6
CONTINUOUS
 62
7
 10
3.82372775141584
 20
17.1549889682682
 30
0.0
 11
4.02316773034843
 21
17.1549889682682
 31
0.0
  0
LINE
  8
7
  6
CONTINUOUS
 62
7
 10
4.11094774088214
 20
17.4849889682682
 30
0.0
 11
4.17094771276764
 21
17.4849889682682
 31
0.0
  0
LINE
  8
7
  6
CONTINUOUS
 62
7
 10
4.17094771276764
 20
17.4849889682682
 30
0.0
 11
4.23094771276764
 21
17.4849889682682
 31
0.0
  0
LINE
  8
7
  6
CONTINUOUS
 62
7
 10
4.17094771276764
 20
17.4849889682682
 30
0.0
 11
4.17094771276764
 21
17.0649889682682
 31
0.0
  0
LINE
  8
7
  6
CONTINUOUS
 62
7
 10
4.11094774088214
 20
17.0649889682682
 30
0.0
 11
4.17094771276764
 21
17.0649889682682
 31
0.0
  0
LINE
  8
7
  6
CONTINUOUS
 62
7
 10
4.17094771276764
 20
17.0649889682682
 30
0.0
 11
4.23094771276764
 21
17.0649889682682
 31
0.0
  0
LINE
  8
7
  6
CONTINUOUS
 62
7
 10
4.26094771276764
 20
17.4849889682682
 30
0.0
 11
4.26094771276764
 21
17.0649889682682
 31
0.0
  0
LINE
  8
7
  6
CONTINUOUS
 62
7
 10
4.28344771276764
 20
17.4849889682682
 30
0.0
 11
4.41334771276764
 21
17.4849889682682
 31
0.0
  0
ARC
  8
7
  6
CONTINUOUS
 62
7
 10
4.41334771276765
 20
17.3799889682682
 30
0.0
 40
0.105000000000006
 50
359.995600000002
 51
90.0000000000042
  0
ARC
  8
7
  6
CONTINUOUS
 62
7
 10
4.41334771276764
 20
17.3799889682682
 30
0.0
 40
0.105000000000013
 50
269.991199999991
 51
359.995599999993
  0
LINE
  8
7
  6
CONTINUOUS
 62
7
 10
4.4133315859254
 20
17.2749889695066
 30
0.0
 11
4.51834771276764
 21
17.0649889682682
 31
0.0
  0
LINE
  8
7
  6
CONTINUOUS
 62
7
 10
4.28344771276764
 20
17.2749889682682
 30
0.0
 11
4.41333151276764
 21
17.2749889682682
 31
0.0
  0
LINE
  8
7
  6
CONTINUOUS
 62
7
 10
5.44345262533665
 20
17.4613621389097
 30
0.0
 11
5.44345262533665
 21
17.2513621389097
 31
0.0
  0
LINE
  8
7
  6
CONTINUOUS
 62
7
 10
5.44345262533665
 20
17.2513621389097
 30
0.0
 11
5.44345262533665
 21
17.0413621389097
 31
0.0
  0
LINE
  8
7
  6
CONTINUOUS
 62
7
 10
5.44345262533665
 20
17.2513621389097
 30
0.0
 11
5.69845262533665
 21
17.2513621389097
 31
0.0
  0
LINE
  8
7
  6
CONTINUOUS
 62
7
 10
5.69845262533665
 20
17.0413621389097
 30
0.0
 11
5.69845262533665
 21
17.2513621389097
 31
0.0
  0
LINE
  8
7
  6
CONTINUOUS
 62
7
 10
5.69845262533665
 20
17.2513621389097
 30
0.0
 11
5.69845262533665
 21
17.4613621389097
 31
0.0
  0
ARC
  8
7
  6
CONTINUOUS
 62
7
 10
5.8413756895229
 20
17.3413621389097
 30
0.0
 40
0.119999999999999
 50
89.9999999999972
 51
149.999999999999
  0
LINE
  8
7
  6
CONTINUOUS
 62
7
 10
5.84137568952291
 20
17.4613621389097
 30
0.0
 11
5.8506931495229
 21
17.4613621389097
 31
0.0
  0
ARC
  8
7
  6
CONTINUOUS
 62
7
 10
5.8506931495229
 20
17.3413621389097
 30
0.0
 40
0.120000000000001
 50
2.57598099999919
 51
89.9999999999992
  0
ARC
  8
7
  6
CONTINUOUS
 62
7
 10
5.85069311029086
 20
17.3521484287538
 30
0.0
 40
0.12000002483887
 50
317.775072177047
 51
357.424172177047
  0
ARC
  8
7
  6
CONTINUOUS
 62
7
 10
5.29087136159222
 20
18.0279428737437
 30
0.0
 40
0.996489245749339
 50
302.868972404071
 51
310.614672404071
  0
ARC
  8
7
  6
CONTINUOUS
 62
7
 10
5.92913021667161
 20
17.0133194768158
 30
0.0
 40
0.202627453864347
 50
118.744515028163
 51
172.045015028163
  0
LINE
  8
7
  6
CONTINUOUS
 62
7
 10
5.72845262533665
 20
17.0413621121333
 30
0.0
 11
5.9795526295229
 21
17.0413621389097
 31
0.0
  0
ARC
  8
7
  6
CONTINUOUS
 62
7
 10
6.1494411895229
 20
17.3364583389097
 30
0.0
 40
0.1249038
 50
93.4424652776289
 51
164.098
  0
ARC
  8
7
  6
CONTINUOUS
 62
7
 10
6.38372213839947
 20
17.2506809623608
 30
0.0
 40
0.374169560784254
 50
161.2941
 51
198.7059
  0
ARC
  8
7
  6
CONTINUOUS
 62
7
 10
6.14944105999709
 20
17.1649036531021
 30
0.0
 40
0.124903626714107
 50
195.902054741785
 51
266.557589464157
  0
ARC
  8
7
  6
CONTINUOUS
 62
7
 10
6.1494411895229
 20
17.1649038189097
 30
0.0
 40
0.124903800000001
 50
273.442465277628
 51
344.097999999997
  0
ARC
  8
7
  6
CONTINUOUS
 62
7
 10
5.9151602635609
 20
17.2506811876997
 30
0.0
 40
0.374169536591774
 50
341.294099999999
 51
18.7059000000007
  0
ARC
  8
7
  6
CONTINUOUS
 62
7
 10
6.14944136810185
 20
17.3364584123045
 30
0.0
 40
0.124903716014757
 50
15.9020797482304
 51
86.5576144706034
  0
ENDSEC
  0
EOF
