  0
SECTION
  2
HEADER
  9
$ACADVER
  1
AC1009
  9
$INSBASE
 10
0.0
 20
0.0
 30
0.0
  9
$EXTMIN
 10
25.6418049585368912
 20
184.2321150064063886
 30
0.0
  9
$EXTMAX
 10
26.3452347135682494
 20
186.6238019559012002
 30
0.0
  9
$LIMMIN
 10
0.0
 20
0.0
  9
$LIMMAX
 10
12.0
 20
9.0
  9
$ORTHOMODE
 70
     0
  9
$REGENMODE
 70
     1
  9
$FILLMODE
 70
     1
  9
$QTEXTMODE
 70
     0
  9
$MIRRTEXT
 70
     0
  9
$DRAGMODE
 70
     2
  9
$LTSCALE
 40
1.0
  9
$OSMODE
 70
    37
  9
$ATTMODE
 70
     1
  9
$TEXTSIZE
 40
0.2
  9
$TRACEWID
 40
0.05
  9
$TEXTSTYLE
  7
STANDARD
  9
$CLAYER
  8
0
  9
$CELTYPE
  6
BYLAYER
  9
$CECOLOR
 62
   256
  9
$DIMSCALE
 40
1.0
  9
$DIMASZ
 40
0.18
  9
$DIMEXO
 40
0.0625
  9
$DIMDLI
 40
0.38
  9
$DIMRND
 40
0.0
  9
$DIMDLE
 40
0.0
  9
$DIMEXE
 40
0.18
  9
$DIMTP
 40
0.0
  9
$DIMTM
 40
0.0
  9
$DIMTXT
 40
0.18
  9
$DIMCEN
 40
0.09
  9
$DIMTSZ
 40
0.0
  9
$DIMTOL
 70
     0
  9
$DIMLIM
 70
     0
  9
$DIMTIH
 70
     1
  9
$DIMTOH
 70
     1
  9
$DIMSE1
 70
     0
  9
$DIMSE2
 70
     0
  9
$DIMTAD
 70
     0
  9
$DIMZIN
 70
     0
  9
$DIMBLK
  1

  9
$DIMASO
 70
     1
  9
$DIMSHO
 70
     1
  9
$DIMPOST
  1

  9
$DIMAPOST
  1

  9
$DIMALT
 70
     0
  9
$DIMALTD
 70
     2
  9
$DIMALTF
 40
25.3999999999999986
  9
$DIMLFAC
 40
1.0
  9
$DIMTOFL
 70
     0
  9
$DIMTVP
 40
0.0
  9
$DIMTIX
 70
     0
  9
$DIMSOXD
 70
     0
  9
$DIMSAH
 70
     0
  9
$DIMBLK1
  1

  9
$DIMBLK2
  1

  9
$DIMSTYLE
  2
STANDARD
  9
$DIMCLRD
 70
     0
  9
$DIMCLRE
 70
     0
  9
$DIMCLRT
 70
     0
  9
$DIMTFAC
 40
1.0
  9
$DIMGAP
 40
0.09
  9
$LUNITS
 70
     2
  9
$LUPREC
 70
     4
  9
$SKETCHINC
 40
0.1
  9
$FILLETRAD
 40
0.0
  9
$AUNITS
 70
     0
  9
$AUPREC
 70
     0
  9
$MENU
  1
.
  9
$ELEVATION
 40
0.0
  9
$PELEVATION
 40
0.0
  9
$THICKNESS
 40
0.0
  9
$LIMCHECK
 70
     0
  9
$BLIPMODE
 70
     0
  9
$CHAMFERA
 40
0.0
  9
$CHAMFERB
 40
0.0
  9
$SKPOLY
 70
     0
  9
$TDCREATE
 40
2456154.45242226915434
  9
$TDUPDATE
 40
2456307.6215970017947257
  9
$TDINDWG
 40
13.2917036573999994
  9
$TDUSRTIMER
 40
13.2914911573999994
  9
$USRTIMER
 70
     1
  9
$ANGBASE
 50
0.0
  9
$ANGDIR
 70
     0
  9
$PDMODE
 70
     0
  9
$PDSIZE
 40
0.0
  9
$PLINEWID
 40
0.0
  9
$COORDS
 70
     1
  9
$SPLFRAME
 70
     0
  9
$SPLINETYPE
 70
     6
  9
$SPLINESEGS
 70
     8
  9
$ATTDIA
 70
     1
  9
$ATTREQ
 70
     1
  9
$HANDLING
 70
     1
  9
$HANDSEED
  5
4D0B
  9
$SURFTAB1
 70
     6
  9
$SURFTAB2
 70
     6
  9
$SURFTYPE
 70
     6
  9
$SURFU
 70
     6
  9
$SURFV
 70
     6
  9
$UCSNAME
  2

  9
$UCSORG
 10
0.0
 20
0.0
 30
0.0
  9
$UCSXDIR
 10
1.0
 20
0.0
 30
0.0
  9
$UCSYDIR
 10
0.0
 20
1.0
 30
0.0
  9
$PUCSNAME
  2

  9
$PUCSORG
 10
0.0
 20
0.0
 30
0.0
  9
$PUCSXDIR
 10
1.0
 20
0.0
 30
0.0
  9
$PUCSYDIR
 10
0.0
 20
1.0
 30
0.0
  9
$USERI1
 70
     0
  9
$USERI2
 70
     0
  9
$USERI3
 70
     0
  9
$USERI4
 70
     0
  9
$USERI5
 70
     0
  9
$USERR1
 40
0.0
  9
$USERR2
 40
0.0
  9
$USERR3
 40
0.0
  9
$USERR4
 40
0.0
  9
$USERR5
 40
0.0
  9
$WORLDVIEW
 70
     1
  9
$SHADEDGE
 70
     3
  9
$SHADEDIF
 70
    70
  9
$TILEMODE
 70
     1
  9
$MAXACTVP
 70
    64
  9
$PLIMCHECK
 70
     0
  9
$PEXTMIN
 10
0.0
 20
0.0
 30
0.0
  9
$PEXTMAX
 10
0.0
 20
0.0
 30
0.0
  9
$PLIMMIN
 10
0.0
 20
0.0
  9
$PLIMMAX
 10
12.0
 20
9.0
  9
$UNITMODE
 70
     0
  9
$VISRETAIN
 70
     1
  9
$PLINEGEN
 70
     0
  9
$PSLTSCALE
 70
     1
  0
ENDSEC
  0
SECTION
  2
TABLES
  0
TABLE
  2
VPORT
 70
     1
  0
VPORT
  2
*ACTIVE
 70
     0
 10
0.0
 20
0.0
 11
1.0
 21
1.0
 12
28.1800798134790718
 22
184.0462597467708861
 13
0.0
 23
0.0
 14
0.5
 24
0.5
 15
0.5
 25
0.5
 16
0.0
 26
0.0
 36
1.0
 17
0.0
 27
0.0
 37
0.0
 40
7.2950597263203463
 41
1.5722347629796829
 42
50.0
 43
0.0
 44
0.0
 50
0.0
 51
0.0
 71
     0
 72
  1000
 73
     1
 74
     3
 75
     0
 76
     1
 77
     0
 78
     0
  0
ENDTAB
  0
TABLE
  2
LTYPE
 70
     2
  0
LTYPE
  2
CONTINUOUS
 70
     0
  3
Solid line
 72
    65
 73
     0
 40
0.0
  0
LTYPE
  2
PHANTOM2
 70
     0
  3
Phantom (.5x) ___ _ _ ___ _ _ ___ _ _ ___ _ _
 72
    65
 73
     6
 40
1.25
 49
0.625
 49
-0.125
 49
0.125
 49
-0.125
 49
0.125
 49
-0.125
  0
ENDTAB
  0
TABLE
  2
LAYER
 70
     5
  0
LAYER
  2
0
 70
     0
 62
     1
  6
CONTINUOUS
  0
LAYER
  2
ADSK_CONSTRAINTS
 70
     0
 62
     7
  6
CONTINUOUS
  0
LAYER
  2
NON-CUT_FEATURES
 70
     0
 62
     3
  6
CONTINUOUS
  0
LAYER
  2
DEFPOINTS
 70
     0
 62
     7
  6
CONTINUOUS
  0
LAYER
  2
DIMENSIONS
 70
     0
 62
     4
  6
CONTINUOUS
  0
ENDTAB
  0
TABLE
  2
STYLE
 70
     3
  0
STYLE
  2
STANDARD
 70
     0
 40
0.0
 41
1.0
 50
0.0
 71
     0
 42
0.2
  3
txt
  4

  0
STYLE
  2
ANNOTATIVE
 70
     0
 40
0.0
 41
1.0
 50
0.0
 71
     0
 42
0.2
  3
txt
  4

  0
ENDTAB
  0
TABLE
  2
VIEW
 70
     1
  0
ENDTAB
  0
TABLE
  2
UCS
 70
     0
  0
ENDTAB
  0
TABLE
  2
APPID
 70
    15
  0
APPID
  2
ACAD
 70
     0
  0
APPID
  2
ACADANNOPO
 70
     0
  0
APPID
  2
ACADANNOTATIVE
 70
     0
  0
APPID
  2
ACAD_DSTYLE_DIMJAG
 70
     0
  0
APPID
  2
ACAD_DSTYLE_DIMTALN
 70
     0
  0
APPID
  2
ACAD_MLEADERVER
 70
     0
  0
APPID
  2
ACAD_NAV_VCDISPLAY
 70
     0
  0
APPID
  2
ACAD_DSTYLE_DIMINSPECT
 70
     0
  0
APPID
  2
ACAD_DSTYLE_DIMJAG_POSITION
 70
     0
  0
APPID
  2
ACADANNOMONITORALERTICONDI
 70
     0
  0
APPID
  2
ACAD_EXEMPT_FROM_CAD_STANDARDS
 70
     0
  0
APPID
  2
ACAD_OBJECT_NAME
 70
     0
  0
APPID
  2
ACAECLAYERSTANDARD
 70
     0
  0
APPID
  2
ACCMTRANSPARENCY
 70
     0
  0
APPID
  2
ACAD_DSTYLE_DIMRADIAL_EXTENSION
 70
     0
  0
ENDTAB
  0
TABLE
  2
DIMSTYLE
 70
     3
  0
DIMSTYLE
  2
STANDARD
 70
     0
  3

  4

  5

  6

  7

 40
1.0
 41
0.18
 42
0.0625
 43
0.38
 44
0.18
 45
0.0
 46
0.0
 47
0.0
 48
0.0
140
0.18
141
0.09
142
0.0
143
25.3999999999999986
144
1.0
145
0.0
146
1.0
147
0.09
 71
     0
 72
     0
 73
     1
 74
     1
 75
     0
 76
     0
 77
     0
 78
     0
170
     0
171
     2
172
     0
173
     0
174
     0
175
     0
176
     0
177
     0
178
     0
  0
DIMSTYLE
  2
ANNOTATIVE
 70
     0
  3

  4

  5

  6

  7

 40
0.0
 41
0.18
 42
0.0625
 43
0.38
 44
0.18
 45
0.0
 46
0.0
 47
0.0
 48
0.0
140
0.18
141
0.09
142
0.0
143
25.3999999999999986
144
1.0
145
0.0
146
1.0
147
0.09
 71
     0
 72
     0
 73
     1
 74
     1
 75
     0
 76
     0
 77
     0
 78
     0
170
     0
171
     2
172
     0
173
     0
174
     0
175
     0
176
     0
177
     0
178
     0
  0
ENDTAB
  0
ENDSEC
  0
SECTION
  2
BLOCKS
  0
BLOCK
  8
0
  2
$MODEL_SPACE
 70
     0
 10
0.0
 20
0.0
 30
0.0
  3
$MODEL_SPACE
  1

  0
ENDBLK
  5
21
  8
0
  0
BLOCK
 67
     1
  8
0
  2
$PAPER_SPACE
 70
     0
 10
0.0
 20
0.0
 30
0.0
  3
$PAPER_SPACE
  1

  0
ENDBLK
  5
5B
 67
     1
  8
0
  0
BLOCK
  8
0
  2
_CLOSEDBLANK
 70
     0
 10
0.0
 20
0.0
 30
0.0
  3
_CLOSEDBLANK
  1

  0
LINE
  5
1C9
  8
0
  6
BYBLOCK
 62
     0
 10
-1.0
 20
0.1666666666666666
 30
0.0
 11
0.0
 21
0.0
 31
0.0
  0
LINE
  5
1CA
  8
0
  6
BYBLOCK
 62
     0
 10
0.0
 20
0.0
 30
0.0
 11
-1.0
 21
-0.1666666666666666
 31
0.0
  0
LINE
  5
1CB
  8
0
  6
BYBLOCK
 62
     0
 10
-1.0
 20
0.1666666666666666
 30
0.0
 11
-1.0
 21
-0.1666666666666666
 31
0.0
  0
ENDBLK
  5
1CD
  8
0
  0
BLOCK
  8
0
  2
A$C3E703A4F
 70
     0
 10
0.0
 20
0.0
 30
0.0
  3
A$C3E703A4F
  1

  0
POLYLINE
  5
21FF
  8
0
 66
     1
 10
0.0
 20
0.0
 30
0.0
 70
     1
  0
VERTEX
  5
4CBC
  8
0
 10
5.817333988279481
 20
24.0727289133713604
 30
0.0
  0
VERTEX
  5
4CBD
  8
0
 10
6.0173341930732631
 20
24.0730546154325005
 30
0.0
  0
VERTEX
  5
4CBE
  8
0
 10
6.0173341930732631
 20
24.5730546154325005
 30
0.0
  0
VERTEX
  5
4CBF
  8
0
 10
5.817333988279481
 20
24.5727289133713604
 30
0.0
  0
SEQEND
  5
4CC0
  8
0
  0
ENDBLK
  5
2202
  8
0
  0
BLOCK
  8
0
  2
A$CF66C22FF
 70
     0
 10
0.0
 20
0.0
 30
0.0
  3
A$CF66C22FF
  1

  0
POLYLINE
  5
33A1
  8
0
 66
     1
 10
0.0
 20
0.0
 30
0.0
 70
     1
  0
VERTEX
  5
4CC1
  8
0
 10
0.0000000155634172
 20
0.0
 30
0.0
  0
VERTEX
  5
4CC2
  8
0
 10
0.5179000155634172
 20
0.0
 30
0.0
  0
VERTEX
  5
4CC3
  8
0
 10
0.5179000155634172
 20
0.03125
 30
0.0
  0
VERTEX
  5
4CC4
  8
0
 10
0.0000000155634172
 20
0.03125
 30
0.0
  0
SEQEND
  5
4CC5
  8
0
  0
ENDBLK
  5
33A4
  8
0
  0
BLOCK
  8
0
  2
A$C33FA56E5
 70
     0
 10
0.0
 20
0.0
 30
0.0
  3
A$C33FA56E5
  1

  0
CIRCLE
  5
4B4C
  8
0
 10
0.1600329672636818
 20
1.211686734424773
 30
0.0
 40
0.16
  0
CIRCLE
  5
4B4D
  8
0
 10
0.1600002934184772
 20
0.1599997849299655
 30
0.0
 40
0.16
  0
ENDBLK
  5
4B50
  8
0
  0
BLOCK
  8
0
  2
*U23
 70
     1
 10
0.0
 20
0.0
 30
0.0
  3
*U23
  1

  0
TEXT
  5
4CC8
  8
DIMENSIONS
 62
     0
 10
5.3650227370346428
 20
37.8255286085894369
 30
0.0
 40
0.18
  1
0.2090
  0
ENDBLK
  5
4CCA
  8
0
  0
BLOCK
  8
0
  2
*U24
 70
     1
 10
0.0
 20
0.0
 30
0.0
  3
*U24
  1

  0
TEXT
  5
4CCC
  8
DIMENSIONS
 62
     0
 10
5.0915988394449609
 20
36.3179286085894475
 30
0.0
 40
0.18
  1
0.2500
  0
ENDBLK
  5
4CCE
  8
0
  0
BLOCK
  8
0
  2
*U25
 70
     1
 10
0.0
 20
0.0
 30
0.0
  3
*U25
  1

  0
TEXT
  5
4CD0
  8
DIMENSIONS
 62
     0
 10
2.872247974487351
 20
36.1055286085894522
 30
0.0
 40
0.18
  1
0.2090
  0
ENDBLK
  5
4CD2
  8
0
  0
BLOCK
  8
0
  2
*U26
 70
     1
 10
0.0
 20
0.0
 30
0.0
  3
*U26
  1

  0
TEXT
  5
4CD4
  8
DIMENSIONS
 62
     0
 10
6.1667729643081408
 20
38.3255286085894511
 30
0.0
 40
0.18
  1
0.1250
  0
ENDBLK
  5
4CD6
  8
0
  0
BLOCK
  8
0
  2
*U27
 70
     1
 10
0.0
 20
0.0
 30
0.0
  3
*U27
  1

  0
TEXT
  5
4CD8
  8
DIMENSIONS
 62
     0
 10
5.1731392580588063
 20
38.2508480571842426
 30
0.0
 40
0.18
  1
0.2065
  0
ENDBLK
  5
4CDA
  8
0
  0
BLOCK
  8
0
  2
*U28
 70
     1
 10
0.0
 20
0.0
 30
0.0
  3
*U28
  1

  0
TEXT
  5
4CDC
  8
0
 62
     0
 10
3.4890752407703371
 20
37.942541232437911
 30
0.0
 40
0.18
  1
0.2400
  0
ENDBLK
  5
4CDE
  8
0
  0
BLOCK
  8
0
  2
*U29
 70
     1
 10
0.0
 20
0.0
 30
0.0
  3
*U29
  1

  0
TEXT
  5
4CE0
  8
0
 62
     0
 10
4.2467517668113954
 20
36.2948507740290367
 30
0.0
 40
0.18
  1
0.2497
  0
ENDBLK
  5
4CE2
  8
0
  0
BLOCK
  8
0
  2
*U30
 70
     1
 10
0.0
 20
0.0
 30
0.0
  3
*U30
  1

  0
TEXT
  5
4CE4
  8
0
 62
     0
 10
4.3263185688169266
 20
36.3369625585758769
 30
0.0
 40
0.18
  1
0.2076
  0
ENDBLK
  5
4CE6
  8
0
  0
BLOCK
  8
0
  2
*U31
 70
     1
 10
0.0
 20
0.0
 30
0.0
  3
*U31
  1

  0
TEXT
  5
4CE8
  8
DIMENSIONS
 62
     0
 10
5.873335367967254
 20
37.1163363118845311
 30
0.0
 40
0.18
  1
0.4380
  0
ENDBLK
  5
4CEA
  8
0
  0
BLOCK
  8
0
  2
*U32
 70
     1
 10
0.0
 20
0.0
 30
0.0
  3
*U32
  1

  0
TEXT
  5
4CEC
  8
DIMENSIONS
 62
     0
 10
2.3540016456686561
 20
37.3148687763585372
 30
0.0
 40
0.18
  1
1.3013
  0
ENDBLK
  5
4CEE
  8
0
  0
BLOCK
  8
0
  2
*U33
 70
     1
 10
0.0
 20
0.0
 30
0.0
  3
*U33
  1

  0
TEXT
  5
4CF0
  8
0
 62
     0
 10
25.7665561709964415
 20
187.6838900022478072
 30
0.0
 40
0.18
  1
0.7500
  0
ENDBLK
  5
4CF2
  8
0
  0
BLOCK
  8
0
  2
*U34
 70
     1
 10
0.0
 20
0.0
 30
0.0
  3
*U34
  1

  0
TEXT
  5
4CF4
  8
DIMENSIONS
 62
     0
 10
28.5506216553074914
 20
188.3973306570096895
 30
0.0
 40
0.18
  1
0.7500
  0
ENDBLK
  5
4CF6
  8
0
  0
BLOCK
  8
0
  2
*U35
 70
     1
 10
0.0
 20
0.0
 30
0.0
  3
*U35
  1

  0
TEXT
  5
4CF8
  8
DIMENSIONS
 62
     0
 10
24.4713068070543898
 20
186.6227906030298982
 30
0.0
 40
0.18
  1
0.5000
  0
ENDBLK
  5
4CFA
  8
0
  0
BLOCK
  8
0
  2
*U36
 70
     1
 10
0.0
 20
0.0
 30
0.0
  3
*U36
  1

  0
TEXT
  5
4CFC
  8
DIMENSIONS
 62
     0
 10
28.5506216553074914
 20
181.6093835672758985
 30
0.0
 40
0.18
  1
0.7500
  0
ENDBLK
  5
4CFE
  8
0
  0
BLOCK
  8
0
  2
*U37
 70
     1
 10
0.0
 20
0.0
 30
0.0
  3
*U37
  1

  0
TEXT
  5
4D00
  8
DIMENSIONS
 62
     0
 10
25.1205532851836608
 20
183.1228239979153045
 30
0.0
 40
0.18
  1
0.5000
  0
ENDBLK
  5
4D02
  8
0
  0
BLOCK
  8
0
  2
*U38
 70
     1
 10
0.0
 20
0.0
 30
0.0
  3
*U38
  1

  0
TEXT
  5
4D04
  8
0
 62
     0
 10
30.1340868289948993
 20
185.8469340731627142
 30
0.0
 40
0.18
  1
1.0517
  0
ENDBLK
  5
4D06
  8
0
  0
BLOCK
  8
0
  2
*U39
 70
     1
 10
0.0
 20
0.0
 30
0.0
  3
*U39
  1

  0
TEXT
  5
4D08
  8
0
 62
     0
 10
25.0114262676494086
 20
185.3391863119859977
 30
0.0
 40
0.18
  1
2.0517
  0
ENDBLK
  5
4D0A
  8
0
  0
ENDSEC
  0
SECTION
  2
ENTITIES
  0
CIRCLE
  5
4C6B
  8
0
 10
25.8468049585368789
 20
186.1131214973962926
 30
0.0
 40
0.205
  0
CIRCLE
  5
4C6C
  8
0
 10
25.8468121998147815
 20
184.6131341977389013
 30
0.0
 40
0.205
  0
ENDSEC
  0
EOF
