  0
SECTION
  2
HEADER
  9
$ACADVER
  1
AC1003
  9
$EXTMIN
 10
1
 20
17.1250000524038
  9
$EXTMAX
 10
13.5000000318355
 20
1
  9
$INSBASE
 10
7.25000001591775
 20
9.0625000262019
999
Created with OMAX Layout for Windows. (http://www.omax.com) 1/8/2013
  0
ENDSEC
  0
SECTION
  2
TABLES
  0
TABLE
  2
LAYER
 70
    10
  0
LAYER
  2
0
 70
     0
 62
     7
  6
CONTINUOUS
  0
LAYER
  2
1
 70
     0
 62
     7
  6
CONTINUOUS
  0
LAYER
  2
2
 70
     0
 62
     7
  6
CONTINUOUS
  0
LAYER
  2
3
 70
     0
 62
     7
  6
CONTINUOUS
  0
LAYER
  2
4
 70
     0
 62
     7
  6
CONTINUOUS
  0
LAYER
  2
5
 70
     0
 62
     7
  6
CONTINUOUS
  0
LAYER
  2
6
 70
     0
 62
     7
  6
CONTINUOUS
  0
LAYER
  2
7
 70
     0
 62
     7
  6
CONTINUOUS
  0
LAYER
  2
8
 70
     0
 62
     7
  6
CONTINUOUS
  0
LAYER
  2
9
 70
     0
 62
     7
  6
CONTINUOUS
  0
LAYER
  2
10
 70
     0
 62
     7
  6
CONTINUOUS
  0
LAYER
  2
11
 70
     0
 62
     7
  6
CONTINUOUS
  0
LAYER
  2
12
 70
     0
 62
     7
  6
CONTINUOUS
  0
LAYER
  2
13
 70
     0
 62
     7
  6
CONTINUOUS
  0
LAYER
  2
14
 70
     0
 62
     7
  6
CONTINUOUS
  0
LAYER
  2
15
 70
     0
 62
     7
  6
CONTINUOUS
  0
LAYER
  2
16
 70
     0
 62
     7
  6
CONTINUOUS
  0
LAYER
  2
17
 70
     0
 62
     7
  6
CONTINUOUS
  0
LAYER
  2
18
 70
     0
 62
     7
  6
CONTINUOUS
  0
LAYER
  2
19
 70
     0
 62
     7
  6
CONTINUOUS
  0
LAYER
  2
20
 70
     0
 62
     7
  6
CONTINUOUS
  0
LAYER
  2
21
 70
     0
 62
     7
  6
CONTINUOUS
  0
LAYER
  2
22
 70
     0
 62
     7
  6
CONTINUOUS
  0
LAYER
  2
23
 70
     0
 62
     7
  6
CONTINUOUS
  0
LAYER
  2
24
 70
     0
 62
     7
  6
CONTINUOUS
  0
LAYER
  2
25
 70
     0
 62
     7
  6
CONTINUOUS
  0
LAYER
  2
26
 70
     0
 62
     7
  6
CONTINUOUS
  0
LAYER
  2
27
 70
     0
 62
     7
  6
CONTINUOUS
  0
LAYER
  2
28
 70
     0
 62
     7
  6
CONTINUOUS
  0
LAYER
  2
29
 70
     0
 62
     7
  6
CONTINUOUS
  0
LAYER
  2
30
 70
     0
 62
     7
  6
CONTINUOUS
  0
LAYER
  2
31
 70
     0
 62
     7
  6
CONTINUOUS
  0
ENDTAB
  0
ENDSEC
  0
SECTION
  2
ENTITIES
  0
LINE
  8
1
  6
CONTINUOUS
 62
1
 10
13.5000000318355
 20
17.1212935722238
 30
0.0
 11
13.1250000318355
 21
17.1212935722238
 31
0.0
  0
LINE
  8
1
  6
CONTINUOUS
 62
1
 10
13.1250000318355
 20
17.1212935722238
 30
0.0
 11
13.1250000318355
 21
16.6212935722238
 31
0.0
  0
LINE
  8
1
  6
CONTINUOUS
 62
1
 10
13.1250000318355
 20
16.6212935722238
 30
0.0
 11
13.5000000318355
 21
16.6212935722238
 31
0.0
  0
LINE
  8
1
  6
CONTINUOUS
 62
1
 10
13.5000000318355
 20
16.6212935722238
 30
0.0
 11
13.5000000318355
 21
17.1212935722238
 31
0.0
  0
LINE
  8
1
  6
CONTINUOUS
 62
1
 10
13.5000000318355
 20
1.0000000524038
 30
0.0
 11
13.1250000318355
 21
1.0000000524038
 31
0.0
  0
LINE
  8
1
  6
CONTINUOUS
 62
1
 10
13.1250000318355
 20
1.0000000524038
 30
0.0
 11
13.1250000318355
 21
1.5000000524038
 31
0.0
  0
LINE
  8
1
  6
CONTINUOUS
 62
1
 10
13.1250000318355
 20
1.5000000524038
 30
0.0
 11
13.5000000318355
 21
1.5000000524038
 31
0.0
  0
LINE
  8
1
  6
CONTINUOUS
 62
1
 10
13.5000000318355
 20
1.5000000524038
 30
0.0
 11
13.5000000318355
 21
1.0000000524038
 31
0.0
  0
LINE
  8
1
  6
CONTINUOUS
 62
1
 10
1.00000003183555
 20
1.0000000524038
 30
0.0
 11
13.5000000318355
 21
1.0000000524038
 31
0.0
  0
LINE
  8
1
  6
CONTINUOUS
 62
1
 10
13.5000000318355
 20
1.0000000524038
 30
0.0
 11
13.5000000318355
 21
17.1250000524038
 31
0.0
  0
LINE
  8
1
  6
CONTINUOUS
 62
1
 10
13.5000000318355
 20
17.1250000524038
 30
0.0
 11
1.00000003183555
 21
17.1250000524038
 31
0.0
  0
LINE
  8
1
  6
CONTINUOUS
 62
1
 10
1.00000003183555
 20
17.1250000524038
 30
0.0
 11
1.00000003183555
 21
1.0000000524038
 31
0.0
  0
LINE
  8
1
  6
CONTINUOUS
 62
1
 10
1.37500003183555
 20
17.125
 30
0.0
 11
1.00000003183555
 21
17.125
 31
0.0
  0
LINE
  8
1
  6
CONTINUOUS
 62
1
 10
1.00000003183555
 20
17.125
 30
0.0
 11
1.00000003183555
 21
16.625
 31
0.0
  0
LINE
  8
1
  6
CONTINUOUS
 62
1
 10
1.00000003183555
 20
16.625
 30
0.0
 11
1.37500003183555
 21
16.625
 31
0.0
  0
LINE
  8
1
  6
CONTINUOUS
 62
1
 10
1.37500003183555
 20
16.625
 30
0.0
 11
1.37500003183555
 21
17.125
 31
0.0
  0
LINE
  8
1
  6
CONTINUOUS
 62
1
 10
1.375
 20
1.5
 30
0.0
 11
1
 21
1.5
 31
0.0
  0
LINE
  8
1
  6
CONTINUOUS
 62
1
 10
1
 20
1.5
 30
0.0
 11
1
 21
1
 31
0.0
  0
LINE
  8
1
  6
CONTINUOUS
 62
1
 10
1
 20
1
 30
0.0
 11
1.375
 21
1
 31
0.0
  0
LINE
  8
1
  6
CONTINUOUS
 62
1
 10
1.375
 20
1
 30
0.0
 11
1.375
 21
1.5
 31
0.0
  0
ARC
  8
1
  6
CONTINUOUS
 62
1
 10
12.5000668461734
 20
15.8313531949815
 30
0.0
 40
0.0491999999999999
 50
179.999999999999
 51
359.999999999999
  0
ARC
  8
1
  6
CONTINUOUS
 62
1
 10
12.5000668461734
 20
15.8313531949815
 30
0.0
 40
0.0491999999999999
 50
359.999999999999
 51
180
  0
ARC
  8
1
  6
CONTINUOUS
 62
1
 10
12.5000290245367
 20
2.3314116720464
 30
0.0
 40
0.0491999999999999
 50
179.999999999999
 51
359.999999999999
  0
ARC
  8
1
  6
CONTINUOUS
 62
1
 10
12.5000290245367
 20
2.3314116720464
 30
0.0
 40
0.0491999999999999
 50
359.999999999999
 51
180
  0
ARC
  8
1
  6
CONTINUOUS
 62
1
 10
2.00002251183045
 20
2.3314164632367
 30
0.0
 40
0.0492000000000004
 50
179.999999999999
 51
359.999999999999
  0
ARC
  8
1
  6
CONTINUOUS
 62
1
 10
2.00002251183045
 20
2.3314164632367
 30
0.0
 40
0.0492000000000004
 50
359.999999999999
 51
180
  0
ARC
  8
1
  6
CONTINUOUS
 62
1
 10
2.00002522243841
 20
15.8313538637644
 30
0.0
 40
0.0491999999999999
 50
179.999999999999
 51
359.999999999999
  0
ARC
  8
1
  6
CONTINUOUS
 62
1
 10
2.00002522243841
 20
15.8313538637644
 30
0.0
 40
0.0491999999999999
 50
359.999999999999
 51
180
  0
ARC
  8
1
  6
CONTINUOUS
 62
1
 10
7.25000559262731
 20
16.0313584725446
 30
0.0
 40
0.0984249999999998
 50
179.999999999999
 51
359.999999999999
  0
ARC
  8
1
  6
CONTINUOUS
 62
1
 10
7.25000559262731
 20
16.0313584725446
 30
0.0
 40
0.0984249999999998
 50
359.999999999999
 51
180
  0
LINE
  8
1
  6
CONTINUOUS
 62
1
 10
2.25007124235225
 20
15.5813762197573
 30
0.0
 11
12.2500712423522
 21
15.5813762197573
 31
0.0
  0
LINE
  8
1
  6
CONTINUOUS
 62
1
 10
12.2500712423522
 20
15.5813762197573
 30
0.0
 11
12.2500712423522
 21
2.5813762197573
 31
0.0
  0
LINE
  8
1
  6
CONTINUOUS
 62
1
 10
12.2500712423522
 20
2.5813762197573
 30
0.0
 11
2.25007124235225
 21
2.5813762197573
 31
0.0
  0
LINE
  8
1
  6
CONTINUOUS
 62
1
 10
2.25007124235225
 20
2.5813762197573
 30
0.0
 11
2.25007124235225
 21
15.5813762197573
 31
0.0
  0
ENDSEC
  0
EOF
