  0
SECTION
  2
HEADER
  9
$ACADVER
  1
AC1003
  9
$EXTMIN
 10
0.0219062234625049
 20
18.0302118447592
  9
$EXTMAX
 10
18.5226713538172
 20
0.0281033230680148
  9
$INSBASE
 10
9.27228878863986
 20
9.02915758391359
999
Created with OMAX Layout for Windows. (http://www.omax.com) 3/6/2013
  0
ENDSEC
  0
SECTION
  2
TABLES
  0
TABLE
  2
LAYER
 70
    10
  0
LAYER
  2
0
 70
     0
 62
     7
  6
CONTINUOUS
  0
LAYER
  2
1
 70
     0
 62
     7
  6
CONTINUOUS
  0
LAYER
  2
2
 70
     0
 62
     7
  6
CONTINUOUS
  0
LAYER
  2
3
 70
     0
 62
     7
  6
CONTINUOUS
  0
LAYER
  2
4
 70
     0
 62
     7
  6
CONTINUOUS
  0
LAYER
  2
5
 70
     0
 62
     7
  6
CONTINUOUS
  0
LAYER
  2
6
 70
     0
 62
     7
  6
CONTINUOUS
  0
LAYER
  2
7
 70
     0
 62
     7
  6
CONTINUOUS
  0
LAYER
  2
8
 70
     0
 62
     7
  6
CONTINUOUS
  0
LAYER
  2
9
 70
     0
 62
     7
  6
CONTINUOUS
  0
LAYER
  2
10
 70
     0
 62
     7
  6
CONTINUOUS
  0
LAYER
  2
11
 70
     0
 62
     7
  6
CONTINUOUS
  0
LAYER
  2
12
 70
     0
 62
     7
  6
CONTINUOUS
  0
LAYER
  2
13
 70
     0
 62
     7
  6
CONTINUOUS
  0
LAYER
  2
14
 70
     0
 62
     7
  6
CONTINUOUS
  0
LAYER
  2
15
 70
     0
 62
     7
  6
CONTINUOUS
  0
LAYER
  2
16
 70
     0
 62
     7
  6
CONTINUOUS
  0
LAYER
  2
17
 70
     0
 62
     7
  6
CONTINUOUS
  0
LAYER
  2
18
 70
     0
 62
     7
  6
CONTINUOUS
  0
LAYER
  2
19
 70
     0
 62
     7
  6
CONTINUOUS
  0
LAYER
  2
20
 70
     0
 62
     7
  6
CONTINUOUS
  0
LAYER
  2
21
 70
     0
 62
     7
  6
CONTINUOUS
  0
LAYER
  2
22
 70
     0
 62
     7
  6
CONTINUOUS
  0
LAYER
  2
23
 70
     0
 62
     7
  6
CONTINUOUS
  0
LAYER
  2
24
 70
     0
 62
     7
  6
CONTINUOUS
  0
LAYER
  2
25
 70
     0
 62
     7
  6
CONTINUOUS
  0
LAYER
  2
26
 70
     0
 62
     7
  6
CONTINUOUS
  0
LAYER
  2
27
 70
     0
 62
     7
  6
CONTINUOUS
  0
LAYER
  2
28
 70
     0
 62
     7
  6
CONTINUOUS
  0
LAYER
  2
29
 70
     0
 62
     7
  6
CONTINUOUS
  0
LAYER
  2
30
 70
     0
 62
     7
  6
CONTINUOUS
  0
LAYER
  2
31
 70
     0
 62
     7
  6
CONTINUOUS
  0
ENDTAB
  0
ENDSEC
  0
SECTION
  2
ENTITIES
  0
LINE
  8
1
  6
CONTINUOUS
 62
1
 10
0.0226713467818058
 20
0.0281798812769924
 30
0.0
 11
0.0226713467818023
 21
18.028179881277
 31
0.0
  0
LINE
  8
1
  6
CONTINUOUS
 62
1
 10
0.0226713467818023
 20
18.028179881277
 30
0.0
 11
18.5226713467818
 21
18.028179881277
 31
0.0
  0
LINE
  8
1
  6
CONTINUOUS
 62
1
 10
18.5226713467818
 20
18.028179881277
 30
0.0
 11
18.5226713467818
 21
0.028179881276996
 31
0.0
  0
LINE
  8
1
  6
CONTINUOUS
 62
1
 10
18.5226713467818
 20
0.028179881276996
 30
0.0
 11
0.0226713467818058
 21
0.0281798812769924
 31
0.0
  0
ARC
  8
1
  6
CONTINUOUS
 62
1
 10
4.02267134678181
 20
1.24921334023206
 30
0.0
 40
0.177999999999999
 50
269.999999999999
 51
89.9999999999998
  0
ARC
  8
1
  6
CONTINUOUS
 62
1
 10
4.0226713467818
 20
1.24921334023206
 30
0.0
 40
0.177999999999999
 50
89.9999999999998
 51
270
  0
ARC
  8
1
  6
CONTINUOUS
 62
1
 10
16.0226713467818
 20
1.249179881277
 30
0.0
 40
0.178000000000001
 50
269.999999999999
 51
89.9999999999998
  0
ARC
  8
1
  6
CONTINUOUS
 62
1
 10
16.0226713467818
 20
1.249179881277
 30
0.0
 40
0.178000000000001
 50
89.9999999999998
 51
270
  0
ARC
  8
1
  6
CONTINUOUS
 62
1
 10
4.0226713467818
 20
16.8072133402321
 30
0.0
 40
0.178000000000001
 50
269.999999999999
 51
89.9999999999998
  0
ARC
  8
1
  6
CONTINUOUS
 62
1
 10
4.0226713467818
 20
16.8072133402321
 30
0.0
 40
0.178000000000001
 50
89.9999999999998
 51
270
  0
ARC
  8
1
  6
CONTINUOUS
 62
1
 10
16.0226713467818
 20
16.8071798812769
 30
0.0
 40
0.178000000000051
 50
269.999999999999
 51
89.9999999999998
  0
ARC
  8
1
  6
CONTINUOUS
 62
1
 10
16.0226713467818
 20
16.8071798812769
 30
0.0
 40
0.178000000000051
 50
89.9999999999998
 51
270
  0
ARC
  8
6
  6
CONTINUOUS
 62
6
 10
5.50187134678181
 20
5.00617988127692
 30
0.0
 40
0.31548316101305
 50
269.999999999999
 51
89.9999999999998
  0
ARC
  8
6
  6
CONTINUOUS
 62
6
 10
5.5018713467818
 20
5.00617988127692
 30
0.0
 40
0.31548316101305
 50
89.9999999999998
 51
270
  0
ARC
  8
6
  6
CONTINUOUS
 62
6
 10
13.5583713467819
 20
13.020179881277
 30
0.0
 40
0.315483161013098
 50
269.999999999999
 51
89.9999999999998
  0
ARC
  8
6
  6
CONTINUOUS
 62
6
 10
13.5583713467819
 20
13.020179881277
 30
0.0
 40
0.315483161013098
 50
89.9999999999998
 51
270
  0
ARC
  8
1
  6
CONTINUOUS
 62
1
 10
14.3708713467819
 20
14.595179881277
 30
0.0
 40
0.0999999999999996
 50
269.999999999999
 51
89.9999999999998
  0
ARC
  8
1
  6
CONTINUOUS
 62
1
 10
14.3708713467819
 20
14.595179881277
 30
0.0
 40
0.0999999999999996
 50
89.9999999999998
 51
270
  0
ARC
  8
1
  6
CONTINUOUS
 62
1
 10
14.3708713467819
 20
11.070229881277
 30
0.0
 40
0.0999999999999996
 50
269.999999999999
 51
89.9999999999998
  0
ARC
  8
1
  6
CONTINUOUS
 62
1
 10
14.3708713467819
 20
11.070229881277
 30
0.0
 40
0.0999999999999996
 50
89.9999999999998
 51
270
  0
ARC
  8
1
  6
CONTINUOUS
 62
1
 10
11.7038713467819
 20
14.595179881277
 30
0.0
 40
0.0999999999999996
 50
269.999999999999
 51
89.9999999999998
  0
ARC
  8
1
  6
CONTINUOUS
 62
1
 10
11.7038713467819
 20
14.595179881277
 30
0.0
 40
0.0999999999999996
 50
89.9999999999998
 51
270
  0
ARC
  8
1
  6
CONTINUOUS
 62
1
 10
6.00187134678181
 20
3.46117988127699
 30
0.0
 40
0.0999999999999996
 50
269.999999999999
 51
89.9999999999998
  0
ARC
  8
1
  6
CONTINUOUS
 62
1
 10
6.0018713467818
 20
3.46117988127699
 30
0.0
 40
0.0999999999999996
 50
89.9999999999998
 51
270
  0
ARC
  8
1
  6
CONTINUOUS
 62
1
 10
6.00182967583571
 20
6.98618960278587
 30
0.0
 40
0.0999999999999996
 50
269.999999999999
 51
89.9999999999998
  0
ARC
  8
1
  6
CONTINUOUS
 62
1
 10
6.0018296758357
 20
6.98618960278587
 30
0.0
 40
0.0999999999999996
 50
89.9999999999998
 51
270
  0
ARC
  8
1
  6
CONTINUOUS
 62
1
 10
3.33491975415701
 20
3.46115488811665
 30
0.0
 40
0.100000000000001
 50
269.999999999999
 51
89.9999999999998
  0
ARC
  8
1
  6
CONTINUOUS
 62
1
 10
3.33491975415701
 20
3.46115488811665
 30
0.0
 40
0.100000000000001
 50
89.9999999999998
 51
270
  0
LINE
  8
1
  6
CONTINUOUS
 62
1
 10
0.522671354179906
 20
0.0281798812773513
 30
0.0
 11
0.521906223462505
 21
0.35417931980871
 31
0.0
  0
LINE
  8
1
  6
CONTINUOUS
 62
1
 10
0.521906223462505
 20
0.35417931980871
 30
0.0
 11
0.0219062234625049
 21
0.35417931980871
 31
0.0
  0
LINE
  8
1
  6
CONTINUOUS
 62
1
 10
0.0219062234625049
 20
0.35417931980871
 30
0.0
 11
0.0226713541799057
 21
0.0281798812773513
 31
0.0
  0
LINE
  8
1
  6
CONTINUOUS
 62
1
 10
0.0226713541799057
 20
0.0281798812773513
 30
0.0
 11
0.522671354179906
 21
0.0281798812773513
 31
0.0
  0
LINE
  8
1
  6
CONTINUOUS
 62
1
 10
0.0226713467818023
 20
18.028179881277
 30
0.0
 11
0.0226713467818058
 21
9.02817988127697
 31
0.0
  0
LINE
  8
1
  6
CONTINUOUS
 62
1
 10
0.5227669465344
 20
17.7037429616823
 30
0.0
 11
0.522795262540601
 21
18.0297429604525
 31
0.0
  0
LINE
  8
1
  6
CONTINUOUS
 62
1
 10
0.522795262540601
 20
18.0297429604525
 30
0.0
 11
0.0227953032674009
 21
18.0302118447592
 31
0.0
  0
LINE
  8
1
  6
CONTINUOUS
 62
1
 10
0.0227953032674009
 20
18.0302118447592
 30
0.0
 11
0.0233261963795002
 21
17.7042122770409
 31
0.0
  0
LINE
  8
1
  6
CONTINUOUS
 62
1
 10
0.0233261963795002
 20
17.7042122770409
 30
0.0
 11
0.5227669465344
 21
17.7037429616823
 31
0.0
  0
LINE
  8
1
  6
CONTINUOUS
 62
1
 10
18.5226713467818
 20
0.028179881276996
 30
0.0
 11
18.5221989877105
 21
0.340678096266776
 31
0.0
  0
LINE
  8
1
  6
CONTINUOUS
 62
1
 10
18.5221989877105
 20
0.340678096266776
 30
0.0
 11
17.9821976234686
 21
0.340601538057784
 31
0.0
  0
LINE
  8
1
  6
CONTINUOUS
 62
1
 10
17.9821976234686
 20
0.340601538057784
 30
0.0
 11
17.98266998254
 21
0.0281033230680148
 31
0.0
  0
LINE
  8
1
  6
CONTINUOUS
 62
1
 10
17.98266998254
 20
0.0281033230680148
 30
0.0
 11
18.5226713467818
 21
0.028179881276996
 31
0.0
  0
LINE
  8
1
  6
CONTINUOUS
 62
1
 10
18.5225840856999
 20
17.7153836041773
 30
0.0
 11
18.5226713538172
 21
18.0278835432515
 31
0.0
  0
LINE
  8
1
  6
CONTINUOUS
 62
1
 10
18.5226713538172
 20
18.0278835432515
 30
0.0
 11
17.9826752727705
 21
18.0269124997954
 31
0.0
  0
LINE
  8
1
  6
CONTINUOUS
 62
1
 10
17.9826752727705
 20
18.0269124997954
 30
0.0
 11
17.9825880046531
 21
17.7144125607212
 31
0.0
  0
LINE
  8
1
  6
CONTINUOUS
 62
1
 10
17.9825880046531
 20
17.7144125607212
 30
0.0
 11
18.5225840856999
 21
17.7153836041773
 31
0.0
  0
ARC
  8
1
  6
CONTINUOUS
 62
1
 10
14.0226972480628
 20
3.84074296724391
 30
0.0
 40
0.127000000000001
 50
269.999999999999
 51
89.9999999999998
  0
ARC
  8
1
  6
CONTINUOUS
 62
1
 10
14.0226972480628
 20
3.84074296724391
 30
0.0
 40
0.127000000000001
 50
89.9999999999998
 51
270
  0
ARC
  8
1
  6
CONTINUOUS
 62
1
 10
14.0227062452913
 20
7.80474038690478
 30
0.0
 40
0.127000000000001
 50
269.999999999999
 51
89.9999999999998
  0
ARC
  8
1
  6
CONTINUOUS
 62
1
 10
14.0227062452913
 20
7.80474038690478
 30
0.0
 40
0.127000000000001
 50
89.9999999999998
 51
270
  0
ARC
  8
1
  6
CONTINUOUS
 62
1
 10
10.0586750698082
 20
3.82817715869252
 30
0.0
 40
0.127000000000004
 50
269.999999999999
 51
89.9999999999998
  0
ARC
  8
1
  6
CONTINUOUS
 62
1
 10
10.0586750698082
 20
3.82817715869252
 30
0.0
 40
0.127000000000004
 50
89.9999999999998
 51
270
  0
ARC
  8
1
  6
CONTINUOUS
 62
1
 10
10.0586840670367
 20
7.79217457835337
 30
0.0
 40
0.127000000000001
 50
269.999999999999
 51
89.9999999999998
  0
ARC
  8
1
  6
CONTINUOUS
 62
1
 10
10.0586840670367
 20
7.79217457835337
 30
0.0
 40
0.127000000000001
 50
89.9999999999998
 51
270
  0
ARC
  8
1
  6
CONTINUOUS
 62
1
 10
1.4618773093818
 20
16.807187922
 30
0.0
 40
0.205000000000002
 50
269.999999999999
 51
89.9999999999998
  0
ARC
  8
1
  6
CONTINUOUS
 62
1
 10
1.4618773093818
 20
16.807187922
 30
0.0
 40
0.205000000000002
 50
89.9999999999998
 51
270
  0
ARC
  8
1
  6
CONTINUOUS
 62
1
 10
2.4618646090391
 20
16.8071951632779
 30
0.0
 40
0.205000000000002
 50
269.999999999999
 51
89.9999999999998
  0
ARC
  8
1
  6
CONTINUOUS
 62
1
 10
2.4618646090391
 20
16.8071951632779
 30
0.0
 40
0.205000000000002
 50
89.9999999999998
 51
270
  0
LINE
  8
6
  6
CONTINUOUS
 62
6
 10
1.06258549137864
 20
7.21212180591154
 30
0.0
 11
1.06266761082834
 21
7.27212172160029
 31
0.0
  0
LINE
  8
6
  6
CONTINUOUS
 62
6
 10
1.06266761082834
 20
7.27212172160029
 30
0.0
 11
1.06274973031651
 21
7.33212166540351
 31
0.0
  0
LINE
  8
6
  6
CONTINUOUS
 62
6
 10
1.06266761082834
 20
7.27212172160029
 30
0.0
 11
1.48266721745088
 21
7.27154688518307
 31
0.0
  0
LINE
  8
6
  6
CONTINUOUS
 62
6
 10
1.48258509800119
 20
7.21154696949432
 30
0.0
 11
1.48266721745088
 21
7.27154688518307
 31
0.0
  0
LINE
  8
6
  6
CONTINUOUS
 62
6
 10
1.48266721745088
 20
7.27154688518307
 30
0.0
 11
1.48274933693906
 21
7.33154682898629
 31
0.0
  0
LINE
  8
6
  6
CONTINUOUS
 62
6
 10
1.48279244967035
 20
7.36304679948298
 30
0.0
 11
1.0627928430478
 21
7.3636216359002
 31
0.0
  0
LINE
  8
6
  6
CONTINUOUS
 62
6
 10
1.0627928430478
 20
7.3636216359002
 30
0.0
 11
1.48314474227461
 21
7.6204465583988
 31
0.0
  0
LINE
  8
6
  6
CONTINUOUS
 62
6
 10
1.48314474227461
 20
7.6204465583988
 30
0.0
 11
1.06314513565207
 21
7.62102139481602
 31
0.0
  0
ARC
  8
6
  6
CONTINUOUS
 62
6
 10
1.18487812631936
 20
7.79960992918367
 30
0.0
 40
0.121071389999996
 50
120.443601640715
 51
179.220061640716
  0
LINE
  8
6
  6
CONTINUOUS
 62
6
 10
1.06381795340726
 20
7.80125796165386
 30
0.0
 11
1.06335339163676
 21
7.76713223458151
 31
0.0
  0
ARC
  8
6
  6
CONTINUOUS
 62
6
 10
1.17386905498667
 20
7.76562775878208
 30
0.0
 40
0.110525903267523
 50
179.220067212263
 51
267.272287212264
  0
ARC
  8
6
  6
CONTINUOUS
 62
6
 10
1.16057847228994
 20
7.74514097843563
 30
0.0
 40
0.090271814622322
 50
275.103855895825
 51
329.266355895825
  0
LINE
  8
6
  6
CONTINUOUS
 62
6
 10
1.23817182109604
 20
7.69900777199751
 30
0.0
 11
1.30939249657726
 21
7.86420870208178
 31
0.0
  0
ARC
  8
6
  6
CONTINUOUS
 62
6
 10
1.38698585509907
 20
7.81807557809018
 30
0.0
 40
0.0902717808394166
 50
95.1038210268123
 51
149.266404026812
  0
ARC
  8
6
  6
CONTINUOUS
 62
6
 10
1.37369527717049
 20
7.79758880461548
 30
0.0
 40
0.11052587019469
 50
359.362658911813
 51
87.2722589118158
  0
LINE
  8
6
  6
CONTINUOUS
 62
6
 10
1.48421430938182
 20
7.79635937329845
 30
0.0
 11
1.48373819944575
 21
7.7535598687819
 31
0.0
  0
ARC
  8
6
  6
CONTINUOUS
 62
6
 10
1.36267434380556
 20
7.75490658003612
 30
0.0
 40
0.121071345799373
 50
300.443569491924
 51
359.362669491925
  0
LINE
  8
6
  6
CONTINUOUS
 62
6
 10
1.06357954776631
 20
7.93842111346631
 30
0.0
 11
1.48357956498627
 21
7.93814627676811
 31
0.0
  0
LINE
  8
6
  6
CONTINUOUS
 62
6
 10
1.48357956498627
 20
7.93814627676811
 30
0.0
 11
1.48391666548522
 21
8.18444604608034
 31
0.0
  0
LINE
  8
6
  6
CONTINUOUS
 62
6
 10
1.27357976167499
 20
7.93843369497672
 30
0.0
 11
1.27384295463459
 21
8.13073351486604
 31
0.0
  0
LINE
  8
6
  6
CONTINUOUS
 62
6
 10
1.06358981270495
 20
7.94592110835498
 30
0.0
 11
1.06358445556324
 21
7.94592111186055
 31
0.0
  0
LINE
  8
6
  6
CONTINUOUS
 62
6
 10
1.06358445556324
 20
7.94592111186055
 30
0.0
 11
1.0639170588627
 21
8.18502088249755
 31
0.0
  0
LINE
  8
6
  6
CONTINUOUS
 62
6
 10
1.06395811860679
 20
8.21502085439916
 30
0.0
 11
1.48395772522934
 21
8.21444601798195
 31
0.0
  0
LINE
  8
6
  6
CONTINUOUS
 62
6
 10
1.06398891341486
 20
8.23752083332537
 30
0.0
 11
1.06416670210675
 21
8.36742071165934
 31
0.0
  0
ARC
  8
6
  6
CONTINUOUS
 62
6
 10
1.1691666037624
 20
8.36727700255504
 30
0.0
 40
0.105000000000005
 50
89.9171816407171
 51
179.921581640719
  0
ARC
  8
6
  6
CONTINUOUS
 62
6
 10
1.16916660376238
 20
8.36727700255504
 30
0.0
 40
0.105000000000012
 50
359.912781640706
 51
89.9171816407086
  0
LINE
  8
6
  6
CONTINUOUS
 62
6
 10
1.27416648210744
 20
8.36711716662529
 30
0.0
 11
1.4843100178336
 21
8.47184577689776
 31
0.0
  0
LINE
  8
6
  6
CONTINUOUS
 62
6
 10
1.27398871672613
 20
8.23723341511676
 30
0.0
 11
1.27416648324576
 21
8.36711709346591
 31
0.0
  0
LINE
  8
6
  6
CONTINUOUS
 62
6
 10
1.06435147095514
 20
8.50242058521659
 30
0.0
 11
1.06453521330993
 21
8.6366704594763
 31
0.0
  0
LINE
  8
6
  6
CONTINUOUS
 62
6
 10
1.06453521330993
 20
8.6366704594763
 30
0.0
 11
1.48453481997354
 21
8.63609565305905
 31
0.0
  0
LINE
  8
6
  6
CONTINUOUS
 62
6
 10
1.06453521335099
 20
8.63667048947628
 30
0.0
 11
1.06471895566472
 21
8.770920333736
 31
0.0
  0
LINE
  8
6
  6
CONTINUOUS
 62
6
 10
1.06521167259376
 20
9.13091999655533
 30
0.0
 11
1.06539541494855
 21
9.26516987081504
 31
0.0
  0
LINE
  8
6
  6
CONTINUOUS
 62
6
 10
1.06539541494855
 20
9.26516987081504
 30
0.0
 11
1.48539502161216
 21
9.26459506439779
 31
0.0
  0
LINE
  8
6
  6
CONTINUOUS
 62
6
 10
1.06539541498961
 20
9.26516990081502
 30
0.0
 11
1.06557915730334
 21
9.39941974507474
 31
0.0
  0
LINE
  8
6
  6
CONTINUOUS
 62
6
 10
1.06562021704743
 20
9.42941971697635
 30
0.0
 11
1.2756200203587
 21
9.42913229876774
 31
0.0
  0
LINE
  8
6
  6
CONTINUOUS
 62
6
 10
1.2756200203587
 20
9.42913229876774
 30
0.0
 11
1.48561982366997
 21
9.42884488055914
 31
0.0
  0
LINE
  8
6
  6
CONTINUOUS
 62
6
 10
1.2756200203587
 20
9.42913229876774
 30
0.0
 11
1.27596902818344
 21
9.68413205993143
 31
0.0
  0
LINE
  8
6
  6
CONTINUOUS
 62
6
 10
1.48596883149471
 20
9.68384464172282
 30
0.0
 11
1.27596902818344
 21
9.68413205993143
 31
0.0
  0
LINE
  8
6
  6
CONTINUOUS
 62
6
 10
1.27596902818344
 20
9.68413205993143
 30
0.0
 11
1.06596922487217
 21
9.68441947814004
 31
0.0
  0
LINE
  8
6
  6
CONTINUOUS
 62
6
 10
1.06601028461625
 20
9.71441945004165
 30
0.0
 11
1.06609240406595
 21
9.7744193657304
 31
0.0
  0
LINE
  8
6
  6
CONTINUOUS
 62
6
 10
1.06609240406595
 20
9.7744193657304
 30
0.0
 11
1.06617452355412
 21
9.83441930953362
 31
0.0
  0
LINE
  8
6
  6
CONTINUOUS
 62
6
 10
1.06609240406595
 20
9.7744193657304
 30
0.0
 11
1.4860920106885
 21
9.77384452931318
 31
0.0
  0
LINE
  8
6
  6
CONTINUOUS
 62
6
 10
1.4860098912388
 20
9.71384461362443
 30
0.0
 11
1.4860920106885
 21
9.77384452931318
 31
0.0
  0
LINE
  8
6
  6
CONTINUOUS
 62
6
 10
1.4860920106885
 20
9.77384452931318
 30
0.0
 11
1.48617413017667
 21
9.8338444731164
 31
0.0
  0
ARC
  8
6
  6
CONTINUOUS
 62
6
 10
1.18790751422142
 20
10.0130078439013
 30
0.0
 40
0.121071389999997
 50
120.443601640716
 51
179.220061640716
  0
LINE
  8
6
  6
CONTINUOUS
 62
6
 10
1.06684734130932
 20
10.0146558763715
 30
0.0
 11
1.06638277953881
 21
9.98053014929912
 31
0.0
  0
ARC
  8
6
  6
CONTINUOUS
 62
6
 10
1.17689844288873
 20
9.97902567349969
 30
0.0
 40
0.110525903267523
 50
179.220067212263
 51
267.272287212264
  0
ARC
  8
6
  6
CONTINUOUS
 62
6
 10
1.163607860192
 20
9.95853889315323
 30
0.0
 40
0.090271814622321
 50
275.103855895824
 51
329.266355895824
  0
LINE
  8
6
  6
CONTINUOUS
 62
6
 10
1.2412012089981
 20
9.91240568671511
 30
0.0
 11
1.31242188447932
 21
10.0776066167994
 31
0.0
  0
ARC
  8
6
  6
CONTINUOUS
 62
6
 10
1.39001524300113
 20
10.0314734928078
 30
0.0
 40
0.0902717808394166
 50
95.1038210268123
 51
149.266404026812
  0
ARC
  8
6
  6
CONTINUOUS
 62
6
 10
1.37672466507254
 20
10.0109867193331
 30
0.0
 40
0.110525870194691
 50
359.362658911813
 51
87.2722589118153
  0
LINE
  8
6
  6
CONTINUOUS
 62
6
 10
1.48724369728388
 20
10.009757288016
 30
0.0
 11
1.48676758734781
 21
9.96695778349951
 31
0.0
  0
ARC
  8
6
  6
CONTINUOUS
 62
6
 10
1.36570373170761
 20
9.96830449475372
 30
0.0
 40
0.121071345799373
 50
300.443569491924
 51
359.362669491925
  0
LINE
  8
6
  6
CONTINUOUS
 62
6
 10
1.06706059285332
 20
10.4818187191016
 30
0.0
 11
1.48706061007328
 21
10.4815438824034
 31
0.0
  0
LINE
  8
6
  6
CONTINUOUS
 62
6
 10
1.48706061007328
 20
10.4815438824034
 30
0.0
 11
1.48739771057223
 21
10.7278436517157
 31
0.0
  0
LINE
  8
6
  6
CONTINUOUS
 62
6
 10
1.27706080676201
 20
10.481831300612
 30
0.0
 11
1.2773239997216
 21
10.6741311205014
 31
0.0
  0
LINE
  8
6
  6
CONTINUOUS
 62
6
 10
1.06707085779196
 20
10.4893187139903
 30
0.0
 11
1.06706550065025
 21
10.4893187174959
 31
0.0
  0
LINE
  8
6
  6
CONTINUOUS
 62
6
 10
1.06706550065025
 20
10.4893187174959
 30
0.0
 11
1.06739810394972
 21
10.7284184881329
 31
0.0
  0
LINE
  8
6
  6
CONTINUOUS
 62
6
 10
1.48744082330355
 20
10.7593436222123
 30
0.0
 11
1.06744121668101
 21
10.7599184586296
 31
0.0
  0
LINE
  8
6
  6
CONTINUOUS
 62
6
 10
1.06744121668101
 20
10.7599184586296
 30
0.0
 11
1.48779311590782
 21
11.0167433811282
 31
0.0
  0
LINE
  8
6
  6
CONTINUOUS
 62
6
 10
1.48779311590782
 20
11.0167433811282
 30
0.0
 11
1.06779350928527
 21
11.0173182175454
 31
0.0
  0
LINE
  8
6
  6
CONTINUOUS
 62
6
 10
1.06783456902936
 20
11.047318189447
 30
0.0
 11
1.48783417565191
 21
11.0467433530298
 31
0.0
  0
LINE
  8
6
  6
CONTINUOUS
 62
6
 10
1.48786497045997
 20
11.069243331956
 30
0.0
 11
1.48799451378833
 21
11.1638931233057
 31
0.0
  0
ARC
  8
6
  6
CONTINUOUS
 62
6
 10
1.33420121254828
 20
11.149615138028
 30
0.0
 40
0.154454654736913
 50
5.30406752548159
 51
65.5347675254816
  0
ARC
  8
6
  6
CONTINUOUS
 62
6
 10
1.27768218057823
 20
10.9359615417102
 30
0.0
 40
0.374169422895455
 50
71.2156789189962
 51
108.627478918998
  0
ARC
  8
6
  6
CONTINUOUS
 62
6
 10
1.22174840868527
 20
11.149769293625
 30
0.0
 40
0.154454514312293
 50
114.308491627877
 51
174.539071627877
  0
LINE
  8
6
  6
CONTINUOUS
 62
6
 10
1.06799491292622
 20
11.1644682573067
 30
0.0
 11
1.06786536383743
 21
11.0698181683732
 31
0.0
  0
LINE
  8
6
  6
CONTINUOUS
 62
6
 10
1.2447991743685
 20
16.1726562403997
 30
0.0
 11
1.3977991743685
 21
15.7526562403997
 31
0.0
  0
LINE
  8
6
  6
CONTINUOUS
 62
6
 10
1.3977991743685
 20
15.7526562403997
 30
0.0
 11
1.5507991743685
 21
16.1726562403997
 31
0.0
  0
LINE
  8
6
  6
CONTINUOUS
 62
6
 10
1.5807991743685
 20
16.1726562403997
 30
0.0
 11
1.5810991743685
 21
15.7526562403997
 31
0.0
  0
LINE
  8
6
  6
CONTINUOUS
 62
6
 10
1.5810991743685
 20
15.7526562403997
 30
0.0
 11
1.8273991743685
 21
15.7526562403997
 31
0.0
  0
LINE
  8
6
  6
CONTINUOUS
 62
6
 10
1.5810991743685
 20
15.9626562403997
 30
0.0
 11
1.7733991743685
 21
15.9626562403997
 31
0.0
  0
LINE
  8
6
  6
CONTINUOUS
 62
6
 10
1.58829917628177
 20
16.1726562403997
 30
0.0
 11
1.58829917245524
 21
16.1726615975412
 31
0.0
  0
LINE
  8
6
  6
CONTINUOUS
 62
6
 10
1.58829917245524
 20
16.1726615975412
 30
0.0
 11
1.8273991743685
 21
16.1726562403997
 31
0.0
  0
LINE
  8
6
  6
CONTINUOUS
 62
6
 10
1.8588991743685
 20
15.7526562403997
 30
0.0
 11
1.8588991743685
 21
16.1726562403997
 31
0.0
  0
LINE
  8
6
  6
CONTINUOUS
 62
6
 10
1.8588991743685
 20
16.1726562403997
 30
0.0
 11
2.1162991743685
 21
15.7526562403997
 31
0.0
  0
LINE
  8
6
  6
CONTINUOUS
 62
6
 10
2.1162991743685
 20
15.7526562403997
 30
0.0
 11
2.1162991743685
 21
16.1726562403997
 31
0.0
  0
LINE
  8
6
  6
CONTINUOUS
 62
6
 10
2.1462991743685
 20
16.1726562403997
 30
0.0
 11
2.2805491743685
 21
16.1726562403997
 31
0.0
  0
LINE
  8
6
  6
CONTINUOUS
 62
6
 10
2.2805491743685
 20
16.1726562403997
 30
0.0
 11
2.2805492043685
 21
15.7526562403997
 31
0.0
  0
LINE
  8
6
  6
CONTINUOUS
 62
6
 10
2.28054920436852
 20
16.1726562403997
 30
0.0
 11
2.4147991743685
 21
16.1726562403997
 31
0.0
  0
ARC
  8
6
  6
CONTINUOUS
 62
6
 10
2.59355415231594
 20
16.0511677903997
 30
0.0
 40
0.121071389999995
 50
30.522020000001
 51
89.2984800000011
  0
LINE
  8
6
  6
CONTINUOUS
 62
6
 10
2.59503649325193
 20
16.1722301055183
 30
0.0
 11
2.56091016231594
 21
16.1726479603997
 31
0.0
  0
ARC
  8
6
  6
CONTINUOUS
 62
6
 10
2.55955694608744
 20
16.0621303414471
 30
0.0
 40
0.110525903267523
 50
89.298485571548
 51
177.350705571549
  0
ARC
  8
6
  6
CONTINUOUS
 62
6
 10
2.53905199466503
 20
16.0753928722971
 30
0.0
 40
0.0902718146223203
 50
185.18227425511
 51
239.34477425511
  0
LINE
  8
6
  6
CONTINUOUS
 62
6
 10
2.49302503020403
 20
15.9977364555776
 30
0.0
 11
2.65832328231594
 21
15.9267419503997
 31
0.0
  0
ARC
  8
6
  6
CONTINUOUS
 62
6
 10
2.61229640031467
 20
15.8490855240773
 30
0.0
 40
0.0902717808394169
 50
5.18223938609741
 51
59.3448223860974
  0
ARC
  8
6
  6
CONTINUOUS
 62
6
 10
2.59179145577054
 20
15.8623480501686
 30
0.0
 40
0.11052587019469
 50
269.441077271098
 51
357.3506772711
  0
LINE
  8
6
  6
CONTINUOUS
 62
6
 10
2.59071328837765
 20
15.7518274387996
 30
0.0
 11
2.54791317231594
 21
15.7522449703997
 31
0.0
  0
ARC
  8
6
  6
CONTINUOUS
 62
6
 10
2.54909418727778
 20
15.8733105558372
 30
0.0
 40
0.121071345799373
 50
210.52198785121
 51
269.44108785121
  0
LINE
  8
6
  6
CONTINUOUS
 62
6
 10
10.9757875290429
 20
6.06953428203936
 30
0.0
 11
10.9757875290429
 21
5.85953428203936
 31
0.0
  0
LINE
  8
6
  6
CONTINUOUS
 62
6
 10
10.9757875290429
 20
5.85953428203936
 30
0.0
 11
10.9757875290429
 21
5.64953428203936
 31
0.0
  0
LINE
  8
6
  6
CONTINUOUS
 62
6
 10
10.9757875290429
 20
5.85953428203936
 30
0.0
 11
11.2307875290429
 21
5.85953428203936
 31
0.0
  0
LINE
  8
6
  6
CONTINUOUS
 62
6
 10
11.2307875290429
 20
5.64953428203936
 30
0.0
 11
11.2307875290429
 21
5.85953428203936
 31
0.0
  0
LINE
  8
6
  6
CONTINUOUS
 62
6
 10
11.2307875290429
 20
5.85953428203936
 30
0.0
 11
11.2307875290429
 21
6.06953428203936
 31
0.0
  0
LINE
  8
6
  6
CONTINUOUS
 62
6
 10
11.2607875290429
 20
6.06953428203936
 30
0.0
 11
11.2607875290429
 21
5.64953428203936
 31
0.0
  0
LINE
  8
6
  6
CONTINUOUS
 62
6
 10
11.2832875290429
 20
5.64953428203936
 30
0.0
 11
11.3779374090429
 21
5.64953428203936
 31
0.0
  0
ARC
  8
6
  6
CONTINUOUS
 62
6
 10
11.3634489466851
 20
5.80330789755388
 30
0.0
 40
0.154454654736913
 50
275.382485884766
 51
335.613185884766
  0
ARC
  8
6
  6
CONTINUOUS
 62
6
 10
11.1497181895447
 20
5.85953444101928
 30
0.0
 40
0.374169422895454
 50
341.294099999999
 51
18.7059000000007
  0
ARC
  8
6
  6
CONTINUOUS
 62
6
 10
11.3634491926927
 20
5.91576080707845
 30
0.0
 40
0.154454514312295
 50
24.3869099871625
 51
84.6174899871625
  0
LINE
  8
6
  6
CONTINUOUS
 62
6
 10
11.3779377066343
 20
6.06953427668622
 30
0.0
 11
11.2832875290429
 21
6.06953428203936
 31
0.0
  0
LINE
  8
6
  6
CONTINUOUS
 62
6
 10
11.8853876490429
 20
5.64953428203936
 30
0.0
 11
11.8853876490429
 21
6.06953428203936
 31
0.0
  0
LINE
  8
6
  6
CONTINUOUS
 62
6
 10
11.8853876490429
 20
6.06953428203936
 30
0.0
 11
12.0623876490429
 21
5.77253428203936
 31
0.0
  0
LINE
  8
6
  6
CONTINUOUS
 62
6
 10
12.0623876490429
 20
5.77253428203936
 30
0.0
 11
12.2393876490429
 21
6.06953428203936
 31
0.0
  0
LINE
  8
6
  6
CONTINUOUS
 62
6
 10
12.2393876490429
 20
6.06953428203936
 30
0.0
 11
12.2393876490429
 21
5.64953428203936
 31
0.0
  0
ARC
  8
6
  6
CONTINUOUS
 62
6
 10
12.4092762090429
 20
5.94463048203936
 30
0.0
 40
0.124903800000001
 50
93.4424652776281
 51
164.097999999999
  0
ARC
  8
6
  6
CONTINUOUS
 62
6
 10
12.6435571579194
 20
5.85885310549051
 30
0.0
 40
0.374169560784254
 50
161.2941
 51
198.7059
  0
ARC
  8
6
  6
CONTINUOUS
 62
6
 10
12.409276079517
 20
5.77307579623176
 30
0.0
 40
0.124903626714107
 50
195.902054741785
 51
266.557589464157
  0
ARC
  8
6
  6
CONTINUOUS
 62
6
 10
12.4092762090429
 20
5.77307596203936
 30
0.0
 40
0.1249038
 50
273.442465277628
 51
344.097999999997
  0
ARC
  8
6
  6
CONTINUOUS
 62
6
 10
12.1749952830808
 20
5.85885333082944
 30
0.0
 40
0.374169536591777
 50
341.294099999999
 51
18.7059000000007
  0
ARC
  8
6
  6
CONTINUOUS
 62
6
 10
12.4092763876218
 20
5.94463055543417
 30
0.0
 40
0.124903716014756
 50
15.9020797482312
 51
86.5576144706042
  0
LINE
  8
6
  6
CONTINUOUS
 62
6
 10
12.5791648890429
 20
6.06953428203936
 30
0.0
 11
12.5791648890429
 21
5.76953425203936
 31
0.0
  0
ARC
  8
6
  6
CONTINUOUS
 62
6
 10
12.7021794954884
 20
5.76983422381448
 30
0.0
 40
0.123014972186391
 50
180.139715787557
 51
270.698715787557
  0
ARC
  8
6
  6
CONTINUOUS
 62
6
 10
12.7021795290429
 20
5.76983425203936
 30
0.0
 40
0.123014999999997
 50
270.698699999994
 51
1.25769999999901
  0
LINE
  8
6
  6
CONTINUOUS
 62
6
 10
12.8251648930492
 20
5.77253433819263
 30
0.0
 11
12.8251648890429
 21
6.06953428203936
 31
0.0
  0
LINE
  8
6
  6
CONTINUOUS
 62
6
 10
12.8566648890429
 20
5.64953428203936
 30
0.0
 11
12.8566648890429
 21
6.06953428203936
 31
0.0
  0
LINE
  8
6
  6
CONTINUOUS
 62
6
 10
12.8566648890429
 20
6.06953428203936
 30
0.0
 11
13.1140648890429
 21
5.64953428203936
 31
0.0
  0
LINE
  8
6
  6
CONTINUOUS
 62
6
 10
13.1140648890429
 20
5.64953428203936
 30
0.0
 11
13.1140648890429
 21
6.06953428203936
 31
0.0
  0
LINE
  8
6
  6
CONTINUOUS
 62
6
 10
13.1440648890429
 20
6.06953428203936
 30
0.0
 11
13.2783148890429
 21
6.06953428203936
 31
0.0
  0
LINE
  8
6
  6
CONTINUOUS
 62
6
 10
13.2783148890429
 20
6.06953428203936
 30
0.0
 11
13.2783149190429
 21
5.64953428203936
 31
0.0
  0
LINE
  8
6
  6
CONTINUOUS
 62
6
 10
13.2783149190429
 20
6.06953428203937
 30
0.0
 11
13.4125648890428
 21
6.06953428203936
 31
0.0
  0
ENDSEC
  0
EOF
